<svg width="31" height="31" viewBox="0 0 31 31" fill="none" xmlns="http://www.w3.org/2000/svg">
<g clip-path="url(#clip0_5212_7904)">
<path d="M11.6267 16.3867H5.71875" stroke="#2D3958" stroke-width="0.878906" stroke-miterlimit="10" stroke-linecap="round" stroke-linejoin="round"/>
<path d="M11.6267 20.2197H5.71875" stroke="#2D3958" stroke-width="0.878906" stroke-miterlimit="10" stroke-linecap="round" stroke-linejoin="round"/>
<path d="M11.6267 24.0522H5.71875" stroke="#2D3958" stroke-width="0.878906" stroke-miterlimit="10" stroke-linecap="round" stroke-linejoin="round"/>
<path d="M16.5547 18.7939H17.4874" stroke="#2D3958" stroke-width="0.878906" stroke-miterlimit="10" stroke-linecap="round" stroke-linejoin="round"/>
<path d="M19.3984 18.7939H20.3311" stroke="#2D3958" stroke-width="0.878906" stroke-miterlimit="10" stroke-linecap="round" stroke-linejoin="round"/>
<path d="M22.2422 18.7939H23.1749" stroke="#2D3958" stroke-width="0.878906" stroke-miterlimit="10" stroke-linecap="round" stroke-linejoin="round"/>
<path d="M25.0703 18.7939H26.0029" stroke="#2D3958" stroke-width="0.878906" stroke-miterlimit="10" stroke-linecap="round" stroke-linejoin="round"/>
<path d="M16.5547 21.0791H17.4874" stroke="#2D3958" stroke-width="0.878906" stroke-miterlimit="10" stroke-linecap="round" stroke-linejoin="round"/>
<path d="M19.3984 21.0791H20.3311" stroke="#2D3958" stroke-width="0.878906" stroke-miterlimit="10" stroke-linecap="round" stroke-linejoin="round"/>
<path d="M22.2422 21.0791H23.1749" stroke="#2D3958" stroke-width="0.878906" stroke-miterlimit="10" stroke-linecap="round" stroke-linejoin="round"/>
<path d="M25.0703 21.0791H26.0029" stroke="#2D3958" stroke-width="0.878906" stroke-miterlimit="10" stroke-linecap="round" stroke-linejoin="round"/>
<path d="M16.5547 23.3643H17.4874" stroke="#2D3958" stroke-width="0.878906" stroke-miterlimit="10" stroke-linecap="round" stroke-linejoin="round"/>
<path d="M19.3984 23.3643H20.3311" stroke="#2D3958" stroke-width="0.878906" stroke-miterlimit="10" stroke-linecap="round" stroke-linejoin="round"/>
<path d="M22.2422 23.3643H23.1749" stroke="#2D3958" stroke-width="0.878906" stroke-miterlimit="10" stroke-linecap="round" stroke-linejoin="round"/>
<path d="M25.0703 23.3643H26.0029" stroke="#2D3958" stroke-width="0.878906" stroke-miterlimit="10" stroke-linecap="round" stroke-linejoin="round"/>
<mask id="mask0_5212_7904" style="mask-type:luminance" maskUnits="userSpaceOnUse" x="0" y="0" width="31" height="31">
<path d="M0.367188 0.919924H30.3672V30.9199H0.367188V0.919924Z" fill="white"/>
</mask>
<g mask="url(#mask0_5212_7904)">
<path d="M9.73728 5.86337C9.73728 5.86337 8.94352 5.13124 7.71996 5.49979C6.59648 5.83823 6.31752 7.37544 7.08094 7.97421C7.51934 8.31809 8.17893 8.60075 9.06791 8.91499C11.0575 9.61829 10.322 12.4242 8.29816 12.4376C7.50838 12.4429 7.13912 12.3928 6.44531 11.9389" stroke="#2D3958" stroke-width="0.878906" stroke-miterlimit="10" stroke-linecap="round" stroke-linejoin="round"/>
<path d="M8.3125 4.44695V13.46" stroke="#2D3958" stroke-width="0.878906" stroke-miterlimit="10" stroke-linecap="round" stroke-linejoin="round"/>
<path d="M14.2734 15.9501V25.6355C14.2734 26.2354 14.7598 26.7217 15.3596 26.7217H27.1924C27.7922 26.7217 28.2785 26.2354 28.2785 25.6355V12.4172C28.2785 11.8174 27.7922 11.3311 27.1924 11.3311H15.3596C14.7598 11.3311 14.2734 11.8174 14.2734 12.4172V13.8956M25.9923 16.0481C25.9923 16.2348 25.841 16.3861 25.6543 16.3861H16.8976C16.711 16.3861 16.5596 16.2348 16.5596 16.0481V13.7991C16.5596 13.6124 16.711 13.4611 16.8976 13.4611H25.6543C25.841 13.4611 25.9923 13.6124 25.9923 13.7991V16.0481Z" stroke="#2D3958" stroke-width="0.878906" stroke-miterlimit="10" stroke-linecap="round" stroke-linejoin="round"/>
<path d="M25.6494 13.4603H16.8927C16.706 13.4603 16.5547 13.6116 16.5547 13.7982V16.0473C16.5547 16.234 16.706 16.3853 16.8927 16.3853H25.6494C25.8361 16.3853 25.9874 16.234 25.9874 16.0473V13.7982C25.9874 13.6116 25.8361 13.4603 25.6494 13.4603Z" stroke="#2D3958" stroke-width="0.878906" stroke-miterlimit="10" stroke-linecap="round" stroke-linejoin="round"/>
<path d="M25.0255 9.26895V7.17105C25.0255 6.78937 24.8697 6.43834 24.6174 6.18609C23.9738 5.54244 20.1988 1.76742 20.1988 1.76742C20.0813 1.64994 19.9427 1.55373 19.7908 1.48453C19.6113 1.40285 19.4148 1.35938 19.2137 1.35938H3.83826C3.06893 1.35938 2.44531 1.98305 2.44531 2.75238V29.0875C2.44531 29.8569 3.06893 30.4805 3.83826 30.4805H23.6325C24.4018 30.4805 25.0255 29.8569 25.0255 29.0875V28.7733" stroke="#2D3958" stroke-width="0.878906" stroke-miterlimit="10" stroke-linecap="round" stroke-linejoin="round"/>
<path d="M24.9048 6.59473H20.9064C20.2936 6.59473 19.7969 6.09797 19.7969 5.4852V1.48518" stroke="#2D3958" stroke-width="0.878906" stroke-miterlimit="10" stroke-linecap="round" stroke-linejoin="round"/>
</g>
</g>
<defs>
<clipPath id="clip0_5212_7904">
<rect width="30" height="30" fill="white" transform="translate(0.367188 0.921875)"/>
</clipPath>
</defs>
</svg>
