<svg width="31" height="31" viewBox="0 0 31 31" fill="none" xmlns="http://www.w3.org/2000/svg">
<path d="M26.1484 4.67188C25.3601 4.6728 24.5984 4.95753 24.0027 5.47399C23.4071 5.99045 23.0173 6.70409 22.9047 7.48438H17.2422V8.42188H22.8672V26.7031C22.8672 26.8274 22.9166 26.9467 23.0045 27.0346C23.0924 27.1225 23.2116 27.1719 23.3359 27.1719C23.4603 27.1719 23.5795 27.1225 23.6674 27.0346C23.7553 26.9467 23.8047 26.8274 23.8047 26.7031C23.8047 26.0815 24.0516 25.4854 24.4912 25.0458C24.9307 24.6063 25.5268 24.3594 26.1484 24.3594C26.77 24.3594 27.3662 24.6063 27.8057 25.0458C28.2453 25.4854 28.4922 26.0815 28.4922 26.7031V26.8016C28.4909 27.3967 28.254 27.9671 27.8332 28.3879C27.4124 28.8087 26.842 29.0456 26.2469 29.0469H2.24219V19.3517C3.30773 21.4188 4.92026 23.1537 6.90402 24.3674C8.88778 25.581 11.1666 26.2268 13.4922 26.2344C13.6165 26.2344 13.7357 26.185 13.8236 26.0971C13.9116 26.0092 13.9609 25.8899 13.9609 25.7656C13.9609 25.6413 13.9116 25.5221 13.8236 25.4342C13.7357 25.3463 13.6165 25.2969 13.4922 25.2969C11.7331 25.2935 9.9976 24.8915 8.41609 24.1213L8.70719 23.0356C8.99704 23.0176 9.2737 22.9081 9.49728 22.7227C9.72087 22.5374 9.87982 22.2859 9.95125 22.0044L11.4944 16.25C11.8448 16.3148 12.1989 16.3572 12.5547 16.377V16.8594C12.5547 16.9837 12.6041 17.1029 12.692 17.1908C12.7799 17.2787 12.8991 17.3281 13.0234 17.3281C13.1478 17.3281 13.267 17.2787 13.3549 17.1908C13.4428 17.1029 13.4922 16.9837 13.4922 16.8594V16.377C13.8479 16.3575 14.2021 16.3154 14.5525 16.2509L16.0952 22.003C16.1663 22.2847 16.3253 22.5364 16.549 22.7218C16.7728 22.9072 17.0497 23.0166 17.3397 23.0342L17.7269 24.4798C17.7534 24.5797 17.8122 24.6679 17.8941 24.7309C17.976 24.7939 18.0764 24.8281 18.1797 24.8281C18.2207 24.8281 18.2615 24.8227 18.3011 24.8122C18.3606 24.7963 18.4163 24.7688 18.4651 24.7313C18.514 24.6938 18.555 24.647 18.5857 24.5937C18.6165 24.5404 18.6365 24.4815 18.6445 24.4205C18.6525 24.3595 18.6485 24.2974 18.6325 24.238L18.2458 22.7956C18.4836 22.6312 18.6651 22.3976 18.7658 22.1265C18.8664 21.8554 18.8812 21.56 18.8083 21.2802L15.7323 9.80141C16.2207 9.08831 16.407 8.21099 16.2508 7.36096C16.0946 6.51093 15.6084 5.75723 14.8984 5.26437V3.73438C14.8984 3.23709 14.7009 2.76018 14.3493 2.40855C13.9976 2.05692 13.5207 1.85938 13.0234 1.85938C12.5262 1.85938 12.0492 2.05692 11.6976 2.40855C11.346 2.76018 11.1484 3.23709 11.1484 3.73438V5.26437C10.4385 5.75723 9.9523 6.51093 9.79606 7.36096C9.63983 8.21099 9.82621 9.08831 10.3145 9.80141L7.23578 21.282C7.16309 21.5618 7.17836 21.8571 7.27952 22.1279C7.38067 22.3986 7.56279 22.6316 7.80109 22.7952L7.56672 23.667C4.98581 22.157 3.08066 19.7165 2.24219 16.8463V8.42188H8.80469V7.48438H1.30469V29.9844H26.2469C27.091 29.9831 27.9001 29.6471 28.4968 29.0501C29.0934 28.4531 29.4289 27.6438 29.4297 26.7997V7.95312C29.4287 7.08319 29.0827 6.24917 28.4675 5.63403C27.8524 5.01889 27.0184 4.67287 26.1484 4.67188ZM13.4922 15.425V14.9844C13.4922 14.8601 13.4428 14.7408 13.3549 14.6529C13.267 14.565 13.1478 14.5156 13.0234 14.5156C12.8991 14.5156 12.7799 14.565 12.692 14.6529C12.6041 14.7408 12.5547 14.8601 12.5547 14.9844V15.425C12.2821 15.4087 12.0106 15.3774 11.7414 15.3312L12.842 11.2259C12.9025 11.2292 12.962 11.2353 13.0234 11.2353C13.0848 11.2353 13.1444 11.2292 13.2048 11.2259L14.3055 15.3312C14.0363 15.3774 13.7648 15.4087 13.4922 15.425ZM17.9045 21.5211C17.9357 21.6407 17.9188 21.7678 17.8575 21.8751C17.7962 21.9824 17.6953 22.0615 17.5764 22.0953H17.5736C17.4541 22.127 17.3269 22.1101 17.2197 22.0484C17.1667 22.0176 17.1203 21.9766 17.0834 21.9276C17.0464 21.8787 17.0196 21.8229 17.0045 21.7634L14.1255 11.0398C14.4286 10.9312 14.714 10.7785 14.9725 10.5866L17.9045 21.5211ZM12.0859 3.73438C12.0859 3.48573 12.1847 3.24728 12.3605 3.07146C12.5363 2.89565 12.7748 2.79688 13.0234 2.79688C13.2721 2.79688 13.5105 2.89565 13.6863 3.07146C13.8622 3.24728 13.9609 3.48573 13.9609 3.73438V4.8125C13.3495 4.62812 12.6973 4.62812 12.0859 4.8125V3.73438ZM13.0234 5.60938C13.487 5.60937 13.9401 5.74683 14.3256 6.00437C14.711 6.2619 15.0114 6.62795 15.1888 7.05621C15.3662 7.48448 15.4126 7.95572 15.3222 8.41037C15.2317 8.86501 15.0085 9.28263 14.6807 9.61041C14.3529 9.93819 13.9353 10.1614 13.4807 10.2518C13.026 10.3423 12.5548 10.2959 12.1265 10.1185C11.6983 9.94107 11.3322 9.64067 11.0747 9.25524C10.8171 8.86981 10.6797 8.41667 10.6797 7.95312C10.6804 7.33175 10.9276 6.73604 11.367 6.29667C11.8064 5.85729 12.4021 5.61012 13.0234 5.60938ZM8.14188 21.523L11.0744 10.5866C11.3329 10.7785 11.6183 10.9312 11.9214 11.0398L9.04516 21.7658C9.01301 21.8844 8.93554 21.9857 8.82946 22.0478C8.72337 22.1098 8.59714 22.1277 8.47797 22.0977H8.47375C8.35407 22.0646 8.25219 21.9858 8.1901 21.8783C8.12801 21.7708 8.11069 21.6431 8.14188 21.523ZM28.4922 24.4086C28.187 24.0963 27.8224 23.8481 27.4199 23.6787C27.0174 23.5092 26.5851 23.4219 26.1484 23.4219C25.7117 23.4219 25.2794 23.5092 24.877 23.6787C24.4745 23.8481 24.1099 24.0963 23.8047 24.4086V7.95312C23.8047 7.33152 24.0516 6.73538 24.4912 6.29584C24.9307 5.85631 25.5268 5.60938 26.1484 5.60938C26.77 5.60938 27.3662 5.85631 27.8057 6.29584C28.2453 6.73538 28.4922 7.33152 28.4922 7.95312V24.4086Z" fill="#2D3958"/>
<path d="M13.0234 9.35938C13.3016 9.35938 13.5735 9.2769 13.8047 9.12238C14.036 8.96786 14.2162 8.74823 14.3226 8.49127C14.4291 8.23432 14.4569 7.95157 14.4027 7.67878C14.3484 7.40599 14.2145 7.15542 14.0178 6.95876C13.8211 6.76209 13.5706 6.62816 13.2978 6.5739C13.025 6.51964 12.7422 6.54748 12.4853 6.65392C12.2283 6.76036 12.0087 6.9406 11.8542 7.17186C11.6997 7.40311 11.6172 7.675 11.6172 7.95313C11.6172 8.32609 11.7653 8.68377 12.0291 8.94749C12.2928 9.21122 12.6505 9.35938 13.0234 9.35938ZM13.0234 7.48438C13.1161 7.48438 13.2068 7.51187 13.2839 7.56337C13.3609 7.61488 13.421 7.68809 13.4565 7.77374C13.492 7.8594 13.5013 7.95365 13.4832 8.04457C13.4651 8.1355 13.4205 8.21903 13.3549 8.28458C13.2893 8.35014 13.2058 8.39478 13.1149 8.41287C13.024 8.43096 12.9297 8.42167 12.8441 8.38619C12.7584 8.35072 12.6852 8.29064 12.6337 8.21355C12.5822 8.13646 12.5547 8.04584 12.5547 7.95313C12.5547 7.82881 12.6041 7.70958 12.692 7.62167C12.7799 7.53376 12.8991 7.48438 13.0234 7.48438Z" fill="#2D3958"/>
</svg>
