<svg width="31" height="31" viewBox="0 0 31 31" fill="none" xmlns="http://www.w3.org/2000/svg">
<g clip-path="url(#clip0_5212_7965)">
<path d="M28.4998 21.572C29.3486 20.723 29.6325 19.5345 29.259 18.3926C29.2084 18.2377 29.0809 18.1204 28.9225 18.0825C28.7639 18.0446 28.5972 18.0917 28.482 18.2069L26.7877 19.9012L25.9745 19.6832L25.7565 18.87L27.4509 17.1757C27.5661 17.0605 27.6132 16.8938 27.5753 16.7352C27.5374 16.5768 27.42 16.4493 27.2652 16.3987C26.1233 16.0252 24.9347 16.309 24.0857 17.158C23.6187 17.6249 23.323 18.229 23.2188 18.8652C21.6942 17.4291 19.8262 16.4304 17.8064 15.9555C19.5489 15.1112 20.8478 13.4767 21.2138 11.4872H21.3015C22.019 11.4872 22.6027 10.9036 22.6027 10.1861C22.6027 9.57869 22.1844 9.06723 21.6208 8.92455C21.6209 8.90973 21.6209 8.89496 21.6209 8.8802C21.6209 6.14773 19.9423 3.73537 17.4112 2.77602C17.3732 2.5516 17.2799 2.34547 17.1336 2.16705C16.6753 1.60812 15.787 1.43691 15.1225 1.39168C15.1012 1.39027 15.08 1.39027 15.0587 1.39168C14.3942 1.43691 13.5059 1.60818 13.0476 2.16705C12.9012 2.34553 12.808 2.5516 12.7701 2.77602C10.239 3.73537 8.56027 6.14779 8.56027 8.8802C8.56027 8.89496 8.56033 8.90973 8.56045 8.92455C7.99678 9.06723 7.57848 9.57869 7.57848 10.1861C7.57848 10.9035 8.16219 11.4872 8.87967 11.4872H8.96738C9.33318 13.4755 10.6307 15.1092 12.3716 15.9539C11.1959 16.2299 10.0678 16.6852 9.02223 17.3095L8.98104 17.2024C8.91143 17.0215 8.73752 16.9021 8.54357 16.9021H6.9333C6.73936 16.9021 6.56551 17.0215 6.49584 17.2024L6.20258 17.9643C5.79717 18.0803 5.40705 18.2421 5.03779 18.4473L4.29119 18.1156C4.11394 18.037 3.90664 18.0755 3.76947 18.2125L2.63076 19.3512C2.49365 19.4884 2.45516 19.6958 2.53385 19.873L2.86543 20.6195C2.66023 20.9888 2.49846 21.379 2.38244 21.7844L1.62066 22.0776C1.43973 22.1472 1.32031 22.3211 1.32031 22.5151V24.1254C1.32031 24.3193 1.43973 24.4931 1.62066 24.5628L2.38232 24.856C2.4984 25.2617 2.66018 25.6519 2.86531 26.0212L2.53385 26.7675C2.45516 26.9447 2.49365 27.1521 2.63082 27.2892L3.76953 28.4279C3.9067 28.565 4.114 28.6034 4.29119 28.5248L5.03779 28.1932C5.40705 28.3983 5.79717 28.5601 6.20258 28.6761L6.49584 29.438C6.56545 29.6189 6.73936 29.7383 6.9333 29.7383H8.54357C8.73752 29.7383 8.91137 29.6189 8.98104 29.438L9.27424 28.6763C9.67988 28.5603 10.0701 28.3985 10.4394 28.1933L11.1857 28.5248C11.363 28.6036 11.5704 28.565 11.7075 28.4278L12.8461 27.2891C12.9832 27.152 13.0217 26.9446 12.943 26.7675L12.9315 26.7416H15.259C15.161 27.2516 15.1907 27.7877 15.3597 28.3043C15.4103 28.4591 15.5377 28.5765 15.6962 28.6144C15.8548 28.6523 16.0214 28.6052 16.1367 28.49L17.831 26.7957L18.6442 27.0136L18.8622 27.8269L17.1679 29.5211C17.0526 29.6364 17.0055 29.8031 17.0434 29.9616C17.0812 30.1201 17.1987 30.2475 17.3536 30.2981C17.6756 30.4035 18.0053 30.4548 18.3315 30.4548C19.1446 30.4548 19.9361 30.1358 20.5329 29.5389C21.2763 28.7954 21.5858 27.7465 21.3914 26.7417H26.4147C26.5477 26.7417 26.6745 26.6852 26.7634 26.5863C26.8522 26.4874 26.895 26.3553 26.8808 26.2231C26.7397 24.9046 26.3834 23.6382 25.8215 22.4482C26.7862 22.5898 27.7978 22.2738 28.4998 21.572ZM12.835 3.76209L13.178 6.40303C13.2113 6.65973 13.4459 6.84078 13.7032 6.8075C13.9599 6.77416 14.141 6.53902 14.1077 6.28227L13.6934 3.09143C13.6702 2.91295 13.7236 2.82137 13.7726 2.76154C13.9559 2.53801 14.4474 2.37717 15.0907 2.3293C15.734 2.37717 16.2254 2.53801 16.4087 2.76154C16.4578 2.82137 16.5111 2.91289 16.4879 3.09143L16.0736 6.28227C16.0404 6.53902 16.2214 6.77416 16.4781 6.8075C16.4986 6.81014 16.5189 6.81143 16.539 6.81143C16.7711 6.81143 16.9726 6.63922 17.0033 6.40297L17.3463 3.76209C19.3634 4.6475 20.6836 6.63787 20.6836 8.88025C20.6836 8.88184 20.6835 8.88342 20.6835 8.885H18.7025V5.91166C18.7025 5.65279 18.4926 5.44291 18.2337 5.44291C17.9749 5.44291 17.765 5.65279 17.765 5.91166V8.885H12.4164V5.91166C12.4164 5.65279 12.2066 5.44291 11.9477 5.44291C11.6888 5.44291 11.4789 5.65279 11.4789 5.91166V8.885H9.49801C9.49801 8.88342 9.49795 8.88184 9.49795 8.88025C9.49777 6.63793 10.8178 4.6475 12.835 3.76209ZM8.51598 10.1861C8.51598 9.98563 8.6791 9.8225 8.87967 9.8225H9.04742H21.1337H21.3015C21.502 9.8225 21.6652 9.98563 21.6652 10.1861C21.6652 10.3866 21.502 10.5498 21.3015 10.5498H9.36529C9.36512 10.5498 9.36488 10.5498 9.36471 10.5498H8.87967C8.6791 10.5498 8.51598 10.3866 8.51598 10.1861ZM9.92398 11.4873H20.2572C19.7336 13.8883 17.599 15.6399 15.0906 15.6399C12.5822 15.6399 10.4476 13.8883 9.92398 11.4873ZM11.2721 27.5374L10.6003 27.239C10.4592 27.1763 10.296 27.1873 10.1643 27.2683C9.7458 27.5261 9.29164 27.7143 8.81451 27.8279C8.66416 27.8637 8.54105 27.9713 8.48557 28.1155L8.22172 28.8008H7.25516L6.99125 28.1153C6.93576 27.9711 6.81266 27.8635 6.66236 27.8277C6.18541 27.7142 5.73137 27.526 5.31289 27.2682C5.18117 27.187 5.01805 27.1763 4.87684 27.2389L4.20477 27.5374L3.52127 26.8539L3.81963 26.1822C3.88232 26.041 3.87143 25.8778 3.79033 25.7462C3.53258 25.3276 3.34432 24.8735 3.2307 24.3963C3.19496 24.246 3.08738 24.1229 2.94312 24.0674L2.25781 23.8036V22.837L2.94324 22.5731C3.08744 22.5177 3.19508 22.3945 3.23082 22.2443C3.34438 21.7673 3.53258 21.3133 3.79039 20.8947C3.87148 20.763 3.88238 20.5999 3.81969 20.4586L3.52127 19.7867L4.20477 19.1032L4.87678 19.4016C5.01799 19.4643 5.18111 19.4535 5.31283 19.3723C5.73137 19.1146 6.18541 18.9264 6.6623 18.8128C6.8126 18.7771 6.9357 18.6695 6.99119 18.5253L7.2551 17.8397H8.22166L8.48557 18.5253C8.54105 18.6695 8.66416 18.7771 8.81445 18.8128C9.29141 18.9264 9.74545 19.1146 10.1639 19.3723C10.2956 19.4535 10.4588 19.4642 10.6 19.4016L11.272 19.1032L11.9555 19.7866L11.6571 20.4583C11.5944 20.5996 11.6053 20.7627 11.6864 20.8943C11.9442 21.313 12.1325 21.7672 12.2461 22.2443C12.2818 22.3946 12.3894 22.5177 12.5336 22.5732L13.2189 22.837V23.8036L12.5334 24.0675C12.3892 24.1229 12.2816 24.2461 12.2458 24.3963C12.1323 24.8733 11.9441 25.3273 11.6863 25.7458C11.6052 25.8775 11.5943 26.0406 11.657 26.1819L11.9555 26.8539L11.2721 27.5374ZM16.1189 25.1249C15.9133 25.3306 15.7408 25.5594 15.6028 25.8041H12.7249C12.8768 25.5 13.0007 25.1831 13.0943 24.8561L13.8562 24.5628C14.0371 24.4932 14.1565 24.3193 14.1565 24.1254V22.5151C14.1565 22.3211 14.0371 22.1473 13.8562 22.0776L13.0945 21.7845C12.9785 21.3789 12.8166 20.9887 12.6114 20.6192L12.943 19.8729C13.0217 19.6957 12.9832 19.4884 12.846 19.3512L11.7073 18.2125C11.5702 18.0754 11.3629 18.037 11.1856 18.1156L10.439 18.4473C10.1658 18.2955 9.88115 18.1676 9.5873 18.0642C11.2535 17.0898 13.1429 16.5774 15.0905 16.5774C18.2262 16.5774 21.1985 17.9212 23.2739 20.2691L19.2062 24.3368C18.1172 24.0161 16.9343 24.3095 16.1189 25.1249ZM20.3476 26.5053C20.681 27.3218 20.4935 28.2523 19.8699 28.876C19.4953 29.2505 19.0115 29.4687 18.5051 29.5096L19.7164 28.2984C19.8348 28.18 19.8811 28.0074 19.8377 27.8456L19.4797 26.5095C19.4363 26.3477 19.31 26.2214 19.1482 26.178L17.8122 25.8201C17.772 25.8093 17.7313 25.8041 17.6909 25.8041C17.5682 25.8041 17.4485 25.8523 17.3594 25.9414L16.1482 27.1527C16.1892 26.6463 16.4074 26.1624 16.7818 25.7878C17.4055 25.1642 18.3358 24.9769 19.1526 25.3102C19.3273 25.3815 19.5277 25.3411 19.6613 25.2077L24.1686 20.7004C24.302 20.5669 24.3424 20.3664 24.2711 20.1917C23.9428 19.3876 24.1348 18.4349 24.7487 17.821C25.1308 17.4389 25.6112 17.2204 26.1181 17.1827L24.9023 18.3985C24.7839 18.5169 24.7377 18.6895 24.781 18.8513L25.139 20.1873C25.1824 20.3491 25.3087 20.4754 25.4704 20.5188L26.8064 20.8768C26.9682 20.9202 27.1408 20.8739 27.2593 20.7555L28.4751 19.5397C28.4374 20.0465 28.2189 20.527 27.8369 20.909C27.2229 21.523 26.2702 21.7151 25.4662 21.3867C25.2914 21.3154 25.091 21.3558 24.9574 21.4892L20.4501 25.9965C20.3166 26.1301 20.2762 26.3305 20.3476 26.5053ZM21.9683 25.8041L24.958 22.8144C25.4097 23.7628 25.7192 24.7643 25.8807 25.8041H21.9683ZM7.73844 20.0432C5.93146 20.0432 4.46135 21.5133 4.46135 23.3203C4.46135 25.1273 5.93146 26.5974 7.73844 26.5974C9.54541 26.5974 11.0155 25.1273 11.0155 23.3203C11.0155 21.5133 9.54535 20.0432 7.73844 20.0432ZM7.73844 25.6599C6.44838 25.6599 5.39885 24.6103 5.39885 23.3202C5.39885 22.0302 6.44838 20.9806 7.73844 20.9806C9.0285 20.9806 10.078 22.0302 10.078 23.3202C10.078 24.6103 9.02844 25.6599 7.73844 25.6599Z" fill="#2D3958"/>
</g>
<defs>
<clipPath id="clip0_5212_7965">
<rect width="30" height="30" fill="white" transform="translate(0.367188 0.921875)"/>
</clipPath>
</defs>
</svg>
