<svg width="28" height="28" viewBox="0 0 28 28" fill="none" xmlns="http://www.w3.org/2000/svg">
<g clip-path="url(#clip0_5212_7855)">
<path d="M26.9453 23.2812H26.2897C26.4417 23.0259 26.5227 22.7346 26.5244 22.4375V14.8438C26.5239 14.3964 26.346 13.9674 26.0296 13.6511C25.7133 13.3347 25.2843 13.1568 24.8369 13.1562H15.1338C14.9115 13.1563 14.6913 13.2005 14.4862 13.2864C14.1457 13.2037 13.7968 13.16 13.4463 13.1562H11.9698V12.832C12.4026 12.5239 12.7698 12.1329 13.0501 11.6815C13.3303 11.2302 13.5181 10.7277 13.6023 10.2031H13.6572C14.1046 10.2026 14.5335 10.0247 14.8499 9.70831C15.1662 9.39195 15.3442 8.96302 15.3447 8.51562V6.61719C15.3447 5.1067 14.7446 3.65807 13.6766 2.58999C12.6085 1.52192 11.1599 0.921875 9.64937 0.921875C8.13887 0.921875 6.69025 1.52192 5.62217 2.58999C4.55409 3.65807 3.95405 5.1067 3.95405 6.61719V8.51562C3.95457 8.96302 4.13252 9.39194 4.44888 9.7083C4.76523 10.0247 5.19416 10.2026 5.64155 10.2031H5.6964C5.78069 10.7277 5.96843 11.2302 6.24872 11.6815C6.52901 12.1329 6.89624 12.5239 7.32905 12.832V13.1562H5.85249C4.62215 13.1576 3.4426 13.647 2.57261 14.517C1.70263 15.387 1.21326 16.5665 1.21187 17.7969V22.0156C1.2135 22.4735 1.36555 22.9182 1.64463 23.2812H0.789062C0.677174 23.2812 0.569869 23.3257 0.490752 23.4048C0.411635 23.4839 0.367188 23.5912 0.367188 23.7031L0.367188 26.6562C0.367188 26.7681 0.411635 26.8754 0.490752 26.9546C0.569869 27.0337 0.677174 27.0781 0.789062 27.0781H26.9453C27.0572 27.0781 27.1645 27.0337 27.2436 26.9546C27.3227 26.8754 27.3672 26.7681 27.3672 26.6562V23.7031C27.3672 23.5912 27.3227 23.4839 27.2436 23.4048C27.1645 23.3257 27.0572 23.2812 26.9453 23.2812ZM24.8369 14C25.0607 14.0002 25.2751 14.0892 25.4333 14.2474C25.5915 14.4056 25.6805 14.62 25.6807 14.8438V22.4375C25.6805 22.6612 25.5915 22.8757 25.4333 23.0339C25.2751 23.1921 25.0607 23.281 24.8369 23.2812H14.2901V14.8438C14.2903 14.62 14.3793 14.4056 14.5375 14.2474C14.6956 14.0892 14.9101 14.0002 15.1338 14H24.8369ZM12.1514 23.2812C12.0955 22.8349 11.9501 22.4045 11.7241 22.0156H13.4463V23.2812H12.1514ZM9.22757 21.2102C9.74518 21.2982 10.2227 21.5446 10.5942 21.9156C10.9658 22.2866 11.213 22.7638 11.3017 23.2812H9.22757V21.2102ZM13.6573 9.35938V7.67188C13.881 7.67188 14.0957 7.76077 14.2539 7.919C14.4121 8.07724 14.501 8.29185 14.501 8.51562C14.501 8.7394 14.4121 8.95401 14.2539 9.11225C14.0957 9.27048 13.881 9.35938 13.6573 9.35938ZM9.64945 1.76562C10.9357 1.76704 12.1689 2.27864 13.0785 3.18818C13.988 4.09772 14.4996 5.33091 14.501 6.61719V7.0629C14.2457 6.91087 13.9544 6.82981 13.6573 6.82812H13.4426L11.9392 4.88273C11.9018 4.83423 11.8542 4.79447 11.7998 4.76622C11.7454 4.73797 11.6855 4.72192 11.6242 4.71917C11.563 4.71642 11.5019 4.72705 11.4452 4.75032C11.3885 4.77358 11.3376 4.80892 11.2959 4.85388C10.7178 5.47569 10.0179 5.97186 9.2397 6.31151C8.46155 6.65115 7.62182 6.82701 6.77277 6.82812H5.64164C5.3445 6.82983 5.0532 6.91088 4.79789 7.0629V6.61719C4.79932 5.33091 5.31092 4.09773 6.22046 3.18819C7.12999 2.27866 8.36317 1.76705 9.64945 1.76562ZM4.79789 8.51562C4.79811 8.29192 4.88708 8.07744 5.04526 7.91925C5.20345 7.76106 5.41793 7.6721 5.64164 7.67188V9.35938C5.41793 9.35915 5.20345 9.27019 5.04526 9.112C4.88708 8.95381 4.79811 8.73933 4.79789 8.51562ZM6.48539 9.57031V7.67188H6.77277C8.55218 7.66937 10.2646 6.99288 11.5653 5.77858L12.8136 7.39399V9.57031C12.8136 10.4095 12.4802 11.2143 11.8868 11.8076C11.2934 12.401 10.4887 12.7344 9.64949 12.7344C8.81033 12.7344 8.00554 12.401 7.41216 11.8076C6.81879 11.2143 6.48539 10.4095 6.48539 9.57031ZM9.64945 13.5781C10.1553 13.5777 10.6564 13.4808 11.126 13.2927V13.7891C11.126 14.1807 10.9704 14.5562 10.6935 14.8331C10.4166 15.1101 10.0411 15.2656 9.64945 15.2656C9.25784 15.2656 8.88227 15.1101 8.60536 14.8331C8.32845 14.5562 8.17289 14.1807 8.17289 13.7891V13.2927C8.64248 13.4808 9.1436 13.5777 9.64945 13.5781ZM2.0557 22.0156V17.7969C2.05682 16.7902 2.4572 15.8251 3.16901 15.1133C3.88082 14.4015 4.84592 14.0011 5.85258 14H7.33985C7.39222 14.5764 7.6582 15.1123 8.08555 15.5026C8.5129 15.8929 9.07073 16.1093 9.64947 16.1093C10.2282 16.1093 10.786 15.8929 11.2134 15.5026C11.6407 15.1123 11.9067 14.5764 11.9591 14H13.4463C13.521 14 13.5972 14.0109 13.6726 14.0157C13.5262 14.2672 13.4482 14.5527 13.4463 14.8438V21.1719H11.0306C10.4168 20.6284 9.62547 20.3283 8.8057 20.3281H4.58695C4.47506 20.3281 4.36776 20.3726 4.28864 20.4517C4.20952 20.5308 4.16508 20.6381 4.16508 20.75C4.16508 20.8619 4.20952 20.9692 4.28864 21.0483C4.36776 21.1274 4.47506 21.1719 4.58695 21.1719H8.38382V23.2812H3.32132C2.98577 23.2809 2.66407 23.1474 2.4268 22.9102C2.18953 22.6729 2.05607 22.3512 2.0557 22.0156ZM26.5234 26.2344H1.21094V24.125H26.5234V26.2344Z" fill="#2D3958"/>
<path d="M19.9844 20.75C20.4016 20.75 20.8094 20.6263 21.1563 20.3945C21.5032 20.1627 21.7735 19.8333 21.9332 19.4478C22.0928 19.0624 22.1346 18.6383 22.0532 18.2291C21.9718 17.8199 21.7709 17.4441 21.4759 17.1491C21.1809 16.8541 20.8051 16.6532 20.3959 16.5718C19.9867 16.4904 19.5626 16.5322 19.1772 16.6918C18.7917 16.8515 18.4623 17.1218 18.2305 17.4687C17.9987 17.8156 17.875 18.2234 17.875 18.6406C17.8757 19.1999 18.0981 19.736 18.4935 20.1315C18.889 20.5269 19.4251 20.7493 19.9844 20.75ZM19.9844 17.375C20.2347 17.375 20.4794 17.4492 20.6875 17.5883C20.8956 17.7274 21.0579 17.925 21.1537 18.1563C21.2495 18.3876 21.2745 18.642 21.2257 18.8875C21.1768 19.133 21.0563 19.3586 20.8793 19.5356C20.7023 19.7126 20.4768 19.8331 20.2313 19.8819C19.9858 19.9308 19.7313 19.9057 19.5 19.8099C19.2688 19.7141 19.0711 19.5519 18.932 19.3438C18.793 19.1356 18.7188 18.8909 18.7188 18.6406C18.7191 18.3051 18.8526 17.9834 19.0899 17.7461C19.3271 17.5088 19.6488 17.3754 19.9844 17.375Z" fill="#2D3958"/>
</g>
<defs>
<clipPath id="clip0_5212_7855">
<rect width="27" height="27" fill="white" transform="translate(0.367188 0.5)"/>
</clipPath>
</defs>
</svg>
