<svg width="31" height="31" viewBox="0 0 31 31" fill="none" xmlns="http://www.w3.org/2000/svg">
<g clip-path="url(#clip0_5212_7975)">
<path d="M11.8573 16.3878C12.0114 16.3878 12.1543 16.3071 12.2337 16.175L13.0266 14.8581L14.0771 16.5275C14.1593 16.6581 14.3029 16.7357 14.4583 16.7329C14.6126 16.7296 14.7538 16.6457 14.8305 16.5118L16.5218 13.5565L18.7934 17.6962C18.8692 17.8344 19.0132 17.9214 19.1708 17.9242C19.1734 17.9242 19.176 17.9242 19.1786 17.9242C19.3332 17.9242 19.4768 17.8429 19.5561 17.7097L20.9713 15.3339H24.384C24.6267 15.3339 24.8234 15.1372 24.8234 14.8945C24.8234 14.6518 24.6267 14.455 24.384 14.455H20.7216C20.5668 14.455 20.4233 14.5365 20.3441 14.6696L19.1943 16.5998L16.9151 12.4463C16.8386 12.3069 16.6928 12.2197 16.5338 12.2183C16.5325 12.2183 16.5312 12.2183 16.5298 12.2183C16.3723 12.2183 16.2268 12.3026 16.1484 12.4394L14.4312 15.44L13.3902 13.7858C13.3097 13.6579 13.1692 13.5804 13.0182 13.5804C13.0168 13.5804 13.0154 13.5804 13.0139 13.5804C12.8613 13.5819 12.7205 13.6625 12.6418 13.7932L11.6089 15.5089H9.11133C8.86863 15.5089 8.67188 15.7056 8.67188 15.9483C8.67188 16.191 8.86863 16.3878 9.11133 16.3878H11.8573Z" fill="#2D3958"/>
<path d="M25.1595 4.19092C24.9168 4.19092 24.72 4.38768 24.72 4.63037V5.9267H23.4238C23.1811 5.9267 22.9844 6.12346 22.9844 6.36615C22.9844 6.60885 23.1811 6.80561 23.4238 6.80561H24.72V8.10199C24.72 8.34469 24.9168 8.54145 25.1595 8.54145C25.4022 8.54145 25.5989 8.34469 25.5989 8.10199V6.80561H26.8952C27.1379 6.80561 27.3346 6.60885 27.3346 6.36615C27.3346 6.12346 27.1379 5.9267 26.8952 5.9267H25.5989V4.63037C25.5989 4.38768 25.4022 4.19092 25.1595 4.19092Z" fill="#2D3958"/>
<path d="M26.7086 19.2476C28.8496 16.9587 29.4631 13.4976 28.2863 10.5304C29.5492 9.57865 30.3672 8.06629 30.3672 6.36625C30.3672 3.49369 28.0304 1.15674 25.158 1.15674C23.9781 1.15674 22.8227 1.56168 21.9045 2.29697C21.7151 2.44867 21.6845 2.72523 21.8362 2.91467C21.9879 3.10404 22.2644 3.13469 22.4539 2.98299C23.2278 2.36318 24.1628 2.03564 25.1579 2.03564C27.5456 2.03564 29.4882 3.97838 29.4882 6.36625C29.4882 8.75512 27.5457 10.6986 25.1579 10.6986C22.9347 10.6986 21.0982 9.01469 20.8543 6.85545C20.8538 6.85047 20.853 6.84543 20.8524 6.84039C20.8353 6.68459 20.8259 6.5265 20.8259 6.36625C20.8259 5.68797 20.9783 5.03934 21.2788 4.43828C21.3873 4.22119 21.2993 3.95723 21.0822 3.84865C20.865 3.7402 20.6012 3.82814 20.4926 4.04518C20.1306 4.76934 19.947 5.55027 19.947 6.36619C19.947 6.44002 19.9489 6.51338 19.952 6.5865C18.8423 6.98312 17.8066 7.63545 16.9386 8.4891L16.4528 8.96664C16.4505 8.9643 16.4487 8.96254 16.4464 8.9602L15.9688 8.48969C14.4237 6.96625 12.4011 6.11488 10.4188 6.1559C8.76941 6.18988 7.30984 6.83617 6.19832 8.02445C6.0325 8.20199 6.04187 8.48031 6.21941 8.64613C6.39695 8.81137 6.67469 8.80258 6.84051 8.62504C7.78621 7.61371 9.02957 7.06352 10.437 7.0348C12.1831 6.99906 13.9743 7.75785 15.3518 9.11547L15.83 9.58656C16.0608 9.81391 16.2577 9.92699 16.454 9.92699C16.6485 9.92699 16.8425 9.81566 17.0692 9.59301L17.555 9.11547C18.2849 8.39805 19.1458 7.83941 20.0675 7.48111C20.5794 9.82064 22.6671 11.5774 25.1579 11.5774C26.0106 11.5774 26.8161 11.3714 27.5272 11.0065C28.501 13.6257 27.9419 16.6388 26.0698 18.6433L19.7611 25.1011L19.2391 25.203C19.1125 25.2276 19.0006 25.2499 18.8986 25.2704C18.2365 25.4046 18.0783 25.4362 17.3031 25.3167L13.5443 24.6294C13.0322 24.4524 13.0838 24.0446 13.1125 23.9222C13.1576 23.7317 13.3346 23.4241 13.7148 23.4815C13.7184 23.4821 13.7219 23.4827 13.7254 23.4833C13.8947 23.505 14.0764 23.5284 14.2662 23.5524C14.9781 23.6444 15.7844 23.7481 16.5004 23.8214C17.9652 23.9696 18.7938 23.2009 18.966 22.3724C19.1412 21.528 18.6602 20.4054 17.1895 19.936C17.1719 19.9308 17.1537 19.9261 17.135 19.9226L14.7145 19.4784C13.4008 19.2376 12.3789 19.4233 10.832 19.7046C10.423 19.779 9.95898 19.8628 9.44219 19.9478L8.29492 20.1364L7.9416 19.7749L6.83711 18.644C4.77285 16.431 4.31523 12.9646 5.72617 10.2124C5.83691 9.99678 5.75137 9.73193 5.53574 9.62119C5.31953 9.51045 5.05469 9.59541 4.94395 9.81162C3.3666 12.889 3.88223 16.769 6.19844 19.2476C6.20078 19.2499 6.20312 19.2522 6.20488 19.2546L7.23613 20.3104L5.31555 20.6262V20.576C5.31555 20.2367 5.01619 19.9606 4.64822 19.9606H1.03281C0.665781 19.9606 0.367188 20.2367 0.367188 20.576V28.3083C0.367188 28.6476 0.665781 28.9237 1.03281 28.9237H4.64828C5.01625 28.9237 5.31561 28.6476 5.31561 28.3083V28.2551L9.26758 29.3304L12.9156 30.3218C13.7482 30.5802 14.4191 30.6868 15.0314 30.6868C16.0006 30.6868 16.8238 30.4208 17.9113 30.0692C18.008 30.0382 18.107 30.006 18.209 29.9731L25.3979 27.6681C26.2311 27.4009 26.824 26.8009 26.9834 26.0632C27.107 25.4913 26.9348 24.9265 26.5223 24.5521C26.1883 24.2491 25.4031 23.8144 23.8896 24.2931L21.2799 24.8034L26.7021 19.2546C26.7045 19.2522 26.7062 19.2499 26.7086 19.2476ZM1.24609 28.0448V20.8395H4.43664V21.1414C4.43664 21.1424 4.43652 21.1432 4.43652 21.1442V27.6797C4.43652 27.6803 4.43664 27.6807 4.43664 27.6812V28.0448H1.24609ZM24.1328 25.138C24.9438 24.8778 25.5994 24.9013 25.9322 25.203C26.1115 25.3659 26.1818 25.612 26.1244 25.8769C26.0318 26.304 25.6598 26.6608 25.1295 26.8308L17.94 29.1364C17.8375 29.1692 17.7379 29.2015 17.6406 29.2331C15.9209 29.7886 15.0578 30.0681 13.1687 29.4804C13.1641 29.4786 13.1588 29.4774 13.1535 29.4757L5.31555 27.3441V21.5169L9.58457 20.8155C10.1084 20.7294 10.5766 20.6438 10.9896 20.5688C12.4926 20.2958 13.4002 20.1312 14.5557 20.3433L16.948 20.7821C17.8809 21.0886 18.2025 21.7267 18.1053 22.1937C17.9934 22.7333 17.398 23.0292 16.5895 22.9472C15.8852 22.8751 15.0848 22.772 14.3787 22.6812C14.19 22.6565 14.009 22.6331 13.8408 22.612C13.0006 22.4878 12.4082 23.0755 12.257 23.7218C12.2248 23.8595 12.2119 24.006 12.2213 24.1536C12.2535 24.688 12.5729 25.2423 13.3018 25.4749C13.3199 25.4808 13.5625 25.5259 13.5625 25.5259L17.1514 26.1821C17.1549 26.1827 17.159 26.1833 17.1631 26.1839C17.9037 26.2993 18.2242 26.2894 18.6783 26.2091C18.7973 26.188 19.2824 26.0895 19.4072 26.0655L20.1982 25.9108C20.1982 25.9108 24.1164 25.1433 24.1328 25.138Z" fill="#2D3958"/>
</g>
<defs>
<clipPath id="clip0_5212_7975">
<rect width="30" height="30" fill="white" transform="translate(0.367188 0.921875)"/>
</clipPath>
</defs>
</svg>
