<svg width="28" height="28" viewBox="0 0 28 28" fill="none" xmlns="http://www.w3.org/2000/svg">
<g clip-path="url(#clip0_5212_7862)">
<path d="M20.6274 15.1422C20.0036 12.8736 19.8449 10.6609 19.7056 8.70336C19.6571 8.01781 19.6107 7.37076 19.548 6.75061C19.3529 4.83371 18.6626 3.22584 17.552 2.10049C16.5358 1.07111 15.2185 0.502637 13.8426 0.5C13.8395 0.5 13.8363 0.5 13.8331 0.5C12.4747 0.5 11.1764 1.05318 10.1765 2.05883C9.0802 3.16098 8.39518 4.74564 8.19479 6.64092C8.1257 7.29324 8.07719 7.97826 8.02551 8.70389C7.88629 10.6614 7.72703 12.8741 7.10318 15.1422C6.13551 15.6843 5.39301 16.4801 5.39301 17.8981V19.4422V20.1984V25.2931C5.39301 26.0577 5.76268 26.7338 6.4092 27.1483C6.77518 27.3819 7.18123 27.4995 7.59045 27.4995C7.90316 27.4995 8.21746 27.4309 8.51857 27.2922L13.0073 25.2235C13.3585 25.0616 13.6502 24.82 13.8664 24.5258C14.0821 24.82 14.3737 25.0616 14.7244 25.2235L19.2136 27.2922C19.5147 27.4309 19.8296 27.4995 20.1423 27.4995C20.552 27.4995 20.9581 27.3813 21.3241 27.1472C21.969 26.7332 22.3387 26.0572 22.3387 25.2925V20.1979V19.4422V17.8981C22.3376 16.4801 21.5951 15.6843 20.6274 15.1422ZM8.86715 8.76348C8.9183 8.04576 8.96682 7.3676 9.03432 6.72951C9.42771 3.00857 11.7264 1.3448 13.8331 1.3448H13.8411C15.9858 1.34902 18.3219 3.04865 18.7074 6.83551C18.7691 7.44301 18.815 8.08426 18.863 8.76295C18.9911 10.5659 19.1345 12.5809 19.6371 14.684C19.3376 14.5664 19.0338 14.4588 18.7369 14.3544C18.2591 14.1862 17.765 14.0127 17.3294 13.8091C16.7478 13.5386 16.4003 12.9928 16.4003 12.3505V11.8453C16.5832 11.6829 16.7573 11.5014 16.9202 11.3016C17.6996 10.345 18.1437 9.07197 18.17 7.71617C18.1721 7.60121 18.1273 7.48994 18.0456 7.40873C17.9638 7.32752 17.8547 7.28269 17.7376 7.28586C17.6796 7.28744 17.6221 7.2885 17.5641 7.2885C15.7511 7.2885 14.1158 6.21271 13.3986 4.54789C13.3306 4.39021 13.1724 4.28949 13.0031 4.29266C12.8317 4.29582 12.6793 4.40234 12.6171 4.56213C12.1963 5.64951 11.1727 6.49379 10.0099 6.71369C9.8227 6.74902 9.68242 6.90564 9.66713 7.09549C9.65395 7.26107 9.64762 7.42244 9.64762 7.58908C9.64762 9.28713 10.3079 10.799 11.3293 11.7572V12.3499C11.3293 12.9928 10.9818 13.538 10.3996 13.8091C9.96455 14.0121 9.47043 14.1862 8.99266 14.3538C8.69576 14.4583 8.39201 14.5653 8.09248 14.6834C8.59504 12.5814 8.739 10.5665 8.86715 8.76348ZM13.8653 14.2526L12.0259 13.2121C12.1203 12.9516 12.171 12.6706 12.1736 12.3753C12.7041 12.6674 13.291 12.8298 13.9086 12.8298C14.4839 12.8298 15.0418 12.6911 15.5565 12.4264C15.5644 12.7027 15.6145 12.9669 15.7031 13.2121L13.8653 14.2526ZM16.2653 10.7679C16.0939 10.9783 15.9072 11.1629 15.7105 11.3211C15.71 11.3216 15.7089 11.3221 15.7084 11.3227C15.1715 11.7535 14.5519 11.985 13.9086 11.985C13.2177 11.985 12.5749 11.7192 12.0365 11.2636C12.0254 11.2536 12.0143 11.2441 12.0022 11.2351C11.0915 10.4446 10.4919 9.10519 10.4919 7.58908C10.4919 7.54848 10.4924 7.5084 10.4929 7.46832C11.5355 7.18566 12.4388 6.52016 13.0152 5.62789C13.9444 7.09918 15.538 8.04049 17.3004 8.12592C17.2055 9.13156 16.8448 10.0571 16.2653 10.7679ZM11.6004 13.942L13.2225 14.8596L12.3218 15.9675L10.9343 14.4841C11.1933 14.3391 11.4174 14.1556 11.6004 13.942ZM16.1292 13.942C16.3127 14.1556 16.5363 14.3391 16.7958 14.4841L15.4083 15.967L14.5081 14.8596L16.1292 13.942ZM6.23676 17.8981C6.23676 16.826 6.81156 16.237 7.65109 15.8014C7.65584 15.7993 7.66006 15.7967 7.6648 15.7946C8.13678 15.552 8.69049 15.3563 9.2732 15.1512C9.55217 15.0531 9.83588 14.9529 10.1154 14.8448L12.0354 16.8978C12.1156 16.9832 12.2274 17.0317 12.3439 17.0317H12.3587C12.4805 17.0275 12.5949 16.9705 12.6719 16.8761L13.8658 15.408L15.0587 16.8761C15.1357 16.9711 15.2496 17.0275 15.3719 17.0317H15.3867C15.5032 17.0317 15.615 16.9832 15.6952 16.8978L17.6153 14.8448C17.8942 14.9524 18.1785 15.0531 18.4574 15.1512C19.037 15.3553 19.588 15.5493 20.0579 15.7903C20.0669 15.7956 20.0758 15.7998 20.0848 15.8046C20.9217 16.2396 21.4939 16.8287 21.4939 17.8981V19.4422V20.1984V21.637H18.5877V19.4422C18.5877 19.2091 18.3989 19.0198 18.1653 19.0198C17.9317 19.0198 17.7429 19.2086 17.7429 19.4422V22.6996L16.0875 22.2566C15.6498 21.753 15.5507 20.8697 15.4452 19.9379C15.4263 19.7713 15.4078 19.6036 15.3867 19.4359C15.276 18.5584 14.7534 18.2757 14.302 18.3042C14.1438 18.3142 13.9945 18.3617 13.8658 18.435C13.7372 18.3622 13.5874 18.3142 13.4292 18.3042C12.9778 18.2757 12.4547 18.5578 12.3439 19.4364C12.3228 19.6036 12.3038 19.7712 12.2854 19.9384C12.1804 20.8702 12.0808 21.7535 11.6431 22.2571L9.98775 22.7001V19.4422C9.98775 19.2091 9.79897 19.0198 9.56535 19.0198C9.33174 19.0198 9.14295 19.2086 9.14295 19.4422V21.6375H6.23676V20.1989V19.4422V17.8981ZM12.6529 24.4567L8.1642 26.5255C7.72914 26.7259 7.26666 26.6942 6.86324 26.4369C6.4593 26.1774 6.23676 25.7714 6.23676 25.2931V22.4818H9.14295V23.2496C9.14295 23.3809 9.20412 23.5048 9.30801 23.5845C9.41189 23.6641 9.54742 23.691 9.67451 23.6572L11.9764 23.0413C12.0465 23.0223 12.1108 22.9859 12.1625 22.9353C12.8755 22.2376 13.0021 21.1165 13.1239 20.0323C13.1423 19.8688 13.1608 19.7048 13.1813 19.5413C13.2167 19.2613 13.3026 19.1627 13.3427 19.15C13.3717 19.1405 13.4129 19.1511 13.4429 19.1659V23.2227C13.4434 23.7669 13.1476 24.2284 12.6529 24.4567ZM20.8669 26.4363C20.4634 26.6942 20.001 26.7259 19.5654 26.5255L15.0766 24.4567C14.5825 24.2294 14.2877 23.768 14.2877 23.2227V19.1659C14.3172 19.1516 14.3579 19.1411 14.3869 19.1506C14.4269 19.1632 14.5129 19.2618 14.5482 19.5419C14.5688 19.7053 14.5872 19.8699 14.6057 20.0333C14.728 21.1176 14.8541 22.2387 15.5671 22.9364C15.6193 22.987 15.6831 23.0239 15.7532 23.0424L18.0551 23.6583C18.1816 23.6921 18.3172 23.6652 18.4216 23.5855C18.526 23.5059 18.5866 23.382 18.5866 23.2507V22.4829H21.4928V25.2941C21.4928 25.7714 21.2703 26.1774 20.8669 26.4363ZM13.4424 16.6394C13.4424 16.4063 13.6322 16.218 13.8653 16.218C14.0968 16.218 14.2867 16.4063 14.2867 16.6394C14.2867 16.8724 14.0968 17.0607 13.8653 17.0607C13.6322 17.0607 13.4424 16.8724 13.4424 16.6394ZM20.8922 10.5375C21.275 10.7426 21.5862 11.0537 21.7934 11.4403C21.9026 11.6396 22.103 11.7583 22.3297 11.7583C22.5559 11.7583 22.7616 11.6349 22.8671 11.4355C23.0722 11.0532 23.3833 10.7426 23.762 10.5396C23.9624 10.4346 24.0868 10.2284 24.0868 10.0012C24.0868 9.77439 23.9682 9.574 23.7657 9.46326C23.3828 9.25813 23.0717 8.94752 22.8681 8.56889C22.7627 8.36744 22.5565 8.24246 22.3297 8.24246C22.1035 8.24246 21.9031 8.36164 21.7918 8.56467C21.5862 8.94699 21.275 9.2576 20.8922 9.46273C20.8901 9.46379 20.8874 9.46537 20.8853 9.46643C20.6886 9.57664 20.571 9.7765 20.571 10.0006C20.5705 10.2253 20.6939 10.4309 20.8922 10.5375ZM22.3287 9.29662C22.5232 9.56873 22.7611 9.80656 23.0327 10.0001C22.7605 10.1947 22.5227 10.432 22.3287 10.7041C22.1341 10.432 21.8968 10.1942 21.6241 9.99957C21.8968 9.80551 22.1346 9.5682 22.3287 9.29662ZM25.9694 15.7524C25.9673 15.7513 25.9647 15.7497 25.9626 15.7487C25.5797 15.5435 25.2691 15.2329 25.0656 14.8548C24.9606 14.6544 24.7534 14.5295 24.5256 14.5295C24.2983 14.5295 24.0921 14.6539 23.9893 14.8501C23.7836 15.2324 23.4725 15.543 23.0864 15.7503C22.8871 15.8594 22.7685 16.0598 22.7685 16.2866C22.7685 16.5128 22.8919 16.7179 23.0907 16.8234C23.4735 17.0301 23.7841 17.3412 23.9872 17.7188C24.0921 17.9192 24.2983 18.0437 24.5256 18.0437C24.7529 18.0437 24.959 17.9203 25.064 17.7215C25.2697 17.3402 25.5808 17.0296 25.9626 16.8234C26.1609 16.7174 26.2843 16.5117 26.2843 16.2866C26.2837 16.0624 26.1661 15.8626 25.9694 15.7524ZM24.5261 16.9911C24.3315 16.719 24.0937 16.4812 23.821 16.286C24.0931 16.092 24.3305 15.8547 24.5256 15.5815C24.7207 15.8536 24.958 16.0914 25.2306 16.286C24.9585 16.4812 24.7207 16.719 24.5261 16.9911ZM3.96443 10.5375C4.34676 10.7426 4.65736 11.0532 4.86303 11.4355C4.9685 11.6349 5.17416 11.7583 5.40039 11.7583C5.6282 11.7583 5.83545 11.6338 5.93828 11.4371C6.14342 11.0543 6.45455 10.7431 6.8374 10.538C7.03568 10.4315 7.15856 10.2258 7.15856 10.0017C7.15856 9.77756 7.04096 9.5777 6.84426 9.46748C6.84215 9.46643 6.83951 9.46484 6.8374 9.46379C6.45455 9.25865 6.14342 8.94805 5.93986 8.56941C5.8344 8.36797 5.62768 8.24299 5.39986 8.24299C5.17311 8.24299 4.96691 8.36797 4.86355 8.5652C4.65789 8.94752 4.34676 9.25812 3.96074 9.46537C3.76141 9.57453 3.64275 9.77492 3.64275 10.0017C3.64328 10.2279 3.76773 10.4341 3.96443 10.5375ZM5.40092 9.29609C5.59551 9.5682 5.83334 9.80551 6.10545 10.0001C5.83334 10.1942 5.59604 10.432 5.40145 10.7046C5.20686 10.4325 4.96955 10.1952 4.69691 10.0001C4.96797 9.80603 5.2058 9.56873 5.40092 9.29609ZM4.63996 15.7487C4.25711 15.5435 3.9465 15.2329 3.74295 14.8548C3.63801 14.6544 3.43182 14.5295 3.20453 14.5295C2.97777 14.5295 2.77738 14.6481 2.66664 14.8501C2.46098 15.2324 2.14984 15.543 1.76699 15.7481C1.76488 15.7492 1.76225 15.7508 1.75961 15.7518C1.56291 15.8621 1.44531 16.0619 1.44531 16.286C1.44531 16.5107 1.56818 16.7163 1.76594 16.8223C2.14932 17.0291 2.46098 17.3407 2.66611 17.7225C2.66664 17.7236 2.66717 17.7241 2.6677 17.7252C2.77686 17.9245 2.97725 18.0431 3.204 18.0431C3.43129 18.0431 3.63748 17.9187 3.74031 17.7225C3.94545 17.3412 4.25658 17.0301 4.63943 16.8234C4.83824 16.7179 4.96164 16.5128 4.96164 16.2866C4.96164 16.0598 4.84246 15.8594 4.63996 15.7487ZM3.204 16.9911C3.00941 16.719 2.77158 16.4812 2.49895 16.286C2.77158 16.0914 3.00941 15.8536 3.204 15.582C3.39912 15.8547 3.63695 16.092 3.90854 16.286C3.63643 16.4812 3.39912 16.7185 3.204 16.9911ZM13.4424 17.7484C13.4424 17.5153 13.6322 17.3254 13.8653 17.3254C14.0968 17.3254 14.2867 17.5153 14.2867 17.7484C14.2867 17.9814 14.0968 18.1697 13.8653 18.1697C13.6322 18.1702 13.4424 17.9814 13.4424 17.7484ZM8.41311 17.7726C8.41311 17.5395 8.6019 17.3502 8.83551 17.3502H10.4766C10.7097 17.3502 10.899 17.539 10.899 17.7726C10.899 18.0062 10.7102 18.195 10.4766 18.195H8.83551C8.60242 18.1945 8.41311 18.0057 8.41311 17.7726Z" fill="#2D3958"/>
</g>
<defs>
<clipPath id="clip0_5212_7862">
<rect width="27" height="27" fill="white" transform="translate(0.367188 0.5)"/>
</clipPath>
</defs>
</svg>
