<svg width="27" height="28" viewBox="0 0 27 28" fill="none" xmlns="http://www.w3.org/2000/svg">
<g clip-path="url(#clip0_5215_7982)">
<path d="M24.7926 21.6206C25.6517 21.6206 26.3472 20.9251 26.3472 20.066V2.72056C26.3472 1.86147 25.6517 1.16602 24.7926 1.16602H2.2108C1.3517 1.16602 0.65625 1.86147 0.65625 2.72056V20.1069C0.65625 20.966 1.3517 21.6615 2.2108 21.6615H10.1063L8.38807 24.7706H7.6517C6.91534 24.7706 6.34261 25.3433 6.34261 26.0797C6.34261 26.816 6.91534 27.3887 7.6517 27.3887H19.4744C20.2108 27.3887 20.7835 26.816 20.7835 26.0797C20.7835 25.3433 20.2108 24.7706 19.4744 24.7706H18.7381L17.0199 21.6206H24.7926ZM19.9653 26.0387C19.9653 26.3251 19.7608 26.5297 19.4744 26.5297H7.6517C7.36534 26.5297 7.1608 26.3251 7.1608 26.0387C7.1608 25.7524 7.36534 25.5478 7.6517 25.5478H19.4744C19.7199 25.5478 19.9653 25.7524 19.9653 26.0387ZM2.2108 1.9842H24.7926C25.2017 1.9842 25.529 2.31147 25.529 2.72056V17.7751H22.2563V13.7251L23.6881 12.2933C23.7699 12.2115 23.8108 12.1297 23.8108 12.0069V10.8206C24.4653 10.6569 24.9153 10.0433 24.9153 9.34783C24.9153 8.48874 24.2199 7.8342 23.4017 7.8342C22.5835 7.8342 21.8881 8.52965 21.8881 9.34783C21.8881 10.0433 22.379 10.616 22.9926 10.8206V11.8433L21.5608 13.2751C21.479 13.3569 21.4381 13.4387 21.4381 13.5615V17.7751H18.329V14.2978C18.9835 14.1342 19.4335 13.5206 19.4335 12.8251C19.4335 11.966 18.7381 11.3115 17.9199 11.3115C17.1017 11.3115 16.4062 12.0069 16.4062 12.8251C16.4062 13.5206 16.8972 14.0933 17.5108 14.2978V17.7751H13.7472V13.3569L15.4244 12.3751C15.5472 12.2933 15.629 12.1706 15.629 12.0069V10.3297C16.2835 10.166 16.7335 9.55238 16.7335 8.85692C16.7335 7.99783 16.0381 7.34329 15.2199 7.34329C14.4017 7.34329 13.7062 8.03874 13.7062 8.85692C13.7062 9.55238 14.1972 10.1251 14.8108 10.3297V11.8024L13.1335 12.7842C13.0108 12.866 12.929 12.9887 12.929 13.1524V17.816H10.8017V12.7433C10.8017 12.6206 10.7608 12.5387 10.679 12.4569L9.94261 11.7206C10.1062 11.4751 10.1881 11.1887 10.1881 10.9024C10.1881 10.0433 9.49261 9.38874 8.67443 9.38874C7.85625 9.38874 7.1608 10.0842 7.1608 10.9024C7.1608 11.7615 7.85625 12.416 8.67443 12.416C8.91989 12.416 9.12443 12.3751 9.32898 12.2524L9.98352 12.9069V17.7751H6.17898V13.8069C6.17898 13.6842 6.13807 13.6024 6.05625 13.5206L4.62443 12.1297V11.1069C5.27898 10.9433 5.72898 10.3297 5.72898 9.6342C5.72898 8.77511 5.03352 8.12056 4.21534 8.12056C3.39716 8.12056 2.7017 8.81602 2.7017 9.6342C2.7017 10.3297 3.19261 10.9024 3.80625 11.1069V12.2933C3.80625 12.416 3.84716 12.4978 3.92898 12.5797L5.3608 13.9706V17.7751H1.47443V2.72056C1.47443 2.31147 1.8017 1.9842 2.2108 1.9842ZM23.3608 10.1251C22.9517 10.1251 22.6653 9.79783 22.6653 9.42965C22.6653 9.02056 22.9926 8.7342 23.3608 8.7342C23.7699 8.7342 24.0563 9.06147 24.0563 9.42965C24.0972 9.79783 23.7699 10.1251 23.3608 10.1251ZM17.9199 13.5615C17.5108 13.5615 17.2244 13.2342 17.2244 12.866C17.2244 12.4569 17.5517 12.1706 17.9199 12.1706C18.329 12.1706 18.6153 12.4978 18.6153 12.866C18.6563 13.2342 18.329 13.5206 17.9199 13.5615ZM15.2199 9.59329C14.8108 9.59329 14.5244 9.26602 14.5244 8.89783C14.5244 8.48874 14.8517 8.20238 15.2199 8.20238C15.629 8.20238 15.9153 8.52965 15.9153 8.89783C15.9153 9.26602 15.629 9.59329 15.2199 9.59329ZM8.67443 11.5569C8.26534 11.5569 7.97898 11.2297 7.97898 10.8615C7.97898 10.4524 8.30625 10.166 8.67443 10.166C9.04261 10.166 9.36989 10.4933 9.36989 10.8615C9.36989 11.2706 9.08352 11.5569 8.67443 11.5569ZM4.25625 10.3297C3.84716 10.3297 3.5608 10.0024 3.5608 9.6342C3.5608 9.22511 3.88807 8.93874 4.25625 8.93874C4.66534 8.93874 4.9517 9.26602 4.9517 9.6342C4.9517 10.0024 4.62443 10.3297 4.25625 10.3297ZM1.47443 20.066V18.5933H25.4881V20.066C25.4881 20.4751 25.1608 20.8024 24.7517 20.8024H2.2108C1.8017 20.8024 1.47443 20.4751 1.47443 20.066ZM17.7972 24.7297H9.32898L11.0472 21.6206H16.1199L17.7972 24.7297Z" fill="#2D3958"/>
</g>
<defs>
<clipPath id="clip0_5215_7982">
<rect width="27" height="27" fill="white" transform="translate(0 0.756836)"/>
</clipPath>
</defs>
</svg>
