<svg width="28" height="28" viewBox="0 0 28 28" fill="none" xmlns="http://www.w3.org/2000/svg">
<g clip-path="url(#clip0_5212_7808)">
<path d="M15.0045 22.0905C14.8345 21.6233 14.3864 21.3096 13.8896 21.3096C13.7512 21.3096 13.6147 21.3337 13.4838 21.3813C12.8691 21.6051 12.5511 22.2873 12.7747 22.9021C12.9447 23.3692 13.3928 23.6829 13.8897 23.6829C14.0281 23.6829 14.1646 23.6588 14.2954 23.6112C14.9102 23.3875 15.2283 22.7052 15.0045 22.0905ZM14.0249 22.8679C13.9811 22.8839 13.9356 22.892 13.8898 22.892C13.7241 22.892 13.5747 22.7873 13.518 22.6316C13.4434 22.4266 13.5495 22.1992 13.7543 22.1246C13.7982 22.1087 13.8437 22.1006 13.8895 22.1006C14.0551 22.1006 14.2045 22.2052 14.2612 22.361C14.3358 22.5659 14.2298 22.7933 14.0249 22.8679Z" fill="#2D3958"/>
<path d="M27.3432 18.4434L26.802 16.9568C26.765 16.8551 26.6906 16.778 26.6 16.7349C26.5992 16.7346 26.5984 16.7341 26.5976 16.7337C26.5917 16.7309 26.5855 16.7288 26.5794 16.7263C26.5738 16.724 26.5682 16.7213 26.5624 16.7193C26.561 16.7188 26.5595 16.7184 26.5581 16.718C26.4757 16.6898 26.3834 16.6883 26.2952 16.7204L25.0019 17.1908L22.2507 9.63145C22.2507 9.63124 22.2505 9.63108 22.2505 9.63092L21.1687 6.65841C21.1117 6.50284 20.9625 6.39838 20.7969 6.39838C20.751 6.39838 20.7051 6.40629 20.6619 6.42211C20.4568 6.49646 20.3508 6.72427 20.4251 6.92888L21.3723 9.53036L16.2932 11.3789C16.2931 11.3789 16.293 11.3789 16.2929 11.379C16.2928 11.379 16.2927 11.3791 16.2925 11.3791L13.1961 12.506L11.1217 6.80786L13.8474 5.81593L14.4336 7.42611C14.49 7.58168 14.6392 7.68667 14.8048 7.68667C14.8512 7.68667 14.8966 7.67876 14.9404 7.66236L16.9226 6.94096C17.0217 6.9051 17.1008 6.83233 17.1456 6.73688C17.1788 6.6659 17.1896 6.58854 17.1785 6.51297C17.1785 6.51255 17.1785 6.51213 17.1784 6.51176C17.1769 6.50147 17.1747 6.49114 17.1723 6.48096C17.1716 6.47806 17.1713 6.47532 17.1706 6.47242C17.1674 6.4596 17.1635 6.44689 17.1589 6.43424L16.5729 4.824L19.298 3.83223L19.8841 5.44226C19.941 5.59782 20.0903 5.70276 20.2558 5.70276C20.3017 5.70276 20.3476 5.69485 20.3914 5.6785C20.596 5.60415 20.702 5.37681 20.6276 5.17173L19.9062 3.18951C19.8564 3.0534 19.7359 2.95643 19.5956 2.93428C19.5756 2.93111 19.5551 2.92948 19.5344 2.92948C19.4886 2.92948 19.4427 2.93739 19.3994 2.95321L15.9325 4.21519C15.9319 4.2154 15.9313 4.21545 15.9307 4.21566C15.9296 4.21603 15.9287 4.21656 15.9276 4.21693L13.952 4.93612C13.9508 4.93654 13.9496 4.93664 13.9485 4.93706C13.9465 4.9378 13.9447 4.93875 13.9427 4.93949L10.4797 6.19999C10.3806 6.23585 10.3015 6.30862 10.2567 6.40407C10.2118 6.50005 10.2071 6.60757 10.2435 6.70677L12.5879 13.1485L14.8425 19.3433C14.5567 19.2559 14.2565 19.2069 13.9492 19.2009L8.23764 3.50823C7.86471 2.48366 6.72776 1.95353 5.70308 2.32636C5.70293 2.32641 5.70277 2.32652 5.70261 2.32657L0.628379 4.15665C0.628326 4.15671 0.628221 4.15671 0.628115 4.15676C0.627851 4.15686 0.627588 4.15692 0.627271 4.15702C0.618148 4.16034 0.6095 4.1643 0.600799 4.1682C0.597477 4.16968 0.593996 4.17089 0.590727 4.17247C0.582184 4.17653 0.574063 4.18128 0.565942 4.18592C0.562619 4.18782 0.559086 4.18945 0.555817 4.19151C0.548012 4.19626 0.540735 4.20153 0.533352 4.20675C0.530082 4.20907 0.526602 4.21118 0.523438 4.21355C0.516583 4.21877 0.510202 4.22442 0.503715 4.23006C0.500446 4.23296 0.496913 4.23554 0.493749 4.2385C0.487632 4.24409 0.482042 4.25026 0.476346 4.25621C0.473235 4.25954 0.469913 4.26254 0.466907 4.26592C0.461528 4.27198 0.456624 4.27847 0.451614 4.28485C0.448767 4.28844 0.445655 4.29192 0.442966 4.29566C0.438431 4.30188 0.434423 4.30842 0.430257 4.31491C0.427567 4.31913 0.424614 4.32313 0.422083 4.32741C0.418286 4.33384 0.415017 4.34059 0.411589 4.34723C0.409216 4.35182 0.406579 4.3563 0.404364 4.361C0.401306 4.36754 0.398827 4.37429 0.396085 4.38098C0.394029 4.3861 0.391708 4.39095 0.389915 4.39612C0.387595 4.40266 0.385802 4.40941 0.383851 4.41605C0.382216 4.42154 0.380318 4.42697 0.378894 4.43256C0.377259 4.4391 0.376152 4.44585 0.374833 4.45249C0.373673 4.45829 0.372249 4.46409 0.371353 4.46995C0.370298 4.4767 0.369929 4.48355 0.369244 4.49035C0.368664 4.49626 0.367767 4.50217 0.367451 4.50813C0.367081 4.51509 0.367345 4.52205 0.367345 4.52901C0.367345 4.53497 0.367029 4.54093 0.367292 4.54688C0.367609 4.55395 0.368611 4.56107 0.369296 4.56814C0.369876 4.57399 0.370193 4.5799 0.371037 4.5858C0.372091 4.59282 0.373779 4.59983 0.375203 4.60684C0.376415 4.6128 0.377312 4.61881 0.378788 4.62477C0.380529 4.63179 0.383007 4.63869 0.385169 4.64566C0.386962 4.6514 0.388386 4.65726 0.390443 4.66301C0.390495 4.66311 0.390548 4.66327 0.390601 4.66337C0.390654 4.66364 0.390706 4.66385 0.390812 4.66411L0.931916 6.15069C0.935977 6.16187 0.941566 6.17204 0.946471 6.18264C0.95032 6.19087 0.953432 6.19962 0.957808 6.20748C0.963978 6.21861 0.971414 6.22852 0.978533 6.23891C0.983015 6.2454 0.986812 6.25252 0.991664 6.25869C1.00015 6.2696 1.00986 6.2793 1.01935 6.28911C1.02378 6.2937 1.02768 6.29892 1.03232 6.3033C1.04303 6.31337 1.05479 6.32212 1.06644 6.33088C1.07066 6.33409 1.07446 6.33784 1.07878 6.34079C1.09138 6.34949 1.10488 6.35682 1.11838 6.36394C1.12239 6.36605 1.12608 6.36879 1.13014 6.3708C1.14396 6.37755 1.15846 6.38277 1.17296 6.38783C1.17718 6.38931 1.18114 6.39142 1.18541 6.39279C1.20028 6.39748 1.21557 6.40049 1.23097 6.40344C1.23519 6.40423 1.2393 6.40571 1.24357 6.40634C1.2633 6.40945 1.28339 6.41098 1.30364 6.41098C1.31482 6.41098 1.32605 6.41045 1.33734 6.40956C1.33966 6.40935 1.34192 6.40887 1.34424 6.40866C1.35321 6.40771 1.36212 6.40671 1.37109 6.40518C1.3752 6.40444 1.37931 6.40333 1.38343 6.40249C1.39054 6.40101 1.39766 6.39964 1.40473 6.39774C1.41227 6.39579 1.41971 6.39321 1.42719 6.39073C1.43073 6.38962 1.43426 6.38867 1.43774 6.38741L1.43816 6.38725C1.43837 6.3872 1.43858 6.38709 1.4388 6.38704C1.43895 6.38699 1.43911 6.38688 1.43927 6.38683L6.14246 4.69048L11.7198 20.0136C10.7249 20.8838 10.3106 22.3089 10.7891 23.6236C11.2614 24.9211 12.5061 25.793 13.8864 25.793C14.2704 25.793 14.6496 25.7258 15.0134 25.5934C15.8406 25.2923 16.5011 24.6872 16.8732 23.8893C17.0709 23.4652 17.1736 23.0137 17.1821 22.5595L27.1067 18.9504C27.1067 18.9504 27.1068 18.9504 27.1068 18.9504C27.1095 18.9494 27.112 18.9481 27.1145 18.9471C27.1246 18.9432 27.1346 18.9393 27.1441 18.9346C27.1482 18.9327 27.1519 18.9303 27.1559 18.9282C27.1637 18.9241 27.1715 18.9202 27.179 18.9157C27.1832 18.913 27.1871 18.91 27.1912 18.9073C27.198 18.9027 27.2049 18.8984 27.2113 18.8935C27.2134 18.8919 27.2152 18.8901 27.2172 18.8885C27.2253 18.8821 27.2333 18.8756 27.2409 18.8686C27.2422 18.8672 27.2433 18.8659 27.2446 18.8647C27.2525 18.857 27.2603 18.8492 27.2677 18.841C27.2692 18.8393 27.2704 18.8375 27.2718 18.8358C27.2787 18.8278 27.2854 18.8197 27.2916 18.8112C27.2923 18.8103 27.2928 18.8093 27.2934 18.8083C27.3001 18.7989 27.3065 18.7893 27.3124 18.7793C27.3135 18.7775 27.3143 18.7756 27.3153 18.7737C27.3206 18.7646 27.3256 18.7553 27.3301 18.7458C27.3318 18.7421 27.3332 18.7381 27.3348 18.7343C27.3381 18.7265 27.3416 18.7187 27.3445 18.7107C27.3464 18.7051 27.3478 18.6994 27.3495 18.6939C27.3515 18.6874 27.3538 18.6809 27.3554 18.6743C27.3579 18.6646 27.3596 18.6547 27.3613 18.6448C27.3618 18.6421 27.3625 18.6396 27.3629 18.637C27.3723 18.5739 27.3666 18.5076 27.3432 18.4434ZM15.8297 5.09453L16.2803 6.33325L15.0415 6.78413L14.5906 5.54546L15.8297 5.09453ZM18.1743 11.5362L18.6252 12.7748L17.386 13.2258L16.9352 11.9871L18.1743 11.5362ZM13.4668 13.2494L16.192 12.2576L16.7782 13.8678C16.8347 14.0234 16.9839 14.1282 17.15 14.1282C17.1959 14.1282 17.2412 14.1199 17.285 14.104L19.2672 13.3826C19.4724 13.3082 19.5784 13.0809 19.5035 12.8758L18.9173 11.2657L21.643 10.2738L24.2589 17.4607L16.3678 20.3303C16.2196 20.1611 16.0554 20.0075 15.8771 19.8723L13.4668 13.2494ZM6.75101 4.04923C6.74869 4.04291 6.74579 4.03695 6.74321 4.03072C6.74063 4.02466 6.73831 4.01838 6.73546 4.01243C6.73287 4.00699 6.72982 4.00204 6.72702 3.99682C6.72354 3.99033 6.72022 3.98369 6.71642 3.97746C6.71378 3.97319 6.71078 3.96929 6.70798 3.96512C6.7035 3.95837 6.69918 3.95152 6.69427 3.94514C6.69174 3.94176 6.68884 3.93876 6.6862 3.93543C6.68072 3.92863 6.67529 3.92183 6.66933 3.91545C6.66696 3.91286 6.66427 3.91054 6.66179 3.90801C6.65525 3.90137 6.64876 3.89472 6.6418 3.88855C6.6398 3.88681 6.63764 3.88528 6.63563 3.8836C6.62793 3.877 6.62013 3.87052 6.61196 3.86461C6.61079 3.86377 6.60953 3.86313 6.60837 3.86224C6.59919 3.8557 6.58981 3.84948 6.5801 3.84373C6.57937 3.84331 6.57857 3.84294 6.57784 3.84257C6.52384 3.81119 6.46267 3.79268 6.39938 3.78936C6.3988 3.78936 6.39828 3.78941 6.3977 3.78936C6.38546 3.78878 6.37318 3.78873 6.36078 3.78931C6.35852 3.78941 6.35625 3.78983 6.35398 3.78999C6.34333 3.79068 6.33268 3.79152 6.32202 3.7931C6.31691 3.7939 6.31185 3.79516 6.30673 3.79616C6.29893 3.79759 6.29107 3.7989 6.28326 3.80086C6.2744 3.80307 6.2656 3.80608 6.25679 3.80887C6.25289 3.81014 6.24893 3.81109 6.24503 3.81246L6.2445 3.81267C6.24435 3.81272 6.24414 3.81277 6.24392 3.81283C6.24377 3.81288 6.24361 3.81298 6.24345 3.81304L1.54026 5.50939L1.26968 4.76605L5.97229 3.06991C5.9724 3.06986 5.97245 3.0698 5.97255 3.0698C5.97282 3.0697 5.97308 3.06965 5.9734 3.06954C6.58828 2.84579 7.27039 3.16388 7.49414 3.77871L13.1385 19.2866C13.0103 19.3165 12.8835 19.3537 12.7586 19.3992C12.6327 19.445 12.5119 19.4986 12.3953 19.5576L6.75101 4.04923ZM16.1561 23.5549C15.8734 24.1613 15.3715 24.6212 14.7428 24.85C14.4659 24.9508 14.1777 25.0019 13.8863 25.0019C12.8373 25.0019 11.8913 24.3392 11.5324 23.353C11.06 22.0552 11.7315 20.615 13.0294 20.1425C13.3062 20.0417 13.5944 19.9906 13.8858 19.9906C14.9348 19.9906 15.8809 20.6533 16.2398 21.6396C16.4686 22.2683 16.4389 22.9485 16.1561 23.5549ZM17.0955 21.7492C17.0655 21.6213 17.0287 21.4945 16.9831 21.3692C16.9375 21.2439 16.8845 21.1227 16.8251 21.0058L26.194 17.5988L26.4645 18.3422L17.0955 21.7492Z" fill="#2D3958"/>
</g>
<defs>
<clipPath id="clip0_5212_7808">
<rect width="27" height="27" fill="white" transform="translate(0.367188 0.5)"/>
</clipPath>
</defs>
</svg>
