<svg width="31" height="31" viewBox="0 0 31 31" fill="none" xmlns="http://www.w3.org/2000/svg">
<g clip-path="url(#clip0_5212_7894)">
<path d="M29.1016 18.1285L29.7644 17.4657L22.8705 10.5718L15.9766 17.4657L16.6394 18.1285L17.7142 17.0537V29.5158H14.9017V21.7412L15.9766 22.816L16.6394 22.1532L9.74547 15.2593L2.85156 22.1532L3.51437 22.816L4.58922 21.7412V29.5158H3.65172V30.4533H28.9642V29.5158H28.0267V17.0537L29.1016 18.1285ZM27.0892 24.8283H24.2767V22.0158H21.4642V24.8283H18.6517V21.0783H27.0892V24.8283ZM23.3392 24.8283H22.4017V22.9533H23.3392V24.8283ZM23.3392 20.1408H22.4017V18.2658H23.3392V20.1408ZM24.2767 20.1408V17.3283H21.4642V20.1408H18.6517V16.3908H27.0892V20.1408H24.2767ZM26.4264 15.4533H19.3145L22.8705 11.8974L26.4264 15.4533ZM10.2142 24.8283H9.27672V22.9533H10.2142V24.8283ZM8.33922 22.0158V24.8283H5.52672V21.0783H13.9642V24.8283H11.1517V22.0158H8.33922ZM13.3014 20.1408H6.18953L9.74547 16.5849L13.3014 20.1408ZM5.52672 25.7658H13.9642V29.5158H11.1517V26.7033H8.33922V29.5158H5.52672V25.7658ZM10.2142 29.5158H9.27672V27.6408H10.2142V29.5158ZM23.3392 29.5158H22.4017V27.6408H23.3392V29.5158ZM24.2767 29.5158V26.7033H21.4642V29.5158H18.6517V25.7658H27.0892V29.5158H24.2767Z" fill="#2D3958"/>
<path d="M13.4955 5.8033L17.2455 9.5533L23.2019 3.59689L22.5391 2.93408L17.2455 8.22768L13.4955 4.47768L0.976562 16.9966L1.63938 17.6594L13.4955 5.8033Z" fill="#2D3958"/>
<path d="M17.2455 12.3658L24.6081 5.00314L23.9453 4.34033L17.2455 11.0402L13.4955 7.29018L0.976562 19.8091L1.63938 20.4719L13.4955 8.6158L17.2455 12.3658Z" fill="#2D3958"/>
<path d="M25.2109 7.01562H26.1484V1.39062H20.5234V2.32812H25.2109V7.01562Z" fill="#2D3958"/>
</g>
<defs>
<clipPath id="clip0_5212_7894">
<rect width="30" height="30" fill="white" transform="translate(0.367188 0.921875)"/>
</clipPath>
</defs>
</svg>
