<svg width="27" height="27" viewBox="0 0 27 27" fill="none" xmlns="http://www.w3.org/2000/svg">
<g clip-path="url(#clip0_5212_7770)">
<path d="M14.1661 12.8329C13.9599 12.6267 13.6261 12.6267 13.4199 12.8329C13.2142 13.0385 13.2142 13.3723 13.4199 13.5785C13.6261 13.7842 13.9599 13.7842 14.1661 13.5785C14.3717 13.3723 14.3717 13.0385 14.1661 12.8329Z" fill="#2D3958"/>
<path d="M20.8748 6.12143C19.8444 5.09106 18.1763 5.09101 17.1458 6.12143C16.1181 7.14917 16.118 8.8219 17.146 9.85048C18.1741 10.878 19.8468 10.8784 20.8748 9.85038C21.9051 8.82006 21.9053 7.15191 20.8748 6.12143ZM20.129 9.10456C19.5124 9.72123 18.5087 9.72123 17.8917 9.10466C17.275 8.48757 17.275 7.48382 17.8916 6.8672C18.5098 6.249 19.5107 6.24889 20.129 6.8672C20.7472 7.48535 20.7473 8.4863 20.129 9.10456Z" fill="#2D3958"/>
<path d="M26.8445 0.154464C26.7409 0.0509465 26.5996 -0.00516279 26.4527 0.000374308C26.3334 0.00464578 23.4945 0.118763 20.1198 1.31156C17.4156 2.26637 15.1615 3.6334 13.4203 5.37468C13.0301 5.76486 12.6504 6.17862 12.2871 6.60845C10.5655 5.59501 9.18585 5.91278 8.31367 6.37953C6.3055 7.45426 5.0625 10.3724 5.0625 12.4596C5.06266 12.6728 5.19117 12.8652 5.38819 12.9467C5.45342 12.9738 5.52197 12.9869 5.5899 12.9869C5.72716 12.9869 5.862 12.9333 5.96289 12.8325C7.02195 11.7734 8.32823 11.8396 8.75495 11.8957L8.93963 12.0804C8.57618 12.9453 8.2834 13.8053 8.06867 14.6417C7.99115 14.9444 8.01731 15.2647 8.13253 15.5577C7.62481 15.7917 7.13496 16.1352 6.70844 16.5617C5.35101 17.9192 5.07537 21.2274 5.06429 21.3676C5.05216 21.5214 5.10796 21.6729 5.21706 21.782C5.31636 21.8812 5.45068 21.9365 5.5899 21.9365C5.60371 21.9365 5.61758 21.9359 5.63145 21.9348C5.77162 21.9238 9.07996 21.6482 10.4374 20.2907C10.8637 19.8644 11.2073 19.3746 11.4412 18.867C11.7514 18.9889 12.0707 19.004 12.3578 18.9304C13.1938 18.7157 14.0537 18.423 14.9186 18.0595L15.1033 18.2442C15.1594 18.671 15.2256 19.9773 14.1666 21.0362C14.0158 21.1871 13.9707 21.4139 14.0523 21.6109C14.1339 21.8079 14.3262 21.9364 14.5395 21.9364C16.6267 21.9364 19.5448 20.6934 20.6195 18.6852C21.0862 17.8132 21.404 16.4335 20.3906 14.7118C20.8202 14.3487 21.234 13.969 21.6243 13.5787C23.3656 11.8374 24.7326 9.58335 25.6874 6.87935C26.8802 3.50446 26.9943 0.665459 26.9986 0.54628C27.0039 0.399942 26.948 0.258034 26.8445 0.154464ZM6.24153 11.3253C6.56912 9.73997 7.5206 8.00032 8.81154 7.3094C9.67422 6.84776 10.6172 6.89301 11.6197 7.44181C10.7656 8.56516 10.0231 9.77541 9.40411 11.0534C9.39626 11.0486 9.30133 10.9292 9.12499 10.8895C9.05248 10.8731 7.65718 10.573 6.24153 11.3253ZM9.69162 19.5449C8.96652 20.27 7.26558 20.6524 6.19049 20.8086C6.34668 19.7334 6.72917 18.0325 7.45421 17.3075C7.86026 16.9014 8.33108 16.5936 8.80431 16.4202L10.5789 18.1948C10.4055 18.668 10.0977 19.1389 9.69162 19.5449ZM12.0958 17.9087C11.9432 17.9478 11.7664 17.8904 11.635 17.7592C10.9528 17.077 10.6859 16.8101 10.6021 16.7264C10.4486 16.5729 10.072 16.1963 9.24021 15.3645C9.1087 15.2327 9.05132 15.056 9.09029 14.9036C9.2592 14.2458 9.4801 13.5709 9.74873 12.8895L14.1096 17.2504C13.4281 17.5191 12.7533 17.7399 12.0958 17.9087ZM19.6897 18.1876C18.9988 19.4785 17.2592 20.43 15.6739 20.7575C16.1794 19.8064 16.2908 18.5955 16.1061 17.8613C16.0632 17.6908 15.952 17.605 15.9457 17.595C17.2237 16.976 18.4339 16.2335 19.5573 15.3793C20.1061 16.382 20.1513 17.3251 19.6897 18.1876ZM20.8787 12.8329C20.4035 13.308 19.8918 13.7671 19.3578 14.1972C18.0742 15.2308 16.6613 16.1063 15.1539 16.8033L10.1959 11.8453C10.8928 10.3378 11.7683 8.92496 12.8018 7.64146C13.2323 7.10711 13.6913 6.59538 14.1663 6.12045C15.7285 4.55814 17.7448 3.31478 20.1606 2.41977L24.5793 6.83848C23.6844 9.25429 22.4411 11.2705 20.8787 12.8329ZM24.9588 5.72626L21.2729 2.04035C23.281 1.41661 25.0281 1.18305 25.9001 1.09909C25.8161 1.97126 25.5825 3.7183 24.9588 5.72626Z" fill="#2D3958"/>
<path d="M12.6728 21.7818C12.4667 21.5759 12.1328 21.576 11.9269 21.7819L10.4356 23.2738C10.2297 23.4798 10.2298 23.8137 10.4357 24.0196C10.6418 24.2254 10.9757 24.2254 11.1815 24.0195L12.6729 22.5276C12.8787 22.3216 12.8787 21.9877 12.6728 21.7818Z" fill="#2D3958"/>
<path d="M5.22027 14.3244C5.0144 14.1184 4.68053 14.1184 4.4745 14.3243L2.98265 15.8156C2.77667 16.0215 2.77662 16.3554 2.98249 16.5614C3.18831 16.7673 3.52217 16.7675 3.72826 16.5615L5.22011 15.0702C5.42609 14.8643 5.42615 14.5304 5.22027 14.3244Z" fill="#2D3958"/>
<path d="M8.94123 22.528C8.73541 22.3221 8.40144 22.3221 8.19546 22.5279L4.62324 26.0996C4.41726 26.3056 4.41726 26.6395 4.62319 26.8454C4.82901 27.0513 5.16298 27.0514 5.36896 26.8454L8.94118 23.2738C9.14716 23.0678 9.14716 22.7339 8.94123 22.528Z" fill="#2D3958"/>
<path d="M4.72248 22.528C4.51661 22.3221 4.18264 22.3221 3.97671 22.5279L0.404492 26.0996C0.198512 26.3056 0.198512 26.6395 0.404439 26.8454C0.610261 27.0513 0.944227 27.0514 1.15021 26.8454L4.72243 23.2738C4.92841 23.0678 4.92841 22.7339 4.72248 22.528Z" fill="#2D3958"/>
<path d="M4.4719 18.0528C4.26603 17.847 3.93206 17.847 3.72613 18.0529L0.154439 21.6251C-0.0514884 21.8311 -0.0514884 22.1649 0.154492 22.3709C0.360419 22.5769 0.694332 22.5769 0.90026 22.3709L4.47195 18.7987C4.67788 18.5927 4.67788 18.2588 4.4719 18.0528Z" fill="#2D3958"/>
<path d="M16.4116 10.5954C16.2056 10.3894 15.8718 10.3894 15.6657 10.5954L14.9201 11.341C14.7141 11.547 14.7141 11.8809 14.9201 12.0868C15.1261 12.2928 15.4599 12.2928 15.6659 12.0868L16.4116 11.3412C16.6175 11.1353 16.6175 10.8013 16.4116 10.5954Z" fill="#2D3958"/>
</g>
<defs>
<clipPath id="clip0_5212_7770">
<rect width="27" height="27" fill="white"/>
</clipPath>
</defs>
</svg>
