<svg width="28" height="28" viewBox="0 0 28 28" fill="none" xmlns="http://www.w3.org/2000/svg">
<g clip-path="url(#clip0_5212_7819)">
<path d="M26.9828 7.59001C26.9827 7.59001 26.9827 7.59001 26.9827 7.59001L26.9818 7.58911L25.239 7.34047C24.9941 7.30558 24.8238 7.07872 24.8587 6.83377C24.8754 6.71605 24.9383 6.60987 25.0334 6.53853L26.4419 5.48211C26.6399 5.33365 26.68 5.05286 26.5315 4.8549L24.9187 2.70444C24.7702 2.50648 24.4894 2.46638 24.2915 2.61484L22.8834 3.67125C22.6862 3.82083 22.4052 3.7823 22.2557 3.58518C22.183 3.48947 22.1519 3.36856 22.1692 3.24967L22.4183 1.5069C22.4535 1.26195 22.2834 1.03498 22.0385 0.999811C22.0383 0.999811 22.0381 0.999755 22.038 0.999755L19.3786 0.619841C19.1337 0.584672 18.9066 0.754692 18.8714 0.999643C18.8714 0.999699 18.8714 0.999699 18.8714 0.999755L18.6223 2.74252C18.5874 2.98747 18.3606 3.15777 18.1156 3.12288C17.9979 3.10614 17.8917 3.04325 17.8204 2.94816L16.7644 1.53961C16.616 1.34164 16.3352 1.30155 16.1372 1.45001L14.7909 2.46027C14.1819 2.39554 13.5676 2.39554 12.9586 2.46027C8.9698 2.91618 5.84184 6.09718 5.45302 10.0931C5.44092 10.2198 5.43644 10.3457 5.43017 10.4716H5.29577C5.08319 10.472 4.90012 10.6218 4.85761 10.83L4.54804 12.3022L3.30794 11.4469C3.12997 11.3241 2.88961 11.346 2.73672 11.4989L1.39269 12.843C1.24003 12.9958 1.21819 13.2358 1.34072 13.4137L2.19194 14.6516L0.719326 14.9612C0.513352 15.0063 0.366741 15.1889 0.367189 15.3998V17.1918C0.367077 17.4037 0.515536 17.5867 0.72291 17.6304L2.19553 17.94L1.3443 19.1778C1.22177 19.3558 1.24361 19.5958 1.39627 19.7486L2.74031 21.0926C2.89319 21.2455 3.13355 21.2674 3.31152 21.1446L4.54938 20.2912L4.85896 21.7638C4.90146 21.972 5.08453 22.1218 5.29711 22.1222H7.08916C7.30107 22.1223 7.48408 21.9738 7.52776 21.7665L7.83734 20.2938L9.0752 21.1451C9.25311 21.2676 9.49314 21.2458 9.64596 21.0931L10.3417 20.3951V21.6719C10.3437 22.3093 10.6852 22.8972 11.2377 23.2149V25.704C11.2377 26.6937 12.0401 27.4961 13.0298 27.4961H14.8218C15.8116 27.4961 16.6139 26.6937 16.6139 25.704V23.2149C17.1665 22.8972 17.5079 22.3093 17.5099 21.6719V19.8987C17.5221 19.1526 17.9124 18.4638 18.5462 18.0699C18.918 17.8287 19.2705 17.5591 19.6008 17.2635L19.0031 16.5959C18.7077 16.8607 18.3921 17.102 18.0592 17.3177C17.1696 17.876 16.625 18.8484 16.6139 19.8987V21.6719C16.6139 22.1668 16.2128 22.5679 15.7179 22.5679H12.1338C11.6389 22.5679 11.2377 22.1668 11.2377 21.6719V19.8615C11.2274 18.8311 10.6914 17.8775 9.81666 17.3329C6.26577 15.1017 5.19592 10.4144 7.42713 6.86356C8.81149 4.6604 11.2275 3.31945 13.8295 3.31015C13.8228 3.32611 13.817 3.34241 13.812 3.35899C13.7954 3.47659 13.8262 3.59604 13.8976 3.69096L14.9536 5.09906C15.0649 5.24316 15.0756 5.44106 14.9804 5.59636C14.8888 5.7526 14.7117 5.83784 14.5324 5.81185L12.7897 5.56276C12.5447 5.52764 12.3177 5.69772 12.2826 5.94261C12.2826 5.94278 12.2825 5.94295 12.2825 5.94312L11.9022 8.60386C11.867 8.84876 12.0371 9.07579 12.282 9.11095C12.2822 9.11095 12.2823 9.11101 12.2825 9.11101L14.0253 9.36011C14.2702 9.39499 14.4405 9.62186 14.4056 9.86681C14.3889 9.98452 14.326 10.0907 14.2309 10.162L12.8228 11.218C12.6249 11.3665 12.5848 11.6473 12.7332 11.8452L14.3461 13.9957C14.4945 14.1937 14.7753 14.2337 14.9733 14.0853L16.3818 13.0293C16.58 12.8811 16.8607 12.9216 17.0089 13.1198C17.0798 13.2146 17.1103 13.3337 17.0937 13.4509L16.8451 15.1937C16.8099 15.4386 16.9799 15.6657 17.2249 15.7008C17.2249 15.7008 17.2249 15.7008 17.225 15.7008L19.8862 16.0812C19.9071 16.0839 19.9282 16.0852 19.9493 16.0852C20.1724 16.0855 20.3616 15.9216 20.3933 15.7008L20.642 13.9581C20.6769 13.7131 20.9037 13.5428 21.1487 13.5777C21.2664 13.5944 21.3726 13.6573 21.4439 13.7524L22.5003 15.1605C22.6488 15.3585 22.9296 15.3986 23.1275 15.2501L25.278 13.6373C25.476 13.4888 25.5161 13.208 25.3676 13.0101L24.3116 11.602C24.2008 11.4576 24.1901 11.2601 24.2848 11.1047C24.3744 10.9463 24.5532 10.8606 24.7328 10.8896L26.4755 11.1383C26.7204 11.1734 26.9475 11.0034 26.9827 10.7585C26.9827 10.7584 26.9827 10.7584 26.9827 10.7584L27.3626 8.09716C27.3978 7.85221 27.2277 7.62518 26.9828 7.59001ZM12.1338 23.464H15.7179V24.36H12.1338V23.464ZM12.1338 25.256H15.7179V25.704C15.7179 26.1989 15.3167 26.6001 14.8218 26.6001H13.0298C12.5349 26.6001 12.1338 26.1989 12.1338 25.704V25.256ZM8.56715 17.5301C8.81177 17.7301 9.06736 17.9163 9.3328 18.0878C9.75612 18.3553 10.0748 18.7601 10.2355 19.2343L9.27456 20.1935L8.34404 19.5519C7.93657 19.2711 7.37863 19.3738 7.09778 19.7813C7.03047 19.879 6.9832 19.9891 6.95879 20.1052L6.72403 21.2239H5.65911L5.42435 20.107C5.32242 19.6228 4.84725 19.3128 4.36301 19.4147C4.24692 19.4391 4.13682 19.4864 4.03909 19.5537L3.10813 20.1935L2.29185 19.379L2.93295 18.4489C3.21402 18.0416 3.11165 17.4836 2.70435 17.2026C2.60658 17.1351 2.49637 17.0877 2.38011 17.0632L1.26321 16.828V15.7635L2.38011 15.5283C2.86418 15.4257 3.17342 14.9501 3.07077 14.4659C3.04641 14.3511 2.99976 14.2421 2.9334 14.1453L2.29185 13.2126L3.10813 12.3981L4.03954 13.0396C4.44718 13.3201 5.00512 13.2171 5.28563 12.8095C5.35283 12.7119 5.39999 12.6019 5.42435 12.4859L5.50275 12.1131C5.57454 12.6294 5.69343 13.1379 5.85802 13.6323C4.3839 13.8081 3.33135 15.1456 3.50708 16.6197C3.68281 18.0939 5.02035 19.1464 6.49448 18.9707C7.38188 18.8648 8.15868 18.3249 8.56715 17.5301ZM7.87139 16.8988C7.53684 17.8287 6.51184 18.3113 5.58194 17.9768C4.65203 17.6423 4.16941 16.6173 4.50391 15.6874C4.75983 14.976 5.43527 14.5022 6.19129 14.5037C6.19711 14.5037 6.20249 14.5037 6.20831 14.5037C6.62032 15.3921 7.18296 16.2024 7.87139 16.8988ZM26.1565 10.1867L24.8573 10.0012C24.1225 9.89626 23.4417 10.4069 23.3368 11.1417C23.2864 11.4946 23.3782 11.8531 23.5921 12.1382L24.3793 13.1879L22.9456 14.2631L22.158 13.2139C21.7127 12.62 20.8703 12.4995 20.2764 12.9449C19.9913 13.1587 19.8027 13.4771 19.7522 13.8299L19.5708 15.1309L17.7971 14.8774L17.9826 13.5781C18.0878 12.8433 17.5774 12.1624 16.8426 12.0572C16.4895 12.0066 16.1309 12.0985 15.8456 12.3125L14.7959 13.0997L13.7206 11.666L14.7699 10.8784C15.3638 10.4331 15.4842 9.59066 15.0389 8.99682C14.8251 8.71166 14.5067 8.52311 14.1539 8.47259L12.8546 8.28712L13.1082 6.51344L14.4074 6.69891C15.1422 6.80414 15.8232 6.29374 15.9284 5.55895C15.9789 5.20586 15.8871 4.84723 15.6731 4.5619L14.8832 3.51131L16.3169 2.43608L17.1045 3.48577C17.5498 4.07967 18.3922 4.20013 18.9861 3.7548C19.2712 3.54099 19.4598 3.22262 19.5103 2.86976L19.6958 1.57052L21.4694 1.82365L21.284 3.12288C21.179 3.85774 21.6896 4.53849 22.4245 4.64344C22.7774 4.69384 23.1358 4.60199 23.421 4.38807L24.4707 3.60091L25.5459 5.03455L24.4962 5.82216C23.9023 6.26748 23.7819 7.10991 24.2272 7.70375C24.441 7.98891 24.7594 8.17747 25.1122 8.22798L26.4115 8.41346L26.1565 10.1867Z" fill="#2D3958"/>
<path d="M19.631 4.76562C17.6515 4.76562 16.0469 6.37029 16.0469 8.34972C16.0469 10.3291 17.6515 11.9338 19.631 11.9338C21.6104 11.9338 23.2151 10.3291 23.2151 8.34972C23.2128 6.37119 21.6095 4.76781 19.631 4.76562ZM19.631 11.0378C18.1464 11.0378 16.9429 9.83432 16.9429 8.34972C16.9429 6.86512 18.1464 5.66165 19.631 5.66165C21.1156 5.66165 22.319 6.86512 22.319 8.34972C22.3173 9.83359 21.1148 11.0361 19.631 11.0378Z" fill="#2D3958"/>
<path d="M14.3726 20.3276H13.4766V21.6717H14.3726V20.3276Z" fill="#2D3958"/>
<path d="M11.9648 15.9278C9.19915 14.8474 7.833 11.7296 8.91343 8.96394C9.3321 7.89229 10.0835 6.98322 11.0571 6.37034L10.5782 5.6123C7.6473 7.45873 6.76813 11.3315 8.61455 14.2624C9.32964 15.3975 10.3899 16.2734 11.6395 16.7615C12.7457 17.1853 13.4761 18.2471 13.4764 19.4317H14.3724C14.3738 17.8775 13.4161 16.4837 11.9648 15.9278Z" fill="#2D3958"/>
<path d="M25.5736 17.1919H22.4375V18.0879H25.5736V17.1919Z" fill="#2D3958"/>
<path d="M22.2767 19.5352L21.7031 20.2236L24.3914 22.4633L24.9649 21.7749L22.2767 19.5352Z" fill="#2D3958"/>
<path d="M20.646 20.7759H19.75V23.912H20.646V20.7759Z" fill="#2D3958"/>
<path d="M4.41197 7.34876L0.828125 8.24463L1.0453 9.11343L4.62915 8.21756L4.41197 7.34876Z" fill="#2D3958"/>
<path d="M2.09082 2.93924L1.57031 3.66797L4.70615 5.9078L5.22666 5.17907L2.09082 2.93924Z" fill="#2D3958"/>
<path d="M6.27432 0.504129L5.40625 0.726074L6.32255 4.30989L7.19062 4.08795L6.27432 0.504129Z" fill="#2D3958"/>
</g>
<defs>
<clipPath id="clip0_5212_7819">
<rect width="27" height="27" fill="white" transform="translate(0.367188 0.5)"/>
</clipPath>
</defs>
</svg>
