<svg width="28" height="28" viewBox="0 0 28 28" fill="none" xmlns="http://www.w3.org/2000/svg">
<path d="M24.1322 6.86467L25.0781 6.38774C25.2999 6.27576 25.4775 6.09226 25.5821 5.8669C25.6868 5.64153 25.7124 5.38747 25.6548 5.14574C25.5973 4.90402 25.4599 4.68876 25.2649 4.53474C25.0699 4.38072 24.8287 4.29694 24.5802 4.29693L23.7683 4.33448C23.4357 4.16383 23.0719 4.06236 22.699 4.03618C22.326 4.01001 21.9517 4.05967 21.5984 4.18218C19.3764 2.43367 16.6271 1.49042 13.7997 1.50655C10.9722 1.52268 8.23386 2.49723 6.03194 4.27098C3.83002 6.04472 2.29474 8.5128 1.67694 11.272C1.05915 14.0311 1.39536 16.9182 2.63065 19.4616C3.86594 22.005 5.92727 24.0542 8.47786 25.2745C11.0284 26.4948 13.9175 26.814 16.673 26.18C19.4284 25.546 21.8874 23.9962 23.6482 21.7839C25.409 19.5716 26.3674 16.8275 26.3669 14.0001C26.3741 11.4483 25.5937 8.95646 24.1322 6.86467ZM23.4962 5.02741C23.5578 5.06336 23.6284 5.08059 23.6996 5.07698L24.5433 5.03479H24.5792C24.6483 5.03431 24.7161 5.05359 24.7747 5.09036C24.8332 5.12714 24.88 5.17987 24.9095 5.24235C24.9504 5.32885 24.956 5.42788 24.9252 5.51845C24.8943 5.60901 24.8294 5.684 24.7441 5.72751L20.9262 7.65295L20.993 6.86974C20.9988 6.80289 20.9862 6.73575 20.9566 6.67553C20.927 6.61532 20.8816 6.56431 20.8252 6.52799C20.7688 6.49167 20.7035 6.47142 20.6365 6.46942C20.5694 6.46742 20.5031 6.48374 20.4446 6.51663L17.5107 8.17291C17.4388 8.21341 17.3825 8.27681 17.3509 8.353C17.3192 8.42919 17.314 8.51379 17.336 8.59331L17.5486 9.35943L12.5916 11.8601C12.4317 11.9411 12.2512 11.9721 12.0735 11.9493C11.8957 11.9265 11.7289 11.8508 11.5947 11.7321L10.0272 10.3462C10.1525 10.2766 10.2927 10.2384 10.436 10.2347C10.5792 10.231 10.7212 10.2621 10.8499 10.3251L11.7124 10.7385C11.7676 10.7651 11.8286 10.7774 11.8897 10.7745C11.9509 10.7715 12.0104 10.7534 12.0628 10.7217L21.4706 5.04576C21.7768 4.8648 22.1253 4.76782 22.481 4.7646C22.8366 4.76138 23.1868 4.85203 23.4962 5.02741ZM18.1247 8.6741L20.1989 7.50424L19.8226 11.9042L19.1054 12.2073L18.1247 8.6741ZM16.8686 6.95938L15.1729 5.47502L15.7578 4.95949L18.4738 5.99076L16.8686 6.95938ZM9.52627 3.07497C9.4329 3.55413 9.40402 4.04363 9.44042 4.53044C9.44633 4.60427 9.45371 4.6781 9.46151 4.75403C9.49969 5.1392 9.53555 5.50307 9.38136 5.7581C9.22716 6.01312 8.88481 6.15424 8.52495 6.30084L8.42286 6.34303C7.43862 6.75119 6.78282 7.27115 6.41895 7.93476C6.21103 8.35583 6.06659 8.80536 5.99033 9.26873C5.94434 9.48536 5.90089 9.6906 5.84267 9.88867C5.77306 10.1268 5.49947 10.9117 4.89683 11.0142C4.46061 11.0879 4.05497 10.7839 3.58543 10.4308C3.34878 10.2455 3.09853 10.0784 2.83681 9.93065C3.41167 8.38437 4.30385 6.97554 5.45595 5.79481C6.60805 4.61408 7.99456 3.6876 9.52627 3.07497ZM2.10908 14.0001C2.10895 12.8629 2.27437 11.7318 2.60014 10.6424C2.77859 10.7501 2.95704 10.8818 3.14161 11.0206C3.608 11.3718 4.12943 11.7641 4.76098 11.7641C4.84798 11.7645 4.93485 11.7574 5.02065 11.743C5.71252 11.6255 6.28479 11.01 6.55142 10.0977C6.61702 9.87243 6.66575 9.64462 6.71236 9.4244C6.77493 9.03224 6.89356 8.65111 7.06463 8.29272C7.34518 7.78267 7.8818 7.36903 8.70446 7.0271L8.80297 6.9866C9.23708 6.80983 9.72898 6.60923 10.0123 6.14285C10.2956 5.67646 10.242 5.14933 10.1958 4.68358C10.189 4.6127 10.1819 4.54225 10.1764 4.47391C10.1331 3.90256 10.1934 3.32808 10.3544 2.77818C12.1221 2.22513 13.9954 2.09735 15.8218 2.40525C17.6482 2.71315 19.3761 3.44803 20.8648 4.55006L19.2769 5.50813L15.8118 4.1902C15.749 4.16636 15.6809 4.1601 15.6148 4.17211C15.5487 4.18411 15.4871 4.21393 15.4367 4.25833L14.3694 5.19911C14.3299 5.23376 14.2983 5.27642 14.2767 5.32425C14.255 5.37208 14.2438 5.42399 14.2438 5.47649C14.2438 5.529 14.255 5.5809 14.2767 5.62874C14.2983 5.67657 14.3299 5.71923 14.3694 5.75388L16.2046 7.35953L11.8512 9.98676L11.1699 9.66023C10.898 9.52731 10.5943 9.47314 10.2932 9.50386C9.99211 9.53457 9.70562 9.64895 9.46615 9.83404L9.21493 10.0258C9.17162 10.0588 9.13616 10.1011 9.1111 10.1494C9.08604 10.1978 9.072 10.2511 9.06998 10.3056C9.06797 10.36 9.07803 10.4142 9.09944 10.4643C9.12085 10.5144 9.15309 10.5592 9.19383 10.5953L11.1056 12.286C11.3503 12.5024 11.6543 12.6404 11.9784 12.6821C12.3024 12.7237 12.6315 12.6672 12.923 12.5197L17.7501 10.0851L18.5052 12.8095C18.5193 12.8601 18.544 12.9071 18.5777 12.9474C18.6113 12.9877 18.6532 13.0203 18.7004 13.0431C18.7477 13.066 18.7993 13.0785 18.8518 13.0798C18.9042 13.0811 18.9564 13.0713 19.0047 13.0508L20.3149 12.4978C20.3768 12.4716 20.4303 12.429 20.4698 12.3746C20.5093 12.3202 20.5332 12.2561 20.5389 12.1892L20.853 8.51885L23.4652 7.20154C24.5372 8.70667 25.2353 10.4454 25.5018 12.274C24.5304 12.3383 23.5736 12.545 22.6622 12.8874C22.3458 13.012 22.0351 13.1599 21.7341 13.3031C20.9515 13.6748 20.2086 14.0241 19.4359 13.9821C18.934 13.9238 18.4443 13.7875 17.9844 13.5782C17.7338 13.4805 17.475 13.3797 17.2084 13.2976C16.1037 12.9601 15.114 13.1365 14.5609 13.7706C14.0437 14.3631 14.0348 15.2102 14.0292 15.7709L13.9975 18.7116C13.9844 20.0147 13.895 21.4301 12.9968 21.7294C10.3601 22.6082 9.56614 23.6032 9.39106 24.8724C8.60564 24.5469 7.85791 24.137 7.16103 23.65C7.05907 23.4764 6.96634 23.2975 6.88322 23.114C6.84309 23.0247 6.76913 22.955 6.6776 22.9202C6.58607 22.8854 6.48446 22.8883 6.39511 22.9284C6.36082 22.9444 6.32928 22.9658 6.30167 22.9917C4.98867 21.89 3.9329 20.5141 3.20858 18.9607C2.48425 17.4072 2.10896 15.714 2.10908 14.0001ZM13.8688 25.7598C12.5865 25.7599 11.3128 25.5492 10.0988 25.1363C10.1475 24.3204 10.4519 23.3551 13.2303 22.4291C14.7031 21.9385 14.7238 19.9228 14.7358 18.7185L14.7674 15.7778C14.7736 15.1796 14.8048 14.613 15.1174 14.2553C15.5367 13.7744 16.3606 13.8094 16.992 14.0022C17.232 14.0762 17.4674 14.1678 17.7163 14.265C18.2477 14.5043 18.8139 14.6573 19.3935 14.7183C20.359 14.7727 21.219 14.3643 22.0513 13.969C22.3549 13.8248 22.6419 13.6885 22.9343 13.5731C23.7862 13.2554 24.6803 13.0645 25.5877 13.0068C25.615 13.3354 25.629 13.6664 25.6299 13.9996C25.6265 17.1177 24.3862 20.1071 22.1813 22.3119C19.9764 24.5166 16.9869 25.7566 13.8688 25.7598Z" fill="#2D3958"/>
<path d="M23.921 10.9796C23.9521 11.0698 24.017 11.1444 24.102 11.1878C24.1869 11.2312 24.2854 11.2401 24.3767 11.2125C24.4681 11.1849 24.5452 11.1231 24.592 11.0399C24.6387 10.9567 24.6515 10.8587 24.6276 10.7663C24.5013 10.3478 24.3507 9.93709 24.1766 9.53614C24.1376 9.44632 24.0645 9.37567 23.9735 9.33973C23.8824 9.30379 23.7807 9.30551 23.6909 9.3445C23.6011 9.38349 23.5305 9.45657 23.4945 9.54765C23.4586 9.63874 23.4603 9.74037 23.4993 9.83019C23.6623 10.2047 23.8031 10.5885 23.921 10.9796Z" fill="#2D3958"/>
<path d="M8.91584 13.5977C8.96682 13.5977 9.01726 13.5872 9.06395 13.5668C9.11065 13.5463 9.15259 13.5164 9.18711 13.4789C9.34509 13.3068 9.51173 13.1428 9.6864 12.9876C9.72273 12.9555 9.75238 12.9166 9.77366 12.873C9.79493 12.8295 9.80742 12.7821 9.81041 12.7337C9.8134 12.6853 9.80682 12.6368 9.79106 12.591C9.77531 12.5451 9.75067 12.5028 9.71857 12.4665C9.68646 12.4302 9.64751 12.4005 9.60395 12.3793C9.56039 12.358 9.51306 12.3455 9.46467 12.3425C9.41628 12.3395 9.36777 12.3461 9.32192 12.3618C9.27607 12.3776 9.23377 12.4022 9.19744 12.4343C9.00409 12.6062 8.81957 12.7878 8.64458 12.9783C8.59598 13.0311 8.56379 13.0968 8.55194 13.1676C8.5401 13.2383 8.54912 13.3109 8.57789 13.3766C8.60666 13.4423 8.65394 13.4982 8.71396 13.5375C8.77398 13.5767 8.84413 13.5976 8.91584 13.5977Z" fill="#2D3958"/>
<path d="M6.08466 19.0662C6.1086 19.0712 6.13299 19.0736 6.15743 19.0736C6.24271 19.0735 6.32534 19.0439 6.39125 18.9898C6.45717 18.9357 6.5023 18.8605 6.51898 18.7768C6.61844 18.2872 6.75236 17.8052 6.91976 17.3344C6.95065 17.2425 6.94416 17.1422 6.90168 17.0551C6.85921 16.9679 6.78416 16.901 6.69275 16.8687C6.60134 16.8364 6.5009 16.8414 6.41313 16.8826C6.32537 16.9237 6.25731 16.9978 6.22367 17.0887C6.04498 17.5924 5.90217 18.1081 5.79631 18.6319C5.77703 18.7277 5.79657 18.8273 5.85064 18.9087C5.9047 18.9901 5.98887 19.0468 6.08466 19.0662Z" fill="#2D3958"/>
<path d="M7.01518 16.1165C7.10267 16.1605 7.20403 16.1678 7.29695 16.137C7.38987 16.1062 7.46675 16.0397 7.51067 15.9522C7.73545 15.504 7.98831 15.0705 8.26772 14.6541C8.29747 14.614 8.31878 14.5684 8.33037 14.5198C8.34196 14.4713 8.34359 14.4209 8.33516 14.3717C8.32673 14.3225 8.30841 14.2756 8.28132 14.2337C8.25422 14.1918 8.21891 14.1558 8.17752 14.1279C8.13613 14.1 8.08952 14.0808 8.0405 14.0715C7.99148 14.0621 7.94107 14.0628 7.89233 14.0735C7.84358 14.0842 7.79751 14.1046 7.75689 14.1336C7.71627 14.1626 7.68195 14.1995 7.656 14.2422C7.3592 14.6844 7.0907 15.1449 6.85212 15.621C6.83027 15.6643 6.81716 15.7114 6.81354 15.7597C6.80991 15.808 6.81583 15.8566 6.83098 15.9026C6.84612 15.9486 6.87018 15.9912 6.90179 16.0279C6.93339 16.0646 6.97192 16.0947 7.01518 16.1165Z" fill="#2D3958"/>
<path d="M6.44976 21.7202C6.37601 21.3076 6.33937 20.8893 6.34028 20.4702C6.34028 20.3978 6.34155 20.3252 6.34345 20.2529C6.34624 20.155 6.31003 20.06 6.24278 19.9888C6.17553 19.9176 6.08275 19.876 5.98485 19.8732C5.88695 19.8704 5.79195 19.9066 5.72074 19.9739C5.64954 20.0411 5.60796 20.1339 5.60516 20.2318C5.60284 20.3103 5.60179 20.3889 5.60158 20.4683C5.60065 20.932 5.64124 21.3949 5.72287 21.8514C5.73836 21.9363 5.78314 22.0132 5.84942 22.0686C5.91571 22.124 5.99931 22.1544 6.08568 22.1545C6.10797 22.1545 6.13022 22.1525 6.15212 22.1484C6.24833 22.131 6.33369 22.0761 6.38949 21.9958C6.44529 21.9155 6.46696 21.8164 6.44976 21.7202Z" fill="#2D3958"/>
</svg>
