<svg width="35" height="35" viewBox="0 0 35 35" fill="none" xmlns="http://www.w3.org/2000/svg">
<g clip-path="url(#clip0_5212_7879)">
<path d="M29.5554 27.3341C28.9793 27.3345 28.4159 27.1641 27.9366 26.8443C27.4574 26.5245 27.0837 26.0697 26.863 25.5376C26.6422 25.0054 26.5842 24.4197 26.6963 23.8545C26.8085 23.2894 27.0857 22.7702 27.493 22.3626C27.9002 21.9551 28.4192 21.6775 28.9843 21.5649C29.5493 21.4524 30.1351 21.5099 30.6674 21.7303C31.1998 21.9507 31.6548 22.324 31.9749 22.803C32.2951 23.2821 32.466 23.8453 32.466 24.4215C32.4656 25.1935 32.1589 25.9338 31.6132 26.4799C31.0675 27.0259 30.3274 27.3332 29.5554 27.3341ZM29.5554 22.5713C29.1894 22.5709 28.8315 22.679 28.5269 22.8821C28.2224 23.0851 27.9849 23.3739 27.8446 23.712C27.7042 24.05 27.6673 24.4221 27.7384 24.7811C27.8096 25.1401 27.9856 25.47 28.2443 25.729C28.5029 25.9879 28.8326 26.1644 29.1916 26.2359C29.5505 26.3075 29.9226 26.271 30.2608 26.131C30.599 25.991 30.8881 25.7539 31.0915 25.4496C31.2949 25.1453 31.4035 24.7875 31.4035 24.4215C31.4033 23.9312 31.2086 23.461 30.8621 23.1141C30.5156 22.7673 30.0457 22.572 29.5554 22.5713Z" fill="#2D3958"/>
<path d="M14.2124 27.3341C13.6362 27.3347 13.0728 27.1643 12.5934 26.8446C12.1141 26.5249 11.7403 26.0702 11.5194 25.538C11.2985 25.0059 11.2404 24.4201 11.3525 23.855C11.4646 23.2898 11.7417 22.7705 12.149 22.3629C12.5562 21.9553 13.0752 21.6776 13.6403 21.565C14.2053 21.4523 14.7911 21.5099 15.3235 21.7302C15.8559 21.9506 16.311 22.3239 16.6311 22.803C16.9513 23.282 17.1222 23.8453 17.1222 24.4215C17.1216 25.1933 16.815 25.9334 16.2695 26.4794C15.724 27.0254 14.9842 27.3328 14.2124 27.3341ZM14.2124 22.5713C13.8463 22.5707 13.4883 22.6788 13.1837 22.8817C12.8791 23.0847 12.6415 23.3734 12.501 23.7115C12.3606 24.0495 12.3235 24.4216 12.3946 24.7807C12.4657 25.1397 12.6416 25.4697 12.9003 25.7287C13.1589 25.9878 13.4886 26.1642 13.8475 26.2359C14.2065 26.3075 14.5787 26.271 14.9169 26.1311C15.2552 25.9911 15.5443 25.754 15.7477 25.4496C15.9511 25.1453 16.0597 24.7875 16.0597 24.4215C16.0593 23.9314 15.8647 23.4614 15.5184 23.1146C15.1721 22.7678 14.7025 22.5724 14.2124 22.5713Z" fill="#2D3958"/>
<path d="M33.3898 24.9528H31.937C31.7961 24.9528 31.661 24.8968 31.5614 24.7972C31.4617 24.6976 31.4058 24.5624 31.4058 24.4215C31.4058 24.2806 31.4617 24.1455 31.5614 24.0459C31.661 23.9463 31.7961 23.8903 31.937 23.8903H33.2396V21.0732C33.2393 20.6924 33.1418 20.3179 32.9563 19.9852L30.0805 14.8293C30.0559 14.7853 30.0201 14.7486 29.9766 14.7231C29.9331 14.6976 29.8837 14.6841 29.8333 14.6841H25.9141V23.8924H27.1791C27.32 23.8924 27.4552 23.9484 27.5548 24.048C27.6544 24.1476 27.7104 24.2828 27.7104 24.4237C27.7104 24.5646 27.6544 24.6997 27.5548 24.7993C27.4552 24.8989 27.32 24.9549 27.1791 24.9549H25.3828C25.2419 24.9549 25.1068 24.8989 25.0072 24.7993C24.9075 24.6997 24.8516 24.5646 24.8516 24.4237V14.1528C24.8516 14.0119 24.9075 13.8768 25.0072 13.7772C25.1068 13.6776 25.2419 13.6216 25.3828 13.6216H29.8333C30.0729 13.6215 30.3083 13.6854 30.515 13.8066C30.7217 13.9279 30.8923 14.1022 31.0091 14.3115L33.8842 19.4682C34.1576 19.959 34.3012 20.5114 34.3014 21.0732V24.0412C34.3011 24.2828 34.2049 24.5145 34.034 24.6854C33.8631 24.8562 33.6315 24.9524 33.3898 24.9528Z" fill="#2D3958"/>
<path d="M11.828 24.9529H6.73438C6.59348 24.9529 6.45835 24.8969 6.35872 24.7973C6.2591 24.6976 6.20312 24.5625 6.20312 24.4216V20.3359C6.20312 20.195 6.2591 20.0599 6.35872 19.9603C6.45835 19.8607 6.59348 19.8047 6.73438 19.8047C6.87527 19.8047 7.0104 19.8607 7.11003 19.9603C7.20965 20.0599 7.26563 20.195 7.26563 20.3359V23.8904H11.828C11.9689 23.8904 12.104 23.9463 12.2037 24.046C12.3033 24.1456 12.3593 24.2807 12.3593 24.4216C12.3593 24.5625 12.3033 24.6976 12.2037 24.7973C12.104 24.8969 11.9689 24.9529 11.828 24.9529Z" fill="#2D3958"/>
<path d="M6.73437 18.451C6.59348 18.451 6.45835 18.395 6.35872 18.2954C6.2591 18.1957 6.20313 18.0606 6.20312 17.9197V14.3525C6.20312 14.2116 6.2591 14.0765 6.35872 13.9769C6.45835 13.8773 6.59348 13.8213 6.73437 13.8213C6.87527 13.8213 7.0104 13.8773 7.11003 13.9769C7.20965 14.0765 7.26562 14.2116 7.26562 14.3525V17.9218C7.26506 18.0624 7.20884 18.1969 7.10928 18.2961C7.00971 18.3953 6.8749 18.451 6.73437 18.451Z" fill="#2D3958"/>
<path d="M25.3812 24.9529H16.5859C16.445 24.9529 16.3099 24.8969 16.2102 24.7973C16.1106 24.6977 16.0546 24.5625 16.0546 24.4216C16.0546 24.2807 16.1106 24.1456 16.2102 24.046C16.3099 23.9464 16.445 23.8904 16.5859 23.8904H24.85V9.99219H7.26562V12.1802C7.26562 12.3211 7.20965 12.4563 7.11003 12.5559C7.0104 12.6555 6.87527 12.7115 6.73437 12.7115C6.59348 12.7115 6.45835 12.6555 6.35872 12.5559C6.2591 12.4563 6.20312 12.3211 6.20312 12.1802V9.89444C6.2035 9.63856 6.30536 9.39328 6.48636 9.21242C6.66736 9.03156 6.91271 8.92987 7.16858 8.92969H24.9477C25.2035 8.93006 25.4487 9.03183 25.6295 9.21267C25.8104 9.39351 25.9121 9.63868 25.9125 9.89444V24.4216C25.9125 24.5625 25.8565 24.6977 25.7569 24.7973C25.6573 24.8969 25.5221 24.9529 25.3812 24.9529Z" fill="#2D3958"/>
<path d="M8.83637 20.8672H2.09375C1.95285 20.8672 1.81773 20.8112 1.7181 20.7116C1.61847 20.612 1.5625 20.4768 1.5625 20.3359C1.5625 20.195 1.61847 20.0599 1.7181 19.9603C1.81773 19.8607 1.95285 19.8047 2.09375 19.8047H8.83637C8.97727 19.8047 9.1124 19.8607 9.21202 19.9603C9.31165 20.0599 9.36762 20.195 9.36762 20.3359C9.36762 20.4768 9.31165 20.612 9.21202 20.7116C9.1124 20.8112 8.97727 20.8672 8.83637 20.8672Z" fill="#2D3958"/>
<path d="M14.2057 18.4512H4.79688C4.65598 18.4512 4.52085 18.3952 4.42122 18.2956C4.3216 18.1959 4.26562 18.0608 4.26563 17.9199C4.26562 17.779 4.3216 17.6439 4.42122 17.5443C4.52085 17.4446 4.65598 17.3887 4.79688 17.3887H14.2057C14.3466 17.3887 14.4817 17.4446 14.5813 17.5443C14.6809 17.6439 14.7369 17.779 14.7369 17.9199C14.7369 18.0608 14.6809 18.1959 14.5813 18.2956C14.4817 18.3952 14.3466 18.4512 14.2057 18.4512Z" fill="#2D3958"/>
<path d="M4.51006 15.646H0.835938C0.695041 15.646 0.559916 15.59 0.460287 15.4904C0.360658 15.3908 0.304688 15.2556 0.304688 15.1147C0.304688 14.9738 0.360658 14.8387 0.460287 14.7391C0.559916 14.6395 0.695041 14.5835 0.835938 14.5835H4.51006C4.65096 14.5835 4.78609 14.6395 4.88571 14.7391C4.98534 14.8387 5.04131 14.9738 5.04131 15.1147C5.04131 15.2556 4.98534 15.3908 4.88571 15.4904C4.78609 15.59 4.65096 15.646 4.51006 15.646Z" fill="#2D3958"/>
<path d="M10.3996 12.7114H3.91406C3.77317 12.7114 3.63804 12.6555 3.53841 12.5558C3.43878 12.4562 3.38281 12.3211 3.38281 12.1802C3.38281 12.0393 3.43878 11.9042 3.53841 11.8045C3.63804 11.7049 3.77317 11.6489 3.91406 11.6489H10.3996C10.5405 11.6489 10.6756 11.7049 10.7752 11.8045C10.8748 11.9042 10.9308 12.0393 10.9308 12.1802C10.9308 12.3211 10.8748 12.4562 10.7752 12.5558C10.6756 12.6555 10.5405 12.7114 10.3996 12.7114Z" fill="#2D3958"/>
</g>
<defs>
<clipPath id="clip0_5212_7879">
<rect width="34" height="34" fill="white" transform="translate(0.367188 0.921875)"/>
</clipPath>
</defs>
</svg>
