<svg width="307" height="587" viewBox="0 0 307 587" fill="none" xmlns="http://www.w3.org/2000/svg">
<path d="M61.4694 401.257C84.5317 458.487 88.8576 491.572 88.6514 541.739C88.6148 550.654 94.9766 558.347 103.769 559.821L239.327 582.542C251.457 584.575 261.98 574.099 260.356 561.908C251.563 495.886 254.191 450.244 279.5 370.677C304.075 278.584 314.378 223.763 299.707 98.929C299.572 97.7815 299.322 96.6234 298.969 95.5233L292.165 74.3274C291.723 72.9519 291.129 71.6225 290.324 70.4232C284.302 61.4573 277.206 57.4447 260.73 56.438C254.13 56.0347 248.283 52.3517 244.186 47.1621C237.241 38.365 229.545 35.5938 218.197 37.146C208.237 38.5082 198.561 33.4757 193.392 24.8548C185.413 11.5482 174.976 10.2928 158.026 17.3593C149.765 20.8038 140.241 18.6326 134.135 12.0877C116.398 -6.92338 103.336 -3.6943 81.8403 23.0853C81.2832 23.7793 80.9694 24.6616 80.9694 25.5515C80.9694 30.3877 63.373 34.9459 59.4431 32.1273C42.5254 19.9932 20.8312 23.635 10.0965 26.5895C6.20044 27.6618 4.13845 31.6561 4.96647 35.6113C15.375 85.3301 11.2112 113.951 3.46937 163.257C0.0972806 198.653 2.36248 218.559 11.9989 253.08C12.3081 254.188 12.5177 255.348 12.6178 256.493C17.3056 310.177 29.4714 342.457 61.4694 401.257Z" fill="#FF9B3D"/>
<path d="M88.4694 559.579C89.5328 500.238 86.8257 466.502 61.4694 403.579C29.4714 344.78 17.3056 312.5 12.6178 258.816C12.5177 257.67 12.3081 256.511 11.9989 255.403C2.36248 220.881 0.0972806 200.976 3.46937 165.579C10.7842 118.993 14.9048 90.8731 6.55769 45.9758C4.95246 37.3416 9.45771 28.6145 18.112 27.1213C38.1505 23.6637 72.5932 25.3694 80.9694 74.5794C88.5068 118.862 75.5286 148.941 64.8334 165.189C59.2188 173.718 58.8479 185.731 65.3893 193.573C84.0856 215.985 92.1613 233.775 97.9694 264.579" stroke="#E57A08" stroke-width="4"/>
<path d="M81.0627 51.2373L87.032 181.02C94.8314 225.072 130.303 227.035 138.724 182.554C138.913 181.553 139 180.508 139 179.49V40.6948C139 39.8081 138.937 38.9033 138.785 38.0297C132.013 -0.975762 87.7071 -6.46403 81.156 48.4866C81.0485 49.3884 81.021 50.3301 81.0627 51.2373Z" fill="#FF9B3D" stroke="#E57A08" stroke-width="5"/>
<path d="M139.063 62.1005L144.464 179.135C152.265 223.048 187.751 224.995 196.162 180.634C196.347 179.656 196.435 178.634 196.439 177.639L196.994 51.6332C196.998 50.7171 196.935 49.7824 196.777 48.88C189.976 10.0523 145.709 4.60823 139.157 59.3406C139.049 60.2453 139.021 61.1902 139.063 62.1005Z" fill="#FF9B3D" stroke="#E57A08" stroke-width="5"/>
<path d="M197.101 87.3797L203.032 178.046C210.831 222.064 246.301 224.026 254.723 179.581C254.913 178.579 255 177.534 255 176.514V76.6719C255 75.7845 254.937 74.879 254.785 74.0048C248.018 35.0733 203.803 29.56 197.177 84.2773C197.054 85.2948 197.034 86.3568 197.101 87.3797Z" fill="#FF9B3D" stroke="#E57A08" stroke-width="5"/>
<path d="M250.099 103.235L254.784 169C261.04 212.519 296 200 296 169V91.339C291.256 51.1718 255.394 44.9303 250.127 100.418C250.04 101.343 250.033 102.308 250.099 103.235Z" fill="#FF9B3D" stroke="#E57A08" stroke-width="5"/>
<path d="M139 387.5C163.91 318.3 190.876 295.806 264 286" stroke="#E57A08" stroke-width="5" stroke-linecap="round"/>
</svg>
