<svg width="42" height="37" viewBox="0 0 42 37" fill="none" xmlns="http://www.w3.org/2000/svg">
<path d="M38.7578 0H30.9801C30.6462 0 30.3755 0.270699 30.3755 0.604599C30.3755 0.938498 30.6462 1.2092 30.9801 1.2092H38.7578C39.4784 1.2092 40.0647 1.7955 40.0647 2.51618V25.4888H1.2092V2.51618C1.2092 1.7955 1.7955 1.2092 2.51618 1.2092H28.1586C28.4925 1.2092 28.7632 0.938498 28.7632 0.604599C28.7632 0.270699 28.4925 0 28.1586 0H2.51618C1.12875 0 0 1.12875 0 2.51618V27.4064C0 28.7938 1.12875 29.9226 2.51618 29.9226H8.30429C8.63819 29.9226 8.90888 29.6519 8.90888 29.318C8.90888 28.9841 8.63819 28.7134 8.30429 28.7134H2.51618C1.7955 28.7134 1.2092 28.1271 1.2092 27.4064V26.698H40.0647V27.4064C40.0647 28.1271 39.4784 28.7134 38.7578 28.7134H11.0991C10.7652 28.7134 10.4945 28.9841 10.4945 29.318C10.4945 29.6519 10.7652 29.9226 11.0991 29.9226H14.9044L14.3075 33.3724H13.2042C12.204 33.3724 11.3904 34.186 11.3904 35.1862C11.3904 36.1864 12.204 37 13.2042 37H28.0697C29.0699 37 29.8835 36.1864 29.8835 35.1862C29.8835 34.186 29.0699 33.3724 28.0697 33.3724H26.9665L26.3695 29.9226H38.7577C40.1451 29.9226 41.2739 28.7938 41.2739 27.4064V2.51618C41.2739 1.12875 40.1452 0 38.7578 0ZM25.7393 33.3724H24.0933C23.7594 33.3724 23.4887 33.6431 23.4887 33.977C23.4887 34.3109 23.7594 34.5816 24.0933 34.5816H28.0697C28.4032 34.5816 28.6743 34.8528 28.6743 35.1862C28.6743 35.5196 28.4032 35.7908 28.0697 35.7908H13.2042C12.8708 35.7908 12.5996 35.5196 12.5996 35.1862C12.5996 34.8528 12.8708 34.5816 13.2042 34.5816H21.2709C21.6048 34.5816 21.8755 34.3109 21.8755 33.977C21.8755 33.6431 21.6048 33.3724 21.2709 33.3724H15.5346L16.1316 29.9226H25.1424L25.7393 33.3724Z" fill="#0074BC"/>
<path d="M32.7064 15.2969C32.4789 15.2969 32.2707 15.4246 32.1675 15.6273L29.3143 21.2352L26.9065 16.5028C26.8033 16.3 26.5951 16.1723 26.3676 16.1723C26.1401 16.1723 25.9319 16.3 25.8287 16.5028L24.5235 19.0681H22.4396C22.1057 19.0681 21.835 19.3388 21.835 19.6727C21.835 20.0066 22.1057 20.2773 22.4396 20.2773H24.8942C25.1217 20.2773 25.3299 20.1496 25.4331 19.9469L26.3676 18.1103L28.7754 22.8427C28.8785 23.0454 29.0868 23.1731 29.3143 23.1731C29.5417 23.1731 29.75 23.0454 29.8532 22.8427L32.7064 17.2348L34.0862 19.947C34.1894 20.1497 34.3976 20.2774 34.6251 20.2774H37.0798C37.4137 20.2774 37.6844 20.0067 37.6844 19.6728C37.6844 19.3389 37.4137 19.0682 37.0798 19.0682H34.9959L33.2453 15.6274C33.1421 15.4246 32.9339 15.2969 32.7064 15.2969Z" fill="#0074BC"/>
<path d="M22.4396 13.5075H25.5769C25.9108 13.5075 26.1815 13.2368 26.1815 12.9029V6.53819C26.1815 6.20429 25.9108 5.93359 25.5769 5.93359H22.4396C22.1057 5.93359 21.835 6.20429 21.835 6.53819V12.9029C21.835 13.2368 22.1057 13.5075 22.4396 13.5075ZM23.0442 7.14279H24.9723V12.2983H23.0442V7.14279Z" fill="#0074BC"/>
<path d="M31.3494 7.66211H28.212C27.8781 7.66211 27.6074 7.93281 27.6074 8.26671V12.9019C27.6074 13.2358 27.8781 13.5065 28.212 13.5065H31.3494C31.6833 13.5065 31.954 13.2358 31.954 12.9019V8.26671C31.954 7.93281 31.6833 7.66211 31.3494 7.66211ZM30.7448 12.2973H28.8166V8.87131H30.7448V12.2973Z" fill="#0074BC"/>
<path d="M37.0799 13.5076C37.4138 13.5076 37.6845 13.2369 37.6845 12.903V4.94249C37.6845 4.60859 37.4138 4.33789 37.0799 4.33789H33.9425C33.6086 4.33789 33.3379 4.60859 33.3379 4.94249V12.903C33.3379 13.2369 33.6086 13.5076 33.9425 13.5076H37.0799ZM34.5471 5.54709H36.4753V12.2984H34.5471V5.54709Z" fill="#0074BC"/>
<path d="M17.8879 11.1758H4.1837C3.8498 11.1758 3.5791 11.4465 3.5791 11.7804C3.5791 12.1143 3.8498 12.385 4.1837 12.385H17.8879C18.2218 12.385 18.4925 12.1143 18.4925 11.7804C18.4925 11.4465 18.2218 11.1758 17.8879 11.1758Z" fill="#0074BC"/>
<path d="M4.1837 15.5959H6.63611C6.97001 15.5959 7.24071 15.3252 7.24071 14.9913C7.24071 14.6574 6.97001 14.3867 6.63611 14.3867H4.1837C3.8498 14.3867 3.5791 14.6574 3.5791 14.9913C3.5791 15.3252 3.8498 15.5959 4.1837 15.5959Z" fill="#0074BC"/>
<path d="M17.8879 14.3867H9.40636C9.07246 14.3867 8.80176 14.6574 8.80176 14.9913C8.80176 15.3252 9.07246 15.5959 9.40636 15.5959H17.8879C18.2218 15.5959 18.4925 15.3252 18.4925 14.9913C18.4925 14.6574 18.2218 14.3867 17.8879 14.3867Z" fill="#0074BC"/>
<path d="M17.8879 4.33789H4.1837C3.8498 4.33789 3.5791 4.60859 3.5791 4.94249C3.5791 5.27639 3.8498 5.54709 4.1837 5.54709H17.8879C18.2218 5.54709 18.4925 5.27639 18.4925 4.94249C18.4925 4.60859 18.2218 4.33789 17.8879 4.33789Z" fill="#0074BC"/>
<path d="M4.1837 8.75803H12.6821C13.016 8.75803 13.2867 8.48733 13.2867 8.15343C13.2867 7.81953 13.016 7.54883 12.6821 7.54883H4.1837C3.8498 7.54883 3.5791 7.81953 3.5791 8.15343C3.5791 8.48733 3.8498 8.75803 4.1837 8.75803Z" fill="#0074BC"/>
<path d="M17.8878 7.54883H15.4523C15.1184 7.54883 14.8477 7.81953 14.8477 8.15343C14.8477 8.48733 15.1184 8.75803 15.4523 8.75803H17.8878C18.2217 8.75803 18.4924 8.48733 18.4924 8.15343C18.4924 7.81953 18.2217 7.54883 17.8878 7.54883Z" fill="#0074BC"/>
<path d="M18.4925 18.1651C18.4925 17.8312 18.2218 17.5605 17.8879 17.5605H4.1837C3.8498 17.5605 3.5791 17.8312 3.5791 18.1651C3.5791 18.499 3.8498 18.7697 4.1837 18.7697H17.8879C18.2218 18.7697 18.4925 18.499 18.4925 18.1651Z" fill="#0074BC"/>
<path d="M4.1837 20.7559C3.8498 20.7559 3.5791 21.0266 3.5791 21.3605C3.5791 21.6944 3.8498 21.9651 4.1837 21.9651H10.6328C10.9667 21.9651 11.2374 21.6944 11.2374 21.3605C11.2374 21.0266 10.9667 20.7559 10.6328 20.7559H4.1837Z" fill="#0074BC"/>
</svg>
