<svg width="57" height="51" viewBox="0 0 57 51" fill="none" xmlns="http://www.w3.org/2000/svg">
<path d="M18.927 22.5596H11.0806C10.7205 22.5596 10.3751 22.4188 10.1204 22.1682C9.86573 21.9175 9.72266 21.5775 9.72266 21.223C9.72266 20.8685 9.86573 20.5286 10.1204 20.2779C10.3751 20.0272 10.7205 19.8864 11.0806 19.8864H17.569V11.03C17.569 10.6755 17.7121 10.3355 17.9668 10.0848C18.2214 9.83418 18.5668 9.69336 18.927 9.69336C19.2871 9.69336 19.6326 9.83418 19.8872 10.0848C20.1419 10.3355 20.285 10.6755 20.285 11.03V21.223C20.285 21.5775 20.1419 21.9175 19.8872 22.1682C19.6326 22.4188 19.2871 22.5596 18.927 22.5596Z" fill="#0074BC"/>
<path d="M43.9157 51.0009H30.7488C29.8572 51.0009 28.9743 50.828 28.1505 50.4922C27.3267 50.1563 26.5782 49.664 25.9477 49.0434C25.3172 48.4229 24.8171 47.6861 24.4758 46.8753C24.1346 46.0645 23.959 45.1954 23.959 44.3178V22.5202C23.959 22.1657 24.1021 21.8257 24.3567 21.5751C24.6114 21.3244 24.9568 21.1836 25.317 21.1836H49.3476C49.7078 21.1836 50.0532 21.3244 50.3079 21.5751C50.5625 21.8257 50.7056 22.1657 50.7056 22.5202V44.3178C50.7056 45.1954 50.53 46.0645 50.1888 46.8753C49.8475 47.6861 49.3474 48.4229 48.7169 49.0434C48.0864 49.664 47.3379 50.1563 46.5141 50.4922C45.6903 50.828 44.8074 51.0009 43.9157 51.0009ZM26.6749 23.8568V44.3178C26.6749 45.3813 27.1041 46.4012 27.8682 47.1532C28.6322 47.9052 29.6684 48.3276 30.7488 48.3276H43.9157C44.9962 48.3276 46.0324 47.9052 46.7964 47.1532C47.5604 46.4012 47.9897 45.3813 47.9897 44.3178V23.8568H26.6749Z" fill="#0074BC"/>
<path d="M52.9254 42.7601H49.3404C48.9802 42.7601 48.6348 42.6193 48.3802 42.3686C48.1255 42.118 47.9824 41.778 47.9824 41.4235C47.9824 41.069 48.1255 40.729 48.3802 40.4784C48.6348 40.2277 48.9802 40.0869 49.3404 40.0869H52.9254C53.2856 40.0869 53.631 39.946 53.8857 39.6954C54.1403 39.4447 54.2834 39.1047 54.2834 38.7503V33.377C54.2834 33.0225 54.1403 32.6826 53.8857 32.4319C53.631 32.1812 53.2856 32.0404 52.9254 32.0404H49.3404C48.9802 32.0404 48.6348 31.8996 48.3802 31.6489C48.1255 31.3983 47.9824 31.0583 47.9824 30.7038C47.9824 30.3493 48.1255 30.0093 48.3802 29.7587C48.6348 29.508 48.9802 29.3672 49.3404 29.3672H52.9254C54.0059 29.3672 55.0421 29.7897 55.8061 30.5416C56.5701 31.2936 56.9994 32.3136 56.9994 33.377V38.7503C56.9994 39.8137 56.5701 40.8337 55.8061 41.5856C55.0421 42.3376 54.0059 42.7601 52.9254 42.7601Z" fill="#0074BC"/>
<path d="M34.8541 19.7338C34.4939 19.7338 34.1485 19.593 33.8938 19.3423C33.6392 19.0917 33.4961 18.7517 33.4961 18.3972V14.0906C33.4961 12.3182 34.2115 10.6183 35.4848 9.36497C36.7581 8.11165 38.4852 7.40754 40.286 7.40754H45.2942C45.6543 7.40754 45.9997 7.26672 46.2544 7.01605C46.5091 6.76539 46.6521 6.42541 46.6521 6.07092C46.6536 4.46125 47.3039 2.91791 48.4603 1.7797C49.6166 0.641484 51.1846 0.00141572 52.82 0H55.6419C56.0021 0 56.3475 0.140822 56.6021 0.391487C56.8568 0.642151 56.9999 0.982125 56.9999 1.33662C56.9999 1.69111 56.8568 2.03109 56.6021 2.28175C56.3475 2.53241 56.0021 2.67324 55.6419 2.67324H52.82C51.9047 2.67394 51.0271 3.03214 50.3799 3.66918C49.7327 4.30621 49.3688 5.17002 49.3681 6.07092C49.3681 7.1344 48.9389 8.15432 48.1749 8.90632C47.4108 9.65831 46.3746 10.0808 45.2942 10.0808H40.286C39.2055 10.0808 38.1693 10.5032 37.4053 11.2552C36.6413 12.0072 36.212 13.0272 36.212 14.0906V18.3972C36.212 18.7517 36.069 19.0917 35.8143 19.3423C35.5596 19.593 35.2142 19.7338 34.8541 19.7338Z" fill="#0074BC"/>
<path d="M46.2795 14.3721H40.0709C39.7107 14.3721 39.3653 14.2313 39.1106 13.9807C38.856 13.73 38.7129 13.39 38.7129 13.0355C38.7129 12.681 38.856 12.3411 39.1106 12.0904C39.3653 11.8397 39.7107 11.6989 40.0709 11.6989H46.2795C47.6945 11.6975 49.0511 11.1436 50.0516 10.1588C51.0522 9.17399 51.6149 7.83872 51.6163 6.44599C51.6163 6.0915 51.7594 5.75152 52.0141 5.50086C52.2688 5.2502 52.6142 5.10938 52.9743 5.10938C53.3345 5.10938 53.6799 5.2502 53.9345 5.50086C54.1892 5.75152 54.3323 6.0915 54.3323 6.44599C54.3301 8.54749 53.481 10.5623 51.9713 12.0483C50.4616 13.5343 48.4146 14.37 46.2795 14.3721Z" fill="#0074BC"/>
<path d="M18.9166 39.832C13.8996 39.832 9.08807 37.8703 5.54053 34.3786C1.99299 30.8868 0 26.151 0 21.2129C0 16.2748 1.99299 11.539 5.54053 8.04721C9.08807 4.55546 13.8996 2.59381 18.9166 2.59381C23.7389 2.58177 28.378 4.41112 31.858 7.69702C31.9941 7.81648 32.1044 7.9617 32.1822 8.12401C32.26 8.28632 32.3039 8.4624 32.3111 8.64174C32.3183 8.82108 32.2887 9.00001 32.2241 9.16786C32.1595 9.33571 32.0613 9.48904 31.9352 9.61871C31.8091 9.74837 31.6578 9.85172 31.4903 9.92258C31.3227 9.99343 31.1424 10.0304 30.9601 10.0311C30.7777 10.0319 30.5971 9.99655 30.4289 9.92713C30.2608 9.85771 30.1085 9.75567 29.9813 9.62709C27.0055 6.81873 23.0392 5.25578 18.9166 5.26705C14.6199 5.28902 10.5081 6.99011 7.48565 9.99608C4.46324 13.002 2.77781 17.0667 2.80014 21.2958C2.82247 25.5249 4.55073 29.572 7.60472 32.5469C10.6587 35.5218 14.7883 37.1807 19.0849 37.1588C19.2811 37.1632 19.4774 37.1516 19.6716 37.124C19.8499 37.0893 20.0335 37.0903 20.2115 37.1267C20.3894 37.1632 20.5581 37.2345 20.7076 37.3363C20.857 37.4382 20.9842 37.5685 21.0815 37.7196C21.1789 37.8707 21.2444 38.0395 21.2742 38.216C21.3041 38.3925 21.2976 38.5731 21.2552 38.7471C21.2128 38.921 21.1353 39.0849 21.0274 39.2289C20.9195 39.3728 20.7833 39.494 20.6269 39.5852C20.4705 39.6764 20.2971 39.7358 20.117 39.7598C19.7196 39.8171 19.3181 39.8413 18.9166 39.832Z" fill="#0074BC"/>
<path d="M52.647 50.9994H22.022C21.6619 50.9994 21.3165 50.8586 21.0618 50.6079C20.8071 50.3573 20.6641 50.0173 20.6641 49.6628C20.6641 49.3083 20.8071 48.9683 21.0618 48.7177C21.3165 48.467 21.6619 48.3262 22.022 48.3262H52.647C53.0072 48.3262 53.3526 48.467 53.6073 48.7177C53.8619 48.9683 54.005 49.3083 54.005 49.6628C54.005 50.0173 53.8619 50.3573 53.6073 50.6079C53.3526 50.8586 53.0072 50.9994 52.647 50.9994Z" fill="#0074BC"/>
</svg>
