<svg width="67" height="51" viewBox="0 0 67 51" fill="none" xmlns="http://www.w3.org/2000/svg">
<path d="M39.8952 13.2258H10.7243V39.7386H53.5802V26.3216C53.5802 25.8119 53.9994 25.3986 54.5165 25.3986C55.0336 25.3986 55.4528 25.8118 55.4528 26.3216V40.6617C55.4528 41.1714 55.0336 41.5846 54.5165 41.5846H9.78803C9.27091 41.5846 8.85174 41.1715 8.85174 40.6617V12.3028C8.85174 11.7931 9.27091 11.3799 9.78803 11.3799H39.8952C40.4123 11.3799 40.8314 11.793 40.8314 12.3028C40.8314 12.8126 40.4123 13.2258 39.8952 13.2258ZM63.3153 44.6894V47.3833C63.3153 49.3775 61.6691 51 59.6457 51H3.66953C1.64615 51 0 49.3775 0 47.3833V44.6894C0 44.1797 0.419176 43.7664 0.936295 43.7664H4.76513V9.97876C4.76513 8.53036 5.95894 7.35206 7.42625 7.35206H40.8314C41.3486 7.35206 41.7677 7.7652 41.7677 8.27501C41.7677 8.78469 41.3486 9.19796 40.8314 9.19796H7.42625C6.99147 9.19796 6.63772 9.54817 6.63772 9.97876V43.7664H57.6706V25.8097C57.6706 25.3 58.0898 24.8867 58.6069 24.8867C59.124 24.8867 59.5432 25.2999 59.5432 25.8097V43.7664H62.3788C62.8961 43.7664 63.3153 44.1797 63.3153 44.6894ZM61.4425 45.6123H1.87272V47.3833C1.87272 48.3597 2.67882 49.1542 3.66953 49.1542H59.6457C60.6366 49.1542 61.4427 48.3597 61.4427 47.3833L61.4425 45.6123ZM67 12.3028C67 13.0828 66.9268 13.8574 66.7826 14.605C66.7203 14.9275 66.4889 15.1931 66.175 15.3026L64.049 16.0437C64.0141 16.1303 63.9778 16.2165 63.9403 16.3018L64.9108 18.3056C65.0541 18.6014 65.0274 18.95 64.8408 19.2212C63.9547 20.5091 62.8427 21.6048 61.536 22.4784C61.2611 22.6622 60.908 22.6888 60.6081 22.5479L58.5709 21.5926C58.4839 21.6293 58.3979 21.6644 58.3123 21.6979L57.5602 23.7935C57.449 24.1033 57.1791 24.3314 56.8515 24.3926C56.0897 24.5346 55.3042 24.6066 54.5166 24.6066C53.729 24.6066 52.9435 24.5345 52.1817 24.3926C51.8542 24.3314 51.5842 24.1033 51.473 23.7935L50.721 21.6979C50.6355 21.6644 50.5493 21.6293 50.4624 21.5926L48.4251 22.5479C48.1247 22.6888 47.771 22.6621 47.4961 22.4776C46.1942 21.6046 45.083 20.5095 44.1935 19.2229C44.0059 18.9514 43.9787 18.6021 44.1223 18.3056L45.0934 16.3008C45.057 16.2174 45.0212 16.132 44.986 16.0444L42.8581 15.3026C42.5425 15.1925 42.3104 14.9249 42.2496 14.6002C42.1059 13.8339 42.0331 13.061 42.0331 12.3028C42.0331 11.5488 42.1059 10.7762 42.2495 10.0063C42.31 9.68141 42.5421 9.41325 42.8581 9.30315L44.9865 8.56099C45.0212 8.47492 45.0568 8.39054 45.0931 8.3077L44.1221 6.29961C43.9785 6.00278 44.006 5.65321 44.1943 5.3817C45.0834 4.09975 46.1937 3.00544 47.4943 2.12901C47.77 1.94344 48.1249 1.9163 48.4262 2.05807L50.4627 3.01643C50.5487 2.97986 50.6344 2.94471 50.7199 2.91085L51.473 0.815531C51.5844 0.505899 51.8542 0.277939 52.1816 0.216814C53.7324 -0.0722712 55.3006 -0.0722712 56.8514 0.216814C57.1788 0.277939 57.4486 0.505899 57.56 0.815531L58.3131 2.91085C58.3986 2.94471 58.4843 2.97986 58.5703 3.01643L60.6068 2.05807C60.9076 1.91669 61.262 1.94331 61.5375 2.12824C62.843 3.00505 63.9541 4.10027 64.8397 5.38325C65.0268 5.65438 65.0541 6.00291 64.9111 6.29884L63.9417 8.30693C63.9791 8.39248 64.0146 8.47751 64.0486 8.56177L66.1748 9.30302C66.489 9.41261 66.7206 9.67869 66.7825 10.0015C66.927 10.7526 67 11.5268 67 12.3028ZM65.1273 12.3028C65.1273 11.8186 65.094 11.3355 65.0279 10.861L63.0104 10.1576C62.7403 10.0634 62.5288 9.85251 62.4364 9.58526C62.3374 9.29889 62.2157 9.00761 62.0643 8.69449C61.9429 8.44352 61.9427 8.15198 62.0639 7.90089L62.9827 5.99735C62.3917 5.22624 61.6987 4.54301 60.9141 3.95863L58.9836 4.86698C58.7284 4.98691 58.4321 4.98704 58.177 4.86711C57.8645 4.72018 57.5664 4.59806 57.2652 4.49377C56.998 4.40124 56.7875 4.19448 56.693 3.93124L55.9792 1.94551C55.0019 1.8115 54.031 1.8115 53.0535 1.94551L52.3397 3.93124C52.2452 4.19448 52.0347 4.40124 51.7675 4.49377C51.4664 4.59806 51.1682 4.72018 50.8558 4.86711C50.6007 4.98717 50.3043 4.98678 50.0491 4.86698L48.1194 3.95902C47.3367 4.54352 46.6438 5.2265 46.0506 5.99799L46.9724 7.90399C47.0959 8.15935 47.0937 8.45632 46.9666 8.70986C46.8318 8.97892 46.7098 9.268 46.5935 9.59366C46.4994 9.85703 46.2895 10.0644 46.0224 10.1575L44.0067 10.8604C43.9395 11.3461 43.9057 11.8293 43.9057 12.3028C43.9057 12.7782 43.9395 13.2616 44.0064 13.7451L46.0224 14.448C46.2895 14.5411 46.4996 14.7485 46.5935 15.012C46.7126 15.3459 46.8347 15.6363 46.9666 15.8996C47.0938 16.1533 47.0959 16.4505 46.9721 16.7059L46.0505 18.6087C46.6434 19.3818 47.3365 20.0649 48.119 20.6475L50.0502 19.7419C50.3049 19.6225 50.6006 19.6227 50.8554 19.7421C51.1733 19.8915 51.469 20.0116 51.759 20.1089C52.0302 20.2 52.2441 20.4086 52.3397 20.6748L53.0534 22.6632C54.016 22.7928 55.0164 22.7928 55.9791 22.6632L56.6927 20.6748C56.7883 20.4086 57.0023 20.2001 57.2735 20.1089C57.5636 20.0116 57.8592 19.8916 58.1771 19.7421C58.4317 19.6226 58.7275 19.6223 58.9823 19.7419L60.9144 20.6479C61.6987 20.0656 62.3916 19.3827 62.9825 18.6097L62.0604 16.7059C61.9366 16.4505 61.9387 16.1533 62.0659 15.8996C62.2077 15.6166 62.3322 15.3208 62.436 15.0205C62.5284 14.7531 62.7399 14.5422 63.01 14.448L65.0278 13.7446C65.0941 13.272 65.1273 12.789 65.1273 12.3028ZM61.0293 12.3028C61.0293 15.8423 58.1077 18.7219 54.5165 18.7219C50.9275 18.7219 48.0077 15.8423 48.0077 12.3028C48.0077 8.76543 50.9276 5.88751 54.5165 5.88751C58.1077 5.88751 61.0293 8.76543 61.0293 12.3028ZM59.1567 12.3028C59.1567 9.78324 57.0751 7.73341 54.5166 7.73341C51.9603 7.73341 49.8804 9.78324 49.8804 12.3028C49.8804 14.8245 51.9601 16.876 54.5166 16.876C57.0751 16.876 59.1567 14.8245 59.1567 12.3028ZM15.793 23.6127C16.024 23.6127 16.2553 23.5289 16.4364 23.3603C16.812 23.0101 16.8285 22.426 16.4731 22.0556L14.8939 20.4101L16.4736 18.7614C16.8287 18.3908 16.8118 17.8067 16.4357 17.4567C16.0597 17.1069 15.467 17.1236 15.1121 17.4941L12.9247 19.7769C12.5837 20.1328 12.5839 20.6891 12.9252 21.0448L15.1126 23.3238C15.2967 23.5159 15.5447 23.6127 15.793 23.6127ZM24.3649 23.3603C24.546 23.5291 24.7773 23.6127 25.0083 23.6127C25.2566 23.6127 25.5046 23.5159 25.6887 23.324L27.8761 21.0449C28.2174 20.6892 28.2176 20.1329 27.8766 19.777L25.6892 17.4942C25.3341 17.1237 24.7415 17.107 24.3656 17.4568C23.9895 17.8068 23.9726 18.3909 24.3277 18.7615L25.9074 20.4102L24.3282 22.0557C23.9729 22.426 23.9893 23.0101 24.3649 23.3603ZM17.8466 25.694C18.1702 25.694 18.4851 25.5283 18.6585 25.2323L23.7648 16.5118C24.0234 16.0702 23.8698 15.506 23.4219 15.2512C22.9741 14.9968 22.4013 15.1478 22.1429 15.5892L17.0366 24.3097C16.7781 24.7513 16.9316 25.3155 17.3795 25.5704C17.5269 25.6541 17.6877 25.694 17.8466 25.694ZM28.6704 29.2844H17.2636C16.7465 29.2844 16.3273 29.6975 16.3273 30.2073C16.3273 30.717 16.7465 31.1303 17.2636 31.1303H28.6704C29.1875 31.1303 29.6067 30.7171 29.6067 30.2073C29.6067 29.6975 29.1875 29.2844 28.6704 29.2844ZM13.7381 29.2844H13.6055C13.0883 29.2844 12.6692 29.6975 12.6692 30.2073C12.6692 30.717 13.0883 31.1303 13.6055 31.1303H13.7381C14.2553 31.1303 14.6744 30.7171 14.6744 30.2073C14.6744 29.6975 14.2553 29.2844 13.7381 29.2844ZM28.6704 32.606H17.2636C16.7465 32.606 16.3273 33.0191 16.3273 33.5289C16.3273 34.0387 16.7465 34.4519 17.2636 34.4519H28.6704C29.1875 34.4519 29.6067 34.0387 29.6067 33.5289C29.6067 33.0191 29.1875 32.606 28.6704 32.606ZM13.7381 32.606H13.6055C13.0883 32.606 12.6692 33.0191 12.6692 33.5289C12.6692 34.0387 13.0883 34.4519 13.6055 34.4519H13.7381C14.2553 34.4519 14.6744 34.0387 14.6744 33.5289C14.6744 33.0191 14.2553 32.606 13.7381 32.606ZM28.6704 35.9277H17.2636C16.7465 35.9277 16.3273 36.3408 16.3273 36.8506C16.3273 37.3603 16.7465 37.7736 17.2636 37.7736H28.6704C29.1875 37.7736 29.6067 37.3604 29.6067 36.8506C29.6067 36.3408 29.1875 35.9277 28.6704 35.9277ZM13.7381 35.9277H13.6055C13.0883 35.9277 12.6692 36.3408 12.6692 36.8506C12.6692 37.3603 13.0883 37.7736 13.6055 37.7736H13.7381C14.2553 37.7736 14.6744 37.3604 14.6744 36.8506C14.6744 36.3408 14.2553 35.9277 13.7381 35.9277ZM42.9128 27.4797C42.3957 27.4797 41.9765 27.8929 41.9765 28.4027V35.9277H41.4912V31.119C41.4912 30.6094 41.072 30.1961 40.5549 30.1961C40.0378 30.1961 39.6186 30.6092 39.6186 31.119V35.9277H39.1296V33.7158C39.1296 33.2061 38.7104 32.7928 38.1933 32.7928C37.6762 32.7928 37.257 33.206 37.257 33.7158V35.9277H36.6428V24.7298C36.6428 24.2202 36.2237 23.8069 35.7065 23.8069C35.1894 23.8069 34.7702 24.22 34.7702 24.7298V36.8505C34.7702 37.3602 35.1894 37.7734 35.7065 37.7734H51.4425C51.9596 37.7734 52.3788 37.3603 52.3788 36.8505C52.3788 36.3408 51.9596 35.9275 51.4425 35.9275H50.9269V33.185C50.9269 32.6753 50.5078 32.2621 49.9907 32.2621C49.4735 32.2621 49.0544 32.6752 49.0544 33.185V35.9275H48.5691V30.226C48.5691 29.7163 48.1499 29.303 47.6328 29.303C47.1157 29.303 46.6965 29.7161 46.6965 30.226V35.9277H46.2074V32.9947C46.2074 32.485 45.7883 32.0717 45.2712 32.0717C44.754 32.0717 44.3349 32.4849 44.3349 32.9947V35.9277H43.8496V28.4027C43.8491 27.893 43.4299 27.4797 42.9128 27.4797Z" fill="#0074BC"/>
</svg>
