<svg width="41" height="38" viewBox="0 0 41 38" fill="none" xmlns="http://www.w3.org/2000/svg">
<path d="M40.3894 7.22824C32.7807 -0.380434 33.3514 0.190217 33.1611 0.0634056C33.0977 0.0634056 32.9709 0 32.9709 0H12.7445C12.3641 0 12.1105 0.253622 12.1105 0.634056V7.41846C11.6032 7.79889 11.1594 8.17932 10.7155 8.55976C6.27716 12.9982 6.02353 20.163 10.2717 24.9184L8.62316 26.567L7.67208 25.6159C7.41846 25.3622 7.03802 25.3622 6.7844 25.6159L0.760867 31.6394C-0.253622 32.6539 -0.253622 34.239 0.760867 35.2535L0.887679 35.3803C1.90217 36.3948 3.48731 36.3948 4.5018 35.3803L10.5253 29.3568C10.779 29.1032 10.779 28.7227 10.5253 28.4691L9.57425 27.4546L11.2228 25.8061C11.5398 26.0597 11.7934 26.3133 12.1105 26.567V36.8387C12.1105 37.2191 12.3641 37.4727 12.7445 37.4727H40.0089C40.3894 37.4727 40.643 37.2191 40.643 36.8387V7.79889C40.7064 7.54527 40.5796 7.35505 40.3894 7.22824ZM3.61412 34.4292C3.10687 34.9365 2.2826 34.9365 1.83876 34.4292L1.71195 34.3024C1.20471 33.7952 1.20471 33.0343 1.71195 32.5271L7.29165 26.9474L8.24273 27.8985L9.19381 28.8496L3.61412 34.4292ZM38.4872 7.10143H33.605V2.15579L38.4872 7.10143ZM11.6032 9.51084C15.7246 5.38948 22.4456 5.38948 26.6304 9.51084C30.7517 13.6322 30.7517 20.3532 26.6304 24.538C22.509 28.6593 15.788 28.6593 11.6032 24.538C7.48186 20.3532 7.48186 13.6322 11.6032 9.51084ZM39.3749 36.268H13.3786V27.3912C17.8804 29.864 23.6503 29.23 27.518 25.4257C32.1466 20.797 32.1466 13.2518 27.518 8.62316C23.6503 4.75542 17.8804 4.12137 13.3786 6.65759V1.26811H32.3369V7.73549C32.3369 8.11592 32.5905 8.36954 32.9709 8.36954H39.3749V36.268Z" fill="#0074BC"/>
<path d="M11.9843 22.3817C12.238 22.6988 12.4916 23.0158 12.8086 23.3328C16.2959 26.8201 21.939 26.8201 25.4263 23.3328C25.7433 23.0158 25.997 22.6988 26.2506 22.3817C26.2506 22.3817 26.2506 22.3817 26.314 22.3183C28.9136 18.831 28.5966 13.8854 25.4897 10.7151C22.0024 7.22778 16.3593 7.22778 12.872 10.7151C9.63832 13.8854 9.3847 18.831 11.9843 22.3817C11.9843 22.3183 11.9843 22.3183 11.9843 22.3817ZM13.6963 22.4451C13.5695 22.3183 13.3793 22.1281 13.2524 21.9379C14.584 19.9723 16.7398 18.831 19.0858 18.831C21.4318 18.831 23.5876 19.9723 24.9191 21.9379C24.7923 22.1281 24.6655 22.2549 24.4752 22.4451C21.5586 25.4252 16.6763 25.4252 13.6963 22.4451ZM16.4861 14.8999C16.4861 13.4415 17.6908 12.2368 19.1492 12.2368C20.6075 12.2368 21.8122 13.4415 21.8122 14.8999C21.8122 16.3582 20.6075 17.5629 19.1492 17.5629C17.6908 17.5629 16.4861 16.3582 16.4861 14.8999ZM13.6963 11.6028C16.6763 8.62271 21.4952 8.62271 24.5386 11.6028C27.0749 14.139 27.4553 17.8799 25.7433 20.86C24.6655 19.4651 23.2071 18.514 21.622 18.0067C22.5097 17.3093 23.0803 16.168 23.0803 14.9633C23.0803 12.8075 21.305 11.0321 19.1492 11.0321C16.9934 11.0321 15.218 12.8075 15.218 14.9633C15.218 16.168 15.7887 17.3093 16.6763 18.0067C15.0278 18.514 13.5695 19.4651 12.555 20.86C10.843 17.9433 11.2235 14.139 13.6963 11.6028Z" fill="#0074BC"/>
<path d="M15.7246 32.6536C15.7246 33.034 15.9782 33.2876 16.3587 33.2876H36.9655C37.3459 33.2876 37.5995 33.034 37.5995 32.6536C37.5995 32.2732 37.3459 32.0195 36.9655 32.0195H16.3587C16.0416 32.0195 15.7246 32.3366 15.7246 32.6536Z" fill="#0074BC"/>
<path d="M34.6194 17.0572H35.8875C36.268 17.0572 36.5216 16.8036 36.5216 16.4231C36.5216 16.0427 36.268 15.7891 35.8875 15.7891H34.6194C34.239 15.7891 33.9854 16.0427 33.9854 16.4231C33.9854 16.8036 34.239 17.0572 34.6194 17.0572Z" fill="#0074BC"/>
<path d="M34.6194 12.9986H35.8875C36.268 12.9986 36.5216 12.745 36.5216 12.3645C36.5216 11.9841 36.268 11.7305 35.8875 11.7305H34.6194C34.239 11.7305 33.9854 11.9841 33.9854 12.3645C33.9854 12.6816 34.239 12.9986 34.6194 12.9986Z" fill="#0074BC"/>
<path d="M34.6194 21.0494H35.8875C36.268 21.0494 36.5216 20.7957 36.5216 20.4153C36.5216 20.0349 36.268 19.7812 35.8875 19.7812H34.6194C34.239 19.7812 33.9854 20.0349 33.9854 20.4153C33.9854 20.7957 34.239 21.0494 34.6194 21.0494Z" fill="#0074BC"/>
<path d="M34.6194 25.108H35.8875C36.268 25.108 36.5216 24.8543 36.5216 24.4739C36.5216 24.0935 36.268 23.8398 35.8875 23.8398H34.6194C34.239 23.8398 33.9854 24.0935 33.9854 24.4739C33.9854 24.8543 34.239 25.108 34.6194 25.108Z" fill="#0074BC"/>
<path d="M34.6194 29.1665H35.8875C36.268 29.1665 36.5216 28.9129 36.5216 28.5325C36.5216 28.1521 36.268 27.8984 35.8875 27.8984H34.6194C34.239 27.8984 33.9854 28.1521 33.9854 28.5325C33.9854 28.9129 34.239 29.1665 34.6194 29.1665Z" fill="#0074BC"/>
</svg>
