<svg width="51" height="51" viewBox="0 0 51 51" fill="none" xmlns="http://www.w3.org/2000/svg">
<path d="M50.6612 9.83756C41.1175 -0.517767 41.8333 0.258883 41.5947 0.0862943C41.5151 0.0862943 41.3561 0 41.3561 0H15.9857C15.5085 0 15.1904 0.345178 15.1904 0.862944V10.0964C14.5542 10.6142 13.9974 11.132 13.4407 11.6497C7.87356 17.6904 7.55544 27.4416 12.884 33.9137L10.8162 36.1574L9.62324 34.8629C9.30512 34.5178 8.82793 34.5178 8.50981 34.8629L0.954371 43.0609C-0.318124 44.4416 -0.318124 46.599 0.954371 47.9797L1.11343 48.1523C2.38593 49.533 4.3742 49.533 5.64669 48.1523L13.2021 39.9543C13.5203 39.6091 13.5203 39.0914 13.2021 38.7462L12.0092 37.3655L14.077 35.1218C14.4746 35.467 14.7927 35.8122 15.1904 36.1574V50.1371C15.1904 50.6548 15.5085 51 15.9857 51H50.184C50.6612 51 50.9793 50.6548 50.9793 50.1371V10.6142C51.0588 10.269 50.8998 10.0102 50.6612 9.83756ZM4.53326 46.8579C3.89701 47.5482 2.86311 47.5482 2.3064 46.8579L2.14733 46.6853C1.51109 45.9949 1.51109 44.9594 2.14733 44.269L9.14605 36.6751L10.339 37.9695L11.532 39.264L4.53326 46.8579ZM48.2753 9.66498H42.1514V2.93401L48.2753 9.66498ZM14.5542 12.9442C19.7237 7.33503 28.1539 7.33503 33.403 12.9442C38.5725 18.5533 38.5725 27.7005 33.403 33.3959C28.2335 39.0051 19.8032 39.0051 14.5542 33.3959C9.38465 27.7005 9.38465 18.5533 14.5542 12.9442ZM49.3887 49.3604H16.781V37.2792C22.4277 40.6447 29.665 39.7817 34.5164 34.6041C40.3222 28.3046 40.3222 18.0355 34.5164 11.736C29.665 6.47208 22.4277 5.60914 16.781 9.06091V1.72589H40.5608V10.5279C40.5608 11.0457 40.8789 11.3909 41.3561 11.3909H49.3887V49.3604Z" fill="#0074BC"/>
<path d="M15.0317 30.4613C15.3499 30.8927 15.668 31.3242 16.0656 31.7557C20.4398 36.5019 27.5181 36.5019 31.8923 31.7557C32.2899 31.3242 32.6081 30.8927 32.9262 30.4613C32.9262 30.4613 32.9262 30.4613 33.0057 30.375C36.2665 25.6288 35.8688 18.8978 31.9718 14.5831C27.5976 9.83689 20.5194 9.83689 16.1452 14.5831C12.0891 18.8978 11.771 25.6288 15.0317 30.4613C15.0317 30.375 15.0317 30.375 15.0317 30.4613ZM17.1791 30.5476C17.02 30.375 16.7814 30.1161 16.6224 29.8572C18.2925 27.1821 20.9966 25.6288 23.9392 25.6288C26.8818 25.6288 29.5859 27.1821 31.256 29.8572C31.097 30.1161 30.9379 30.2887 30.6993 30.5476C27.0409 34.6034 20.917 34.6034 17.1791 30.5476ZM20.6784 20.2785C20.6784 18.2937 22.1895 16.6542 24.0187 16.6542C25.8479 16.6542 27.359 18.2937 27.359 20.2785C27.359 22.2633 25.8479 23.9029 24.0187 23.9029C22.1895 23.9029 20.6784 22.2633 20.6784 20.2785ZM17.1791 15.7912C20.917 11.7354 26.9614 11.7354 30.7789 15.7912C33.9601 19.243 34.4373 24.3344 32.2899 28.3902C30.9379 26.4917 29.1087 25.1973 27.1204 24.5069C28.2339 23.5577 28.9496 22.0044 28.9496 20.3648C28.9496 17.4308 26.7228 15.0146 24.0187 15.0146C21.3147 15.0146 19.0878 17.4308 19.0878 20.3648C19.0878 22.0044 19.8036 23.5577 20.917 24.5069C18.8492 25.1973 17.02 26.4917 15.7475 28.3902C13.6002 24.4206 14.0774 19.243 17.1791 15.7912Z" fill="#0074BC"/>
<path d="M19.7246 44.4411C19.7246 44.9588 20.0427 45.304 20.5199 45.304H46.3675C46.8447 45.304 47.1628 44.9588 47.1628 44.4411C47.1628 43.9233 46.8447 43.5781 46.3675 43.5781H20.5199C20.1223 43.5781 19.7246 44.0096 19.7246 44.4411Z" fill="#0074BC"/>
<path d="M43.4242 23.2142H45.0148C45.492 23.2142 45.8101 22.869 45.8101 22.3512C45.8101 21.8335 45.492 21.4883 45.0148 21.4883H43.4242C42.947 21.4883 42.6289 21.8335 42.6289 22.3512C42.6289 22.869 42.947 23.2142 43.4242 23.2142Z" fill="#0074BC"/>
<path d="M43.4242 17.6907H45.0148C45.492 17.6907 45.8101 17.3456 45.8101 16.8278C45.8101 16.31 45.492 15.9648 45.0148 15.9648H43.4242C42.947 15.9648 42.6289 16.31 42.6289 16.8278C42.6289 17.2593 42.947 17.6907 43.4242 17.6907Z" fill="#0074BC"/>
<path d="M43.4242 28.6497H45.0148C45.492 28.6497 45.8101 28.3045 45.8101 27.7868C45.8101 27.269 45.492 26.9238 45.0148 26.9238H43.4242C42.947 26.9238 42.6289 27.269 42.6289 27.7868C42.6289 28.3045 42.947 28.6497 43.4242 28.6497Z" fill="#0074BC"/>
<path d="M43.4242 34.1712H45.0148C45.492 34.1712 45.8101 33.826 45.8101 33.3083C45.8101 32.7905 45.492 32.4453 45.0148 32.4453H43.4242C42.947 32.4453 42.6289 32.7905 42.6289 33.3083C42.6289 33.826 42.947 34.1712 43.4242 34.1712Z" fill="#0074BC"/>
<path d="M43.4242 39.6946H45.0148C45.492 39.6946 45.8101 39.3495 45.8101 38.8317C45.8101 38.3139 45.492 37.9688 45.0148 37.9688H43.4242C42.947 37.9688 42.6289 38.3139 42.6289 38.8317C42.6289 39.3495 42.947 39.6946 43.4242 39.6946Z" fill="#0074BC"/>
</svg>
