<svg width="37" height="37" viewBox="0 0 37 37" fill="none" xmlns="http://www.w3.org/2000/svg">
<path d="M33.2995 20.35V19.1166C33.6399 19.1166 33.9162 18.8406 33.9162 18.5V14.8C33.9162 14.4594 33.6399 14.1833 33.2995 14.1833H29.9695L29.8501 13.7201C29.5774 12.6607 29.1539 11.6458 28.5919 10.7071L28.3453 10.2945L30.7095 7.92608C30.9475 7.6876 30.9475 7.30122 30.7095 7.06274L28.0906 4.43999C27.8488 4.20946 27.4689 4.20946 27.2271 4.43999L24.8585 6.80861L24.4461 6.56194C23.5059 5.99972 22.4901 5.57624 21.4292 5.30332L20.9662 5.18288V1.85C20.9662 1.50938 20.6902 1.23333 20.3496 1.23333H16.6496C16.309 1.23333 16.0329 1.50938 16.0329 1.85V5.17999L15.5697 5.29971C14.5103 5.57215 13.4954 5.99563 12.5562 6.55689L12.1436 6.80379L9.77569 4.43999C9.5336 4.20754 9.15131 4.20754 8.90922 4.43999L6.2896 7.05889C6.17446 7.17379 6.10966 7.32989 6.10966 7.49248C6.10966 7.65532 6.17446 7.81117 6.2896 7.92608L8.65822 10.2945L8.41155 10.7071C7.84981 11.6458 7.42609 12.6607 7.15365 13.7201L7.03273 14.1833H3.69961C3.35899 14.1833 3.08294 14.4594 3.08294 14.8V18.5C3.08294 18.8406 3.35899 19.1166 3.69961 19.1166V20.35C2.67801 20.35 1.84961 19.5216 1.84961 18.5V14.8C1.84961 13.7784 2.67801 12.95 3.69961 12.95H6.08557C6.33994 12.0972 6.68393 11.2739 7.11174 10.4939L5.41591 8.79808C5.06904 8.45193 4.87416 7.9822 4.87416 7.49248C4.87416 7.00276 5.06904 6.53304 5.41591 6.18713L8.03674 3.5663C8.76686 2.86749 9.91805 2.86749 10.6482 3.5663L12.3435 5.26141C13.1235 4.83384 13.9471 4.49058 14.7996 4.23644V1.85C14.7996 0.828403 15.628 0 16.6496 0H20.3496C21.3712 0 22.1996 0.828403 22.1996 1.85V4.23644C23.0523 4.49058 23.8754 4.83456 24.6556 5.26213L26.3515 3.5663C27.0818 2.86749 28.2328 2.86749 28.9631 3.5663L31.5835 6.18641C31.9301 6.53256 32.1247 7.0018 32.1247 7.49176C32.1247 7.98172 31.9301 8.45145 31.5835 8.79736L29.8876 10.4932C30.3152 11.2737 30.659 12.0972 30.9136 12.95H33.2995C34.3211 12.95 35.1495 13.7784 35.1495 14.8V18.5C35.1495 19.5216 34.3211 20.35 33.2995 20.35Z" fill="#0074BC"/>
<path d="M27.1328 16.6489H25.8995C25.8995 12.5621 22.5864 9.24896 18.4995 9.24896C14.4127 9.24896 11.0995 12.5621 11.0995 16.6489H9.86621C9.86621 11.8809 13.7314 8.01562 18.4995 8.01562C23.2674 8.01562 27.1328 11.8809 27.1328 16.6489Z" fill="#0074BC"/>
<path d="M18.5008 21.5836C16.4573 21.5836 14.8008 19.9268 14.8008 17.8836C14.8008 15.8402 16.4573 14.1836 18.5008 14.1836C20.5444 14.1836 22.2008 15.8402 22.2008 17.8836C22.1986 19.9263 20.5435 21.5814 18.5008 21.5836ZM18.5008 15.4169C17.1386 15.4169 16.0341 16.5214 16.0341 17.8836C16.0341 19.2458 17.1386 20.3502 18.5008 20.3502C19.863 20.3502 20.9674 19.2458 20.9674 17.8836C20.9674 16.5214 19.863 15.4169 18.5008 15.4169Z" fill="#0074BC"/>
<path d="M28.9832 24.0504C26.9398 24.0504 25.2832 22.3936 25.2832 20.3504C25.2832 18.307 26.9398 16.6504 28.9832 16.6504C31.0266 16.6504 32.6832 18.307 32.6832 20.3504C32.681 22.3931 31.0259 24.0482 28.9832 24.0504ZM28.9832 17.8837C27.621 17.8837 26.5165 18.9882 26.5165 20.3504C26.5165 21.7126 27.621 22.817 28.9832 22.817C30.3454 22.817 31.4499 21.7126 31.4499 20.3504C31.4499 18.9882 30.3454 17.8837 28.9832 17.8837Z" fill="#0074BC"/>
<path d="M8.0164 24.0504C5.97297 24.0504 4.31641 22.3936 4.31641 20.3504C4.31641 18.307 5.97297 16.6504 8.0164 16.6504C10.0601 16.6504 11.7164 18.307 11.7164 20.3504C11.7142 22.3931 10.0591 24.0482 8.0164 24.0504ZM8.0164 17.8837C6.65419 17.8837 5.54974 18.9882 5.54974 20.3504C5.54974 21.7126 6.65419 22.817 8.0164 22.817C9.3786 22.817 10.4831 21.7126 10.4831 20.3504C10.4831 18.9882 9.3786 17.8837 8.0164 17.8837Z" fill="#0074BC"/>
<path d="M34.5737 25.6314C33.6547 24.9998 32.5652 24.6628 31.4499 24.6659H26.5166C26.2167 24.6686 25.9173 24.6958 25.6217 24.7471C25.2271 24.1299 24.7138 23.5976 24.1116 23.1801C24.0213 23.112 23.9264 23.0501 23.8274 22.9954C22.9648 22.4729 21.975 22.1978 20.9666 22.1993H16.0333C14.1474 22.1925 12.3902 23.1548 11.3799 24.7471C11.0836 24.6958 10.7837 24.6686 10.4833 24.6659H5.54999C4.43565 24.6628 3.34637 24.9993 2.42788 25.6302C0.909822 26.6631 0.000963539 28.3799 0 30.2159V32.6826C0.00216795 34.3663 0.981847 35.8955 2.51122 36.6008C3.07586 36.8667 3.69276 37.0028 4.31666 36.9992H10.4833V35.7659H4.93332V28.9826H3.69999V35.704C3.46778 35.6575 3.24231 35.5823 3.0284 35.4809C1.93599 34.9772 1.23574 33.8853 1.23333 32.6826V30.2159C1.23478 28.787 1.94274 27.4513 3.12404 26.6477C3.83778 26.1577 4.68401 25.8968 5.54999 25.8992H10.4833C10.5919 25.8992 10.6967 25.9108 10.8027 25.918C10.5941 26.5063 10.486 27.1253 10.4833 27.7492V33.9159C10.4855 35.618 11.8648 36.9971 13.5666 36.9992H15.4166V27.1326H14.1833V35.7659H13.5666C12.545 35.7659 11.7166 34.9375 11.7166 33.9159V27.7492C11.7166 25.365 13.6495 23.4326 16.0333 23.4326H20.9666C21.7601 23.4331 22.5377 23.6528 23.2143 24.0671C23.2769 24.1013 23.3372 24.1398 23.3943 24.1822C23.9721 24.578 24.4464 25.1067 24.7769 25.7239C25.1091 26.3473 25.2833 27.0427 25.2833 27.7492V33.9159C25.2833 34.9375 24.4549 35.7659 23.4333 35.7659H22.8166V27.1326H21.5833V36.9992H23.4333C25.1354 36.9971 26.5144 35.618 26.5166 33.9159V27.7492C26.5137 27.1253 26.406 26.5065 26.1977 25.918C26.3039 25.9108 26.4087 25.8992 26.5166 25.8992H31.4499C32.3164 25.8968 33.1633 26.1584 33.8776 26.6489C35.0579 27.453 35.7649 28.7877 35.7666 30.2159V32.6826C35.7644 33.8896 35.0589 34.9847 33.9612 35.4857C33.7504 35.5855 33.5283 35.6587 33.2999 35.704V28.9826H32.0666V35.7659H26.5166V36.9992H32.6833C33.3035 37.0031 33.9168 36.8687 34.4783 36.6056C36.0128 35.9025 36.9975 34.3704 36.9999 32.6826V30.2159C36.999 28.3806 36.0908 26.6645 34.5737 25.6314Z" fill="#0074BC"/>
<path d="M16.0332 35.7676H20.9665V37.0009H16.0332V35.7676Z" fill="#0074BC"/>
</svg>
