<svg width="51" height="51" viewBox="0 0 51 51" fill="none" xmlns="http://www.w3.org/2000/svg">
<path d="M5.97656 14.9706C5.97656 16.0731 6.86846 16.9667 7.96875 16.9667C9.06904 16.9667 9.96094 16.0731 9.96094 14.9706V9.98043H14.8418C15.9421 9.98043 16.834 9.08678 16.834 7.98434C16.834 6.88191 15.9421 5.98826 14.8418 5.98826H9.96094V1.99609C9.96094 0.893648 9.06904 0 7.96875 0C6.86846 0 5.97656 0.893648 5.97656 1.99609V5.98826H1.99219C0.891902 5.98826 0 6.88191 0 7.98434C0 9.08678 0.891902 9.98043 1.99219 9.98043H5.97656V14.9706Z" fill="#0074BC"/>
<path d="M43.0312 20.959C41.931 20.959 41.0391 21.8526 41.0391 22.9551V28.1449C41.0391 29.2473 41.931 30.141 43.0312 30.141C44.1315 30.141 45.0234 29.2473 45.0234 28.1449V22.9551C45.0234 21.8526 44.1315 20.959 43.0312 20.959Z" fill="#0074BC"/>
<path d="M36.0586 9.98045H37.0547C39.2517 9.98045 41.0391 11.7713 41.0391 13.9726V14.9707C41.0391 16.0731 41.931 16.9668 43.0312 16.9668C44.1315 16.9668 45.0234 16.0731 45.0234 14.9707V13.9726C45.0234 9.57006 41.4487 5.98828 37.0547 5.98828H36.0586C34.9583 5.98828 34.0664 6.88193 34.0664 7.98437C34.0664 9.08681 34.9583 9.98045 36.0586 9.98045Z" fill="#0074BC"/>
<path d="M7.96875 20.959C6.86846 20.959 5.97656 21.8526 5.97656 22.9551V28.1449C5.97656 29.2473 6.86846 30.141 7.96875 30.141C9.06904 30.141 9.96094 29.2473 9.96094 28.1449V22.9551C9.96094 21.8526 9.06904 20.959 7.96875 20.959Z" fill="#0074BC"/>
<path d="M14.9414 41.0193H13.9453C11.7483 41.0193 9.96094 39.2284 9.96094 37.0271V36.1289C9.96094 35.0265 9.06904 34.1328 7.96875 34.1328C6.86846 34.1328 5.97656 35.0265 5.97656 36.1289V37.0271C5.97656 41.4297 9.55134 45.0115 13.9453 45.0115H14.9414C16.0417 45.0115 16.9336 44.1178 16.9336 43.0154C16.9336 41.913 16.0417 41.0193 14.9414 41.0193Z" fill="#0074BC"/>
<path d="M49.0078 41.0193H45.0234V36.1289C45.0234 35.0265 44.1315 34.1328 43.0312 34.1328C41.931 34.1328 41.0391 35.0265 41.0391 36.1289V41.0193H36.0586C34.9583 41.0193 34.0664 41.913 34.0664 43.0154C34.0664 44.1178 34.9583 45.0115 36.0586 45.0115H41.0391V49.0037C41.0391 50.1061 41.931 50.9997 43.0312 50.9997C44.1315 50.9997 45.0234 50.1061 45.0234 49.0037V45.0115H49.0078C50.1081 45.0115 51 44.1178 51 43.0154C51 41.913 50.1081 41.0193 49.0078 41.0193Z" fill="#0074BC"/>
<path d="M28.0898 5.98828H22.9102C21.8099 5.98828 20.918 6.88193 20.918 7.98437C20.918 9.08681 21.8099 9.98045 22.9102 9.98045H28.0898C29.1901 9.98045 30.082 9.08681 30.082 7.98437C30.082 6.88193 29.1901 5.98828 28.0898 5.98828Z" fill="#0074BC"/>
<path d="M28.0898 41.0195H22.9102C21.8099 41.0195 20.918 41.9132 20.918 43.0156C20.918 44.1181 21.8099 45.0117 22.9102 45.0117H28.0898C29.1901 45.0117 30.082 44.1181 30.082 43.0156C30.082 41.9132 29.1901 41.0195 28.0898 41.0195Z" fill="#0074BC"/>
</svg>
