<svg width="54" height="50" viewBox="0 0 54 50" fill="none" xmlns="http://www.w3.org/2000/svg">
<g clip-path="url(#clip0_4897_377)">
<path d="M12.2685 39.8038C11.5694 39.6432 10.8708 39.5223 10.1737 39.439C11.2785 38.6024 12.0104 37.1596 12.0104 35.522C12.0104 33.9713 11.3548 33.0775 10.8049 32.6009C10.0902 31.9813 9.10744 31.654 7.96289 31.654C6.81834 31.654 5.83559 31.9814 5.12104 32.6009C4.57102 33.0775 3.91553 33.9713 3.91553 35.522C3.91553 37.1556 4.64368 38.5955 5.74383 39.4329C5.0413 39.5166 4.34299 39.6405 3.65027 39.8055C1.33049 40.3575 0 41.606 0 43.2308V49.2188C0 49.6502 0.377789 50 0.84375 50C1.30971 50 1.6875 49.6502 1.6875 49.2188V43.2308C1.6875 42.1191 2.98329 41.5774 4.07046 41.3187C6.60709 40.7147 9.22841 40.7153 11.8624 41.3204C12.7497 41.5242 14.2383 42.0433 14.2383 43.2309V49.2188C14.2383 49.6502 14.6161 50 15.082 50C15.548 50 15.9258 49.6502 15.9258 49.2188V43.2308C15.9258 41.5866 14.5928 40.3376 12.2685 39.8038ZM7.96289 33.2164C9.03952 33.2164 10.3229 33.6164 10.3229 35.5219C10.3229 37.2117 9.24212 38.6393 7.96289 38.6393C6.68366 38.6393 5.60303 37.2117 5.60303 35.5219C5.60303 33.6163 6.88637 33.2164 7.96289 33.2164ZM4.92254 44.6072V49.2188C4.92254 49.6502 4.54475 50 4.07879 50C3.61283 50 3.23504 49.6502 3.23504 49.2188V44.6072C3.23504 44.1758 3.61283 43.826 4.07879 43.826C4.54475 43.826 4.92254 44.1758 4.92254 44.6072ZM12.6907 44.6072V49.2188C12.6907 49.6502 12.3129 50 11.847 50C11.381 50 11.0032 49.6502 11.0032 49.2188V44.6072C11.0032 44.1758 11.381 43.826 11.847 43.826C12.3129 43.826 12.6907 44.1758 12.6907 44.6072ZM50.3428 39.8038C49.6436 39.6432 48.945 39.5223 48.2479 39.439C49.3527 38.6024 50.0845 37.1596 50.0845 35.522C50.0845 33.9713 49.429 33.0775 48.879 32.6009C48.1644 31.9813 47.1817 31.654 46.0371 31.654C44.8926 31.654 43.9098 31.9814 43.1953 32.6009C42.6452 33.0775 41.9897 33.9713 41.9897 35.522C41.9897 37.1556 42.7179 38.5955 43.818 39.4329C43.1155 39.5166 42.4173 39.6405 41.7245 39.8055C39.4047 40.3575 38.0742 41.6061 38.0742 43.2308V49.2188C38.0742 49.6502 38.452 50 38.918 50C39.3839 50 39.7617 49.6502 39.7617 49.2188V43.2308C39.7617 42.1191 41.0575 41.5774 42.1447 41.3187C44.6811 40.7147 47.3026 40.7153 49.9366 41.3204C50.8239 41.5242 52.3125 42.0434 52.3125 43.2309V49.2188C52.3125 49.6502 52.6903 50 53.1562 50C53.6222 50 54 49.6502 54 49.2188V43.2308C54 41.5866 52.667 40.3376 50.3428 39.8038ZM46.0371 33.2164C47.1136 33.2164 48.397 33.6164 48.397 35.5219C48.397 37.2117 47.3163 38.6393 46.0371 38.6393C44.7579 38.6393 43.6772 37.2117 43.6772 35.5219C43.6772 33.6163 44.9606 33.2164 46.0371 33.2164ZM42.9967 44.6072V49.2188C42.9967 49.6502 42.6189 50 42.1529 50C41.6869 50 41.3092 49.6502 41.3092 49.2188V44.6072C41.3092 44.1758 41.6869 43.826 42.1529 43.826C42.6189 43.826 42.9967 44.1758 42.9967 44.6072ZM50.765 44.6072V49.2188C50.765 49.6502 50.3872 50 49.9212 50C49.4552 50 49.0775 49.6502 49.0775 49.2188V44.6072C49.0775 44.1758 49.4552 43.826 49.9212 43.826C50.3872 43.826 50.765 44.1758 50.765 44.6072ZM31.3057 39.8038C30.6065 39.6432 29.9079 39.5223 29.2108 39.439C30.3156 38.6024 31.0474 37.1596 31.0474 35.522C31.0474 33.9713 30.3919 33.0775 29.8419 32.6009C29.1273 31.9813 28.1445 31.654 27 31.654C25.8555 31.654 24.8726 31.9814 24.158 32.6009C23.6081 33.0775 22.9526 33.9713 22.9526 35.522C22.9526 37.1556 23.6808 38.5955 24.7809 39.4329C24.0784 39.5166 23.3802 39.6405 22.6874 39.8055C20.3676 40.3575 19.0371 41.6061 19.0371 43.2308V49.2188C19.0371 49.6502 19.4149 50 19.8809 50C20.3468 50 20.7246 49.6502 20.7246 49.2188V43.2308C20.7246 42.1191 22.0204 41.5774 23.1076 41.3187C25.644 40.7147 28.2655 40.7153 30.8995 41.3204C31.7868 41.5242 33.2754 42.0434 33.2754 43.2309V49.2188C33.2754 49.6502 33.6532 50 34.1191 50C34.5851 50 34.9629 49.6502 34.9629 49.2188V43.2308C34.9629 41.5866 33.6299 40.3376 31.3057 39.8038ZM27 33.2164C28.0765 33.2164 29.3599 33.6164 29.3599 35.5219C29.3599 37.2117 28.2792 38.6393 27 38.6393C25.7208 38.6393 24.6401 37.2117 24.6401 35.5219C24.6401 33.6163 25.9235 33.2164 27 33.2164ZM23.9595 44.6072V49.2188C23.9595 49.6502 23.5818 50 23.1158 50C22.6498 50 22.272 49.6502 22.272 49.2188V44.6072C22.272 44.1758 22.6498 43.826 23.1158 43.826C23.5818 43.826 23.9595 44.1758 23.9595 44.6072ZM31.7278 44.6072V49.2188C31.7278 49.6502 31.3501 50 30.8841 50C30.4181 50 30.0403 49.6502 30.0403 49.2188V44.6072C30.0403 44.1758 30.4181 43.826 30.8841 43.826C31.3501 43.826 31.7278 44.1758 31.7278 44.6072ZM6.20926 29.002V24.7895C6.20926 24.358 6.58705 24.0082 7.05301 24.0082H26.1564V20.8166C26.1564 20.3852 26.5341 20.0354 27.0001 20.0354C27.4661 20.0354 27.8439 20.3852 27.8439 20.8166V24.0082H46.9471C47.4131 24.0082 47.7908 24.358 47.7908 24.7895V29.002C47.7908 29.4334 47.4131 29.7832 46.9471 29.7832C46.4811 29.7832 46.1033 29.4334 46.1033 29.002V25.5707H27.8439V29.002C27.8439 29.4334 27.4661 29.7832 27.0001 29.7832C26.5341 29.7832 26.1564 29.4334 26.1564 29.002V25.5707H7.89676V29.002C7.89676 29.4334 7.51897 29.7832 7.05301 29.7832C6.58705 29.7832 6.20926 29.4334 6.20926 29.002ZM22.0785 5.36162V6.75889C22.0785 7.19033 21.7007 7.54014 21.2348 7.54014C20.7688 7.54014 20.391 7.19033 20.391 6.75889V5.36162C20.391 5.20801 20.2508 5.07832 20.085 5.07832H16.8381C16.6723 5.07832 16.5321 5.20811 16.5321 5.36162V12.0212C16.5321 12.1748 16.6723 12.3045 16.8381 12.3045H20.0849C20.2507 12.3045 20.3909 12.1747 20.3909 12.0212V10.624C20.3909 10.1926 20.7687 9.84277 21.2347 9.84277C21.7006 9.84277 22.0784 10.1926 22.0784 10.624V12.0212C22.0784 13.039 21.1841 13.867 20.0849 13.867H16.8381C15.7389 13.867 14.8446 13.039 14.8446 12.0212V5.36162C14.8446 4.34385 15.7389 3.51582 16.8381 3.51582H20.0849C21.1841 3.51582 22.0785 4.34385 22.0785 5.36162ZM28.6235 3.51582H24.2268C23.7608 3.51582 23.3831 3.86562 23.3831 4.29707V13.0858C23.3831 13.5173 23.7608 13.8671 24.2268 13.8671C24.6928 13.8671 25.0706 13.5173 25.0706 13.0858V9.47266H26.5157L29.0447 13.48C29.2017 13.7286 29.4839 13.8672 29.774 13.8672C29.9185 13.8672 30.0651 13.8327 30.1989 13.7604C30.6011 13.5427 30.7369 13.0643 30.5017 12.6917L28.4701 9.47266H28.6234C29.7226 9.47266 30.6168 8.64463 30.6168 7.62676V5.36162C30.6169 4.34385 29.7226 3.51582 28.6235 3.51582ZM28.9294 7.62676C28.9294 7.78037 28.7893 7.91016 28.6235 7.91016H25.0706V5.07832H28.6235C28.7893 5.07832 28.9294 5.20811 28.9294 5.36162V7.62676ZM39.1554 4.29707V13.0858C39.1554 13.5173 38.7776 13.8671 38.3116 13.8671C37.8457 13.8671 37.4679 13.5173 37.4679 13.0858V7.18252L36.2669 9.08555C36.1157 9.32529 35.8383 9.47266 35.5384 9.47266C35.2386 9.47266 34.9612 9.32529 34.81 9.08555L33.609 7.18252V13.0857C33.609 13.5172 33.2312 13.867 32.7652 13.867C32.2993 13.867 31.9215 13.5172 31.9215 13.0857V4.29707C31.9215 3.94424 32.1769 3.63516 32.5447 3.54297C32.912 3.45059 33.3014 3.59824 33.4937 3.90293L35.5384 7.14297L37.5832 3.90293C37.7754 3.59834 38.1643 3.45078 38.5322 3.54297C38.8999 3.63516 39.1554 3.94424 39.1554 4.29707ZM11.7333 17.3828H42.2667C42.7327 17.3828 43.1105 17.033 43.1105 16.6016V0.78125C43.1105 0.349805 42.7327 0 42.2667 0H11.7333C11.2673 0 10.8895 0.349805 10.8895 0.78125V16.6016C10.8895 17.033 11.2673 17.3828 11.7333 17.3828ZM12.577 1.5625H41.423V15.8203H12.577V1.5625Z" fill="#0074BC"/>
</g>
<defs>
<clipPath id="clip0_4897_377">
<rect width="54" height="50" fill="white"/>
</clipPath>
</defs>
</svg>
