<svg width="38" height="37" viewBox="0 0 38 37" fill="none" xmlns="http://www.w3.org/2000/svg">
<path d="M7.2407 7.0907H7.0907V7.2407V10.8611C7.0907 11.578 6.50953 12.1592 5.79256 12.1592C5.0756 12.1592 4.49442 11.578 4.49442 10.8611V7.2407V7.0907H4.34442H1.44814C0.731175 7.0907 0.15 6.50953 0.15 5.79256C0.15 5.0756 0.731175 4.49442 1.44814 4.49442H4.34442H4.49442V4.34442V1.44814C4.49442 0.731175 5.0756 0.15 5.79256 0.15C6.50953 0.15 7.0907 0.731175 7.0907 1.44814V4.34442V4.49442H7.2407H10.7886C11.5056 4.49442 12.0868 5.0756 12.0868 5.79256C12.0868 6.50953 11.5056 7.0907 10.7886 7.0907H7.2407Z" fill="#0074BC" stroke="#00B2FF" stroke-width="0.3"/>
<path d="M29.982 16.6532C29.982 15.9363 30.5632 15.3551 31.2802 15.3551C31.9971 15.3551 32.5783 15.9363 32.5783 16.6532V20.4184C32.5783 21.1354 31.9971 21.7165 31.2802 21.7165C30.5632 21.7165 29.982 21.1354 29.982 20.4184V16.6532Z" fill="#0074BC" stroke="#00B2FF" stroke-width="0.3"/>
<path d="M26.9349 7.09003H26.2108C25.4939 7.09003 24.9127 6.50886 24.9127 5.79189C24.9127 5.07493 25.4939 4.49375 26.2108 4.49375H26.9349C30.0461 4.49375 32.5775 7.02514 32.5775 10.1363V10.8604C32.5775 11.5773 31.9963 12.1585 31.2793 12.1585C30.5624 12.1585 29.9812 11.5773 29.9812 10.8604V10.1363C29.9812 8.45646 28.6148 7.09003 26.9349 7.09003Z" fill="#0074BC" stroke="#00B2FF" stroke-width="0.3"/>
<path d="M4.49473 16.6532C4.49473 15.9363 5.0759 15.3551 5.79287 15.3551C6.50983 15.3551 7.09101 15.9363 7.09101 16.6532V20.4184C7.09101 21.1354 6.50983 21.7165 5.79287 21.7165C5.0759 21.7165 4.49473 21.1354 4.49473 20.4184V16.6532Z" fill="#0074BC" stroke="#00B2FF" stroke-width="0.3"/>
<path d="M10.1373 29.9098H10.8614C11.5783 29.9098 12.1595 30.4909 12.1595 31.2079C12.1595 31.9249 11.5783 32.506 10.8614 32.506H10.1373C7.02611 32.506 4.49473 29.9747 4.49473 26.8635V26.2118C4.49473 25.4948 5.0759 24.9137 5.79287 24.9137C6.50983 24.9137 7.09101 25.4948 7.09101 26.2118V26.8635C7.09101 28.5433 8.45744 29.9098 10.1373 29.9098Z" fill="#0074BC" stroke="#00B2FF" stroke-width="0.3"/>
<path d="M32.5775 29.7598V29.9098H32.7275H35.6238C36.3407 29.9098 36.9219 30.4909 36.9219 31.2079C36.9219 31.9249 36.3407 32.506 35.6238 32.506H32.7275H32.5775V32.656V35.5523C32.5775 36.2693 31.9963 36.8505 31.2793 36.8505C30.5624 36.8505 29.9812 36.2693 29.9812 35.5523V32.656V32.506H29.8312H26.2108C25.4939 32.506 24.9127 31.9249 24.9127 31.2079C24.9127 30.4909 25.4939 29.9098 26.2108 29.9098H29.8312H29.9812V29.7598V26.2118C29.9812 25.4948 30.5624 24.9137 31.2793 24.9137C31.9963 24.9137 32.5775 25.4948 32.5775 26.2118V29.7598Z" fill="#0074BC" stroke="#00B2FF" stroke-width="0.3"/>
<path d="M16.6542 4.49375H20.4194C21.1363 4.49375 21.7175 5.07493 21.7175 5.79189C21.7175 6.50886 21.1363 7.09003 20.4194 7.09003H16.6542C15.9372 7.09003 15.3561 6.50886 15.3561 5.79189C15.3561 5.07493 15.9372 4.49375 16.6542 4.49375Z" fill="#0074BC" stroke="#00B2FF" stroke-width="0.3"/>
<path d="M16.6542 29.9098H20.4194C21.1363 29.9098 21.7175 30.4909 21.7175 31.2079C21.7175 31.9249 21.1363 32.506 20.4194 32.506H16.6542C15.9372 32.506 15.3561 31.9249 15.3561 31.2079C15.3561 30.4909 15.9372 29.9098 16.6542 29.9098Z" fill="#0074BC" stroke="#00B2FF" stroke-width="0.3"/>
</svg>
