<svg width="51" height="51" viewBox="0 0 51 51" fill="none" xmlns="http://www.w3.org/2000/svg">
<path d="M46.8871 0H4.1129C1.84505 0 0 1.84505 0 4.1129V34.5484C0 36.8162 1.84505 38.6613 4.1129 38.6613H19.5059C20.1795 39.6237 20.5645 40.7687 20.5645 41.9516C20.5645 42.8104 20.3622 43.6511 19.9978 44.4194H16.4516C14.1838 44.4194 12.3387 46.2644 12.3387 48.5323V50.1774C12.3387 50.6315 12.7064 51 13.1613 51H37.8387C38.2936 51 38.6613 50.6315 38.6613 50.1774V48.5323C38.6613 46.2644 36.8162 44.4194 34.5484 44.4194H31.0022C30.637 43.6511 30.4355 42.8096 30.4355 41.9516C30.4355 40.7531 30.8106 39.6295 31.4909 38.6613H46.8871C49.1549 38.6613 51 36.8162 51 34.5484V4.1129C51 1.84505 49.1549 0 46.8871 0ZM4.1129 1.64516H46.8871C48.2476 1.64516 49.3548 2.75235 49.3548 4.1129V27.1452H47.7097V4.93548C47.7097 4.02818 46.9718 3.29032 46.0645 3.29032H4.93548C4.02818 3.29032 3.29032 4.02818 3.29032 4.93548V27.1452H1.64516V4.1129C1.64516 2.75235 2.75235 1.64516 4.1129 1.64516ZM32.2188 12.3412C32.9065 11.8155 33.753 11.5161 34.6348 11.5161C36.3326 11.5161 37.856 12.6159 38.4252 14.2537C38.5412 14.5844 38.8521 14.8065 39.2025 14.8065H46.0645V16.4516H39.1927C38.8431 16.4516 38.5321 16.6721 38.417 17.0011C37.921 18.411 36.6929 19.4664 35.2862 19.6893C34.1667 19.8686 33.0686 19.5741 32.2139 18.9161C33.9668 18.847 35.371 17.3984 35.371 15.629C35.371 13.8613 33.9693 12.4144 32.2188 12.3412ZM46.0645 13.1613H39.7553C38.825 11.1715 36.8352 9.87097 34.6348 9.87097C32.6137 9.87097 30.7308 10.9765 29.7207 12.7549C29.5759 13.0099 29.5775 13.3217 29.7248 13.575C29.872 13.8284 30.1435 13.9839 30.4363 13.9839H32.0806C32.9879 13.9839 33.7258 14.7217 33.7258 15.629C33.7258 16.5363 32.988 17.2742 32.0798 17.2742L30.4347 17.275C30.1426 17.275 29.8712 17.4305 29.7248 17.6847C29.5775 17.938 29.5759 18.2506 29.7207 18.5048C30.7514 20.3161 32.6161 21.3871 34.6356 21.3871C34.9358 21.3871 35.2394 21.3632 35.5445 21.3155C37.3484 21.0285 38.9418 19.7905 39.743 18.0976H46.0645V27.146H4.93548V4.93548H46.0645V13.1613ZM37.0161 48.5323V49.3548H13.9839V48.5323C13.9839 47.1717 15.0911 46.0645 16.4516 46.0645H34.5484C35.9089 46.0645 37.0161 47.1717 37.0161 48.5323ZM29.2288 44.4194H21.7712C22.0509 43.6297 22.2097 42.798 22.2097 41.9516C22.2097 40.8033 21.9349 39.678 21.4307 38.6613H29.5693C29.0659 39.6788 28.7903 40.8058 28.7903 41.9516C28.7903 42.7972 28.9499 43.6297 29.2288 44.4194ZM46.8871 37.0161H4.1129C2.75235 37.0161 1.64516 35.9089 1.64516 34.5484V28.7903H49.3548V34.5484C49.3548 35.9089 48.2476 37.0161 46.8871 37.0161Z" fill="#0074BC"/>
<path d="M25.499 30.4355C24.1384 30.4355 23.0312 31.5427 23.0312 32.9033C23.0312 34.2638 24.1384 35.371 25.499 35.371C26.8595 35.371 27.9667 34.2638 27.9667 32.9033C27.9667 31.5427 26.8595 30.4355 25.499 30.4355ZM25.499 33.7259C25.0449 33.7259 24.6764 33.3565 24.6764 32.9033C24.6764 32.45 25.0449 32.0807 25.499 32.0807C25.9531 32.0807 26.3216 32.45 26.3216 32.9033C26.3216 33.3565 25.9531 33.7259 25.499 33.7259Z" fill="#0074BC"/>
<path d="M10.6937 18.0982H11.8305L12.1603 18.7587L10.9347 19.9843C10.6131 20.306 10.6131 20.8258 10.9347 21.1475L13.4024 23.6152C13.7241 23.9368 14.2439 23.9368 14.5656 23.6152L15.7912 22.3896L16.4517 22.7194V23.8562C16.4517 24.3103 16.8194 24.6788 17.2743 24.6788H20.5646C21.0195 24.6788 21.3872 24.3103 21.3872 23.8562V22.7194L22.0478 22.3896L23.2734 23.6152C23.595 23.9368 24.1149 23.9368 24.4365 23.6152L26.9043 21.1475C27.2259 20.8258 27.2259 20.306 26.9043 19.9843L25.6786 18.7587L26.0085 18.0982H27.1453C27.6002 18.0982 27.9679 17.7296 27.9679 17.2756V13.9853C27.9679 13.5312 27.6002 13.1627 27.1453 13.1627H26.0085L25.6786 12.5021L26.9043 11.2765C27.2259 10.9549 27.2259 10.435 26.9043 10.1134L24.4365 7.64563C24.1149 7.324 23.595 7.324 23.2734 7.64563L22.0478 8.87127L21.3872 8.54142V7.40461C21.3872 6.95055 21.0195 6.58203 20.5646 6.58203H17.2743C16.8194 6.58203 16.4517 6.95055 16.4517 7.40461V8.54142L15.7912 8.87127L14.5656 7.64563C14.2439 7.324 13.7241 7.324 13.4024 7.64563L10.9347 10.1134C10.6131 10.435 10.6131 10.9549 10.9347 11.2765L12.1603 12.5021L11.8305 13.1627H10.6937C10.2388 13.1627 9.87109 13.5312 9.87109 13.9853V17.2756C9.87109 17.7296 10.2388 18.0982 10.6937 18.0982ZM11.5163 14.8078H12.3388C12.6506 14.8078 12.9352 14.6318 13.075 14.353L13.8976 12.7078C14.0556 12.3911 13.9939 12.0086 13.743 11.7585L12.6794 10.6949L13.984 9.39032L15.0476 10.4539C15.2993 10.7048 15.6818 10.7657 15.9969 10.6086L17.642 9.78598C17.9209 9.64614 18.0969 9.36153 18.0969 9.04977V8.22719H19.7421V9.04977C19.7421 9.36153 19.9181 9.64614 20.1969 9.78598L21.8421 10.6086C22.1588 10.7649 22.5405 10.7048 22.7914 10.4539L23.855 9.39032L25.1596 10.6949L24.096 11.7585C23.8451 12.0086 23.7834 12.3911 23.9413 12.7078L24.7639 14.353C24.9038 14.6318 25.1884 14.8078 25.5001 14.8078H26.3227V16.453H25.5001C25.1884 16.453 24.9038 16.629 24.7639 16.9079L23.9413 18.553C23.7834 18.8697 23.8451 19.2522 24.096 19.5023L25.1596 20.5659L23.855 21.8705L22.7914 20.8069C22.5405 20.5569 22.1588 20.4968 21.8421 20.6523L20.1969 21.4749C19.9181 21.6147 19.7421 21.8993 19.7421 22.2111V23.0336H18.0969V22.2111C18.0969 21.8993 17.9209 21.6147 17.642 21.4749L15.9969 20.6523C15.6802 20.4952 15.2985 20.5552 15.0476 20.8069L13.984 21.8705L12.6794 20.5659L13.743 19.5023C13.9939 19.2522 14.0556 18.8697 13.8976 18.553L13.075 16.9079C12.9352 16.629 12.6506 16.453 12.3388 16.453H11.5163V14.8078Z" fill="#0074BC"/>
<path d="M18.9215 19.7414C21.1894 19.7414 23.0344 17.8964 23.0344 15.6285C23.0344 13.3607 21.1894 11.5156 18.9215 11.5156C16.6536 11.5156 14.8086 13.3607 14.8086 15.6285C14.8086 17.8964 16.6536 19.7414 18.9215 19.7414ZM18.9215 13.1608C20.282 13.1608 21.3892 14.268 21.3892 15.6285C21.3892 16.9891 20.282 18.0963 18.9215 18.0963C17.5609 18.0963 16.4538 16.9891 16.4538 15.6285C16.4538 14.268 17.5609 13.1608 18.9215 13.1608Z" fill="#0074BC"/>
</svg>
