<svg width="57" height="52" viewBox="0 0 57 52" fill="none" xmlns="http://www.w3.org/2000/svg">
<g clip-path="url(#clip0_4897_349)">
<path d="M50.2915 24.098C48.3519 23.2134 44.7154 23.2031 44.5615 23.2031C44.1004 23.2031 43.7266 23.5442 43.7266 23.9648C43.7266 24.3855 44.1004 24.7266 44.5615 24.7266C45.4999 24.7267 48.2244 24.8585 49.5447 25.4607C49.6646 25.5154 49.7919 25.5412 49.9174 25.5412C50.2237 25.5412 50.5186 25.3868 50.6649 25.12C50.8712 24.7437 50.7039 24.2862 50.2915 24.098Z" fill="#0074BC"/>
<path d="M54.4519 44.3581L51.0035 43.1573C50.8547 43.1055 50.7507 42.9375 50.7507 42.7488V41.3459C51.0313 41.109 51.2989 40.8439 51.549 40.5479C52.7614 39.114 53.429 37.1906 53.429 35.132V33.1962L53.7625 32.3835C54.1284 31.4914 54.3218 30.4926 54.3218 29.4953V24.2511C54.3218 23.689 53.9479 23.2334 53.4868 23.2334H45.4519C42.5302 23.2334 40.1532 26.1306 40.1532 29.6915V29.7522C40.1532 30.5815 40.314 31.412 40.6183 32.1537L41.0459 33.196V34.8582C41.0459 37.4924 42.111 39.8559 43.7242 41.2782L43.7245 42.7485C43.7245 42.9752 43.7245 43.0691 43.035 43.3093L41.3524 43.8952L36.485 41.738C36.5025 41.4581 36.425 41.1734 36.2575 40.9589L34.7021 38.9673V35.624C34.8665 35.4589 35.0286 35.2893 35.1857 35.1099C37.1479 32.8684 38.2732 29.7036 38.2732 26.4272V23.7572C38.8657 22.1858 39.1659 20.5229 39.1659 18.8104V7.92976C39.1659 7.36774 38.7921 6.91211 38.3309 6.91211H25.8322C21.4337 6.91211 17.8552 11.2736 17.8552 16.6344V18.8107C17.8552 20.5232 18.1555 22.186 18.748 23.7574V26.0547C18.748 29.8588 20.1358 33.286 22.3191 35.5454V38.9675L20.7637 40.9591C20.5961 41.1736 20.5187 41.4582 20.5361 41.7382L15.3989 44.0148C15.0266 44.1798 14.6807 44.4033 14.3667 44.674L13.56 44.1824C15.9613 42.9085 16.722 41.1167 16.7586 41.0277C16.8761 40.7413 16.8761 40.404 16.7586 40.1175C16.1566 38.6502 16.0837 35.9608 16.0251 33.7998C16.0056 33.0804 15.9872 32.4008 15.9519 31.7956C15.6672 26.9144 12.6226 23.2334 8.86973 23.2334C5.11686 23.2334 2.07215 26.9143 1.7876 31.7956C1.7523 32.4009 1.73382 33.0806 1.71434 33.8001C1.65578 35.9609 1.58275 38.6501 0.980912 40.1174C0.86335 40.4038 0.86335 40.7411 0.980912 41.0276C1.01743 41.1166 1.77657 42.9047 4.18271 44.1801L1.94201 45.5455C0.744117 46.2761 0 47.7435 0 49.3757V56.8939C0 57.4559 0.37384 57.9116 0.834961 57.9116C1.29608 57.9116 1.66992 57.4559 1.66992 56.8939V49.3757C1.66992 48.5192 2.06035 47.7492 2.6888 47.3662L5.47901 45.6659L6.44957 46.79C7.12823 47.5761 7.99881 47.9689 8.86973 47.9689C9.74043 47.9689 10.6115 47.5758 11.2899 46.79L12.2603 45.666L13.1701 46.2204C12.7417 47.0558 12.4986 48.0355 12.4986 49.0617V56.8942C12.4986 57.4562 12.8724 57.9118 13.3335 57.9118C13.7947 57.9118 14.1685 57.4562 14.1685 56.8942V49.0617C14.1685 47.6647 14.8923 46.4052 15.9696 45.9278L21.3859 43.5273L23.6406 47.6496C23.9289 48.1766 24.3908 48.5146 24.9079 48.577C24.9656 48.5839 25.0229 48.5873 25.0801 48.5873C25.5363 48.5873 25.9733 48.3685 26.2999 47.9705L27.6755 46.294V56.8943C27.6755 57.4563 28.0493 57.912 28.5105 57.912C28.9716 57.912 29.3454 57.4563 29.3454 56.8943V46.294L30.721 47.9705C31.0475 48.3686 31.4845 48.5875 31.9408 48.5875C31.9979 48.5875 32.0554 48.5841 32.1129 48.5772C32.6302 48.5147 33.0921 48.1768 33.3803 47.6497L35.6351 43.5276L41.0514 45.928C42.1286 46.4055 42.8524 47.6649 42.8524 49.062V56.8945C42.8524 57.4565 43.2263 57.9121 43.6874 57.9121C44.1485 57.9121 44.5223 57.4565 44.5223 56.8945V49.062C44.5223 47.647 44.0611 46.32 43.2874 45.3386L43.4937 45.2668C43.7017 45.1944 43.9856 45.0952 44.2706 44.9249L46.4025 47.5232V56.8945C46.4025 57.4565 46.7763 57.9121 47.2374 57.9121C47.6985 57.9121 48.0724 57.4565 48.0724 56.8945V47.5232L50.1894 44.9429C50.3019 45.0127 50.4202 45.0716 50.5446 45.1149L53.9931 46.3157C54.7802 46.5898 55.3301 47.4781 55.3301 48.4759V56.8945C55.3301 57.4565 55.7039 57.9121 56.165 57.9121C56.6262 57.9121 57 57.4565 57 56.8945V48.4759C57 46.5739 55.9522 44.8807 54.4519 44.3581ZM5.35655 42.5607C3.79473 41.8758 3.01131 40.9626 2.67688 40.4639C2.90488 39.7375 3.05273 38.9054 3.15281 38.0271C3.61327 39.3727 4.38444 40.5215 5.35655 41.341V42.5607ZM10.1398 45.3149C9.4276 46.1396 8.31198 46.1394 7.60004 45.3147L6.82352 44.4154C6.95456 44.1162 7.02659 43.777 7.02659 43.4216V42.3369C7.60905 42.5588 8.22826 42.6785 8.86996 42.6785C9.51087 42.6785 10.1297 42.5583 10.7132 42.3376L10.7131 43.4215C10.7131 43.777 10.785 44.1163 10.9162 44.4157L10.1398 45.3149ZM8.87018 40.6432C6.37688 40.6432 4.34859 38.171 4.34859 35.1323C4.34859 34.5703 3.97475 34.1146 3.51363 34.1146C3.46687 34.1146 3.42122 34.1205 3.37658 34.1296C3.37903 34.042 3.38137 33.9544 3.38382 33.8677C3.40241 33.1679 3.42033 32.507 3.4534 31.9401C3.56005 30.1116 4.15955 28.4267 5.14147 27.1954C6.13218 25.9531 7.45631 25.269 8.86996 25.269C10.2836 25.269 11.6076 25.9531 12.5984 27.1954C13.5804 28.4267 14.1799 30.1116 14.2865 31.9401C14.3195 32.5069 14.3375 33.1677 14.3564 33.8673C14.3581 33.9274 14.3598 33.9883 14.3614 34.0488C13.453 32.343 12.05 31.0858 10.2373 30.3759C8.56258 29.7202 7.12222 29.7607 7.06143 29.7626C6.84278 29.7701 6.63527 29.8816 6.48353 30.0735L4.97704 31.9777C4.65697 32.3823 4.66654 33.0266 4.99852 33.4167C5.3305 33.8068 5.85909 33.795 6.17916 33.3905L7.43271 31.8061C8.51226 31.8704 11.9854 32.3626 13.3361 35.9878C12.9962 38.6592 11.1123 40.6432 8.87018 40.6432ZM12.3829 42.5641L12.383 41.3504C13.3544 40.5353 14.1266 39.3888 14.5874 38.033C14.6875 38.9092 14.8353 39.7394 15.0628 40.4642C14.7303 40.9581 13.9432 41.8794 12.3829 42.5641ZM20.4179 26.0546V23.5297C20.4179 23.3766 20.3895 23.2253 20.3349 23.0873C19.7976 21.7312 19.5252 20.2924 19.5252 18.8107V16.6346C19.5252 12.3959 22.3546 8.94754 25.8322 8.94754H37.496V18.8108C37.496 20.2925 37.2236 21.7314 36.6863 23.0874C36.6316 23.2254 36.6032 23.3767 36.6032 23.5299V26.4275C36.6032 29.1834 35.6942 31.7396 34.0437 33.6252C33.8376 33.8605 33.6238 34.0811 33.4027 34.2867C33.3978 34.2908 33.3931 34.2952 33.3883 34.2994C31.8421 35.7302 29.9482 36.4256 27.9703 36.2695C23.7353 35.9353 20.4179 31.4484 20.4179 26.0546ZM25.1192 46.5311C25.1134 46.5382 25.0999 46.5549 25.0727 46.5514C25.0455 46.5481 25.0348 46.5287 25.0302 46.5203L22.4335 41.7729L23.2691 40.7027L27.2085 43.9846L25.1192 46.5311ZM28.5106 42.604L23.989 38.8371V36.9375C25.1589 37.7083 26.4689 38.1904 27.8622 38.3003C28.0823 38.3176 28.3011 38.3262 28.5191 38.3262C30.1157 38.3262 31.6523 37.8611 33.0322 36.9782V38.8371L28.5106 42.604ZM31.9909 46.5206C31.9864 46.529 31.9757 46.5484 31.9485 46.5516C31.9212 46.5558 31.9079 46.5383 31.902 46.5314L29.8127 43.985L33.752 40.703L34.5878 41.7732L31.9909 46.5206ZM47.2374 45.6619L45.3426 43.3527C45.3757 43.1697 45.3944 42.9692 45.3943 42.7482L45.3942 42.3188C45.92 42.5291 46.4741 42.6539 47.0476 42.6748C47.1119 42.6773 47.1757 42.6783 47.2399 42.6783C47.8735 42.6783 48.4921 42.5616 49.0808 42.339V42.7488C49.0808 42.9517 49.1017 43.1507 49.1411 43.3418L47.2374 45.6619ZM50.3861 39.0874C49.5012 40.1341 48.3321 40.6869 47.0978 40.6405C44.6815 40.5521 42.7158 37.9582 42.7158 34.8585V32.956C42.7158 32.7979 42.6857 32.6422 42.6277 32.5009L42.1119 31.2436C41.9229 30.783 41.8231 30.2674 41.8231 29.7523V29.6917C41.8231 27.2528 43.451 25.2688 45.4519 25.2688H52.6519V29.4955C52.6519 30.1785 52.5194 30.8625 52.2688 31.4735L51.8473 32.5009C51.7893 32.6423 51.7591 32.7979 51.7591 32.956V35.1321C51.7591 36.6355 51.2715 38.0402 50.3861 39.0874Z" fill="#0074BC"/>
<path d="M52.5947 38.6758C52.1336 38.6758 51.7598 39.0168 51.7598 39.4375V44.3242C51.7598 44.7449 52.1336 45.0859 52.5947 45.0859C53.0558 45.0859 53.4297 44.7449 53.4297 44.3242V39.4375C53.4297 39.0169 53.0558 38.6758 52.5947 38.6758Z" fill="#0074BC"/>
<path d="M4.40527 39.6836C3.94415 39.6836 3.57031 40.0246 3.57031 40.4453V44.3251C3.57031 44.7458 3.94415 45.0868 4.40527 45.0868C4.86639 45.0868 5.24023 44.7458 5.24023 44.3251V40.4453C5.24023 40.0247 4.86639 39.6836 4.40527 39.6836Z" fill="#0074BC"/>
<path d="M35.3498 16.0941C32.1919 13.2132 25.5847 13.7639 22.8903 14.1344C22.0416 14.2511 21.4258 14.9063 21.4258 15.6923V17.4471C21.4258 17.8678 21.7996 18.2088 22.2607 18.2088C22.7219 18.2088 23.0957 17.8678 23.0957 17.4471V15.6922C23.0957 15.6663 23.1144 15.6442 23.1393 15.6407C24.2156 15.4927 26.3512 15.2644 28.5638 15.399C31.1675 15.5571 33.0534 16.1534 34.1691 17.1712C34.4951 17.4687 35.0238 17.4687 35.3498 17.1712C35.6759 16.8738 35.6759 16.3914 35.3498 16.0941Z" fill="#0074BC"/>
<path d="M18.6904 40.3047C18.2293 40.3047 17.8555 40.6457 17.8555 41.0664V44.3242C17.8555 44.7449 18.2293 45.0859 18.6904 45.0859C19.1516 45.0859 19.5254 44.7449 19.5254 44.3242V41.0664C19.5254 40.6458 19.1516 40.3047 18.6904 40.3047Z" fill="#0074BC"/>
<path d="M38.3311 40.3047C37.8699 40.3047 37.4961 40.6457 37.4961 41.0664V44.3242C37.4961 44.7449 37.8699 45.0859 38.3311 45.0859C38.7922 45.0859 39.166 44.7449 39.166 44.3242V41.0664C39.166 40.6458 38.7922 40.3047 38.3311 40.3047Z" fill="#0074BC"/>
</g>
<defs>
<clipPath id="clip0_4897_349">
<rect width="57" height="52" fill="white"/>
</clipPath>
</defs>
</svg>
