<svg width="37" height="37" viewBox="0 0 37 37" fill="none" xmlns="http://www.w3.org/2000/svg">
<mask id="mask0_4897_760" style="mask-type:luminance" maskUnits="userSpaceOnUse" x="0" y="0" width="37" height="37">
<path d="M36.15 36.15V0.849998H0.85V36.15H36.15Z" fill="white" stroke="white" stroke-width="1.7"/>
</mask>
<g mask="url(#mask0_4897_760)">
<path d="M6.63213 29.7734C5.13637 29.7734 3.92383 28.561 3.92383 27.0652V26.2783C3.92383 24.7826 5.13637 23.57 6.63213 23.57C8.12788 23.57 9.34043 24.7826 9.34043 26.2783V27.0652C9.34043 28.561 8.12788 29.7734 6.63213 29.7734Z" stroke="#0074BC" stroke-width="1.7" stroke-miterlimit="10" stroke-linecap="round" stroke-linejoin="round"/>
<path d="M8.81694 29.7725H4.44892C2.38609 29.7725 0.713867 31.4448 0.713867 33.5076V36.2773H12.552V33.5076C12.552 31.4448 10.8798 29.7725 8.81694 29.7725Z" stroke="#0074BC" stroke-width="1.7" stroke-miterlimit="10" stroke-linecap="round" stroke-linejoin="round"/>
<path d="M18.471 29.7734C16.9752 29.7734 15.7627 28.561 15.7627 27.0652V26.2783C15.7627 24.7826 16.9752 23.57 18.471 23.57C19.9667 23.57 21.1793 24.7826 21.1793 26.2783V27.0652C21.1793 28.561 19.9667 29.7734 18.471 29.7734Z" stroke="#0074BC" stroke-width="1.7" stroke-miterlimit="10" stroke-linecap="round" stroke-linejoin="round"/>
<path d="M21.752 36.2773H24.3899V33.5076C24.3899 31.4448 22.7177 29.7725 20.6548 29.7725H16.2868C14.224 29.7725 12.5518 31.4448 12.5518 33.5076V36.2773H15.2481" stroke="#0074BC" stroke-width="1.7" stroke-miterlimit="10" stroke-linecap="round" stroke-linejoin="round"/>
<path d="M30.3089 29.7734C28.8131 29.7734 27.6006 28.561 27.6006 27.0652V26.2783C27.6006 24.7826 28.8131 23.57 30.3089 23.57C31.8046 23.57 33.0172 24.7826 33.0172 26.2783V27.0652C33.0172 28.561 31.8046 29.7734 30.3089 29.7734Z" stroke="#0074BC" stroke-width="1.7" stroke-miterlimit="10" stroke-linecap="round" stroke-linejoin="round"/>
<path d="M32.4927 29.7725H28.1247C26.0619 29.7725 24.3896 31.4448 24.3896 33.5076V36.2773H36.2278V33.5076C36.2278 31.4448 34.5555 29.7725 32.4927 29.7725Z" stroke="#0074BC" stroke-width="1.7" stroke-miterlimit="10" stroke-linecap="round" stroke-linejoin="round"/>
<path d="M20.4115 8.19367C20.2147 7.39694 19.9002 6.64661 19.487 5.9624L20.59 4.85934L17.834 2.10341L16.731 3.2064C16.0468 2.79326 15.2965 2.47876 14.4998 2.28184V0.722273H10.6023V2.28184C9.80546 2.47876 9.05512 2.79326 8.37098 3.2064L7.26799 2.10341L4.51193 4.85934L5.61499 5.9624C5.20178 6.64661 4.88727 7.39694 4.69042 8.19367H3.13086V12.0912H4.69042C4.88727 12.8879 5.20178 13.6383 5.61499 14.3224L4.51193 15.4254L7.26799 18.1814L8.37098 17.0784C9.05512 17.4917 9.80546 17.8062 10.6023 18.0029V19.5625H14.4998V18.0029C15.2965 17.8062 16.0468 17.4917 16.731 17.0784L17.834 18.1814L20.59 15.4254L19.487 14.3224C19.9002 13.6383 20.2147 12.8879 20.4115 12.0912" stroke="#0074BC" stroke-width="1.7" stroke-miterlimit="10" stroke-linecap="round" stroke-linejoin="round"/>
<path d="M16.4719 8.77715C15.9072 7.15587 14.3653 5.99254 12.5516 5.99254C10.2595 5.99254 8.40137 7.8507 8.40137 10.1428C8.40137 12.4349 10.2595 14.293 12.5516 14.293C14.3566 14.293 15.8926 13.1406 16.4638 11.5315" stroke="#0074BC" stroke-width="1.7" stroke-miterlimit="10" stroke-linecap="round" stroke-linejoin="round"/>
<path d="M29.2474 8.21094C27.4733 8.21094 26.0352 6.77278 26.0352 4.99873V4.06535C26.0352 2.29123 27.4733 0.853068 29.2474 0.853068C31.0215 0.853068 32.4597 2.29123 32.4597 4.06535V4.99873C32.4597 6.77278 31.0215 8.21094 29.2474 8.21094Z" stroke="#0074BC" stroke-width="1.7" stroke-miterlimit="10" stroke-linecap="round" stroke-linejoin="round"/>
<path d="M32.791 16.7598V13.1306" stroke="#0074BC" stroke-width="1.7" stroke-miterlimit="10" stroke-linecap="round" stroke-linejoin="round"/>
<path d="M31.8376 8.20935H26.9847H17.9215C16.8538 8.20935 15.9883 9.07495 15.9883 10.1425C15.9883 11.2102 16.8538 12.0757 17.9215 12.0757H24.7133V16.8164H36.2678V12.6396C36.2678 10.1928 34.2843 8.20935 31.8376 8.20935Z" stroke="#0074BC" stroke-width="1.7" stroke-miterlimit="10" stroke-linecap="round" stroke-linejoin="round"/>
</g>
</svg>
