<svg width="37" height="37" viewBox="0 0 37 37" fill="none" xmlns="http://www.w3.org/2000/svg">
<path d="M33.4194 20.0098V8.3071C35.4406 8.01587 37 6.27747 37 4.17742C37 1.87447 35.1261 0 32.8226 0C30.519 0 28.6452 1.87447 28.6452 4.17742H0V28.0484H17.9337C18.244 33.035 22.3886 37 27.4516 37C32.7164 37 37 32.7164 37 27.4516C37 24.4445 35.5994 21.7614 33.4194 20.0098ZM32.8226 1.19355C34.4679 1.19355 35.8065 2.53211 35.8065 4.17742C35.8065 5.82273 34.4679 7.16129 32.8226 7.16129C31.1773 7.16129 29.8387 5.82273 29.8387 4.17742C29.8387 2.53211 31.1773 1.19355 32.8226 1.19355ZM1.19355 5.37097H28.8212C28.9638 5.84719 29.1906 6.28582 29.4818 6.67492L25.832 10.3248C25.598 10.2126 25.3402 10.1452 25.0645 10.1452C24.7888 10.1452 24.531 10.2126 24.2977 10.3248L23.0952 9.12229C23.2068 8.88836 23.2742 8.63055 23.2742 8.35484C23.2742 7.36777 22.4709 6.56452 21.4839 6.56452C20.4968 6.56452 19.6936 7.36777 19.6936 8.35484C19.6936 8.63055 19.761 8.88836 19.8732 9.12169L16.8804 12.1145C16.6464 12.0029 16.3886 11.9355 16.1129 11.9355C15.1258 11.9355 14.3226 12.7387 14.3226 13.7258C14.3226 14.7129 15.1258 15.5161 16.1129 15.5161C17.1 15.5161 17.9032 14.7129 17.9032 13.7258C17.9032 13.4501 17.8358 13.1923 17.7236 12.959L20.7164 9.96613C20.9504 10.0777 21.2082 10.1452 21.4839 10.1452C21.7596 10.1452 22.0174 10.0777 22.2507 9.96553L23.4532 11.168C23.3416 11.402 23.2742 11.6598 23.2742 11.9355C23.2742 12.9225 24.0775 13.7258 25.0645 13.7258C26.0516 13.7258 26.8548 12.9225 26.8548 11.9355C26.8548 11.6598 26.7874 11.402 26.6752 11.1686L30.3257 7.51876C30.8717 7.92815 31.5198 8.20565 32.2258 8.30769V19.1958C30.8192 18.3789 29.1918 17.9032 27.4516 17.9032C24.599 17.9032 22.0413 19.1672 20.2903 21.1574V18.5H16.7097V25.6613H18.0775C18.0035 26.051 17.9587 26.4502 17.9337 26.8548H1.19355V5.37097ZM25.0645 11.3387C25.3933 11.3387 25.6613 11.6061 25.6613 11.9355C25.6613 12.2649 25.3933 12.5323 25.0645 12.5323C24.7357 12.5323 24.4677 12.2649 24.4677 11.9355C24.4677 11.6061 24.7357 11.3387 25.0645 11.3387ZM20.8871 8.35484C20.8871 8.02542 21.1551 7.75806 21.4839 7.75806C21.8127 7.75806 22.0806 8.02542 22.0806 8.35484C22.0806 8.68426 21.8127 8.95161 21.4839 8.95161C21.1551 8.95161 20.8871 8.68426 20.8871 8.35484ZM16.7097 13.7258C16.7097 14.0552 16.4417 14.3226 16.1129 14.3226C15.7841 14.3226 15.5161 14.0552 15.5161 13.7258C15.5161 13.3964 15.7841 13.129 16.1129 13.129C16.4417 13.129 16.7097 13.3964 16.7097 13.7258ZM27.4516 32.2258C24.8192 32.2258 22.6774 30.084 22.6774 27.4516C22.6774 24.8192 24.8192 22.6774 27.4516 22.6774C30.084 22.6774 32.2258 24.8192 32.2258 27.4516C32.2258 30.084 30.084 32.2258 27.4516 32.2258ZM19.0968 22.8391C18.8109 23.3548 18.5746 23.8996 18.3872 24.4677H17.9032V19.6936H19.0968V22.8391ZM26.8548 19.1272V21.5143C23.8435 21.8151 21.4839 24.3627 21.4839 27.4516C21.4839 28.3247 21.6772 29.1524 22.0156 29.9008L19.9454 31.0961C19.4071 29.9933 19.0968 28.7591 19.0968 27.4516C19.0968 23.0462 22.5264 19.4351 26.8548 19.1272ZM27.4516 35.8065C24.5787 35.8065 22.0401 34.3485 20.5362 32.1333L22.6148 30.9332C23.6997 32.4359 25.4608 33.4194 27.4516 33.4194C29.4425 33.4194 31.2035 32.4359 32.2885 30.9332L34.367 32.1333C32.8632 34.3485 30.3245 35.8065 27.4516 35.8065ZM34.9578 31.0961L32.8876 29.9008C33.226 29.1524 33.4194 28.3247 33.4194 27.4516C33.4194 24.3627 31.0597 21.8145 28.0484 21.5143V19.1272C32.3768 19.4351 35.8065 23.0462 35.8065 27.4516C35.8065 28.7591 35.4961 29.9933 34.9578 31.0961Z" fill="#0074BC"/>
<path d="M27.4517 23.8711C25.477 23.8711 23.8711 25.477 23.8711 27.4517C23.8711 29.4265 25.477 31.0324 27.4517 31.0324C29.4265 31.0324 31.0324 29.4265 31.0324 27.4517C31.0324 25.477 29.4265 23.8711 27.4517 23.8711ZM27.4517 29.8388C26.1353 29.8388 25.0646 28.7682 25.0646 27.4517C25.0646 26.1353 26.1353 25.0646 27.4517 25.0646C28.7682 25.0646 29.8388 26.1353 29.8388 27.4517C29.8388 28.7682 28.7682 29.8388 27.4517 29.8388Z" fill="#0074BC"/>
<path d="M2.38672 6.56445H3.58027V7.758H2.38672V6.56445Z" fill="#0074BC"/>
<path d="M4.77441 6.56445H13.1293V7.758H4.77441V6.56445Z" fill="#0074BC"/>
<path d="M2.38672 8.95117H3.58027V10.1447H2.38672V8.95117Z" fill="#0074BC"/>
<path d="M4.77441 8.95117H13.1293V10.1447H4.77441V8.95117Z" fill="#0074BC"/>
<path d="M2.38672 11.3398H3.58027V12.5334H2.38672V11.3398Z" fill="#0074BC"/>
<path d="M4.77441 11.3398H13.1293V12.5334H4.77441V11.3398Z" fill="#0074BC"/>
<path d="M2.38672 13.7266H3.58027V14.9201H2.38672V13.7266Z" fill="#0074BC"/>
<path d="M4.77441 13.7266H13.1293V14.9201H4.77441V13.7266Z" fill="#0074BC"/>
<path d="M2.38672 25.6611H5.96736V19.6934H2.38672V25.6611ZM3.58027 20.8869H4.77382V24.4676H3.58027V20.8869Z" fill="#0074BC"/>
<path d="M7.16113 25.6609H10.7418V20.8867H7.16113V25.6609ZM8.35468 22.0803H9.54823V24.4674H8.35468V22.0803Z" fill="#0074BC"/>
<path d="M11.9355 25.6617H15.5162V16.1133H11.9355V25.6617ZM13.1291 17.3068H14.3226V24.4681H13.1291V17.3068Z" fill="#0074BC"/>
</svg>
