<svg width="41" height="37" viewBox="0 0 41 37" fill="none" xmlns="http://www.w3.org/2000/svg">
<path d="M12.5463 14.5782H12.6963V14.4282V8.00291C12.6963 7.78551 12.7827 7.57701 12.9364 7.42329C13.0901 7.26956 13.2986 7.1832 13.516 7.1832C13.7334 7.1832 13.9419 7.26956 14.0956 7.42329C14.2494 7.57701 14.3357 7.78551 14.3357 8.00291V15.3979C14.3357 15.6153 14.2494 15.8238 14.0956 15.9775C13.9419 16.1312 13.7334 16.2176 13.516 16.2176H7.91306C7.69566 16.2176 7.48717 16.1312 7.33345 15.9775C7.17972 15.8238 7.09336 15.6153 7.09336 15.3979C7.09336 15.1805 7.17972 14.972 7.33345 14.8182C7.48717 14.6645 7.69566 14.5782 7.91306 14.5782H12.5463Z" fill="#0074BC" stroke="#0074BC" stroke-width="0.3"/>
<path d="M19.0488 17.1566H18.8988V17.3066V32.1508C18.8988 32.9621 19.2211 33.7402 19.7948 34.3139C20.3685 34.8876 21.1466 35.2099 21.9579 35.2099H31.3601C32.1715 35.2099 32.9496 34.8876 33.5233 34.3139C34.097 33.7402 34.4192 32.9621 34.4192 32.1508V17.3066V17.1566H34.2692H19.0488ZM31.3601 36.8493H21.9579C21.3409 36.8493 20.7299 36.7278 20.1598 36.4917C19.5898 36.2556 19.0718 35.9095 18.6355 35.4732C18.1992 35.0369 17.8532 34.5189 17.617 33.9489C17.3809 33.3788 17.2594 32.7678 17.2594 32.1508V16.3369C17.2594 16.1195 17.3457 15.911 17.4995 15.7573C17.6532 15.6035 17.8617 15.5172 18.0791 15.5172H35.2389C35.4563 15.5172 35.6648 15.6035 35.8186 15.7573C35.9723 15.911 36.0587 16.1195 36.0587 16.3369V32.1508C36.0587 32.7678 35.9371 33.3788 35.701 33.9489C35.4649 34.5189 35.1188 35.0369 34.6825 35.4732C34.2462 35.9095 33.7282 36.2556 33.1582 36.4917C32.5881 36.7278 31.9772 36.8493 31.3601 36.8493Z" fill="#0074BC" stroke="#0074BC" stroke-width="0.3"/>
<path d="M37.7934 30.8731H35.2334C35.016 30.8731 34.8075 30.7867 34.6538 30.633C34.5 30.4793 34.4137 30.2708 34.4137 30.0534C34.4137 29.836 34.5 29.6275 34.6538 29.4737C34.8075 29.32 35.016 29.2337 35.2334 29.2337H37.7934C38.0904 29.2337 38.3752 29.1157 38.5851 28.9057C38.7951 28.6957 38.9131 28.4109 38.9131 28.114V24.2158C38.9131 23.9188 38.7951 23.634 38.5851 23.424C38.3752 23.214 38.0904 23.096 37.7934 23.096H35.2334C35.016 23.096 34.8075 23.0097 34.6538 22.856C34.5 22.7022 34.4137 22.4937 34.4137 22.2763C34.4137 22.0589 34.5 21.8505 34.6538 21.6967C34.8075 21.543 35.016 21.4566 35.2334 21.4566H37.7934C38.5252 21.4566 39.2269 21.7473 39.7444 22.2648C40.2618 22.7822 40.5525 23.484 40.5525 24.2158V28.114C40.5525 28.8457 40.2618 29.5475 39.7444 30.0649C39.2269 30.5824 38.5252 30.8731 37.7934 30.8731Z" fill="#0074BC" stroke="#0074BC" stroke-width="0.3"/>
<path d="M37.7178 1.78941L37.7177 1.78941C37.0244 1.78995 36.3596 2.06562 35.8693 2.55589C35.3791 3.04615 35.1034 3.71094 35.1028 4.40427V4.40439C35.1028 5.13615 34.8121 5.83794 34.2947 6.35538C33.7773 6.87281 33.0755 7.1635 32.3437 7.1635H28.7675C27.9561 7.1635 27.178 7.4858 26.6043 8.0595C26.0306 8.63319 25.7084 9.41129 25.7084 10.2226V13.347C25.7084 13.5644 25.622 13.7729 25.4683 13.9266C25.3145 14.0803 25.106 14.1667 24.8886 14.1667C24.6713 14.1667 24.4628 14.0803 24.309 13.9266C24.1553 13.7729 24.0689 13.5644 24.0689 13.347V10.2226C24.0689 8.97649 24.564 7.7814 25.4451 6.90026C26.3263 6.01912 27.5213 5.5241 28.7675 5.5241H32.3437C32.6407 5.5241 32.9255 5.40613 33.1355 5.19614C33.3454 4.98619 33.4634 4.70144 33.4634 4.40452C33.4644 3.27646 33.913 2.19488 34.7106 1.39722C35.5083 0.599554 36.5899 0.150992 37.718 0.15L39.7329 0.15C39.9503 0.15 40.1588 0.236362 40.3125 0.390086C40.4662 0.54381 40.5526 0.752304 40.5526 0.969703C40.5526 1.1871 40.4662 1.3956 40.3125 1.54932C40.1588 1.70305 39.9503 1.78941 39.7329 1.78941L37.7178 1.78941Z" fill="#0074BC" stroke="#0074BC" stroke-width="0.3"/>
<path d="M33.0477 8.63767H33.0479C34.098 8.6366 35.1048 8.21896 35.8474 7.4764C36.59 6.73384 37.0076 5.72702 37.0087 4.67689V4.67673C37.0087 4.45934 37.095 4.25084 37.2487 4.09712C37.4025 3.94339 37.611 3.85703 37.8284 3.85703C38.0458 3.85703 38.2543 3.94339 38.408 4.09712C38.5617 4.25081 38.648 4.45924 38.6481 4.67658C38.6466 6.16147 38.056 7.5851 37.0061 8.63507C35.9561 9.68504 34.5325 10.2756 33.0476 10.2771H28.6142C28.3968 10.2771 28.1883 10.1907 28.0346 10.037C27.8809 9.88327 27.7945 9.67477 27.7945 9.45737C27.7945 9.23997 27.8809 9.03148 28.0346 8.87775C28.1883 8.72403 28.3968 8.63767 28.6142 8.63767H33.0477Z" fill="#0074BC" stroke="#0074BC" stroke-width="0.3"/>
<path d="M13.5115 28.7468L13.5115 28.7469C13.7897 28.7534 14.068 28.7364 14.3434 28.6961L14.345 28.6958C14.4538 28.6811 14.5584 28.6447 14.6528 28.5888C14.7472 28.5328 14.8294 28.4585 14.8946 28.3702C14.9597 28.2819 15.0065 28.1814 15.0321 28.0747C15.0577 27.968 15.0616 27.8573 15.0436 27.7491C15.0256 27.6408 14.986 27.5373 14.9273 27.4446C14.8685 27.352 14.7918 27.272 14.7015 27.2096C14.6113 27.1471 14.5095 27.1034 14.4021 27.0811C14.2946 27.0587 14.1838 27.0581 14.0762 27.0794L14.0685 27.0809L14.0685 27.0807C13.9223 27.1018 13.7746 27.1107 13.6269 27.1074C13.6262 27.1074 13.6255 27.1074 13.6248 27.1074L13.6282 26.9574C10.56 26.9734 7.61119 25.7698 5.43039 23.6116C3.24959 21.4533 2.01547 18.5172 1.99953 15.449C1.98358 12.3808 3.18712 9.43198 5.34537 7.25117C7.50362 5.07037 10.4398 3.83625 13.508 3.82031L13.5115 28.7468ZM13.5115 28.7468H13.508M13.5115 28.7468H13.508M13.508 28.7468C9.96521 28.7468 6.56756 27.3395 4.06246 24.8344C1.55735 22.3293 0.15 18.9316 0.15 15.3889C0.15 11.8461 1.55735 8.44847 4.06246 5.94336C6.56756 3.43826 9.96521 2.0309 13.508 2.0309L13.5083 2.0309M13.508 28.7468L13.5083 2.0309M13.5083 2.0309C16.9131 2.02227 20.1884 3.33447 22.6454 5.69148L22.6453 5.69155M13.5083 2.0309L22.6453 5.69155M22.6453 5.69155L22.6494 5.69518M22.6453 5.69155L22.6494 5.69518M22.6494 5.69518C22.7315 5.76844 22.7981 5.8575 22.8451 5.95703C22.8921 6.05657 22.9185 6.16456 22.9229 6.27454C22.9272 6.38452 22.9094 6.49426 22.8704 6.59719C22.8314 6.70013 22.7721 6.79416 22.696 6.87368L22.8044 6.9774L22.6494 5.69518Z" fill="#0074BC" stroke="#0074BC" stroke-width="0.3"/>
<path d="M37.5933 36.85H15.7246C15.5072 36.85 15.2987 36.7636 15.145 36.6099C14.9912 36.4561 14.9049 36.2476 14.9049 36.0303C14.9049 35.8129 14.9912 35.6044 15.145 35.4506C15.2987 35.2969 15.5072 35.2105 15.7246 35.2105H37.5933C37.8107 35.2105 38.0192 35.2969 38.173 35.4506C38.3267 35.6044 38.413 35.8129 38.413 36.0303C38.413 36.2476 38.3267 36.4561 38.173 36.6099C38.0192 36.7636 37.8107 36.85 37.5933 36.85Z" fill="#0074BC" stroke="#0074BC" stroke-width="0.3"/>
</svg>
