<svg width="20" height="20" viewBox="0 0 20 20" fill="none" xmlns="http://www.w3.org/2000/svg">
<mask id="mask0_12489_7987" style="mask-type:alpha" maskUnits="userSpaceOnUse" x="0" y="0" width="20" height="20">
<rect width="20" height="20" fill="#D9D9D9"/>
</mask>
<g mask="url(#mask0_12489_7987)">
<path d="M9.04083 13.7106L13.7106 9.04083L12.9446 8.27479L9.04083 12.1788L7.26208 10.3998L6.51688 11.1658L9.04083 13.7106ZM9.99917 17.5825C9.08569 17.5825 8.22979 17.4098 7.43146 17.0644C6.63313 16.719 5.93701 16.2492 5.34313 15.6552C4.7491 15.0613 4.27938 14.3652 3.93396 13.5669C3.58854 12.7685 3.41583 11.9126 3.41583 10.9992C3.41583 10.0857 3.58854 9.22979 3.93396 8.43146C4.27938 7.63313 4.7491 6.93701 5.34313 6.34313C5.93701 5.7491 6.63313 5.27938 7.43146 4.93396C8.22979 4.58854 9.08569 4.41583 9.99917 4.41583C10.9126 4.41583 11.7685 4.58854 12.5669 4.93396C13.3652 5.27938 14.0613 5.7491 14.6552 6.34313C15.2492 6.93701 15.719 7.63313 16.0644 8.43146C16.4098 9.22979 16.5825 10.0857 16.5825 10.9992C16.5825 11.9126 16.4098 12.7685 16.0644 13.5669C15.719 14.3652 15.2492 15.0613 14.6552 15.6552C14.0613 16.2492 13.3652 16.719 12.5669 17.0644C11.7685 17.4098 10.9126 17.5825 9.99917 17.5825ZM5.06479 2.84375L5.83896 3.61771L2.61771 6.83896L1.84375 6.06479L5.06479 2.84375ZM14.9335 2.84375L18.1546 6.06479L17.3806 6.83896L14.1594 3.61771L14.9335 2.84375ZM9.99458 16.4992C11.5201 16.4992 12.819 15.9647 13.891 14.8956C14.9631 13.8266 15.4992 12.5293 15.4992 11.0038C15.4992 9.4782 14.9647 8.17938 13.8956 7.10729C12.8266 6.03521 11.5293 5.49917 10.0037 5.49917C8.47819 5.49917 7.17938 6.03368 6.10729 7.10271C5.03521 8.17174 4.49917 9.46903 4.49917 10.9946C4.49917 12.5201 5.03368 13.819 6.10271 14.891C7.17174 15.9631 8.46903 16.4992 9.99458 16.4992Z" fill="#41424C"/>
</g>
</svg>
