<svg width="58" height="58" viewBox="0 0 58 58" fill="none" xmlns="http://www.w3.org/2000/svg">
<circle opacity="0.1" cx="29.1953" cy="29.1787" r="28.8047" fill="#0254EF"/>
<circle opacity="0.09" cx="29.2027" cy="29.1783" r="24.484" fill="#0254EF"/>
<mask id="mask0_5233_3224" style="mask-type:alpha" maskUnits="userSpaceOnUse" x="13" y="13" width="32" height="32">
<rect x="13.7422" y="13.7236" width="30.9096" height="30.9096" fill="#D9D9D9"/>
</mask>
<g mask="url(#mask0_5233_3224)">
<path d="M27.8448 36.8861L23.7186 32.7599L25.1155 31.363L27.8448 34.0924L33.2787 28.6584L34.6756 30.0553L27.8448 36.8861ZM20.5781 41.4135C19.9276 41.4135 19.3769 41.1881 18.9261 40.7374C18.4754 40.2866 18.25 39.7359 18.25 39.0854V21.8474C18.25 21.1969 18.4754 20.6462 18.9261 20.1955C19.3769 19.7447 19.9276 19.5193 20.5781 19.5193H22.3614V16.7949H24.3427V19.5193H34.101V16.7949H36.0328V19.5193H37.8161C38.4666 19.5193 39.0173 19.7447 39.4681 20.1955C39.9188 20.6462 40.1442 21.1969 40.1442 21.8474V39.0854C40.1442 39.7359 39.9188 40.2866 39.4681 40.7374C39.0173 41.1881 38.4666 41.4135 37.8161 41.4135H20.5781ZM20.5781 39.4817H37.8161C37.9152 39.4817 38.006 39.4404 38.0886 39.3579C38.1711 39.2753 38.2124 39.1845 38.2124 39.0854V26.999H20.1818V39.0854C20.1818 39.1845 20.2231 39.2753 20.3056 39.3579C20.3882 39.4404 20.4791 39.4817 20.5781 39.4817ZM20.1818 25.0672H38.2124V21.8474C38.2124 21.7484 38.1711 21.6575 38.0886 21.575C38.006 21.4924 37.9152 21.4511 37.8161 21.4511H20.5781C20.4791 21.4511 20.3882 21.4924 20.3056 21.575C20.2231 21.6575 20.1818 21.7484 20.1818 21.8474V25.0672Z" fill="#0254EF"/>
</g>
</svg>
