<svg width="59" height="59" viewBox="0 0 59 59" fill="none" xmlns="http://www.w3.org/2000/svg">
<circle opacity="0.1" cx="29.6484" cy="29.5" r="28.8047" fill="#0254EF"/>
<circle opacity="0.09" cx="29.6559" cy="29.4996" r="24.484" fill="#0254EF"/>
<path d="M20.8051 38.1242C20.2243 38.1242 19.7327 37.9229 19.3302 37.5205C18.9278 37.1181 18.7266 36.6264 18.7266 36.0456V22.9555C18.7266 22.3747 18.9278 21.883 19.3302 21.4806C19.7327 21.0782 20.2243 20.877 20.8051 20.877H38.4945C39.0753 20.877 39.5669 21.0782 39.9694 21.4806C40.3718 21.883 40.573 22.3747 40.573 22.9555V36.0456C40.573 36.6264 40.3718 37.1181 39.9694 37.5205C39.5669 37.9229 39.0753 38.1242 38.4945 38.1242H20.8051ZM29.6498 30.1418L20.4513 24.26V36.0456C20.4513 36.1488 20.4844 36.2336 20.5508 36.2999C20.6171 36.3663 20.7019 36.3995 20.8051 36.3995H38.4945C38.5977 36.3995 38.6825 36.3663 38.7488 36.2999C38.8152 36.2336 38.8483 36.1488 38.8483 36.0456V24.26L29.6498 30.1418ZM29.6498 28.3507L38.6714 22.6017H20.6282L29.6498 28.3507ZM20.4513 24.26V22.6017V36.0456C20.4513 36.1488 20.4844 36.2336 20.5508 36.2999C20.6171 36.3663 20.7019 36.3995 20.8051 36.3995H20.4513V24.26Z" fill="#0254EF"/>
</svg>
