<svg width="28" height="28" viewBox="0 0 28 28" fill="none" xmlns="http://www.w3.org/2000/svg">
<path d="M26.0408 12.2194C25.2764 11.2982 24.0796 10.7259 22.9174 10.7259H19.8429C20.5349 9.62331 21.0556 8.51376 21.3729 7.45719C21.8572 5.8449 21.8402 4.43943 21.3239 3.39271C20.7423 2.21376 19.5637 1.56445 18.0053 1.56445C17.6509 1.56445 17.3314 1.77828 17.1963 2.10597C15.9829 5.04909 12.818 9.27916 9.83601 12.0658C9.53173 11.0088 8.55659 10.2331 7.40307 10.2331H3.65698C2.26086 10.2331 1.125 11.369 1.125 12.7651V23.9019C1.125 25.2981 2.26086 26.4339 3.65698 26.4339H7.40307C8.25713 26.4339 9.01323 26.0084 9.47206 25.3587C10.1662 26.0265 11.0863 26.4339 12.0946 26.4339H21.5272C22.5699 26.4339 23.4985 25.9899 24.2126 25.1499C24.8013 24.4574 25.2194 23.5219 25.4216 22.4445L26.8119 15.0383C26.9985 14.0446 26.7246 13.0435 26.0408 12.2194ZM8.18499 23.902C8.18499 24.3332 7.83423 24.684 7.40307 24.684H3.65698C3.22582 24.684 2.875 24.3332 2.875 23.902V12.7651C2.875 12.334 3.22582 11.9832 3.65698 11.9832H7.40307C7.83423 11.9832 8.18499 12.334 8.18499 12.7651V23.902ZM25.092 14.7154L23.7017 22.1216C23.4692 23.3604 22.7758 24.684 21.5271 24.684H12.0945C10.9038 24.684 9.93505 23.607 9.93505 22.2831V14.3129C13.2333 11.5748 16.9271 6.87226 18.5577 3.35749C19.4278 3.50471 19.6667 3.98908 19.7545 4.16692C20.3224 5.31815 19.8511 7.96891 17.4742 11.0684C17.2715 11.3327 17.2365 11.6893 17.3839 11.988C17.5312 12.2867 17.8354 12.4759 18.1686 12.4759H22.9175C23.5628 12.4759 24.2602 12.8138 24.6941 13.3368C24.9383 13.6313 25.2058 14.1095 25.092 14.7154Z" fill="#97989F"/>
</svg>
