<svg width="259" height="69" viewBox="0 0 259 69" fill="none" xmlns="http://www.w3.org/2000/svg">
<path d="M88.2839 44.0617C85.9448 44.0617 83.8643 43.7372 82.0457 43.0864C80.2256 42.4373 78.4873 41.364 76.831 39.8697C76.4743 39.6094 76.198 39.3009 76.002 38.9426C75.8397 38.5521 75.7578 38.1633 75.7578 37.7728C75.7578 37.1558 75.9859 36.6031 76.4406 36.1146C76.8952 35.6278 77.4639 35.3836 78.1467 35.3836C78.6672 35.3836 79.154 35.5619 79.6086 35.9202C80.8441 37.0578 82.1277 37.919 83.4595 38.5039C84.825 39.0888 86.4171 39.3812 88.2357 39.3812C89.5354 39.3812 90.721 39.1691 91.7941 38.7481C92.8994 38.3256 93.7766 37.7568 94.4256 37.0417C95.0746 36.3267 95.4008 35.4976 95.4008 34.5561C95.4008 33.3863 95.0602 32.4271 94.3774 31.6799C93.7284 30.9007 92.7693 30.266 91.5017 29.7791C90.2663 29.2585 88.7723 28.8199 87.0179 28.4632C85.3937 28.1708 83.9302 27.7642 82.6305 27.2437C81.363 26.7231 80.2754 26.0739 79.3645 25.293C78.4552 24.48 77.7563 23.5224 77.2679 22.4169C76.7812 21.3115 76.537 20.0276 76.537 18.5655C76.537 16.5827 77.0575 14.8763 78.0969 13.4463C79.1363 12.0163 80.5501 10.9108 82.3381 10.1315C84.1262 9.35226 86.1408 8.96181 88.3819 8.96181C90.4286 8.96181 92.3468 9.28638 94.1332 9.93712C95.9197 10.5541 97.3672 11.3993 98.4708 12.4726C99.25 13.1555 99.6404 13.8866 99.6404 14.6658C99.6404 15.2507 99.3962 15.8034 98.9094 16.324C98.4548 16.8109 97.9182 17.0551 97.3013 17.0551C96.8466 17.0551 96.4563 16.925 96.1317 16.6647C95.6112 16.1119 94.9124 15.6251 94.0352 15.2025C93.1581 14.7478 92.215 14.3734 91.2077 14.081C90.2326 13.7886 89.2912 13.6423 88.3803 13.6423C86.9183 13.6423 85.6668 13.8528 84.6274 14.2754C83.588 14.6658 82.7912 15.2186 82.2385 15.9336C81.6859 16.6165 81.4096 17.4279 81.4096 18.3711C81.4096 19.4765 81.718 20.386 82.3349 21.101C82.9856 21.816 83.8788 22.4008 85.0162 22.8556C86.1536 23.2781 87.4533 23.6686 88.9152 24.0253C90.7017 24.4157 92.2954 24.8544 93.6914 25.3412C95.1212 25.8281 96.3229 26.4628 97.2981 27.242C98.2732 27.9892 99.0203 28.9324 99.5408 30.07C100.061 31.2076 100.32 32.6215 100.32 34.3118C100.32 36.2625 99.7673 37.9688 98.662 39.431C97.5567 40.8932 96.0948 42.0308 94.2746 42.8438C92.4882 43.6568 90.4896 44.0633 88.2791 44.0633L88.2839 44.0617ZM105.683 18.2248H117.137C117.786 18.2248 118.323 18.453 118.745 18.9077C119.2 19.3303 119.428 19.867 119.428 20.5161C119.428 21.1652 119.2 21.6537 118.745 22.0763C118.323 22.4989 117.786 22.7093 117.137 22.7093H105.683C105.033 22.7093 104.481 22.4973 104.026 22.0763C103.604 21.6216 103.393 21.0849 103.393 20.4679C103.393 19.8188 103.604 19.2821 104.026 18.8595C104.481 18.4369 105.033 18.2265 105.683 18.2265V18.2248ZM110.801 11.8877C111.516 11.8877 112.101 12.132 112.555 12.6188C113.01 13.0735 113.238 13.6584 113.238 14.3734V36.9919C113.238 37.5768 113.336 38.0476 113.53 38.4059C113.725 38.7642 113.985 39.0068 114.31 39.137C114.668 39.2671 115.024 39.3314 115.381 39.3314C115.738 39.3314 116.048 39.2655 116.308 39.137C116.6 39.0068 116.941 38.9426 117.331 38.9426C117.722 38.9426 118.078 39.1209 118.405 39.4792C118.729 39.8375 118.891 40.3244 118.891 40.9414C118.891 41.7207 118.469 42.3553 117.624 42.8422C116.779 43.329 115.869 43.5733 114.894 43.5733C114.342 43.5733 113.693 43.5251 112.944 43.4271C112.197 43.329 111.466 43.0864 110.751 42.696C110.068 42.3055 109.5 41.6885 109.045 40.8434C108.59 39.9661 108.362 38.7465 108.362 37.188V14.3734C108.362 13.6584 108.59 13.0735 109.045 12.6188C109.532 12.132 110.118 11.8877 110.799 11.8877H110.801ZM146.077 17.542C146.792 17.542 147.377 17.7862 147.831 18.273C148.286 18.7278 148.514 19.3126 148.514 20.0276V41.0876C148.514 41.8026 148.286 42.4035 147.831 42.892C147.377 43.3467 146.792 43.5749 146.077 43.5749C145.362 43.5749 144.809 43.3467 144.323 42.892C143.868 42.4051 143.64 41.8026 143.64 41.0876V37.5784L144.663 37.7246C144.663 38.3095 144.419 38.9602 143.932 39.6752C143.478 40.3903 142.843 41.0892 142.032 41.7721C141.219 42.4228 140.261 42.9739 139.156 43.4303C138.051 43.8528 136.865 44.0633 135.598 44.0633C133.355 44.0633 131.34 43.4945 129.554 42.3569C127.766 41.1872 126.354 39.5949 125.313 37.58C124.273 35.5651 123.753 33.2739 123.753 30.7062C123.753 28.1386 124.273 25.767 125.313 23.7843C126.352 21.7694 127.75 20.1931 129.504 19.0555C131.291 17.918 133.273 17.3492 135.45 17.3492C136.847 17.3492 138.131 17.5773 139.301 18.032C140.502 18.4867 141.543 19.0716 142.421 19.7866C143.298 20.5016 143.964 21.2649 144.419 22.0779C144.906 22.8572 145.15 23.6059 145.15 24.3209L143.638 24.4672V20.0309C143.638 19.348 143.866 18.7631 144.321 18.2763C144.808 17.7894 145.394 17.5452 146.075 17.5452L146.077 17.542ZM136.134 39.5756C137.662 39.5756 139.01 39.1852 140.179 38.4059C141.349 37.6266 142.26 36.5694 142.909 35.2373C143.558 33.8716 143.884 32.3612 143.884 30.703C143.884 29.0448 143.56 27.5023 142.909 26.1687C142.26 24.8367 141.349 23.7795 140.179 23.0002C139.01 22.2209 137.66 21.8304 136.134 21.8304C134.608 21.8304 133.307 22.2209 132.137 23.0002C131 23.7795 130.09 24.8367 129.408 26.1687C128.759 27.5007 128.433 29.0127 128.433 30.703C128.433 32.3934 128.757 33.8716 129.408 35.2373C130.09 36.5694 131 37.6266 132.137 38.4059C133.307 39.1868 134.639 39.5756 136.134 39.5756ZM167.527 7.54785C168.144 7.54785 168.779 7.6298 169.428 7.79208C170.077 7.95436 170.613 8.23073 171.036 8.62117C171.491 8.97788 171.719 9.4824 171.719 10.1331C171.719 10.7839 171.524 11.3189 171.134 11.7415C170.744 12.132 170.289 12.3264 169.768 12.3264C169.444 12.3264 169.005 12.2621 168.453 12.132C167.9 11.9697 167.347 11.8877 166.796 11.8877C166.049 11.8877 165.448 12.0661 164.992 12.4244C164.538 12.749 164.213 13.1716 164.017 13.6921C163.823 14.179 163.725 14.6675 163.725 15.1543V41.0876C163.725 41.8026 163.48 42.4035 162.994 42.892C162.539 43.3467 161.97 43.5749 161.288 43.5749C160.605 43.5749 159.988 43.3467 159.533 42.892C159.079 42.4051 158.85 41.8026 158.85 41.0876V15.2025C158.85 12.9595 159.581 11.1245 161.043 9.6945C162.537 8.26447 164.7 7.54946 167.526 7.54946L167.527 7.54785ZM168.502 18.3695C169.153 18.3695 169.688 18.5815 170.111 19.0025C170.533 19.4251 170.744 19.9618 170.744 20.6109C170.744 21.26 170.531 21.7967 170.111 22.2193C169.688 22.6419 169.151 22.8523 168.502 22.8523H155.878C155.261 22.8523 154.725 22.6403 154.27 22.2193C153.848 21.7967 153.637 21.26 153.637 20.6109C153.637 19.9618 153.848 19.4251 154.27 19.0025C154.725 18.5799 155.261 18.3695 155.878 18.3695H168.502ZM187.561 7.54785C188.178 7.54785 188.812 7.6298 189.461 7.79208C190.11 7.95436 190.647 8.23073 191.069 8.62117C191.524 8.97788 191.752 9.4824 191.752 10.1331C191.752 10.7839 191.558 11.3189 191.167 11.7415C190.777 12.132 190.322 12.3264 189.802 12.3264C189.477 12.3264 189.039 12.2621 188.486 12.132C187.933 11.9697 187.381 11.8877 186.83 11.8877C186.083 11.8877 185.482 12.0661 185.026 12.4244C184.571 12.749 184.246 13.1716 184.05 13.6921C183.856 14.179 183.758 14.6675 183.758 15.1543V41.0876C183.758 41.8026 183.514 42.4035 183.027 42.892C182.572 43.3467 182.004 43.5749 181.321 43.5749C180.638 43.5749 180.021 43.3467 179.567 42.892C179.112 42.4051 178.884 41.8026 178.884 41.0876V15.2025C178.884 12.9595 179.615 11.1245 181.077 9.6945C182.571 8.26447 184.732 7.54946 187.559 7.54946L187.561 7.54785ZM188.536 18.3695C189.185 18.3695 189.721 18.5815 190.144 19.0025C190.566 19.4251 190.777 19.9618 190.777 20.6109C190.777 21.26 190.565 21.7967 190.144 22.2193C189.721 22.6419 189.185 22.8523 188.536 22.8523H175.912C175.295 22.8523 174.758 22.6403 174.304 22.2193C173.881 21.7967 173.671 21.26 173.671 20.6109C173.671 19.9618 173.881 19.4251 174.304 19.0025C174.758 18.5799 175.295 18.3695 175.912 18.3695H188.536ZM221.351 9.35065C222.033 9.35065 222.618 9.57881 223.105 10.0335C223.592 10.4882 223.834 11.041 223.834 11.6917C223.834 12.0484 223.754 12.4228 223.592 12.8132L211.26 41.9649C210.998 42.5176 210.642 42.9241 210.187 43.1828C209.766 43.4431 209.326 43.5733 208.873 43.5733C208.417 43.5411 207.98 43.3949 207.555 43.1346C207.165 42.8743 206.857 42.5016 206.628 42.0131L194.298 12.8132C194.234 12.651 194.184 12.4887 194.152 12.3264C194.12 12.132 194.104 11.9359 194.104 11.7415C194.104 10.9944 194.38 10.4095 194.933 9.98693C195.486 9.56435 196.022 9.35386 196.541 9.35386C197.58 9.35386 198.345 9.89052 198.832 10.9622L209.992 37.4322H208.58L219.108 10.9124C219.564 9.87285 220.311 9.35226 221.351 9.35226V9.35065ZM233.624 41.086C233.624 41.801 233.396 42.4019 232.942 42.8904C232.485 43.3451 231.901 43.5733 231.186 43.5733C230.471 43.5733 229.918 43.3451 229.431 42.8904C228.977 42.4035 228.749 41.801 228.749 41.086V20.2237C228.749 19.5087 228.977 18.9238 229.431 18.4691C229.918 17.9822 230.503 17.738 231.186 17.738C231.869 17.738 232.485 17.9822 232.942 18.4691C233.396 18.9238 233.624 19.5087 233.624 20.2237V41.0876V41.086ZM231.139 14.518C230.196 14.518 229.513 14.3557 229.092 14.0312C228.67 13.6745 228.458 13.088 228.458 12.2766V11.4973C228.458 10.6843 228.686 10.1155 229.141 9.7909C229.597 9.46634 230.278 9.30405 231.187 9.30405C232.164 9.30405 232.863 9.4824 233.284 9.84071C233.706 10.1653 233.918 10.718 233.918 11.4989V12.2782C233.918 13.1233 233.69 13.7082 233.236 14.0328C232.813 14.3573 232.114 14.5196 231.139 14.5196V14.518ZM256.704 39.0872C257.354 39.0872 257.889 39.2993 258.314 39.7202C258.768 40.1428 258.996 40.6795 258.996 41.3286C258.996 41.9777 258.768 42.4823 258.314 42.937C257.891 43.3596 257.356 43.5701 256.704 43.5701H240.961C240.277 43.5701 239.726 43.3258 239.304 42.839C238.883 42.3184 238.688 41.8155 238.719 41.327C238.752 40.9366 238.799 40.5959 238.867 40.3035C238.965 39.9789 239.175 39.6206 239.5 39.2318L252.514 21.975V22.5599H241.644C240.994 22.5599 240.441 22.3494 239.986 21.9268C239.565 21.4721 239.353 20.9355 239.353 20.3185C239.353 19.6693 239.565 19.1327 239.986 18.7101C240.443 18.2875 240.994 18.077 241.644 18.077H256.656C257.274 18.077 257.791 18.3213 258.216 18.8081C258.67 19.2628 258.865 19.8316 258.8 20.5145C258.8 20.8069 258.752 21.0994 258.656 21.3918C258.59 21.6521 258.412 21.9606 258.119 22.3173L245.301 39.3796L245.106 39.0872H256.705H256.704Z" fill="white"/>
<path d="M83.6224 60.5874L81.497 57.5989C81.2576 57.6262 81.0102 57.639 80.7532 57.639H78.2566V60.5891H77.2734V51.2891H80.7532C81.9404 51.2891 82.869 51.5719 83.5421 52.139C84.2152 52.7062 84.551 53.4855 84.551 54.4769C84.551 55.2032 84.3662 55.8169 84 56.3167C83.6321 56.818 83.1083 57.1779 82.4256 57.3996L84.6972 60.5874H83.6208H83.6224ZM82.8384 56.1897C83.3252 55.7816 83.5694 55.2112 83.5694 54.4753C83.5694 53.7394 83.3252 53.1449 82.8384 52.7416C82.3517 52.3383 81.648 52.1374 80.7259 52.1374H78.255V56.8003H80.7259C81.6464 56.8003 82.3501 56.5962 82.8384 56.1897Z" fill="white"/>
<path d="M92.7563 57.3855H86.9118C86.9648 58.1117 87.2443 58.6982 87.7488 59.1465C88.2532 59.5932 88.891 59.8181 89.6622 59.8181C90.0959 59.8181 90.4943 59.741 90.8574 59.5851C91.2205 59.4309 91.5354 59.2027 91.8004 58.9006L92.3322 59.5112C92.0221 59.8824 91.635 60.1668 91.1691 60.3612C90.7048 60.5556 90.1923 60.6536 89.6348 60.6536C88.9167 60.6536 88.2821 60.501 87.7279 60.1957C87.1736 59.8904 86.7431 59.4678 86.433 58.9263C86.123 58.3865 85.9688 57.7743 85.9688 57.093C85.9688 56.4117 86.1166 55.7996 86.4138 55.2597C86.711 54.7198 87.1174 54.2988 87.6363 53.9984C88.1536 53.6979 88.7368 53.5469 89.3826 53.5469C90.0284 53.5469 90.6084 53.6979 91.1225 53.9984C91.6366 54.2988 92.0398 54.7182 92.3306 55.2533C92.623 55.7899 92.7692 56.4021 92.7692 57.093L92.7563 57.3855ZM87.6877 55.001C87.2315 55.43 86.9728 55.9908 86.9102 56.6817H91.8647C91.802 55.9908 91.5434 55.43 91.0871 55.001C90.6309 54.572 90.0622 54.3567 89.3794 54.3567C88.6966 54.3567 88.1424 54.572 87.6861 55.001H87.6877Z" fill="white"/>
<path d="M101.072 50.7305V60.588H100.169V59.2062C99.8849 59.6754 99.5122 60.0353 99.0463 60.2827C98.582 60.5302 98.0567 60.6539 97.4719 60.6539C96.8165 60.6539 96.2237 60.5029 95.6919 60.2024C95.1601 59.9019 94.744 59.4809 94.4436 58.9395C94.1416 58.3996 93.9922 57.7842 93.9922 57.0933C93.9922 56.4024 94.1432 55.787 94.4436 55.2471C94.744 54.7072 95.1601 54.2879 95.6919 53.9922C96.2237 53.695 96.8165 53.5471 97.4719 53.5471C98.039 53.5471 98.5499 53.6644 99.0062 53.899C99.4624 54.1336 99.8367 54.4775 100.129 54.929V50.7305H101.072ZM98.8744 59.4793C99.268 59.2528 99.5781 58.933 99.8046 58.5153C100.031 58.0991 100.144 57.6251 100.144 57.0933C100.144 56.5614 100.031 56.0874 99.8046 55.6713C99.5781 55.2551 99.268 54.9338 98.8744 54.7088C98.4808 54.4823 98.039 54.3698 97.5522 54.3698C97.0655 54.3698 96.6108 54.4823 96.2172 54.7088C95.8236 54.9354 95.5136 55.2551 95.287 55.6713C95.0605 56.0874 94.9481 56.5614 94.9481 57.0933C94.9481 57.6251 95.0605 58.0991 95.287 58.5153C95.5136 58.9314 95.822 59.2528 96.2172 59.4793C96.6108 59.7059 97.0558 59.8184 97.5522 59.8184C98.0487 59.8184 98.4792 59.7059 98.8744 59.4793Z" fill="white"/>
<path d="M109.788 57.3855H103.943C103.996 58.1117 104.276 58.6982 104.78 59.1465C105.284 59.5932 105.922 59.8181 106.693 59.8181C107.127 59.8181 107.526 59.741 107.889 59.5851C108.252 59.4309 108.567 59.2027 108.832 58.9006L109.363 59.5112C109.053 59.8824 108.666 60.1668 108.2 60.3612C107.736 60.5556 107.224 60.6536 106.666 60.6536C105.948 60.6536 105.313 60.501 104.759 60.1957C104.205 59.8904 103.774 59.4678 103.464 58.9263C103.154 58.3865 103 57.7743 103 57.093C103 56.4117 103.148 55.7996 103.445 55.2597C103.742 54.7198 104.149 54.2988 104.668 53.9984C105.185 53.6979 105.768 53.5469 106.414 53.5469C107.06 53.5469 107.64 53.6979 108.154 53.9984C108.668 54.2988 109.071 54.7182 109.362 55.2533C109.654 55.7899 109.8 56.4021 109.8 57.093L109.788 57.3855ZM104.719 55.001C104.263 55.43 104.004 55.9908 103.941 56.6817H108.896C108.833 55.9908 108.575 55.43 108.118 55.001C107.662 54.572 107.093 54.3567 106.411 54.3567C105.728 54.3567 105.174 54.572 104.717 55.001H104.719Z" fill="white"/>
<path d="M113.116 51.792C112.907 52.0138 112.805 52.3415 112.805 52.7754V53.5996H114.957V54.3966H112.832V60.5875H111.889V54.3966H110.641V53.5996H111.889V52.7368C111.889 52.0989 112.072 51.5944 112.44 51.2216C112.808 50.8488 113.328 50.6641 114.001 50.6641C114.267 50.6641 114.524 50.7026 114.773 50.7765C115.02 50.8521 115.229 50.9597 115.398 51.1027L115.079 51.8065C114.805 51.5767 114.459 51.461 114.043 51.461C113.627 51.461 113.328 51.5719 113.119 51.7936L113.116 51.792ZM117.28 51.8724C117.147 51.739 117.081 51.5799 117.081 51.3935C117.081 51.2072 117.147 51.0609 117.28 50.9292C117.414 50.7958 117.578 50.7299 117.772 50.7299C117.966 50.7299 118.13 50.7942 118.264 50.9228C118.397 51.0513 118.463 51.2039 118.463 51.3807C118.463 51.5751 118.397 51.739 118.264 51.8724C118.13 52.0057 117.966 52.0716 117.772 52.0716C117.578 52.0716 117.414 52.0057 117.28 51.8724ZM117.293 53.5996H118.236V60.5875H117.293V53.5996Z" fill="white"/>
<path d="M126.517 54.3101C127.035 54.8194 127.295 55.5618 127.295 56.5355V60.5877H126.352V56.6287C126.352 55.9024 126.17 55.3481 125.807 54.9673C125.444 54.5865 124.925 54.3953 124.254 54.3953C123.5 54.3953 122.906 54.6186 122.467 55.0669C122.029 55.5136 121.81 56.1322 121.81 56.9211V60.5877H120.867V53.5999H121.77V54.8885C122.027 54.4627 122.384 54.1333 122.84 53.8988C123.296 53.6642 123.825 53.5469 124.427 53.5469C125.304 53.5469 126.002 53.8007 126.519 54.3101H126.517Z" fill="white"/>
<path d="M129.848 51.8729C129.714 51.7395 129.648 51.5805 129.648 51.3941C129.648 51.2077 129.714 51.0615 129.848 50.9297C129.981 50.7963 130.145 50.7305 130.339 50.7305C130.534 50.7305 130.697 50.7947 130.831 50.9233C130.964 51.0518 131.03 51.2045 131.03 51.3812C131.03 51.5756 130.964 51.7395 130.831 51.8729C130.697 52.0062 130.534 52.0721 130.339 52.0721C130.145 52.0721 129.981 52.0062 129.848 51.8729ZM129.86 53.6002H130.804V60.588H129.86V53.6002Z" fill="white"/>
<path d="M139.088 54.3101C139.605 54.8194 139.865 55.5618 139.865 56.5355V60.5877H138.922V56.6287C138.922 55.9024 138.741 55.3481 138.378 54.9673C138.014 54.5865 137.496 54.3953 136.824 54.3953C136.071 54.3953 135.476 54.6186 135.038 55.0669C134.599 55.5136 134.381 56.1322 134.381 56.9211V60.5877H133.438V53.5999H134.34V54.8885C134.597 54.4627 134.954 54.1333 135.41 53.8988C135.867 53.6642 136.395 53.5469 136.998 53.5469C137.875 53.5469 138.572 53.8007 139.089 54.3101H139.088Z" fill="white"/>
<path d="M148.922 53.5992V59.7371C148.922 60.9245 148.631 61.8034 148.051 62.3738C147.471 62.9458 146.597 63.2302 145.427 63.2302C144.782 63.2302 144.168 63.1354 143.588 62.9442C143.008 62.753 142.536 62.4895 142.173 62.1537L142.651 61.437C142.987 61.7375 143.397 61.9721 143.88 62.1408C144.362 62.3095 144.87 62.3931 145.402 62.3931C146.287 62.3931 146.937 62.1874 147.355 61.7761C147.771 61.3647 147.98 60.7236 147.98 59.856V58.9658C147.688 59.4093 147.305 59.7451 146.831 59.9749C146.358 60.2046 145.832 60.3203 145.257 60.3203C144.602 60.3203 144.006 60.1757 143.471 59.8881C142.934 59.6005 142.515 59.1972 142.208 58.6798C141.903 58.1608 141.75 57.5744 141.75 56.9188C141.75 56.2632 141.903 55.6784 142.208 55.1642C142.513 54.65 142.932 54.2516 143.463 53.9688C143.994 53.686 144.592 53.543 145.255 53.543C145.848 53.543 146.385 53.6619 146.864 53.9013C147.342 54.1407 147.726 54.4861 148.019 54.9376V53.596H148.922V53.5992ZM146.716 59.1602C147.124 58.9433 147.44 58.6396 147.665 58.2508C147.892 57.8604 148.004 57.4185 148.004 56.922C148.004 56.4255 147.892 55.9853 147.665 55.5996C147.439 55.214 147.125 54.9135 146.722 54.6966C146.319 54.4797 145.861 54.3705 145.347 54.3705C144.833 54.3705 144.388 54.4765 143.985 54.6902C143.581 54.9023 143.268 55.2044 143.042 55.5932C142.815 55.9837 142.703 56.4255 142.703 56.922C142.703 57.4185 142.815 57.8604 143.042 58.2508C143.268 58.6413 143.581 58.9433 143.985 59.1602C144.388 59.3772 144.841 59.4864 145.347 59.4864C145.853 59.4864 146.308 59.3788 146.716 59.1602Z" fill="white"/>
<path d="M168.014 51.2881L164.879 60.5881H163.843L161.12 52.6571L158.384 60.5881H157.361L154.227 51.2881H155.235L157.918 59.2866L160.694 51.2881H161.612L164.348 59.3268L167.071 51.2881H168.014Z" fill="white"/>
<path d="M170.115 60.1957C169.575 59.8904 169.149 59.4678 168.839 58.9263C168.529 58.3865 168.375 57.7743 168.375 57.093C168.375 56.4117 168.529 55.7996 168.839 55.2597C169.149 54.7198 169.575 54.2988 170.115 53.9984C170.655 53.6979 171.262 53.5469 171.935 53.5469C172.608 53.5469 173.214 53.6979 173.755 53.9984C174.295 54.2988 174.719 54.7198 175.024 55.2597C175.33 55.7996 175.482 56.4117 175.482 57.093C175.482 57.7743 175.33 58.3865 175.024 58.9263C174.719 59.4662 174.297 59.8904 173.755 60.1957C173.215 60.501 172.608 60.6536 171.935 60.6536C171.262 60.6536 170.655 60.501 170.115 60.1957ZM173.27 59.4791C173.664 59.2525 173.972 58.9328 174.194 58.515C174.416 58.0989 174.526 57.6249 174.526 57.093C174.526 56.5612 174.416 56.0872 174.194 55.671C173.972 55.2549 173.665 54.9335 173.27 54.7086C172.876 54.482 172.431 54.3695 171.935 54.3695C171.439 54.3695 170.994 54.482 170.6 54.7086C170.206 54.9351 169.896 55.2549 169.67 55.671C169.443 56.0872 169.331 56.5612 169.331 57.093C169.331 57.6249 169.443 58.0989 169.67 58.515C169.896 58.9312 170.205 59.2525 170.6 59.4791C170.994 59.7056 171.439 59.8181 171.935 59.8181C172.431 59.8181 172.876 59.7056 173.27 59.4791Z" fill="white"/>
<path d="M179.3 53.9052C179.739 53.6658 180.28 53.5469 180.928 53.5469V54.4643L180.701 54.4515C179.965 54.4515 179.39 54.678 178.974 55.1295C178.558 55.581 178.349 56.2141 178.349 57.0288V60.5894H177.406V53.6015H178.309V54.9705C178.531 54.5013 178.86 54.1462 179.299 53.9068L179.3 53.9052Z" fill="white"/>
<path d="M185.215 57.0804L183.568 58.5956V60.588H182.625V50.7305H183.568V57.413L187.739 53.6002H188.908L185.92 56.457L189.188 60.5896H188.033L185.216 57.082L185.215 57.0804Z" fill="white"/>
<path d="M194.289 51.2881H198.076C199.059 51.2881 199.926 51.4857 200.68 51.8794C201.432 52.273 202.016 52.8226 202.434 53.5263C202.85 54.2301 203.059 55.0335 203.059 55.9381C203.059 56.8427 202.85 57.6445 202.434 58.3498C202.018 59.0536 201.433 59.6031 200.68 59.9968C199.926 60.3904 199.059 60.5881 198.076 60.5881H194.289V51.2881ZM198.021 59.7381C198.836 59.7381 199.549 59.5774 200.159 59.2529C200.77 58.9299 201.244 58.4816 201.581 57.9112C201.917 57.3392 202.086 56.682 202.086 55.9381C202.086 55.1941 201.917 54.537 201.581 53.965C201.244 53.393 200.771 52.9463 200.159 52.6233C199.549 52.3004 198.836 52.1381 198.021 52.1381H195.271V59.7381H198.021Z" fill="white"/>
<path d="M210.933 53.5996L207.438 61.4246C207.156 62.0801 206.828 62.5445 206.455 62.8193C206.082 63.094 205.636 63.2306 205.114 63.2306C204.776 63.2306 204.463 63.1776 204.171 63.0715C203.878 62.9655 203.626 62.8064 203.414 62.5927L203.853 61.8889C204.206 62.2424 204.632 62.4208 205.128 62.4208C205.446 62.4208 205.719 62.3324 205.944 62.1557C206.171 61.9789 206.38 61.6768 206.576 61.2527L206.881 60.5746L203.759 53.5996H204.743L207.373 59.5382L210.002 53.5996H210.933Z" fill="white"/>
<path d="M217.916 54.3101C218.433 54.8194 218.693 55.5618 218.693 56.5355V60.5877H217.75V56.6287C217.75 55.9024 217.569 55.3481 217.206 54.9673C216.843 54.5865 216.324 54.3953 215.652 54.3953C214.899 54.3953 214.304 54.6186 213.866 55.0669C213.427 55.5136 213.209 56.1322 213.209 56.9211V60.5877H212.266V53.5999H213.168V54.8885C213.426 54.4627 213.782 54.1333 214.238 53.8988C214.695 53.6642 215.223 53.5469 215.826 53.5469C216.703 53.5469 217.4 53.8007 217.917 54.3101H217.916Z" fill="white"/>
<path d="M225.8 54.2314C226.287 54.6877 226.531 55.3625 226.531 56.2575V60.5894H225.628V59.5C225.416 59.8631 225.103 60.1459 224.691 60.3499C224.28 60.554 223.79 60.6552 223.223 60.6552C222.444 60.6552 221.824 60.4688 221.363 60.0977C220.902 59.7249 220.672 59.2332 220.672 58.6227C220.672 58.0121 220.887 57.551 221.316 57.1878C221.745 56.8247 222.429 56.6431 223.368 56.6431H225.586V56.2173C225.586 55.6148 225.418 55.1569 225.082 54.8419C224.744 54.527 224.253 54.3695 223.607 54.3695C223.164 54.3695 222.739 54.4435 222.331 54.5897C221.923 54.7359 221.575 54.9367 221.282 55.1938L220.857 54.49C221.21 54.1896 221.636 53.9566 222.132 53.7927C222.629 53.6288 223.151 53.5469 223.7 53.5469C224.613 53.5469 225.312 53.775 225.798 54.2314H225.8ZM224.738 59.5466C225.119 59.3023 225.401 58.9505 225.588 58.4909V57.3485H223.397C222.201 57.3485 221.604 57.7647 221.604 58.597C221.604 59.0051 221.758 59.3264 222.068 59.561C222.378 59.7956 222.812 59.9129 223.369 59.9129C223.927 59.9129 224.357 59.7908 224.738 59.5482V59.5466Z" fill="white"/>
<path d="M239.869 54.3037C240.369 54.8082 240.619 55.5521 240.619 56.5355V60.5877H239.676V56.6287C239.676 55.9024 239.501 55.3481 239.151 54.9673C238.801 54.5865 238.307 54.3953 237.67 54.3953C236.943 54.3953 236.372 54.6186 235.955 55.0669C235.539 55.5136 235.33 56.1322 235.33 56.9211V60.5877H234.387V56.6287C234.387 55.9024 234.212 55.3481 233.862 54.9673C233.512 54.5865 233.014 54.3953 232.368 54.3953C231.65 54.3953 231.081 54.6186 230.66 55.0669C230.239 55.5136 230.029 56.1322 230.029 56.9211V60.5877H229.086V53.5999H229.989V54.8757C230.236 54.4499 230.582 54.1237 231.025 53.8923C231.468 53.6626 231.976 53.5469 232.553 53.5469C233.13 53.5469 233.644 53.6706 234.074 53.9196C234.503 54.1671 234.824 54.535 235.038 55.0219C235.295 54.5608 235.665 54.2008 236.147 53.9389C236.629 53.677 237.181 53.5469 237.8 53.5469C238.677 53.5469 239.364 53.7991 239.866 54.3037H239.869Z" fill="white"/>
<path d="M243.176 51.8729C243.042 51.7395 242.977 51.5805 242.977 51.3941C242.977 51.2077 243.042 51.0615 243.176 50.9297C243.309 50.7963 243.473 50.7305 243.667 50.7305C243.862 50.7305 244.026 50.7947 244.159 50.9233C244.292 51.0518 244.358 51.2045 244.358 51.3812C244.358 51.5756 244.292 51.7395 244.159 51.8729C244.026 52.0062 243.862 52.0721 243.667 52.0721C243.473 52.0721 243.309 52.0062 243.176 51.8729ZM243.189 53.6002H244.132V60.588H243.189V53.6002Z" fill="white"/>
<path d="M247.801 60.2021C247.256 59.9017 246.829 59.4775 246.519 58.9328C246.209 58.3881 246.055 57.7743 246.055 57.093C246.055 56.4117 246.209 55.7996 246.519 55.2597C246.829 54.7198 247.256 54.2988 247.801 53.9984C248.346 53.6979 248.964 53.5469 249.655 53.5469C250.257 53.5469 250.796 53.6642 251.269 53.8988C251.743 54.1333 252.118 54.4772 252.392 54.9287L251.689 55.4075C251.459 55.0621 251.167 54.8034 250.812 54.6298C250.457 54.4563 250.073 54.3711 249.657 54.3711C249.152 54.3711 248.697 54.4836 248.294 54.7102C247.891 54.9367 247.578 55.2565 247.351 55.6726C247.125 56.0888 247.012 56.5628 247.012 57.0946C247.012 57.6265 247.125 58.1117 247.351 58.523C247.578 58.9344 247.891 59.2541 248.294 59.4791C248.697 59.7056 249.15 59.8181 249.657 59.8181C250.073 59.8181 250.458 59.7346 250.812 59.5658C251.165 59.3971 251.457 59.14 251.689 58.7946L252.392 59.2734C252.118 59.7249 251.742 60.0688 251.263 60.3034C250.784 60.5379 250.249 60.6552 249.657 60.6552C248.966 60.6552 248.349 60.5042 247.803 60.2037L247.801 60.2021Z" fill="white"/>
<path d="M254.482 60.4094C253.964 60.2455 253.558 60.0398 253.266 59.7924L253.691 59.0485C253.984 59.2782 254.352 59.4662 254.793 59.6124C255.237 59.7587 255.696 59.831 256.175 59.831C256.813 59.831 257.284 59.7313 257.59 59.5321C257.896 59.3329 258.048 59.0517 258.048 58.6885C258.048 58.4315 257.965 58.2306 257.796 58.0844C257.627 57.9382 257.415 57.8273 257.158 57.7518C256.901 57.6763 256.561 57.604 256.135 57.5317C255.568 57.4256 255.112 57.3164 254.766 57.2055C254.421 57.0946 254.127 56.9066 253.883 56.6415C253.638 56.3764 253.518 56.0084 253.518 55.5393C253.518 54.9544 253.762 54.4756 254.249 54.1044C254.736 53.7317 255.414 53.5469 256.281 53.5469C256.733 53.5469 257.184 53.6063 257.635 53.7268C258.087 53.8457 258.46 54.0032 258.752 54.1992L258.341 54.956C257.766 54.5575 257.078 54.3583 256.281 54.3583C255.679 54.3583 255.226 54.4643 254.919 54.6764C254.614 54.8885 254.461 55.1681 254.461 55.5136C254.461 55.7787 254.548 55.9924 254.72 56.1515C254.893 56.3105 255.107 56.4278 255.364 56.5033C255.621 56.5789 255.974 56.656 256.426 56.7363C256.983 56.8424 257.431 56.9484 257.767 57.0545C258.103 57.1605 258.392 57.3421 258.631 57.5992C258.871 57.8562 258.99 58.2097 258.99 58.6628C258.99 59.2734 258.736 59.7587 258.227 60.117C257.717 60.4753 257.01 60.6552 256.108 60.6552C255.54 60.6552 254.999 60.5733 254.48 60.4094H254.482Z" fill="white"/>
<circle cx="32" cy="36.1797" r="26" fill="white"/>
<mask id="path-24-inside-1_5062_23979" fill="white">
<path d="M59.8444 21.1655C62.3606 19.8944 65.4715 20.8974 66.3523 23.5752C68.3525 29.656 68.6075 36.2141 67.0327 42.4897C65.0414 50.4253 60.2576 57.3777 53.5576 62.0734C46.8576 66.7691 38.6901 68.8935 30.5513 68.0576C22.4124 67.2217 14.8473 63.4813 9.2417 57.5217C3.63611 51.5621 0.365422 43.7824 0.0288114 35.6077C-0.307799 27.433 2.31221 19.4106 7.40885 13.0104C12.5055 6.61012 19.7375 2.26044 27.7801 0.7582C34.1402 -0.42979 40.6705 0.225862 46.6175 2.59417C49.2364 3.63711 50.0473 6.80355 48.6246 9.23722C47.202 11.6709 44.0813 12.4303 41.4008 11.5578C37.6363 10.3325 33.5987 10.0563 29.6544 10.793C24.0247 11.8446 18.9622 14.8894 15.3946 19.3696C11.8269 23.8498 9.99294 29.4654 10.2286 35.1877C10.4642 40.91 12.7537 46.3558 16.6776 50.5275C20.6015 54.6992 25.8971 57.3175 31.5943 57.9026C37.2915 58.4878 43.0087 57.0007 47.6987 53.7137C52.3887 50.4267 55.7374 45.56 57.1313 40.0051C58.1079 36.1133 58.0792 32.0663 57.0864 28.2339C56.3795 25.505 57.3283 22.4367 59.8444 21.1655Z"/>
</mask>
<path d="M59.8444 21.1655C62.3606 19.8944 65.4715 20.8974 66.3523 23.5752C68.3525 29.656 68.6075 36.2141 67.0327 42.4897C65.0414 50.4253 60.2576 57.3777 53.5576 62.0734C46.8576 66.7691 38.6901 68.8935 30.5513 68.0576C22.4124 67.2217 14.8473 63.4813 9.2417 57.5217C3.63611 51.5621 0.365422 43.7824 0.0288114 35.6077C-0.307799 27.433 2.31221 19.4106 7.40885 13.0104C12.5055 6.61012 19.7375 2.26044 27.7801 0.7582C34.1402 -0.42979 40.6705 0.225862 46.6175 2.59417C49.2364 3.63711 50.0473 6.80355 48.6246 9.23722C47.202 11.6709 44.0813 12.4303 41.4008 11.5578C37.6363 10.3325 33.5987 10.0563 29.6544 10.793C24.0247 11.8446 18.9622 14.8894 15.3946 19.3696C11.8269 23.8498 9.99294 29.4654 10.2286 35.1877C10.4642 40.91 12.7537 46.3558 16.6776 50.5275C20.6015 54.6992 25.8971 57.3175 31.5943 57.9026C37.2915 58.4878 43.0087 57.0007 47.6987 53.7137C52.3887 50.4267 55.7374 45.56 57.1313 40.0051C58.1079 36.1133 58.0792 32.0663 57.0864 28.2339C56.3795 25.505 57.3283 22.4367 59.8444 21.1655Z" stroke="url(#paint0_linear_5062_23979)" stroke-width="12.1529" mask="url(#path-24-inside-1_5062_23979)"/>
<path d="M23.2969 23.7643L33.4045 33.8719C34.0373 34.5047 35.0633 34.5047 35.6961 33.8719L56.3121 13.2559" stroke="#014AB1" stroke-width="3.64586" stroke-linecap="round"/>
<circle cx="34.0238" cy="34.2074" r="8.1019" fill="#0F6EFF"/>
<path fill-rule="evenodd" clip-rule="evenodd" d="M18.348 51.3363C13.8657 55.8185 11.3477 61.8977 11.3477 68.2366L35.2483 68.2366L59.1489 68.2366C59.1489 61.8977 56.6308 55.8185 52.1486 51.3363C47.6663 46.854 41.5871 44.3359 35.2483 44.3359C28.9094 44.3359 22.8302 46.854 18.348 51.3363Z" fill="url(#paint1_linear_5062_23979)"/>
<path d="M12.1935 60.3088C13.2967 56.968 15.0989 53.9153 17.5195 51.3622L17.7429 51.5574L17.9414 51.7559C15.5692 54.2579 13.7286 57.1847 12.6474 60.4587L12.5983 60.6426L12.1935 60.3088Z" fill="white"/>
<path d="M51.6989 50.1639C54.255 52.5814 57.0563 56.5649 57.6187 58.7866L57.3094 59.0397C56.0516 55.8295 53.8391 52.9402 51.3341 50.571L51.6989 50.1639Z" fill="white"/>
<defs>
<linearGradient id="paint0_linear_5062_23979" x1="34.028" y1="0.179687" x2="34.028" y2="68.2357" gradientUnits="userSpaceOnUse">
<stop stop-color="#2656FE"/>
<stop offset="1" stop-color="#00ACE6"/>
</linearGradient>
<linearGradient id="paint1_linear_5062_23979" x1="35.2483" y1="92.1372" x2="35.2483" y2="44.3359" gradientUnits="userSpaceOnUse">
<stop stop-color="#2751FF"/>
<stop offset="1" stop-color="#1E92FD"/>
</linearGradient>
</defs>
</svg>
