<svg width="58" height="58" viewBox="0 0 58 58" fill="none" xmlns="http://www.w3.org/2000/svg">
<circle opacity="0.1" cx="29" cy="29.0361" r="28.8047" fill="#0254EF"/>
<circle opacity="0.09" cx="29.0074" cy="29.0357" r="24.484" fill="#0254EF"/>
<mask id="mask0_4246_5348" style="mask-type:alpha" maskUnits="userSpaceOnUse" x="13" y="13" width="32" height="32">
<rect x="13.0469" y="13.0752" width="31.9212" height="31.9212" fill="#D9D9D9"/>
</mask>
<g mask="url(#mask0_4246_5348)">
<path d="M38.9124 42.4138C36.4058 42.4138 33.8876 41.816 31.358 40.6202C28.8284 39.4245 26.5042 37.7377 24.3855 35.5597C22.2668 33.3817 20.6247 30.9972 19.4592 28.4064C18.2937 25.8155 17.7109 23.2343 17.7109 20.6627C17.7109 20.2496 17.8439 19.9053 18.11 19.6299C18.376 19.3545 18.7085 19.2168 19.1075 19.2168H23.4455C23.7814 19.2168 24.0777 19.3292 24.3343 19.554C24.5909 19.7788 24.7542 20.0565 24.8241 20.3872L25.5863 24.402C25.6392 24.7746 25.6281 25.0948 25.5531 25.3624C25.478 25.6301 25.3433 25.8549 25.1489 26.0368L22.077 29.1044C22.5715 30.0333 23.1364 30.912 23.7716 31.7403C24.4068 32.5687 25.0944 33.3598 25.8344 34.1138C26.5643 34.8626 27.3401 35.558 28.1621 36.2C28.984 36.842 29.8715 37.4395 30.8247 37.9923L33.8097 34.9037C34.0177 34.6815 34.2696 34.5258 34.5655 34.4366C34.8613 34.3474 35.1687 34.3255 35.4876 34.371L39.181 35.1425C39.5169 35.2335 39.791 35.4093 40.0033 35.6699C40.2156 35.9306 40.3218 36.2262 40.3218 36.5569V40.9811C40.3218 41.3904 40.1875 41.7316 39.9191 42.0045C39.6506 42.2774 39.3151 42.4138 38.9124 42.4138ZM21.1332 27.1678L23.5069 24.8376C23.5495 24.8026 23.5772 24.7545 23.59 24.6933C23.6028 24.632 23.6007 24.5752 23.5836 24.5227L23.0055 21.4735C22.9885 21.4035 22.9587 21.351 22.916 21.3161C22.8734 21.2811 22.818 21.2636 22.7498 21.2636H19.9055C19.8543 21.2636 19.8117 21.2811 19.7776 21.3161C19.7435 21.351 19.7264 21.3948 19.7264 21.4473C19.7946 22.3797 19.9434 23.327 20.1728 24.2892C20.4021 25.2514 20.7223 26.2109 21.1332 27.1678ZM32.7046 38.9605C33.5862 39.3821 34.5058 39.7045 35.4632 39.9275C36.4207 40.1506 37.3155 40.2831 38.1477 40.3251C38.1988 40.3251 38.2414 40.3076 38.2755 40.2726C38.3097 40.2376 38.3267 40.1938 38.3267 40.1414V37.2706C38.3267 37.2006 38.3097 37.1438 38.2755 37.1C38.2414 37.0563 38.1903 37.0257 38.1221 37.0082L35.329 36.4256C35.2778 36.4081 35.2331 36.406 35.1947 36.4191C35.1563 36.4322 35.1158 36.4606 35.0732 36.5044L32.7046 38.9605Z" fill="#0254EF"/>
</g>
</svg>
