<svg width="34" height="34" viewBox="0 0 34 34" fill="none" xmlns="http://www.w3.org/2000/svg">
<path d="M6.94922 1.53418H23.7132C24.7032 1.53418 25.4952 2.32618 25.4952 3.31618V19.4862" stroke="white" stroke-opacity="0.5" stroke-width="0.99" stroke-miterlimit="10" stroke-linecap="round" stroke-linejoin="round"/>
<path d="M1.53711 6.94629V30.4423C1.53711 31.4323 2.32911 32.2243 3.31911 32.2243H23.7131C23.9111 32.2243 24.1091 32.1583 24.3071 32.0923" stroke="white" stroke-opacity="0.5" stroke-width="0.99" stroke-miterlimit="10" stroke-linecap="round" stroke-linejoin="round"/>
<path d="M6.94911 1.53418L1.53711 6.94618H5.49711C6.28911 6.94618 6.94911 6.28618 6.94911 5.49418V1.53418Z" stroke="white" stroke-opacity="0.5" stroke-width="0.99" stroke-miterlimit="10" stroke-linecap="round" stroke-linejoin="round"/>
<path d="M5.03516 25.8223H9.06116V28.3303H5.03516V25.8223Z" stroke="white" stroke-opacity="0.5" stroke-width="0.99" stroke-miterlimit="10" stroke-linecap="round" stroke-linejoin="round"/>
<path d="M9.06055 25.8223H13.0865V28.3303H9.06055V25.8223Z" stroke="white" stroke-opacity="0.5" stroke-width="0.99" stroke-miterlimit="10" stroke-linecap="round" stroke-linejoin="round"/>
<path d="M19.6879 28.3303H13.0879V25.8223H19.1599C19.1599 26.7463 19.3579 27.5383 19.6879 28.3303Z" stroke="white" stroke-opacity="0.5" stroke-width="0.99" stroke-miterlimit="10" stroke-linecap="round" stroke-linejoin="round"/>
<path d="M5.03516 23.248H9.06116V25.756H5.03516V23.248Z" stroke="white" stroke-opacity="0.5" stroke-width="0.99" stroke-miterlimit="10" stroke-linecap="round" stroke-linejoin="round"/>
<path d="M9.06055 23.248H13.0865V25.756H9.06055V23.248Z" stroke="white" stroke-opacity="0.5" stroke-width="0.99" stroke-miterlimit="10" stroke-linecap="round" stroke-linejoin="round"/>
<path d="M19.6879 23.248C19.3579 24.04 19.1599 24.898 19.1599 25.756H13.0879V23.248H19.6879Z" stroke="white" stroke-opacity="0.5" stroke-width="0.99" stroke-miterlimit="10" stroke-linecap="round" stroke-linejoin="round"/>
<path d="M5.03516 20.7402H9.06116V23.2482H5.03516V20.7402Z" stroke="white" stroke-opacity="0.5" stroke-width="0.99" stroke-miterlimit="10" stroke-linecap="round" stroke-linejoin="round"/>
<path d="M9.06055 20.7402H13.0865V23.2482H9.06055V20.7402Z" stroke="white" stroke-opacity="0.5" stroke-width="0.99" stroke-miterlimit="10" stroke-linecap="round" stroke-linejoin="round"/>
<path d="M21.7343 20.7402C20.8763 21.4002 20.1503 22.2582 19.7543 23.2482H13.1543V20.7402H21.7343Z" stroke="white" stroke-opacity="0.5" stroke-width="0.99" stroke-miterlimit="10" stroke-linecap="round" stroke-linejoin="round"/>
<path d="M5.03516 18.166H9.06116V20.674H5.03516V18.166Z" stroke="white" stroke-opacity="0.5" stroke-width="0.99" stroke-miterlimit="10" stroke-linecap="round" stroke-linejoin="round"/>
<path d="M9.06055 18.166H13.0865V20.674H9.06055V18.166Z" stroke="white" stroke-opacity="0.5" stroke-width="0.99" stroke-miterlimit="10" stroke-linecap="round" stroke-linejoin="round"/>
<path d="M21.9979 18.2322V20.5422C21.8659 20.6082 21.7999 20.6742 21.6679 20.7402H13.0879V18.2322H21.9979Z" stroke="white" stroke-opacity="0.5" stroke-width="0.99" stroke-miterlimit="10" stroke-linecap="round" stroke-linejoin="round"/>
<path d="M5.03516 15.6582H9.06116V18.1662H5.03516V15.6582Z" stroke="white" stroke-opacity="0.5" stroke-width="0.99" stroke-miterlimit="10" stroke-linecap="round" stroke-linejoin="round"/>
<path d="M9.06055 15.6582H13.0865V18.1662H9.06055V15.6582Z" stroke="white" stroke-opacity="0.5" stroke-width="0.99" stroke-miterlimit="10" stroke-linecap="round" stroke-linejoin="round"/>
<path d="M13.0879 15.6582H21.9979V18.1662H13.0879V15.6582Z" stroke="white" stroke-opacity="0.5" stroke-width="0.99" stroke-miterlimit="10" stroke-linecap="round" stroke-linejoin="round"/>
<path d="M5.03516 13.1501H9.06116V15.6581H5.03516V13.1501Z" stroke="white" stroke-opacity="0.5" stroke-width="0.99" stroke-miterlimit="10" stroke-linecap="round" stroke-linejoin="round"/>
<path d="M9.06055 13.1501H13.0865V15.6581H9.06055V13.1501Z" stroke="white" stroke-opacity="0.5" stroke-width="0.99" stroke-miterlimit="10" stroke-linecap="round" stroke-linejoin="round"/>
<path d="M13.0879 13.1501H21.9979V15.6581H13.0879V13.1501Z" stroke="white" stroke-opacity="0.5" stroke-width="0.99" stroke-miterlimit="10" stroke-linecap="round" stroke-linejoin="round"/>
<path d="M5.03516 10.5762H9.06116V13.0842H5.03516V10.5762Z" stroke="white" stroke-opacity="0.5" stroke-width="0.99" stroke-miterlimit="10" stroke-linecap="round" stroke-linejoin="round"/>
<path d="M9.06055 10.5762H13.0865V13.0842H9.06055V10.5762Z" stroke="white" stroke-opacity="0.5" stroke-width="0.99" stroke-miterlimit="10" stroke-linecap="round" stroke-linejoin="round"/>
<path d="M13.0879 10.5762H21.9979V13.0842H13.0879V10.5762Z" stroke="white" stroke-opacity="0.5" stroke-width="0.99" stroke-miterlimit="10" stroke-linecap="round" stroke-linejoin="round"/>
<path d="M25.5606 32.1581C29.0599 32.1581 31.8966 29.3214 31.8966 25.8221C31.8966 22.3228 29.0599 19.4861 25.5606 19.4861C22.0613 19.4861 19.2246 22.3228 19.2246 25.8221C19.2246 29.3214 22.0613 32.1581 25.5606 32.1581Z" stroke="white" stroke-opacity="0.5" stroke-width="0.99" stroke-miterlimit="10" stroke-linecap="round" stroke-linejoin="round"/>
<path d="M26.6835 25.8221H24.4395C23.5815 25.8221 22.8555 25.0961 22.8555 24.2381C22.8555 23.3801 23.5815 22.6541 24.4395 22.6541H26.6835C27.5415 22.6541 28.2675 23.3801 28.2675 24.2381" stroke="white" stroke-opacity="0.5" stroke-width="0.99" stroke-miterlimit="10" stroke-linecap="round" stroke-linejoin="round"/>
<path d="M24.4395 25.8223H26.6835C27.5415 25.8223 28.2675 26.5483 28.2675 27.4063C28.2675 28.2643 27.5415 28.9903 26.6835 28.9903H24.4395C23.5815 28.9903 22.8555 28.2643 22.8555 27.4063" stroke="white" stroke-opacity="0.5" stroke-width="0.99" stroke-miterlimit="10" stroke-linecap="round" stroke-linejoin="round"/>
<path d="M25.5605 22.6541V21.7961" stroke="white" stroke-opacity="0.5" stroke-width="0.99" stroke-miterlimit="10" stroke-linecap="round" stroke-linejoin="round"/>
<path d="M25.5605 29.8482V28.9902" stroke="white" stroke-opacity="0.5" stroke-width="0.99" stroke-miterlimit="10" stroke-linecap="round" stroke-linejoin="round"/>
<path d="M29.8516 25.5581V26.1521" stroke="white" stroke-opacity="0.5" stroke-width="0.99" stroke-miterlimit="10" stroke-linecap="round" stroke-linejoin="round"/>
<path d="M21.2695 25.5581V26.1521" stroke="white" stroke-opacity="0.5" stroke-width="0.99" stroke-miterlimit="10" stroke-linecap="round" stroke-linejoin="round"/>
</svg>
