<svg width="34" height="34" viewBox="0 0 34 34" fill="none" xmlns="http://www.w3.org/2000/svg">
<g clip-path="url(#clip0_41_574)">
<path d="M29.916 16.8354V29.7384C29.916 31.416 28.5591 32.773 26.8815 32.773H6.5463C4.87484 32.773 3.51172 31.4161 3.51172 29.7384V16.8354C3.51172 15.1579 4.87484 13.7947 6.5463 13.7947H26.8814C28.559 13.7947 29.916 15.1579 29.916 16.8354Z" fill="#EFEFEF" fill-opacity="0.3"/>
<path d="M6.54583 33.161H6.54609H26.8812C28.8395 33.161 30.3039 31.5615 30.3039 29.7383V16.8353C30.3039 15.2257 29.1509 13.7193 27.4111 13.451V4.7527C27.4111 4.67632 27.3703 4.55115 27.2974 4.47826L23.2267 0.407461C23.1569 0.337594 23.0402 0.293701 22.9522 0.293701H7.33106C6.60596 0.293701 6.01583 0.883576 6.01583 1.60893V13.4514C4.25845 13.7251 3.12305 15.2412 3.12305 16.8353V29.7383C3.12311 31.6113 4.63802 33.161 6.54583 33.161ZM6.54609 32.3847C6.02892 32.3847 5.44845 32.2139 4.95616 31.8403L12.9728 23.8297L15.5803 26.4371C16.2036 27.0604 17.2172 27.0608 17.8405 26.4371L20.4549 23.8243L28.4712 31.8403C27.9704 32.2197 27.4203 32.3847 26.8812 32.3847H6.54609ZM6.54609 14.1829H26.8812C27.4094 14.1829 27.9659 14.3471 28.4634 14.7223L20.1837 22.9976C20.1825 22.9987 20.1809 22.9991 20.1797 23.0002L17.2915 25.8881C16.9809 26.1984 16.4393 26.1979 16.1292 25.8881L4.96363 14.7223C5.45986 14.3485 6.03207 14.1829 6.54609 14.1829ZM29.5275 29.7383C29.5275 30.3185 29.3343 30.8511 29.0164 31.2878L21.0039 23.2754L29.0098 15.2742C29.3314 15.7134 29.5276 16.25 29.5276 16.8353V29.7383H29.5275ZM26.0858 4.3645H23.8792C23.582 4.3645 23.3404 4.12286 23.3404 3.82567V1.61905L26.0858 4.3645ZM6.79223 1.60893C6.79223 1.31174 7.03387 1.0701 7.33106 1.0701H22.564V3.82567C22.564 4.55077 23.1541 5.1409 23.8792 5.1409H26.6348V13.4065H6.79223V1.60893ZM3.89951 16.8353C3.89951 16.25 4.09571 15.7133 4.41733 15.2742L12.4236 23.2805L4.41056 31.2877C4.09268 30.8511 3.89945 30.3184 3.89945 29.7383L3.89951 16.8353Z" fill="white" fill-opacity="0.5"/>
<path d="M15.9891 4.09157C15.9891 3.87726 15.8152 3.70337 15.6009 3.70337H10.0698C9.85554 3.70337 9.68164 3.87726 9.68164 4.09157C9.68164 4.30588 9.85554 4.47977 10.0698 4.47977H15.6009C15.8152 4.47977 15.9891 4.30588 15.9891 4.09157Z" fill="white" fill-opacity="0.5"/>
<path d="M19.0836 6.76295L15.0965 10.7869L14.1003 9.51194C13.9678 9.34313 13.7239 9.31278 13.5554 9.44523C13.3866 9.57716 13.3565 9.82105 13.4887 9.99011L14.7561 11.6124C14.8247 11.7001 14.9277 11.7542 15.0392 11.7608C15.0468 11.7613 15.0544 11.7615 15.062 11.7615C15.1654 11.7615 15.2647 11.7204 15.3377 11.6466L19.6352 7.30944C19.7861 7.15727 19.785 6.91138 19.6327 6.7605C19.4806 6.60955 19.2345 6.61051 19.0836 6.76295Z" fill="white" fill-opacity="0.5"/>
</g>
<defs>
<clipPath id="clip0_41_574">
<rect width="33" height="33" fill="white" transform="translate(0.214844 0.227539)"/>
</clipPath>
</defs>
</svg>
