<svg width="34" height="34" viewBox="0 0 34 34" fill="none" xmlns="http://www.w3.org/2000/svg">
<path d="M25.8226 6.60345H22.0842V6.54641C22.0842 5.54752 21.2714 4.73464 20.2719 4.73464H19.2625C19.1161 3.5177 18.1592 2.52512 16.9636 2.4111C15.5401 2.27678 14.2846 3.31576 14.1546 4.73464H13.1534C12.1542 4.73464 11.3414 5.54745 11.3414 6.54641V6.60345H7.60658C6.57643 6.60345 5.73828 7.44134 5.73828 8.47176V30.4244C5.73828 31.4548 6.57643 32.2927 7.60658 32.2927H25.8226C26.8531 32.2927 27.691 31.4548 27.691 30.4244V22.1383C27.691 21.8801 27.4821 21.6712 27.2239 21.6712C26.9657 21.6712 26.7568 21.8801 26.7568 22.1383V30.4244C26.7568 30.9394 26.3376 31.3586 25.8226 31.3586H7.60658C7.09141 31.3586 6.6724 30.9394 6.6724 30.4244V8.47176C6.6724 7.95678 7.09135 7.53757 7.60658 7.53757H11.3414V8.93833C11.3414 9.19653 11.5505 9.40542 11.8085 9.40542H21.6171C21.8753 9.40542 22.0842 9.19653 22.0842 8.93833V7.53764H25.8227C26.3377 7.53764 26.7569 7.95684 26.7569 8.47182V20.2701C26.7569 20.5283 26.9658 20.7372 27.224 20.7372C27.4822 20.7372 27.6911 20.5283 27.6911 20.2701V8.47176C27.6909 7.44134 26.853 6.60345 25.8226 6.60345ZM21.15 8.47131H12.2755C12.2755 8.37856 12.2755 6.43542 12.2755 6.54641C12.2755 6.06243 12.6694 5.66882 13.1534 5.66882H14.6109C15.1815 5.66882 15.064 5.01501 15.078 4.96821C15.078 4.03822 15.8702 3.24635 16.8751 3.34071C17.7007 3.4196 18.3475 4.17454 18.3475 5.05851C18.3635 5.10524 18.2711 5.66882 18.8146 5.66882H20.2719C20.7559 5.66882 21.15 6.06243 21.15 6.54641V8.47131Z" fill="white"/>
<path d="M22.3172 16.1782C22.3172 13.0874 19.8031 10.5732 16.7123 10.5732C13.6218 10.5732 11.1074 13.0874 11.1074 16.1782C11.1074 19.2689 13.6219 21.7831 16.7123 21.7831C19.8031 21.7831 22.3172 19.2689 22.3172 16.1782ZM12.0415 16.1782C12.0415 13.6029 14.1368 11.5074 16.7123 11.5074C19.2876 11.5074 21.3831 13.6028 21.3831 16.1782C21.3831 18.7535 19.2877 20.8489 16.7123 20.8489C14.1368 20.8489 12.0415 18.7535 12.0415 16.1782Z" fill="white"/>
<path d="M19.5773 19.2604V17.8304C19.5773 16.5289 18.1979 15.836 17.6128 16.0926C17.0586 16.3339 16.4607 16.3311 15.7869 16.0821C15.1582 15.8505 13.8477 16.5597 13.8477 17.8304V19.2604C13.8477 19.5186 14.0568 19.7275 14.3147 19.7275H19.1103C19.3685 19.7275 19.5773 19.5186 19.5773 19.2604ZM18.6432 18.7933H14.7818V17.8304C14.7818 17.3898 15.1214 17.0272 15.5526 16.9907C16.3789 17.2762 17.1625 17.2766 17.8828 16.9916C18.3093 17.0335 18.6432 17.3939 18.6432 17.8304V18.7933Z" fill="white"/>
<path d="M16.714 15.6175C17.7271 15.6175 18.5513 14.7932 18.5513 13.7802C18.5513 12.7671 17.7271 11.9429 16.714 11.9429C15.7009 11.9429 14.877 12.7671 14.877 13.7802C14.877 14.7932 15.7009 15.6175 16.714 15.6175ZM16.714 12.877C17.2121 12.877 17.6171 13.282 17.6171 13.7801C17.6171 14.2782 17.2121 14.6832 16.714 14.6832C16.2159 14.6832 15.8109 14.2782 15.8109 13.7801C15.8108 13.2821 16.2159 12.877 16.714 12.877Z" fill="white"/>
<path d="M24.42 22.9507H8.53936C8.28142 22.9507 8.07227 23.1596 8.07227 23.4178C8.07227 23.676 8.28142 23.8849 8.53936 23.8849H24.42C24.6782 23.8849 24.8871 23.676 24.8871 23.4178C24.8871 23.1596 24.6782 22.9507 24.42 22.9507Z" fill="white"/>
<path d="M24.42 25.7532H8.53936C8.28142 25.7532 8.07227 25.9621 8.07227 26.2203C8.07227 26.4785 8.28142 26.6874 8.53936 26.6874H24.42C24.6782 26.6874 24.8871 26.4785 24.8871 26.2203C24.8871 25.9621 24.6782 25.7532 24.42 25.7532Z" fill="white"/>
<path d="M24.42 28.5557H8.53936C8.28142 28.5557 8.07227 28.7646 8.07227 29.0228C8.07227 29.281 8.28142 29.4898 8.53936 29.4898H24.42C24.6782 29.4898 24.8871 29.281 24.8871 29.0228C24.8871 28.7646 24.6782 28.5557 24.42 28.5557Z" fill="white"/>
</svg>
