<svg width="34" height="34" viewBox="0 0 34 34" fill="none" xmlns="http://www.w3.org/2000/svg">
<path d="M1.76172 32.1216H23.418C23.764 32.1216 24.1095 32.095 24.4514 32.0419C25.3643 32.1839 26.2967 32.1357 27.1901 31.9003C28.0836 31.6649 28.9186 31.2474 29.643 30.6739C30.3674 30.1004 30.9654 29.3833 31.3994 28.5678C31.8335 27.7522 32.0943 26.8557 32.1654 25.9345C32.2365 25.0134 32.1165 24.0875 31.8128 23.2149C31.5091 22.3424 31.0282 21.542 30.4005 20.8641C29.7728 20.1862 29.0117 19.6454 28.165 19.2756C27.3183 18.9059 26.4044 18.7151 25.4805 18.7153C25.3087 18.7153 25.1363 18.7227 24.9648 18.7358V1.69971C24.9648 1.56295 24.9105 1.4318 24.8138 1.33511C24.7171 1.23841 24.586 1.18408 24.4492 1.18408H1.76172C1.62497 1.18408 1.49382 1.23841 1.39712 1.33511C1.30042 1.4318 1.24609 1.56295 1.24609 1.69971V31.606C1.24609 31.7427 1.30042 31.8739 1.39712 31.9706C1.49382 32.0673 1.62497 32.1216 1.76172 32.1216ZM31.1523 25.4185C31.1511 26.5615 30.805 27.6776 30.1594 28.6208C29.5138 29.5641 28.5987 30.2907 27.5336 30.7056C28.3392 30.0797 28.9911 29.278 29.4395 28.3616C29.888 27.4453 30.1211 26.4386 30.1211 25.4185C30.1211 24.3983 29.888 23.3916 29.4395 22.4753C28.9911 21.559 28.3392 20.7572 27.5336 20.1313C28.5987 20.5463 29.5138 21.2728 30.1594 22.2161C30.805 23.1594 31.1511 24.2754 31.1523 25.4185ZM29.0898 25.4185C29.0898 26.5402 28.7572 27.6368 28.134 28.5696C27.5107 29.5023 26.6249 30.2293 25.5885 30.6586C24.5521 31.0879 23.4117 31.2002 22.3114 30.9813C21.2112 30.7625 20.2006 30.2223 19.4073 29.4291C18.6141 28.6359 18.0739 27.6252 17.8551 26.525C17.6362 25.4247 17.7485 24.2843 18.1778 23.2479C18.6071 22.2115 19.3341 21.3257 20.2668 20.7025C21.1996 20.0792 22.2962 19.7466 23.418 19.7466C24.9217 19.7483 26.3634 20.3464 27.4267 21.4097C28.49 22.473 29.0881 23.9147 29.0898 25.4185ZM8.46484 21.8091V18.7153H21.8711V18.8958C20.1794 19.3003 18.7101 20.3444 17.7719 21.8091H8.46484ZM2.27734 2.21533H23.9336V18.735C23.7634 18.7221 23.5915 18.7155 23.418 18.7153C23.2445 18.7151 23.0726 18.7217 22.9023 18.735V18.1997C22.9023 18.063 22.848 17.9318 22.7513 17.8351C22.6546 17.7384 22.5235 17.6841 22.3867 17.6841H3.82422C3.68747 17.6841 3.55632 17.7384 3.45962 17.8351C3.36292 17.9318 3.30859 18.063 3.30859 18.1997V22.3247C3.30859 22.4615 3.36292 22.5926 3.45962 22.6893C3.55632 22.786 3.68747 22.8403 3.82422 22.8403H17.2308C17.0912 23.1744 16.9791 23.5193 16.8956 23.8716H3.82422C3.68747 23.8716 3.55632 23.9259 3.45962 24.0226C3.36292 24.1193 3.30859 24.2505 3.30859 24.3872V28.5122C3.30859 28.649 3.36292 28.7801 3.45962 28.8768C3.55632 28.9735 3.68747 29.0278 3.82422 29.0278H17.7719C18.3054 29.8589 19.0147 30.563 19.8498 31.0903H2.27734V2.21533ZM7.43359 18.7153V21.8091H4.33984V18.7153H7.43359ZM17.2308 27.9966H8.46484V24.9028H16.7345C16.7216 25.0731 16.7151 25.2449 16.7148 25.4185C16.714 26.3036 16.8894 27.18 17.2308 27.9966ZM7.43359 24.9028V27.9966H4.33984V24.9028H7.43359Z" fill="white" fill-opacity="0.5"/>
<path d="M3.30859 12.0122V16.1372C3.30859 16.274 3.36292 16.4051 3.45962 16.5018C3.55632 16.5985 3.68747 16.6528 3.82422 16.6528H22.3867C22.5235 16.6528 22.6546 16.5985 22.7513 16.5018C22.848 16.4051 22.9023 16.274 22.9023 16.1372V12.0122C22.9023 11.8755 22.848 11.7443 22.7513 11.6476C22.6546 11.5509 22.5235 11.4966 22.3867 11.4966H3.82422C3.68747 11.4966 3.55632 11.5509 3.45962 11.6476C3.36292 11.7443 3.30859 11.8755 3.30859 12.0122ZM8.46484 12.5278H21.8711V15.6216H8.46484V12.5278ZM4.33984 12.5278H7.43359V15.6216H4.33984V12.5278Z" fill="white" fill-opacity="0.5"/>
<path d="M6.1381 10.3926C6.21885 10.4408 6.31122 10.4659 6.40523 10.4653C6.49923 10.4648 6.59129 10.4385 6.67145 10.3894C6.78702 10.3188 9.49611 8.6214 9.49611 5.30909C9.49611 5.22005 9.47305 5.13252 9.42918 5.05504C9.38531 4.97755 9.32213 4.91275 9.24577 4.86694L6.66765 3.32006C6.58751 3.27198 6.49581 3.24658 6.40236 3.24658C6.30891 3.24658 6.21721 3.27198 6.13707 3.32006L3.55895 4.86694C3.483 4.91251 3.42006 4.97687 3.37622 5.05383C3.33237 5.13079 3.30909 5.21774 3.30861 5.30632C3.30784 5.44444 3.3226 8.71408 6.1381 10.3926ZM6.40236 4.36356L8.45648 5.59603C8.33724 7.6305 6.97283 8.88314 6.39063 9.32838C4.75932 8.18479 4.42552 6.29754 4.35733 5.59055L6.40236 4.36356Z" fill="white" fill-opacity="0.5"/>
<path d="M12.5898 6.85596H19.8086C19.9453 6.85596 20.0765 6.80163 20.1732 6.70493C20.2699 6.60824 20.3242 6.47708 20.3242 6.34033C20.3242 6.20358 20.2699 6.07243 20.1732 5.97573C20.0765 5.87903 19.9453 5.82471 19.8086 5.82471H12.5898C12.4531 5.82471 12.3219 5.87903 12.2252 5.97573C12.1285 6.07243 12.0742 6.20358 12.0742 6.34033C12.0742 6.47708 12.1285 6.60824 12.2252 6.70493C12.3219 6.80163 12.4531 6.85596 12.5898 6.85596Z" fill="white" fill-opacity="0.5"/>
<path d="M12.5898 8.91846H19.8086C19.9453 8.91846 20.0765 8.86413 20.1732 8.76743C20.2699 8.67074 20.3242 8.53958 20.3242 8.40283C20.3242 8.26608 20.2699 8.13493 20.1732 8.03823C20.0765 7.94153 19.9453 7.88721 19.8086 7.88721H12.5898C12.4531 7.88721 12.3219 7.94153 12.2252 8.03823C12.1285 8.13493 12.0742 8.26608 12.0742 8.40283C12.0742 8.53958 12.1285 8.67074 12.2252 8.76743C12.3219 8.86413 12.4531 8.91846 12.5898 8.91846Z" fill="white" fill-opacity="0.5"/>
<path d="M22.9023 22.3247V22.929C22.5585 23.0508 22.2687 23.2901 22.0842 23.6048C21.8997 23.9195 21.8323 24.2893 21.894 24.6488C21.9557 25.0083 22.1425 25.3345 22.4213 25.5697C22.7002 25.8049 23.0532 25.9339 23.418 25.9341C23.5547 25.9341 23.6859 25.9884 23.7826 26.0851C23.8793 26.1818 23.9336 26.313 23.9336 26.4497C23.9336 26.5865 23.8793 26.7176 23.7826 26.8143C23.6859 26.911 23.5547 26.9653 23.418 26.9653H22.3867C22.25 26.9653 22.1188 27.0197 22.0221 27.1164C21.9254 27.2131 21.8711 27.3442 21.8711 27.481C21.8711 27.6177 21.9254 27.7489 22.0221 27.8456C22.1188 27.9423 22.25 27.9966 22.3867 27.9966H22.9023V28.5122C22.9023 28.649 22.9567 28.7801 23.0534 28.8768C23.1501 28.9735 23.2812 29.0278 23.418 29.0278C23.5547 29.0278 23.6859 28.9735 23.7826 28.8768C23.8793 28.7801 23.9336 28.649 23.9336 28.5122V27.9079C24.2775 27.7862 24.5673 27.5468 24.7518 27.2321C24.9363 26.9174 25.0036 26.5476 24.9419 26.1881C24.8802 25.8286 24.6935 25.5024 24.4146 25.2672C24.1358 25.032 23.7828 24.903 23.418 24.9028C23.2812 24.9028 23.1501 24.8485 23.0534 24.7518C22.9567 24.6551 22.9023 24.524 22.9023 24.3872C22.9023 24.2505 22.9567 24.1193 23.0534 24.0226C23.1501 23.9259 23.2812 23.8716 23.418 23.8716H24.4492C24.586 23.8716 24.7171 23.8173 24.8138 23.7206C24.9105 23.6239 24.9648 23.4927 24.9648 23.356C24.9648 23.2192 24.9105 23.0881 24.8138 22.9914C24.7171 22.8947 24.586 22.8403 24.4492 22.8403H23.9336V22.3247C23.9336 22.188 23.8793 22.0568 23.7826 21.9601C23.6859 21.8634 23.5547 21.8091 23.418 21.8091C23.2812 21.8091 23.1501 21.8634 23.0534 21.9601C22.9567 22.0568 22.9023 22.188 22.9023 22.3247Z" fill="white" fill-opacity="0.5"/>
</svg>
