<svg width="4605" height="1210" viewBox="0 0 4605 1210" fill="none" xmlns="http://www.w3.org/2000/svg">
<path d="M1569.71 780.198C1528.12 780.198 1491.13 774.427 1458.8 762.857C1426.43 751.316 1395.53 732.233 1366.08 705.665C1359.74 701.037 1354.83 695.552 1351.34 689.182C1348.46 682.24 1347 675.326 1347 668.384C1347 657.414 1351.06 647.587 1359.14 638.903C1367.22 630.247 1377.33 625.904 1389.47 625.904C1398.73 625.904 1407.38 629.075 1415.47 635.446C1437.43 655.672 1460.25 670.984 1483.93 681.383C1508.21 691.781 1536.52 696.98 1568.85 696.98C1591.96 696.98 1613.04 693.209 1632.12 685.725C1651.77 678.211 1667.36 668.099 1678.9 655.386C1690.44 642.673 1696.24 627.933 1696.24 611.192C1696.24 590.395 1690.19 573.34 1678.05 560.056C1666.51 546.201 1649.46 534.917 1626.92 526.261C1604.95 517.005 1578.39 509.206 1547.2 502.864C1518.32 497.665 1492.3 490.437 1469.19 481.181C1446.66 471.925 1427.32 460.384 1411.12 446.5C1394.96 432.045 1382.53 415.019 1373.85 395.364C1365.19 375.71 1360.85 352.884 1360.85 326.888C1360.85 291.635 1370.11 261.297 1388.59 235.871C1407.07 210.446 1432.2 190.792 1463.99 176.937C1495.79 163.081 1531.6 156.139 1571.45 156.139C1607.84 156.139 1641.94 161.91 1673.71 173.48C1705.47 184.45 1731.2 199.476 1750.83 218.56C1764.68 230.701 1771.62 243.699 1771.62 257.554C1771.62 267.953 1767.28 277.78 1758.62 287.036C1750.54 295.692 1741 300.034 1730.03 300.034C1721.95 300.034 1715.01 297.72 1709.24 293.092C1699.98 283.265 1687.56 274.609 1671.96 267.096C1656.37 259.011 1639.6 252.355 1621.69 247.156C1604.35 241.956 1587.62 239.357 1571.42 239.357C1545.43 239.357 1523.18 243.099 1504.7 250.612C1486.22 257.554 1472.05 267.382 1462.22 280.094C1452.4 292.235 1447.49 306.662 1447.49 323.431C1447.49 343.086 1452.97 359.255 1463.94 371.967C1475.51 384.68 1491.39 395.078 1511.61 403.163C1531.83 410.676 1554.94 417.618 1580.93 423.96C1612.69 430.902 1641.03 438.701 1665.85 447.357C1691.27 456.013 1712.64 467.297 1729.97 481.153C1747.31 494.436 1760.59 511.206 1769.85 531.431C1779.1 551.657 1783.7 576.797 1783.7 606.85C1783.7 641.531 1773.88 671.87 1754.22 697.866C1734.57 723.862 1708.58 744.088 1676.22 758.544C1644.46 772.999 1608.92 780.226 1569.62 780.226L1569.71 780.198ZM1879.05 320.831H2082.7C2094.24 320.831 2103.78 324.888 2111.29 332.973C2119.38 340.486 2123.43 350.027 2123.43 361.569C2123.43 373.11 2119.38 381.795 2111.29 389.308C2103.78 396.821 2094.24 400.563 2082.7 400.563H1879.05C1867.51 400.563 1857.68 396.793 1849.6 389.308C1842.09 381.223 1838.34 371.682 1838.34 360.712C1838.34 349.17 1842.09 339.629 1849.6 332.116C1857.68 324.602 1867.51 320.86 1879.05 320.86V320.831ZM1970.05 208.161C1982.76 208.161 1993.16 212.503 2001.24 221.159C2009.32 229.244 2013.38 239.642 2013.38 252.355V654.5C2013.38 664.899 2015.12 673.269 2018.58 679.64C2022.03 686.01 2026.66 690.324 2032.43 692.638C2038.8 694.952 2045.14 696.095 2051.48 696.095C2057.82 696.095 2063.34 694.924 2067.96 692.638C2073.16 690.324 2079.22 689.182 2086.16 689.182C2093.1 689.182 2099.44 692.352 2105.24 698.723C2111.01 705.094 2113.89 713.75 2113.89 724.719C2113.89 738.575 2106.38 749.859 2091.36 758.515C2076.33 767.171 2060.16 771.513 2042.83 771.513C2033 771.513 2021.46 770.656 2008.15 768.913C1994.87 767.171 1981.87 762.857 1969.16 755.915C1957.02 748.973 1946.91 738.003 1938.83 722.977C1930.75 707.379 1926.69 685.696 1926.69 657.986V252.355C1926.69 239.642 1930.75 229.244 1938.83 221.159C1947.48 212.503 1957.91 208.161 1970.02 208.161H1970.05ZM2597.24 308.69C2609.95 308.69 2620.35 313.032 2628.43 321.688C2636.51 329.773 2640.57 340.172 2640.57 352.884V727.319C2640.57 740.032 2636.51 750.716 2628.43 759.401C2620.35 767.485 2609.95 771.542 2597.24 771.542C2584.53 771.542 2574.7 767.485 2566.05 759.401C2557.96 750.745 2553.91 740.032 2553.91 727.319V664.928L2572.1 667.527C2572.1 677.926 2567.76 689.496 2559.11 702.208C2551.02 714.921 2539.74 727.348 2525.32 739.489C2510.86 751.059 2493.84 760.857 2474.19 768.971C2454.54 776.484 2433.46 780.226 2410.92 780.226C2371.05 780.226 2335.23 770.113 2303.47 749.888C2271.68 729.09 2246.57 700.78 2228.06 664.956C2209.58 629.132 2200.32 588.395 2200.32 542.744C2200.32 497.093 2209.58 454.928 2228.06 419.675C2246.54 383.851 2271.39 355.827 2302.58 335.601C2334.34 315.375 2369.59 305.262 2408.29 305.262C2433.14 305.262 2455.96 309.319 2476.76 317.403C2498.12 325.488 2516.63 335.887 2532.23 348.599C2547.82 361.312 2559.68 374.881 2567.76 389.336C2576.42 403.192 2580.76 416.504 2580.76 429.217L2553.88 431.816V352.941C2553.88 340.8 2557.93 330.402 2566.02 321.746C2574.67 313.09 2585.1 308.747 2597.21 308.747L2597.24 308.69ZM2420.46 700.437C2447.62 700.437 2471.59 693.495 2492.38 679.64C2513.18 665.785 2529.37 646.987 2540.91 623.305C2552.45 599.022 2558.25 572.169 2558.25 542.687C2558.25 513.205 2552.48 485.78 2540.91 462.069C2529.37 438.387 2513.18 419.589 2492.38 405.734C2471.59 391.879 2447.6 384.937 2420.46 384.937C2393.33 384.937 2370.19 391.879 2349.4 405.734C2329.17 419.589 2313.01 438.387 2300.87 462.069C2289.33 485.752 2283.53 512.634 2283.53 542.687C2283.53 572.74 2289.3 599.022 2300.87 623.305C2313.01 646.987 2329.17 665.785 2349.4 679.64C2370.19 693.524 2393.87 700.437 2420.46 700.437ZM2978.61 131C2989.58 131 3000.86 132.457 3012.4 135.342C3023.94 138.228 3033.48 143.141 3040.99 150.083C3049.08 156.425 3053.13 165.395 3053.13 176.965C3053.13 188.535 3049.68 198.048 3042.74 205.561C3035.8 212.503 3027.71 215.96 3018.46 215.96C3012.69 215.96 3004.89 214.817 2995.07 212.503C2985.24 209.618 2975.41 208.161 2965.62 208.161C2952.34 208.161 2941.65 211.332 2933.54 217.703C2925.46 223.473 2919.69 230.986 2916.2 240.242C2912.75 248.898 2911 257.583 2911 266.239V727.319C2911 740.032 2906.66 750.716 2898.01 759.401C2889.92 767.485 2879.81 771.542 2867.67 771.542C2855.53 771.542 2844.57 767.485 2836.48 759.401C2828.4 750.745 2824.34 740.032 2824.34 727.319V267.096C2824.34 227.216 2837.34 194.591 2863.33 169.166C2889.9 143.741 2928.34 131.029 2978.58 131.029L2978.61 131ZM2995.95 323.402C3007.52 323.402 3017.03 327.173 3024.54 334.658C3032.05 342.171 3035.8 351.713 3035.8 363.254C3035.8 374.796 3032.03 384.337 3024.54 391.85C3017.03 399.364 3007.49 403.106 2995.95 403.106H2771.5C2760.53 403.106 2750.99 399.335 2742.91 391.85C2735.4 384.337 2731.66 374.796 2731.66 363.254C2731.66 351.713 2735.4 342.171 2742.91 334.658C2750.99 327.145 2760.53 323.402 2771.5 323.402H2995.95ZM3334.8 131C3345.76 131 3357.05 132.457 3368.59 135.342C3380.13 138.228 3389.67 143.141 3397.18 150.083C3405.26 156.425 3409.32 165.395 3409.32 176.965C3409.32 188.535 3405.86 198.048 3398.92 205.561C3391.98 212.503 3383.9 215.96 3374.64 215.96C3368.87 215.96 3361.07 214.817 3351.25 212.503C3341.42 209.618 3331.6 208.161 3321.8 208.161C3308.52 208.161 3297.83 211.332 3289.72 217.703C3281.64 223.473 3275.87 230.986 3272.38 240.242C3268.93 248.898 3267.19 257.583 3267.19 266.239V727.319C3267.19 740.032 3262.84 750.716 3254.19 759.401C3246.11 767.485 3236 771.542 3223.86 771.542C3211.72 771.542 3200.75 767.485 3192.67 759.401C3184.58 750.745 3180.53 740.032 3180.53 727.319V267.096C3180.53 227.216 3193.52 194.591 3219.51 169.166C3246.08 143.741 3284.5 131.029 3334.77 131.029L3334.8 131ZM3352.13 323.402C3363.67 323.402 3373.21 327.173 3380.73 334.658C3388.24 342.171 3391.98 351.713 3391.98 363.254C3391.98 374.796 3388.21 384.337 3380.73 391.85C3373.21 399.364 3363.67 403.106 3352.13 403.106H3127.68C3116.72 403.106 3107.18 399.335 3099.09 391.85C3091.58 384.337 3087.84 374.796 3087.84 363.254C3087.84 351.713 3091.58 342.171 3099.09 334.658C3107.18 327.145 3116.72 323.402 3127.68 323.402H3352.13ZM3935.56 163.053C3947.7 163.053 3958.1 167.109 3966.76 175.194C3975.41 183.279 3979.72 193.106 3979.72 204.676C3979.72 211.018 3978.29 217.674 3975.41 224.616L3756.16 742.917C3751.5 752.744 3745.16 759.972 3737.08 764.571C3729.6 769.199 3721.77 771.513 3713.71 771.513C3705.6 770.942 3697.83 768.342 3690.29 763.714C3683.35 759.086 3677.87 752.459 3673.81 743.774L3454.59 224.616C3453.45 221.731 3452.56 218.845 3451.99 215.96C3451.42 212.503 3451.13 209.018 3451.13 205.561C3451.13 192.277 3456.05 181.879 3465.87 174.366C3475.7 166.852 3485.24 163.11 3494.46 163.11C3512.94 163.11 3526.54 172.651 3535.19 191.706L3733.62 662.328H3708.52L3895.69 190.82C3903.8 172.337 3917.08 163.081 3935.56 163.081V163.053ZM4153.79 727.291C4153.79 740.003 4149.73 750.687 4141.65 759.372C4133.54 767.457 4123.14 771.513 4110.43 771.513C4097.72 771.513 4087.89 767.457 4079.24 759.372C4071.15 750.716 4067.1 740.003 4067.1 727.291V356.369C4067.1 343.657 4071.15 333.258 4079.24 325.174C4087.89 316.518 4098.29 312.175 4110.43 312.175C4122.57 312.175 4133.54 316.518 4141.65 325.174C4149.73 333.258 4153.79 343.657 4153.79 356.369V727.319V727.291ZM4109.6 254.926C4092.83 254.926 4080.69 252.041 4073.21 246.27C4065.7 239.928 4061.93 229.501 4061.93 215.074V201.219C4061.93 186.764 4065.98 176.651 4074.07 170.88C4082.18 165.11 4094.29 162.224 4110.46 162.224C4127.82 162.224 4140.25 165.395 4147.73 171.766C4155.24 177.537 4159.01 187.364 4159.01 201.248V215.103C4159.01 230.129 4154.96 240.528 4146.87 246.299C4139.36 252.069 4126.94 254.955 4109.6 254.955V254.926ZM4564.12 691.753C4575.69 691.753 4585.2 695.523 4592.75 703.008C4600.83 710.521 4604.88 720.063 4604.88 731.604C4604.88 743.146 4600.83 752.116 4592.75 760.2C4585.23 767.714 4575.72 771.456 4564.12 771.456H4284.23C4272.07 771.456 4262.27 767.114 4254.76 758.458C4247.27 749.202 4243.82 740.26 4244.36 731.576C4244.96 724.634 4245.79 718.577 4246.99 713.378C4248.73 707.607 4252.47 701.237 4258.24 694.324L4489.63 387.508V397.907H4296.37C4284.81 397.907 4274.98 394.164 4266.9 386.651C4259.41 378.566 4255.64 369.025 4255.64 358.055C4255.64 346.514 4259.41 336.972 4266.9 329.459C4275.01 321.946 4284.81 318.203 4296.37 318.203H4563.27C4574.27 318.203 4583.46 322.545 4591 331.201C4599.09 339.286 4602.54 349.399 4601.4 361.54C4601.4 366.739 4600.54 371.939 4598.83 377.138C4597.66 381.766 4594.49 387.251 4589.29 393.593L4361.38 696.952L4357.93 691.753H4564.15H4564.12Z" fill="white"/>
<path d="M1486.81 1074.01L1449.02 1020.88C1444.76 1021.36 1440.36 1021.59 1435.79 1021.59H1391.41V1074.04H1373.93V908.693H1435.79C1456.9 908.693 1473.41 913.721 1485.38 923.806C1497.35 933.89 1503.32 947.745 1503.32 965.371C1503.32 978.284 1500.03 989.197 1493.52 998.081C1486.98 1006.99 1477.67 1013.39 1465.53 1017.34L1505.92 1074.01H1486.78H1486.81ZM1472.87 995.824C1481.52 988.568 1485.86 978.427 1485.86 965.343C1485.86 952.259 1481.52 941.689 1472.87 934.518C1464.21 927.348 1451.7 923.777 1435.31 923.777H1391.38V1006.68H1435.31C1451.67 1006.68 1464.19 1003.05 1472.87 995.824Z" fill="white" fill-opacity="0.7"/>
<path d="M1649.25 1017.08H1545.34C1546.28 1029.99 1551.25 1040.42 1560.22 1048.39C1569.19 1056.33 1580.53 1060.33 1594.24 1060.33C1601.95 1060.33 1609.03 1058.96 1615.49 1056.18C1621.94 1053.44 1627.54 1049.39 1632.25 1044.01L1641.71 1054.87C1636.2 1061.47 1629.31 1066.53 1621.03 1069.98C1612.77 1073.44 1603.66 1075.18 1593.75 1075.18C1580.98 1075.18 1569.7 1072.47 1559.85 1067.04C1549.99 1061.61 1542.34 1054.1 1536.82 1044.47C1531.31 1034.87 1528.57 1023.99 1528.57 1011.88C1528.57 999.764 1531.2 988.879 1536.48 979.281C1541.77 969.682 1548.99 962.197 1558.22 956.855C1567.42 951.513 1577.78 948.828 1589.27 948.828C1600.75 948.828 1611.06 951.513 1620.2 956.855C1629.34 962.197 1636.51 969.653 1641.68 979.166C1646.88 988.708 1649.48 999.592 1649.48 1011.88L1649.25 1017.08ZM1559.13 974.681C1551.02 982.309 1546.42 992.279 1545.31 1004.56H1633.4C1632.28 992.279 1627.68 982.309 1619.57 974.681C1611.46 967.054 1601.35 963.226 1589.21 963.226C1577.07 963.226 1567.22 967.054 1559.1 974.681H1559.13Z" fill="white" fill-opacity="0.7"/>
<path d="M1797.11 898.749V1074.01H1781.06V1049.44C1776 1057.78 1769.37 1064.18 1761.09 1068.58C1752.84 1072.98 1743.5 1075.18 1733.1 1075.18C1721.45 1075.18 1710.91 1072.5 1701.45 1067.15C1692 1061.81 1684.6 1054.33 1679.26 1044.7C1673.89 1035.1 1671.23 1024.16 1671.23 1011.88C1671.23 999.592 1673.92 988.651 1679.26 979.052C1684.6 969.453 1692 961.997 1701.45 956.741C1710.91 951.456 1721.45 948.827 1733.1 948.827C1743.18 948.827 1752.27 950.913 1760.38 955.084C1768.49 959.255 1775.14 965.368 1780.34 973.396V898.749H1797.11ZM1758.03 1054.3C1765.03 1050.27 1770.55 1044.59 1774.57 1037.16C1778.6 1029.76 1780.6 1021.33 1780.6 1011.88C1780.6 1002.42 1778.6 993.993 1774.57 986.594C1770.55 979.195 1765.03 973.481 1758.03 969.482C1751.04 965.454 1743.18 963.454 1734.53 963.454C1725.87 963.454 1717.79 965.454 1710.79 969.482C1703.79 973.51 1698.28 979.195 1694.25 986.594C1690.23 993.993 1688.23 1002.42 1688.23 1011.88C1688.23 1021.33 1690.23 1029.76 1694.25 1037.16C1698.28 1044.56 1703.76 1050.27 1710.79 1054.3C1717.79 1058.33 1725.7 1060.33 1734.53 1060.33C1743.35 1060.33 1751.01 1058.33 1758.03 1054.3Z" fill="white" fill-opacity="0.7"/>
<path d="M1952.04 1017.08H1848.12C1849.07 1029.99 1854.04 1040.42 1863.01 1048.39C1871.98 1056.33 1883.31 1060.33 1897.03 1060.33C1904.74 1060.33 1911.82 1058.96 1918.28 1056.18C1924.73 1053.44 1930.33 1049.39 1935.04 1044.01L1944.5 1054.87C1938.98 1061.47 1932.1 1066.53 1923.82 1069.98C1915.56 1073.44 1906.45 1075.18 1896.54 1075.18C1883.77 1075.18 1872.49 1072.47 1862.64 1067.04C1852.78 1061.61 1845.13 1054.1 1839.61 1044.47C1834.1 1034.87 1831.36 1023.99 1831.36 1011.88C1831.36 999.764 1833.99 988.879 1839.27 979.281C1844.55 969.682 1851.78 962.197 1861.01 956.855C1870.2 951.513 1880.57 948.828 1892.06 948.828C1903.54 948.828 1913.85 951.513 1922.99 956.855C1932.13 962.197 1939.3 969.653 1944.47 979.166C1949.67 988.708 1952.27 999.592 1952.27 1011.88L1952.04 1017.08ZM1861.92 974.681C1853.81 982.309 1849.21 992.279 1848.1 1004.56H1936.19C1935.07 992.279 1930.47 982.309 1922.36 974.681C1914.25 967.054 1904.14 963.226 1892 963.226C1879.86 963.226 1870 967.054 1861.89 974.681H1861.92Z" fill="white" fill-opacity="0.7"/>
<path d="M2011.22 917.633C2007.51 921.575 2005.68 927.403 2005.68 935.116V949.771H2043.95V963.941H2006.16V1074.01H1989.4V963.941H1967.2V949.771H1989.4V934.43C1989.4 923.089 1992.65 914.119 1999.19 907.491C2005.73 900.863 2014.99 897.578 2026.96 897.578C2031.67 897.578 2036.24 898.264 2040.67 899.578C2045.07 900.921 2048.78 902.835 2051.78 905.377L2046.12 917.89C2041.24 913.805 2035.1 911.748 2027.7 911.748C2020.3 911.748 2014.99 913.719 2011.28 917.661L2011.22 917.633ZM2085.25 919.061C2082.88 916.69 2081.71 913.862 2081.71 910.548C2081.71 907.234 2082.88 904.634 2085.25 902.292C2087.63 899.921 2090.54 898.749 2094 898.749C2097.45 898.749 2100.36 899.892 2102.74 902.178C2105.11 904.463 2106.28 907.177 2106.28 910.319C2106.28 913.776 2105.11 916.69 2102.74 919.061C2100.36 921.432 2097.45 922.603 2094 922.603C2090.54 922.603 2087.63 921.432 2085.25 919.061ZM2085.48 949.771H2102.25V1074.01H2085.48V949.771Z" fill="white" fill-opacity="0.7"/>
<path d="M2249.5 962.397C2258.69 971.453 2263.32 984.651 2263.32 1001.96V1074.01H2246.55V1003.62C2246.55 990.708 2243.33 980.852 2236.87 974.081C2230.42 967.311 2221.19 963.911 2209.25 963.911C2195.85 963.911 2185.29 967.882 2177.49 975.853C2169.69 983.794 2165.81 994.793 2165.81 1008.82V1074.01H2149.04V949.77H2165.09V972.682C2169.66 965.111 2176 959.255 2184.11 955.084C2192.23 950.913 2201.62 948.828 2212.34 948.828C2227.93 948.828 2240.33 953.341 2249.52 962.397H2249.5Z" fill="white" fill-opacity="0.7"/>
<path d="M2308.68 919.06C2306.31 916.689 2305.14 913.861 2305.14 910.547C2305.14 907.233 2306.31 904.634 2308.68 902.291C2311.05 899.92 2313.96 898.749 2317.42 898.749C2320.87 898.749 2323.79 899.891 2326.16 902.177C2328.53 904.462 2329.7 907.176 2329.7 910.318C2329.7 913.775 2328.53 916.689 2326.16 919.06C2323.79 921.431 2320.87 922.602 2317.42 922.602C2313.96 922.602 2311.05 921.431 2308.68 919.06ZM2308.91 949.77H2325.67V1074.01H2308.91V949.77Z" fill="white" fill-opacity="0.7"/>
<path d="M2472.94 962.397C2482.13 971.453 2486.76 984.651 2486.76 1001.96V1074.01H2469.99V1003.62C2469.99 990.708 2466.77 980.852 2460.31 974.081C2453.85 967.311 2444.63 963.911 2432.69 963.911C2419.29 963.911 2408.73 967.882 2400.93 975.853C2393.13 983.794 2389.25 994.793 2389.25 1008.82V1074.01H2372.48V949.77H2388.53V972.682C2393.1 965.111 2399.44 959.255 2407.55 955.084C2415.67 950.913 2425.06 948.828 2435.77 948.828C2451.37 948.828 2463.77 953.341 2472.96 962.397H2472.94Z" fill="white" fill-opacity="0.7"/>
<path d="M2647.8 949.766V1058.89C2647.8 1080.01 2642.63 1095.63 2632.32 1105.77C2622.01 1115.94 2606.47 1121 2585.68 1121C2574.2 1121 2563.28 1119.31 2552.97 1115.91C2542.66 1112.52 2534.26 1107.83 2527.81 1101.86L2536.32 1089.12C2542.29 1094.46 2549.57 1098.63 2558.17 1101.63C2566.74 1104.63 2575.77 1106.12 2585.22 1106.12C2600.96 1106.12 2612.53 1102.46 2619.95 1095.15C2627.35 1087.83 2631.06 1076.43 2631.06 1061.01V1045.18C2625.87 1053.07 2619.07 1059.04 2610.64 1063.12C2602.22 1067.21 2592.88 1069.26 2582.65 1069.26C2571 1069.26 2560.4 1066.69 2550.89 1061.58C2541.35 1056.47 2533.89 1049.3 2528.44 1040.1C2523.01 1030.87 2520.3 1020.44 2520.3 1008.79C2520.3 997.131 2523.01 986.732 2528.44 977.591C2533.86 968.449 2541.32 961.364 2550.75 956.336C2560.2 951.309 2570.83 948.766 2582.62 948.766C2593.16 948.766 2602.7 950.88 2611.21 955.137C2619.73 959.393 2626.55 965.535 2631.75 973.563V949.709H2647.8V949.766ZM2608.59 1048.64C2615.84 1044.78 2621.47 1039.38 2625.47 1032.47C2629.49 1025.53 2631.49 1017.67 2631.49 1008.84C2631.49 1000.02 2629.49 992.189 2625.47 985.333C2621.44 978.476 2615.87 973.134 2608.7 969.278C2601.53 965.421 2593.39 963.478 2584.25 963.478C2575.11 963.478 2567.2 965.364 2560.03 969.163C2552.86 972.934 2547.29 978.305 2543.26 985.218C2539.23 992.16 2537.23 1000.02 2537.23 1008.84C2537.23 1017.67 2539.23 1025.53 2543.26 1032.47C2547.29 1039.41 2552.86 1044.78 2560.03 1048.64C2567.2 1052.49 2575.25 1054.44 2584.25 1054.44C2593.25 1054.44 2601.33 1052.52 2608.59 1048.64Z" fill="white" fill-opacity="0.7"/>
<path d="M2987.23 908.663L2931.5 1074.01H2913.08L2864.67 933.002L2816.02 1074.01H2797.83L2742.1 908.663H2760.04L2807.74 1050.87L2857.1 908.663H2873.41L2922.05 1051.59L2970.46 908.663H2987.23Z" fill="white" fill-opacity="0.7"/>
<path d="M3024.56 1067.04C3014.96 1061.61 3007.39 1054.1 3001.88 1044.47C2996.37 1034.87 2993.63 1023.99 2993.63 1011.88C2993.63 999.764 2996.37 988.879 3001.88 979.281C3007.39 969.682 3014.96 962.197 3024.56 956.855C3034.16 951.513 3044.95 948.828 3056.92 948.828C3068.89 948.828 3079.66 951.513 3089.28 956.855C3098.88 962.197 3106.42 969.682 3111.85 979.281C3117.28 988.879 3119.99 999.764 3119.99 1011.88C3119.99 1023.99 3117.28 1034.87 3111.85 1044.47C3106.42 1054.07 3098.91 1061.61 3089.28 1067.04C3079.69 1072.47 3068.89 1075.18 3056.92 1075.18C3044.95 1075.18 3034.16 1072.47 3024.56 1067.04ZM3080.66 1054.3C3087.66 1050.27 3093.14 1044.59 3097.08 1037.16C3101.02 1029.76 3102.99 1021.33 3102.99 1011.88C3102.99 1002.42 3101.02 993.993 3097.08 986.594C3093.14 979.195 3087.68 973.481 3080.66 969.482C3073.66 965.454 3065.75 963.454 3056.92 963.454C3048.1 963.454 3040.18 965.454 3033.19 969.482C3026.19 973.51 3020.68 979.195 3016.65 986.594C3012.62 993.993 3010.62 1002.42 3010.62 1011.88C3010.62 1021.33 3012.62 1029.76 3016.65 1037.16C3020.68 1044.56 3026.16 1050.27 3033.19 1054.3C3040.18 1058.33 3048.1 1060.33 3056.92 1060.33C3065.75 1060.33 3073.66 1058.33 3080.66 1054.3Z" fill="white" fill-opacity="0.7"/>
<path d="M3187.86 955.198C3195.65 950.942 3205.28 948.828 3216.79 948.828V965.14L3212.76 964.911C3199.68 964.911 3189.46 968.939 3182.06 976.967C3174.66 984.994 3170.95 996.25 3170.95 1010.73V1074.04H3154.18V949.799H3170.23V974.139C3174.17 965.797 3180.03 959.483 3187.83 955.227L3187.86 955.198Z" fill="white" fill-opacity="0.7"/>
<path d="M3293.07 1011.65L3263.79 1038.59V1074.01H3247.03V898.749H3263.79V1017.56L3337.94 949.77H3358.74L3305.61 1000.56L3363.71 1074.04H3343.17L3293.1 1011.68L3293.07 1011.65Z" fill="white" fill-opacity="0.7"/>
<path d="M3454.42 908.663H3521.74C3539.22 908.663 3554.64 912.176 3568.04 919.175C3581.41 926.174 3591.8 935.945 3599.23 948.457C3606.63 960.97 3610.34 975.254 3610.34 991.337C3610.34 1007.42 3606.63 1021.68 3599.23 1034.22C3591.83 1046.73 3581.44 1056.5 3568.04 1063.5C3554.64 1070.5 3539.22 1074.01 3521.74 1074.01H3454.42V908.663ZM3520.77 1058.9C3535.25 1058.9 3547.93 1056.04 3558.78 1050.27C3569.64 1044.53 3578.06 1036.56 3584.06 1026.42C3590.03 1016.25 3593.03 1004.56 3593.03 991.337C3593.03 978.11 3590.03 966.426 3584.06 956.256C3578.06 946.086 3569.67 938.144 3558.78 932.402C3547.93 926.66 3535.25 923.775 3520.77 923.775H3471.87V1058.9H3520.77Z" fill="white" fill-opacity="0.7"/>
<path d="M3750.29 949.765L3688.17 1088.89C3683.14 1100.54 3677.31 1108.8 3670.69 1113.69C3664.06 1118.57 3656.12 1121 3646.84 1121C3640.84 1121 3635.27 1120.06 3630.07 1118.17C3624.87 1116.29 3620.39 1113.46 3616.62 1109.66L3624.41 1097.15C3630.7 1103.43 3638.27 1106.6 3647.09 1106.6C3652.75 1106.6 3657.61 1105.03 3661.6 1101.89C3665.63 1098.74 3669.34 1093.37 3672.83 1085.83L3678.26 1073.78L3622.76 949.765H3640.24L3687 1055.35L3733.75 949.765H3750.29Z" fill="white" fill-opacity="0.7"/>
<path d="M3874.42 962.397C3883.62 971.453 3888.25 984.651 3888.25 1001.96V1074.01H3871.48V1003.62C3871.48 990.708 3868.25 980.852 3861.8 974.081C3855.34 967.311 3846.11 963.911 3834.18 963.911C3820.78 963.911 3810.21 967.882 3802.41 975.853C3794.62 983.794 3790.73 994.793 3790.73 1008.82V1074.01H3773.96V949.77H3790.02V972.682C3794.59 965.111 3800.93 959.255 3809.04 955.084C3817.15 950.913 3826.55 948.828 3837.26 948.828C3852.86 948.828 3865.25 953.341 3874.45 962.397H3874.42Z" fill="white" fill-opacity="0.7"/>
<path d="M4014.63 960.997C4023.29 969.111 4027.63 981.109 4027.63 997.021V1074.04H4011.57V1054.67C4007.8 1061.13 4002.23 1066.15 3994.92 1069.78C3987.61 1073.41 3978.9 1075.21 3968.82 1075.21C3954.96 1075.21 3943.94 1071.9 3935.74 1065.3C3927.54 1058.67 3923.46 1049.93 3923.46 1039.07C3923.46 1028.22 3927.28 1020.02 3934.91 1013.56C3942.54 1007.11 3954.7 1003.88 3971.39 1003.88H4010.83V996.307C4010.83 985.594 4007.83 977.452 4001.86 971.853C3995.86 966.254 3987.12 963.454 3975.64 963.454C3967.76 963.454 3960.22 964.768 3952.96 967.368C3945.71 969.968 3939.51 973.539 3934.31 978.109L3926.74 965.597C3933.03 960.255 3940.59 956.112 3949.42 953.198C3958.25 950.285 3967.53 948.828 3977.3 948.828C3993.52 948.828 4005.95 952.884 4014.6 960.997H4014.63ZM3995.75 1055.5C4002.52 1051.16 4007.55 1044.9 4010.86 1036.73V1016.42H3971.9C3950.65 1016.42 3940.02 1023.82 3940.02 1038.62C3940.02 1045.87 3942.77 1051.59 3948.28 1055.76C3953.79 1059.93 3961.5 1062.01 3971.41 1062.01C3981.33 1062.01 3988.98 1059.84 3995.75 1055.53V1055.5Z" fill="white" fill-opacity="0.7"/>
<path d="M4264.81 962.283C4273.69 971.253 4278.15 984.48 4278.15 1001.96V1074.01H4261.38V1003.62C4261.38 990.708 4258.27 980.852 4252.04 974.081C4245.82 967.311 4237.05 963.911 4225.71 963.911C4212.8 963.911 4202.63 967.882 4195.23 975.853C4187.83 983.794 4184.12 994.793 4184.12 1008.82V1074.01H4167.35V1003.62C4167.35 990.708 4164.24 980.852 4158.01 974.081C4151.79 967.311 4142.93 963.911 4131.45 963.911C4118.68 963.911 4108.57 967.882 4101.09 975.853C4093.6 983.794 4089.86 994.793 4089.86 1008.82V1074.01H4073.09V949.77H4089.15V972.453C4093.54 964.883 4099.69 959.083 4107.57 954.97C4115.45 950.884 4124.48 948.828 4134.73 948.828C4144.99 948.828 4154.13 951.027 4161.78 955.455C4169.41 959.855 4175.12 966.397 4178.92 975.053C4183.49 966.854 4190.06 960.455 4198.63 955.798C4207.2 951.142 4217.02 948.828 4228.02 948.828C4243.62 948.828 4255.84 953.313 4264.75 962.283H4264.81Z" fill="white" fill-opacity="0.7"/>
<path d="M4323.53 919.06C4321.16 916.689 4319.99 913.861 4319.99 910.547C4319.99 907.233 4321.16 904.634 4323.53 902.291C4325.9 899.92 4328.82 898.749 4332.27 898.749C4335.73 898.749 4338.64 899.891 4341.01 902.177C4343.38 904.462 4344.56 907.176 4344.56 910.318C4344.56 913.775 4343.38 916.689 4341.01 919.06C4338.64 921.431 4335.73 922.602 4332.27 922.602C4328.82 922.602 4325.9 921.431 4323.53 919.06ZM4323.76 949.77H4340.53V1074.01H4323.76V949.77Z" fill="white" fill-opacity="0.7"/>
<path d="M4405.85 1067.15C4396.16 1061.81 4388.57 1054.27 4383.05 1044.59C4377.54 1034.9 4374.8 1023.99 4374.8 1011.88C4374.8 999.764 4377.54 988.879 4383.05 979.281C4388.57 969.682 4396.16 962.197 4405.85 956.855C4415.53 951.513 4426.53 948.828 4438.81 948.828C4449.52 948.828 4459.09 950.913 4467.51 955.084C4475.94 959.255 4482.6 965.368 4487.48 973.396L4474.97 981.909C4470.88 975.767 4465.69 971.168 4459.37 968.082C4453.06 964.997 4446.23 963.483 4438.84 963.483C4429.87 963.483 4421.78 965.483 4414.62 969.511C4407.45 973.539 4401.88 979.224 4397.85 986.623C4393.82 994.022 4391.82 1002.45 4391.82 1011.9C4391.82 1021.36 4393.82 1029.99 4397.85 1037.3C4401.88 1044.61 4407.45 1050.3 4414.62 1054.3C4421.78 1058.33 4429.84 1060.33 4438.84 1060.33C4446.23 1060.33 4453.09 1058.84 4459.37 1055.84C4465.66 1052.84 4470.86 1048.27 4474.97 1042.13L4487.48 1050.64C4482.6 1058.67 4475.91 1064.78 4467.4 1068.95C4458.89 1073.13 4449.38 1075.21 4438.84 1075.21C4426.55 1075.21 4415.59 1072.53 4405.87 1067.18L4405.85 1067.15Z" fill="white" fill-opacity="0.7"/>
<path d="M4524.61 1070.84C4515.41 1067.93 4508.19 1064.27 4502.99 1059.87L4510.56 1046.64C4515.76 1050.73 4522.3 1054.07 4530.15 1056.67C4538.04 1059.27 4546.2 1060.56 4554.72 1060.56C4566.06 1060.56 4574.42 1058.78 4579.88 1055.24C4585.31 1051.7 4588.02 1046.7 4588.02 1040.24C4588.02 1035.67 4586.54 1032.1 4583.54 1029.5C4580.54 1026.9 4576.77 1024.93 4572.2 1023.59C4567.63 1022.25 4561.57 1020.96 4554 1019.68C4543.92 1017.79 4535.81 1015.85 4529.67 1013.88C4523.53 1011.9 4518.3 1008.56 4513.96 1003.85C4509.62 999.135 4507.47 992.593 4507.47 984.251C4507.47 973.853 4511.81 965.34 4520.47 958.741C4529.12 952.113 4541.18 948.828 4556.6 948.828C4564.63 948.828 4572.65 949.885 4580.68 952.027C4588.71 954.141 4595.33 956.941 4600.53 960.426L4593.22 973.881C4582.99 966.797 4570.77 963.254 4556.6 963.254C4545.89 963.254 4537.84 965.14 4532.38 968.911C4526.95 972.682 4524.24 977.652 4524.24 983.794C4524.24 988.508 4525.78 992.308 4528.84 995.136C4531.92 997.964 4535.72 1000.05 4540.29 1001.39C4544.86 1002.73 4551.15 1004.11 4559.17 1005.53C4569.08 1007.42 4577.05 1009.31 4583.02 1011.19C4588.99 1013.08 4594.13 1016.3 4598.39 1020.88C4602.65 1025.45 4604.76 1031.73 4604.76 1039.79C4604.76 1050.64 4600.25 1059.27 4591.19 1065.64C4582.14 1072.01 4569.57 1075.21 4553.52 1075.21C4543.43 1075.21 4533.81 1073.75 4524.58 1070.84H4524.61Z" fill="white" fill-opacity="0.7"/>
<mask id="path-23-inside-1_851_52" fill="white">
<path d="M1064 373.118C1108.74 350.518 1164.05 368.35 1179.71 415.96C1215.27 524.073 1219.81 640.673 1191.81 752.249C1156.4 893.34 1071.35 1016.95 952.226 1100.44C833.104 1183.92 687.889 1221.7 543.185 1206.83C398.482 1191.97 263.977 1125.47 164.313 1019.51C64.6481 913.553 6.497 775.233 0.512251 629.891C-5.4725 484.549 41.1098 341.916 131.726 228.123C222.341 114.33 350.923 36.9947 493.915 10.2856C606.995 -10.8362 723.099 0.820956 828.835 42.9282C875.398 61.4712 889.814 117.769 864.521 161.038C839.227 204.308 783.743 217.81 736.085 202.297C669.154 180.512 597.367 175.601 527.241 188.7C427.146 207.396 337.139 261.531 273.708 341.186C210.277 420.841 177.669 520.684 181.859 622.424C186.048 724.163 226.754 820.987 296.519 895.158C366.284 969.329 460.437 1015.88 561.73 1026.28C663.023 1036.69 764.673 1010.25 848.058 951.807C931.444 893.366 990.982 806.838 1015.77 708.075C1033.13 638.881 1032.62 566.927 1014.97 498.79C1002.4 450.272 1019.27 395.717 1064 373.118Z"/>
</mask>
<path d="M1064 373.118C1108.74 350.518 1164.05 368.35 1179.71 415.96C1215.27 524.073 1219.81 640.673 1191.81 752.249C1156.4 893.34 1071.35 1016.95 952.226 1100.44C833.104 1183.92 687.889 1221.7 543.185 1206.83C398.482 1191.97 263.977 1125.47 164.313 1019.51C64.6481 913.553 6.497 775.233 0.512251 629.891C-5.4725 484.549 41.1098 341.916 131.726 228.123C222.341 114.33 350.923 36.9947 493.915 10.2856C606.995 -10.8362 723.099 0.820956 828.835 42.9282C875.398 61.4712 889.814 117.769 864.521 161.038C839.227 204.308 783.743 217.81 736.085 202.297C669.154 180.512 597.367 175.601 527.241 188.7C427.146 207.396 337.139 261.531 273.708 341.186C210.277 420.841 177.669 520.684 181.859 622.424C186.048 724.163 226.754 820.987 296.519 895.158C366.284 969.329 460.437 1015.88 561.73 1026.28C663.023 1036.69 764.673 1010.25 848.058 951.807C931.444 893.366 990.982 806.838 1015.77 708.075C1033.13 638.881 1032.62 566.927 1014.97 498.79C1002.4 450.272 1019.27 395.717 1064 373.118Z" stroke="url(#paint0_linear_851_52)" stroke-width="216.071" mask="url(#path-23-inside-1_851_52)"/>
<path d="M414.137 419.322L593.845 599.03C605.096 610.281 623.337 610.281 634.588 599.03L1001.13 232.488" stroke="#014AB1" stroke-width="64.8214" stroke-linecap="round"/>
<circle cx="605" cy="605" r="144.048" fill="#0F6EFF"/>
<path d="M217.25 1068.58C217.25 1068.58 225.42 1077.97 230.654 1083.98C253.205 1018.59 268.178 987.902 319.622 926.534L324.117 922.081L315.611 914.149C260.164 971.552 245.695 1006.21 217.25 1068.58Z" fill="white"/>
<path d="M1027.05 1038.5L1014 1053.88C962.921 1000.56 934.735 963.694 909 896.619L917.95 890C971.5 943 1000 981 1027.05 1038.5Z" fill="white"/>
<path fill-rule="evenodd" clip-rule="evenodd" d="M326.129 909.522C246.437 989.214 201.667 1097.3 201.667 1210L626.607 1210L1051.55 1210C1051.55 1097.3 1006.78 989.214 927.086 909.522C847.394 829.83 739.309 785.06 626.607 785.06C513.906 785.06 405.821 829.83 326.129 909.522Z" fill="url(#paint1_linear_851_52)"/>
<defs>
<linearGradient id="paint0_linear_851_52" x1="605" y1="0" x2="605" y2="1210" gradientUnits="userSpaceOnUse">
<stop stop-color="#2656FE"/>
<stop offset="1" stop-color="#00ACE6"/>
</linearGradient>
<linearGradient id="paint1_linear_851_52" x1="626.607" y1="1634.94" x2="626.607" y2="785.059" gradientUnits="userSpaceOnUse">
<stop stop-color="#2751FF"/>
<stop offset="1" stop-color="#1E92FD"/>
</linearGradient>
</defs>
</svg>
