<svg width="59" height="59" viewBox="0 0 59 59" fill="none" xmlns="http://www.w3.org/2000/svg">
<circle opacity="0.1" cx="29.6016" cy="29.7617" r="28.8047" fill="#0254EF"/>
<circle opacity="0.09" cx="29.609" cy="29.7613" r="24.484" fill="#0254EF"/>
<mask id="mask0_5233_3179" style="mask-type:alpha" maskUnits="userSpaceOnUse" x="13" y="13" width="33" height="33">
<rect x="13.6484" y="13.8008" width="31.9212" height="31.9212" fill="#D9D9D9"/>
</mask>
<g mask="url(#mask0_5233_3179)">
<path d="M39.514 43.1394C37.0073 43.1394 34.4892 42.5415 31.9596 41.3458C29.4299 40.1501 27.1058 38.4632 24.9871 36.2852C22.8684 34.1072 21.2263 31.7228 20.0608 29.132C18.8953 26.5411 18.3125 23.9599 18.3125 21.3883C18.3125 20.9752 18.4455 20.6309 18.7115 20.3555C18.9775 20.0801 19.31 19.9424 19.7091 19.9424H24.047C24.3829 19.9424 24.6792 20.0548 24.9359 20.2796C25.1925 20.5044 25.3558 20.7821 25.4257 21.1127L26.1879 25.1276C26.2407 25.5002 26.2297 25.8204 26.1546 26.088C26.0796 26.3557 25.9449 26.5805 25.7505 26.7624L22.6786 29.83C23.1731 30.7589 23.738 31.6375 24.3731 32.4659C25.0083 33.2942 25.696 34.0854 26.436 34.8394C27.1658 35.5882 27.9417 36.2836 28.7636 36.9256C29.5855 37.5676 30.4731 38.165 31.4263 38.7178L34.4112 35.6293C34.6193 35.4071 34.8712 35.2514 35.1671 35.1622C35.4629 35.073 35.7703 35.0511 36.0891 35.0966L39.7825 35.8681C40.1185 35.959 40.3926 36.1349 40.6049 36.3955C40.8172 36.6562 40.9233 36.9518 40.9233 37.2825V41.7066C40.9233 42.116 40.7891 42.4571 40.5206 42.73C40.2522 43.003 39.9166 43.1394 39.514 43.1394ZM21.7348 27.8934L24.1084 25.5632C24.1511 25.5282 24.1788 25.4801 24.1916 25.4189C24.2044 25.3576 24.2022 25.3008 24.1852 25.2483L23.6071 22.1991C23.5901 22.1291 23.5602 22.0766 23.5176 22.0417C23.475 22.0067 23.4195 21.9892 23.3513 21.9892H20.5071C20.4559 21.9892 20.4133 22.0067 20.3792 22.0417C20.3451 22.0766 20.328 22.1204 20.328 22.1729C20.3962 23.1053 20.545 24.0526 20.7743 25.0148C21.0037 25.9769 21.3238 26.9365 21.7348 27.8934ZM33.3062 39.6861C34.1878 40.1077 35.1073 40.4301 36.0648 40.6531C37.0223 40.8762 37.9171 41.0087 38.7492 41.0506C38.8004 41.0506 38.843 41.0332 38.8771 40.9982C38.9112 40.9632 38.9283 40.9194 38.9283 40.8669V37.9962C38.9283 37.9262 38.9112 37.8694 38.8771 37.8256C38.843 37.7819 38.7919 37.7513 38.7236 37.7338L35.9305 37.1512C35.8794 37.1337 35.8346 37.1315 35.7963 37.1447C35.7579 37.1578 35.7174 37.1862 35.6748 37.2299L33.3062 39.6861Z" fill="#0254EF"/>
</g>
</svg>
