<svg width="52" height="51" viewBox="0 0 52 51" fill="none" xmlns="http://www.w3.org/2000/svg">
<g clip-path="url(#clip0_5170_189)">
<path d="M51.1813 20.5736H47.6187C47.0655 18.2298 46.1362 16.0162 44.8306 13.9762L47.3532 11.5021C47.663 11.1983 47.663 10.6774 47.3532 10.3736L41.4008 4.53574C41.246 4.38383 41.0468 4.29702 40.8255 4.29702C40.6043 4.29702 40.4051 4.38383 40.2502 4.53574L37.7277 7.00979C35.6477 5.72936 33.3906 4.81787 31.0009 4.27532V0.802979C31.0009 0.368936 30.6247 0 30.1821 0H21.7736C21.3311 0 20.9549 0.368936 20.9549 0.802979V4.29702C18.5651 4.83957 16.3081 5.75106 14.2281 7.03149L11.7055 4.55745C11.5506 4.40553 11.3515 4.31872 11.1302 4.31872C10.9089 4.31872 10.7098 4.40553 10.5549 4.55745L4.60255 10.3953C4.29277 10.6991 4.29277 11.22 4.60255 11.5238L7.12511 13.9979C5.81957 16.0379 4.89021 18.2515 4.33702 20.5953H0.818723C0.37617 20.5953 0 20.9643 0 21.3983V29.6451C0 30.0791 0.37617 30.4481 0.818723 30.4481H4.38128C4.93447 32.7919 5.86383 35.0055 7.16936 37.0455L4.64681 39.5196C4.33702 39.8234 4.33702 40.3443 4.64681 40.6481L10.5991 46.486C10.754 46.6379 10.9532 46.7247 11.1745 46.7247C11.3957 46.7247 11.5949 46.6379 11.7498 46.486L14.2723 44.0119C16.3523 45.2923 18.6094 46.2038 20.9991 46.7464V50.2404C20.9991 50.6745 21.3753 51.0434 21.8179 51.0434H30.2264C30.6689 51.0434 31.0451 50.6745 31.0451 50.2404V46.7464C33.4349 46.2038 35.6919 45.2923 37.7719 44.0119L40.2945 46.486C40.6043 46.7898 41.1353 46.7898 41.4451 46.486L47.3974 40.6481C47.5523 40.4962 47.6409 40.3008 47.6409 40.0838C47.6409 39.8668 47.5523 39.6715 47.3974 39.5196L44.8749 37.0455C46.1804 35.0055 47.1098 32.7919 47.663 30.4481H51.2255C51.6681 30.4481 52.0443 30.0791 52.0443 29.6451V21.3983C52.0443 20.9643 51.6681 20.5953 51.2255 20.5953L51.1813 20.5736ZM50.3626 28.8204H46.9549C46.5566 28.8204 46.2247 29.0809 46.1583 29.4715C45.6272 32.054 44.6094 34.4847 43.1047 36.6766C42.8834 37.0021 42.9277 37.4145 43.2153 37.6966L45.6272 40.0621L40.8477 44.7498L38.4357 42.3843C38.1702 42.1238 37.7277 42.0804 37.3957 42.2757C35.1609 43.7515 32.6826 44.7498 30.0494 45.2706C29.6732 45.3357 29.3855 45.683 29.3855 46.0519V49.394H22.6145V46.0519C22.6145 45.6613 22.3489 45.3357 21.9506 45.2706C19.3174 44.7498 16.8391 43.7515 14.6043 42.2757C14.2723 42.0587 13.8519 42.1021 13.5643 42.3843L11.1523 44.7498L6.37277 40.0621L8.78468 37.6966C9.05021 37.4362 9.09447 37.0021 8.89532 36.6766C7.39064 34.4847 6.37277 32.054 5.8417 29.4715C5.77532 29.1026 5.42128 28.8204 5.04511 28.8204H1.63745V22.1796H5.04511C5.4434 22.1796 5.77532 21.9191 5.8417 21.5285C6.37277 18.946 7.39064 16.5153 8.89532 14.3234C9.1166 13.9979 9.07234 13.5855 8.78468 13.3034L6.37277 10.9379L11.1523 6.25021L13.5643 8.61574C13.8298 8.87617 14.2723 8.91957 14.6043 8.72426C16.8391 7.24851 19.3174 6.25021 21.9506 5.72936C22.3268 5.66426 22.6145 5.31702 22.6145 4.94808V1.60596H29.3855V4.94808C29.3855 5.33872 29.6511 5.66426 30.0494 5.72936C32.6826 6.25021 35.1609 7.24851 37.3957 8.72426C37.7277 8.94128 38.1481 8.89787 38.4357 8.61574L40.8477 6.25021L45.6272 10.9379L43.2153 13.3034C42.9498 13.5638 42.9055 13.9979 43.1047 14.3234C44.6094 16.5153 45.6272 18.946 46.1583 21.5285C46.2247 21.8974 46.5787 22.1796 46.9549 22.1796H50.3626V28.8204ZM26 10.8077C17.7464 10.8077 11.0196 17.4051 11.0196 25.5C11.0196 33.5949 17.7464 40.1923 26 40.1923C34.2536 40.1923 40.9804 33.5949 40.9804 25.5C40.9804 17.4051 34.2536 10.8077 26 10.8077ZM18.2996 36.1774C20.2468 34.0072 23.057 32.7268 26 32.7268C28.943 32.7268 31.7532 34.0072 33.7004 36.1774C31.5319 37.6966 28.8545 38.5864 26 38.5864C23.1455 38.5864 20.4681 37.6966 18.2996 36.1774ZM20.8443 25.5C20.8443 22.7004 23.1677 20.4434 26 20.4434C28.8323 20.4434 31.1557 22.7221 31.1557 25.5C31.1557 28.2779 28.8323 30.5566 26 30.5566C23.1677 30.5566 20.8443 28.2779 20.8443 25.5ZM34.9838 35.1791C33.3906 33.3779 31.2664 32.0974 28.9651 31.5115C31.2443 30.4264 32.8153 28.1477 32.8153 25.5C32.8153 21.8323 29.7617 18.8374 26.0221 18.8374C22.2826 18.8374 19.2289 21.8323 19.2289 25.5C19.2289 28.1477 20.8 30.4264 23.0791 31.5115C20.7557 32.0974 18.6536 33.3779 17.0604 35.1791C14.383 32.7919 12.7013 29.3413 12.7013 25.5C12.7013 18.2949 18.6757 12.4136 26.0443 12.4136C33.4128 12.4136 39.3872 18.2732 39.3872 25.5C39.3872 29.3196 37.7055 32.7702 35.0281 35.1791H34.9838Z" fill="#0F2450"/>
</g>
<defs>
<clipPath id="clip0_5170_189">
<rect width="52" height="51" fill="white"/>
</clipPath>
</defs>
</svg>
