<svg width="51" height="51" viewBox="0 0 51 51" fill="none" xmlns="http://www.w3.org/2000/svg">
<mask id="mask0_5173_1304" style="mask-type:luminance" maskUnits="userSpaceOnUse" x="-1" y="0" width="52" height="51">
<path d="M50.9473 50.9502V0.0498085H0.046875V50.9502H50.9473Z" fill="white" stroke="white" stroke-width="0.0996094"/>
</mask>
<g mask="url(#mask0_5173_1304)">
<path d="M9.14029 41.0391C7.07857 41.0391 5.40723 39.3678 5.40723 37.3061V36.2215C5.40723 34.1597 7.07857 32.4884 9.14029 32.4884C11.202 32.4884 12.8733 34.1597 12.8733 36.2215V37.3061C12.8733 39.3678 11.202 41.0391 9.14029 41.0391Z" fill="white" stroke="#0E1E45" stroke-width="1.99219" stroke-miterlimit="10" stroke-linecap="round" stroke-linejoin="round"/>
<path d="M12.1515 41.0378H6.13073C3.28738 41.0378 0.982422 43.3428 0.982422 46.1862V50.0039H17.2998V46.1862C17.2998 43.3428 14.9949 41.0378 12.1515 41.0378Z" fill="white" stroke="#0E1E45" stroke-width="1.99219" stroke-miterlimit="10" stroke-linecap="round" stroke-linejoin="round"/>
<path d="M25.4577 41.0391C23.396 41.0391 21.7246 39.3678 21.7246 37.3061V36.2215C21.7246 34.1597 23.396 32.4884 25.4577 32.4884C27.5194 32.4884 29.1907 34.1597 29.1907 36.2215V37.3061C29.1907 39.3678 27.5194 41.0391 25.4577 41.0391Z" fill="white" stroke="#0E1E45" stroke-width="1.99219" stroke-miterlimit="10" stroke-linecap="round" stroke-linejoin="round"/>
<path d="M29.9803 50.0039H33.6162V46.1862C33.6162 43.3428 31.3113 41.0378 28.4679 41.0378H22.4471C19.6038 41.0378 17.2988 43.3428 17.2988 46.1862V50.0039H21.0155" fill="white"/>
<path d="M29.9803 50.0039H33.6162V46.1862C33.6162 43.3428 31.3113 41.0378 28.4679 41.0378H22.4471C19.6038 41.0378 17.2988 43.3428 17.2988 46.1862V50.0039H21.0155" stroke="#0E1E45" stroke-width="1.99219" stroke-miterlimit="10" stroke-linecap="round" stroke-linejoin="round"/>
<path d="M41.7751 41.0391C39.7133 41.0391 38.042 39.3678 38.042 37.3061V36.2215C38.042 34.1597 39.7133 32.4884 41.7751 32.4884C43.8368 32.4884 45.5081 34.1597 45.5081 36.2215V37.3061C45.5081 39.3678 43.8368 41.0391 41.7751 41.0391Z" fill="white" stroke="#0E1E45" stroke-width="1.99219" stroke-miterlimit="10" stroke-linecap="round" stroke-linejoin="round"/>
<path d="M44.7853 41.0378H38.7645C35.9212 41.0378 33.6162 43.3428 33.6162 46.1862V50.0039H49.9336V46.1862C49.9336 43.3428 47.6287 41.0378 44.7853 41.0378Z" fill="white" stroke="#0E1E45" stroke-width="1.99219" stroke-miterlimit="10" stroke-linecap="round" stroke-linejoin="round"/>
<path d="M28.1337 11.2943C27.8624 10.1961 27.4289 9.16186 26.8594 8.21876L28.3798 6.69832L24.581 2.89962L23.0606 4.41996C22.1175 3.85049 21.0833 3.41699 19.9851 3.14555V0.995884H14.6129V3.14555C13.5146 3.41699 12.4803 3.85049 11.5373 4.41996L10.017 2.89962L6.21809 6.69832L7.73853 8.21876C7.16896 9.16186 6.73546 10.1961 6.46412 11.2943H4.31445V16.6666H6.46412C6.73546 17.7647 7.16896 18.7991 7.73853 19.7421L6.21809 21.2624L10.017 25.0612L11.5373 23.5408C12.4803 24.1104 13.5146 24.5439 14.6129 24.8152V26.9648H19.9851V24.8152C21.0833 24.5439 22.1175 24.1104 23.0606 23.5408L24.581 25.0612L28.3798 21.2624L26.8594 19.7421C27.4289 18.7991 27.8624 17.7647 28.1337 16.6666" fill="white"/>
<path d="M28.1337 11.2943C27.8624 10.1961 27.4289 9.16186 26.8594 8.21876L28.3798 6.69832L24.581 2.89962L23.0606 4.41996C22.1175 3.85049 21.0833 3.41699 19.9851 3.14555V0.995884H14.6129V3.14555C13.5146 3.41699 12.4803 3.85049 11.5373 4.41996L10.017 2.89962L6.21809 6.69832L7.73853 8.21876C7.16896 9.16186 6.73546 10.1961 6.46412 11.2943H4.31445V16.6666H6.46412C6.73546 17.7647 7.16896 18.7991 7.73853 19.7421L6.21809 21.2624L10.017 25.0612L11.5373 23.5408C12.4803 24.1104 13.5146 24.5439 14.6129 24.8152V26.9648H19.9851V24.8152C21.0833 24.5439 22.1175 24.1104 23.0606 23.5408L24.581 25.0612L28.3798 21.2624L26.8594 19.7421C27.4289 18.7991 27.8624 17.7647 28.1337 16.6666" stroke="#0E1E45" stroke-width="1.99219" stroke-miterlimit="10" stroke-linecap="round" stroke-linejoin="round"/>
<path d="M22.7024 12.0983C21.9241 9.86355 19.7987 8.26004 17.2987 8.26004C14.1393 8.26004 11.5781 10.8213 11.5781 13.9806C11.5781 17.14 14.1393 19.7012 17.2987 19.7012C19.7867 19.7012 21.9038 18.1128 22.6911 15.8948" fill="white"/>
<path d="M22.7024 12.0983C21.9241 9.86355 19.7987 8.26004 17.2987 8.26004C14.1393 8.26004 11.5781 10.8213 11.5781 13.9806C11.5781 17.14 14.1393 19.7012 17.2987 19.7012C19.7867 19.7012 21.9038 18.1128 22.6911 15.8948" stroke="#0E1E45" stroke-width="1.99219" stroke-miterlimit="10" stroke-linecap="round" stroke-linejoin="round"/>
<path d="M40.3125 11.3164C37.8671 11.3164 35.8848 9.33408 35.8848 6.88877V5.60222C35.8848 3.15681 37.8671 1.17448 40.3125 1.17448C42.7578 1.17448 44.7402 3.15681 44.7402 5.60222V6.88877C44.7402 9.33408 42.7578 11.3164 40.3125 11.3164Z" fill="white" stroke="#0E1E45" stroke-width="1.99219" stroke-miterlimit="10" stroke-linecap="round" stroke-linejoin="round"/>
<path d="M45.1963 23.0996V18.0972V23.0996Z" fill="white"/>
<path d="M45.1963 23.0996V18.0972" stroke="#0E1E45" stroke-width="1.99219" stroke-miterlimit="10" stroke-linecap="round" stroke-linejoin="round"/>
<path d="M43.8825 11.3179H37.1934H24.7008C23.2292 11.3179 22.0361 12.511 22.0361 13.9825C22.0361 15.4541 23.2292 16.6472 24.7008 16.6472H34.0626V23.1816H49.9889V17.4244C49.9889 14.0518 47.2549 11.3179 43.8825 11.3179Z" fill="white" stroke="#0E1E45" stroke-width="1.99219" stroke-miterlimit="10" stroke-linecap="round" stroke-linejoin="round"/>
</g>
</svg>
