<svg width="51" height="51" viewBox="0 0 51 51" fill="none" xmlns="http://www.w3.org/2000/svg">
<g clip-path="url(#clip0_5170_96)">
<path d="M25.4889 14.6328C19.4889 14.6328 14.6328 19.4889 14.6328 25.4889C14.6328 31.4889 19.4889 36.345 25.4889 36.345C31.4889 36.345 36.345 31.4889 36.345 25.4889C36.345 19.4889 31.4673 14.6328 25.4889 14.6328ZM25.4889 34.5537C22.9637 34.5537 20.5465 33.4961 18.8414 31.6184C18.9278 30.6688 19.5753 29.8702 20.4817 29.5681L24.0645 28.381C24.9925 28.0789 26.0069 28.0789 26.935 28.381L30.5177 29.5681C31.4242 29.8702 32.0501 30.6688 32.158 31.6184C30.453 33.4961 28.0357 34.5537 25.5105 34.5537H25.4889ZM25.4889 26.3307C23.8055 26.3307 22.4458 24.9709 22.4458 23.2875C22.4458 21.604 23.8055 20.2443 25.4889 20.2443C27.1724 20.2443 28.5321 21.604 28.5321 23.2875C28.5321 24.9709 27.1724 26.3307 25.4889 26.3307ZM33.453 29.8271C32.935 28.899 32.0932 28.1868 31.1004 27.8414L28.5753 26.9997C30.6472 25.2947 30.9494 22.2515 29.2443 20.1796C27.5393 18.1076 24.4961 17.8055 22.4242 19.5105C20.3522 21.2155 20.0501 24.2587 21.7551 26.3307C21.9494 26.5896 22.1868 26.8055 22.4458 27.0213L19.9206 27.863C18.9062 28.2084 18.0645 28.899 17.5681 29.8486C15.1724 25.4458 16.8127 19.9637 21.194 17.5681C25.5968 15.1724 31.0789 16.8127 33.4745 21.194C34.9422 23.8918 34.9422 27.1508 33.4745 29.8486L33.453 29.8271Z" fill="#0E1E45" stroke="white" stroke-width="0.13" stroke-miterlimit="10"/>
<path d="M40.8776 22.8772C41.6545 22.9636 44.5035 21.5391 45.2589 21.2801C46.6401 20.6758 47.2876 19.0787 46.6833 17.6974C46.4027 17.0499 45.9063 16.5535 45.2589 16.2729C44.5898 15.9924 43.856 15.9924 43.1869 16.2729L39.8416 17.6542C38.4603 18.237 37.8128 19.8557 38.4171 21.237C38.8488 22.2298 39.82 22.8772 40.8776 22.8772ZM40.5322 19.3161L43.8776 17.9348C44.3308 17.7406 44.8704 17.9564 45.0646 18.4312C45.2589 18.8844 45.043 19.424 44.5682 19.6183L41.2229 20.9995C40.7696 21.1938 40.2301 20.978 40.0358 20.5031C39.8416 20.0499 40.0574 19.5103 40.5322 19.3161Z" fill="#0E1E45" stroke="white" stroke-width="0.13" stroke-miterlimit="10"/>
<path d="M35.0939 15.8843C36.1515 16.9419 37.8781 16.9419 38.9357 15.8843L41.504 13.316C42.5616 12.2368 42.54 10.5318 41.4609 9.47424C40.4033 8.43827 38.7198 8.43827 37.6623 9.47424L35.0939 12.0426C34.0364 13.1001 34.0364 14.8268 35.0939 15.8843ZM36.3673 13.316L38.9357 10.7476C39.1083 10.575 39.3457 10.4886 39.5832 10.4886C40.0796 10.4886 40.4896 10.9203 40.4896 11.4167C40.4896 11.6541 40.4033 11.8699 40.2306 12.0426L37.6623 14.6109C37.2954 14.9563 36.7342 14.9563 36.3889 14.6109C36.0436 14.2656 36.0436 13.6829 36.3889 13.3376L36.3673 13.316Z" fill="#0E1E45" stroke="white" stroke-width="0.13" stroke-miterlimit="10"/>
<path d="M30.9501 12.8415C32.0508 12.8415 33.0436 12.1724 33.4536 11.1581L34.8349 7.81273C35.3961 6.40985 34.727 4.83431 33.3242 4.27316C31.9429 3.73359 30.3889 4.35949 29.8062 5.7192L28.4249 9.06453C27.8637 10.4674 28.5328 12.0645 29.9357 12.6257C30.2594 12.7552 30.5831 12.8199 30.9285 12.8199L30.9501 12.8415ZM30.1083 9.77676L31.4896 6.43143C31.6839 5.9782 32.2019 5.74079 32.6767 5.93503C33.1299 6.12927 33.3673 6.64726 33.1731 7.12208L31.7918 10.4674C31.5975 10.9206 31.058 11.1365 30.6047 10.9422C30.1515 10.748 29.9572 10.23 30.1299 9.77676H30.1083Z" fill="#0E1E45" stroke="white" stroke-width="0.13" stroke-miterlimit="10"/>
<path d="M49.9429 24.5821H39.9717C39.4753 24.5821 39.0652 24.9922 39.0652 25.4886C39.0652 32.9994 32.9789 39.0642 25.4897 39.0642C18.0005 39.0642 11.9142 32.9778 11.9142 25.4886C11.9142 17.9994 18.0005 11.9131 25.4897 11.9131C25.9861 11.9131 26.3962 11.503 26.3962 11.0066V1.03538C26.3962 0.538978 25.9861 0.128906 25.4897 0.128906H21.8638C21.4106 0.128906 21.0221 0.452647 20.9573 0.905885L20.4609 4.33754C18.1947 4.87711 16.0365 5.762 14.0508 6.99222L11.2883 4.92027C10.9213 4.6397 10.4249 4.68286 10.1012 5.0066L4.9861 10.1217C4.66236 10.4455 4.64077 10.9419 4.89977 11.3088L6.97171 14.0714C5.74149 16.057 4.8566 18.2152 4.31703 20.4814L0.885377 20.9778C0.432139 21.0426 0.108398 21.4311 0.108398 21.8843V29.1361C0.108398 29.5893 0.432139 29.9778 0.885377 30.0426L4.31703 30.539C4.8566 32.8052 5.74149 34.9634 6.97171 36.9491L4.89977 39.7116C4.61919 40.0786 4.66236 40.575 4.9861 40.8987L10.1012 46.0138C10.4249 46.3375 10.9213 46.3591 11.2883 46.1001L14.0508 44.0282C16.0365 45.2584 18.1947 46.1433 20.4609 46.6829L20.9573 50.1145C21.0221 50.5678 21.4106 50.8915 21.8638 50.8915H29.1156C29.5688 50.8915 29.9573 50.5678 30.0221 50.1145L30.5185 46.6829C32.7847 46.1433 34.9429 45.2584 36.9286 44.0282L39.6911 46.1001C40.058 46.3807 40.5545 46.3375 40.8782 46.0138L45.9933 40.8987C46.317 40.575 46.3386 40.0786 46.0796 39.7116L44.0077 36.9491C45.2379 34.9634 46.1228 32.8052 46.6624 30.539L50.094 30.0426C50.5473 29.9778 50.871 29.5893 50.871 29.1361V25.5102C50.871 25.0138 50.4609 24.6037 49.9645 24.6037L49.9429 24.5821ZM49.0365 28.316L45.7559 28.7908C45.3674 28.8555 45.0652 29.1361 45.0005 29.503C44.5041 31.985 43.5113 34.3375 42.13 36.4311C41.9142 36.7548 41.9357 37.1649 42.1516 37.467L44.1372 40.1001L40.1228 44.1145L37.4897 42.1289C37.1875 41.8915 36.7559 41.8915 36.4537 42.1073C34.3386 43.5102 31.9861 44.4814 29.5257 44.9778C29.1588 45.0642 28.8566 45.3663 28.8134 45.7332L28.3386 49.0138H22.6624L22.1875 45.7332C22.1228 45.3447 21.8422 45.0426 21.4753 44.9778C18.9933 44.4814 16.6408 43.4886 14.5472 42.1073C14.2235 41.8915 13.8134 41.9131 13.5113 42.1289L10.8782 44.1145L6.8638 40.1001L8.84941 37.467C9.08682 37.1649 9.08682 36.7332 8.87099 36.4311C7.46811 34.316 6.49689 31.9634 6.00049 29.503C5.91415 29.1361 5.612 28.8339 5.24509 28.7908L1.96451 28.316V22.6397L5.24509 22.1649C5.63358 22.1001 5.93574 21.8196 6.00049 21.4526C6.49689 18.9706 7.48969 16.6181 8.87099 14.5246C9.08682 14.2009 9.06523 13.7908 8.84941 13.4886L6.8638 10.8555L10.8782 6.84114L13.5113 8.82675C13.8134 9.06416 14.2451 9.06416 14.5472 8.84833C16.6624 7.44545 19.0149 6.47423 21.4753 5.97783C21.8422 5.8915 22.1444 5.58934 22.1875 5.22243L22.6624 1.94186H24.5832V10.1217C16.1012 10.6181 9.62638 17.9131 10.1228 26.3951C10.6192 34.8771 17.9142 41.3519 26.3962 40.8555C34.1875 40.4023 40.4034 34.1865 40.8566 26.3951H49.0365V28.316Z" fill="#0E1E45" stroke="white" stroke-width="0.13" stroke-miterlimit="10"/>
</g>
<defs>
<clipPath id="clip0_5170_96">
<rect width="51" height="51" fill="white"/>
</clipPath>
</defs>
</svg>
