<svg width="51" height="51" viewBox="0 0 51 51" fill="none" xmlns="http://www.w3.org/2000/svg">
<g clip-path="url(#clip0_5170_185)">
<path d="M19.1192 19.9232V18.3389C19.1192 16.147 17.3396 14.3457 15.126 14.3457C12.9124 14.3457 11.1328 16.1253 11.1328 18.3389V19.9232C11.1328 22.1151 12.9124 23.9163 15.126 23.9163C17.3396 23.9163 19.1192 22.1368 19.1192 19.9232ZM12.7388 19.9232V18.3389C12.7388 17.0151 13.8022 15.9517 15.126 15.9517C16.4498 15.9517 17.5132 17.0151 17.5132 18.3389V19.9232C17.5132 21.247 16.4498 22.3104 15.126 22.3104C13.8022 22.3104 12.7388 21.247 12.7388 19.9232Z" fill="#0E1C42"/>
<path d="M43.8165 50.9996C44.2505 50.9996 44.6195 50.6523 44.6195 50.1966V34.2672C44.6195 33.8332 44.2722 33.4642 43.8165 33.4642H31.8586V30.274H37.4361C37.8267 30.274 38.1522 29.9919 38.2173 29.6013L39.8016 20.0306C39.8667 19.5966 39.5846 19.1842 39.1505 19.1191C39.1071 19.1191 39.0637 19.1191 39.0203 19.1191H24.6752C24.2846 19.1191 23.959 19.4013 23.8939 19.7919L22.3097 29.3625C22.2446 29.7966 22.5267 30.2089 22.9607 30.274C23.0041 30.274 23.0476 30.274 23.091 30.274H30.2527V33.4642H26.6284C26.9105 32.9868 27.0624 32.4225 27.0624 31.88C27.0624 31.4677 26.7586 31.1421 26.3463 31.0987L19.4884 30.3391L15.7122 25.8034C15.5603 25.6298 15.3433 25.5213 15.1046 25.5213H13.5203C11.3284 25.5213 9.54883 27.3008 9.52713 29.5145V39.0851C9.52713 39.9532 9.80925 40.7996 10.3518 41.4723H7.94287V27.9302C7.94287 27.4962 7.59564 27.1272 7.13989 27.1272C6.68415 27.1272 6.33691 27.4745 6.33691 27.9302V42.2753C6.33691 42.7094 6.68415 43.0783 7.13989 43.0783H11.1331V49.4587H8.74585C8.31181 49.4587 7.94287 49.806 7.94287 50.2617C7.94287 50.7174 8.29011 51.0647 8.74585 51.0647H15.1263C15.5603 51.0647 15.9293 50.7174 15.9293 50.2617C15.9293 49.806 15.582 49.4587 15.1263 49.4587H12.739V43.0783H18.642L22.2446 49.3719C22.2446 49.3719 22.288 49.437 22.288 49.4587C23.0476 50.457 24.2195 51.043 25.4782 51.043H27.8654C28.2995 51.043 28.6684 50.6957 28.6684 50.24C28.6684 50.1098 28.6467 49.9796 28.5816 49.8711L22.3531 38.1736C22.3531 38.1736 22.288 38.0651 22.2446 38.0217C21.485 37.197 20.4216 36.7196 19.2931 36.7196H16.7105V35.1353H42.9918V50.2834C42.9918 50.7174 43.339 51.0864 43.7948 51.0864L43.8165 50.9996ZM25.3697 20.7251H38.0871L36.7633 28.6898H24.0458L25.3697 20.7251ZM14.1714 29.7966C13.8893 29.4494 13.3901 29.4059 13.0429 29.6664C12.6956 29.9485 12.6522 30.4477 12.9127 30.7949L15.1263 33.5728V37.4791C15.1263 37.9132 15.4735 38.2821 15.9293 38.2821H19.2931C19.9441 38.2821 20.5518 38.5425 21.0076 38.9983L26.5633 49.437H25.4999C24.762 49.437 24.0676 49.0898 23.6118 48.5255L19.8139 41.8847C19.662 41.6459 19.4016 41.494 19.1195 41.494H13.542C12.2182 41.494 11.1548 40.4306 11.1548 39.1068V29.5362C11.1548 28.2123 12.2182 27.1489 13.542 27.1489H14.7573L18.5118 31.6413C18.642 31.7932 18.8373 31.9017 19.0327 31.9234L25.3263 32.6179C25.0658 33.1604 24.5016 33.5077 23.8939 33.5077H17.1012L14.1497 29.8183L14.1714 29.7966Z" fill="#0E1C42"/>
<path d="M1.28083 20.5528L25.5004 1.80214L36.9591 10.6783C37.3064 10.9387 37.8055 10.8736 38.0876 10.5264C38.1961 10.3962 38.2613 10.2226 38.2613 10.049V6.38129H43.0357V14.997C43.0357 15.2358 43.1442 15.4745 43.3396 15.6264L49.72 20.5528C50.0672 20.8132 50.5664 20.7481 50.8485 20.4009C51.1306 20.0536 51.0438 19.5545 50.6966 19.2724L44.6417 14.5847V5.57831C44.6417 5.14427 44.2944 4.77534 43.8387 4.77534H37.4583C37.0242 4.77534 36.6553 5.12257 36.6553 5.57831V8.42129L25.9778 0.174485C25.6957 -0.0425366 25.2834 -0.0425366 25.0013 0.174485L0.30423 19.2941C-0.0430045 19.5545 -0.108111 20.0536 0.152315 20.4226C0.41274 20.7698 0.911889 20.8349 1.28083 20.5745V20.5528Z" fill="#0E1C42"/>
</g>
<defs>
<clipPath id="clip0_5170_185">
<rect width="51" height="51" fill="white"/>
</clipPath>
</defs>
</svg>
