<svg width="56" height="51" viewBox="0 0 56 51" fill="none" xmlns="http://www.w3.org/2000/svg">
<g clip-path="url(#clip0_5173_191)">
<mask id="mask0_5173_191" style="mask-type:luminance" maskUnits="userSpaceOnUse" x="39" y="25" width="13" height="24">
<path d="M50.3341 25.0898C49.776 25.0898 49.3467 25.5437 49.3467 26.1055V45.6627C49.3467 46.2246 48.896 46.6784 48.3594 46.6784H39.9883C39.4303 46.6784 39.001 47.1322 39.001 47.6941C39.001 48.2559 39.4517 48.7098 39.9883 48.7098H48.3594C50.0121 48.7098 51.3429 47.3483 51.3429 45.6627V26.1271C51.3429 25.5653 50.8921 25.1115 50.3555 25.1115L50.3341 25.0898Z" fill="white"/>
</mask>
<g mask="url(#mask0_5173_191)">
<path d="M39.1297 25.0898H38.958V48.7098H39.1297V25.0898Z" fill="#172647"/>
<path d="M39.3016 25.0898H39.1299V48.7098H39.3016V25.0898Z" fill="#172647"/>
<path d="M39.4735 25.0898H39.3018V48.7098H39.4735V25.0898Z" fill="#172647"/>
<path d="M39.6453 25.0898H39.4736V48.7098H39.6453V25.0898Z" fill="#172647"/>
<path d="M39.8377 25.0898H39.666V48.7098H39.8377V25.0898Z" fill="#172647"/>
<path d="M40.0096 25.0898H39.8379V48.7098H40.0096V25.0898Z" fill="#172647"/>
<path d="M40.1815 25.0898H40.0098V48.7098H40.1815V25.0898Z" fill="#172647"/>
<path d="M40.3534 25.0898H40.1816V48.7098H40.3534V25.0898Z" fill="#172647"/>
<path d="M40.5252 25.0898H40.3535V48.7098H40.5252V25.0898Z" fill="#172647"/>
<path d="M40.6961 25.0898H40.5244V48.7098H40.6961V25.0898Z" fill="#172647"/>
<path d="M40.868 25.0898H40.6963V48.7098H40.868V25.0898Z" fill="#172647"/>
<path d="M41.0399 25.0898H40.8682V48.7098H41.0399V25.0898Z" fill="#172647"/>
<path d="M41.2118 25.0898H41.04V48.7098H41.2118V25.0898Z" fill="#172647"/>
<path d="M41.4051 25.0898H41.2334V48.7098H41.4051V25.0898Z" fill="#172647"/>
<path d="M41.577 25.0898H41.4053V48.7098H41.577V25.0898Z" fill="#172647"/>
<path d="M41.7479 25.0898H41.5762V48.7098H41.7479V25.0898Z" fill="#172647"/>
<path d="M41.9198 25.0898H41.748V48.7098H41.9198V25.0898Z" fill="#172647"/>
<path d="M42.0916 25.0898H41.9199V48.7098H42.0916V25.0898Z" fill="#172647"/>
<path d="M42.2635 25.0898H42.0918V48.7098H42.2635V25.0898Z" fill="#172647"/>
<path d="M42.4354 25.0898H42.2637V48.7098H42.4354V25.0898Z" fill="#172647"/>
<path d="M42.6073 25.0898H42.4355V48.7098H42.6073V25.0898Z" fill="#172647"/>
<path d="M42.7782 25.0898H42.6064V48.7098H42.7782V25.0898Z" fill="#172647"/>
<path d="M42.9715 25.0898H42.7998V48.7098H42.9715V25.0898Z" fill="#172647"/>
<path d="M43.1434 25.0898H42.9717V48.7098H43.1434V25.0898Z" fill="#172647"/>
<path d="M43.3153 25.0898H43.1436V48.7098H43.3153V25.0898Z" fill="#172647"/>
<path d="M43.4871 25.0898H43.3154V48.7098H43.4871V25.0898Z" fill="#172647"/>
<path d="M43.659 25.0898H43.4873V48.7098H43.659V25.0898Z" fill="#172647"/>
<path d="M43.8299 25.0898H43.6582V48.7098H43.8299V25.0898Z" fill="#172647"/>
<path d="M44.0018 25.0898H43.8301V48.7098H44.0018V25.0898Z" fill="#172647"/>
<path d="M44.1737 25.0898H44.002V48.7098H44.1737V25.0898Z" fill="#172647"/>
<path d="M44.3455 25.0898H44.1738V48.7098H44.3455V25.0898Z" fill="#172647"/>
<path d="M44.5389 25.0898H44.3672V48.7098H44.5389V25.0898Z" fill="#172647"/>
<path d="M44.7108 25.0898H44.5391V48.7098H44.7108V25.0898Z" fill="#172647"/>
<path d="M44.8817 25.0898H44.71V48.7098H44.8817V25.0898Z" fill="#172647"/>
<path d="M45.0535 25.0898H44.8818V48.7098H45.0535V25.0898Z" fill="#172647"/>
<path d="M45.2254 25.0898H45.0537V48.7098H45.2254V25.0898Z" fill="#172647"/>
<path d="M45.3973 25.0898H45.2256V48.7098H45.3973V25.0898Z" fill="#172647"/>
<path d="M45.5692 25.0898H45.3975V48.7098H45.5692V25.0898Z" fill="#172647"/>
<path d="M45.741 25.0898H45.5693V48.7098H45.741V25.0898Z" fill="#172647"/>
<path d="M45.9119 25.0898H45.7402V48.7098H45.9119V25.0898Z" fill="#172647"/>
<path d="M46.1053 25.0898H45.9336V48.7098H46.1053V25.0898Z" fill="#172647"/>
<path d="M46.2772 25.0898H46.1055V48.7098H46.2772V25.0898Z" fill="#172647"/>
<path d="M46.4491 25.0898H46.2773V48.7098H46.4491V25.0898Z" fill="#172647"/>
<path d="M46.6209 25.0898H46.4492V48.7098H46.6209V25.0898Z" fill="#172647"/>
<path d="M46.7928 25.0898H46.6211V48.7098H46.7928V25.0898Z" fill="#172647"/>
<path d="M46.9637 25.0898H46.792V48.7098H46.9637V25.0898Z" fill="#172647"/>
<path d="M47.1356 25.0898H46.9639V48.7098H47.1356V25.0898Z" fill="#172647"/>
<path d="M47.3075 25.0898H47.1357V48.7098H47.3075V25.0898Z" fill="#172647"/>
<path d="M47.5008 25.0898H47.3291V48.7098H47.5008V25.0898Z" fill="#172647"/>
<path d="M47.6727 25.0898H47.501V48.7098H47.6727V25.0898Z" fill="#172647"/>
<path d="M47.8446 25.0898H47.6729V48.7098H47.8446V25.0898Z" fill="#172647"/>
<path d="M48.0155 25.0898H47.8438V48.7098H48.0155V25.0898Z" fill="#172647"/>
<path d="M48.1873 25.0898H48.0156V48.7098H48.1873V25.0898Z" fill="#172647"/>
<path d="M48.3592 25.0898H48.1875V48.7098H48.3592V25.0898Z" fill="#172647"/>
<path d="M48.5311 25.0898H48.3594V48.7098H48.5311V25.0898Z" fill="#172647"/>
<path d="M48.703 25.0898H48.5312V48.7098H48.703V25.0898Z" fill="#172647"/>
<path d="M48.8748 25.0898H48.7031V48.7098H48.8748V25.0898Z" fill="#172647"/>
<path d="M49.0672 25.0898H48.8955V48.7098H49.0672V25.0898Z" fill="#172647"/>
<path d="M49.2391 25.0898H49.0674V48.7098H49.2391V25.0898Z" fill="#172647"/>
<path d="M49.411 25.0898H49.2393V48.7098H49.411V25.0898Z" fill="#172647"/>
<path d="M49.5828 25.0898H49.4111V48.7098H49.5828V25.0898Z" fill="#172647"/>
<path d="M49.7547 25.0898H49.583V48.7098H49.7547V25.0898Z" fill="#172647"/>
<path d="M49.9266 25.0898H49.7549V48.7098H49.9266V25.0898Z" fill="#172647"/>
<path d="M50.0975 25.0898H49.9258V48.7098H50.0975V25.0898Z" fill="#172647"/>
<path d="M50.2694 25.0898H50.0977V48.7098H50.2694V25.0898Z" fill="#172647"/>
<path d="M50.4412 25.0898H50.2695V48.7098H50.4412V25.0898Z" fill="#172647"/>
<path d="M50.6346 25.0898H50.4629V48.7098H50.6346V25.0898Z" fill="#172647"/>
<path d="M50.8065 25.0898H50.6348V48.7098H50.8065V25.0898Z" fill="#172647"/>
<path d="M50.9784 25.0898H50.8066V48.7098H50.9784V25.0898Z" fill="#172647"/>
<path d="M51.1493 25.0898H50.9775V48.7098H51.1493V25.0898Z" fill="#172647"/>
<path d="M51.3211 25.0898H51.1494V48.7098H51.3211V25.0898Z" fill="#172647"/>
</g>
<path d="M39.9453 48.8399C39.6448 48.8399 39.3657 48.7319 39.1725 48.5158C38.9579 48.2997 38.8506 48.0187 38.8506 47.7162C38.8506 47.0895 39.3443 46.5925 39.9453 46.5925H48.3163C48.81 46.5925 49.1963 46.1819 49.1963 45.6848V26.1276C49.1963 25.8251 49.3036 25.5442 49.5183 25.3281C49.7329 25.112 49.9905 25.0039 50.291 25.0039C50.892 25.0039 51.3857 25.5009 51.3857 26.1276V45.6848C51.3857 47.4353 49.9905 48.8399 48.2948 48.8399H39.9023H39.9453ZM39.9453 46.8086C39.4516 46.8086 39.0438 47.2192 39.0438 47.7162C39.0438 47.9539 39.1296 48.1916 39.3013 48.3645C39.473 48.5374 39.6877 48.6238 39.9238 48.6238H48.3163C49.9046 48.6238 51.1925 47.3056 51.1925 45.6848V26.1276C51.1925 25.6306 50.7847 25.22 50.3124 25.22C50.0763 25.22 49.8617 25.3064 49.69 25.4793C49.5183 25.6522 49.4324 25.8899 49.4324 26.1276V45.6848C49.4324 46.3115 48.9387 46.8086 48.3377 46.8086H39.9667H39.9453Z" fill="white"/>
<mask id="mask1_5173_191" style="mask-type:luminance" maskUnits="userSpaceOnUse" x="0" y="5" width="32" height="44">
<path d="M31.0587 6.72076C31.0587 6.15889 30.608 5.70508 30.0714 5.70508H3.09094C1.4382 5.70508 0.107422 7.06652 0.107422 8.75211V45.6623C0.107422 47.3479 1.4382 48.7093 3.09094 48.7093H4.07829C4.63636 48.7093 5.06564 48.2123 5.04418 47.6504C5.04418 47.1102 4.6149 46.678 4.07829 46.6563H3.09094C2.53287 46.6563 2.10359 46.2025 2.10359 45.6407V15.1919H21.2067C21.9365 15.1919 22.6448 15.0191 23.2887 14.6949L29.0411 11.7559C31.0587 11.1941 29.8782 8.77372 28.1396 9.94067L22.4087 12.8797C22.0438 13.0741 21.636 13.1606 21.2067 13.1606H2.10359V8.77372C2.10359 8.21186 2.55434 7.75804 3.09094 7.75804H30.0499C30.608 7.75804 31.0373 7.30423 31.0373 6.74237L31.0587 6.72076Z" fill="white"/>
</mask>
<g mask="url(#mask1_5173_191)">
<path d="M0.536705 5.70508H0.107422V48.7309H0.536705V5.70508Z" fill="#172647"/>
<path d="M0.966393 5.70508H0.537109V48.7309H0.966393V5.70508Z" fill="#172647"/>
<path d="M1.41659 5.70508H0.987305V48.7309H1.41659V5.70508Z" fill="#172647"/>
<path d="M1.84628 5.70508H1.41699V48.7309H1.84628V5.70508Z" fill="#172647"/>
<path d="M2.27499 5.70508H1.8457V48.7309H2.27499V5.70508Z" fill="#172647"/>
<path d="M2.72616 5.70508H2.29688V48.7309H2.72616V5.70508Z" fill="#172647"/>
<path d="M3.15487 5.70508H2.72559V48.7309H3.15487V5.70508Z" fill="#172647"/>
<path d="M3.58456 5.70508H3.15527V48.7309H3.58456V5.70508Z" fill="#172647"/>
<path d="M4.01424 5.70508H3.58496V48.7309H4.01424V5.70508Z" fill="#172647"/>
<path d="M4.46444 5.70508H4.03516V48.7309H4.46444V5.70508Z" fill="#172647"/>
<path d="M4.89413 5.70508H4.46484V48.7309H4.89413V5.70508Z" fill="#172647"/>
<path d="M5.32284 5.70508H4.89355V48.7309H5.32284V5.70508Z" fill="#172647"/>
<path d="M5.77401 5.70508H5.34473V48.7309H5.77401V5.70508Z" fill="#172647"/>
<path d="M6.2037 5.70508H5.77441V48.7309H6.2037V5.70508Z" fill="#172647"/>
<path d="M6.63241 5.70508H6.20312V48.7309H6.63241V5.70508Z" fill="#172647"/>
<path d="M7.08358 5.70508H6.6543V48.7309H7.08358V5.70508Z" fill="#172647"/>
<path d="M7.51229 5.70508H7.08301V48.7309H7.51229V5.70508Z" fill="#172647"/>
<path d="M7.94198 5.70508H7.5127V48.7309H7.94198V5.70508Z" fill="#172647"/>
<path d="M8.37069 5.70508H7.94141V48.7309H8.37069V5.70508Z" fill="#172647"/>
<path d="M8.82186 5.70508H8.39258V48.7309H8.82186V5.70508Z" fill="#172647"/>
<path d="M9.25155 5.70508H8.82227V48.7309H9.25155V5.70508Z" fill="#172647"/>
<path d="M9.68026 5.70508H9.25098V48.7309H9.68026V5.70508Z" fill="#172647"/>
<path d="M10.1314 5.70508H9.70215V48.7309H10.1314V5.70508Z" fill="#172647"/>
<path d="M10.5601 5.70508H10.1309V48.7309H10.5601V5.70508Z" fill="#172647"/>
<path d="M10.9898 5.70508H10.5605V48.7309H10.9898V5.70508Z" fill="#172647"/>
<path d="M11.44 5.70508H11.0107V48.7309H11.44V5.70508Z" fill="#172647"/>
<path d="M11.8697 5.70508H11.4404V48.7309H11.8697V5.70508Z" fill="#172647"/>
<path d="M12.2994 5.70508H11.8701V48.7309H12.2994V5.70508Z" fill="#172647"/>
<path d="M12.7496 5.70508H12.3203V48.7309H12.7496V5.70508Z" fill="#172647"/>
<path d="M13.1793 5.70508H12.75V48.7309H13.1793V5.70508Z" fill="#172647"/>
<path d="M13.608 5.70508H13.1787V48.7309H13.608V5.70508Z" fill="#172647"/>
<path d="M14.0377 5.70508H13.6084V48.7309H14.0377V5.70508Z" fill="#172647"/>
<path d="M14.4889 5.70508H14.0596V48.7309H14.4889V5.70508Z" fill="#172647"/>
<path d="M14.9176 5.70508H14.4883V48.7309H14.9176V5.70508Z" fill="#172647"/>
<path d="M15.3473 5.70508H14.918V48.7309H15.3473V5.70508Z" fill="#172647"/>
<path d="M15.7974 5.70508H15.3682V48.7309H15.7974V5.70508Z" fill="#172647"/>
<path d="M16.2271 5.70508H15.7979V48.7309H16.2271V5.70508Z" fill="#172647"/>
<path d="M16.6558 5.70508H16.2266V48.7309H16.6558V5.70508Z" fill="#172647"/>
<path d="M17.107 5.70508H16.6777V48.7309H17.107V5.70508Z" fill="#172647"/>
<path d="M17.5367 5.70508H17.1074V48.7309H17.5367V5.70508Z" fill="#172647"/>
<path d="M17.9654 5.70508H17.5361V48.7309H17.9654V5.70508Z" fill="#172647"/>
<path d="M18.3951 5.70508H17.9658V48.7309H18.3951V5.70508Z" fill="#172647"/>
<path d="M18.8453 5.70508H18.416V48.7309H18.8453V5.70508Z" fill="#172647"/>
<path d="M19.275 5.70508H18.8457V48.7309H19.275V5.70508Z" fill="#172647"/>
<path d="M19.7047 5.70508H19.2754V48.7309H19.7047V5.70508Z" fill="#172647"/>
<path d="M20.1549 5.70508H19.7256V48.7309H20.1549V5.70508Z" fill="#172647"/>
<path d="M20.5846 5.70508H20.1553V48.7309H20.5846V5.70508Z" fill="#172647"/>
<path d="M21.0133 5.70508H20.584V48.7309H21.0133V5.70508Z" fill="#172647"/>
<path d="M21.4644 5.70508H21.0352V48.7309H21.4644V5.70508Z" fill="#172647"/>
<path d="M21.8932 5.70508H21.4639V48.7309H21.8932V5.70508Z" fill="#172647"/>
<path d="M22.3228 5.70508H21.8936V48.7309H22.3228V5.70508Z" fill="#172647"/>
<path d="M22.774 5.70508H22.3447V48.7309H22.774V5.70508Z" fill="#172647"/>
<path d="M23.2027 5.70508H22.7734V48.7309H23.2027V5.70508Z" fill="#172647"/>
<path d="M23.6324 5.70508H23.2031V48.7309H23.6324V5.70508Z" fill="#172647"/>
<path d="M24.0611 5.70508H23.6318V48.7309H24.0611V5.70508Z" fill="#172647"/>
<path d="M24.5123 5.70508H24.083V48.7309H24.5123V5.70508Z" fill="#172647"/>
<path d="M24.941 5.70508H24.5117V48.7309H24.941V5.70508Z" fill="#172647"/>
<path d="M25.3707 5.70508H24.9414V48.7309H25.3707V5.70508Z" fill="#172647"/>
<path d="M25.8219 5.70508H25.3926V48.7309H25.8219V5.70508Z" fill="#172647"/>
<path d="M26.2506 5.70508H25.8213V48.7309H26.2506V5.70508Z" fill="#172647"/>
<path d="M26.6803 5.70508H26.251V48.7309H26.6803V5.70508Z" fill="#172647"/>
<path d="M27.1305 5.70508H26.7012V48.7309H27.1305V5.70508Z" fill="#172647"/>
<path d="M27.5601 5.70508H27.1309V48.7309H27.5601V5.70508Z" fill="#172647"/>
<path d="M27.9898 5.70508H27.5605V48.7309H27.9898V5.70508Z" fill="#172647"/>
<path d="M28.4185 5.70508H27.9893V48.7309H28.4185V5.70508Z" fill="#172647"/>
<path d="M28.8697 5.70508H28.4404V48.7309H28.8697V5.70508Z" fill="#172647"/>
<path d="M29.2984 5.70508H28.8691V48.7309H29.2984V5.70508Z" fill="#172647"/>
<path d="M29.7281 5.70508H29.2988V48.7309H29.7281V5.70508Z" fill="#172647"/>
<path d="M30.1783 5.70508H29.749V48.7309H30.1783V5.70508Z" fill="#172647"/>
<path d="M30.608 5.70508H30.1787V48.7309H30.608V5.70508Z" fill="#172647"/>
<path d="M31.0377 5.70508H30.6084V48.7309H31.0377V5.70508Z" fill="#172647"/>
</g>
<path d="M3.09084 48.8396C1.39517 48.8396 0 47.4133 0 45.6845V8.75274C0 7.00232 1.39517 5.59766 3.09084 5.59766H30.0498C30.6508 5.59766 31.1445 6.09469 31.1445 6.72139C31.1445 7.34808 30.6508 7.84511 30.0498 7.84511H3.09084C2.59716 7.84511 2.21081 8.25571 2.21081 8.75274V13.0532H21.2066C21.5929 13.0532 22.0008 12.9667 22.3657 12.7722L28.0966 9.83325C28.6547 9.46588 29.2342 9.40105 29.6849 9.68198C30.0498 9.91969 30.243 10.3519 30.2001 10.7625C30.1142 11.2595 29.7064 11.6485 29.0839 11.843L23.353 14.782C22.6876 15.1061 21.9578 15.279 21.2281 15.279H2.21081V45.6413C2.21081 46.1383 2.61863 46.5489 3.09084 46.5489H4.07819C4.65772 46.5489 5.12993 47.046 5.1514 47.6294C5.1514 48.2561 4.70065 48.7748 4.07819 48.7964H3.06938L3.09084 48.8396ZM3.09084 5.81376C1.50249 5.81376 0.214642 7.13198 0.214642 8.75274V45.6629C0.214642 47.2837 1.50249 48.6019 3.09084 48.6019H4.07819C4.57187 48.6019 4.95822 48.1697 4.93676 47.6727C4.93676 47.1972 4.5504 46.8082 4.07819 46.7866H3.09084C2.48984 46.7866 1.99617 46.268 1.99617 45.6629V15.0845H21.2066C21.9149 15.0845 22.6232 14.9116 23.2457 14.6091L28.9981 11.6701C29.5776 11.4972 29.921 11.1731 29.9854 10.7625C30.0284 10.4167 29.8781 10.071 29.5776 9.87647C29.2127 9.63876 28.6976 9.68198 28.2039 10.0277L22.4515 12.9667C22.0652 13.1612 21.6359 13.2693 21.2066 13.2693H1.99617V8.77435C1.99617 8.14766 2.48984 7.65062 3.09084 7.65062H30.0498C30.5435 7.65062 30.9299 7.24003 30.9299 6.743C30.9299 6.24596 30.522 5.83537 30.0498 5.83537H3.09084V5.81376Z" fill="white"/>
<mask id="mask2_5173_191" style="mask-type:luminance" maskUnits="userSpaceOnUse" x="3" y="9" width="13" height="3">
<path d="M4.74303 9.44336C4.18496 9.44336 3.75567 9.91878 3.77714 10.4806C3.77714 11.0209 4.22789 11.4747 4.74303 11.4747H14.7668C15.3249 11.4747 15.7541 10.9993 15.7327 10.4374C15.7327 9.89717 15.2819 9.44336 14.7668 9.44336H4.74303Z" fill="white"/>
</mask>
<g mask="url(#mask2_5173_191)">
<path d="M3.94906 9.44336H3.77734V11.4747H3.94906V9.44336Z" fill="#172647"/>
<path d="M4.12093 9.44336H3.94922V11.4747H4.12093V9.44336Z" fill="#172647"/>
<path d="M4.29281 9.44336H4.12109V11.4747H4.29281V9.44336Z" fill="#172647"/>
<path d="M4.4432 9.44336H4.27148V11.4747H4.4432V9.44336Z" fill="#172647"/>
<path d="M4.6141 9.44336H4.44238V11.4747H4.6141V9.44336Z" fill="#172647"/>
<path d="M4.78597 9.44336H4.61426V11.4747H4.78597V9.44336Z" fill="#172647"/>
<path d="M4.95785 9.44336H4.78613V11.4747H4.95785V9.44336Z" fill="#172647"/>
<path d="M5.12972 9.44336H4.95801V11.4747H5.12972V9.44336Z" fill="#172647"/>
<path d="M5.3016 9.44336H5.12988V11.4747H5.3016V9.44336Z" fill="#172647"/>
<path d="M5.47347 9.44336H5.30176V11.4747H5.47347V9.44336Z" fill="#172647"/>
<path d="M5.62289 9.44336H5.45117V11.4747H5.62289V9.44336Z" fill="#172647"/>
<path d="M5.79476 9.44336H5.62305V11.4747H5.79476V9.44336Z" fill="#172647"/>
<path d="M5.96664 9.44336H5.79492V11.4747H5.96664V9.44336Z" fill="#172647"/>
<path d="M6.13851 9.44336H5.9668V11.4747H6.13851V9.44336Z" fill="#172647"/>
<path d="M6.31039 9.44336H6.13867V11.4747H6.31039V9.44336Z" fill="#172647"/>
<path d="M6.48226 9.44336H6.31055V11.4747H6.48226V9.44336Z" fill="#172647"/>
<path d="M6.65316 9.44336H6.48145V11.4747H6.65316V9.44336Z" fill="#172647"/>
<path d="M6.80355 9.44336H6.63184V11.4747H6.80355V9.44336Z" fill="#172647"/>
<path d="M6.97542 9.44336H6.80371V11.4747H6.97542V9.44336Z" fill="#172647"/>
<path d="M7.1473 9.44336H6.97559V11.4747H7.1473V9.44336Z" fill="#172647"/>
<path d="M7.31917 9.44336H7.14746V11.4747H7.31917V9.44336Z" fill="#172647"/>
<path d="M7.49105 9.44336H7.31934V11.4747H7.49105V9.44336Z" fill="#172647"/>
<path d="M7.66195 9.44336H7.49023V11.4747H7.66195V9.44336Z" fill="#172647"/>
<path d="M7.83382 9.44336H7.66211V11.4747H7.83382V9.44336Z" fill="#172647"/>
<path d="M7.98421 9.44336H7.8125V11.4747H7.98421V9.44336Z" fill="#172647"/>
<path d="M8.15609 9.44336H7.98438V11.4747H8.15609V9.44336Z" fill="#172647"/>
<path d="M8.32796 9.44336H8.15625V11.4747H8.32796V9.44336Z" fill="#172647"/>
<path d="M8.49984 9.44336H8.32812V11.4747H8.49984V9.44336Z" fill="#172647"/>
<path d="M8.67074 9.44336H8.49902V11.4747H8.67074V9.44336Z" fill="#172647"/>
<path d="M8.84261 9.44336H8.6709V11.4747H8.84261V9.44336Z" fill="#172647"/>
<path d="M9.01449 9.44336H8.84277V11.4747H9.01449V9.44336Z" fill="#172647"/>
<path d="M9.16488 9.44336H8.99316V11.4747H9.16488V9.44336Z" fill="#172647"/>
<path d="M9.33675 9.44336H9.16504V11.4747H9.33675V9.44336Z" fill="#172647"/>
<path d="M9.50863 9.44336H9.33691V11.4747H9.50863V9.44336Z" fill="#172647"/>
<path d="M9.67953 9.44336H9.50781V11.4747H9.67953V9.44336Z" fill="#172647"/>
<path d="M9.8514 9.44336H9.67969V11.4747H9.8514V9.44336Z" fill="#172647"/>
<path d="M10.0233 9.44336H9.85156V11.4747H10.0233V9.44336Z" fill="#172647"/>
<path d="M10.1952 9.44336H10.0234V11.4747H10.1952V9.44336Z" fill="#172647"/>
<path d="M10.367 9.44336H10.1953V11.4747H10.367V9.44336Z" fill="#172647"/>
<path d="M10.5174 9.44336H10.3457V11.4747H10.5174V9.44336Z" fill="#172647"/>
<path d="M10.6883 9.44336H10.5166V11.4747H10.6883V9.44336Z" fill="#172647"/>
<path d="M10.8602 9.44336H10.6885V11.4747H10.8602V9.44336Z" fill="#172647"/>
<path d="M11.0321 9.44336H10.8604V11.4747H11.0321V9.44336Z" fill="#172647"/>
<path d="M11.2039 9.44336H11.0322V11.4747H11.2039V9.44336Z" fill="#172647"/>
<path d="M11.3758 9.44336H11.2041V11.4747H11.3758V9.44336Z" fill="#172647"/>
<path d="M11.5477 9.44336H11.376V11.4747H11.5477V9.44336Z" fill="#172647"/>
<path d="M11.6981 9.44336H11.5264V11.4747H11.6981V9.44336Z" fill="#172647"/>
<path d="M11.869 9.44336H11.6973V11.4747H11.869V9.44336Z" fill="#172647"/>
<path d="M12.0409 9.44336H11.8691V11.4747H12.0409V9.44336Z" fill="#172647"/>
<path d="M12.2127 9.44336H12.041V11.4747H12.2127V9.44336Z" fill="#172647"/>
<path d="M12.3846 9.44336H12.2129V11.4747H12.3846V9.44336Z" fill="#172647"/>
<path d="M12.5565 9.44336H12.3848V11.4747H12.5565V9.44336Z" fill="#172647"/>
<path d="M12.7284 9.44336H12.5566V11.4747H12.7284V9.44336Z" fill="#172647"/>
<path d="M12.8778 9.44336H12.7061V11.4747H12.8778V9.44336Z" fill="#172647"/>
<path d="M13.0496 9.44336H12.8779V11.4747H13.0496V9.44336Z" fill="#172647"/>
<path d="M13.2215 9.44336H13.0498V11.4747H13.2215V9.44336Z" fill="#172647"/>
<path d="M13.3934 9.44336H13.2217V11.4747H13.3934V9.44336Z" fill="#172647"/>
<path d="M13.5653 9.44336H13.3936V11.4747H13.5653V9.44336Z" fill="#172647"/>
<path d="M13.7371 9.44336H13.5654V11.4747H13.7371V9.44336Z" fill="#172647"/>
<path d="M13.908 9.44336H13.7363V11.4747H13.908V9.44336Z" fill="#172647"/>
<path d="M14.0584 9.44336H13.8867V11.4747H14.0584V9.44336Z" fill="#172647"/>
<path d="M14.2303 9.44336H14.0586V11.4747H14.2303V9.44336Z" fill="#172647"/>
<path d="M14.4022 9.44336H14.2305V11.4747H14.4022V9.44336Z" fill="#172647"/>
<path d="M14.5741 9.44336H14.4023V11.4747H14.5741V9.44336Z" fill="#172647"/>
<path d="M14.7459 9.44336H14.5742V11.4747H14.7459V9.44336Z" fill="#172647"/>
<path d="M14.9168 9.44336H14.7451V11.4747H14.9168V9.44336Z" fill="#172647"/>
<path d="M15.0887 9.44336H14.917V11.4747H15.0887V9.44336Z" fill="#172647"/>
<path d="M15.2391 9.44336H15.0674V11.4747H15.2391V9.44336Z" fill="#172647"/>
<path d="M15.411 9.44336H15.2393V11.4747H15.411V9.44336Z" fill="#172647"/>
<path d="M15.5828 9.44336H15.4111V11.4747H15.5828V9.44336Z" fill="#172647"/>
<path d="M15.7547 9.44336H15.583V11.4747H15.7547V9.44336Z" fill="#172647"/>
</g>
<path d="M4.74313 11.5834C4.14213 11.5834 3.66992 11.0864 3.66992 10.4813C3.66992 10.1787 3.77724 9.8978 3.97042 9.6817C4.18506 9.4656 4.44263 9.33594 4.74313 9.33594H14.7669C15.3679 9.33594 15.8401 9.83297 15.8401 10.4381C15.8401 11.0648 15.3679 11.5834 14.7669 11.5834H4.74313ZM4.74313 9.55204C4.50702 9.55204 4.29238 9.66009 4.12067 9.83297C3.94896 10.0059 3.8631 10.2436 3.8631 10.4813C3.8631 10.9783 4.24945 11.3673 4.74313 11.3673H14.7669C15.2606 11.3673 15.6469 10.9351 15.6469 10.4381C15.6469 9.94102 15.2606 9.55204 14.7669 9.55204H4.74313Z" fill="white"/>
<mask id="mask3_5173_191" style="mask-type:luminance" maskUnits="userSpaceOnUse" x="32" y="0" width="24" height="25">
<path d="M43.9366 0.107422C28.0745 0.777337 28.0745 23.857 43.9366 24.5269C50.5475 24.5269 55.8921 19.0595 55.8921 12.3172C55.8921 5.57479 50.5475 0.107422 43.9366 0.107422ZM44.9239 2.20361C49.6031 2.67903 53.3164 6.4392 53.8315 11.215L44.9239 11.2799V2.20361ZM43.9366 22.4956C31.3156 22.0417 30.5 3.8892 42.9277 2.20361V12.3172C42.9277 12.879 43.3785 13.3328 43.9151 13.3328L53.8315 13.2464C53.3593 18.4761 49.0665 22.4739 43.9151 22.4956H43.9366Z" fill="white"/>
</mask>
<g mask="url(#mask3_5173_191)">
<path d="M32.0454 2.20312H30.5V22.4951H32.0454V2.20312Z" fill="#172647"/>
<path d="M32.3883 2.20312H32.0449V22.4951H32.3883V2.20312Z" fill="#172647"/>
<path d="M32.7321 2.20312H32.3887V22.4951H32.7321V2.20312Z" fill="#172647"/>
<path d="M33.0758 2.20312H32.7324V22.4951H33.0758V2.20312Z" fill="#172647"/>
<path d="M33.3971 2.20312H33.0537V22.4951H33.3971V2.20312Z" fill="#172647"/>
<path d="M33.7409 2.20312H33.3975V22.4951H33.7409V2.20312Z" fill="#172647"/>
<path d="M34.0846 2.20312H33.7412V22.4951H34.0846V2.20312Z" fill="#172647"/>
<path d="M34.4059 2.20312H34.0625V22.4951H34.4059V2.20312Z" fill="#172647"/>
<path d="M34.7497 2.20312H34.4062V22.4951H34.7497V2.20312Z" fill="#172647"/>
<path d="M35.0934 2.20312H34.75V22.4951H35.0934V2.20312Z" fill="#172647"/>
<path d="M35.4147 2.20312H35.0713V22.4951H35.4147V2.20312Z" fill="#172647"/>
<path d="M35.7585 2.20312H35.415V22.4951H35.7585V2.20312Z" fill="#172647"/>
<path d="M36.1022 2.20312H35.7588V22.4951H36.1022V2.20312Z" fill="#172647"/>
<path d="M36.4235 2.20312H36.0801V22.4951H36.4235V2.20312Z" fill="#172647"/>
<path d="M36.7673 2.20312H36.4238V22.4951H36.7673V2.20312Z" fill="#172647"/>
<path d="M37.0895 2.20312H36.7461V22.4951H37.0895V2.20312Z" fill="#172647"/>
<path d="M37.4323 2.20312H37.0889V22.4951H37.4323V2.20312Z" fill="#172647"/>
<path d="M37.776 2.20312H37.4326V22.4951H37.776V2.20312Z" fill="#172647"/>
<path d="M38.0983 2.20312H37.7549V22.4951H38.0983V2.20312Z" fill="#172647"/>
<path d="M38.4411 2.20312H38.0977V22.4951H38.4411V2.20312Z" fill="#172647"/>
<path d="M38.7848 2.20312H38.4414V22.4951H38.7848V2.20312Z" fill="#172647"/>
<path d="M39.1071 2.20312H38.7637V22.4951H39.1071V2.20312Z" fill="#172647"/>
<path d="M39.4499 2.20312H39.1064V22.4951H39.4499V2.20312Z" fill="#172647"/>
<path d="M39.7936 2.20312H39.4502V22.4951H39.7936V2.20312Z" fill="#172647"/>
<path d="M40.1159 2.20312H39.7725V22.4951H40.1159V2.20312Z" fill="#172647"/>
<path d="M40.4587 2.20312H40.1152V22.4951H40.4587V2.20312Z" fill="#172647"/>
<path d="M40.8024 2.20312H40.459V22.4951H40.8024V2.20312Z" fill="#172647"/>
<path d="M41.1247 2.20312H40.7812V22.4951H41.1247V2.20312Z" fill="#172647"/>
<path d="M41.4674 2.20312H41.124V22.4951H41.4674V2.20312Z" fill="#172647"/>
<path d="M41.7897 2.20312H41.4463V22.4951H41.7897V2.20312Z" fill="#172647"/>
<path d="M42.1335 2.20312H41.79V22.4951H42.1335V2.20312Z" fill="#172647"/>
<path d="M42.4762 2.20312H42.1328V22.4951H42.4762V2.20312Z" fill="#172647"/>
<path d="M42.7985 2.20312H42.4551V22.4951H42.7985V2.20312Z" fill="#172647"/>
<path d="M43.1423 2.20312H42.7988V22.4951H43.1423V2.20312Z" fill="#172647"/>
<path d="M43.485 2.20312H43.1416V22.4951H43.485V2.20312Z" fill="#172647"/>
<path d="M43.8073 2.20312H43.4639V22.4951H43.8073V2.20312Z" fill="#172647"/>
<path d="M44.151 2.20312H43.8076V22.4951H44.151V2.20312Z" fill="#172647"/>
<path d="M44.4948 2.20312H44.1514V22.4951H44.4948V2.20312Z" fill="#172647"/>
<path d="M44.8161 2.20312H44.4727V22.4951H44.8161V2.20312Z" fill="#172647"/>
<path d="M45.1598 2.20312H44.8164V22.4951H45.1598V2.20312Z" fill="#172647"/>
<path d="M45.5036 2.20312H45.1602V22.4951H45.5036V2.20312Z" fill="#172647"/>
<path d="M45.8249 2.20312H45.4814V22.4951H45.8249V2.20312Z" fill="#172647"/>
<path d="M46.1686 2.20312H45.8252V22.4951H46.1686V2.20312Z" fill="#172647"/>
<path d="M46.4909 2.20312H46.1475V22.4951H46.4909V2.20312Z" fill="#172647"/>
<path d="M46.8337 2.20312H46.4902V22.4951H46.8337V2.20312Z" fill="#172647"/>
<path d="M47.1774 2.20312H46.834V22.4951H47.1774V2.20312Z" fill="#172647"/>
<path d="M47.4997 2.20312H47.1562V22.4951H47.4997V2.20312Z" fill="#172647"/>
<path d="M47.8425 2.20312H47.499V22.4951H47.8425V2.20312Z" fill="#172647"/>
<path d="M48.1862 2.20312H47.8428V22.4951H48.1862V2.20312Z" fill="#172647"/>
<path d="M48.5085 2.20312H48.165V22.4951H48.5085V2.20312Z" fill="#172647"/>
<path d="M48.8512 2.20312H48.5078V22.4951H48.8512V2.20312Z" fill="#172647"/>
<path d="M49.195 2.20312H48.8516V22.4951H49.195V2.20312Z" fill="#172647"/>
<path d="M49.5173 2.20312H49.1738V22.4951H49.5173V2.20312Z" fill="#172647"/>
<path d="M49.86 2.20312H49.5166V22.4951H49.86V2.20312Z" fill="#172647"/>
<path d="M50.2038 2.20312H49.8604V22.4951H50.2038V2.20312Z" fill="#172647"/>
<path d="M50.526 2.20312H50.1826V22.4951H50.526V2.20312Z" fill="#172647"/>
<path d="M50.8688 2.20312H50.5254V22.4951H50.8688V2.20312Z" fill="#172647"/>
<path d="M51.1911 2.20312H50.8477V22.4951H51.1911V2.20312Z" fill="#172647"/>
<path d="M51.5348 2.20312H51.1914V22.4951H51.5348V2.20312Z" fill="#172647"/>
<path d="M51.8776 2.20312H51.5342V22.4951H51.8776V2.20312Z" fill="#172647"/>
<path d="M52.1999 2.20312H51.8564V22.4951H52.1999V2.20312Z" fill="#172647"/>
<path d="M52.5436 2.20312H52.2002V22.4951H52.5436V2.20312Z" fill="#172647"/>
<path d="M52.8864 2.20312H52.543V22.4951H52.8864V2.20312Z" fill="#172647"/>
<path d="M53.2087 2.20312H52.8652V22.4951H53.2087V2.20312Z" fill="#172647"/>
<path d="M53.5524 2.20312H53.209V22.4951H53.5524V2.20312Z" fill="#172647"/>
<path d="M53.8737 2.20312H53.5518V22.4951H53.8737V2.20312Z" fill="#172647"/>
<path d="M45.16 2.20312H44.9453V11.301H45.16V2.20312Z" fill="#172647"/>
<path d="M45.5036 2.20312H45.1602V11.301H45.5036V2.20312Z" fill="#172647"/>
<path d="M45.8249 2.20312H45.4814V11.301H45.8249V2.20312Z" fill="#172647"/>
<path d="M46.1686 2.20312H45.8252V11.301H46.1686V2.20312Z" fill="#172647"/>
<path d="M46.4909 2.20312H46.1475V11.301H46.4909V2.20312Z" fill="#172647"/>
<path d="M46.8337 2.20312H46.4902V11.301H46.8337V2.20312Z" fill="#172647"/>
<path d="M47.1774 2.20312H46.834V11.301H47.1774V2.20312Z" fill="#172647"/>
<path d="M47.4997 2.20312H47.1562V11.301H47.4997V2.20312Z" fill="#172647"/>
<path d="M47.8425 2.20312H47.499V11.301H47.8425V2.20312Z" fill="#172647"/>
<path d="M48.1862 2.20312H47.8428V11.301H48.1862V2.20312Z" fill="#172647"/>
<path d="M48.5085 2.20312H48.165V11.301H48.5085V2.20312Z" fill="#172647"/>
<path d="M48.8512 2.20312H48.5078V11.301H48.8512V2.20312Z" fill="#172647"/>
<path d="M49.195 2.20312H48.8516V11.301H49.195V2.20312Z" fill="#172647"/>
<path d="M49.5173 2.20312H49.1738V11.301H49.5173V2.20312Z" fill="#172647"/>
<path d="M49.86 2.20312H49.5166V11.301H49.86V2.20312Z" fill="#172647"/>
<path d="M50.2038 2.20312H49.8604V11.301H50.2038V2.20312Z" fill="#172647"/>
<path d="M50.526 2.20312H50.1826V11.301H50.526V2.20312Z" fill="#172647"/>
<path d="M50.8688 2.20312H50.5254V11.301H50.8688V2.20312Z" fill="#172647"/>
<path d="M51.1911 2.20312H50.8477V11.301H51.1911V2.20312Z" fill="#172647"/>
<path d="M51.5348 2.20312H51.1914V11.301H51.5348V2.20312Z" fill="#172647"/>
<path d="M51.8776 2.20312H51.5342V11.301H51.8776V2.20312Z" fill="#172647"/>
<path d="M52.1999 2.20312H51.8564V11.301H52.1999V2.20312Z" fill="#172647"/>
<path d="M52.5436 2.20312H52.2002V11.301H52.5436V2.20312Z" fill="#172647"/>
<path d="M52.8864 2.20312H52.543V11.301H52.8864V2.20312Z" fill="#172647"/>
<path d="M53.2087 2.20312H52.8652V11.301H53.2087V2.20312Z" fill="#172647"/>
<path d="M53.5524 2.20312H53.209V11.301H53.5524V2.20312Z" fill="#172647"/>
<path d="M53.8523 2.20312H53.5518V11.301H53.8523V2.20312Z" fill="#172647"/>
<path d="M32.0666 0.107422H28.0957V24.5269H32.0666V0.107422Z" fill="#172647"/>
<path d="M32.3883 0.107422H32.0449V24.5269H32.3883V0.107422Z" fill="#172647"/>
<path d="M32.7321 0.107422H32.3887V24.5269H32.7321V0.107422Z" fill="#172647"/>
<path d="M33.0758 0.107422H32.7324V24.5269H33.0758V0.107422Z" fill="#172647"/>
<path d="M33.3971 0.107422H33.0537V24.5269H33.3971V0.107422Z" fill="#172647"/>
<path d="M33.7409 0.107422H33.3975V24.5269H33.7409V0.107422Z" fill="#172647"/>
<path d="M34.0846 0.107422H33.7412V24.5269H34.0846V0.107422Z" fill="#172647"/>
<path d="M34.4059 0.107422H34.0625V24.5269H34.4059V0.107422Z" fill="#172647"/>
<path d="M34.7497 0.107422H34.4062V24.5269H34.7497V0.107422Z" fill="#172647"/>
<path d="M35.0934 0.107422H34.75V24.5269H35.0934V0.107422Z" fill="#172647"/>
<path d="M35.4147 0.107422H35.0713V24.5269H35.4147V0.107422Z" fill="#172647"/>
<path d="M35.7585 0.107422H35.415V24.5269H35.7585V0.107422Z" fill="#172647"/>
<path d="M36.1022 0.107422H35.7588V24.5269H36.1022V0.107422Z" fill="#172647"/>
<path d="M36.4235 0.107422H36.0801V24.5269H36.4235V0.107422Z" fill="#172647"/>
<path d="M36.7673 0.107422H36.4238V24.5269H36.7673V0.107422Z" fill="#172647"/>
<path d="M37.0895 0.107422H36.7461V24.5269H37.0895V0.107422Z" fill="#172647"/>
<path d="M37.4323 0.107422H37.0889V24.5269H37.4323V0.107422Z" fill="#172647"/>
<path d="M37.776 0.107422H37.4326V24.5269H37.776V0.107422Z" fill="#172647"/>
<path d="M38.0983 0.107422H37.7549V24.5269H38.0983V0.107422Z" fill="#172647"/>
<path d="M38.4411 0.107422H38.0977V24.5269H38.4411V0.107422Z" fill="#172647"/>
<path d="M38.7848 0.107422H38.4414V24.5269H38.7848V0.107422Z" fill="#172647"/>
<path d="M39.1071 0.107422H38.7637V24.5269H39.1071V0.107422Z" fill="#172647"/>
<path d="M39.4499 0.107422H39.1064V24.5269H39.4499V0.107422Z" fill="#172647"/>
<path d="M39.7936 0.107422H39.4502V24.5269H39.7936V0.107422Z" fill="#172647"/>
<path d="M40.1159 0.107422H39.7725V24.5269H40.1159V0.107422Z" fill="#172647"/>
<path d="M40.4587 0.107422H40.1152V24.5269H40.4587V0.107422Z" fill="#172647"/>
<path d="M40.8024 0.107422H40.459V24.5269H40.8024V0.107422Z" fill="#172647"/>
<path d="M41.1247 0.107422H40.7812V24.5269H41.1247V0.107422Z" fill="#172647"/>
<path d="M41.4674 0.107422H41.124V24.5269H41.4674V0.107422Z" fill="#172647"/>
<path d="M41.7897 0.107422H41.4463V24.5269H41.7897V0.107422Z" fill="#172647"/>
<path d="M42.1335 0.107422H41.79V24.5269H42.1335V0.107422Z" fill="#172647"/>
<path d="M42.4762 0.107422H42.1328V24.5269H42.4762V0.107422Z" fill="#172647"/>
<path d="M42.7985 0.107422H42.4551V24.5269H42.7985V0.107422Z" fill="#172647"/>
<path d="M43.1423 0.107422H42.7988V24.5269H43.1423V0.107422Z" fill="#172647"/>
<path d="M43.485 0.107422H43.1416V24.5269H43.485V0.107422Z" fill="#172647"/>
<path d="M43.8073 0.107422H43.4639V24.5269H43.8073V0.107422Z" fill="#172647"/>
<path d="M44.151 0.107422H43.8076V24.5269H44.151V0.107422Z" fill="#172647"/>
<path d="M44.4948 0.107422H44.1514V24.5269H44.4948V0.107422Z" fill="#172647"/>
<path d="M44.8161 0.107422H44.4727V24.5269H44.8161V0.107422Z" fill="#172647"/>
<path d="M45.1598 0.107422H44.8164V24.5269H45.1598V0.107422Z" fill="#172647"/>
<path d="M45.5036 0.107422H45.1602V24.5269H45.5036V0.107422Z" fill="#172647"/>
<path d="M45.8249 0.107422H45.4814V24.5269H45.8249V0.107422Z" fill="#172647"/>
<path d="M46.1686 0.107422H45.8252V24.5269H46.1686V0.107422Z" fill="#172647"/>
<path d="M46.4909 0.107422H46.1475V24.5269H46.4909V0.107422Z" fill="#172647"/>
<path d="M46.8337 0.107422H46.4902V24.5269H46.8337V0.107422Z" fill="#172647"/>
<path d="M47.1774 0.107422H46.834V24.5269H47.1774V0.107422Z" fill="#172647"/>
<path d="M47.4997 0.107422H47.1562V24.5269H47.4997V0.107422Z" fill="#172647"/>
<path d="M47.8425 0.107422H47.499V24.5269H47.8425V0.107422Z" fill="#172647"/>
<path d="M48.1862 0.107422H47.8428V24.5269H48.1862V0.107422Z" fill="#172647"/>
<path d="M48.5085 0.107422H48.165V24.5269H48.5085V0.107422Z" fill="#172647"/>
<path d="M48.8512 0.107422H48.5078V24.5269H48.8512V0.107422Z" fill="#172647"/>
<path d="M49.195 0.107422H48.8516V24.5269H49.195V0.107422Z" fill="#172647"/>
<path d="M49.5173 0.107422H49.1738V24.5269H49.5173V0.107422Z" fill="#172647"/>
<path d="M49.86 0.107422H49.5166V24.5269H49.86V0.107422Z" fill="#172647"/>
<path d="M50.2038 0.107422H49.8604V24.5269H50.2038V0.107422Z" fill="#172647"/>
<path d="M50.526 0.107422H50.1826V24.5269H50.526V0.107422Z" fill="#172647"/>
<path d="M50.8688 0.107422H50.5254V24.5269H50.8688V0.107422Z" fill="#172647"/>
<path d="M51.1911 0.107422H50.8477V24.5269H51.1911V0.107422Z" fill="#172647"/>
<path d="M51.5348 0.107422H51.1914V24.5269H51.5348V0.107422Z" fill="#172647"/>
<path d="M51.8776 0.107422H51.5342V24.5269H51.8776V0.107422Z" fill="#172647"/>
<path d="M52.1999 0.107422H51.8564V24.5269H52.1999V0.107422Z" fill="#172647"/>
<path d="M52.5436 0.107422H52.2002V24.5269H52.5436V0.107422Z" fill="#172647"/>
<path d="M52.8864 0.107422H52.543V24.5269H52.8864V0.107422Z" fill="#172647"/>
<path d="M53.2087 0.107422H52.8652V24.5269H53.2087V0.107422Z" fill="#172647"/>
<path d="M53.5524 0.107422H53.209V24.5269H53.5524V0.107422Z" fill="#172647"/>
<path d="M53.8952 0.107422H53.5518V24.5269H53.8952V0.107422Z" fill="#172647"/>
<path d="M54.2174 0.107422H53.874V24.5269H54.2174V0.107422Z" fill="#172647"/>
<path d="M54.5612 0.107422H54.2178V24.5269H54.5612V0.107422Z" fill="#172647"/>
<path d="M54.904 0.107422H54.5605V24.5269H54.904V0.107422Z" fill="#172647"/>
<path d="M55.2262 0.107422H54.8828V24.5269H55.2262V0.107422Z" fill="#172647"/>
<path d="M55.57 0.107422H55.2266V24.5269H55.57V0.107422Z" fill="#172647"/>
<path d="M55.9137 0.107422H55.5703V24.5269H55.9137V0.107422Z" fill="#172647"/>
</g>
<path d="M43.9369 24.6356C35.6947 24.2898 31.9385 18.0013 31.9385 12.3178C31.9385 6.63432 35.6947 0.345763 43.9369 0C50.5908 0 55.9998 5.5322 55.9998 12.3178C55.9998 19.1034 50.5908 24.6356 43.9369 24.6356ZM43.9369 0.216102C35.845 0.561864 32.1531 6.72076 32.1531 12.3178C32.1531 17.9148 35.845 24.0737 43.9369 24.4195C50.462 24.4195 55.7852 18.9953 55.7852 12.3178C55.7852 5.64025 50.462 0.216102 43.9369 0.216102ZM43.9369 22.6042C37.3904 22.3665 34.1708 17.3746 33.9346 12.8364C33.6985 8.2767 36.4245 2.96059 42.9281 2.07458H43.0569V12.3178C43.0569 12.8148 43.4647 13.2254 43.9369 13.2254L53.9607 13.139V13.2686C53.467 18.5847 49.1527 22.6042 43.9369 22.6042ZM42.8208 2.31229C36.5533 3.24153 33.9132 8.38475 34.1493 12.8364C34.3854 17.4178 37.4977 22.1504 43.9369 22.3881C49.0239 22.3881 53.2095 18.5199 53.7246 13.3551L43.9369 13.4415C43.3145 13.4415 42.8208 12.9445 42.8208 12.3178V2.31229ZM44.817 11.3886V2.07458H44.9243C49.6249 2.57161 53.4026 6.41822 53.9178 11.1941V11.3237H53.8105L44.7955 11.4102L44.817 11.3886ZM45.0316 2.31229V11.1725L53.7031 11.1076C53.1451 6.50466 49.5391 2.83093 45.0316 2.31229Z" fill="white"/>
<mask id="mask4_5173_191" style="mask-type:luminance" maskUnits="userSpaceOnUse" x="7" y="36" width="7" height="15">
<path d="M12.0627 36.0234H8.07036C7.51229 36.0234 7.08301 36.4772 7.08301 37.0391V49.8756C7.08301 50.4374 7.53376 50.8912 8.07036 50.8912H12.0627C12.6208 50.8912 13.05 50.4374 13.05 49.8756V37.0391C13.05 36.4772 12.5993 36.0234 12.0627 36.0234ZM11.0753 48.8383H9.07917V38.0548H11.0753V48.8383Z" fill="white"/>
</mask>
<g mask="url(#mask4_5173_191)">
<path d="M9.10057 38.0547H9.0791V48.8382H9.10057V38.0547Z" fill="#172647"/>
<path d="M9.18644 38.0547H9.10059V48.8382H9.18644V38.0547Z" fill="#172647"/>
<path d="M9.27238 38.0547H9.18652V48.8382H9.27238V38.0547Z" fill="#172647"/>
<path d="M9.35832 38.0547H9.27246V48.8382H9.35832V38.0547Z" fill="#172647"/>
<path d="M9.44426 38.0547H9.3584V48.8382H9.44426V38.0547Z" fill="#172647"/>
<path d="M9.53019 38.0547H9.44434V48.8382H9.53019V38.0547Z" fill="#172647"/>
<path d="M9.61613 38.0547H9.53027V48.8382H9.61613V38.0547Z" fill="#172647"/>
<path d="M9.70207 38.0547H9.61621V48.8382H9.70207V38.0547Z" fill="#172647"/>
<path d="M9.76554 38.0547H9.67969V48.8382H9.76554V38.0547Z" fill="#172647"/>
<path d="M9.85148 38.0547H9.76562V48.8382H9.85148V38.0547Z" fill="#172647"/>
<path d="M9.93742 38.0547H9.85156V48.8382H9.93742V38.0547Z" fill="#172647"/>
<path d="M10.0234 38.0547H9.9375V48.8382H10.0234V38.0547Z" fill="#172647"/>
<path d="M10.1093 38.0547H10.0234V48.8382H10.1093V38.0547Z" fill="#172647"/>
<path d="M10.1952 38.0547H10.1094V48.8382H10.1952V38.0547Z" fill="#172647"/>
<path d="M10.2812 38.0547H10.1953V48.8382H10.2812V38.0547Z" fill="#172647"/>
<path d="M10.3671 38.0547H10.2812V48.8382H10.3671V38.0547Z" fill="#172647"/>
<path d="M10.453 38.0547H10.3672V48.8382H10.453V38.0547Z" fill="#172647"/>
<path d="M10.539 38.0547H10.4531V48.8382H10.539V38.0547Z" fill="#172647"/>
<path d="M10.6249 38.0547H10.5391V48.8382H10.6249V38.0547Z" fill="#172647"/>
<path d="M10.7109 38.0547H10.625V48.8382H10.7109V38.0547Z" fill="#172647"/>
<path d="M10.7968 38.0547H10.7109V48.8382H10.7968V38.0547Z" fill="#172647"/>
<path d="M10.8603 38.0547H10.7744V48.8382H10.8603V38.0547Z" fill="#172647"/>
<path d="M10.9462 38.0547H10.8604V48.8382H10.9462V38.0547Z" fill="#172647"/>
<path d="M11.0321 38.0547H10.9463V48.8382H11.0321V38.0547Z" fill="#172647"/>
<path d="M11.0537 38.0547H11.0322V48.8382H11.0537V38.0547Z" fill="#172647"/>
<path d="M7.16886 36.0234H7.08301V50.8912H7.16886V36.0234Z" fill="#172647"/>
<path d="M7.2548 36.0234H7.16895V50.8912H7.2548V36.0234Z" fill="#172647"/>
<path d="M7.34074 36.0234H7.25488V50.8912H7.34074V36.0234Z" fill="#172647"/>
<path d="M7.42668 36.0234H7.34082V50.8912H7.42668V36.0234Z" fill="#172647"/>
<path d="M7.51261 36.0234H7.42676V50.8912H7.51261V36.0234Z" fill="#172647"/>
<path d="M7.59855 36.0234H7.5127V50.8912H7.59855V36.0234Z" fill="#172647"/>
<path d="M7.66301 36.0234H7.57715V50.8912H7.66301V36.0234Z" fill="#172647"/>
<path d="M7.74797 36.0234H7.66211V50.8912H7.74797V36.0234Z" fill="#172647"/>
<path d="M7.8339 36.0234H7.74805V50.8912H7.8339V36.0234Z" fill="#172647"/>
<path d="M7.91984 36.0234H7.83398V50.8912H7.91984V36.0234Z" fill="#172647"/>
<path d="M8.00578 36.0234H7.91992V50.8912H8.00578V36.0234Z" fill="#172647"/>
<path d="M8.09172 36.0234H8.00586V50.8912H8.09172V36.0234Z" fill="#172647"/>
<path d="M8.17765 36.0234H8.0918V50.8912H8.17765V36.0234Z" fill="#172647"/>
<path d="M8.26359 36.0234H8.17773V50.8912H8.26359V36.0234Z" fill="#172647"/>
<path d="M8.34953 36.0234H8.26367V50.8912H8.34953V36.0234Z" fill="#172647"/>
<path d="M8.43547 36.0234H8.34961V50.8912H8.43547V36.0234Z" fill="#172647"/>
<path d="M8.5214 36.0234H8.43555V50.8912H8.5214V36.0234Z" fill="#172647"/>
<path d="M8.60734 36.0234H8.52148V50.8912H8.60734V36.0234Z" fill="#172647"/>
<path d="M8.69328 36.0234H8.60742V50.8912H8.69328V36.0234Z" fill="#172647"/>
<path d="M8.75676 36.0234H8.6709V50.8912H8.75676V36.0234Z" fill="#172647"/>
<path d="M8.84269 36.0234H8.75684V50.8912H8.84269V36.0234Z" fill="#172647"/>
<path d="M8.92863 36.0234H8.84277V50.8912H8.92863V36.0234Z" fill="#172647"/>
<path d="M9.01457 36.0234H8.92871V50.8912H9.01457V36.0234Z" fill="#172647"/>
<path d="M9.10051 36.0234H9.01465V50.8912H9.10051V36.0234Z" fill="#172647"/>
<path d="M9.18644 36.0234H9.10059V50.8912H9.18644V36.0234Z" fill="#172647"/>
<path d="M9.27238 36.0234H9.18652V50.8912H9.27238V36.0234Z" fill="#172647"/>
<path d="M9.35832 36.0234H9.27246V50.8912H9.35832V36.0234Z" fill="#172647"/>
<path d="M9.44426 36.0234H9.3584V50.8912H9.44426V36.0234Z" fill="#172647"/>
<path d="M9.53019 36.0234H9.44434V50.8912H9.53019V36.0234Z" fill="#172647"/>
<path d="M9.61613 36.0234H9.53027V50.8912H9.61613V36.0234Z" fill="#172647"/>
<path d="M9.70207 36.0234H9.61621V50.8912H9.70207V36.0234Z" fill="#172647"/>
<path d="M9.76554 36.0234H9.67969V50.8912H9.76554V36.0234Z" fill="#172647"/>
<path d="M9.85148 36.0234H9.76562V50.8912H9.85148V36.0234Z" fill="#172647"/>
<path d="M9.93742 36.0234H9.85156V50.8912H9.93742V36.0234Z" fill="#172647"/>
<path d="M10.0234 36.0234H9.9375V50.8912H10.0234V36.0234Z" fill="#172647"/>
<path d="M10.1093 36.0234H10.0234V50.8912H10.1093V36.0234Z" fill="#172647"/>
<path d="M10.1952 36.0234H10.1094V50.8912H10.1952V36.0234Z" fill="#172647"/>
<path d="M10.2812 36.0234H10.1953V50.8912H10.2812V36.0234Z" fill="#172647"/>
<path d="M10.3671 36.0234H10.2812V50.8912H10.3671V36.0234Z" fill="#172647"/>
<path d="M10.453 36.0234H10.3672V50.8912H10.453V36.0234Z" fill="#172647"/>
<path d="M10.539 36.0234H10.4531V50.8912H10.539V36.0234Z" fill="#172647"/>
<path d="M10.6249 36.0234H10.5391V50.8912H10.6249V36.0234Z" fill="#172647"/>
<path d="M10.7109 36.0234H10.625V50.8912H10.7109V36.0234Z" fill="#172647"/>
<path d="M10.7968 36.0234H10.7109V50.8912H10.7968V36.0234Z" fill="#172647"/>
<path d="M10.8603 36.0234H10.7744V50.8912H10.8603V36.0234Z" fill="#172647"/>
<path d="M10.9462 36.0234H10.8604V50.8912H10.9462V36.0234Z" fill="#172647"/>
<path d="M11.0321 36.0234H10.9463V50.8912H11.0321V36.0234Z" fill="#172647"/>
<path d="M11.1181 36.0234H11.0322V50.8912H11.1181V36.0234Z" fill="#172647"/>
<path d="M11.204 36.0234H11.1182V50.8912H11.204V36.0234Z" fill="#172647"/>
<path d="M11.29 36.0234H11.2041V50.8912H11.29V36.0234Z" fill="#172647"/>
<path d="M11.3759 36.0234H11.29V50.8912H11.3759V36.0234Z" fill="#172647"/>
<path d="M11.4618 36.0234H11.376V50.8912H11.4618V36.0234Z" fill="#172647"/>
<path d="M11.5478 36.0234H11.4619V50.8912H11.5478V36.0234Z" fill="#172647"/>
<path d="M11.6337 36.0234H11.5479V50.8912H11.6337V36.0234Z" fill="#172647"/>
<path d="M11.7196 36.0234H11.6338V50.8912H11.7196V36.0234Z" fill="#172647"/>
<path d="M11.8056 36.0234H11.7197V50.8912H11.8056V36.0234Z" fill="#172647"/>
<path d="M11.8905 36.0234H11.8047V50.8912H11.8905V36.0234Z" fill="#172647"/>
<path d="M11.955 36.0234H11.8691V50.8912H11.955V36.0234Z" fill="#172647"/>
<path d="M12.0409 36.0234H11.9551V50.8912H12.0409V36.0234Z" fill="#172647"/>
<path d="M12.1269 36.0234H12.041V50.8912H12.1269V36.0234Z" fill="#172647"/>
<path d="M12.2128 36.0234H12.127V50.8912H12.2128V36.0234Z" fill="#172647"/>
<path d="M12.2987 36.0234H12.2129V50.8912H12.2987V36.0234Z" fill="#172647"/>
<path d="M12.3847 36.0234H12.2988V50.8912H12.3847V36.0234Z" fill="#172647"/>
<path d="M12.4706 36.0234H12.3848V50.8912H12.4706V36.0234Z" fill="#172647"/>
<path d="M12.5566 36.0234H12.4707V50.8912H12.5566V36.0234Z" fill="#172647"/>
<path d="M12.6425 36.0234H12.5566V50.8912H12.6425V36.0234Z" fill="#172647"/>
<path d="M12.7284 36.0234H12.6426V50.8912H12.7284V36.0234Z" fill="#172647"/>
<path d="M12.8144 36.0234H12.7285V50.8912H12.8144V36.0234Z" fill="#172647"/>
<path d="M12.8993 36.0234H12.8135V50.8912H12.8993V36.0234Z" fill="#172647"/>
<path d="M12.9853 36.0234H12.8994V50.8912H12.9853V36.0234Z" fill="#172647"/>
<path d="M13.0497 36.0234H12.9639V50.8912H13.0497V36.0234Z" fill="#172647"/>
</g>
<path d="M12.0626 50.9999H8.07026C7.46926 50.9999 6.97559 50.5029 6.97559 49.8762V37.0397C6.97559 36.413 7.46926 35.916 8.07026 35.916H12.0626C12.6636 35.916 13.1573 36.413 13.1573 37.0397V49.8762C13.1573 50.5029 12.6636 50.9999 12.0626 50.9999ZM8.07026 36.1321C7.57658 36.1321 7.16876 36.5427 7.16876 37.0397V49.8762C7.16876 50.3732 7.57658 50.7838 8.04879 50.7838H12.0411C12.5348 50.7838 12.9212 50.3732 12.9212 49.8762V37.0397C12.9212 36.5427 12.5133 36.1321 12.0411 36.1321H8.04879H8.07026ZM11.1611 48.9469H8.95029V37.9474H11.1611V48.9469ZM9.16493 48.7308H10.9465V38.1635H9.16493V48.7308Z" fill="white"/>
<mask id="mask5_5173_191" style="mask-type:luminance" maskUnits="userSpaceOnUse" x="15" y="31" width="7" height="20">
<path d="M20.0266 31.7441H16.0342C15.4762 31.7441 15.0469 32.198 15.0469 32.7598V49.8535C15.0469 50.4153 15.4976 50.8691 16.0342 50.8691H20.0266C20.5846 50.8691 21.0139 50.4153 21.0139 49.8535V32.7598C21.0139 32.198 20.5632 31.7441 20.0266 31.7441ZM19.0392 48.8378H17.043V33.7755H19.0392V48.8378Z" fill="white"/>
</mask>
<g mask="url(#mask5_5173_191)">
<path d="M17.0644 33.7754H17.043V48.8377H17.0644V33.7754Z" fill="#172647"/>
<path d="M17.1503 33.7754H17.0645V48.8377H17.1503V33.7754Z" fill="#172647"/>
<path d="M17.2362 33.7754H17.1504V48.8377H17.2362V33.7754Z" fill="#172647"/>
<path d="M17.3222 33.7754H17.2363V48.8377H17.3222V33.7754Z" fill="#172647"/>
<path d="M17.4081 33.7754H17.3223V48.8377H17.4081V33.7754Z" fill="#172647"/>
<path d="M17.4941 33.7754H17.4082V48.8377H17.4941V33.7754Z" fill="#172647"/>
<path d="M17.58 33.7754H17.4941V48.8377H17.58V33.7754Z" fill="#172647"/>
<path d="M17.6659 33.7754H17.5801V48.8377H17.6659V33.7754Z" fill="#172647"/>
<path d="M17.7509 33.7754H17.665V48.8377H17.7509V33.7754Z" fill="#172647"/>
<path d="M17.8368 33.7754H17.751V48.8377H17.8368V33.7754Z" fill="#172647"/>
<path d="M17.9228 33.7754H17.8369V48.8377H17.9228V33.7754Z" fill="#172647"/>
<path d="M18.0087 33.7754H17.9229V48.8377H18.0087V33.7754Z" fill="#172647"/>
<path d="M18.0732 33.7754H17.9873V48.8377H18.0732V33.7754Z" fill="#172647"/>
<path d="M18.1591 33.7754H18.0732V48.8377H18.1591V33.7754Z" fill="#172647"/>
<path d="M18.245 33.7754H18.1592V48.8377H18.245V33.7754Z" fill="#172647"/>
<path d="M18.331 33.7754H18.2451V48.8377H18.331V33.7754Z" fill="#172647"/>
<path d="M18.4169 33.7754H18.3311V48.8377H18.4169V33.7754Z" fill="#172647"/>
<path d="M18.5028 33.7754H18.417V48.8377H18.5028V33.7754Z" fill="#172647"/>
<path d="M18.5888 33.7754H18.5029V48.8377H18.5888V33.7754Z" fill="#172647"/>
<path d="M18.6747 33.7754H18.5889V48.8377H18.6747V33.7754Z" fill="#172647"/>
<path d="M18.7607 33.7754H18.6748V48.8377H18.7607V33.7754Z" fill="#172647"/>
<path d="M18.8456 33.7754H18.7598V48.8377H18.8456V33.7754Z" fill="#172647"/>
<path d="M18.9316 33.7754H18.8457V48.8377H18.9316V33.7754Z" fill="#172647"/>
<path d="M19.0175 33.7754H18.9316V48.8377H19.0175V33.7754Z" fill="#172647"/>
<path d="M19.039 33.7754H19.0176V48.8377H19.039V33.7754Z" fill="#172647"/>
<path d="M15.1327 31.7441H15.0469V50.8908H15.1327V31.7441Z" fill="#172647"/>
<path d="M15.2187 31.7441H15.1328V50.8908H15.2187V31.7441Z" fill="#172647"/>
<path d="M15.3046 31.7441H15.2188V50.8908H15.3046V31.7441Z" fill="#172647"/>
<path d="M15.3905 31.7441H15.3047V50.8908H15.3905V31.7441Z" fill="#172647"/>
<path d="M15.4765 31.7441H15.3906V50.8908H15.4765V31.7441Z" fill="#172647"/>
<path d="M15.5624 31.7441H15.4766V50.8908H15.5624V31.7441Z" fill="#172647"/>
<path d="M15.6484 31.7441H15.5625V50.8908H15.6484V31.7441Z" fill="#172647"/>
<path d="M15.7333 31.7441H15.6475V50.8908H15.7333V31.7441Z" fill="#172647"/>
<path d="M15.8193 31.7441H15.7334V50.8908H15.8193V31.7441Z" fill="#172647"/>
<path d="M15.9052 31.7441H15.8193V50.8908H15.9052V31.7441Z" fill="#172647"/>
<path d="M15.9696 31.7441H15.8838V50.8908H15.9696V31.7441Z" fill="#172647"/>
<path d="M16.0556 31.7441H15.9697V50.8908H16.0556V31.7441Z" fill="#172647"/>
<path d="M16.1415 31.7441H16.0557V50.8908H16.1415V31.7441Z" fill="#172647"/>
<path d="M16.2275 31.7441H16.1416V50.8908H16.2275V31.7441Z" fill="#172647"/>
<path d="M16.3134 31.7441H16.2275V50.8908H16.3134V31.7441Z" fill="#172647"/>
<path d="M16.3993 31.7441H16.3135V50.8908H16.3993V31.7441Z" fill="#172647"/>
<path d="M16.4853 31.7441H16.3994V50.8908H16.4853V31.7441Z" fill="#172647"/>
<path d="M16.5712 31.7441H16.4854V50.8908H16.5712V31.7441Z" fill="#172647"/>
<path d="M16.6571 31.7441H16.5713V50.8908H16.6571V31.7441Z" fill="#172647"/>
<path d="M16.7421 31.7441H16.6562V50.8908H16.7421V31.7441Z" fill="#172647"/>
<path d="M16.828 31.7441H16.7422V50.8908H16.828V31.7441Z" fill="#172647"/>
<path d="M16.914 31.7441H16.8281V50.8908H16.914V31.7441Z" fill="#172647"/>
<path d="M16.9784 31.7441H16.8926V50.8908H16.9784V31.7441Z" fill="#172647"/>
<path d="M17.0644 31.7441H16.9785V50.8908H17.0644V31.7441Z" fill="#172647"/>
<path d="M17.1503 31.7441H17.0645V50.8908H17.1503V31.7441Z" fill="#172647"/>
<path d="M17.2362 31.7441H17.1504V50.8908H17.2362V31.7441Z" fill="#172647"/>
<path d="M17.3222 31.7441H17.2363V50.8908H17.3222V31.7441Z" fill="#172647"/>
<path d="M17.4081 31.7441H17.3223V50.8908H17.4081V31.7441Z" fill="#172647"/>
<path d="M17.4941 31.7441H17.4082V50.8908H17.4941V31.7441Z" fill="#172647"/>
<path d="M17.58 31.7441H17.4941V50.8908H17.58V31.7441Z" fill="#172647"/>
<path d="M17.6659 31.7441H17.5801V50.8908H17.6659V31.7441Z" fill="#172647"/>
<path d="M17.7509 31.7441H17.665V50.8908H17.7509V31.7441Z" fill="#172647"/>
<path d="M17.8368 31.7441H17.751V50.8908H17.8368V31.7441Z" fill="#172647"/>
<path d="M17.9228 31.7441H17.8369V50.8908H17.9228V31.7441Z" fill="#172647"/>
<path d="M18.0087 31.7441H17.9229V50.8908H18.0087V31.7441Z" fill="#172647"/>
<path d="M18.0732 31.7441H17.9873V50.8908H18.0732V31.7441Z" fill="#172647"/>
<path d="M18.1591 31.7441H18.0732V50.8908H18.1591V31.7441Z" fill="#172647"/>
<path d="M18.245 31.7441H18.1592V50.8908H18.245V31.7441Z" fill="#172647"/>
<path d="M18.331 31.7441H18.2451V50.8908H18.331V31.7441Z" fill="#172647"/>
<path d="M18.4169 31.7441H18.3311V50.8908H18.4169V31.7441Z" fill="#172647"/>
<path d="M18.5028 31.7441H18.417V50.8908H18.5028V31.7441Z" fill="#172647"/>
<path d="M18.5888 31.7441H18.5029V50.8908H18.5888V31.7441Z" fill="#172647"/>
<path d="M18.6747 31.7441H18.5889V50.8908H18.6747V31.7441Z" fill="#172647"/>
<path d="M18.7607 31.7441H18.6748V50.8908H18.7607V31.7441Z" fill="#172647"/>
<path d="M18.8456 31.7441H18.7598V50.8908H18.8456V31.7441Z" fill="#172647"/>
<path d="M18.9316 31.7441H18.8457V50.8908H18.9316V31.7441Z" fill="#172647"/>
<path d="M19.0175 31.7441H18.9316V50.8908H19.0175V31.7441Z" fill="#172647"/>
<path d="M19.1034 31.7441H19.0176V50.8908H19.1034V31.7441Z" fill="#172647"/>
<path d="M19.1679 31.7441H19.082V50.8908H19.1679V31.7441Z" fill="#172647"/>
<path d="M19.2538 31.7441H19.168V50.8908H19.2538V31.7441Z" fill="#172647"/>
<path d="M19.3398 31.7441H19.2539V50.8908H19.3398V31.7441Z" fill="#172647"/>
<path d="M19.4257 31.7441H19.3398V50.8908H19.4257V31.7441Z" fill="#172647"/>
<path d="M19.5116 31.7441H19.4258V50.8908H19.5116V31.7441Z" fill="#172647"/>
<path d="M19.5976 31.7441H19.5117V50.8908H19.5976V31.7441Z" fill="#172647"/>
<path d="M19.6835 31.7441H19.5977V50.8908H19.6835V31.7441Z" fill="#172647"/>
<path d="M19.7695 31.7441H19.6836V50.8908H19.7695V31.7441Z" fill="#172647"/>
<path d="M19.8544 31.7441H19.7686V50.8908H19.8544V31.7441Z" fill="#172647"/>
<path d="M19.9403 31.7441H19.8545V50.8908H19.9403V31.7441Z" fill="#172647"/>
<path d="M20.0263 31.7441H19.9404V50.8908H20.0263V31.7441Z" fill="#172647"/>
<path d="M20.1122 31.7441H20.0264V50.8908H20.1122V31.7441Z" fill="#172647"/>
<path d="M20.1982 31.7441H20.1123V50.8908H20.1982V31.7441Z" fill="#172647"/>
<path d="M20.2626 31.7441H20.1768V50.8908H20.2626V31.7441Z" fill="#172647"/>
<path d="M20.3486 31.7441H20.2627V50.8908H20.3486V31.7441Z" fill="#172647"/>
<path d="M20.4345 31.7441H20.3486V50.8908H20.4345V31.7441Z" fill="#172647"/>
<path d="M20.5204 31.7441H20.4346V50.8908H20.5204V31.7441Z" fill="#172647"/>
<path d="M20.6064 31.7441H20.5205V50.8908H20.6064V31.7441Z" fill="#172647"/>
<path d="M20.6923 31.7441H20.6064V50.8908H20.6923V31.7441Z" fill="#172647"/>
<path d="M20.7782 31.7441H20.6924V50.8908H20.7782V31.7441Z" fill="#172647"/>
<path d="M20.8632 31.7441H20.7773V50.8908H20.8632V31.7441Z" fill="#172647"/>
<path d="M20.9491 31.7441H20.8633V50.8908H20.9491V31.7441Z" fill="#172647"/>
<path d="M21.0351 31.7441H20.9492V50.8908H21.0351V31.7441Z" fill="#172647"/>
</g>
<path d="M20.0265 50.9993H16.0341C15.4331 50.9993 14.9395 50.5023 14.9395 49.8756V32.7819C14.9395 32.1552 15.4331 31.6582 16.0341 31.6582H20.0265C20.6275 31.6582 21.1211 32.1552 21.1211 32.7819V49.8756C21.1211 50.5023 20.6275 50.9993 20.0265 50.9993ZM16.0341 31.8527C15.5404 31.8527 15.1541 32.2633 15.1326 32.7603V49.854C15.1326 50.351 15.5404 50.7616 16.0127 50.7616H20.005C20.4987 50.7616 20.885 50.351 20.885 49.854V32.7603C20.885 32.2633 20.4772 31.8527 20.005 31.8527H16.0127H16.0341ZM19.125 48.9463H16.9142V33.6679H19.125V48.9463ZM17.1288 48.7302H18.9103V33.8841H17.1288V48.7302Z" fill="white"/>
<mask id="mask6_5173_191" style="mask-type:luminance" maskUnits="userSpaceOnUse" x="23" y="27" width="6" height="24">
<path d="M28.0109 27.4668H24.0186C23.4605 27.4668 23.0312 27.9206 23.0312 28.4825V49.8549C23.0312 50.4168 23.482 50.8706 24.0186 50.8706H28.0109C28.569 50.8706 28.9983 50.4168 28.9983 49.8549V28.4825C28.9983 27.9206 28.5475 27.4668 28.0109 27.4668ZM27.0236 48.8393H25.0274V29.4982H27.0236V48.8393Z" fill="white"/>
</mask>
<g mask="url(#mask6_5173_191)">
<path d="M25.0273 29.498H25.0059V48.8392H25.0273V29.498Z" fill="#172647"/>
<path d="M25.1347 29.498H25.0488V48.8392H25.1347V29.498Z" fill="#172647"/>
<path d="M25.2206 29.498H25.1348V48.8392H25.2206V29.498Z" fill="#172647"/>
<path d="M25.2851 29.498H25.1992V48.8392H25.2851V29.498Z" fill="#172647"/>
<path d="M25.371 29.498H25.2852V48.8392H25.371V29.498Z" fill="#172647"/>
<path d="M25.457 29.498H25.3711V48.8392H25.457V29.498Z" fill="#172647"/>
<path d="M25.5429 29.498H25.457V48.8392H25.5429V29.498Z" fill="#172647"/>
<path d="M25.6288 29.498H25.543V48.8392H25.6288V29.498Z" fill="#172647"/>
<path d="M25.7138 29.498H25.6279V48.8392H25.7138V29.498Z" fill="#172647"/>
<path d="M25.7997 29.498H25.7139V48.8392H25.7997V29.498Z" fill="#172647"/>
<path d="M25.8857 29.498H25.7998V48.8392H25.8857V29.498Z" fill="#172647"/>
<path d="M25.9716 29.498H25.8857V48.8392H25.9716V29.498Z" fill="#172647"/>
<path d="M26.0575 29.498H25.9717V48.8392H26.0575V29.498Z" fill="#172647"/>
<path d="M26.1435 29.498H26.0576V48.8392H26.1435V29.498Z" fill="#172647"/>
<path d="M26.2294 29.498H26.1436V48.8392H26.2294V29.498Z" fill="#172647"/>
<path d="M26.3153 29.498H26.2295V48.8392H26.3153V29.498Z" fill="#172647"/>
<path d="M26.3798 29.498H26.2939V48.8392H26.3798V29.498Z" fill="#172647"/>
<path d="M26.4657 29.498H26.3799V48.8392H26.4657V29.498Z" fill="#172647"/>
<path d="M26.5517 29.498H26.4658V48.8392H26.5517V29.498Z" fill="#172647"/>
<path d="M26.6376 29.498H26.5518V48.8392H26.6376V29.498Z" fill="#172647"/>
<path d="M26.7236 29.498H26.6377V48.8392H26.7236V29.498Z" fill="#172647"/>
<path d="M26.8085 29.498H26.7227V48.8392H26.8085V29.498Z" fill="#172647"/>
<path d="M26.8945 29.498H26.8086V48.8392H26.8945V29.498Z" fill="#172647"/>
<path d="M26.9804 29.498H26.8945V48.8392H26.9804V29.498Z" fill="#172647"/>
<path d="M27.0019 29.498H26.9805V48.8392H27.0019V29.498Z" fill="#172647"/>
<path d="M23.1171 27.4668H23.0312V50.8706H23.1171V27.4668Z" fill="#172647"/>
<path d="M23.1816 27.4668H23.0957V50.8706H23.1816V27.4668Z" fill="#172647"/>
<path d="M23.2675 27.4668H23.1816V50.8706H23.2675V27.4668Z" fill="#172647"/>
<path d="M23.3534 27.4668H23.2676V50.8706H23.3534V27.4668Z" fill="#172647"/>
<path d="M23.4394 27.4668H23.3535V50.8706H23.4394V27.4668Z" fill="#172647"/>
<path d="M23.5253 27.4668H23.4395V50.8706H23.5253V27.4668Z" fill="#172647"/>
<path d="M23.6112 27.4668H23.5254V50.8706H23.6112V27.4668Z" fill="#172647"/>
<path d="M23.6962 27.4668H23.6104V50.8706H23.6962V27.4668Z" fill="#172647"/>
<path d="M23.7821 27.4668H23.6963V50.8706H23.7821V27.4668Z" fill="#172647"/>
<path d="M23.8681 27.4668H23.7822V50.8706H23.8681V27.4668Z" fill="#172647"/>
<path d="M23.954 27.4668H23.8682V50.8706H23.954V27.4668Z" fill="#172647"/>
<path d="M24.04 27.4668H23.9541V50.8706H24.04V27.4668Z" fill="#172647"/>
<path d="M24.1259 27.4668H24.04V50.8706H24.1259V27.4668Z" fill="#172647"/>
<path d="M24.1904 27.4668H24.1045V50.8706H24.1904V27.4668Z" fill="#172647"/>
<path d="M24.2763 27.4668H24.1904V50.8706H24.2763V27.4668Z" fill="#172647"/>
<path d="M24.3622 27.4668H24.2764V50.8706H24.3622V27.4668Z" fill="#172647"/>
<path d="M24.4482 27.4668H24.3623V50.8706H24.4482V27.4668Z" fill="#172647"/>
<path d="M24.5341 27.4668H24.4482V50.8706H24.5341V27.4668Z" fill="#172647"/>
<path d="M24.62 27.4668H24.5342V50.8706H24.62V27.4668Z" fill="#172647"/>
<path d="M24.705 27.4668H24.6191V50.8706H24.705V27.4668Z" fill="#172647"/>
<path d="M24.7909 27.4668H24.7051V50.8706H24.7909V27.4668Z" fill="#172647"/>
<path d="M24.8769 27.4668H24.791V50.8706H24.8769V27.4668Z" fill="#172647"/>
<path d="M24.9628 27.4668H24.877V50.8706H24.9628V27.4668Z" fill="#172647"/>
<path d="M25.0487 27.4668H24.9629V50.8706H25.0487V27.4668Z" fill="#172647"/>
<path d="M25.1347 27.4668H25.0488V50.8706H25.1347V27.4668Z" fill="#172647"/>
<path d="M25.2206 27.4668H25.1348V50.8706H25.2206V27.4668Z" fill="#172647"/>
<path d="M25.2851 27.4668H25.1992V50.8706H25.2851V27.4668Z" fill="#172647"/>
<path d="M25.371 27.4668H25.2852V50.8706H25.371V27.4668Z" fill="#172647"/>
<path d="M25.457 27.4668H25.3711V50.8706H25.457V27.4668Z" fill="#172647"/>
<path d="M25.5429 27.4668H25.457V50.8706H25.5429V27.4668Z" fill="#172647"/>
<path d="M25.6288 27.4668H25.543V50.8706H25.6288V27.4668Z" fill="#172647"/>
<path d="M25.7138 27.4668H25.6279V50.8706H25.7138V27.4668Z" fill="#172647"/>
<path d="M25.7997 27.4668H25.7139V50.8706H25.7997V27.4668Z" fill="#172647"/>
<path d="M25.8857 27.4668H25.7998V50.8706H25.8857V27.4668Z" fill="#172647"/>
<path d="M25.9716 27.4668H25.8857V50.8706H25.9716V27.4668Z" fill="#172647"/>
<path d="M26.0575 27.4668H25.9717V50.8706H26.0575V27.4668Z" fill="#172647"/>
<path d="M26.1435 27.4668H26.0576V50.8706H26.1435V27.4668Z" fill="#172647"/>
<path d="M26.2294 27.4668H26.1436V50.8706H26.2294V27.4668Z" fill="#172647"/>
<path d="M26.3153 27.4668H26.2295V50.8706H26.3153V27.4668Z" fill="#172647"/>
<path d="M26.3798 27.4668H26.2939V50.8706H26.3798V27.4668Z" fill="#172647"/>
<path d="M26.4657 27.4668H26.3799V50.8706H26.4657V27.4668Z" fill="#172647"/>
<path d="M26.5517 27.4668H26.4658V50.8706H26.5517V27.4668Z" fill="#172647"/>
<path d="M26.6376 27.4668H26.5518V50.8706H26.6376V27.4668Z" fill="#172647"/>
<path d="M26.7236 27.4668H26.6377V50.8706H26.7236V27.4668Z" fill="#172647"/>
<path d="M26.8085 27.4668H26.7227V50.8706H26.8085V27.4668Z" fill="#172647"/>
<path d="M26.8945 27.4668H26.8086V50.8706H26.8945V27.4668Z" fill="#172647"/>
<path d="M26.9804 27.4668H26.8945V50.8706H26.9804V27.4668Z" fill="#172647"/>
<path d="M27.0663 27.4668H26.9805V50.8706H27.0663V27.4668Z" fill="#172647"/>
<path d="M27.1523 27.4668H27.0664V50.8706H27.1523V27.4668Z" fill="#172647"/>
<path d="M27.2382 27.4668H27.1523V50.8706H27.2382V27.4668Z" fill="#172647"/>
<path d="M27.3241 27.4668H27.2383V50.8706H27.3241V27.4668Z" fill="#172647"/>
<path d="M27.4101 27.4668H27.3242V50.8706H27.4101V27.4668Z" fill="#172647"/>
<path d="M27.4745 27.4668H27.3887V50.8706H27.4745V27.4668Z" fill="#172647"/>
<path d="M27.5605 27.4668H27.4746V50.8706H27.5605V27.4668Z" fill="#172647"/>
<path d="M27.6464 27.4668H27.5605V50.8706H27.6464V27.4668Z" fill="#172647"/>
<path d="M27.7323 27.4668H27.6465V50.8706H27.7323V27.4668Z" fill="#172647"/>
<path d="M27.8173 27.4668H27.7314V50.8706H27.8173V27.4668Z" fill="#172647"/>
<path d="M27.9032 27.4668H27.8174V50.8706H27.9032V27.4668Z" fill="#172647"/>
<path d="M27.9892 27.4668H27.9033V50.8706H27.9892V27.4668Z" fill="#172647"/>
<path d="M28.0751 27.4668H27.9893V50.8706H28.0751V27.4668Z" fill="#172647"/>
<path d="M28.1611 27.4668H28.0752V50.8706H28.1611V27.4668Z" fill="#172647"/>
<path d="M28.247 27.4668H28.1611V50.8706H28.247V27.4668Z" fill="#172647"/>
<path d="M28.3329 27.4668H28.2471V50.8706H28.3329V27.4668Z" fill="#172647"/>
<path d="M28.4189 27.4668H28.333V50.8706H28.4189V27.4668Z" fill="#172647"/>
<path d="M28.5048 27.4668H28.4189V50.8706H28.5048V27.4668Z" fill="#172647"/>
<path d="M28.5693 27.4668H28.4834V50.8706H28.5693V27.4668Z" fill="#172647"/>
<path d="M28.6552 27.4668H28.5693V50.8706H28.6552V27.4668Z" fill="#172647"/>
<path d="M28.7411 27.4668H28.6553V50.8706H28.7411V27.4668Z" fill="#172647"/>
<path d="M28.8261 27.4668H28.7402V50.8706H28.8261V27.4668Z" fill="#172647"/>
<path d="M28.912 27.4668H28.8262V50.8706H28.912V27.4668Z" fill="#172647"/>
<path d="M28.998 27.4668H28.9121V50.8706H28.998V27.4668Z" fill="#172647"/>
</g>
<path d="M28.0108 51.0009H24.0185C23.4175 51.0009 22.9238 50.5039 22.9238 49.8772V28.4831C22.9238 27.8564 23.4175 27.3594 24.0185 27.3594H28.0108C28.6118 27.3594 29.1055 27.878 29.1055 28.4831V49.8556C29.1055 50.4823 28.6118 50.9793 28.0108 50.9793V51.0009ZM24.0185 27.5971C23.5248 27.5971 23.1385 28.0077 23.117 28.5047V49.8772C23.117 50.3742 23.5248 50.7848 23.997 50.7848H27.9894C28.483 50.7848 28.8694 50.3742 28.8694 49.8772V28.4831C28.8694 27.9861 28.4616 27.5755 27.9894 27.5755H23.997L24.0185 27.5971ZM27.1093 48.9695H24.8985V29.3907H27.1093V48.9479V48.9695ZM25.1132 48.7534H26.8947V29.6068H25.1132V48.7318V48.7534Z" fill="white"/>
<mask id="mask7_5173_191" style="mask-type:luminance" maskUnits="userSpaceOnUse" x="30" y="36" width="7" height="15">
<path d="M35.9738 36.0234H31.9815C31.4234 36.0234 30.9941 36.4772 30.9941 37.0391V49.8756C30.9941 50.4374 31.4449 50.8912 31.9815 50.8912H35.9738C36.5319 50.8912 36.9612 50.4374 36.9612 49.8756V37.0391C36.9612 36.4772 36.5104 36.0234 35.9738 36.0234ZM34.9865 48.8383H32.9903V38.0548H34.9865V48.8383Z" fill="white"/>
</mask>
<g mask="url(#mask7_5173_191)">
<path d="M33.0117 38.0547H32.9902V48.8382H33.0117V38.0547Z" fill="#172647"/>
<path d="M33.0976 38.0547H33.0117V48.8382H33.0976V38.0547Z" fill="#172647"/>
<path d="M33.1835 38.0547H33.0977V48.8382H33.1835V38.0547Z" fill="#172647"/>
<path d="M33.2695 38.0547H33.1836V48.8382H33.2695V38.0547Z" fill="#172647"/>
<path d="M33.3554 38.0547H33.2695V48.8382H33.3554V38.0547Z" fill="#172647"/>
<path d="M33.4413 38.0547H33.3555V48.8382H33.4413V38.0547Z" fill="#172647"/>
<path d="M33.5273 38.0547H33.4414V48.8382H33.5273V38.0547Z" fill="#172647"/>
<path d="M33.5917 38.0547H33.5059V48.8382H33.5917V38.0547Z" fill="#172647"/>
<path d="M33.6767 38.0547H33.5908V48.8382H33.6767V38.0547Z" fill="#172647"/>
<path d="M33.7626 38.0547H33.6768V48.8382H33.7626V38.0547Z" fill="#172647"/>
<path d="M33.8486 38.0547H33.7627V48.8382H33.8486V38.0547Z" fill="#172647"/>
<path d="M33.9345 38.0547H33.8486V48.8382H33.9345V38.0547Z" fill="#172647"/>
<path d="M34.0204 38.0547H33.9346V48.8382H34.0204V38.0547Z" fill="#172647"/>
<path d="M34.1064 38.0547H34.0205V48.8382H34.1064V38.0547Z" fill="#172647"/>
<path d="M34.1923 38.0547H34.1064V48.8382H34.1923V38.0547Z" fill="#172647"/>
<path d="M34.2782 38.0547H34.1924V48.8382H34.2782V38.0547Z" fill="#172647"/>
<path d="M34.3642 38.0547H34.2783V48.8382H34.3642V38.0547Z" fill="#172647"/>
<path d="M34.4501 38.0547H34.3643V48.8382H34.4501V38.0547Z" fill="#172647"/>
<path d="M34.5361 38.0547H34.4502V48.8382H34.5361V38.0547Z" fill="#172647"/>
<path d="M34.622 38.0547H34.5361V48.8382H34.622V38.0547Z" fill="#172647"/>
<path d="M34.6864 38.0547H34.6006V48.8382H34.6864V38.0547Z" fill="#172647"/>
<path d="M34.7714 38.0547H34.6855V48.8382H34.7714V38.0547Z" fill="#172647"/>
<path d="M34.8573 38.0547H34.7715V48.8382H34.8573V38.0547Z" fill="#172647"/>
<path d="M34.9433 38.0547H34.8574V48.8382H34.9433V38.0547Z" fill="#172647"/>
<path d="M34.9648 38.0547H34.9434V48.8382H34.9648V38.0547Z" fill="#172647"/>
<path d="M31.08 36.0234H30.9941V50.8912H31.08V36.0234Z" fill="#172647"/>
<path d="M31.1659 36.0234H31.0801V50.8912H31.1659V36.0234Z" fill="#172647"/>
<path d="M31.2519 36.0234H31.166V50.8912H31.2519V36.0234Z" fill="#172647"/>
<path d="M31.3378 36.0234H31.252V50.8912H31.3378V36.0234Z" fill="#172647"/>
<path d="M31.4023 36.0234H31.3164V50.8912H31.4023V36.0234Z" fill="#172647"/>
<path d="M31.4882 36.0234H31.4023V50.8912H31.4882V36.0234Z" fill="#172647"/>
<path d="M31.5741 36.0234H31.4883V50.8912H31.5741V36.0234Z" fill="#172647"/>
<path d="M31.6591 36.0234H31.5732V50.8912H31.6591V36.0234Z" fill="#172647"/>
<path d="M31.745 36.0234H31.6592V50.8912H31.745V36.0234Z" fill="#172647"/>
<path d="M31.831 36.0234H31.7451V50.8912H31.831V36.0234Z" fill="#172647"/>
<path d="M31.9169 36.0234H31.8311V50.8912H31.9169V36.0234Z" fill="#172647"/>
<path d="M32.0028 36.0234H31.917V50.8912H32.0028V36.0234Z" fill="#172647"/>
<path d="M32.0888 36.0234H32.0029V50.8912H32.0888V36.0234Z" fill="#172647"/>
<path d="M32.1747 36.0234H32.0889V50.8912H32.1747V36.0234Z" fill="#172647"/>
<path d="M32.2607 36.0234H32.1748V50.8912H32.2607V36.0234Z" fill="#172647"/>
<path d="M32.3466 36.0234H32.2607V50.8912H32.3466V36.0234Z" fill="#172647"/>
<path d="M32.4325 36.0234H32.3467V50.8912H32.4325V36.0234Z" fill="#172647"/>
<path d="M32.497 36.0234H32.4111V50.8912H32.497V36.0234Z" fill="#172647"/>
<path d="M32.5829 36.0234H32.4971V50.8912H32.5829V36.0234Z" fill="#172647"/>
<path d="M32.6679 36.0234H32.582V50.8912H32.6679V36.0234Z" fill="#172647"/>
<path d="M32.7538 36.0234H32.668V50.8912H32.7538V36.0234Z" fill="#172647"/>
<path d="M32.8398 36.0234H32.7539V50.8912H32.8398V36.0234Z" fill="#172647"/>
<path d="M32.9257 36.0234H32.8398V50.8912H32.9257V36.0234Z" fill="#172647"/>
<path d="M33.0116 36.0234H32.9258V50.8912H33.0116V36.0234Z" fill="#172647"/>
<path d="M33.0976 36.0234H33.0117V50.8912H33.0976V36.0234Z" fill="#172647"/>
<path d="M33.1835 36.0234H33.0977V50.8912H33.1835V36.0234Z" fill="#172647"/>
<path d="M33.2695 36.0234H33.1836V50.8912H33.2695V36.0234Z" fill="#172647"/>
<path d="M33.3554 36.0234H33.2695V50.8912H33.3554V36.0234Z" fill="#172647"/>
<path d="M33.4413 36.0234H33.3555V50.8912H33.4413V36.0234Z" fill="#172647"/>
<path d="M33.5273 36.0234H33.4414V50.8912H33.5273V36.0234Z" fill="#172647"/>
<path d="M33.5917 36.0234H33.5059V50.8912H33.5917V36.0234Z" fill="#172647"/>
<path d="M33.6767 36.0234H33.5908V50.8912H33.6767V36.0234Z" fill="#172647"/>
<path d="M33.7626 36.0234H33.6768V50.8912H33.7626V36.0234Z" fill="#172647"/>
<path d="M33.8486 36.0234H33.7627V50.8912H33.8486V36.0234Z" fill="#172647"/>
<path d="M33.9345 36.0234H33.8486V50.8912H33.9345V36.0234Z" fill="#172647"/>
<path d="M34.0204 36.0234H33.9346V50.8912H34.0204V36.0234Z" fill="#172647"/>
<path d="M34.1064 36.0234H34.0205V50.8912H34.1064V36.0234Z" fill="#172647"/>
<path d="M34.1923 36.0234H34.1064V50.8912H34.1923V36.0234Z" fill="#172647"/>
<path d="M34.2782 36.0234H34.1924V50.8912H34.2782V36.0234Z" fill="#172647"/>
<path d="M34.3642 36.0234H34.2783V50.8912H34.3642V36.0234Z" fill="#172647"/>
<path d="M34.4501 36.0234H34.3643V50.8912H34.4501V36.0234Z" fill="#172647"/>
<path d="M34.5361 36.0234H34.4502V50.8912H34.5361V36.0234Z" fill="#172647"/>
<path d="M34.622 36.0234H34.5361V50.8912H34.622V36.0234Z" fill="#172647"/>
<path d="M34.6864 36.0234H34.6006V50.8912H34.6864V36.0234Z" fill="#172647"/>
<path d="M34.7714 36.0234H34.6855V50.8912H34.7714V36.0234Z" fill="#172647"/>
<path d="M34.8573 36.0234H34.7715V50.8912H34.8573V36.0234Z" fill="#172647"/>
<path d="M34.9433 36.0234H34.8574V50.8912H34.9433V36.0234Z" fill="#172647"/>
<path d="M35.0292 36.0234H34.9434V50.8912H35.0292V36.0234Z" fill="#172647"/>
<path d="M35.1152 36.0234H35.0293V50.8912H35.1152V36.0234Z" fill="#172647"/>
<path d="M35.2011 36.0234H35.1152V50.8912H35.2011V36.0234Z" fill="#172647"/>
<path d="M35.287 36.0234H35.2012V50.8912H35.287V36.0234Z" fill="#172647"/>
<path d="M35.373 36.0234H35.2871V50.8912H35.373V36.0234Z" fill="#172647"/>
<path d="M35.4589 36.0234H35.373V50.8912H35.4589V36.0234Z" fill="#172647"/>
<path d="M35.5448 36.0234H35.459V50.8912H35.5448V36.0234Z" fill="#172647"/>
<path d="M35.6308 36.0234H35.5449V50.8912H35.6308V36.0234Z" fill="#172647"/>
<path d="M35.7167 36.0234H35.6309V50.8912H35.7167V36.0234Z" fill="#172647"/>
<path d="M35.7802 36.0234H35.6943V50.8912H35.7802V36.0234Z" fill="#172647"/>
<path d="M35.8661 36.0234H35.7803V50.8912H35.8661V36.0234Z" fill="#172647"/>
<path d="M35.9521 36.0234H35.8662V50.8912H35.9521V36.0234Z" fill="#172647"/>
<path d="M36.038 36.0234H35.9521V50.8912H36.038V36.0234Z" fill="#172647"/>
<path d="M36.1239 36.0234H36.0381V50.8912H36.1239V36.0234Z" fill="#172647"/>
<path d="M36.2099 36.0234H36.124V50.8912H36.2099V36.0234Z" fill="#172647"/>
<path d="M36.2958 36.0234H36.21V50.8912H36.2958V36.0234Z" fill="#172647"/>
<path d="M36.3818 36.0234H36.2959V50.8912H36.3818V36.0234Z" fill="#172647"/>
<path d="M36.4677 36.0234H36.3818V50.8912H36.4677V36.0234Z" fill="#172647"/>
<path d="M36.5536 36.0234H36.4678V50.8912H36.5536V36.0234Z" fill="#172647"/>
<path d="M36.6396 36.0234H36.5537V50.8912H36.6396V36.0234Z" fill="#172647"/>
<path d="M36.7255 36.0234H36.6396V50.8912H36.7255V36.0234Z" fill="#172647"/>
<path d="M36.8105 36.0234H36.7246V50.8912H36.8105V36.0234Z" fill="#172647"/>
<path d="M36.8749 36.0234H36.7891V50.8912H36.8749V36.0234Z" fill="#172647"/>
<path d="M36.9609 36.0234H36.875V50.8912H36.9609V36.0234Z" fill="#172647"/>
</g>
<path d="M35.9737 50.9999H31.9814C31.6809 50.9999 31.4019 50.8919 31.2087 50.6758C31.0155 50.4597 30.8867 50.1787 30.8867 49.8762V37.0397C30.8867 36.413 31.3804 35.916 31.9814 35.916H35.9737C36.5747 35.916 37.0684 36.413 37.0684 37.0397V49.8762C37.0684 50.5029 36.5747 50.9999 35.9737 50.9999ZM31.9814 36.1321C31.4877 36.1321 31.1014 36.5427 31.1014 37.0397V49.8762C31.1014 50.1139 31.1872 50.3516 31.3589 50.5245C31.5306 50.6974 31.7453 50.7838 31.9814 50.7838H35.9737C36.4674 50.7838 36.8538 50.3732 36.8538 49.8762V37.0397C36.8538 36.5427 36.4459 36.1321 35.9737 36.1321H31.9814ZM35.0722 48.9469H32.8614V37.9474H35.0722V48.9469ZM33.0761 48.7308H34.8576V38.1635H33.0761V48.7308Z" fill="white"/>
</g>
<defs>
<clipPath id="clip0_5173_191">
<rect width="56" height="51" fill="white"/>
</clipPath>
</defs>
</svg>
