<svg width="53" height="53" viewBox="0 0 53 53" fill="none" xmlns="http://www.w3.org/2000/svg">
<g clip-path="url(#clip0_5170_167)">
<path d="M15.9827 15.8549C15.9827 15.494 16.2733 15.2009 16.631 15.2009H21.1687C21.5264 15.2009 21.817 15.494 21.817 15.8549C21.817 16.2157 21.5264 16.5089 21.1687 16.5089H16.631C16.2733 16.5089 15.9827 16.2157 15.9827 15.8549ZM26.7571 21.0647H16.631C16.2733 21.0647 15.9827 21.3579 15.9827 21.7187C15.9827 22.0796 16.2733 22.3728 16.631 22.3728H26.7794C27.1371 22.3728 27.4277 22.0796 27.4277 21.7187C27.4277 21.3579 27.1371 21.0647 26.7794 21.0647H26.7571ZM26.7571 25.8234H16.631C16.2733 25.8234 15.9827 26.1166 15.9827 26.4774C15.9827 26.8383 16.2733 27.1315 16.631 27.1315H26.7794C27.1371 27.1315 27.4277 26.8383 27.4277 26.4774C27.4277 26.1166 27.1371 25.8234 26.7794 25.8234H26.7571ZM26.7571 30.5821H16.631C16.2733 30.5821 15.9827 30.8753 15.9827 31.2362C15.9827 31.597 16.2733 31.8902 16.631 31.8902H26.7794C27.1371 31.8902 27.4277 31.597 27.4277 31.2362C27.4277 30.8753 27.1371 30.5821 26.7794 30.5821H26.7571ZM26.7571 35.3409H16.631C16.2733 35.3409 15.9827 35.634 15.9827 35.9949C15.9827 36.3557 16.2733 36.6489 16.631 36.6489H26.7794C27.1371 36.6489 27.4277 36.3557 27.4277 35.9949C27.4277 35.634 27.1371 35.3409 26.7794 35.3409H26.7571ZM41.2197 27.1315H36.2349V41.5881C36.2349 42.9413 37.3079 44.0238 38.6044 44.0238H43.2539C42.2704 43.2345 41.6445 42.0392 41.6445 40.6634C41.6445 38.2953 43.5445 36.3783 45.8916 36.3783C48.2387 36.3783 50.1388 38.2953 50.1388 40.6634C50.1388 42.1294 49.4011 43.4149 48.2834 44.2043C50.7423 44.8357 52.6647 46.9557 52.9553 49.617C53.0447 50.4966 52.7988 51.3085 52.2176 51.9626C51.6364 52.6166 50.8764 52.9774 49.9823 52.9774H41.7786C40.9068 52.9774 40.1244 52.6391 39.5432 51.9626C38.962 51.286 38.7162 50.4966 38.8056 49.617C39.0068 47.8579 39.9009 46.3468 41.1974 45.3319H38.582C36.5479 45.3319 34.9161 43.663 34.9161 41.5881V27.1315H32.2113V40.0319C32.2113 40.9791 31.4513 41.7685 30.4901 41.7685H14.4627C13.5238 41.7685 12.7415 41.0017 12.7415 40.0319V39.8966H11.892C11.1767 39.8966 10.5955 39.3328 10.5732 38.6111L10.4838 36.7843C10.4838 36.7843 10.4838 36.7617 10.4614 36.7392C9.67904 36.5136 8.91902 36.1979 8.22607 35.7919C8.22607 35.7919 8.20371 35.7919 8.18136 35.7919L6.84015 37.0323C6.30367 37.506 5.49895 37.506 5.00717 36.9872L2.88359 34.8447C2.36946 34.326 2.36946 33.514 2.83889 32.9953L4.06833 31.6421C4.06833 31.6421 4.06833 31.6196 4.06833 31.597C3.66596 30.8753 3.35302 30.1085 3.12948 29.3417C3.12948 29.3417 3.12948 29.3191 3.08477 29.3191L1.27415 29.2289C0.558836 29.2064 0 28.5974 0 27.8983V24.8762C0 24.1545 0.558836 23.5681 1.27415 23.5455L3.08477 23.4553C3.08477 23.4553 3.10713 23.4553 3.12948 23.4328C3.35302 22.6434 3.66596 21.8766 4.06833 21.1774C4.06833 21.1774 4.06833 21.1549 4.06833 21.1323L2.83889 19.7792C2.36946 19.2379 2.36946 18.426 2.88359 17.9298L5.00717 15.7872C5.5213 15.2685 6.32602 15.2685 6.84015 15.7421L8.18136 16.9826C8.18136 16.9826 8.20371 16.9826 8.22607 16.9826C8.94138 16.5766 9.67904 16.2609 10.4614 16.0353C10.4614 16.0353 10.4838 16.0353 10.4838 15.9902L10.5732 14.1634C10.5955 13.4417 11.1991 12.8779 11.892 12.8779H12.7415C12.7638 11.9532 13.5238 11.1864 14.4627 11.1864H24.7006C24.8794 11.1864 25.0359 11.254 25.1476 11.3668L32.0548 18.3357C32.189 18.4711 32.2337 18.6289 32.2337 18.7868V25.8008H34.9384V11.3894C34.9384 9.31447 36.5926 7.64553 38.6044 7.64553H43.2539C42.2704 6.85617 41.6445 5.66085 41.6445 4.28511C41.6445 1.91702 43.5445 0 45.8916 0C48.2387 0 50.1388 1.91702 50.1388 4.28511C50.1388 5.75106 49.4011 7.0366 48.2834 7.82596C50.7423 8.45745 52.6647 10.5774 52.9553 13.2387C53.0447 14.1183 52.7988 14.9302 52.2176 15.5843C51.6364 16.2383 50.8764 16.5991 49.9823 16.5991H41.7786C40.9068 16.5991 40.1244 16.2609 39.5432 15.5843C38.962 14.9077 38.7162 14.1183 38.8056 13.2387C39.0068 11.4796 39.9009 9.96851 41.1974 8.95362H38.582C37.2632 8.95362 36.2126 10.0362 36.2126 11.3894V25.846H43.2316C42.248 25.0566 41.6221 23.8613 41.6221 22.4855C41.6221 20.1174 43.5221 18.2004 45.8693 18.2004C48.2164 18.2004 50.1164 20.1174 50.1164 22.4855C50.1164 23.9515 49.3787 25.237 48.2611 26.0264C50.72 26.6579 52.6423 28.7779 52.9329 31.4391C53.0224 32.3187 52.7765 33.1306 52.1953 33.7847C51.6141 34.4387 50.8541 34.7996 49.9599 34.7996H41.7562C40.8844 34.7996 40.1021 34.4613 39.5209 33.7847C38.9397 33.1081 38.6938 32.3187 38.7832 31.4391C38.9844 29.68 39.8785 28.1689 41.175 27.154L41.2197 27.1315ZM46.7634 8.90851H45.0645C42.5386 8.90851 40.415 10.8255 40.1244 13.3515C40.0574 13.8477 40.2138 14.2987 40.5491 14.6821C40.8844 15.0655 41.3092 15.246 41.8009 15.246H50.0046C50.5188 15.246 50.9211 15.0655 51.2564 14.6821C51.5917 14.2987 51.7259 13.8702 51.6812 13.3515C51.3906 10.8255 49.267 8.90851 46.741 8.90851H46.7634ZM42.9633 4.26255C42.9633 5.90894 44.2822 7.23957 45.914 7.23957C47.5458 7.23957 48.8646 5.90894 48.8646 4.26255C48.8646 2.61617 47.5458 1.28553 45.914 1.28553C44.2822 1.28553 42.9633 2.61617 42.9633 4.26255ZM25.3488 17.8847C25.3488 18.0426 25.4829 18.1553 25.617 18.1553H30.043L25.3488 13.4191V17.8847ZM12.7415 38.5885V31.7774C10.0814 31.4617 8.00253 29.1613 8.00253 26.3872C8.00253 23.6132 10.0814 21.3128 12.7415 20.997V14.186H11.892C11.892 14.186 11.8473 14.186 11.8473 14.2311L11.7579 16.0579C11.7356 16.6443 11.3555 17.1179 10.7967 17.2757C10.1038 17.4787 9.45551 17.7494 8.82961 18.1102C8.31548 18.4034 7.71194 18.3132 7.28722 17.9298L5.94601 16.6894H5.90131L3.77773 18.8319V18.877L5.00717 20.2302C5.38718 20.6587 5.47659 21.2677 5.186 21.7864C4.82834 22.4179 4.5601 23.0945 4.35892 23.7711C4.20245 24.3349 3.71067 24.7183 3.15183 24.7409L1.34121 24.8311C1.34121 24.8311 1.2965 24.8311 1.2965 24.8762V27.8983C1.2965 27.8983 1.2965 27.9434 1.34121 27.9434L3.15183 28.0336C3.73302 28.0562 4.20245 28.4396 4.35892 29.0034C4.5601 29.7026 4.82834 30.3566 5.186 30.9881C5.47659 31.5068 5.38718 32.1157 5.00717 32.5443L3.77773 33.8974V33.9426L5.90131 36.0851H5.94601L7.28722 34.8447C7.71194 34.4613 8.31548 34.3711 8.82961 34.6643C9.45551 35.0026 10.1038 35.2957 10.7967 35.4987C11.3555 35.6566 11.7356 36.1528 11.7579 36.7166L11.8473 38.5434C11.8473 38.5434 11.8473 38.5885 11.892 38.5885H12.7415ZM9.29903 26.3872C9.29903 28.4396 10.7967 30.1536 12.7415 30.4694V22.3051C10.7967 22.6209 9.29903 24.3349 9.29903 26.3872ZM30.9595 40.0319V19.486H25.617C24.7453 19.486 24.0523 18.7643 24.0523 17.9072V12.517H14.4627C14.2168 12.517 14.038 12.72 14.038 12.9455V40.0545C14.038 40.3026 14.2391 40.483 14.4627 40.483H30.5348C30.7807 40.483 30.9595 40.28 30.9595 40.0545V40.0319ZM46.7634 45.3319H44.6845C42.3151 45.5349 40.3927 47.3617 40.1244 49.7749C40.0574 50.2936 40.2138 50.7221 40.5491 51.1055C40.8844 51.4889 41.3092 51.6694 41.8009 51.6694H50.0046C50.5188 51.6694 50.9211 51.4889 51.2564 51.1055C51.5917 50.7221 51.7259 50.2936 51.6812 49.7749C51.3906 47.2489 49.267 45.3319 46.741 45.3319H46.7634ZM42.9633 40.686C42.9633 42.3323 44.2822 43.663 45.914 43.663C47.5458 43.663 48.8646 42.3323 48.8646 40.686C48.8646 39.0396 47.5458 37.7089 45.914 37.7089C44.2822 37.7089 42.9633 39.0396 42.9633 40.686ZM42.9633 22.4855C42.9633 24.1319 44.2822 25.4626 45.914 25.4626C47.5458 25.4626 48.8646 24.1319 48.8646 22.4855C48.8646 20.8391 47.5458 19.5085 45.914 19.5085C44.2822 19.5085 42.9633 20.8391 42.9633 22.4855ZM44.6845 27.1315C42.3151 27.3119 40.3927 29.1613 40.1244 31.5745C40.0574 32.0932 40.2138 32.5217 40.5491 32.9051C40.8844 33.2885 41.3092 33.4689 41.8009 33.4689H50.0046C50.5188 33.4689 50.9211 33.2885 51.2564 32.9051C51.5917 32.5217 51.7259 32.0932 51.6812 31.5745C51.3906 29.0485 49.267 27.1315 46.741 27.1315H44.6622H44.6845Z" fill="#0E2049"/>
</g>
<defs>
<clipPath id="clip0_5170_167">
<rect width="53" height="53" fill="white"/>
</clipPath>
</defs>
</svg>
