<svg width="51" height="55" viewBox="0 0 51 55" fill="none" xmlns="http://www.w3.org/2000/svg">
<path d="M3.62112 4.2394L3.62115 4.23936C5.78386 2.07994 8.71106 0.867188 11.7615 0.867188H11.7921H11.8227H11.8534H11.8841H11.9149H11.9456H11.9764H12.0072H12.0381H12.0689H12.0998H12.1307H12.1616H12.1926H12.2236H12.2546H12.2856H12.3167H12.3477H12.3788H12.41H12.4411H12.4723H12.5035H12.5347H12.5659H12.5972H12.6285H12.6598H12.6911H12.7225H12.7539H12.7853H12.8167H12.8481H12.8796H12.9111H12.9426H12.9742H13.0057H13.0373H13.0689H13.1005H13.1322H13.1638H13.1955H13.2272H13.2589H13.2907H13.3225H13.3543H13.3861H13.4179H13.4497H13.4816H13.5135H13.5454H13.5774H13.6093H13.6413H13.6733H13.7053H13.7373H13.7694H13.8014H13.8335H13.8656H13.8978H13.9299H13.9621H13.9943H14.0265H14.0587H14.0909H14.1232H14.1555H14.1878H14.2201H14.2524H14.2847H14.3171H14.3495H14.3819H14.4143H14.4468H14.4792H14.5117H14.5442H14.5767H14.6092H14.6417H14.6743H14.7069H14.7394H14.772H14.8047H14.8373H14.8699H14.9026H14.9353H14.968H15.0007H15.0334H15.0662H15.099H15.1317H15.1645H15.1973H15.2301H15.263H15.2958H15.3287H15.3616H15.3945H15.4274H15.4603H15.4932H15.5262H15.5592H15.5921H15.6251H15.6581H15.6911H15.7242H15.7572H15.7903H15.8234H15.8564H15.8895H15.9226H15.9558H15.9889H16.0221H16.0552H16.0884H16.1216H16.1548H16.188H16.2212H16.2544H16.2877H16.3209H16.3542H16.3875H16.4208H16.4541H16.4874H16.5207H16.554H16.5874H16.6207H16.6541H16.6875H16.7209H16.7543H16.7877H16.8211H16.8545H16.888H16.9214H16.9549H16.9883H17.0218H17.0553H17.0888H17.1223H17.1558H17.1893H17.2229H17.2564H17.2899H17.3235H17.3571H17.3906H17.4242H17.4578H17.4914H17.525H17.5586H17.5923H17.6259H17.6595H17.6932H17.7268H17.7605H17.7941H17.8278H17.8615H17.8952H17.9289H17.9626H17.9963H18.03H18.0637H18.0974H18.1312H18.1649H18.1987H18.2324H18.2662H18.2999H18.3337H18.3675H18.4012H18.435H18.4688H18.5026H18.5364H18.5702H18.604H18.6378H18.6716H18.7055H18.7393H18.7731H18.8069H18.8408H18.8746H18.9085H18.9423H18.9762H19.01H19.0439H19.0777H19.1116H19.1455H19.1793H19.2132H19.2471H19.281H19.3149H19.3487H19.3826H19.4165H19.4504H19.4843H19.5182H19.5521H19.586H19.6199H19.6538H19.6877H19.7216H19.7555H19.7894H19.8234H19.8573H19.8912H19.9251H19.959H19.9929H20.0268H20.0608H20.0947H20.1286H20.1625H20.1964H20.2303H20.2642H20.2982H20.3321H20.366H20.3999H20.4338H20.4677H20.5016H20.5356H20.5695H20.6034H20.6373H20.6712H20.7051H20.739H20.7729H20.8068H20.8407H20.8746H20.9085H20.9424H20.9762H21.0101H21.044H21.0779H21.1118H21.1457H21.1795H21.2134H21.2473H21.2811H21.315H21.3488H21.3827H21.4165H21.4504H21.4842H21.5181H21.5519H21.5857H21.6196H21.6534H21.6872H21.721H21.7548H21.7886H21.8224H21.8562H21.89H21.9238H21.9575H21.9913H22.0251H22.0588H22.0926H22.1264H22.1601H22.1938H22.2276H22.2613H22.295H22.3287H22.3624H22.3961H22.4298H22.4635H22.4972H22.5309H22.5645H22.5982H22.6318H22.6655H22.6991H22.7327H22.7664H22.8H22.8336H22.8672H22.9008H22.9344H22.9679H23.0015H23.0351H23.0686H23.1021H23.1357H23.1692H23.2027H23.2362H23.2697H23.3032H23.3367H23.3701H23.4036H23.437H23.4705H23.5039H23.5373H23.5707H23.6041H23.6375H23.6709H23.7043H23.7376H23.771H23.8043H23.8376H23.8709H23.9042H23.9375H23.9708H24.0041H24.0373H24.0706H24.1038H24.137H24.1702H24.2034H24.2366H24.2698H24.3029H24.3361H24.3692H24.4024H24.4355H24.4686H24.5016H24.5347H24.5678H24.6008H24.6339H24.6669H24.6999H24.7329H24.7658H24.7988H24.8318H24.8647H24.8976H24.9305H24.9634H24.9963H25.0292H25.062H25.0949H25.1277H25.1605H25.1933H25.226H25.2588H25.2916H25.3243H25.357H25.3897H25.4224H25.4551H25.4877H25.5203H25.553H25.5856H25.6181H25.6507H25.6833H25.7158H25.7483H25.7808H25.8133H25.8458H25.8782H25.9107H25.9431H25.9755H26.0079H26.0403H26.0726H26.1049H26.1372H26.1695H26.2018H26.2341H26.2663H26.2985H26.3307H26.3629H26.3951H26.4272H26.4594H26.4915H26.5236H26.5556H26.5877H26.6197H26.6517H26.6837H26.7157H26.7476H26.7796H26.8115H26.8434H26.8753H26.9071H26.9389H26.9707H27.0025H27.0343H27.0661H27.0978H27.1295H27.1612H27.1928H27.2245H27.2561H27.2877H27.3193H27.3508H27.3824H27.4139H27.4454H27.4769H27.5083H27.5397H27.5711H27.6025H27.6339H27.6652H27.6965H27.7278H27.7591H27.7903H27.8215H27.8527H27.8839H27.915H27.9462H27.9773H28.0083H28.0394H28.0704H28.1014H28.1324H28.1634H28.1943H28.2252H28.2561H28.2869H28.3178H28.3486H28.3794H28.4101H28.4409H28.4716H28.5023H28.5329H28.5635C34.9195 0.867188 40.075 6.02105 40.075 12.3786V21.0847C40.075 21.8737 39.4312 22.5149 38.6448 22.5149C37.8584 22.5149 37.2146 21.8737 37.2146 21.0847V12.3786C37.2146 7.60063 33.3389 3.7276 28.5635 3.7276H11.7615C9.46922 3.7276 7.26326 4.63917 5.64518 6.2614C4.01861 7.88372 3.11042 10.0847 3.11042 12.3786V39.262C3.11042 41.556 4.01867 43.757 5.64532 45.3794C7.26339 47.0015 9.46928 47.913 11.7615 47.913H11.7858H11.8102H11.8345H11.8589H11.8832H11.9075H11.9319H11.9562H11.9805H12.0048H12.0291H12.0533H12.0776H12.1019H12.1261H12.1504H12.1746H12.1988H12.2231H12.2473H12.2715H12.2957H12.3198H12.344H12.3682H12.3923H12.4164H12.4406H12.4647H12.4888H12.5129H12.537H12.561H12.5851H12.6091H12.6332H12.6572H12.6812H12.7052H12.7292H12.7531H12.7771H12.801H12.825H12.8489H12.8728H12.8967H12.9206H12.9444H12.9683H12.9921H13.0159H13.0397H13.0635H13.0873H13.111H13.1348H13.1585H13.1822H13.2059H13.2296H13.2532H13.2769H13.3005H13.3241H13.3477H13.3713H13.3948H13.4184H13.4419H13.4654H13.4889H13.5124H13.5358H13.5593H13.5827H13.6061H13.6295H13.6528H13.6762H13.6995H13.7228H13.7461H13.7693H13.7926H13.8158H13.839H13.8622H13.8853H13.9085H13.9316H13.9547H13.9778H14.0008H14.0238H14.0469H14.0698H14.0928H14.1158H14.1387H14.1616H14.1845H14.2073H14.2301H14.2529H14.2757H14.2985H14.3212H14.3439H14.3666H14.3893H14.4119H14.4346H14.4571H14.4797H14.5023H14.5248H14.5473H14.5697H14.5922H14.6146H14.637H14.6593H14.6817H14.704H14.7263H14.7485H14.7707H14.7929H14.8151H14.8373H14.8594H14.8815H14.9035H14.9256H14.9476H14.9696H14.9915H15.0134H15.0353H15.0572H15.079H15.1008H15.1226H15.1444H15.1661H15.1878H15.2094H15.2311H15.2527H15.2742H15.2958H15.3173H15.3387H15.3602H15.3816H15.403H15.4243H15.4456H15.4669H15.4882H15.5094H15.5306H15.5517H15.5729H15.5939H15.615H15.636H15.657H15.678H15.6989H15.7198H15.7406H15.7614H15.7822H15.803H15.8237H15.8444H15.865H15.8856H15.9062H15.9267H15.9472H15.9677H15.9881H16.0085H16.0289H16.0492H16.0695H16.0897H16.11H16.1301H16.1503H16.1704H16.1904H16.2105H16.2304H16.2504H16.2703H16.2902H16.31H16.3298H16.3495H16.3693H16.3889H16.4086H16.4282H16.4477H16.4672H16.4867H16.5062H16.5256H16.5449H16.5642H16.5835H16.6027H16.6219H16.6411H16.6602H16.6793H16.6983H16.7173H16.7362H16.7551H16.774H16.7928H16.8116H16.8303H16.849H16.8676H16.8862H16.9048H16.9233H16.9418H16.9602H16.9786H16.9969H17.0152H17.0334H17.0516H17.0698H17.0879H17.106H17.124H17.142H17.1599H17.1778H17.1956H17.2134H17.2311H17.2488H17.2665H17.2841H17.3017H17.3192H17.3366H17.354H17.3714H17.3887H17.406H17.4232H17.4404H17.4575H17.4746H17.4916H17.5086H17.5255H17.5424H17.5592H17.576H17.5928H17.6094H17.6261H17.6426H17.6592H17.6757H17.6921H17.7085H17.7248H17.7411H17.7573H17.7735H17.7896H17.8056H17.8217H17.8376H17.8535H17.8694H17.8852H17.901H17.9167H17.9323H17.9479H17.9634H17.9789H17.9944H18.0097H18.0251H18.0403H18.0556H18.0707H18.0858H18.1009H18.1159H18.1308H18.1457H18.1605H18.1753H18.19H18.2047H18.2193H18.2338H18.2483H18.2628H18.2771H18.2915H18.3057H18.3199H18.3341H18.3482H18.3622H18.3762H18.3901H18.404H18.4178H18.4315H18.4452H18.4588H18.4724H18.4859H18.4994H18.5127H18.5261H18.5393H18.5525H18.5657H18.5788H18.5918H18.6048H18.6177H18.6305H18.6433H18.656H18.6687H18.6813H18.6938H18.7063H18.7187H18.7311H18.7433H18.7556H18.7677H18.7798H18.7919H18.8038H18.8158H18.8276H18.8394H18.8511H18.8627H18.8743H18.8859H18.8973H18.9087H18.92H18.9313H18.9425H18.9536H18.9647H18.9757H18.9867H18.9975H19.0083H19.0191H19.0297H19.0404H19.0509H19.0614H19.0718H19.0821H19.0924H19.1026H19.1127H19.1228H19.1328H19.1427H19.1526H19.1624H19.1721H19.1817H19.1913H19.2008H19.2103H19.2197H19.229H19.2382H19.2474H19.2565H19.2655H19.2745H19.2834H19.2922H19.3009H19.3096H19.3182H19.3267H19.3352H19.3436H19.3519H19.3601H19.3683H19.3764H19.3844H19.3924H19.4003H19.4081H19.4158H19.4235H19.4311H19.4386H19.446H19.4534H19.4607H19.4679H19.475H19.4821H19.4891H19.496H19.5029H19.5096H19.5163H19.5229H19.5295H19.5359H19.5423H19.5486H19.5549H19.561H19.5671H19.5731H19.579H19.5849H19.5907H19.5964H19.602H19.6075H19.613H19.6184H19.6237H19.6289H19.634H19.6391H19.6441H19.649H19.6539H19.6586H19.6633H19.6679H19.6724H19.6768H19.6812H19.6854H19.6896H19.6937H19.6978H19.7017H19.7056H19.7094H19.7131H19.7167H19.7202H19.7237H19.7271H19.7304H19.7336H19.7367H19.7398H19.7427H19.7456H19.7484H19.7511H19.7537H19.7563H19.7587H19.7611H19.7634H19.7656H19.7677H19.7698H19.7717H19.7736H19.7754H19.7771H19.7787H19.7802H19.7817H19.783H19.7843H19.7855H19.7866H19.7876H19.7885H19.7893H19.7901H19.7907H19.7913H19.7918H19.7922H19.7925H19.7927H19.7929C20.5869 47.913 21.2231 48.5533 21.2231 49.3432C21.2231 50.1331 20.5869 50.7734 19.7929 50.7734H11.7615C8.71107 50.7734 5.78386 49.5607 3.62115 47.4012L3.62112 47.4012C1.45883 45.243 0.25 42.3152 0.25 39.262V12.3786C0.25 9.32544 1.45883 6.39757 3.62112 4.2394ZM36.7146 37.5818V37.8318H36.9646H41.1651C41.9515 37.8318 42.5953 38.4729 42.5953 39.262C42.5953 40.0511 41.9515 40.6922 41.1651 40.6922H35.2844C34.4903 40.6922 33.8542 40.0526 33.8542 39.262V30.8609C33.8542 30.0719 34.498 29.4307 35.2844 29.4307C36.0707 29.4307 36.7146 30.0719 36.7146 30.8609V37.5818ZM20.4125 39.262C20.4125 31.0545 27.0802 24.3901 35.2844 24.3901C43.4886 24.3901 50.1562 31.0545 50.1562 39.262C50.1562 47.4695 43.4886 54.1339 35.2844 54.1339C27.0802 54.1339 20.4125 47.4695 20.4125 39.262ZM47.2958 39.262C47.2958 32.6325 41.9165 27.2505 35.2844 27.2505C28.6523 27.2505 23.2729 32.6325 23.2729 39.262C23.2729 45.8915 28.6523 51.2734 35.2844 51.2734C41.9165 51.2734 47.2958 45.8915 47.2958 39.262ZM18.0622 33.9714H10.9214C10.135 33.9714 9.49115 33.3302 9.49115 32.5411C9.49115 31.7521 10.135 31.1109 10.9214 31.1109H18.0622C18.8562 31.1109 19.4924 31.7513 19.4924 32.5411C19.4924 33.331 18.8562 33.9714 18.0622 33.9714ZM22.6071 27.2505H10.9214C10.135 27.2505 9.49115 26.6094 9.49115 25.8203C9.49115 25.0312 10.135 24.3901 10.9214 24.3901H22.6071C23.3935 24.3901 24.0373 25.0312 24.0373 25.8203C24.0373 26.6094 23.3935 27.2505 22.6071 27.2505ZM29.4036 20.5297H10.9214C10.135 20.5297 9.49115 19.8886 9.49115 19.0995C9.49115 18.3104 10.135 17.6693 10.9214 17.6693H29.4036C30.19 17.6693 30.8339 18.3104 30.8339 19.0995C30.8339 19.8886 30.19 20.5297 29.4036 20.5297Z" fill="#182A4D" stroke="white" stroke-width="0.5"/>
</svg>
