<svg width="50" height="50" viewBox="0 0 50 50" fill="none" xmlns="http://www.w3.org/2000/svg">
<g clip-path="url(#clip0_5170_169)">
<path d="M11.362 27.1055C11.511 26.7226 11.2769 26.2757 10.9152 26.1268C6.74501 24.68 4.46841 20.063 5.91522 15.8289C6.06416 15.446 5.83012 14.9992 5.46841 14.8502C5.10671 14.7013 4.63863 14.9353 4.48969 15.297C2.83012 20.297 5.46842 25.7438 10.4684 27.4885C10.7663 27.7226 11.2344 27.4885 11.3833 27.1055H11.362Z" fill="#0E1D46"/>
<path d="M32.128 8.40425V6.42553H36.6812C37.128 6.42553 37.4471 6.12766 37.4471 5.65957V0.765957C37.4471 0.319149 37.1493 0 36.6812 0H26.2344C25.7876 0 25.4684 0.297872 25.4684 0.765957V5.68085C25.4684 6.12766 25.7663 6.44681 26.2344 6.44681H30.6173V8.42553C28.1918 8.51064 25.8514 9.10638 23.6599 10.0851C22.1493 8.19149 20.1067 6.74468 17.745 6C10.6812 3.48936 3.19181 7.2766 0.830106 14.1702C-1.44649 20.8298 1.95777 28.1915 8.40457 30.9149L7.27692 34.2553L4.85138 33.3404C4.61734 33.2553 4.4684 33.2553 4.25564 33.3404C4.1067 33.4255 3.95777 33.5745 3.87266 33.7872L0.234362 44.4468C-0.531596 46.5745 0.617341 49 2.80883 49.7447C5.00032 50.4894 7.36202 49.3617 8.04287 47.1702L11.6812 36.4894C11.8301 36.1064 11.5961 35.6596 11.2344 35.5106L8.745 34.6809L9.87266 31.3404C11.0003 31.6383 12.2131 31.8723 13.362 31.8723C15.5535 40.0426 22.8301 45.7234 31.3833 45.7234C41.6812 45.7234 50.0216 37.3191 50.0216 27.0213C50.0216 16.7234 42.0429 8.85106 32.128 8.40425ZM26.979 1.51064H35.9152V4.91489H26.979V1.51064ZM6.59606 46.7234C6.14926 48.0851 4.61734 48.8511 3.25564 48.3191C1.89394 47.8723 1.12798 46.3404 1.65989 44.9787L5.06415 34.9787L9.97904 36.7234L6.57479 46.7234H6.59606ZM2.27692 14.617C4.31947 8.48936 10.979 5.23404 17.1918 7.34043C23.4046 9.53191 26.7237 16.2766 24.5322 22.4043C22.2556 28.6809 15.8301 31.8723 9.61734 29.6809C3.48968 27.5745 0.149256 20.7447 2.27692 14.617ZM31.362 44.234C23.6386 44.234 17.0429 39.1702 14.9365 31.8936C19.9365 31.3617 24.2556 28.0213 26.0641 23.0426C27.4258 19.3404 26.979 15.0851 24.6173 11.383C26.745 10.4681 29.0003 10.0213 31.4259 10.0213C40.745 9.93617 48.4684 17.6809 48.4684 27.0638C48.4684 36.4468 40.745 44.2553 31.362 44.2553V44.234Z" fill="#0E1D46"/>
<path d="M31.3617 15.0002C31.8085 15.0002 32.1276 14.7024 32.1276 14.2343V12.1917C32.1276 11.7449 31.8297 11.4258 31.3617 11.4258C30.8936 11.4258 30.5957 11.7237 30.5957 12.1917V14.2343C30.5957 14.6811 30.8936 15.0002 31.3617 15.0002Z" fill="#0E1D46"/>
<path d="M31.3617 39.0859C30.9149 39.0859 30.5957 39.3838 30.5957 39.8519V41.8944C30.5957 42.3413 30.8936 42.6604 31.3617 42.6604C31.8297 42.6604 32.1276 42.3625 32.1276 41.8944V39.8519C32.1276 39.4689 31.7446 39.0859 31.3617 39.0859Z" fill="#0E1D46"/>
<path d="M46.2128 26.2773H44.1703C43.7234 26.2773 43.4043 26.5752 43.4043 27.0433C43.4043 27.5114 43.7022 27.8093 44.1703 27.8093H46.2128C46.6596 27.8093 46.9788 27.5114 46.9788 27.0433C46.9788 26.6603 46.6809 26.2773 46.2128 26.2773Z" fill="#0E1D46"/>
<path d="M37.4254 16.6591C37.8084 16.8932 38.2552 16.7442 38.4893 16.3612L39.5531 14.5527C39.7871 14.1698 39.6382 13.7229 39.2552 13.4889C38.8723 13.2549 38.4254 13.4038 38.1914 13.7868L37.1276 15.5953C36.8935 15.9783 37.0425 16.4251 37.4254 16.6591Z" fill="#0E1D46"/>
<path d="M25.2982 37.4889C24.9152 37.2549 24.4684 37.4038 24.2344 37.7868L23.1705 39.5953C22.9365 39.9783 23.0854 40.4251 23.4684 40.6591C23.8514 40.8932 24.2982 40.7442 24.5322 40.3612L25.5961 38.5527C25.745 38.1698 25.6812 37.7229 25.2982 37.4889Z" fill="#0E1D46"/>
<path d="M44.6171 33.8516L42.8086 32.7877C42.4256 32.5537 41.9788 32.7026 41.7448 33.0856C41.5107 33.4686 41.6597 33.9154 42.0426 34.1494L43.8511 35.2133C44.2341 35.4473 44.6809 35.2984 44.915 34.9154C45.0639 34.5324 44.915 34.0856 44.6171 33.8516Z" fill="#0E1D46"/>
<path d="M42.6384 20.9782L44.383 19.9144C44.766 19.6804 44.8298 19.2335 44.6171 18.8506C44.4043 18.4676 43.9362 18.4038 43.5533 18.6165L41.8086 19.6804C41.4256 19.9144 41.3618 20.3612 41.5745 20.7442C41.7873 21.1272 42.2554 21.191 42.6384 20.9782Z" fill="#0E1D46"/>
<path d="M20.0855 33.0855L18.3408 34.1493C17.9578 34.3833 17.894 34.8301 18.1068 35.2131C18.3195 35.5961 18.7876 35.6599 19.1706 35.4472L20.9153 34.3833C21.2982 34.1493 21.3621 33.7025 21.1493 33.3195C20.8514 33.0216 20.3834 32.9365 20.0855 33.0855Z" fill="#0E1D46"/>
<path d="M38.7025 37.5537C38.4684 37.1707 38.0216 37.1069 37.6387 37.3196C37.2557 37.5324 37.1918 38.0005 37.4046 38.3835L38.4684 40.1282C38.7025 40.5111 39.1493 40.575 39.5323 40.3622C39.9152 40.1494 39.9791 39.6813 39.7663 39.2984L38.7025 37.5537Z" fill="#0E1D46"/>
<path d="M37.2766 35.3615L33.4042 29.3827C34 28.787 34.383 28.021 34.383 27.1061C34.383 25.6593 33.4042 24.4466 32.1064 24.0849V17.3402C32.1064 16.8934 31.8085 16.5742 31.3404 16.5742C30.8723 16.5742 30.5744 16.8721 30.5744 17.3402V24.0849C29.2766 24.4678 28.2979 25.6806 28.2979 27.1061C28.2979 28.8508 29.6596 30.2125 31.3191 30.2125C31.5532 30.2125 31.851 30.1274 32.0851 30.1274L36.0213 36.1912C36.2553 36.5742 36.7021 36.6381 37.0851 36.4253C37.383 36.1912 37.4681 35.7444 37.234 35.3615H37.2766ZM29.7872 27.021C29.7872 26.1061 30.4681 25.4253 31.2979 25.4253C32.1276 25.4253 32.8085 26.1912 32.8085 27.021C32.8085 27.9359 32.1276 28.6168 31.2979 28.6168C30.4681 28.7019 29.7872 27.9359 29.7872 27.021Z" fill="#0E1D46"/>
</g>
<defs>
<clipPath id="clip0_5170_169">
<rect width="50" height="50" fill="white"/>
</clipPath>
</defs>
</svg>
