<svg width="349" height="62" viewBox="0 0 349 62" fill="none" xmlns="http://www.w3.org/2000/svg">
<g opacity="0.5">
<path d="M4.46094 15H2.03125L2.04688 13.4453H4.46094C5.16406 13.4453 5.7526 13.2917 6.22656 12.9844C6.70573 12.6771 7.0651 12.237 7.30469 11.6641C7.54948 11.0911 7.67188 10.4089 7.67188 9.61719V9C7.67188 8.38542 7.60156 7.84115 7.46094 7.36719C7.32552 6.89323 7.1224 6.49479 6.85156 6.17188C6.58594 5.84896 6.25781 5.60417 5.86719 5.4375C5.48177 5.27083 5.03646 5.1875 4.53125 5.1875H1.98438V3.625H4.53125C5.28646 3.625 5.97656 3.7526 6.60156 4.00781C7.22656 4.25781 7.76562 4.61979 8.21875 5.09375C8.67708 5.56771 9.02865 6.13542 9.27344 6.79688C9.51823 7.45833 9.64062 8.19792 9.64062 9.01562V9.61719C9.64062 10.4349 9.51823 11.1745 9.27344 11.8359C9.02865 12.4974 8.67708 13.0651 8.21875 13.5391C7.76042 14.0078 7.21354 14.3698 6.57812 14.625C5.94792 14.875 5.24219 15 4.46094 15ZM3.11719 3.625V15H1.15625V3.625H3.11719ZM16.1875 13.3047V9.27344C16.1875 8.97135 16.1328 8.71094 16.0234 8.49219C15.9141 8.27344 15.7474 8.10417 15.5234 7.98438C15.3047 7.86458 15.0286 7.80469 14.6953 7.80469C14.388 7.80469 14.1224 7.85677 13.8984 7.96094C13.6745 8.0651 13.5 8.20573 13.375 8.38281C13.25 8.5599 13.1875 8.76042 13.1875 8.98438H11.3125C11.3125 8.65104 11.3932 8.32812 11.5547 8.01562C11.7161 7.70312 11.9505 7.42448 12.2578 7.17969C12.5651 6.9349 12.9323 6.74219 13.3594 6.60156C13.7865 6.46094 14.2656 6.39062 14.7969 6.39062C15.4323 6.39062 15.9948 6.4974 16.4844 6.71094C16.9792 6.92448 17.3672 7.2474 17.6484 7.67969C17.9349 8.10677 18.0781 8.64323 18.0781 9.28906V13.0469C18.0781 13.4323 18.1042 13.7786 18.1562 14.0859C18.2135 14.388 18.2943 14.651 18.3984 14.875V15H16.4688C16.3802 14.7969 16.3099 14.5391 16.2578 14.2266C16.2109 13.9089 16.1875 13.6016 16.1875 13.3047ZM16.4609 9.85938L16.4766 11.0234H15.125C14.776 11.0234 14.4688 11.0573 14.2031 11.125C13.9375 11.1875 13.7161 11.2812 13.5391 11.4062C13.362 11.5312 13.2292 11.6823 13.1406 11.8594C13.0521 12.0365 13.0078 12.237 13.0078 12.4609C13.0078 12.6849 13.0599 12.8906 13.1641 13.0781C13.2682 13.2604 13.4193 13.4036 13.6172 13.5078C13.8203 13.612 14.0651 13.6641 14.3516 13.6641C14.737 13.6641 15.0729 13.5859 15.3594 13.4297C15.651 13.2682 15.8802 13.0729 16.0469 12.8438C16.2135 12.6094 16.3021 12.388 16.3125 12.1797L16.9219 13.0156C16.8594 13.2292 16.7526 13.4583 16.6016 13.7031C16.4505 13.9479 16.2526 14.1823 16.0078 14.4062C15.7682 14.625 15.4792 14.8047 15.1406 14.9453C14.8073 15.0859 14.4219 15.1562 13.9844 15.1562C13.4323 15.1562 12.9401 15.0469 12.5078 14.8281C12.0755 14.6042 11.737 14.3047 11.4922 13.9297C11.2474 13.5495 11.125 13.1198 11.125 12.6406C11.125 12.1927 11.2083 11.7969 11.375 11.4531C11.5469 11.1042 11.7969 10.8125 12.125 10.5781C12.4583 10.3438 12.8646 10.1667 13.3438 10.0469C13.8229 9.92188 14.3698 9.85938 14.9844 9.85938H16.4609ZM23.9219 6.54688V7.92188H19.1562V6.54688H23.9219ZM20.5312 4.47656H22.4141V12.6641C22.4141 12.9245 22.4505 13.125 22.5234 13.2656C22.6016 13.401 22.7083 13.4922 22.8438 13.5391C22.9792 13.5859 23.138 13.6094 23.3203 13.6094C23.4505 13.6094 23.5755 13.6016 23.6953 13.5859C23.8151 13.5703 23.9115 13.5547 23.9844 13.5391L23.9922 14.9766C23.8359 15.0234 23.6536 15.0651 23.4453 15.1016C23.2422 15.138 23.0078 15.1562 22.7422 15.1562C22.3099 15.1562 21.9271 15.0807 21.5938 14.9297C21.2604 14.7734 21 14.5208 20.8125 14.1719C20.625 13.8229 20.5312 13.3594 20.5312 12.7812V4.47656ZM29.1016 15.1562C28.4766 15.1562 27.9115 15.0547 27.4062 14.8516C26.9062 14.6432 26.4792 14.3542 26.125 13.9844C25.776 13.6146 25.5078 13.1797 25.3203 12.6797C25.1328 12.1797 25.0391 11.6406 25.0391 11.0625V10.75C25.0391 10.0885 25.1354 9.48958 25.3281 8.95312C25.5208 8.41667 25.7891 7.95833 26.1328 7.57812C26.4766 7.19271 26.8828 6.89844 27.3516 6.69531C27.8203 6.49219 28.3281 6.39062 28.875 6.39062C29.4792 6.39062 30.0078 6.49219 30.4609 6.69531C30.9141 6.89844 31.2891 7.1849 31.5859 7.55469C31.888 7.91927 32.112 8.35417 32.2578 8.85938C32.4089 9.36458 32.4844 9.92188 32.4844 10.5312V11.3359H25.9531V9.98438H30.625V9.83594C30.6146 9.4974 30.5469 9.17969 30.4219 8.88281C30.3021 8.58594 30.1172 8.34635 29.8672 8.16406C29.6172 7.98177 29.2839 7.89062 28.8672 7.89062C28.5547 7.89062 28.276 7.95833 28.0312 8.09375C27.7917 8.22396 27.5911 8.41406 27.4297 8.66406C27.2682 8.91406 27.1432 9.21615 27.0547 9.57031C26.9714 9.91927 26.9297 10.3125 26.9297 10.75V11.0625C26.9297 11.4323 26.9792 11.776 27.0781 12.0938C27.1823 12.4062 27.3333 12.6797 27.5312 12.9141C27.7292 13.1484 27.9688 13.3333 28.25 13.4688C28.5312 13.599 28.8516 13.6641 29.2109 13.6641C29.6641 13.6641 30.0677 13.5729 30.4219 13.3906C30.776 13.2083 31.0833 12.9505 31.3438 12.6172L32.3359 13.5781C32.1536 13.8438 31.9167 14.099 31.625 14.3438C31.3333 14.5833 30.9766 14.7786 30.5547 14.9297C30.138 15.0807 29.6536 15.1562 29.1016 15.1562Z" fill="black" fill-opacity="0.5"/>
<rect x="0.5" y="26.5" width="348" height="35" rx="5.5" fill="#FEEAA9" stroke="#FFC304"/>
<g clip-path="url(#clip0_150_1428)">
<path d="M313.41 38.5898L318 43.1698L322.59 38.5898L324 39.9998L318 45.9998L312 39.9998L313.41 38.5898Z" fill="#FFA800"/>
</g>
<path d="M15.2393 43.1895V44.8164C15.2393 45.5957 15.1618 46.2611 15.0068 46.8125C14.8564 47.3594 14.6377 47.8037 14.3506 48.1455C14.0635 48.4873 13.7194 48.738 13.3184 48.8975C12.9219 49.057 12.4775 49.1367 11.9854 49.1367C11.5934 49.1367 11.2288 49.0866 10.8916 48.9863C10.5589 48.8861 10.2581 48.7288 9.98926 48.5146C9.72038 48.3005 9.49023 48.0247 9.29883 47.6875C9.11198 47.3457 8.96615 46.9378 8.86133 46.4639C8.76107 45.9899 8.71094 45.4408 8.71094 44.8164V43.1895C8.71094 42.4056 8.78841 41.7448 8.94336 41.207C9.09831 40.6647 9.31934 40.2249 9.60645 39.8877C9.89355 39.5459 10.2354 39.2975 10.6318 39.1426C11.0329 38.9876 11.4795 38.9102 11.9717 38.9102C12.3682 38.9102 12.7327 38.9603 13.0654 39.0605C13.4027 39.1562 13.7035 39.3089 13.9678 39.5186C14.2367 39.7282 14.4645 40.0016 14.6514 40.3389C14.8428 40.6715 14.9886 41.0749 15.0889 41.5488C15.1891 42.0182 15.2393 42.5651 15.2393 43.1895ZM13.5918 45.0488V42.9434C13.5918 42.5469 13.569 42.1982 13.5234 41.8975C13.4779 41.5921 13.4095 41.3346 13.3184 41.125C13.2318 40.9108 13.1224 40.7376 12.9902 40.6055C12.8581 40.4688 12.7077 40.3708 12.5391 40.3115C12.3704 40.2477 12.1813 40.2158 11.9717 40.2158C11.7165 40.2158 11.4886 40.266 11.2881 40.3662C11.0876 40.4619 10.9189 40.6169 10.7822 40.8311C10.6455 41.0452 10.5407 41.3278 10.4678 41.6787C10.3994 42.0251 10.3652 42.4466 10.3652 42.9434V45.0488C10.3652 45.4499 10.388 45.8031 10.4336 46.1084C10.4792 46.4137 10.5475 46.6758 10.6387 46.8945C10.7298 47.1087 10.8392 47.2865 10.9668 47.4277C11.099 47.5645 11.2493 47.6647 11.418 47.7285C11.5911 47.7923 11.7803 47.8242 11.9854 47.8242C12.2451 47.8242 12.4753 47.7741 12.6758 47.6738C12.8763 47.5736 13.0449 47.4141 13.1816 47.1953C13.3184 46.972 13.4209 46.6826 13.4893 46.3271C13.5576 45.9717 13.5918 45.5456 13.5918 45.0488ZM23.3193 39.0469V39.9492L19.3408 49H17.6045L21.5762 40.3594H16.4219V39.0469H23.3193ZM29.0889 39.0469L25.2129 49.8545H23.9209L27.8037 39.0469H29.0889ZM34.6328 39.0127V49H32.9854V40.9678L30.5449 41.7949V40.4346L34.4346 39.0127H34.6328ZM44.7021 39.0469V39.9492L40.7236 49H38.9873L42.959 40.3594H37.8047V39.0469H44.7021ZM50.4717 39.0469L46.5957 49.8545H45.3037L49.1865 39.0469H50.4717ZM58.1895 47.6875V49H51.5176V47.8721L54.7578 44.3379C55.1133 43.9368 55.3936 43.5905 55.5986 43.2988C55.8037 43.0072 55.9473 42.7451 56.0293 42.5127C56.1159 42.2757 56.1592 42.0456 56.1592 41.8223C56.1592 41.5078 56.0999 41.2321 55.9814 40.9951C55.8675 40.7536 55.6989 40.5645 55.4756 40.4277C55.2523 40.2865 54.9811 40.2158 54.6621 40.2158C54.293 40.2158 53.9831 40.2956 53.7324 40.4551C53.4818 40.6146 53.2926 40.8356 53.165 41.1182C53.0374 41.3962 52.9736 41.7152 52.9736 42.0752H51.3262C51.3262 41.4964 51.4583 40.9678 51.7227 40.4893C51.987 40.0062 52.3698 39.6234 52.8711 39.3408C53.3724 39.0537 53.9762 38.9102 54.6826 38.9102C55.348 38.9102 55.9131 39.0218 56.3779 39.2451C56.8428 39.4684 57.196 39.7852 57.4375 40.1953C57.6836 40.6055 57.8066 41.0908 57.8066 41.6514C57.8066 41.9613 57.7565 42.2689 57.6562 42.5742C57.556 42.8796 57.4124 43.1849 57.2256 43.4902C57.0433 43.791 56.8268 44.0941 56.5762 44.3994C56.3255 44.7002 56.0498 45.0055 55.749 45.3154L53.5957 47.6875H58.1895ZM65.9619 43.1895V44.8164C65.9619 45.5957 65.8844 46.2611 65.7295 46.8125C65.5791 47.3594 65.3604 47.8037 65.0732 48.1455C64.7861 48.4873 64.4421 48.738 64.041 48.8975C63.6445 49.057 63.2002 49.1367 62.708 49.1367C62.3161 49.1367 61.9515 49.0866 61.6143 48.9863C61.2816 48.8861 60.9808 48.7288 60.7119 48.5146C60.443 48.3005 60.2129 48.0247 60.0215 47.6875C59.8346 47.3457 59.6888 46.9378 59.584 46.4639C59.4837 45.9899 59.4336 45.4408 59.4336 44.8164V43.1895C59.4336 42.4056 59.5111 41.7448 59.666 41.207C59.821 40.6647 60.042 40.2249 60.3291 39.8877C60.6162 39.5459 60.958 39.2975 61.3545 39.1426C61.7555 38.9876 62.2021 38.9102 62.6943 38.9102C63.0908 38.9102 63.4554 38.9603 63.7881 39.0605C64.1253 39.1562 64.4261 39.3089 64.6904 39.5186C64.9593 39.7282 65.1872 40.0016 65.374 40.3389C65.5654 40.6715 65.7113 41.0749 65.8115 41.5488C65.9118 42.0182 65.9619 42.5651 65.9619 43.1895ZM64.3145 45.0488V42.9434C64.3145 42.5469 64.2917 42.1982 64.2461 41.8975C64.2005 41.5921 64.1322 41.3346 64.041 41.125C63.9544 40.9108 63.8451 40.7376 63.7129 40.6055C63.5807 40.4688 63.4303 40.3708 63.2617 40.3115C63.0931 40.2477 62.904 40.2158 62.6943 40.2158C62.4391 40.2158 62.2113 40.266 62.0107 40.3662C61.8102 40.4619 61.6416 40.6169 61.5049 40.8311C61.3682 41.0452 61.2633 41.3278 61.1904 41.6787C61.1221 42.0251 61.0879 42.4466 61.0879 42.9434V45.0488C61.0879 45.4499 61.1107 45.8031 61.1562 46.1084C61.2018 46.4137 61.2702 46.6758 61.3613 46.8945C61.4525 47.1087 61.5618 47.2865 61.6895 47.4277C61.8216 47.5645 61.972 47.6647 62.1406 47.7285C62.3138 47.7923 62.5029 47.8242 62.708 47.8242C62.9678 47.8242 63.1979 47.7741 63.3984 47.6738C63.599 47.5736 63.7676 47.4141 63.9043 47.1953C64.041 46.972 64.1436 46.6826 64.2119 46.3271C64.2803 45.9717 64.3145 45.5456 64.3145 45.0488ZM74.1035 47.6875V49H67.4316V47.8721L70.6719 44.3379C71.0273 43.9368 71.3076 43.5905 71.5127 43.2988C71.7178 43.0072 71.8613 42.7451 71.9434 42.5127C72.0299 42.2757 72.0732 42.0456 72.0732 41.8223C72.0732 41.5078 72.014 41.2321 71.8955 40.9951C71.7816 40.7536 71.613 40.5645 71.3896 40.4277C71.1663 40.2865 70.8952 40.2158 70.5762 40.2158C70.207 40.2158 69.8971 40.2956 69.6465 40.4551C69.3958 40.6146 69.2067 40.8356 69.0791 41.1182C68.9515 41.3962 68.8877 41.7152 68.8877 42.0752H67.2402C67.2402 41.4964 67.3724 40.9678 67.6367 40.4893C67.901 40.0062 68.2839 39.6234 68.7852 39.3408C69.2865 39.0537 69.8903 38.9102 70.5967 38.9102C71.262 38.9102 71.8271 39.0218 72.292 39.2451C72.7568 39.4684 73.11 39.7852 73.3516 40.1953C73.5977 40.6055 73.7207 41.0908 73.7207 41.6514C73.7207 41.9613 73.6706 42.2689 73.5703 42.5742C73.4701 42.8796 73.3265 43.1849 73.1396 43.4902C72.9574 43.791 72.7409 44.0941 72.4902 44.3994C72.2396 44.7002 71.9639 45.0055 71.6631 45.3154L69.5098 47.6875H74.1035ZM77.3232 43.2783H78.3076C78.6904 43.2783 79.0072 43.2122 79.2578 43.0801C79.513 42.9479 79.7021 42.7656 79.8252 42.5332C79.9482 42.3008 80.0098 42.0342 80.0098 41.7334C80.0098 41.4189 79.9528 41.1501 79.8389 40.9268C79.7295 40.6989 79.5609 40.5234 79.333 40.4004C79.1097 40.2773 78.8249 40.2158 78.4785 40.2158C78.1868 40.2158 77.9225 40.2751 77.6855 40.3936C77.4531 40.5075 77.2686 40.6715 77.1318 40.8857C76.9951 41.0954 76.9268 41.346 76.9268 41.6377H75.2725C75.2725 41.109 75.4115 40.6396 75.6895 40.2295C75.9674 39.8193 76.3457 39.498 76.8242 39.2656C77.3073 39.0286 77.8496 38.9102 78.4512 38.9102C79.0938 38.9102 79.6543 39.0173 80.1328 39.2314C80.6159 39.4411 80.9919 39.7555 81.2607 40.1748C81.5296 40.5941 81.6641 41.1136 81.6641 41.7334C81.6641 42.016 81.598 42.3031 81.4658 42.5947C81.3337 42.8864 81.1377 43.153 80.8779 43.3945C80.6182 43.6315 80.2946 43.8252 79.9072 43.9756C79.5199 44.1214 79.071 44.1943 78.5605 44.1943H77.3232V43.2783ZM77.3232 44.5635V43.6611H78.5605C79.1439 43.6611 79.6406 43.7295 80.0508 43.8662C80.4655 44.0029 80.8027 44.1921 81.0625 44.4336C81.3223 44.6706 81.5114 44.9417 81.6299 45.2471C81.7529 45.5524 81.8145 45.876 81.8145 46.2178C81.8145 46.6826 81.7301 47.0973 81.5615 47.4619C81.3975 47.8219 81.1628 48.1273 80.8574 48.3779C80.5521 48.6286 80.1943 48.8177 79.7842 48.9453C79.3786 49.0729 78.9365 49.1367 78.458 49.1367C78.0296 49.1367 77.6195 49.0775 77.2275 48.959C76.8356 48.8405 76.4847 48.665 76.1748 48.4326C75.8649 48.1956 75.6188 47.9017 75.4365 47.5508C75.2588 47.1953 75.1699 46.7852 75.1699 46.3203H76.8174C76.8174 46.6165 76.8857 46.8786 77.0225 47.1064C77.1637 47.3298 77.3597 47.5052 77.6104 47.6328C77.8656 47.7604 78.1572 47.8242 78.4854 47.8242C78.8317 47.8242 79.1302 47.7627 79.3809 47.6396C79.6315 47.5166 79.8229 47.3343 79.9551 47.0928C80.0918 46.8512 80.1602 46.5596 80.1602 46.2178C80.1602 45.8304 80.085 45.516 79.9346 45.2744C79.7842 45.0329 79.57 44.8551 79.292 44.7412C79.014 44.6227 78.6859 44.5635 78.3076 44.5635H77.3232ZM90.2432 44.0918V45.4043H86.627V44.0918H90.2432ZM101.563 43.1895V44.8164C101.563 45.5957 101.486 46.2611 101.331 46.8125C101.181 47.3594 100.962 47.8037 100.675 48.1455C100.388 48.4873 100.044 48.738 99.6426 48.8975C99.2461 49.057 98.8018 49.1367 98.3096 49.1367C97.9176 49.1367 97.5531 49.0866 97.2158 48.9863C96.8831 48.8861 96.5824 48.7288 96.3135 48.5146C96.0446 48.3005 95.8145 48.0247 95.623 47.6875C95.4362 47.3457 95.2904 46.9378 95.1855 46.4639C95.0853 45.9899 95.0352 45.4408 95.0352 44.8164V43.1895C95.0352 42.4056 95.1126 41.7448 95.2676 41.207C95.4225 40.6647 95.6436 40.2249 95.9307 39.8877C96.2178 39.5459 96.5596 39.2975 96.9561 39.1426C97.3571 38.9876 97.8037 38.9102 98.2959 38.9102C98.6924 38.9102 99.057 38.9603 99.3896 39.0605C99.7269 39.1562 100.028 39.3089 100.292 39.5186C100.561 39.7282 100.789 40.0016 100.976 40.3389C101.167 40.6715 101.313 41.0749 101.413 41.5488C101.513 42.0182 101.563 42.5651 101.563 43.1895ZM99.916 45.0488V42.9434C99.916 42.5469 99.8932 42.1982 99.8477 41.8975C99.8021 41.5921 99.7337 41.3346 99.6426 41.125C99.556 40.9108 99.4466 40.7376 99.3145 40.6055C99.1823 40.4688 99.0319 40.3708 98.8633 40.3115C98.6947 40.2477 98.5055 40.2158 98.2959 40.2158C98.0407 40.2158 97.8128 40.266 97.6123 40.3662C97.4118 40.4619 97.2432 40.6169 97.1064 40.8311C96.9697 41.0452 96.8649 41.3278 96.792 41.6787C96.7236 42.0251 96.6895 42.4466 96.6895 42.9434V45.0488C96.6895 45.4499 96.7122 45.8031 96.7578 46.1084C96.8034 46.4137 96.8717 46.6758 96.9629 46.8945C97.054 47.1087 97.1634 47.2865 97.291 47.4277C97.4232 47.5645 97.5736 47.6647 97.7422 47.7285C97.9154 47.7923 98.1045 47.8242 98.3096 47.8242C98.5693 47.8242 98.7995 47.7741 99 47.6738C99.2005 47.5736 99.3691 47.4141 99.5059 47.1953C99.6426 46.972 99.7451 46.6826 99.8135 46.3271C99.8818 45.9717 99.916 45.5456 99.916 45.0488ZM109.644 39.0469V39.9492L105.665 49H103.929L107.9 40.3594H102.746V39.0469H109.644ZM115.413 39.0469L111.537 49.8545H110.245L114.128 39.0469H115.413ZM123.131 47.6875V49H116.459V47.8721L119.699 44.3379C120.055 43.9368 120.335 43.5905 120.54 43.2988C120.745 43.0072 120.889 42.7451 120.971 42.5127C121.057 42.2757 121.101 42.0456 121.101 41.8223C121.101 41.5078 121.041 41.2321 120.923 40.9951C120.809 40.7536 120.64 40.5645 120.417 40.4277C120.194 40.2865 119.923 40.2158 119.604 40.2158C119.234 40.2158 118.924 40.2956 118.674 40.4551C118.423 40.6146 118.234 40.8356 118.106 41.1182C117.979 41.3962 117.915 41.7152 117.915 42.0752H116.268C116.268 41.4964 116.4 40.9678 116.664 40.4893C116.928 40.0062 117.311 39.6234 117.812 39.3408C118.314 39.0537 118.918 38.9102 119.624 38.9102C120.289 38.9102 120.854 39.0218 121.319 39.2451C121.784 39.4684 122.137 39.7852 122.379 40.1953C122.625 40.6055 122.748 41.0908 122.748 41.6514C122.748 41.9613 122.698 42.2689 122.598 42.5742C122.497 42.8796 122.354 43.1849 122.167 43.4902C121.985 43.791 121.768 44.0941 121.518 44.3994C121.267 44.7002 120.991 45.0055 120.69 45.3154L118.537 47.6875H123.131ZM130.903 43.1895V44.8164C130.903 45.5957 130.826 46.2611 130.671 46.8125C130.521 47.3594 130.302 47.8037 130.015 48.1455C129.728 48.4873 129.383 48.738 128.982 48.8975C128.586 49.057 128.142 49.1367 127.649 49.1367C127.257 49.1367 126.893 49.0866 126.556 48.9863C126.223 48.8861 125.922 48.7288 125.653 48.5146C125.384 48.3005 125.154 48.0247 124.963 47.6875C124.776 47.3457 124.63 46.9378 124.525 46.4639C124.425 45.9899 124.375 45.4408 124.375 44.8164V43.1895C124.375 42.4056 124.452 41.7448 124.607 41.207C124.762 40.6647 124.983 40.2249 125.271 39.8877C125.558 39.5459 125.899 39.2975 126.296 39.1426C126.697 38.9876 127.144 38.9102 127.636 38.9102C128.032 38.9102 128.397 38.9603 128.729 39.0605C129.067 39.1562 129.368 39.3089 129.632 39.5186C129.901 39.7282 130.129 40.0016 130.315 40.3389C130.507 40.6715 130.653 41.0749 130.753 41.5488C130.853 42.0182 130.903 42.5651 130.903 43.1895ZM129.256 45.0488V42.9434C129.256 42.5469 129.233 42.1982 129.188 41.8975C129.142 41.5921 129.074 41.3346 128.982 41.125C128.896 40.9108 128.786 40.7376 128.654 40.6055C128.522 40.4688 128.372 40.3708 128.203 40.3115C128.035 40.2477 127.845 40.2158 127.636 40.2158C127.381 40.2158 127.153 40.266 126.952 40.3662C126.752 40.4619 126.583 40.6169 126.446 40.8311C126.31 41.0452 126.205 41.3278 126.132 41.6787C126.063 42.0251 126.029 42.4466 126.029 42.9434V45.0488C126.029 45.4499 126.052 45.8031 126.098 46.1084C126.143 46.4137 126.212 46.6758 126.303 46.8945C126.394 47.1087 126.503 47.2865 126.631 47.4277C126.763 47.5645 126.913 47.6647 127.082 47.7285C127.255 47.7923 127.444 47.8242 127.649 47.8242C127.909 47.8242 128.139 47.7741 128.34 47.6738C128.54 47.5736 128.709 47.4141 128.846 47.1953C128.982 46.972 129.085 46.6826 129.153 46.3271C129.222 45.9717 129.256 45.5456 129.256 45.0488ZM136.796 39.0469L132.92 49.8545H131.628L135.511 39.0469H136.796ZM144.514 47.6875V49H137.842V47.8721L141.082 44.3379C141.438 43.9368 141.718 43.5905 141.923 43.2988C142.128 43.0072 142.271 42.7451 142.354 42.5127C142.44 42.2757 142.483 42.0456 142.483 41.8223C142.483 41.5078 142.424 41.2321 142.306 40.9951C142.192 40.7536 142.023 40.5645 141.8 40.4277C141.576 40.2865 141.305 40.2158 140.986 40.2158C140.617 40.2158 140.307 40.2956 140.057 40.4551C139.806 40.6146 139.617 40.8356 139.489 41.1182C139.362 41.3962 139.298 41.7152 139.298 42.0752H137.65C137.65 41.4964 137.783 40.9678 138.047 40.4893C138.311 40.0062 138.694 39.6234 139.195 39.3408C139.697 39.0537 140.3 38.9102 141.007 38.9102C141.672 38.9102 142.237 39.0218 142.702 39.2451C143.167 39.4684 143.52 39.7852 143.762 40.1953C144.008 40.6055 144.131 41.0908 144.131 41.6514C144.131 41.9613 144.081 42.2689 143.98 42.5742C143.88 42.8796 143.737 43.1849 143.55 43.4902C143.368 43.791 143.151 44.0941 142.9 44.3994C142.65 44.7002 142.374 45.0055 142.073 45.3154L139.92 47.6875H144.514ZM152.286 43.1895V44.8164C152.286 45.5957 152.209 46.2611 152.054 46.8125C151.903 47.3594 151.685 47.8037 151.397 48.1455C151.11 48.4873 150.766 48.738 150.365 48.8975C149.969 49.057 149.524 49.1367 149.032 49.1367C148.64 49.1367 148.276 49.0866 147.938 48.9863C147.606 48.8861 147.305 48.7288 147.036 48.5146C146.767 48.3005 146.537 48.0247 146.346 47.6875C146.159 47.3457 146.013 46.9378 145.908 46.4639C145.808 45.9899 145.758 45.4408 145.758 44.8164V43.1895C145.758 42.4056 145.835 41.7448 145.99 41.207C146.145 40.6647 146.366 40.2249 146.653 39.8877C146.94 39.5459 147.282 39.2975 147.679 39.1426C148.08 38.9876 148.526 38.9102 149.019 38.9102C149.415 38.9102 149.78 38.9603 150.112 39.0605C150.45 39.1562 150.75 39.3089 151.015 39.5186C151.284 39.7282 151.511 40.0016 151.698 40.3389C151.89 40.6715 152.035 41.0749 152.136 41.5488C152.236 42.0182 152.286 42.5651 152.286 43.1895ZM150.639 45.0488V42.9434C150.639 42.5469 150.616 42.1982 150.57 41.8975C150.525 41.5921 150.456 41.3346 150.365 41.125C150.279 40.9108 150.169 40.7376 150.037 40.6055C149.905 40.4688 149.755 40.3708 149.586 40.3115C149.417 40.2477 149.228 40.2158 149.019 40.2158C148.763 40.2158 148.535 40.266 148.335 40.3662C148.134 40.4619 147.966 40.6169 147.829 40.8311C147.692 41.0452 147.588 41.3278 147.515 41.6787C147.446 42.0251 147.412 42.4466 147.412 42.9434V45.0488C147.412 45.4499 147.435 45.8031 147.48 46.1084C147.526 46.4137 147.594 46.6758 147.686 46.8945C147.777 47.1087 147.886 47.2865 148.014 47.4277C148.146 47.5645 148.296 47.6647 148.465 47.7285C148.638 47.7923 148.827 47.8242 149.032 47.8242C149.292 47.8242 149.522 47.7741 149.723 47.6738C149.923 47.5736 150.092 47.4141 150.229 47.1953C150.365 46.972 150.468 46.6826 150.536 46.3271C150.604 45.9717 150.639 45.5456 150.639 45.0488ZM160.428 47.6875V49H153.756V47.8721L156.996 44.3379C157.352 43.9368 157.632 43.5905 157.837 43.2988C158.042 43.0072 158.186 42.7451 158.268 42.5127C158.354 42.2757 158.397 42.0456 158.397 41.8223C158.397 41.5078 158.338 41.2321 158.22 40.9951C158.106 40.7536 157.937 40.5645 157.714 40.4277C157.491 40.2865 157.219 40.2158 156.9 40.2158C156.531 40.2158 156.221 40.2956 155.971 40.4551C155.72 40.6146 155.531 40.8356 155.403 41.1182C155.276 41.3962 155.212 41.7152 155.212 42.0752H153.564C153.564 41.4964 153.697 40.9678 153.961 40.4893C154.225 40.0062 154.608 39.6234 155.109 39.3408C155.611 39.0537 156.215 38.9102 156.921 38.9102C157.586 38.9102 158.151 39.0218 158.616 39.2451C159.081 39.4684 159.434 39.7852 159.676 40.1953C159.922 40.6055 160.045 41.0908 160.045 41.6514C160.045 41.9613 159.995 42.2689 159.895 42.5742C159.794 42.8796 159.651 43.1849 159.464 43.4902C159.282 43.791 159.065 44.0941 158.814 44.3994C158.564 44.7002 158.288 45.0055 157.987 45.3154L155.834 47.6875H160.428ZM163.647 43.2783H164.632C165.015 43.2783 165.331 43.2122 165.582 43.0801C165.837 42.9479 166.026 42.7656 166.149 42.5332C166.272 42.3008 166.334 42.0342 166.334 41.7334C166.334 41.4189 166.277 41.1501 166.163 40.9268C166.054 40.6989 165.885 40.5234 165.657 40.4004C165.434 40.2773 165.149 40.2158 164.803 40.2158C164.511 40.2158 164.247 40.2751 164.01 40.3936C163.777 40.5075 163.593 40.6715 163.456 40.8857C163.319 41.0954 163.251 41.346 163.251 41.6377H161.597C161.597 41.109 161.736 40.6396 162.014 40.2295C162.292 39.8193 162.67 39.498 163.148 39.2656C163.632 39.0286 164.174 38.9102 164.775 38.9102C165.418 38.9102 165.979 39.0173 166.457 39.2314C166.94 39.4411 167.316 39.7555 167.585 40.1748C167.854 40.5941 167.988 41.1136 167.988 41.7334C167.988 42.016 167.922 42.3031 167.79 42.5947C167.658 42.8864 167.462 43.153 167.202 43.3945C166.942 43.6315 166.619 43.8252 166.231 43.9756C165.844 44.1214 165.395 44.1943 164.885 44.1943H163.647V43.2783ZM163.647 44.5635V43.6611H164.885C165.468 43.6611 165.965 43.7295 166.375 43.8662C166.79 44.0029 167.127 44.1921 167.387 44.4336C167.646 44.6706 167.836 44.9417 167.954 45.2471C168.077 45.5524 168.139 45.876 168.139 46.2178C168.139 46.6826 168.054 47.0973 167.886 47.4619C167.722 47.8219 167.487 48.1273 167.182 48.3779C166.876 48.6286 166.519 48.8177 166.108 48.9453C165.703 49.0729 165.261 49.1367 164.782 49.1367C164.354 49.1367 163.944 49.0775 163.552 48.959C163.16 48.8405 162.809 48.665 162.499 48.4326C162.189 48.1956 161.943 47.9017 161.761 47.5508C161.583 47.1953 161.494 46.7852 161.494 46.3203H163.142C163.142 46.6165 163.21 46.8786 163.347 47.1064C163.488 47.3298 163.684 47.5052 163.935 47.6328C164.19 47.7604 164.481 47.8242 164.81 47.8242C165.156 47.8242 165.454 47.7627 165.705 47.6396C165.956 47.5166 166.147 47.3343 166.279 47.0928C166.416 46.8512 166.484 46.5596 166.484 46.2178C166.484 45.8304 166.409 45.516 166.259 45.2744C166.108 45.0329 165.894 44.8551 165.616 44.7412C165.338 44.6227 165.01 44.5635 164.632 44.5635H163.647Z" fill="black" fill-opacity="0.4"/>
</g>
<defs>
<clipPath id="clip0_150_1428">
<rect width="24" height="24" fill="white" transform="translate(306 30)"/>
</clipPath>
</defs>
</svg>
