<svg width="349" height="62" viewBox="0 0 349 62" fill="none" xmlns="http://www.w3.org/2000/svg">
<g opacity="0.5">
<path d="M5.47656 10.7578H2.51562V9.20312H5.47656C5.99219 9.20312 6.40885 9.11979 6.72656 8.95312C7.04427 8.78646 7.27604 8.55729 7.42188 8.26562C7.57292 7.96875 7.64844 7.63021 7.64844 7.25C7.64844 6.89062 7.57292 6.55469 7.42188 6.24219C7.27604 5.92448 7.04427 5.66927 6.72656 5.47656C6.40885 5.28385 5.99219 5.1875 5.47656 5.1875H3.11719V15H1.15625V3.625H5.47656C6.35677 3.625 7.10417 3.78125 7.71875 4.09375C8.33854 4.40104 8.8099 4.82812 9.13281 5.375C9.45573 5.91667 9.61719 6.53646 9.61719 7.23438C9.61719 7.96875 9.45573 8.59896 9.13281 9.125C8.8099 9.65104 8.33854 10.0547 7.71875 10.3359C7.10417 10.6172 6.35677 10.7578 5.47656 10.7578ZM13.0781 8.15625V15H11.1953V6.54688H12.9922L13.0781 8.15625ZM15.6641 6.49219L15.6484 8.24219C15.5339 8.22135 15.4089 8.20573 15.2734 8.19531C15.1432 8.1849 15.013 8.17969 14.8828 8.17969C14.5599 8.17969 14.276 8.22656 14.0312 8.32031C13.7865 8.40885 13.5807 8.53906 13.4141 8.71094C13.2526 8.8776 13.1276 9.08073 13.0391 9.32031C12.9505 9.5599 12.8984 9.82812 12.8828 10.125L12.4531 10.1562C12.4531 9.625 12.5052 9.13281 12.6094 8.67969C12.7135 8.22656 12.8698 7.82812 13.0781 7.48438C13.2917 7.14062 13.5573 6.8724 13.875 6.67969C14.1979 6.48698 14.5703 6.39062 14.9922 6.39062C15.1068 6.39062 15.2292 6.40104 15.3594 6.42188C15.4948 6.44271 15.5964 6.46615 15.6641 6.49219ZM16.2812 10.8672V10.6875C16.2812 10.0781 16.3698 9.51302 16.5469 8.99219C16.724 8.46615 16.9792 8.01042 17.3125 7.625C17.651 7.23438 18.0625 6.93229 18.5469 6.71875C19.0365 6.5 19.5885 6.39062 20.2031 6.39062C20.8229 6.39062 21.375 6.5 21.8594 6.71875C22.349 6.93229 22.763 7.23438 23.1016 7.625C23.4401 8.01042 23.6979 8.46615 23.875 8.99219C24.0521 9.51302 24.1406 10.0781 24.1406 10.6875V10.8672C24.1406 11.4766 24.0521 12.0417 23.875 12.5625C23.6979 13.0833 23.4401 13.5391 23.1016 13.9297C22.763 14.3151 22.3516 14.6172 21.8672 14.8359C21.3828 15.0495 20.8333 15.1562 20.2188 15.1562C19.599 15.1562 19.0443 15.0495 18.5547 14.8359C18.0703 14.6172 17.6589 14.3151 17.3203 13.9297C16.9818 13.5391 16.724 13.0833 16.5469 12.5625C16.3698 12.0417 16.2812 11.4766 16.2812 10.8672ZM18.1641 10.6875V10.8672C18.1641 11.2474 18.2031 11.6068 18.2812 11.9453C18.3594 12.2839 18.4818 12.5807 18.6484 12.8359C18.8151 13.0911 19.0286 13.2917 19.2891 13.4375C19.5495 13.5833 19.8594 13.6562 20.2188 13.6562C20.5677 13.6562 20.8698 13.5833 21.125 13.4375C21.3854 13.2917 21.599 13.0911 21.7656 12.8359C21.9323 12.5807 22.0547 12.2839 22.1328 11.9453C22.2161 11.6068 22.2578 11.2474 22.2578 10.8672V10.6875C22.2578 10.3125 22.2161 9.95833 22.1328 9.625C22.0547 9.28646 21.9297 8.98698 21.7578 8.72656C21.5911 8.46615 21.3776 8.26302 21.1172 8.11719C20.862 7.96615 20.5573 7.89062 20.2031 7.89062C19.849 7.89062 19.5417 7.96615 19.2812 8.11719C19.026 8.26302 18.8151 8.46615 18.6484 8.72656C18.4818 8.98698 18.3594 9.28646 18.2812 9.625C18.2031 9.95833 18.1641 10.3125 18.1641 10.6875ZM25.8125 6.54688H27.7031V15.7344C27.7031 16.3125 27.6042 16.7995 27.4062 17.1953C27.2083 17.5964 26.9167 17.8984 26.5312 18.1016C26.1458 18.3099 25.6745 18.4141 25.1172 18.4141C24.9505 18.4141 24.7786 18.401 24.6016 18.375C24.4193 18.3542 24.2474 18.3229 24.0859 18.2812L24.0938 16.8125C24.2031 16.8333 24.3203 16.849 24.4453 16.8594C24.5651 16.875 24.6797 16.8828 24.7891 16.8828C25.013 16.8828 25.2005 16.8438 25.3516 16.7656C25.5026 16.6875 25.6172 16.5651 25.6953 16.3984C25.7734 16.2318 25.8125 16.0104 25.8125 15.7344V6.54688ZM25.6484 4.32812C25.6484 4.04167 25.7448 3.80469 25.9375 3.61719C26.1302 3.42448 26.3932 3.32812 26.7266 3.32812C27.0651 3.32812 27.3281 3.42448 27.5156 3.61719C27.7083 3.80469 27.8047 4.04167 27.8047 4.32812C27.8047 4.60938 27.7083 4.84375 27.5156 5.03125C27.3281 5.21875 27.0651 5.3125 26.7266 5.3125C26.3932 5.3125 26.1302 5.21875 25.9375 5.03125C25.7448 4.84375 25.6484 4.60938 25.6484 4.32812ZM33.4609 15.1562C32.8359 15.1562 32.2708 15.0547 31.7656 14.8516C31.2656 14.6432 30.8385 14.3542 30.4844 13.9844C30.1354 13.6146 29.8672 13.1797 29.6797 12.6797C29.4922 12.1797 29.3984 11.6406 29.3984 11.0625V10.75C29.3984 10.0885 29.4948 9.48958 29.6875 8.95312C29.8802 8.41667 30.1484 7.95833 30.4922 7.57812C30.8359 7.19271 31.2422 6.89844 31.7109 6.69531C32.1797 6.49219 32.6875 6.39062 33.2344 6.39062C33.8385 6.39062 34.3672 6.49219 34.8203 6.69531C35.2734 6.89844 35.6484 7.1849 35.9453 7.55469C36.2474 7.91927 36.4714 8.35417 36.6172 8.85938C36.7682 9.36458 36.8438 9.92188 36.8438 10.5312V11.3359H30.3125V9.98438H34.9844V9.83594C34.974 9.4974 34.9062 9.17969 34.7812 8.88281C34.6615 8.58594 34.4766 8.34635 34.2266 8.16406C33.9766 7.98177 33.6432 7.89062 33.2266 7.89062C32.9141 7.89062 32.6354 7.95833 32.3906 8.09375C32.151 8.22396 31.9505 8.41406 31.7891 8.66406C31.6276 8.91406 31.5026 9.21615 31.4141 9.57031C31.3307 9.91927 31.2891 10.3125 31.2891 10.75V11.0625C31.2891 11.4323 31.3385 11.776 31.4375 12.0938C31.5417 12.4062 31.6927 12.6797 31.8906 12.9141C32.0885 13.1484 32.3281 13.3333 32.6094 13.4688C32.8906 13.599 33.2109 13.6641 33.5703 13.6641C34.0234 13.6641 34.4271 13.5729 34.7812 13.3906C35.1354 13.2083 35.4427 12.9505 35.7031 12.6172L36.6953 13.5781C36.513 13.8438 36.276 14.099 35.9844 14.3438C35.6927 14.5833 35.3359 14.7786 34.9141 14.9297C34.4974 15.0807 34.013 15.1562 33.4609 15.1562ZM41.7656 13.6562C42.0729 13.6562 42.349 13.5964 42.5938 13.4766C42.8438 13.3516 43.0443 13.1797 43.1953 12.9609C43.3516 12.7422 43.4375 12.4896 43.4531 12.2031H45.2266C45.2161 12.75 45.0547 13.2474 44.7422 13.6953C44.4297 14.1432 44.0156 14.5 43.5 14.7656C42.9844 15.026 42.4141 15.1562 41.7891 15.1562C41.1432 15.1562 40.5807 15.0469 40.1016 14.8281C39.6224 14.6042 39.224 14.2969 38.9062 13.9062C38.5885 13.5156 38.349 13.0651 38.1875 12.5547C38.0312 12.0443 37.9531 11.4974 37.9531 10.9141V10.6406C37.9531 10.0573 38.0312 9.51042 38.1875 9C38.349 8.48438 38.5885 8.03125 38.9062 7.64062C39.224 7.25 39.6224 6.94531 40.1016 6.72656C40.5807 6.5026 41.1406 6.39062 41.7812 6.39062C42.4583 6.39062 43.0521 6.52604 43.5625 6.79688C44.0729 7.0625 44.474 7.4349 44.7656 7.91406C45.0625 8.38802 45.2161 8.9401 45.2266 9.57031H43.4531C43.4375 9.25781 43.3594 8.97656 43.2188 8.72656C43.0833 8.47135 42.8906 8.26823 42.6406 8.11719C42.3958 7.96615 42.1016 7.89062 41.7578 7.89062C41.3776 7.89062 41.0625 7.96875 40.8125 8.125C40.5625 8.27604 40.3672 8.48438 40.2266 8.75C40.0859 9.01042 39.9844 9.30469 39.9219 9.63281C39.8646 9.95573 39.8359 10.2917 39.8359 10.6406V10.9141C39.8359 11.263 39.8646 11.6016 39.9219 11.9297C39.9792 12.2578 40.0781 12.5521 40.2188 12.8125C40.3646 13.0677 40.5625 13.2734 40.8125 13.4297C41.0625 13.5807 41.3802 13.6562 41.7656 13.6562ZM50.5469 6.54688V7.92188H45.7812V6.54688H50.5469ZM47.1562 4.47656H49.0391V12.6641C49.0391 12.9245 49.0755 13.125 49.1484 13.2656C49.2266 13.401 49.3333 13.4922 49.4688 13.5391C49.6042 13.5859 49.763 13.6094 49.9453 13.6094C50.0755 13.6094 50.2005 13.6016 50.3203 13.5859C50.4401 13.5703 50.5365 13.5547 50.6094 13.5391L50.6172 14.9766C50.4609 15.0234 50.2786 15.0651 50.0703 15.1016C49.8672 15.138 49.6328 15.1562 49.3672 15.1562C48.9349 15.1562 48.5521 15.0807 48.2188 14.9297C47.8854 14.7734 47.625 14.5208 47.4375 14.1719C47.25 13.8229 47.1562 13.3594 47.1562 12.7812V4.47656ZM56.7422 12.7109C56.7422 12.5234 56.6953 12.3542 56.6016 12.2031C56.5078 12.0469 56.3281 11.9062 56.0625 11.7812C55.8021 11.6562 55.4167 11.5417 54.9062 11.4375C54.4583 11.3385 54.0469 11.2214 53.6719 11.0859C53.3021 10.9453 52.9844 10.776 52.7188 10.5781C52.4531 10.3802 52.2474 10.1458 52.1016 9.875C51.9557 9.60417 51.8828 9.29167 51.8828 8.9375C51.8828 8.59375 51.9583 8.26823 52.1094 7.96094C52.2604 7.65365 52.4766 7.38281 52.7578 7.14844C53.0391 6.91406 53.3802 6.72917 53.7812 6.59375C54.1875 6.45833 54.6406 6.39062 55.1406 6.39062C55.849 6.39062 56.4557 6.51042 56.9609 6.75C57.4714 6.98438 57.862 7.30469 58.1328 7.71094C58.4036 8.11198 58.5391 8.5651 58.5391 9.07031H56.6562C56.6562 8.84635 56.599 8.63802 56.4844 8.44531C56.375 8.2474 56.2083 8.08854 55.9844 7.96875C55.7604 7.84375 55.4792 7.78125 55.1406 7.78125C54.8177 7.78125 54.5495 7.83333 54.3359 7.9375C54.1276 8.03646 53.9714 8.16667 53.8672 8.32812C53.7682 8.48958 53.7188 8.66667 53.7188 8.85938C53.7188 9 53.7448 9.1276 53.7969 9.24219C53.8542 9.35156 53.9479 9.45312 54.0781 9.54688C54.2083 9.63542 54.3854 9.71875 54.6094 9.79688C54.8385 9.875 55.125 9.95052 55.4688 10.0234C56.1146 10.1589 56.6693 10.3333 57.1328 10.5469C57.6016 10.7552 57.9609 11.026 58.2109 11.3594C58.4609 11.6875 58.5859 12.1042 58.5859 12.6094C58.5859 12.9844 58.5052 13.3281 58.3438 13.6406C58.1875 13.9479 57.9583 14.2161 57.6562 14.4453C57.3542 14.6693 56.9922 14.8438 56.5703 14.9688C56.1536 15.0938 55.6849 15.1562 55.1641 15.1562C54.3984 15.1562 53.75 15.0208 53.2188 14.75C52.6875 14.474 52.2839 14.1224 52.0078 13.6953C51.737 13.263 51.6016 12.8151 51.6016 12.3516H53.4219C53.4427 12.7005 53.5391 12.9792 53.7109 13.1875C53.888 13.3906 54.1068 13.5391 54.3672 13.6328C54.6328 13.7214 54.9062 13.7656 55.1875 13.7656C55.526 13.7656 55.8099 13.7214 56.0391 13.6328C56.2682 13.5391 56.4427 13.4141 56.5625 13.2578C56.6823 13.0964 56.7422 12.9141 56.7422 12.7109ZM65.1797 3.625L60.75 15.9766H59.2734L63.7109 3.625H65.1797ZM77.375 11.2969H79.3281C79.2656 12.0417 79.0573 12.7057 78.7031 13.2891C78.349 13.8672 77.8516 14.3229 77.2109 14.6562C76.5703 14.9896 75.7917 15.1562 74.875 15.1562C74.1719 15.1562 73.5391 15.0312 72.9766 14.7812C72.4141 14.526 71.9323 14.1667 71.5312 13.7031C71.1302 13.2344 70.8229 12.6693 70.6094 12.0078C70.401 11.3464 70.2969 10.6068 70.2969 9.78906V8.84375C70.2969 8.02604 70.4036 7.28646 70.6172 6.625C70.8359 5.96354 71.1484 5.39844 71.5547 4.92969C71.9609 4.45573 72.4479 4.09375 73.0156 3.84375C73.5885 3.59375 74.2318 3.46875 74.9453 3.46875C75.8516 3.46875 76.6172 3.63542 77.2422 3.96875C77.8672 4.30208 78.3516 4.76302 78.6953 5.35156C79.0443 5.9401 79.2578 6.61458 79.3359 7.375H77.3828C77.3307 6.88542 77.2161 6.46615 77.0391 6.11719C76.8672 5.76823 76.612 5.5026 76.2734 5.32031C75.9349 5.13281 75.4922 5.03906 74.9453 5.03906C74.4974 5.03906 74.1068 5.1224 73.7734 5.28906C73.4401 5.45573 73.1615 5.70052 72.9375 6.02344C72.7135 6.34635 72.5443 6.74479 72.4297 7.21875C72.3203 7.6875 72.2656 8.22396 72.2656 8.82812V9.78906C72.2656 10.362 72.3151 10.8828 72.4141 11.3516C72.5182 11.8151 72.6745 12.2135 72.8828 12.5469C73.0964 12.8802 73.3672 13.138 73.6953 13.3203C74.0234 13.5026 74.4167 13.5938 74.875 13.5938C75.4323 13.5938 75.8828 13.5052 76.2266 13.3281C76.5755 13.151 76.8385 12.8932 77.0156 12.5547C77.1979 12.2109 77.3177 11.7917 77.375 11.2969ZM80.5625 10.8672V10.6875C80.5625 10.0781 80.651 9.51302 80.8281 8.99219C81.0052 8.46615 81.2604 8.01042 81.5938 7.625C81.9323 7.23438 82.3438 6.93229 82.8281 6.71875C83.3177 6.5 83.8698 6.39062 84.4844 6.39062C85.1042 6.39062 85.6562 6.5 86.1406 6.71875C86.6302 6.93229 87.0443 7.23438 87.3828 7.625C87.7214 8.01042 87.9792 8.46615 88.1562 8.99219C88.3333 9.51302 88.4219 10.0781 88.4219 10.6875V10.8672C88.4219 11.4766 88.3333 12.0417 88.1562 12.5625C87.9792 13.0833 87.7214 13.5391 87.3828 13.9297C87.0443 14.3151 86.6328 14.6172 86.1484 14.8359C85.6641 15.0495 85.1146 15.1562 84.5 15.1562C83.8802 15.1562 83.3255 15.0495 82.8359 14.8359C82.3516 14.6172 81.9401 14.3151 81.6016 13.9297C81.263 13.5391 81.0052 13.0833 80.8281 12.5625C80.651 12.0417 80.5625 11.4766 80.5625 10.8672ZM82.4453 10.6875V10.8672C82.4453 11.2474 82.4844 11.6068 82.5625 11.9453C82.6406 12.2839 82.763 12.5807 82.9297 12.8359C83.0964 13.0911 83.3099 13.2917 83.5703 13.4375C83.8307 13.5833 84.1406 13.6562 84.5 13.6562C84.849 13.6562 85.151 13.5833 85.4062 13.4375C85.6667 13.2917 85.8802 13.0911 86.0469 12.8359C86.2135 12.5807 86.3359 12.2839 86.4141 11.9453C86.4974 11.6068 86.5391 11.2474 86.5391 10.8672V10.6875C86.5391 10.3125 86.4974 9.95833 86.4141 9.625C86.3359 9.28646 86.2109 8.98698 86.0391 8.72656C85.8724 8.46615 85.6589 8.26302 85.3984 8.11719C85.1432 7.96615 84.8385 7.89062 84.4844 7.89062C84.1302 7.89062 83.8229 7.96615 83.5625 8.11719C83.3073 8.26302 83.0964 8.46615 82.9297 8.72656C82.763 8.98698 82.6406 9.28646 82.5625 9.625C82.4844 9.95833 82.4453 10.3125 82.4453 10.6875ZM95.0859 13.0078V6.54688H96.9766V15H95.1953L95.0859 13.0078ZM95.3516 11.25L95.9844 11.2344C95.9844 11.8021 95.9219 12.3255 95.7969 12.8047C95.6719 13.2786 95.4792 13.6927 95.2188 14.0469C94.9583 14.3958 94.625 14.6693 94.2188 14.8672C93.8125 15.0599 93.3255 15.1562 92.7578 15.1562C92.3464 15.1562 91.9688 15.0964 91.625 14.9766C91.2812 14.8568 90.9844 14.6719 90.7344 14.4219C90.4896 14.1719 90.2995 13.8464 90.1641 13.4453C90.0286 13.0443 89.9609 12.5651 89.9609 12.0078V6.54688H91.8438V12.0234C91.8438 12.3307 91.8802 12.5885 91.9531 12.7969C92.026 13 92.125 13.1641 92.25 13.2891C92.375 13.4141 92.5208 13.5026 92.6875 13.5547C92.8542 13.6068 93.0312 13.6328 93.2188 13.6328C93.7552 13.6328 94.1771 13.5286 94.4844 13.3203C94.7969 13.1068 95.0182 12.8203 95.1484 12.4609C95.2839 12.1016 95.3516 11.6979 95.3516 11.25ZM100.797 8.15625V15H98.9141V6.54688H100.711L100.797 8.15625ZM103.383 6.49219L103.367 8.24219C103.253 8.22135 103.128 8.20573 102.992 8.19531C102.862 8.1849 102.732 8.17969 102.602 8.17969C102.279 8.17969 101.995 8.22656 101.75 8.32031C101.505 8.40885 101.299 8.53906 101.133 8.71094C100.971 8.8776 100.846 9.08073 100.758 9.32031C100.669 9.5599 100.617 9.82812 100.602 10.125L100.172 10.1562C100.172 9.625 100.224 9.13281 100.328 8.67969C100.432 8.22656 100.589 7.82812 100.797 7.48438C101.01 7.14062 101.276 6.8724 101.594 6.67969C101.917 6.48698 102.289 6.39062 102.711 6.39062C102.826 6.39062 102.948 6.40104 103.078 6.42188C103.214 6.44271 103.315 6.46615 103.383 6.49219ZM109.305 12.7109C109.305 12.5234 109.258 12.3542 109.164 12.2031C109.07 12.0469 108.891 11.9062 108.625 11.7812C108.365 11.6562 107.979 11.5417 107.469 11.4375C107.021 11.3385 106.609 11.2214 106.234 11.0859C105.865 10.9453 105.547 10.776 105.281 10.5781C105.016 10.3802 104.81 10.1458 104.664 9.875C104.518 9.60417 104.445 9.29167 104.445 8.9375C104.445 8.59375 104.521 8.26823 104.672 7.96094C104.823 7.65365 105.039 7.38281 105.32 7.14844C105.602 6.91406 105.943 6.72917 106.344 6.59375C106.75 6.45833 107.203 6.39062 107.703 6.39062C108.411 6.39062 109.018 6.51042 109.523 6.75C110.034 6.98438 110.424 7.30469 110.695 7.71094C110.966 8.11198 111.102 8.5651 111.102 9.07031H109.219C109.219 8.84635 109.161 8.63802 109.047 8.44531C108.938 8.2474 108.771 8.08854 108.547 7.96875C108.323 7.84375 108.042 7.78125 107.703 7.78125C107.38 7.78125 107.112 7.83333 106.898 7.9375C106.69 8.03646 106.534 8.16667 106.43 8.32812C106.331 8.48958 106.281 8.66667 106.281 8.85938C106.281 9 106.307 9.1276 106.359 9.24219C106.417 9.35156 106.51 9.45312 106.641 9.54688C106.771 9.63542 106.948 9.71875 107.172 9.79688C107.401 9.875 107.688 9.95052 108.031 10.0234C108.677 10.1589 109.232 10.3333 109.695 10.5469C110.164 10.7552 110.523 11.026 110.773 11.3594C111.023 11.6875 111.148 12.1042 111.148 12.6094C111.148 12.9844 111.068 13.3281 110.906 13.6406C110.75 13.9479 110.521 14.2161 110.219 14.4453C109.917 14.6693 109.555 14.8438 109.133 14.9688C108.716 15.0938 108.247 15.1562 107.727 15.1562C106.961 15.1562 106.312 15.0208 105.781 14.75C105.25 14.474 104.846 14.1224 104.57 13.6953C104.299 13.263 104.164 12.8151 104.164 12.3516H105.984C106.005 12.7005 106.102 12.9792 106.273 13.1875C106.451 13.3906 106.669 13.5391 106.93 13.6328C107.195 13.7214 107.469 13.7656 107.75 13.7656C108.089 13.7656 108.372 13.7214 108.602 13.6328C108.831 13.5391 109.005 13.4141 109.125 13.2578C109.245 13.0964 109.305 12.9141 109.305 12.7109ZM116.523 15.1562C115.898 15.1562 115.333 15.0547 114.828 14.8516C114.328 14.6432 113.901 14.3542 113.547 13.9844C113.198 13.6146 112.93 13.1797 112.742 12.6797C112.555 12.1797 112.461 11.6406 112.461 11.0625V10.75C112.461 10.0885 112.557 9.48958 112.75 8.95312C112.943 8.41667 113.211 7.95833 113.555 7.57812C113.898 7.19271 114.305 6.89844 114.773 6.69531C115.242 6.49219 115.75 6.39062 116.297 6.39062C116.901 6.39062 117.43 6.49219 117.883 6.69531C118.336 6.89844 118.711 7.1849 119.008 7.55469C119.31 7.91927 119.534 8.35417 119.68 8.85938C119.831 9.36458 119.906 9.92188 119.906 10.5312V11.3359H113.375V9.98438H118.047V9.83594C118.036 9.4974 117.969 9.17969 117.844 8.88281C117.724 8.58594 117.539 8.34635 117.289 8.16406C117.039 7.98177 116.706 7.89062 116.289 7.89062C115.977 7.89062 115.698 7.95833 115.453 8.09375C115.214 8.22396 115.013 8.41406 114.852 8.66406C114.69 8.91406 114.565 9.21615 114.477 9.57031C114.393 9.91927 114.352 10.3125 114.352 10.75V11.0625C114.352 11.4323 114.401 11.776 114.5 12.0938C114.604 12.4062 114.755 12.6797 114.953 12.9141C115.151 13.1484 115.391 13.3333 115.672 13.4688C115.953 13.599 116.273 13.6641 116.633 13.6641C117.086 13.6641 117.49 13.5729 117.844 13.3906C118.198 13.2083 118.505 12.9505 118.766 12.6172L119.758 13.5781C119.576 13.8438 119.339 14.099 119.047 14.3438C118.755 14.5833 118.398 14.7786 117.977 14.9297C117.56 15.0807 117.076 15.1562 116.523 15.1562ZM126.117 12.7109C126.117 12.5234 126.07 12.3542 125.977 12.2031C125.883 12.0469 125.703 11.9062 125.438 11.7812C125.177 11.6562 124.792 11.5417 124.281 11.4375C123.833 11.3385 123.422 11.2214 123.047 11.0859C122.677 10.9453 122.359 10.776 122.094 10.5781C121.828 10.3802 121.622 10.1458 121.477 9.875C121.331 9.60417 121.258 9.29167 121.258 8.9375C121.258 8.59375 121.333 8.26823 121.484 7.96094C121.635 7.65365 121.852 7.38281 122.133 7.14844C122.414 6.91406 122.755 6.72917 123.156 6.59375C123.562 6.45833 124.016 6.39062 124.516 6.39062C125.224 6.39062 125.831 6.51042 126.336 6.75C126.846 6.98438 127.237 7.30469 127.508 7.71094C127.779 8.11198 127.914 8.5651 127.914 9.07031H126.031C126.031 8.84635 125.974 8.63802 125.859 8.44531C125.75 8.2474 125.583 8.08854 125.359 7.96875C125.135 7.84375 124.854 7.78125 124.516 7.78125C124.193 7.78125 123.924 7.83333 123.711 7.9375C123.503 8.03646 123.346 8.16667 123.242 8.32812C123.143 8.48958 123.094 8.66667 123.094 8.85938C123.094 9 123.12 9.1276 123.172 9.24219C123.229 9.35156 123.323 9.45312 123.453 9.54688C123.583 9.63542 123.76 9.71875 123.984 9.79688C124.214 9.875 124.5 9.95052 124.844 10.0234C125.49 10.1589 126.044 10.3333 126.508 10.5469C126.977 10.7552 127.336 11.026 127.586 11.3594C127.836 11.6875 127.961 12.1042 127.961 12.6094C127.961 12.9844 127.88 13.3281 127.719 13.6406C127.562 13.9479 127.333 14.2161 127.031 14.4453C126.729 14.6693 126.367 14.8438 125.945 14.9688C125.529 15.0938 125.06 15.1562 124.539 15.1562C123.773 15.1562 123.125 15.0208 122.594 14.75C122.062 14.474 121.659 14.1224 121.383 13.6953C121.112 13.263 120.977 12.8151 120.977 12.3516H122.797C122.818 12.7005 122.914 12.9792 123.086 13.1875C123.263 13.3906 123.482 13.5391 123.742 13.6328C124.008 13.7214 124.281 13.7656 124.562 13.7656C124.901 13.7656 125.185 13.7214 125.414 13.6328C125.643 13.5391 125.818 13.4141 125.938 13.2578C126.057 13.0964 126.117 12.9141 126.117 12.7109Z" fill="black" fill-opacity="0.5"/>
<rect x="0.5" y="26.5" width="348" height="35" rx="5.5" fill="#D8F8FF" stroke="#15D0F3"/>
<g clip-path="url(#clip0_150_1421)">
<path d="M313.41 38.5898L318 43.1698L322.59 38.5898L324 39.9998L318 45.9998L312 39.9998L313.41 38.5898Z" fill="#15D0F3"/>
</g>
<path d="M12.8877 40.373L9.91406 49H8.11621L11.8623 39.0469H13.0107L12.8877 40.373ZM15.376 49L12.3955 40.373L12.2656 39.0469H13.4209L17.1807 49H15.376ZM15.2324 45.3086V46.6689H9.81836V45.3086H15.2324ZM19.8945 38.5V49H18.2402V38.5H19.8945ZM23.4629 38.5V49H21.8086V38.5H23.4629ZM32.6982 45.2881H30.1074V43.9277H32.6982C33.1494 43.9277 33.514 43.8548 33.792 43.709C34.07 43.5632 34.2728 43.3626 34.4004 43.1074C34.5326 42.8477 34.5986 42.5514 34.5986 42.2188C34.5986 41.9043 34.5326 41.6104 34.4004 41.3369C34.2728 41.0589 34.07 40.8356 33.792 40.667C33.514 40.4984 33.1494 40.4141 32.6982 40.4141H30.6338V49H28.918V39.0469H32.6982C33.4684 39.0469 34.1224 39.1836 34.6602 39.457C35.2025 39.7259 35.6149 40.0996 35.8975 40.5781C36.18 41.0521 36.3213 41.5944 36.3213 42.2051C36.3213 42.8477 36.18 43.3991 35.8975 43.8594C35.6149 44.3197 35.2025 44.6729 34.6602 44.9189C34.1224 45.165 33.4684 45.2881 32.6982 45.2881ZM39.3496 43.0117V49H37.7021V41.6035H39.2744L39.3496 43.0117ZM41.6123 41.5557L41.5986 43.0869C41.4984 43.0687 41.389 43.055 41.2705 43.0459C41.1566 43.0368 41.0426 43.0322 40.9287 43.0322C40.6462 43.0322 40.3978 43.0732 40.1836 43.1553C39.9694 43.2327 39.7894 43.3467 39.6436 43.4971C39.5023 43.6429 39.3929 43.8206 39.3154 44.0303C39.238 44.2399 39.1924 44.4746 39.1787 44.7344L38.8027 44.7617C38.8027 44.2969 38.8483 43.8662 38.9395 43.4697C39.0306 43.0732 39.1673 42.7246 39.3496 42.4238C39.5365 42.123 39.7689 41.8883 40.0469 41.7197C40.3294 41.5511 40.6553 41.4668 41.0244 41.4668C41.1247 41.4668 41.2318 41.4759 41.3457 41.4941C41.4642 41.5124 41.5531 41.5329 41.6123 41.5557ZM42.1523 45.3838V45.2266C42.1523 44.6934 42.2298 44.1989 42.3848 43.7432C42.5397 43.2829 42.763 42.8841 43.0547 42.5469C43.3509 42.2051 43.7109 41.9408 44.1348 41.7539C44.5632 41.5625 45.0462 41.4668 45.584 41.4668C46.1263 41.4668 46.6094 41.5625 47.0332 41.7539C47.4616 41.9408 47.8239 42.2051 48.1201 42.5469C48.4163 42.8841 48.6419 43.2829 48.7969 43.7432C48.9518 44.1989 49.0293 44.6934 49.0293 45.2266V45.3838C49.0293 45.917 48.9518 46.4115 48.7969 46.8672C48.6419 47.3229 48.4163 47.7217 48.1201 48.0635C47.8239 48.4007 47.4639 48.665 47.04 48.8564C46.6162 49.0433 46.1354 49.1367 45.5977 49.1367C45.0553 49.1367 44.57 49.0433 44.1416 48.8564C43.7178 48.665 43.3577 48.4007 43.0615 48.0635C42.7653 47.7217 42.5397 47.3229 42.3848 46.8672C42.2298 46.4115 42.1523 45.917 42.1523 45.3838ZM43.7998 45.2266V45.3838C43.7998 45.7165 43.834 46.0309 43.9023 46.3271C43.9707 46.6234 44.0778 46.8831 44.2236 47.1064C44.3695 47.3298 44.5563 47.5052 44.7842 47.6328C45.012 47.7604 45.2832 47.8242 45.5977 47.8242C45.903 47.8242 46.1673 47.7604 46.3906 47.6328C46.6185 47.5052 46.8053 47.3298 46.9512 47.1064C47.097 46.8831 47.2041 46.6234 47.2725 46.3271C47.3454 46.0309 47.3818 45.7165 47.3818 45.3838V45.2266C47.3818 44.8984 47.3454 44.5885 47.2725 44.2969C47.2041 44.0007 47.0947 43.7386 46.9443 43.5107C46.7985 43.2829 46.6117 43.1051 46.3838 42.9775C46.1605 42.8454 45.8939 42.7793 45.584 42.7793C45.2741 42.7793 45.0052 42.8454 44.7773 42.9775C44.554 43.1051 44.3695 43.2829 44.2236 43.5107C44.0778 43.7386 43.9707 44.0007 43.9023 44.2969C43.834 44.5885 43.7998 44.8984 43.7998 45.2266ZM50.4922 41.6035H52.1465V49.6426C52.1465 50.1484 52.0599 50.5745 51.8867 50.9209C51.7135 51.2718 51.4583 51.5361 51.1211 51.7139C50.7839 51.8962 50.3714 51.9873 49.8838 51.9873C49.738 51.9873 49.5876 51.9759 49.4326 51.9531C49.2731 51.9349 49.1227 51.9076 48.9814 51.8711L48.9883 50.5859C49.084 50.6042 49.1865 50.6178 49.2959 50.627C49.4007 50.6406 49.501 50.6475 49.5967 50.6475C49.7926 50.6475 49.9567 50.6133 50.0889 50.5449C50.221 50.4766 50.3213 50.3695 50.3896 50.2236C50.458 50.0778 50.4922 49.8841 50.4922 49.6426V41.6035ZM50.3486 39.6621C50.3486 39.4115 50.4329 39.2041 50.6016 39.04C50.7702 38.8714 51.0003 38.7871 51.292 38.7871C51.5882 38.7871 51.8184 38.8714 51.9824 39.04C52.151 39.2041 52.2354 39.4115 52.2354 39.6621C52.2354 39.9082 52.151 40.1133 51.9824 40.2773C51.8184 40.4414 51.5882 40.5234 51.292 40.5234C51.0003 40.5234 50.7702 40.4414 50.6016 40.2773C50.4329 40.1133 50.3486 39.9082 50.3486 39.6621ZM57.1846 49.1367C56.6377 49.1367 56.1432 49.0479 55.7012 48.8701C55.2637 48.6878 54.89 48.4349 54.5801 48.1113C54.2747 47.7878 54.04 47.4072 53.876 46.9697C53.7119 46.5322 53.6299 46.0605 53.6299 45.5547V45.2812C53.6299 44.7025 53.7142 44.1784 53.8828 43.709C54.0514 43.2396 54.2861 42.8385 54.5869 42.5059C54.8877 42.1686 55.2432 41.9111 55.6533 41.7334C56.0635 41.5557 56.5078 41.4668 56.9863 41.4668C57.515 41.4668 57.9775 41.5557 58.374 41.7334C58.7705 41.9111 59.0986 42.1618 59.3584 42.4854C59.6227 42.8044 59.8187 43.1849 59.9463 43.627C60.0785 44.069 60.1445 44.5566 60.1445 45.0898V45.7939H54.4297V44.6113H58.5176V44.4814C58.5085 44.1852 58.4492 43.9072 58.3398 43.6475C58.235 43.3877 58.0732 43.1781 57.8545 43.0186C57.6357 42.859 57.3441 42.7793 56.9795 42.7793C56.7061 42.7793 56.4622 42.8385 56.248 42.957C56.0384 43.071 55.863 43.2373 55.7217 43.4561C55.5804 43.6748 55.471 43.9391 55.3936 44.249C55.3206 44.5544 55.2842 44.8984 55.2842 45.2812V45.5547C55.2842 45.8783 55.3275 46.179 55.4141 46.457C55.5052 46.7305 55.6374 46.9697 55.8105 47.1748C55.9837 47.3799 56.1934 47.5417 56.4395 47.6602C56.6855 47.7741 56.9658 47.8311 57.2803 47.8311C57.6768 47.8311 58.0299 47.7513 58.3398 47.5918C58.6497 47.4323 58.9186 47.2067 59.1465 46.915L60.0146 47.7559C59.8551 47.9883 59.6478 48.2116 59.3926 48.4258C59.1374 48.6354 58.8252 48.8063 58.4561 48.9385C58.0915 49.0706 57.6676 49.1367 57.1846 49.1367ZM64.4512 47.8242C64.7201 47.8242 64.9616 47.7718 65.1758 47.667C65.3945 47.5576 65.57 47.4072 65.7021 47.2158C65.8389 47.0244 65.9141 46.8034 65.9277 46.5527H67.4795C67.4704 47.0312 67.3291 47.4665 67.0557 47.8584C66.7822 48.2503 66.4199 48.5625 65.9688 48.7949C65.5176 49.0228 65.0186 49.1367 64.4717 49.1367C63.9066 49.1367 63.4144 49.041 62.9951 48.8496C62.5758 48.6536 62.2272 48.3848 61.9492 48.043C61.6712 47.7012 61.4616 47.307 61.3203 46.8604C61.1836 46.4137 61.1152 45.9352 61.1152 45.4248V45.1855C61.1152 44.6751 61.1836 44.1966 61.3203 43.75C61.4616 43.2988 61.6712 42.9023 61.9492 42.5605C62.2272 42.2188 62.5758 41.9521 62.9951 41.7607C63.4144 41.5648 63.9043 41.4668 64.4648 41.4668C65.0573 41.4668 65.5768 41.5853 66.0234 41.8223C66.4701 42.0547 66.821 42.3805 67.0762 42.7998C67.3359 43.2145 67.4704 43.6976 67.4795 44.249H65.9277C65.9141 43.9756 65.8457 43.7295 65.7227 43.5107C65.6042 43.2874 65.4355 43.1097 65.2168 42.9775C65.0026 42.8454 64.7451 42.7793 64.4443 42.7793C64.1117 42.7793 63.8359 42.8477 63.6172 42.9844C63.3984 43.1165 63.2275 43.2988 63.1045 43.5312C62.9814 43.7591 62.8926 44.0166 62.8379 44.3037C62.7878 44.5863 62.7627 44.8802 62.7627 45.1855V45.4248C62.7627 45.7301 62.7878 46.0264 62.8379 46.3135C62.888 46.6006 62.9746 46.8581 63.0977 47.0859C63.2253 47.3092 63.3984 47.4893 63.6172 47.626C63.8359 47.7581 64.1139 47.8242 64.4512 47.8242ZM72.1348 41.6035V42.8066H67.9648V41.6035H72.1348ZM69.168 39.792H70.8154V46.9561C70.8154 47.1839 70.8473 47.3594 70.9111 47.4824C70.9795 47.6009 71.0729 47.6807 71.1914 47.7217C71.3099 47.7627 71.4489 47.7832 71.6084 47.7832C71.7223 47.7832 71.8317 47.7764 71.9365 47.7627C72.0413 47.749 72.1257 47.7354 72.1895 47.7217L72.1963 48.9795C72.0596 49.0205 71.9001 49.057 71.7178 49.0889C71.54 49.1208 71.335 49.1367 71.1025 49.1367C70.7243 49.1367 70.3893 49.0706 70.0977 48.9385C69.806 48.8018 69.5781 48.5807 69.4141 48.2754C69.25 47.9701 69.168 47.5645 69.168 47.0586V39.792ZM77.5557 46.9971C77.5557 46.833 77.5146 46.6849 77.4326 46.5527C77.3506 46.416 77.1934 46.293 76.9609 46.1836C76.7331 46.0742 76.3958 45.974 75.9492 45.8828C75.5573 45.7962 75.1973 45.6937 74.8691 45.5752C74.5456 45.4521 74.2676 45.304 74.0352 45.1309C73.8027 44.9577 73.6227 44.7526 73.4951 44.5156C73.3675 44.2786 73.3037 44.0052 73.3037 43.6953C73.3037 43.3945 73.3698 43.1097 73.502 42.8408C73.6341 42.5719 73.8232 42.335 74.0693 42.1299C74.3154 41.9248 74.6139 41.763 74.9648 41.6445C75.3203 41.526 75.7168 41.4668 76.1543 41.4668C76.7741 41.4668 77.305 41.5716 77.7471 41.7812C78.1937 41.9863 78.5355 42.2666 78.7725 42.6221C79.0094 42.973 79.1279 43.3695 79.1279 43.8115H77.4805C77.4805 43.6156 77.4303 43.4333 77.3301 43.2646C77.2344 43.0915 77.0885 42.9525 76.8926 42.8477C76.6966 42.7383 76.4505 42.6836 76.1543 42.6836C75.8717 42.6836 75.637 42.7292 75.4502 42.8203C75.2679 42.9069 75.1312 43.0208 75.04 43.1621C74.9535 43.3034 74.9102 43.4583 74.9102 43.627C74.9102 43.75 74.9329 43.8617 74.9785 43.9619C75.0286 44.0576 75.1107 44.1465 75.2246 44.2285C75.3385 44.306 75.4935 44.3789 75.6895 44.4473C75.89 44.5156 76.1406 44.5817 76.4414 44.6455C77.0065 44.764 77.4919 44.9167 77.8975 45.1035C78.3076 45.2858 78.6221 45.5228 78.8408 45.8145C79.0596 46.1016 79.1689 46.4661 79.1689 46.9082C79.1689 47.2363 79.0983 47.5371 78.957 47.8105C78.8203 48.0794 78.6198 48.3141 78.3555 48.5146C78.0911 48.7106 77.7744 48.8633 77.4053 48.9727C77.0407 49.082 76.6305 49.1367 76.1748 49.1367C75.5049 49.1367 74.9375 49.0182 74.4727 48.7812C74.0078 48.5397 73.6546 48.2321 73.4131 47.8584C73.1761 47.4801 73.0576 47.0882 73.0576 46.6826H74.6504C74.6686 46.988 74.7529 47.2318 74.9033 47.4141C75.0583 47.5918 75.2497 47.7217 75.4775 47.8037C75.71 47.8812 75.9492 47.9199 76.1953 47.9199C76.4915 47.9199 76.7399 47.8812 76.9404 47.8037C77.141 47.7217 77.2936 47.6123 77.3984 47.4756C77.5033 47.3343 77.5557 47.1748 77.5557 46.9971Z" fill="black" fill-opacity="0.4"/>
</g>
<defs>
<clipPath id="clip0_150_1421">
<rect width="24" height="24" fill="white" transform="translate(306 30)"/>
</clipPath>
</defs>
</svg>
