<svg width="349" height="62" viewBox="0 0 349 62" fill="none" xmlns="http://www.w3.org/2000/svg">
<g opacity="0.5">
<path d="M7.53906 3.625H9.49219V11.2266C9.49219 12.0911 9.30469 12.8151 8.92969 13.3984C8.55469 13.9818 8.04427 14.4219 7.39844 14.7188C6.75781 15.0104 6.04167 15.1562 5.25 15.1562C4.43229 15.1562 3.70312 15.0104 3.0625 14.7188C2.42188 14.4219 1.91667 13.9818 1.54688 13.3984C1.18229 12.8151 1 12.0911 1 11.2266V3.625H2.95312V11.2266C2.95312 11.7734 3.04688 12.224 3.23438 12.5781C3.42188 12.9271 3.6875 13.1849 4.03125 13.3516C4.375 13.5182 4.78125 13.6016 5.25 13.6016C5.71875 13.6016 6.1224 13.5182 6.46094 13.3516C6.80469 13.1849 7.07031 12.9271 7.25781 12.5781C7.44531 12.224 7.53906 11.7734 7.53906 11.2266V3.625ZM16.1797 12.7109C16.1797 12.5234 16.1328 12.3542 16.0391 12.2031C15.9453 12.0469 15.7656 11.9062 15.5 11.7812C15.2396 11.6562 14.8542 11.5417 14.3438 11.4375C13.8958 11.3385 13.4844 11.2214 13.1094 11.0859C12.7396 10.9453 12.4219 10.776 12.1562 10.5781C11.8906 10.3802 11.6849 10.1458 11.5391 9.875C11.3932 9.60417 11.3203 9.29167 11.3203 8.9375C11.3203 8.59375 11.3958 8.26823 11.5469 7.96094C11.6979 7.65365 11.9141 7.38281 12.1953 7.14844C12.4766 6.91406 12.8177 6.72917 13.2188 6.59375C13.625 6.45833 14.0781 6.39062 14.5781 6.39062C15.2865 6.39062 15.8932 6.51042 16.3984 6.75C16.9089 6.98438 17.2995 7.30469 17.5703 7.71094C17.8411 8.11198 17.9766 8.5651 17.9766 9.07031H16.0938C16.0938 8.84635 16.0365 8.63802 15.9219 8.44531C15.8125 8.2474 15.6458 8.08854 15.4219 7.96875C15.1979 7.84375 14.9167 7.78125 14.5781 7.78125C14.2552 7.78125 13.987 7.83333 13.7734 7.9375C13.5651 8.03646 13.4089 8.16667 13.3047 8.32812C13.2057 8.48958 13.1562 8.66667 13.1562 8.85938C13.1562 9 13.1823 9.1276 13.2344 9.24219C13.2917 9.35156 13.3854 9.45312 13.5156 9.54688C13.6458 9.63542 13.8229 9.71875 14.0469 9.79688C14.276 9.875 14.5625 9.95052 14.9062 10.0234C15.5521 10.1589 16.1068 10.3333 16.5703 10.5469C17.0391 10.7552 17.3984 11.026 17.6484 11.3594C17.8984 11.6875 18.0234 12.1042 18.0234 12.6094C18.0234 12.9844 17.9427 13.3281 17.7812 13.6406C17.625 13.9479 17.3958 14.2161 17.0938 14.4453C16.7917 14.6693 16.4297 14.8438 16.0078 14.9688C15.5911 15.0938 15.1224 15.1562 14.6016 15.1562C13.8359 15.1562 13.1875 15.0208 12.6562 14.75C12.125 14.474 11.7214 14.1224 11.4453 13.6953C11.1745 13.263 11.0391 12.8151 11.0391 12.3516H12.8594C12.8802 12.7005 12.9766 12.9792 13.1484 13.1875C13.3255 13.3906 13.5443 13.5391 13.8047 13.6328C14.0703 13.7214 14.3438 13.7656 14.625 13.7656C14.9635 13.7656 15.2474 13.7214 15.4766 13.6328C15.7057 13.5391 15.8802 13.4141 16 13.2578C16.1198 13.0964 16.1797 12.9141 16.1797 12.7109ZM23.3984 15.1562C22.7734 15.1562 22.2083 15.0547 21.7031 14.8516C21.2031 14.6432 20.776 14.3542 20.4219 13.9844C20.0729 13.6146 19.8047 13.1797 19.6172 12.6797C19.4297 12.1797 19.3359 11.6406 19.3359 11.0625V10.75C19.3359 10.0885 19.4323 9.48958 19.625 8.95312C19.8177 8.41667 20.0859 7.95833 20.4297 7.57812C20.7734 7.19271 21.1797 6.89844 21.6484 6.69531C22.1172 6.49219 22.625 6.39062 23.1719 6.39062C23.776 6.39062 24.3047 6.49219 24.7578 6.69531C25.2109 6.89844 25.5859 7.1849 25.8828 7.55469C26.1849 7.91927 26.4089 8.35417 26.5547 8.85938C26.7057 9.36458 26.7812 9.92188 26.7812 10.5312V11.3359H20.25V9.98438H24.9219V9.83594C24.9115 9.4974 24.8438 9.17969 24.7188 8.88281C24.599 8.58594 24.4141 8.34635 24.1641 8.16406C23.9141 7.98177 23.5807 7.89062 23.1641 7.89062C22.8516 7.89062 22.5729 7.95833 22.3281 8.09375C22.0885 8.22396 21.888 8.41406 21.7266 8.66406C21.5651 8.91406 21.4401 9.21615 21.3516 9.57031C21.2682 9.91927 21.2266 10.3125 21.2266 10.75V11.0625C21.2266 11.4323 21.276 11.776 21.375 12.0938C21.4792 12.4062 21.6302 12.6797 21.8281 12.9141C22.026 13.1484 22.2656 13.3333 22.5469 13.4688C22.8281 13.599 23.1484 13.6641 23.5078 13.6641C23.9609 13.6641 24.3646 13.5729 24.7188 13.3906C25.0729 13.2083 25.3802 12.9505 25.6406 12.6172L26.6328 13.5781C26.4505 13.8438 26.2135 14.099 25.9219 14.3438C25.6302 14.5833 25.2734 14.7786 24.8516 14.9297C24.4349 15.0807 23.9505 15.1562 23.3984 15.1562ZM30.1406 8.15625V15H28.2578V6.54688H30.0547L30.1406 8.15625ZM32.7266 6.49219L32.7109 8.24219C32.5964 8.22135 32.4714 8.20573 32.3359 8.19531C32.2057 8.1849 32.0755 8.17969 31.9453 8.17969C31.6224 8.17969 31.3385 8.22656 31.0938 8.32031C30.849 8.40885 30.6432 8.53906 30.4766 8.71094C30.3151 8.8776 30.1901 9.08073 30.1016 9.32031C30.013 9.5599 29.9609 9.82812 29.9453 10.125L29.5156 10.1562C29.5156 9.625 29.5677 9.13281 29.6719 8.67969C29.776 8.22656 29.9323 7.82812 30.1406 7.48438C30.3542 7.14062 30.6198 6.8724 30.9375 6.67969C31.2604 6.48698 31.6328 6.39062 32.0547 6.39062C32.1693 6.39062 32.2917 6.40104 32.4219 6.42188C32.5573 6.44271 32.6589 6.46615 32.7266 6.49219Z" fill="black" fill-opacity="0.5"/>
<rect x="0.5" y="26.5" width="348" height="35" rx="5.5" fill="#EAD8FF" stroke="#B16FFA"/>
<g clip-path="url(#clip0_150_1414)">
<path d="M313.41 38.5898L318 43.1698L322.59 38.5898L324 39.9998L318 45.9998L312 39.9998L313.41 38.5898Z" fill="#A75EFA"/>
</g>
<path d="M12.8877 40.373L9.91406 49H8.11621L11.8623 39.0469H13.0107L12.8877 40.373ZM15.376 49L12.3955 40.373L12.2656 39.0469H13.4209L17.1807 49H15.376ZM15.2324 45.3086V46.6689H9.81836V45.3086H15.2324ZM22.3008 47.5166V43.9893C22.3008 43.7249 22.2529 43.4971 22.1572 43.3057C22.0615 43.1143 21.9157 42.9661 21.7197 42.8613C21.5283 42.7565 21.2868 42.7041 20.9951 42.7041C20.7262 42.7041 20.4938 42.7497 20.2979 42.8408C20.1019 42.932 19.9492 43.055 19.8398 43.21C19.7305 43.3649 19.6758 43.5404 19.6758 43.7363H18.0352C18.0352 43.4447 18.1058 43.1621 18.2471 42.8887C18.3883 42.6152 18.5934 42.3714 18.8623 42.1572C19.1312 41.943 19.4525 41.7744 19.8262 41.6514C20.1999 41.5283 20.6191 41.4668 21.084 41.4668C21.64 41.4668 22.1322 41.5602 22.5605 41.7471C22.9935 41.9339 23.333 42.2165 23.5791 42.5947C23.8298 42.9684 23.9551 43.4378 23.9551 44.0029V47.291C23.9551 47.6283 23.9779 47.9313 24.0234 48.2002C24.0736 48.4645 24.1442 48.6947 24.2354 48.8906V49H22.5469C22.4694 48.8223 22.4079 48.5967 22.3623 48.3232C22.3213 48.0452 22.3008 47.7764 22.3008 47.5166ZM22.54 44.502L22.5537 45.5205H21.3711C21.0658 45.5205 20.7969 45.5501 20.5645 45.6094C20.332 45.6641 20.1383 45.7461 19.9834 45.8555C19.8285 45.9648 19.7122 46.097 19.6348 46.252C19.5573 46.4069 19.5186 46.5824 19.5186 46.7783C19.5186 46.9743 19.5641 47.1543 19.6553 47.3184C19.7464 47.4779 19.8786 47.6032 20.0518 47.6943C20.2295 47.7855 20.4437 47.8311 20.6943 47.8311C21.0316 47.8311 21.3255 47.7627 21.5762 47.626C21.8314 47.4847 22.0319 47.3138 22.1777 47.1133C22.3236 46.9082 22.401 46.7145 22.4102 46.5322L22.9434 47.2637C22.8887 47.4505 22.7952 47.651 22.6631 47.8652C22.5309 48.0794 22.3577 48.2845 22.1436 48.4805C21.9339 48.6719 21.681 48.8291 21.3848 48.9521C21.0931 49.0752 20.7559 49.1367 20.373 49.1367C19.89 49.1367 19.4593 49.041 19.0811 48.8496C18.7028 48.6536 18.4066 48.3916 18.1924 48.0635C17.9782 47.7308 17.8711 47.3548 17.8711 46.9355C17.8711 46.5436 17.944 46.1973 18.0898 45.8965C18.2402 45.5911 18.459 45.3359 18.7461 45.1309C19.0378 44.9258 19.3932 44.7708 19.8125 44.666C20.2318 44.5566 20.7103 44.502 21.248 44.502H22.54ZM27.332 43.0117V49H25.6846V41.6035H27.2568L27.332 43.0117ZM29.5947 41.5557L29.5811 43.0869C29.4808 43.0687 29.3714 43.055 29.2529 43.0459C29.139 43.0368 29.0251 43.0322 28.9111 43.0322C28.6286 43.0322 28.3802 43.0732 28.166 43.1553C27.9518 43.2327 27.7718 43.3467 27.626 43.4971C27.4847 43.6429 27.3753 43.8206 27.2979 44.0303C27.2204 44.2399 27.1748 44.4746 27.1611 44.7344L26.7852 44.7617C26.7852 44.2969 26.8307 43.8662 26.9219 43.4697C27.013 43.0732 27.1497 42.7246 27.332 42.4238C27.5189 42.123 27.7513 41.8883 28.0293 41.7197C28.3118 41.5511 28.6377 41.4668 29.0068 41.4668C29.1071 41.4668 29.2142 41.4759 29.3281 41.4941C29.4466 41.5124 29.5355 41.5329 29.5947 41.5557ZM30.1348 45.3838V45.2266C30.1348 44.6934 30.2122 44.1989 30.3672 43.7432C30.5221 43.2829 30.7454 42.8841 31.0371 42.5469C31.3333 42.2051 31.6934 41.9408 32.1172 41.7539C32.5456 41.5625 33.0286 41.4668 33.5664 41.4668C34.1087 41.4668 34.5918 41.5625 35.0156 41.7539C35.444 41.9408 35.8063 42.2051 36.1025 42.5469C36.3988 42.8841 36.6243 43.2829 36.7793 43.7432C36.9342 44.1989 37.0117 44.6934 37.0117 45.2266V45.3838C37.0117 45.917 36.9342 46.4115 36.7793 46.8672C36.6243 47.3229 36.3988 47.7217 36.1025 48.0635C35.8063 48.4007 35.4463 48.665 35.0225 48.8564C34.5986 49.0433 34.1178 49.1367 33.5801 49.1367C33.0378 49.1367 32.5524 49.0433 32.124 48.8564C31.7002 48.665 31.3402 48.4007 31.0439 48.0635C30.7477 47.7217 30.5221 47.3229 30.3672 46.8672C30.2122 46.4115 30.1348 45.917 30.1348 45.3838ZM31.7822 45.2266V45.3838C31.7822 45.7165 31.8164 46.0309 31.8848 46.3271C31.9531 46.6234 32.0602 46.8831 32.2061 47.1064C32.3519 47.3298 32.5387 47.5052 32.7666 47.6328C32.9945 47.7604 33.2656 47.8242 33.5801 47.8242C33.8854 47.8242 34.1497 47.7604 34.373 47.6328C34.6009 47.5052 34.7878 47.3298 34.9336 47.1064C35.0794 46.8831 35.1865 46.6234 35.2549 46.3271C35.3278 46.0309 35.3643 45.7165 35.3643 45.3838V45.2266C35.3643 44.8984 35.3278 44.5885 35.2549 44.2969C35.1865 44.0007 35.0771 43.7386 34.9268 43.5107C34.7809 43.2829 34.5941 43.1051 34.3662 42.9775C34.1429 42.8454 33.8763 42.7793 33.5664 42.7793C33.2565 42.7793 32.9876 42.8454 32.7598 42.9775C32.5365 43.1051 32.3519 43.2829 32.2061 43.5107C32.0602 43.7386 31.9531 44.0007 31.8848 44.2969C31.8164 44.5885 31.7822 44.8984 31.7822 45.2266ZM40.0264 43.1826V49H38.3789V41.6035H39.9307L40.0264 43.1826ZM39.7324 45.0283L39.1992 45.0215C39.2038 44.4974 39.2767 44.0166 39.418 43.5791C39.5638 43.1416 39.7643 42.7656 40.0195 42.4512C40.2793 42.1367 40.5892 41.8952 40.9492 41.7266C41.3092 41.5534 41.7103 41.4668 42.1523 41.4668C42.5078 41.4668 42.8291 41.5169 43.1162 41.6172C43.4079 41.7129 43.6562 41.8701 43.8613 42.0889C44.071 42.3076 44.2305 42.5924 44.3398 42.9434C44.4492 43.2897 44.5039 43.7158 44.5039 44.2217V49H42.8496V44.2148C42.8496 43.8594 42.7972 43.5791 42.6924 43.374C42.5921 43.1644 42.444 43.0163 42.248 42.9297C42.0566 42.8385 41.8174 42.793 41.5303 42.793C41.2477 42.793 40.9948 42.8522 40.7715 42.9707C40.5482 43.0892 40.359 43.251 40.2041 43.4561C40.0537 43.6611 39.9375 43.8981 39.8555 44.167C39.7734 44.4359 39.7324 44.723 39.7324 45.0283ZM57.7314 39.0469V49H56.0156L51.5518 41.8701V49H49.8359V39.0469H51.5518L56.0293 46.1904V39.0469H57.7314ZM62.8721 49.1367C62.3252 49.1367 61.8307 49.0479 61.3887 48.8701C60.9512 48.6878 60.5775 48.4349 60.2676 48.1113C59.9622 47.7878 59.7275 47.4072 59.5635 46.9697C59.3994 46.5322 59.3174 46.0605 59.3174 45.5547V45.2812C59.3174 44.7025 59.4017 44.1784 59.5703 43.709C59.7389 43.2396 59.9736 42.8385 60.2744 42.5059C60.5752 42.1686 60.9307 41.9111 61.3408 41.7334C61.751 41.5557 62.1953 41.4668 62.6738 41.4668C63.2025 41.4668 63.665 41.5557 64.0615 41.7334C64.458 41.9111 64.7861 42.1618 65.0459 42.4854C65.3102 42.8044 65.5062 43.1849 65.6338 43.627C65.766 44.069 65.832 44.5566 65.832 45.0898V45.7939H60.1172V44.6113H64.2051V44.4814C64.196 44.1852 64.1367 43.9072 64.0273 43.6475C63.9225 43.3877 63.7607 43.1781 63.542 43.0186C63.3232 42.859 63.0316 42.7793 62.667 42.7793C62.3936 42.7793 62.1497 42.8385 61.9355 42.957C61.7259 43.071 61.5505 43.2373 61.4092 43.4561C61.2679 43.6748 61.1585 43.9391 61.0811 44.249C61.0081 44.5544 60.9717 44.8984 60.9717 45.2812V45.5547C60.9717 45.8783 61.015 46.179 61.1016 46.457C61.1927 46.7305 61.3249 46.9697 61.498 47.1748C61.6712 47.3799 61.8809 47.5417 62.127 47.6602C62.373 47.7741 62.6533 47.8311 62.9678 47.8311C63.3643 47.8311 63.7174 47.7513 64.0273 47.5918C64.3372 47.4323 64.6061 47.2067 64.834 46.915L65.7021 47.7559C65.5426 47.9883 65.3353 48.2116 65.0801 48.4258C64.8249 48.6354 64.5127 48.8063 64.1436 48.9385C63.779 49.0706 63.3551 49.1367 62.8721 49.1367ZM68.8809 38.5V49H67.2266V38.5H68.8809ZM74.835 46.9971C74.835 46.833 74.7939 46.6849 74.7119 46.5527C74.6299 46.416 74.4727 46.293 74.2402 46.1836C74.0124 46.0742 73.6751 45.974 73.2285 45.8828C72.8366 45.7962 72.4766 45.6937 72.1484 45.5752C71.8249 45.4521 71.5469 45.304 71.3145 45.1309C71.082 44.9577 70.902 44.7526 70.7744 44.5156C70.6468 44.2786 70.583 44.0052 70.583 43.6953C70.583 43.3945 70.6491 43.1097 70.7812 42.8408C70.9134 42.5719 71.1025 42.335 71.3486 42.1299C71.5947 41.9248 71.8932 41.763 72.2441 41.6445C72.5996 41.526 72.9961 41.4668 73.4336 41.4668C74.0534 41.4668 74.5843 41.5716 75.0264 41.7812C75.473 41.9863 75.8148 42.2666 76.0518 42.6221C76.2887 42.973 76.4072 43.3695 76.4072 43.8115H74.7598C74.7598 43.6156 74.7096 43.4333 74.6094 43.2646C74.5137 43.0915 74.3678 42.9525 74.1719 42.8477C73.9759 42.7383 73.7298 42.6836 73.4336 42.6836C73.151 42.6836 72.9163 42.7292 72.7295 42.8203C72.5472 42.9069 72.4105 43.0208 72.3193 43.1621C72.2327 43.3034 72.1895 43.4583 72.1895 43.627C72.1895 43.75 72.2122 43.8617 72.2578 43.9619C72.3079 44.0576 72.39 44.1465 72.5039 44.2285C72.6178 44.306 72.7728 44.3789 72.9688 44.4473C73.1693 44.5156 73.4199 44.5817 73.7207 44.6455C74.2858 44.764 74.7712 44.9167 75.1768 45.1035C75.5869 45.2858 75.9014 45.5228 76.1201 45.8145C76.3389 46.1016 76.4482 46.4661 76.4482 46.9082C76.4482 47.2363 76.3776 47.5371 76.2363 47.8105C76.0996 48.0794 75.8991 48.3141 75.6348 48.5146C75.3704 48.7106 75.0537 48.8633 74.6846 48.9727C74.32 49.082 73.9098 49.1367 73.4541 49.1367C72.7842 49.1367 72.2168 49.0182 71.752 48.7812C71.2871 48.5397 70.9339 48.2321 70.6924 47.8584C70.4554 47.4801 70.3369 47.0882 70.3369 46.6826H71.9297C71.9479 46.988 72.0322 47.2318 72.1826 47.4141C72.3376 47.5918 72.529 47.7217 72.7568 47.8037C72.9893 47.8812 73.2285 47.9199 73.4746 47.9199C73.7708 47.9199 74.0192 47.8812 74.2197 47.8037C74.4202 47.7217 74.5729 47.6123 74.6777 47.4756C74.7826 47.3343 74.835 47.1748 74.835 46.9971ZM77.5762 45.3838V45.2266C77.5762 44.6934 77.6536 44.1989 77.8086 43.7432C77.9635 43.2829 78.1868 42.8841 78.4785 42.5469C78.7747 42.2051 79.1348 41.9408 79.5586 41.7539C79.987 41.5625 80.4701 41.4668 81.0078 41.4668C81.5501 41.4668 82.0332 41.5625 82.457 41.7539C82.8854 41.9408 83.2477 42.2051 83.5439 42.5469C83.8402 42.8841 84.0658 43.2829 84.2207 43.7432C84.3757 44.1989 84.4531 44.6934 84.4531 45.2266V45.3838C84.4531 45.917 84.3757 46.4115 84.2207 46.8672C84.0658 47.3229 83.8402 47.7217 83.5439 48.0635C83.2477 48.4007 82.8877 48.665 82.4639 48.8564C82.04 49.0433 81.5592 49.1367 81.0215 49.1367C80.4792 49.1367 79.9938 49.0433 79.5654 48.8564C79.1416 48.665 78.7816 48.4007 78.4854 48.0635C78.1891 47.7217 77.9635 47.3229 77.8086 46.8672C77.6536 46.4115 77.5762 45.917 77.5762 45.3838ZM79.2236 45.2266V45.3838C79.2236 45.7165 79.2578 46.0309 79.3262 46.3271C79.3945 46.6234 79.5016 46.8831 79.6475 47.1064C79.7933 47.3298 79.9801 47.5052 80.208 47.6328C80.4359 47.7604 80.707 47.8242 81.0215 47.8242C81.3268 47.8242 81.5911 47.7604 81.8145 47.6328C82.0423 47.5052 82.2292 47.3298 82.375 47.1064C82.5208 46.8831 82.6279 46.6234 82.6963 46.3271C82.7692 46.0309 82.8057 45.7165 82.8057 45.3838V45.2266C82.8057 44.8984 82.7692 44.5885 82.6963 44.2969C82.6279 44.0007 82.5186 43.7386 82.3682 43.5107C82.2223 43.2829 82.0355 43.1051 81.8076 42.9775C81.5843 42.8454 81.3177 42.7793 81.0078 42.7793C80.6979 42.7793 80.429 42.8454 80.2012 42.9775C79.9779 43.1051 79.7933 43.2829 79.6475 43.5107C79.5016 43.7386 79.3945 44.0007 79.3262 44.2969C79.2578 44.5885 79.2236 44.8984 79.2236 45.2266ZM87.4678 43.1826V49H85.8203V41.6035H87.3721L87.4678 43.1826ZM87.1738 45.0283L86.6406 45.0215C86.6452 44.4974 86.7181 44.0166 86.8594 43.5791C87.0052 43.1416 87.2057 42.7656 87.4609 42.4512C87.7207 42.1367 88.0306 41.8952 88.3906 41.7266C88.7507 41.5534 89.1517 41.4668 89.5938 41.4668C89.9492 41.4668 90.2705 41.5169 90.5576 41.6172C90.8493 41.7129 91.0977 41.8701 91.3027 42.0889C91.5124 42.3076 91.6719 42.5924 91.7812 42.9434C91.8906 43.2897 91.9453 43.7158 91.9453 44.2217V49H90.291V44.2148C90.291 43.8594 90.2386 43.5791 90.1338 43.374C90.0335 43.1644 89.8854 43.0163 89.6895 42.9297C89.498 42.8385 89.2588 42.793 88.9717 42.793C88.6891 42.793 88.4362 42.8522 88.2129 42.9707C87.9896 43.0892 87.8005 43.251 87.6455 43.4561C87.4951 43.6611 87.3789 43.8981 87.2969 44.167C87.2148 44.4359 87.1738 44.723 87.1738 45.0283ZM93.6611 45.0693V44.9531C93.6611 43.9779 93.766 43.0938 93.9756 42.3008C94.1898 41.5033 94.4678 40.806 94.8096 40.209C95.1514 39.6074 95.516 39.1107 95.9033 38.7188C96.2952 38.3223 96.6712 38.0374 97.0312 37.8643L97.3594 38.8076C97.0951 39.0036 96.8307 39.2747 96.5664 39.6211C96.3066 39.9674 96.0674 40.3936 95.8486 40.8994C95.6344 41.4007 95.4613 41.9886 95.3291 42.6631C95.2015 43.333 95.1377 44.0918 95.1377 44.9395V45.083C95.1377 45.9307 95.2015 46.6917 95.3291 47.3662C95.4613 48.0361 95.6344 48.624 95.8486 49.1299C96.0674 49.6357 96.3066 50.0641 96.5664 50.415C96.8307 50.7705 97.0951 51.0531 97.3594 51.2627L97.0312 52.165C96.6712 51.9873 96.2952 51.7002 95.9033 51.3037C95.516 50.9118 95.1514 50.415 94.8096 49.8135C94.4678 49.2165 94.1898 48.5215 93.9756 47.7285C93.766 46.931 93.6611 46.0446 93.6611 45.0693ZM104.229 39.0469H105.938V45.6982C105.938 46.4548 105.774 47.0882 105.446 47.5986C105.118 48.109 104.672 48.4941 104.106 48.7539C103.546 49.0091 102.919 49.1367 102.227 49.1367C101.511 49.1367 100.873 49.0091 100.312 48.7539C99.752 48.4941 99.3099 48.109 98.9863 47.5986C98.6673 47.0882 98.5078 46.4548 98.5078 45.6982V39.0469H100.217V45.6982C100.217 46.1768 100.299 46.571 100.463 46.8809C100.627 47.1862 100.859 47.4118 101.16 47.5576C101.461 47.7035 101.816 47.7764 102.227 47.7764C102.637 47.7764 102.99 47.7035 103.286 47.5576C103.587 47.4118 103.819 47.1862 103.983 46.8809C104.147 46.571 104.229 46.1768 104.229 45.6982V39.0469ZM111.79 46.9971C111.79 46.833 111.749 46.6849 111.667 46.5527C111.585 46.416 111.428 46.293 111.195 46.1836C110.967 46.0742 110.63 45.974 110.184 45.8828C109.792 45.7962 109.432 45.6937 109.104 45.5752C108.78 45.4521 108.502 45.304 108.27 45.1309C108.037 44.9577 107.857 44.7526 107.729 44.5156C107.602 44.2786 107.538 44.0052 107.538 43.6953C107.538 43.3945 107.604 43.1097 107.736 42.8408C107.868 42.5719 108.058 42.335 108.304 42.1299C108.55 41.9248 108.848 41.763 109.199 41.6445C109.555 41.526 109.951 41.4668 110.389 41.4668C111.008 41.4668 111.539 41.5716 111.981 41.7812C112.428 41.9863 112.77 42.2666 113.007 42.6221C113.244 42.973 113.362 43.3695 113.362 43.8115H111.715C111.715 43.6156 111.665 43.4333 111.564 43.2646C111.469 43.0915 111.323 42.9525 111.127 42.8477C110.931 42.7383 110.685 42.6836 110.389 42.6836C110.106 42.6836 109.871 42.7292 109.685 42.8203C109.502 42.9069 109.366 43.0208 109.274 43.1621C109.188 43.3034 109.145 43.4583 109.145 43.627C109.145 43.75 109.167 43.8617 109.213 43.9619C109.263 44.0576 109.345 44.1465 109.459 44.2285C109.573 44.306 109.728 44.3789 109.924 44.4473C110.124 44.5156 110.375 44.5817 110.676 44.6455C111.241 44.764 111.726 44.9167 112.132 45.1035C112.542 45.2858 112.856 45.5228 113.075 45.8145C113.294 46.1016 113.403 46.4661 113.403 46.9082C113.403 47.2363 113.333 47.5371 113.191 47.8105C113.055 48.0794 112.854 48.3141 112.59 48.5146C112.326 48.7106 112.009 48.8633 111.64 48.9727C111.275 49.082 110.865 49.1367 110.409 49.1367C109.739 49.1367 109.172 49.0182 108.707 48.7812C108.242 48.5397 107.889 48.2321 107.647 47.8584C107.41 47.4801 107.292 47.0882 107.292 46.6826H108.885C108.903 46.988 108.987 47.2318 109.138 47.4141C109.293 47.5918 109.484 47.7217 109.712 47.8037C109.944 47.8812 110.184 47.9199 110.43 47.9199C110.726 47.9199 110.974 47.8812 111.175 47.8037C111.375 47.7217 111.528 47.6123 111.633 47.4756C111.738 47.3343 111.79 47.1748 111.79 46.9971ZM118.106 49.1367C117.56 49.1367 117.065 49.0479 116.623 48.8701C116.186 48.6878 115.812 48.4349 115.502 48.1113C115.197 47.7878 114.962 47.4072 114.798 46.9697C114.634 46.5322 114.552 46.0605 114.552 45.5547V45.2812C114.552 44.7025 114.636 44.1784 114.805 43.709C114.973 43.2396 115.208 42.8385 115.509 42.5059C115.81 42.1686 116.165 41.9111 116.575 41.7334C116.985 41.5557 117.43 41.4668 117.908 41.4668C118.437 41.4668 118.899 41.5557 119.296 41.7334C119.692 41.9111 120.021 42.1618 120.28 42.4854C120.545 42.8044 120.741 43.1849 120.868 43.627C121 44.069 121.066 44.5566 121.066 45.0898V45.7939H115.352V44.6113H119.439V44.4814C119.43 44.1852 119.371 43.9072 119.262 43.6475C119.157 43.3877 118.995 43.1781 118.776 43.0186C118.558 42.859 118.266 42.7793 117.901 42.7793C117.628 42.7793 117.384 42.8385 117.17 42.957C116.96 43.071 116.785 43.2373 116.644 43.4561C116.502 43.6748 116.393 43.9391 116.315 44.249C116.243 44.5544 116.206 44.8984 116.206 45.2812V45.5547C116.206 45.8783 116.249 46.179 116.336 46.457C116.427 46.7305 116.559 46.9697 116.732 47.1748C116.906 47.3799 117.115 47.5417 117.361 47.6602C117.607 47.7741 117.888 47.8311 118.202 47.8311C118.599 47.8311 118.952 47.7513 119.262 47.5918C119.572 47.4323 119.84 47.2067 120.068 46.915L120.937 47.7559C120.777 47.9883 120.57 48.2116 120.314 48.4258C120.059 48.6354 119.747 48.8063 119.378 48.9385C119.013 49.0706 118.59 49.1367 118.106 49.1367ZM124.006 43.0117V49H122.358V41.6035H123.931L124.006 43.0117ZM126.269 41.5557L126.255 43.0869C126.155 43.0687 126.045 43.055 125.927 43.0459C125.813 43.0368 125.699 43.0322 125.585 43.0322C125.302 43.0322 125.054 43.0732 124.84 43.1553C124.626 43.2327 124.446 43.3467 124.3 43.4971C124.159 43.6429 124.049 43.8206 123.972 44.0303C123.894 44.2399 123.849 44.4746 123.835 44.7344L123.459 44.7617C123.459 44.2969 123.505 43.8662 123.596 43.4697C123.687 43.0732 123.824 42.7246 124.006 42.4238C124.193 42.123 124.425 41.8883 124.703 41.7197C124.986 41.5511 125.312 41.4668 125.681 41.4668C125.781 41.4668 125.888 41.4759 126.002 41.4941C126.12 41.5124 126.209 41.5329 126.269 41.5557ZM130.479 44.9531V45.0693C130.479 46.0309 130.37 46.9082 130.151 47.7012C129.937 48.4941 129.657 49.1914 129.311 49.793C128.969 50.3945 128.597 50.8958 128.196 51.2969C127.8 51.6979 127.419 51.9873 127.055 52.165L126.72 51.2627C126.984 51.0622 127.246 50.7865 127.506 50.4355C127.77 50.0892 128.009 49.6585 128.224 49.1436C128.442 48.6331 128.616 48.0407 128.743 47.3662C128.875 46.6917 128.941 45.9307 128.941 45.083V44.9395C128.941 44.0918 128.873 43.3307 128.736 42.6562C128.604 41.9772 128.426 41.3848 128.203 40.8789C127.98 40.3685 127.738 39.9378 127.479 39.5869C127.219 39.236 126.966 38.9626 126.72 38.7666L127.055 37.8643C127.419 38.0374 127.8 38.3245 128.196 38.7256C128.597 39.1266 128.969 39.6302 129.311 40.2363C129.657 40.8379 129.937 41.5352 130.151 42.3281C130.37 43.1211 130.479 43.9961 130.479 44.9531Z" fill="black" fill-opacity="0.4"/>
</g>
<defs>
<clipPath id="clip0_150_1414">
<rect width="24" height="24" fill="white" transform="translate(306 30)"/>
</clipPath>
</defs>
</svg>
