<svg width="434" height="241" viewBox="0 0 434 241" fill="none" xmlns="http://www.w3.org/2000/svg">
<g filter="url(#filter0_d_150_2087)">
<rect x="6" y="2" width="422" height="229" rx="15" fill="white" fill-opacity="0.92" shape-rendering="crispEdges"/>
</g>
<path d="M31.3477 204.469H32.4434L35.2383 211.424L38.0273 204.469H39.1289L35.6602 213H34.8047L31.3477 204.469ZM30.9902 204.469H31.957L32.1152 209.672V213H30.9902V204.469ZM38.5137 204.469H39.4805V213H38.3555V209.672L38.5137 204.469ZM44.4336 213.117C43.9922 213.117 43.5918 213.043 43.2324 212.895C42.877 212.742 42.5703 212.529 42.3125 212.256C42.0586 211.982 41.8633 211.658 41.7266 211.283C41.5898 210.908 41.5215 210.498 41.5215 210.053V209.807C41.5215 209.291 41.5977 208.832 41.75 208.43C41.9023 208.023 42.1094 207.68 42.3711 207.398C42.6328 207.117 42.9297 206.904 43.2617 206.76C43.5938 206.615 43.9375 206.543 44.293 206.543C44.7461 206.543 45.1367 206.621 45.4648 206.777C45.7969 206.934 46.0684 207.152 46.2793 207.434C46.4902 207.711 46.6465 208.039 46.748 208.418C46.8496 208.793 46.9004 209.203 46.9004 209.648V210.135H42.166V209.25H45.8164V209.168C45.8008 208.887 45.7422 208.613 45.6406 208.348C45.543 208.082 45.3867 207.863 45.1719 207.691C44.957 207.52 44.6641 207.434 44.293 207.434C44.0469 207.434 43.8203 207.486 43.6133 207.592C43.4062 207.693 43.2285 207.846 43.0801 208.049C42.9316 208.252 42.8164 208.5 42.7344 208.793C42.6523 209.086 42.6113 209.424 42.6113 209.807V210.053C42.6113 210.354 42.6523 210.637 42.7344 210.902C42.8203 211.164 42.9434 211.395 43.1035 211.594C43.2676 211.793 43.4648 211.949 43.6953 212.062C43.9297 212.176 44.1953 212.232 44.4922 212.232C44.875 212.232 45.1992 212.154 45.4648 211.998C45.7305 211.842 45.9629 211.633 46.1621 211.371L46.8184 211.893C46.6816 212.1 46.5078 212.297 46.2969 212.484C46.0859 212.672 45.8262 212.824 45.5176 212.941C45.2129 213.059 44.8516 213.117 44.4336 213.117ZM51.2969 213.117C50.8555 213.117 50.4551 213.043 50.0957 212.895C49.7402 212.742 49.4336 212.529 49.1758 212.256C48.9219 211.982 48.7266 211.658 48.5898 211.283C48.4531 210.908 48.3848 210.498 48.3848 210.053V209.807C48.3848 209.291 48.4609 208.832 48.6133 208.43C48.7656 208.023 48.9727 207.68 49.2344 207.398C49.4961 207.117 49.793 206.904 50.125 206.76C50.457 206.615 50.8008 206.543 51.1562 206.543C51.6094 206.543 52 206.621 52.3281 206.777C52.6602 206.934 52.9316 207.152 53.1426 207.434C53.3535 207.711 53.5098 208.039 53.6113 208.418C53.7129 208.793 53.7637 209.203 53.7637 209.648V210.135H49.0293V209.25H52.6797V209.168C52.6641 208.887 52.6055 208.613 52.5039 208.348C52.4062 208.082 52.25 207.863 52.0352 207.691C51.8203 207.52 51.5273 207.434 51.1562 207.434C50.9102 207.434 50.6836 207.486 50.4766 207.592C50.2695 207.693 50.0918 207.846 49.9434 208.049C49.7949 208.252 49.6797 208.5 49.5977 208.793C49.5156 209.086 49.4746 209.424 49.4746 209.807V210.053C49.4746 210.354 49.5156 210.637 49.5977 210.902C49.6836 211.164 49.8066 211.395 49.9668 211.594C50.1309 211.793 50.3281 211.949 50.5586 212.062C50.793 212.176 51.0586 212.232 51.3555 212.232C51.7383 212.232 52.0625 212.154 52.3281 211.998C52.5938 211.842 52.8262 211.633 53.0254 211.371L53.6816 211.893C53.5449 212.1 53.3711 212.297 53.1602 212.484C52.9492 212.672 52.6895 212.824 52.3809 212.941C52.0762 213.059 51.7148 213.117 51.2969 213.117ZM58.1836 206.66V207.492H54.7559V206.66H58.1836ZM55.916 205.119H57V211.43C57 211.645 57.0332 211.807 57.0996 211.916C57.166 212.025 57.252 212.098 57.3574 212.133C57.4629 212.168 57.5762 212.186 57.6973 212.186C57.7871 212.186 57.8809 212.178 57.9785 212.162C58.0801 212.143 58.1562 212.127 58.207 212.115L58.2129 213C58.127 213.027 58.0137 213.053 57.873 213.076C57.7363 213.104 57.5703 213.117 57.375 213.117C57.1094 213.117 56.8652 213.064 56.6426 212.959C56.4199 212.854 56.2422 212.678 56.1094 212.432C55.9805 212.182 55.916 211.846 55.916 211.424V205.119ZM61.1328 206.66V213H60.043V206.66H61.1328ZM59.9609 204.979C59.9609 204.803 60.0137 204.654 60.1191 204.533C60.2285 204.412 60.3887 204.352 60.5996 204.352C60.8066 204.352 60.9648 204.412 61.0742 204.533C61.1875 204.654 61.2441 204.803 61.2441 204.979C61.2441 205.146 61.1875 205.291 61.0742 205.412C60.9648 205.529 60.8066 205.588 60.5996 205.588C60.3887 205.588 60.2285 205.529 60.1191 205.412C60.0137 205.291 59.9609 205.146 59.9609 204.979ZM64.457 208.014V213H63.373V206.66H64.3984L64.457 208.014ZM64.1992 209.59L63.748 209.572C63.752 209.139 63.8164 208.738 63.9414 208.371C64.0664 208 64.2422 207.678 64.4688 207.404C64.6953 207.131 64.9648 206.92 65.2773 206.771C65.5938 206.619 65.9434 206.543 66.3262 206.543C66.6387 206.543 66.9199 206.586 67.1699 206.672C67.4199 206.754 67.6328 206.887 67.8086 207.07C67.9883 207.254 68.125 207.492 68.2188 207.785C68.3125 208.074 68.3594 208.428 68.3594 208.846V213H67.2695V208.834C67.2695 208.502 67.2207 208.236 67.123 208.037C67.0254 207.834 66.8828 207.688 66.6953 207.598C66.5078 207.504 66.2773 207.457 66.0039 207.457C65.7344 207.457 65.4883 207.514 65.2656 207.627C65.0469 207.74 64.8574 207.896 64.6973 208.096C64.541 208.295 64.418 208.523 64.3281 208.781C64.2422 209.035 64.1992 209.305 64.1992 209.59ZM74.6133 206.66H75.5977V212.865C75.5977 213.424 75.4844 213.9 75.2578 214.295C75.0312 214.689 74.7148 214.988 74.3086 215.191C73.9062 215.398 73.4414 215.502 72.9141 215.502C72.6953 215.502 72.4375 215.467 72.1406 215.396C71.8477 215.33 71.5586 215.215 71.2734 215.051C70.9922 214.891 70.7559 214.674 70.5645 214.4L71.1328 213.756C71.3984 214.076 71.6758 214.299 71.9648 214.424C72.2578 214.549 72.5469 214.611 72.832 214.611C73.1758 214.611 73.4727 214.547 73.7227 214.418C73.9727 214.289 74.166 214.098 74.3027 213.844C74.4434 213.594 74.5137 213.285 74.5137 212.918V208.055L74.6133 206.66ZM70.248 209.9V209.777C70.248 209.293 70.3047 208.854 70.418 208.459C70.5352 208.061 70.7012 207.719 70.916 207.434C71.1348 207.148 71.3984 206.93 71.707 206.777C72.0156 206.621 72.3633 206.543 72.75 206.543C73.1484 206.543 73.4961 206.613 73.793 206.754C74.0938 206.891 74.3477 207.092 74.5547 207.357C74.7656 207.619 74.9316 207.936 75.0527 208.307C75.1738 208.678 75.2578 209.098 75.3047 209.566V210.105C75.2617 210.57 75.1777 210.988 75.0527 211.359C74.9316 211.73 74.7656 212.047 74.5547 212.309C74.3477 212.57 74.0938 212.771 73.793 212.912C73.4922 213.049 73.1406 213.117 72.7383 213.117C72.3594 213.117 72.0156 213.037 71.707 212.877C71.4023 212.717 71.1406 212.492 70.9219 212.203C70.7031 211.914 70.5352 211.574 70.418 211.184C70.3047 210.789 70.248 210.361 70.248 209.9ZM71.332 209.777V209.9C71.332 210.217 71.3633 210.514 71.4258 210.791C71.4922 211.068 71.5918 211.312 71.7246 211.523C71.8613 211.734 72.0352 211.9 72.2461 212.021C72.457 212.139 72.709 212.197 73.002 212.197C73.3613 212.197 73.6582 212.121 73.8926 211.969C74.127 211.816 74.3125 211.615 74.4492 211.365C74.5898 211.115 74.6992 210.844 74.7773 210.551V209.139C74.7344 208.924 74.668 208.717 74.5781 208.518C74.4922 208.314 74.3789 208.135 74.2383 207.979C74.1016 207.818 73.9316 207.691 73.7285 207.598C73.5254 207.504 73.2871 207.457 73.0137 207.457C72.7168 207.457 72.4609 207.52 72.2461 207.645C72.0352 207.766 71.8613 207.934 71.7246 208.148C71.5918 208.359 71.4922 208.605 71.4258 208.887C71.3633 209.164 71.332 209.461 71.332 209.777Z" fill="black"/>
<path d="M32.0215 24.2031H33.665L37.8574 34.6357L42.041 24.2031H43.6934L38.4902 37H37.207L32.0215 24.2031ZM31.4854 24.2031H32.9355L33.1729 32.0078V37H31.4854V24.2031ZM42.7705 24.2031H44.2207V37H42.5332V32.0078L42.7705 24.2031ZM55.3301 35.6201V37H48.5537V35.6201H55.3301ZM48.8965 24.2031V37H47.2002V24.2031H48.8965ZM54.4336 29.7051V31.085H48.5537V29.7051H54.4336ZM55.2422 24.2031V25.5918H48.5537V24.2031H55.2422ZM65.5605 35.6201V37H58.7842V35.6201H65.5605ZM59.127 24.2031V37H57.4307V24.2031H59.127ZM64.6641 29.7051V31.085H58.7842V29.7051H64.6641ZM65.4727 24.2031V25.5918H58.7842V24.2031H65.4727ZM72.5654 24.2031V37H70.8955V24.2031H72.5654ZM76.6787 24.2031V25.5918H66.791V24.2031H76.6787ZM80.3965 24.2031V37H78.7002V24.2031H80.3965ZM93.3252 24.2031V37H91.6201L85.1777 27.1299V37H83.4814V24.2031H85.1777L91.6465 34.0996V24.2031H93.3252ZM105.788 30.6279V35.3125C105.63 35.5469 105.378 35.8105 105.032 36.1035C104.687 36.3906 104.209 36.6426 103.6 36.8594C102.996 37.0703 102.217 37.1758 101.262 37.1758C100.482 37.1758 99.7646 37.041 99.1084 36.7715C98.458 36.4961 97.8926 36.0977 97.4121 35.5762C96.9375 35.0488 96.5684 34.4102 96.3047 33.6602C96.0469 32.9043 95.918 32.0488 95.918 31.0938V30.1006C95.918 29.1455 96.0293 28.293 96.252 27.543C96.4805 26.793 96.8145 26.1572 97.2539 25.6357C97.6934 25.1084 98.2324 24.71 98.8711 24.4404C99.5098 24.165 100.242 24.0273 101.068 24.0273C102.047 24.0273 102.864 24.1973 103.521 24.5371C104.183 24.8711 104.698 25.334 105.067 25.9258C105.442 26.5176 105.683 27.1914 105.788 27.9473H104.092C104.016 27.4844 103.863 27.0625 103.635 26.6816C103.412 26.3008 103.093 25.9961 102.677 25.7676C102.261 25.5332 101.725 25.416 101.068 25.416C100.477 25.416 99.9639 25.5244 99.5303 25.7412C99.0967 25.958 98.7393 26.2686 98.458 26.6729C98.1768 27.0771 97.9658 27.5664 97.8252 28.1406C97.6904 28.7148 97.623 29.3623 97.623 30.083V31.0938C97.623 31.832 97.708 32.4912 97.8779 33.0713C98.0537 33.6514 98.3027 34.1465 98.625 34.5566C98.9473 34.9609 99.3311 35.2686 99.7764 35.4795C100.228 35.6904 100.726 35.7959 101.271 35.7959C101.874 35.7959 102.363 35.7461 102.738 35.6465C103.113 35.541 103.406 35.418 103.617 35.2773C103.828 35.1309 103.989 34.9932 104.101 34.8643V31.999H101.139V30.6279H105.788ZM115.421 33.7656C115.421 33.4668 115.374 33.2031 115.28 32.9746C115.192 32.7402 115.034 32.5293 114.806 32.3418C114.583 32.1543 114.272 31.9756 113.874 31.8057C113.481 31.6357 112.983 31.4629 112.38 31.2871C111.747 31.0996 111.176 30.8916 110.666 30.6631C110.156 30.4287 109.72 30.1621 109.356 29.8633C108.993 29.5645 108.715 29.2217 108.521 28.835C108.328 28.4482 108.231 28.0059 108.231 27.5078C108.231 27.0098 108.334 26.5498 108.539 26.1279C108.744 25.7061 109.037 25.3398 109.418 25.0293C109.805 24.7129 110.265 24.4668 110.798 24.291C111.331 24.1152 111.926 24.0273 112.582 24.0273C113.543 24.0273 114.357 24.2119 115.025 24.5811C115.699 24.9443 116.212 25.4219 116.563 26.0137C116.915 26.5996 117.091 27.2266 117.091 27.8945H115.403C115.403 27.4141 115.301 26.9893 115.096 26.6201C114.891 26.2451 114.58 25.9521 114.164 25.7412C113.748 25.5244 113.221 25.416 112.582 25.416C111.979 25.416 111.48 25.5068 111.088 25.6885C110.695 25.8701 110.402 26.1162 110.209 26.4268C110.021 26.7373 109.928 27.0918 109.928 27.4902C109.928 27.7598 109.983 28.0059 110.095 28.2285C110.212 28.4453 110.391 28.6475 110.631 28.835C110.877 29.0225 111.188 29.1953 111.562 29.3535C111.943 29.5117 112.397 29.6641 112.925 29.8105C113.651 30.0156 114.278 30.2441 114.806 30.4961C115.333 30.748 115.767 31.0322 116.106 31.3486C116.452 31.6592 116.707 32.0137 116.871 32.4121C117.041 32.8047 117.126 33.25 117.126 33.748C117.126 34.2695 117.021 34.7412 116.81 35.1631C116.599 35.585 116.297 35.9453 115.904 36.2441C115.512 36.543 115.04 36.7744 114.489 36.9385C113.944 37.0967 113.335 37.1758 112.661 37.1758C112.069 37.1758 111.486 37.0938 110.912 36.9297C110.344 36.7656 109.825 36.5195 109.356 36.1914C108.894 35.8633 108.521 35.459 108.24 34.9785C107.965 34.4922 107.827 33.9297 107.827 33.291H109.515C109.515 33.7305 109.6 34.1084 109.77 34.4248C109.939 34.7354 110.171 34.9932 110.464 35.1982C110.763 35.4033 111.1 35.5557 111.475 35.6553C111.855 35.749 112.251 35.7959 112.661 35.7959C113.253 35.7959 113.754 35.7139 114.164 35.5498C114.574 35.3857 114.885 35.1514 115.096 34.8467C115.312 34.542 115.421 34.1816 115.421 33.7656Z" fill="black" fill-opacity="0.3"/>
<path d="M385.348 22.4688H386.443L389.238 29.4238L392.027 22.4688H393.129L389.66 31H388.805L385.348 22.4688ZM384.99 22.4688H385.957L386.115 27.6719V31H384.99V22.4688ZM392.514 22.4688H393.48V31H392.355V27.6719L392.514 22.4688ZM395.016 27.9004V27.7656C395.016 27.3086 395.082 26.8848 395.215 26.4941C395.348 26.0996 395.539 25.7578 395.789 25.4688C396.039 25.1758 396.342 24.9492 396.697 24.7891C397.053 24.625 397.451 24.543 397.893 24.543C398.338 24.543 398.738 24.625 399.094 24.7891C399.453 24.9492 399.758 25.1758 400.008 25.4688C400.262 25.7578 400.455 26.0996 400.588 26.4941C400.721 26.8848 400.787 27.3086 400.787 27.7656V27.9004C400.787 28.3574 400.721 28.7812 400.588 29.1719C400.455 29.5625 400.262 29.9043 400.008 30.1973C399.758 30.4863 399.455 30.7129 399.1 30.877C398.748 31.0371 398.35 31.1172 397.904 31.1172C397.459 31.1172 397.059 31.0371 396.703 30.877C396.348 30.7129 396.043 30.4863 395.789 30.1973C395.539 29.9043 395.348 29.5625 395.215 29.1719C395.082 28.7812 395.016 28.3574 395.016 27.9004ZM396.1 27.7656V27.9004C396.1 28.2168 396.137 28.5156 396.211 28.7969C396.285 29.0742 396.396 29.3203 396.545 29.5352C396.697 29.75 396.887 29.9199 397.113 30.0449C397.34 30.166 397.604 30.2266 397.904 30.2266C398.201 30.2266 398.461 30.166 398.684 30.0449C398.91 29.9199 399.098 29.75 399.246 29.5352C399.395 29.3203 399.506 29.0742 399.58 28.7969C399.658 28.5156 399.697 28.2168 399.697 27.9004V27.7656C399.697 27.4531 399.658 27.1582 399.58 26.8809C399.506 26.5996 399.393 26.3516 399.24 26.1367C399.092 25.918 398.904 25.7461 398.678 25.6211C398.455 25.4961 398.193 25.4336 397.893 25.4336C397.596 25.4336 397.334 25.4961 397.107 25.6211C396.885 25.7461 396.697 25.918 396.545 26.1367C396.396 26.3516 396.285 26.5996 396.211 26.8809C396.137 27.1582 396.1 27.4531 396.1 27.7656ZM403.23 25.6562V31H402.146V24.6602H403.201L403.23 25.6562ZM405.211 24.625L405.205 25.6328C405.115 25.6133 405.029 25.6016 404.947 25.5977C404.869 25.5898 404.779 25.5859 404.678 25.5859C404.428 25.5859 404.207 25.625 404.016 25.7031C403.824 25.7812 403.662 25.8906 403.529 26.0312C403.396 26.1719 403.291 26.3398 403.213 26.5352C403.139 26.7266 403.09 26.9375 403.066 27.168L402.762 27.3438C402.762 26.9609 402.799 26.6016 402.873 26.2656C402.951 25.9297 403.07 25.6328 403.23 25.375C403.391 25.1133 403.594 24.9102 403.84 24.7656C404.09 24.6172 404.387 24.543 404.73 24.543C404.809 24.543 404.898 24.5527 405 24.5723C405.102 24.5879 405.172 24.6055 405.211 24.625ZM408.727 31.1172C408.285 31.1172 407.885 31.043 407.525 30.8945C407.17 30.7422 406.863 30.5293 406.605 30.2559C406.352 29.9824 406.156 29.6582 406.02 29.2832C405.883 28.9082 405.814 28.498 405.814 28.0527V27.8066C405.814 27.291 405.891 26.832 406.043 26.4297C406.195 26.0234 406.402 25.6797 406.664 25.3984C406.926 25.1172 407.223 24.9043 407.555 24.7598C407.887 24.6152 408.23 24.543 408.586 24.543C409.039 24.543 409.43 24.6211 409.758 24.7773C410.09 24.9336 410.361 25.1523 410.572 25.4336C410.783 25.7109 410.939 26.0391 411.041 26.418C411.143 26.793 411.193 27.2031 411.193 27.6484V28.1348H406.459V27.25H410.109V27.168C410.094 26.8867 410.035 26.6133 409.934 26.3477C409.836 26.082 409.68 25.8633 409.465 25.6914C409.25 25.5195 408.957 25.4336 408.586 25.4336C408.34 25.4336 408.113 25.4863 407.906 25.5918C407.699 25.6934 407.521 25.8457 407.373 26.0488C407.225 26.252 407.109 26.5 407.027 26.793C406.945 27.0859 406.904 27.4238 406.904 27.8066V28.0527C406.904 28.3535 406.945 28.6367 407.027 28.9023C407.113 29.1641 407.236 29.3945 407.396 29.5938C407.561 29.793 407.758 29.9492 407.988 30.0625C408.223 30.1758 408.488 30.2324 408.785 30.2324C409.168 30.2324 409.492 30.1543 409.758 29.998C410.023 29.8418 410.256 29.6328 410.455 29.3711L411.111 29.8926C410.975 30.0996 410.801 30.2969 410.59 30.4844C410.379 30.6719 410.119 30.8242 409.811 30.9414C409.506 31.0586 409.145 31.1172 408.727 31.1172Z" fill="#3C4AD9"/>
<rect x="22" y="58" width="390" height="146" fill="url(#paint0_linear_150_2087)"/>
<rect x="241" y="81" width="19" height="67" fill="#B3B3B3"/>
<rect x="241" y="93" width="19" height="55" fill="#F45F9F"/>
<rect x="279" y="96" width="19" height="52" fill="#B3B3B3"/>
<rect x="279" y="105.313" width="19" height="42.6866" fill="#1294F2"/>
<rect x="317" y="112" width="19" height="36" fill="#B3B3B3"/>
<rect x="317" y="118.448" width="19" height="29.5522" fill="#1294F2"/>
<rect x="393" y="112" width="19" height="36" fill="#B3B3B3"/>
<rect x="393" y="118.448" width="19" height="29.5522" fill="#1294F2"/>
<rect x="355" y="77" width="19" height="71" fill="#B3B3B3"/>
<rect x="355" y="89.7163" width="19" height="58.2836" fill="#6285FB"/>
<rect x="203" y="120" width="19" height="28" fill="#B3B3B3"/>
<rect x="203" y="125.015" width="19" height="22.9851" fill="#1294F2"/>
<path d="M206.691 164.562C206.691 164.43 206.671 164.312 206.629 164.211C206.59 164.107 206.52 164.013 206.418 163.93C206.319 163.846 206.181 163.767 206.004 163.691C205.829 163.616 205.608 163.539 205.34 163.461C205.059 163.378 204.805 163.285 204.578 163.184C204.352 163.079 204.158 162.961 203.996 162.828C203.835 162.695 203.711 162.543 203.625 162.371C203.539 162.199 203.496 162.003 203.496 161.781C203.496 161.56 203.542 161.355 203.633 161.168C203.724 160.98 203.854 160.818 204.023 160.68C204.195 160.539 204.4 160.43 204.637 160.352C204.874 160.273 205.138 160.234 205.43 160.234C205.857 160.234 206.219 160.316 206.516 160.48C206.815 160.642 207.043 160.854 207.199 161.117C207.355 161.378 207.434 161.656 207.434 161.953H206.684C206.684 161.74 206.638 161.551 206.547 161.387C206.456 161.22 206.318 161.09 206.133 160.996C205.948 160.9 205.714 160.852 205.43 160.852C205.161 160.852 204.94 160.892 204.766 160.973C204.591 161.053 204.461 161.163 204.375 161.301C204.292 161.439 204.25 161.596 204.25 161.773C204.25 161.893 204.275 162.003 204.324 162.102C204.376 162.198 204.456 162.288 204.562 162.371C204.672 162.454 204.81 162.531 204.977 162.602C205.146 162.672 205.348 162.74 205.582 162.805C205.905 162.896 206.184 162.997 206.418 163.109C206.652 163.221 206.845 163.348 206.996 163.488C207.15 163.626 207.263 163.784 207.336 163.961C207.411 164.135 207.449 164.333 207.449 164.555C207.449 164.786 207.402 164.996 207.309 165.184C207.215 165.371 207.081 165.531 206.906 165.664C206.732 165.797 206.522 165.9 206.277 165.973C206.035 166.043 205.764 166.078 205.465 166.078C205.202 166.078 204.943 166.042 204.688 165.969C204.435 165.896 204.204 165.786 203.996 165.641C203.79 165.495 203.625 165.315 203.5 165.102C203.378 164.885 203.316 164.635 203.316 164.352H204.066C204.066 164.547 204.104 164.715 204.18 164.855C204.255 164.993 204.358 165.108 204.488 165.199C204.621 165.29 204.771 165.358 204.938 165.402C205.107 165.444 205.283 165.465 205.465 165.465C205.728 165.465 205.951 165.428 206.133 165.355C206.315 165.283 206.453 165.178 206.547 165.043C206.643 164.908 206.691 164.747 206.691 164.562ZM211.387 165.023V161.773H212.113V166H211.422L211.387 165.023ZM211.523 164.133L211.824 164.125C211.824 164.406 211.794 164.667 211.734 164.906C211.677 165.143 211.583 165.349 211.453 165.523C211.323 165.698 211.152 165.835 210.941 165.934C210.73 166.03 210.474 166.078 210.172 166.078C209.966 166.078 209.777 166.048 209.605 165.988C209.436 165.928 209.29 165.836 209.168 165.711C209.046 165.586 208.951 165.423 208.883 165.223C208.818 165.022 208.785 164.781 208.785 164.5V161.773H209.508V164.508C209.508 164.698 209.529 164.855 209.57 164.98C209.615 165.103 209.673 165.201 209.746 165.273C209.822 165.344 209.905 165.393 209.996 165.422C210.09 165.451 210.186 165.465 210.285 165.465C210.592 165.465 210.836 165.406 211.016 165.289C211.195 165.169 211.324 165.009 211.402 164.809C211.483 164.605 211.523 164.38 211.523 164.133ZM214.438 162.676V166H213.715V161.773H214.398L214.438 162.676ZM214.266 163.727L213.965 163.715C213.967 163.426 214.01 163.159 214.094 162.914C214.177 162.667 214.294 162.452 214.445 162.27C214.596 162.087 214.776 161.947 214.984 161.848C215.195 161.746 215.428 161.695 215.684 161.695C215.892 161.695 216.079 161.724 216.246 161.781C216.413 161.836 216.555 161.924 216.672 162.047C216.792 162.169 216.883 162.328 216.945 162.523C217.008 162.716 217.039 162.952 217.039 163.23V166H216.312V163.223C216.312 163.001 216.28 162.824 216.215 162.691C216.15 162.556 216.055 162.458 215.93 162.398C215.805 162.336 215.651 162.305 215.469 162.305C215.289 162.305 215.125 162.342 214.977 162.418C214.831 162.493 214.704 162.598 214.598 162.73C214.493 162.863 214.411 163.016 214.352 163.188C214.294 163.357 214.266 163.536 214.266 163.727ZM236.375 160.312H237.105L238.969 164.949L240.828 160.312H241.562L239.25 166H238.68L236.375 160.312ZM236.137 160.312H236.781L236.887 163.781V166H236.137V160.312ZM241.152 160.312H241.797V166H241.047V163.781L241.152 160.312ZM243.32 163.934V163.844C243.32 163.539 243.365 163.257 243.453 162.996C243.542 162.733 243.669 162.505 243.836 162.312C244.003 162.117 244.204 161.966 244.441 161.859C244.678 161.75 244.944 161.695 245.238 161.695C245.535 161.695 245.802 161.75 246.039 161.859C246.279 161.966 246.482 162.117 246.648 162.312C246.818 162.505 246.947 162.733 247.035 162.996C247.124 163.257 247.168 163.539 247.168 163.844V163.934C247.168 164.238 247.124 164.521 247.035 164.781C246.947 165.042 246.818 165.27 246.648 165.465C246.482 165.658 246.28 165.809 246.043 165.918C245.809 166.025 245.543 166.078 245.246 166.078C244.949 166.078 244.682 166.025 244.445 165.918C244.208 165.809 244.005 165.658 243.836 165.465C243.669 165.27 243.542 165.042 243.453 164.781C243.365 164.521 243.32 164.238 243.32 163.934ZM244.043 163.844V163.934C244.043 164.145 244.068 164.344 244.117 164.531C244.167 164.716 244.241 164.88 244.34 165.023C244.441 165.167 244.568 165.28 244.719 165.363C244.87 165.444 245.046 165.484 245.246 165.484C245.444 165.484 245.617 165.444 245.766 165.363C245.917 165.28 246.042 165.167 246.141 165.023C246.24 164.88 246.314 164.716 246.363 164.531C246.415 164.344 246.441 164.145 246.441 163.934V163.844C246.441 163.635 246.415 163.439 246.363 163.254C246.314 163.066 246.238 162.901 246.137 162.758C246.038 162.612 245.913 162.497 245.762 162.414C245.613 162.331 245.439 162.289 245.238 162.289C245.04 162.289 244.866 162.331 244.715 162.414C244.566 162.497 244.441 162.612 244.34 162.758C244.241 162.901 244.167 163.066 244.117 163.254C244.068 163.439 244.043 163.635 244.043 163.844ZM249.297 162.676V166H248.574V161.773H249.258L249.297 162.676ZM249.125 163.727L248.824 163.715C248.827 163.426 248.87 163.159 248.953 162.914C249.036 162.667 249.154 162.452 249.305 162.27C249.456 162.087 249.635 161.947 249.844 161.848C250.055 161.746 250.288 161.695 250.543 161.695C250.751 161.695 250.939 161.724 251.105 161.781C251.272 161.836 251.414 161.924 251.531 162.047C251.651 162.169 251.742 162.328 251.805 162.523C251.867 162.716 251.898 162.952 251.898 163.23V166H251.172V163.223C251.172 163.001 251.139 162.824 251.074 162.691C251.009 162.556 250.914 162.458 250.789 162.398C250.664 162.336 250.51 162.305 250.328 162.305C250.148 162.305 249.984 162.342 249.836 162.418C249.69 162.493 249.564 162.598 249.457 162.73C249.353 162.863 249.271 163.016 249.211 163.188C249.154 163.357 249.125 163.536 249.125 163.727ZM272.941 160.312V166H272.199V160.312H272.941ZM274.77 160.312V160.93H270.375V160.312H274.77ZM278.215 165.023V161.773H278.941V166H278.25L278.215 165.023ZM278.352 164.133L278.652 164.125C278.652 164.406 278.622 164.667 278.562 164.906C278.505 165.143 278.411 165.349 278.281 165.523C278.151 165.698 277.98 165.835 277.77 165.934C277.559 166.03 277.302 166.078 277 166.078C276.794 166.078 276.605 166.048 276.434 165.988C276.264 165.928 276.118 165.836 275.996 165.711C275.874 165.586 275.779 165.423 275.711 165.223C275.646 165.022 275.613 164.781 275.613 164.5V161.773H276.336V164.508C276.336 164.698 276.357 164.855 276.398 164.98C276.443 165.103 276.501 165.201 276.574 165.273C276.65 165.344 276.733 165.393 276.824 165.422C276.918 165.451 277.014 165.465 277.113 165.465C277.421 165.465 277.664 165.406 277.844 165.289C278.023 165.169 278.152 165.009 278.23 164.809C278.311 164.605 278.352 164.38 278.352 164.133ZM282.297 166.078C282.003 166.078 281.736 166.029 281.496 165.93C281.259 165.828 281.055 165.686 280.883 165.504C280.714 165.322 280.583 165.105 280.492 164.855C280.401 164.605 280.355 164.332 280.355 164.035V163.871C280.355 163.527 280.406 163.221 280.508 162.953C280.609 162.682 280.747 162.453 280.922 162.266C281.096 162.078 281.294 161.936 281.516 161.84C281.737 161.743 281.966 161.695 282.203 161.695C282.505 161.695 282.766 161.747 282.984 161.852C283.206 161.956 283.387 162.102 283.527 162.289C283.668 162.474 283.772 162.693 283.84 162.945C283.908 163.195 283.941 163.469 283.941 163.766V164.09H280.785V163.5H283.219V163.445C283.208 163.258 283.169 163.076 283.102 162.898C283.036 162.721 282.932 162.576 282.789 162.461C282.646 162.346 282.451 162.289 282.203 162.289C282.039 162.289 281.888 162.324 281.75 162.395C281.612 162.462 281.493 162.564 281.395 162.699C281.296 162.835 281.219 163 281.164 163.195C281.109 163.391 281.082 163.616 281.082 163.871V164.035C281.082 164.236 281.109 164.424 281.164 164.602C281.221 164.776 281.303 164.93 281.41 165.062C281.52 165.195 281.651 165.299 281.805 165.375C281.961 165.451 282.138 165.488 282.336 165.488C282.591 165.488 282.807 165.436 282.984 165.332C283.161 165.228 283.316 165.089 283.449 164.914L283.887 165.262C283.796 165.4 283.68 165.531 283.539 165.656C283.398 165.781 283.225 165.883 283.02 165.961C282.816 166.039 282.576 166.078 282.297 166.078ZM304.281 164.281L305.41 160.312H305.957L305.641 161.855L304.426 166H303.883L304.281 164.281ZM303.113 160.312L304.012 164.203L304.281 166H303.742L302.363 160.312H303.113ZM307.418 164.199L308.297 160.312H309.051L307.676 166H307.137L307.418 164.199ZM306.039 160.312L307.137 164.281L307.535 166H306.992L305.82 161.855L305.5 160.312H306.039ZM311.906 166.078C311.612 166.078 311.345 166.029 311.105 165.93C310.868 165.828 310.664 165.686 310.492 165.504C310.323 165.322 310.193 165.105 310.102 164.855C310.01 164.605 309.965 164.332 309.965 164.035V163.871C309.965 163.527 310.016 163.221 310.117 162.953C310.219 162.682 310.357 162.453 310.531 162.266C310.706 162.078 310.904 161.936 311.125 161.84C311.346 161.743 311.576 161.695 311.812 161.695C312.115 161.695 312.375 161.747 312.594 161.852C312.815 161.956 312.996 162.102 313.137 162.289C313.277 162.474 313.382 162.693 313.449 162.945C313.517 163.195 313.551 163.469 313.551 163.766V164.09H310.395V163.5H312.828V163.445C312.818 163.258 312.779 163.076 312.711 162.898C312.646 162.721 312.542 162.576 312.398 162.461C312.255 162.346 312.06 162.289 311.812 162.289C311.648 162.289 311.497 162.324 311.359 162.395C311.221 162.462 311.103 162.564 311.004 162.699C310.905 162.835 310.828 163 310.773 163.195C310.719 163.391 310.691 163.616 310.691 163.871V164.035C310.691 164.236 310.719 164.424 310.773 164.602C310.831 164.776 310.913 164.93 311.02 165.062C311.129 165.195 311.26 165.299 311.414 165.375C311.57 165.451 311.747 165.488 311.945 165.488C312.201 165.488 312.417 165.436 312.594 165.332C312.771 165.228 312.926 165.089 313.059 164.914L313.496 165.262C313.405 165.4 313.289 165.531 313.148 165.656C313.008 165.781 312.835 165.883 312.629 165.961C312.426 166.039 312.185 166.078 311.906 166.078ZM317.559 165.18V160H318.285V166H317.621L317.559 165.18ZM314.715 163.934V163.852C314.715 163.529 314.754 163.236 314.832 162.973C314.913 162.707 315.026 162.479 315.172 162.289C315.32 162.099 315.496 161.953 315.699 161.852C315.905 161.747 316.134 161.695 316.387 161.695C316.652 161.695 316.884 161.742 317.082 161.836C317.283 161.927 317.452 162.061 317.59 162.238C317.73 162.413 317.841 162.624 317.922 162.871C318.003 163.118 318.059 163.398 318.09 163.711V164.07C318.061 164.38 318.005 164.659 317.922 164.906C317.841 165.154 317.73 165.365 317.59 165.539C317.452 165.714 317.283 165.848 317.082 165.941C316.882 166.033 316.647 166.078 316.379 166.078C316.132 166.078 315.905 166.025 315.699 165.918C315.496 165.811 315.32 165.661 315.172 165.469C315.026 165.276 314.913 165.049 314.832 164.789C314.754 164.526 314.715 164.241 314.715 163.934ZM315.441 163.852V163.934C315.441 164.145 315.462 164.342 315.504 164.527C315.548 164.712 315.616 164.875 315.707 165.016C315.798 165.156 315.914 165.267 316.055 165.348C316.195 165.426 316.363 165.465 316.559 165.465C316.798 165.465 316.995 165.414 317.148 165.312C317.305 165.211 317.43 165.077 317.523 164.91C317.617 164.743 317.69 164.562 317.742 164.367V163.426C317.711 163.283 317.665 163.145 317.605 163.012C317.548 162.876 317.473 162.757 317.379 162.652C317.288 162.546 317.174 162.461 317.039 162.398C316.906 162.336 316.749 162.305 316.566 162.305C316.368 162.305 316.198 162.346 316.055 162.43C315.914 162.51 315.798 162.622 315.707 162.766C315.616 162.906 315.548 163.07 315.504 163.258C315.462 163.443 315.441 163.641 315.441 163.852ZM339.355 160.312V166H338.613V160.312H339.355ZM341.184 160.312V160.93H336.789V160.312H341.184ZM343.141 160V166H342.418V160H343.141ZM342.969 163.727L342.668 163.715C342.671 163.426 342.714 163.159 342.797 162.914C342.88 162.667 342.997 162.452 343.148 162.27C343.299 162.087 343.479 161.947 343.688 161.848C343.898 161.746 344.132 161.695 344.387 161.695C344.595 161.695 344.783 161.724 344.949 161.781C345.116 161.836 345.258 161.924 345.375 162.047C345.495 162.169 345.586 162.328 345.648 162.523C345.711 162.716 345.742 162.952 345.742 163.23V166H345.016V163.223C345.016 163.001 344.983 162.824 344.918 162.691C344.853 162.556 344.758 162.458 344.633 162.398C344.508 162.336 344.354 162.305 344.172 162.305C343.992 162.305 343.828 162.342 343.68 162.418C343.534 162.493 343.408 162.598 343.301 162.73C343.197 162.863 343.115 163.016 343.055 163.188C342.997 163.357 342.969 163.536 342.969 163.727ZM349.91 165.023V161.773H350.637V166H349.945L349.91 165.023ZM350.047 164.133L350.348 164.125C350.348 164.406 350.318 164.667 350.258 164.906C350.201 165.143 350.107 165.349 349.977 165.523C349.846 165.698 349.676 165.835 349.465 165.934C349.254 166.03 348.997 166.078 348.695 166.078C348.49 166.078 348.301 166.048 348.129 165.988C347.96 165.928 347.814 165.836 347.691 165.711C347.569 165.586 347.474 165.423 347.406 165.223C347.341 165.022 347.309 164.781 347.309 164.5V161.773H348.031V164.508C348.031 164.698 348.052 164.855 348.094 164.98C348.138 165.103 348.197 165.201 348.27 165.273C348.345 165.344 348.428 165.393 348.52 165.422C348.613 165.451 348.71 165.465 348.809 165.465C349.116 165.465 349.359 165.406 349.539 165.289C349.719 165.169 349.848 165.009 349.926 164.809C350.007 164.605 350.047 164.38 350.047 164.133ZM370.492 160.312V166H369.738V160.312H370.492ZM372.875 162.871V163.488H370.328V162.871H372.875ZM373.262 160.312V160.93H370.328V160.312H373.262ZM375.172 162.438V166H374.449V161.773H375.152L375.172 162.438ZM376.492 161.75L376.488 162.422C376.428 162.409 376.371 162.401 376.316 162.398C376.264 162.393 376.204 162.391 376.137 162.391C375.97 162.391 375.823 162.417 375.695 162.469C375.568 162.521 375.46 162.594 375.371 162.688C375.283 162.781 375.212 162.893 375.16 163.023C375.111 163.151 375.078 163.292 375.062 163.445L374.859 163.562C374.859 163.307 374.884 163.068 374.934 162.844C374.986 162.62 375.065 162.422 375.172 162.25C375.279 162.076 375.414 161.94 375.578 161.844C375.745 161.745 375.943 161.695 376.172 161.695C376.224 161.695 376.284 161.702 376.352 161.715C376.419 161.725 376.466 161.737 376.492 161.75ZM378.445 161.773V166H377.719V161.773H378.445ZM377.664 160.652C377.664 160.535 377.699 160.436 377.77 160.355C377.842 160.275 377.949 160.234 378.09 160.234C378.228 160.234 378.333 160.275 378.406 160.355C378.482 160.436 378.52 160.535 378.52 160.652C378.52 160.764 378.482 160.861 378.406 160.941C378.333 161.02 378.228 161.059 378.09 161.059C377.949 161.059 377.842 161.02 377.77 160.941C377.699 160.861 377.664 160.764 377.664 160.652ZM400.637 164.562C400.637 164.43 400.616 164.312 400.574 164.211C400.535 164.107 400.465 164.013 400.363 163.93C400.264 163.846 400.126 163.767 399.949 163.691C399.775 163.616 399.553 163.539 399.285 163.461C399.004 163.378 398.75 163.285 398.523 163.184C398.297 163.079 398.103 162.961 397.941 162.828C397.78 162.695 397.656 162.543 397.57 162.371C397.484 162.199 397.441 162.003 397.441 161.781C397.441 161.56 397.487 161.355 397.578 161.168C397.669 160.98 397.799 160.818 397.969 160.68C398.141 160.539 398.345 160.43 398.582 160.352C398.819 160.273 399.083 160.234 399.375 160.234C399.802 160.234 400.164 160.316 400.461 160.48C400.76 160.642 400.988 160.854 401.145 161.117C401.301 161.378 401.379 161.656 401.379 161.953H400.629C400.629 161.74 400.583 161.551 400.492 161.387C400.401 161.22 400.263 161.09 400.078 160.996C399.893 160.9 399.659 160.852 399.375 160.852C399.107 160.852 398.885 160.892 398.711 160.973C398.536 161.053 398.406 161.163 398.32 161.301C398.237 161.439 398.195 161.596 398.195 161.773C398.195 161.893 398.22 162.003 398.27 162.102C398.322 162.198 398.401 162.288 398.508 162.371C398.617 162.454 398.755 162.531 398.922 162.602C399.091 162.672 399.293 162.74 399.527 162.805C399.85 162.896 400.129 162.997 400.363 163.109C400.598 163.221 400.79 163.348 400.941 163.488C401.095 163.626 401.208 163.784 401.281 163.961C401.357 164.135 401.395 164.333 401.395 164.555C401.395 164.786 401.348 164.996 401.254 165.184C401.16 165.371 401.026 165.531 400.852 165.664C400.677 165.797 400.467 165.9 400.223 165.973C399.98 166.043 399.71 166.078 399.41 166.078C399.147 166.078 398.888 166.042 398.633 165.969C398.38 165.896 398.15 165.786 397.941 165.641C397.736 165.495 397.57 165.315 397.445 165.102C397.323 164.885 397.262 164.635 397.262 164.352H398.012C398.012 164.547 398.049 164.715 398.125 164.855C398.201 164.993 398.303 165.108 398.434 165.199C398.566 165.29 398.716 165.358 398.883 165.402C399.052 165.444 399.228 165.465 399.41 165.465C399.673 165.465 399.896 165.428 400.078 165.355C400.26 165.283 400.398 165.178 400.492 165.043C400.589 164.908 400.637 164.747 400.637 164.562ZM405.238 165.277V163.102C405.238 162.935 405.204 162.79 405.137 162.668C405.072 162.543 404.973 162.447 404.84 162.379C404.707 162.311 404.543 162.277 404.348 162.277C404.165 162.277 404.005 162.309 403.867 162.371C403.732 162.434 403.625 162.516 403.547 162.617C403.471 162.719 403.434 162.828 403.434 162.945H402.711C402.711 162.794 402.75 162.645 402.828 162.496C402.906 162.348 403.018 162.214 403.164 162.094C403.312 161.971 403.49 161.875 403.695 161.805C403.904 161.732 404.135 161.695 404.391 161.695C404.698 161.695 404.969 161.747 405.203 161.852C405.44 161.956 405.625 162.113 405.758 162.324C405.893 162.533 405.961 162.794 405.961 163.109V165.078C405.961 165.219 405.973 165.368 405.996 165.527C406.022 165.686 406.06 165.823 406.109 165.938V166H405.355C405.319 165.917 405.29 165.806 405.27 165.668C405.249 165.527 405.238 165.397 405.238 165.277ZM405.363 163.438L405.371 163.945H404.641C404.435 163.945 404.251 163.962 404.09 163.996C403.928 164.027 403.793 164.076 403.684 164.141C403.574 164.206 403.491 164.288 403.434 164.387C403.376 164.483 403.348 164.596 403.348 164.727C403.348 164.859 403.378 164.98 403.438 165.09C403.497 165.199 403.587 165.286 403.707 165.352C403.829 165.414 403.979 165.445 404.156 165.445C404.378 165.445 404.573 165.398 404.742 165.305C404.911 165.211 405.046 165.096 405.145 164.961C405.246 164.826 405.301 164.694 405.309 164.566L405.617 164.914C405.599 165.023 405.549 165.145 405.469 165.277C405.388 165.41 405.28 165.538 405.145 165.66C405.012 165.78 404.853 165.88 404.668 165.961C404.486 166.039 404.28 166.078 404.051 166.078C403.764 166.078 403.513 166.022 403.297 165.91C403.083 165.798 402.917 165.648 402.797 165.461C402.68 165.271 402.621 165.059 402.621 164.824C402.621 164.598 402.665 164.398 402.754 164.227C402.842 164.052 402.97 163.908 403.137 163.793C403.303 163.676 403.504 163.587 403.738 163.527C403.973 163.467 404.234 163.438 404.523 163.438H405.363ZM409.367 161.773V162.328H407.082V161.773H409.367ZM407.855 160.746H408.578V164.953C408.578 165.096 408.6 165.204 408.645 165.277C408.689 165.35 408.746 165.398 408.816 165.422C408.887 165.445 408.962 165.457 409.043 165.457C409.103 165.457 409.165 165.452 409.23 165.441C409.298 165.428 409.349 165.418 409.383 165.41L409.387 166C409.329 166.018 409.254 166.035 409.16 166.051C409.069 166.069 408.958 166.078 408.828 166.078C408.651 166.078 408.488 166.043 408.34 165.973C408.191 165.902 408.073 165.785 407.984 165.621C407.898 165.454 407.855 165.23 407.855 164.949V160.746Z" fill="black"/>
<path d="M74.7464 110.063V118.63H73.6638V111.415L71.4811 112.211V111.234L74.5767 110.063H74.7464ZM83.6879 115.763V116.652H77.5318V116.015L81.3472 110.11H82.2308L81.2828 111.819L78.7607 115.763H83.6879ZM82.5 110.11V118.63H81.4174V110.11H82.5ZM85.8706 109.642V118.63H84.788V109.642H85.8706ZM85.6131 115.225L85.1625 115.207C85.1664 114.774 85.2308 114.374 85.3556 114.007C85.4804 113.637 85.656 113.315 85.8823 113.042C86.1085 112.769 86.3777 112.558 86.6898 112.41C87.0058 112.258 87.3549 112.182 87.7373 112.182C88.0494 112.182 88.3302 112.225 88.5799 112.31C88.8296 112.392 89.0422 112.525 89.2178 112.708C89.3972 112.892 89.5337 113.13 89.6274 113.422C89.721 113.711 89.7678 114.064 89.7678 114.481V118.63H88.6794V114.47C88.6794 114.138 88.6306 113.873 88.5331 113.674C88.4356 113.471 88.2932 113.325 88.1059 113.235C87.9187 113.141 87.6885 113.095 87.4154 113.095C87.1462 113.095 86.9005 113.151 86.6781 113.264C86.4596 113.377 86.2704 113.534 86.1105 113.732C85.9544 113.931 85.8315 114.16 85.7418 114.417C85.656 114.671 85.6131 114.94 85.6131 115.225ZM74.7464 124.063V132.63H73.6638V125.415L71.4811 126.211V125.234L74.5767 124.063H74.7464ZM83.2782 127.691V128.991C83.2782 129.689 83.2158 130.278 83.091 130.758C82.9661 131.238 82.7867 131.624 82.5526 131.916C82.3185 132.209 82.0357 132.422 81.7041 132.554C81.3764 132.683 81.0058 132.747 80.5923 132.747C80.2646 132.747 79.9622 132.706 79.6853 132.625C79.4083 132.543 79.1586 132.412 78.9362 132.232C78.7178 132.049 78.5305 131.811 78.3745 131.519C78.2184 131.226 78.0994 130.871 78.0175 130.454C77.9356 130.036 77.8946 129.548 77.8946 128.991V127.691C77.8946 126.993 77.957 126.408 78.0819 125.936C78.2106 125.464 78.392 125.086 78.6261 124.801C78.8602 124.512 79.141 124.305 79.4687 124.18C79.8003 124.056 80.171 123.993 80.5806 123.993C80.9122 123.993 81.2165 124.034 81.4935 124.116C81.7743 124.194 82.024 124.321 82.2425 124.496C82.4609 124.668 82.6462 124.898 82.7984 125.187C82.9544 125.472 83.0734 125.821 83.1553 126.234C83.2373 126.648 83.2782 127.134 83.2782 127.691ZM82.1898 129.166V127.51C82.1898 127.128 82.1664 126.792 82.1196 126.504C82.0767 126.211 82.0123 125.961 81.9265 125.755C81.8407 125.548 81.7314 125.38 81.5988 125.251C81.47 125.123 81.3198 125.029 81.1482 124.97C80.9804 124.908 80.7912 124.877 80.5806 124.877C80.3231 124.877 80.0949 124.926 79.8959 125.023C79.697 125.117 79.5292 125.267 79.3927 125.474C79.26 125.68 79.1586 125.952 79.0884 126.287C79.0182 126.623 78.9831 127.03 78.9831 127.51V129.166C78.9831 129.548 79.0045 129.886 79.0474 130.178C79.0942 130.471 79.1625 130.725 79.2522 130.939C79.342 131.15 79.4512 131.323 79.5799 131.46C79.7087 131.597 79.8569 131.698 80.0247 131.764C80.1963 131.827 80.3855 131.858 80.5923 131.858C80.8576 131.858 81.0897 131.807 81.2886 131.706C81.4876 131.604 81.6534 131.446 81.786 131.232C81.9226 131.013 82.024 130.734 82.0903 130.395C82.1566 130.052 82.1898 129.642 82.1898 129.166ZM85.8647 127.557V132.63H84.7763V126.299H85.8062L85.8647 127.557ZM85.6423 129.225L85.1391 129.207C85.143 128.774 85.1996 128.374 85.3088 128.007C85.418 127.637 85.5799 127.315 85.7945 127.042C86.009 126.769 86.2763 126.558 86.5962 126.41C86.9161 126.258 87.2867 126.182 87.708 126.182C88.0045 126.182 88.2776 126.225 88.5272 126.31C88.7769 126.392 88.9934 126.523 89.1768 126.703C89.3601 126.882 89.5025 127.112 89.604 127.393C89.7054 127.674 89.7561 128.013 89.7561 128.411V132.63H88.6735V128.464C88.6735 128.132 88.617 127.867 88.5038 127.668C88.3946 127.469 88.2386 127.325 88.0357 127.235C87.8328 127.141 87.5949 127.095 87.3218 127.095C87.0019 127.095 86.7347 127.151 86.5201 127.264C86.3055 127.377 86.1339 127.534 86.0051 127.732C85.8764 127.931 85.7828 128.16 85.7243 128.417C85.6696 128.671 85.6423 128.94 85.6423 129.225ZM89.7444 128.628L89.0188 128.85C89.0227 128.503 89.0793 128.169 89.1885 127.849C89.3016 127.53 89.4635 127.245 89.6742 126.995C89.8888 126.745 90.1521 126.548 90.4642 126.404C90.7763 126.256 91.1332 126.182 91.535 126.182C91.8744 126.182 92.1748 126.227 92.4362 126.316C92.7015 126.406 92.9239 126.545 93.1033 126.732C93.2867 126.915 93.4252 127.151 93.5188 127.44C93.6124 127.729 93.6592 128.072 93.6592 128.47V132.63H92.5708V128.458C92.5708 128.103 92.5142 127.828 92.4011 127.633C92.2919 127.434 92.1358 127.296 91.933 127.218C91.734 127.136 91.496 127.095 91.219 127.095C90.9811 127.095 90.7704 127.136 90.5871 127.218C90.4037 127.299 90.2496 127.413 90.1248 127.557C89.9999 127.697 89.9044 127.859 89.838 128.043C89.7756 128.226 89.7444 128.421 89.7444 128.628Z" fill="#766969"/>
<path d="M78.9457 127.126H76.9223V126.309H78.9457C79.3376 126.309 79.6549 126.247 79.8976 126.122C80.1404 125.997 80.3172 125.823 80.4282 125.602C80.5426 125.38 80.5998 125.126 80.5998 124.842C80.5998 124.582 80.5426 124.338 80.4282 124.109C80.3172 123.88 80.1404 123.696 79.8976 123.557C79.6549 123.415 79.3376 123.344 78.9457 123.344H77.1564V130.096H76.1525V122.522H78.9457C79.5179 122.522 80.0016 122.621 80.397 122.819C80.7923 123.016 81.0922 123.29 81.2968 123.641C81.5014 123.987 81.6037 124.384 81.6037 124.832C81.6037 125.317 81.5014 125.732 81.2968 126.075C81.0922 126.418 80.7923 126.68 80.397 126.86C80.0016 127.037 79.5179 127.126 78.9457 127.126ZM83.6895 125.352V130.096H82.7273V124.468H83.6635L83.6895 125.352ZM85.4477 124.436L85.4425 125.331C85.3627 125.314 85.2864 125.303 85.2136 125.3C85.1442 125.293 85.0645 125.289 84.9743 125.289C84.7524 125.289 84.5565 125.324 84.3866 125.394C84.2166 125.463 84.0727 125.56 83.9548 125.685C83.8369 125.81 83.7433 125.959 83.6739 126.132C83.6081 126.302 83.5647 126.489 83.5439 126.694L83.2734 126.85C83.2734 126.51 83.3064 126.191 83.3723 125.893C83.4416 125.595 83.5474 125.331 83.6895 125.102C83.8317 124.87 84.012 124.69 84.2305 124.561C84.4524 124.429 84.716 124.364 85.0211 124.364C85.0905 124.364 85.1703 124.372 85.2604 124.39C85.3506 124.403 85.413 124.419 85.4477 124.436ZM85.9782 127.344V127.224C85.9782 126.819 86.0372 126.442 86.1551 126.096C86.273 125.745 86.4429 125.442 86.6648 125.185C86.8868 124.925 87.1555 124.724 87.4711 124.582C87.7866 124.436 88.1403 124.364 88.5322 124.364C88.9275 124.364 89.2829 124.436 89.5985 124.582C89.9175 124.724 90.188 124.925 90.4099 125.185C90.6353 125.442 90.807 125.745 90.9249 126.096C91.0428 126.442 91.1018 126.819 91.1018 127.224V127.344C91.1018 127.75 91.0428 128.126 90.9249 128.473C90.807 128.82 90.6353 129.123 90.4099 129.383C90.188 129.64 89.9193 129.841 89.6037 129.986C89.2916 130.129 88.9379 130.2 88.5426 130.2C88.1473 130.2 87.7918 130.129 87.4763 129.986C87.1607 129.841 86.8902 129.64 86.6648 129.383C86.4429 129.123 86.273 128.82 86.1551 128.473C86.0372 128.126 85.9782 127.75 85.9782 127.344ZM86.9405 127.224V127.344C86.9405 127.625 86.9735 127.89 87.0393 128.14C87.1052 128.386 87.2041 128.605 87.3358 128.795C87.4711 128.986 87.6393 129.137 87.8404 129.248C88.0415 129.355 88.2756 129.409 88.5426 129.409C88.8061 129.409 89.0367 129.355 89.2344 129.248C89.4355 129.137 89.602 128.986 89.7337 128.795C89.8655 128.605 89.9643 128.386 90.0302 128.14C90.0996 127.89 90.1343 127.625 90.1343 127.344V127.224C90.1343 126.947 90.0996 126.685 90.0302 126.439C89.9643 126.189 89.8638 125.969 89.7285 125.778C89.5968 125.584 89.4303 125.432 89.2292 125.321C89.0315 125.21 88.7992 125.154 88.5322 125.154C88.2686 125.154 88.0363 125.21 87.8352 125.321C87.6375 125.432 87.4711 125.584 87.3358 125.778C87.2041 125.969 87.1052 126.189 87.0393 126.439C86.9735 126.685 86.9405 126.947 86.9405 127.224ZM92.3345 124.468H93.302V130.767C93.302 131.11 93.2465 131.401 93.1356 131.641C93.0281 131.88 92.8651 132.06 92.6466 132.182C92.4316 132.306 92.1594 132.369 91.83 132.369C91.7433 132.369 91.6427 132.36 91.5283 132.343C91.4104 132.325 91.3116 132.305 91.2318 132.28L91.237 131.505C91.3029 131.519 91.3774 131.53 91.4607 131.537C91.5439 131.547 91.6167 131.552 91.6791 131.552C91.8213 131.552 91.9409 131.526 92.038 131.474C92.1351 131.422 92.208 131.339 92.2565 131.224C92.3085 131.11 92.3345 130.957 92.3345 130.767V124.468ZM92.2357 122.975C92.2357 122.819 92.2842 122.687 92.3813 122.579C92.4784 122.472 92.6189 122.418 92.8027 122.418C92.9899 122.418 93.1321 122.472 93.2292 122.579C93.3263 122.687 93.3748 122.819 93.3748 122.975C93.3748 123.124 93.3263 123.252 93.2292 123.36C93.1321 123.464 92.9899 123.516 92.8027 123.516C92.6189 123.516 92.4784 123.464 92.3813 123.36C92.2842 123.252 92.2357 123.124 92.2357 122.975ZM78.3424 142.2C77.9505 142.2 77.5951 142.134 77.276 142.002C76.9605 141.867 76.6883 141.678 76.4594 141.435C76.234 141.192 76.0606 140.905 75.9392 140.572C75.8179 140.239 75.7572 139.875 75.7572 139.479V139.261C75.7572 138.803 75.8248 138.396 75.96 138.038C76.0953 137.678 76.2791 137.373 76.5114 137.123C76.7437 136.873 77.0073 136.684 77.302 136.556C77.5968 136.428 77.902 136.364 78.2175 136.364C78.6198 136.364 78.9665 136.433 79.2578 136.572C79.5526 136.71 79.7936 136.905 79.9808 137.154C80.1681 137.4 80.3068 137.692 80.397 138.028C80.4871 138.361 80.5322 138.725 80.5322 139.12V139.552H76.3294V138.767H79.5699V138.694C79.556 138.444 79.504 138.201 79.4139 137.966C79.3272 137.73 79.1885 137.536 78.9977 137.383C78.807 137.231 78.5469 137.154 78.2175 137.154C77.999 137.154 77.7979 137.201 77.6141 137.295C77.4303 137.385 77.2726 137.52 77.1408 137.7C77.009 137.881 76.9067 138.101 76.8339 138.361C76.7611 138.621 76.7247 138.921 76.7247 139.261V139.479C76.7247 139.746 76.7611 139.998 76.8339 140.234C76.9102 140.466 77.0194 140.67 77.1616 140.847C77.3072 141.024 77.4824 141.163 77.687 141.263C77.895 141.364 78.1308 141.414 78.3944 141.414C78.7342 141.414 79.022 141.345 79.2578 141.206C79.4936 141.068 79.7 140.882 79.8768 140.65L80.4594 141.113C80.338 141.296 80.1837 141.472 79.9964 141.638C79.8092 141.804 79.5786 141.94 79.3046 142.044C79.0342 142.148 78.7134 142.2 78.3424 142.2ZM83.908 141.409C84.1369 141.409 84.3484 141.362 84.5426 141.269C84.7368 141.175 84.8963 141.047 85.0211 140.884C85.146 140.717 85.2171 140.528 85.2344 140.317H86.1499C86.1325 140.65 86.0198 140.96 85.8118 141.248C85.6072 141.532 85.3384 141.763 85.0055 141.94C84.6726 142.113 84.3068 142.2 83.908 142.2C83.485 142.2 83.1156 142.125 82.8001 141.976C82.488 141.827 82.2279 141.622 82.0198 141.362C81.8153 141.102 81.6609 140.804 81.5569 140.468C81.4563 140.128 81.4061 139.769 81.4061 139.391V139.172C81.4061 138.794 81.4563 138.437 81.5569 138.101C81.6609 137.761 81.8153 137.461 82.0198 137.201C82.2279 136.941 82.488 136.736 82.8001 136.587C83.1156 136.438 83.485 136.364 83.908 136.364C84.3484 136.364 84.7333 136.454 85.0628 136.634C85.3922 136.811 85.6505 137.054 85.8378 137.362C86.0285 137.667 86.1325 138.014 86.1499 138.403H85.2344C85.2171 138.17 85.1512 137.96 85.0367 137.773C84.9258 137.586 84.7732 137.437 84.579 137.326C84.3883 137.211 84.1646 137.154 83.908 137.154C83.6133 137.154 83.3653 137.213 83.1642 137.331C82.9665 137.446 82.8087 137.602 82.6908 137.799C82.5764 137.993 82.4932 138.21 82.4412 138.449C82.3926 138.685 82.3684 138.926 82.3684 139.172V139.391C82.3684 139.637 82.3926 139.88 82.4412 140.119C82.4897 140.358 82.5712 140.575 82.6856 140.769C82.8035 140.963 82.9613 141.12 83.159 141.237C83.3601 141.352 83.6098 141.409 83.908 141.409ZM89.5881 136.468V137.206H86.5452V136.468H89.5881ZM87.5751 135.1H88.5374V140.702C88.5374 140.892 88.5669 141.036 88.6258 141.133C88.6848 141.231 88.7611 141.295 88.8547 141.326C88.9483 141.357 89.0489 141.373 89.1564 141.373C89.2361 141.373 89.3194 141.366 89.406 141.352C89.4962 141.335 89.5638 141.321 89.6089 141.31L89.6141 142.096C89.5378 142.12 89.4373 142.143 89.3124 142.163C89.1911 142.188 89.0437 142.2 88.8703 142.2C88.6345 142.2 88.4178 142.153 88.2201 142.059C88.0224 141.966 87.8647 141.81 87.7468 141.591C87.6323 141.369 87.5751 141.071 87.5751 140.696V135.1Z" fill="black" fill-opacity="0.17"/>
<path d="M87.5 68.331C87.5 65.939 89.4423 63.9814 91.8261 64.1785C97.5767 64.654 103.22 66.0752 108.525 68.3939C115.156 71.2919 121.116 75.5293 126.031 80.8402C130.946 86.1511 134.71 92.4207 137.087 99.2555C139.464 106.09 140.402 113.343 139.843 120.557C139.284 127.772 137.239 134.793 133.837 141.18C130.436 147.567 125.75 153.181 120.075 157.672C114.401 162.162 107.859 165.43 100.861 167.271C95.2615 168.745 89.4668 169.28 83.7117 168.863C81.326 168.691 79.7085 166.457 80.0771 164.094L81.7399 153.432C82.1085 151.069 84.3268 149.482 86.718 149.538C89.8104 149.612 92.9051 149.25 95.9103 148.46C100.315 147.3 104.433 145.243 108.006 142.417C111.578 139.59 114.527 136.056 116.668 132.036C118.81 128.015 120.097 123.595 120.449 119.054C120.801 114.513 120.21 109.947 118.714 105.645C117.218 101.343 114.848 97.3959 111.754 94.0528C108.66 90.7098 104.909 88.0424 100.735 86.2182C97.8874 84.9736 94.8854 84.1399 91.8186 83.7357C89.4472 83.4231 87.5 81.5132 87.5 79.1213V68.331Z" fill="#F45F9F"/>
<path d="M79.0879 163.929C78.6701 166.284 76.4158 167.872 74.103 167.262C67.2619 165.456 60.8411 162.282 55.236 157.916C49.6309 153.55 44.9826 148.1 41.5583 141.909C40.4006 139.816 41.3891 137.241 43.5705 136.26L48.7862 133.914C50.9676 132.933 53.5108 133.922 54.733 135.978C57.1531 140.049 60.3176 143.645 64.0739 146.571C67.8301 149.497 72.0909 151.686 76.6306 153.037C78.9232 153.719 80.5043 155.942 80.0866 158.298L79.0879 163.929Z" fill="#6285FB"/>
<path d="M42.8686 134.619C40.6523 135.518 38.1078 134.455 37.3938 132.172C35.7726 126.989 34.9628 121.577 35.0013 116.129C35.0398 110.681 35.9259 105.281 37.6202 100.122C38.3664 97.849 40.9256 96.8217 43.1289 97.7527L48.397 99.9785C50.6004 100.909 51.606 103.446 50.9309 105.741C49.9304 109.141 49.4071 112.672 49.3819 116.231C49.3568 119.79 49.8302 123.327 50.7826 126.742C51.4252 129.046 50.3838 131.568 48.1675 132.468L42.8686 134.619Z" fill="#169DFF"/>
<defs>
<filter id="filter0_d_150_2087" x="0" y="0" width="434" height="241" filterUnits="userSpaceOnUse" color-interpolation-filters="sRGB">
<feFlood flood-opacity="0" result="BackgroundImageFix"/>
<feColorMatrix in="SourceAlpha" type="matrix" values="0 0 0 0 0 0 0 0 0 0 0 0 0 0 0 0 0 0 127 0" result="hardAlpha"/>
<feOffset dy="4"/>
<feGaussianBlur stdDeviation="3"/>
<feComposite in2="hardAlpha" operator="out"/>
<feColorMatrix type="matrix" values="0 0 0 0 0 0 0 0 0 0 0 0 0 0 0 0 0 0 0.25 0"/>
<feBlend mode="normal" in2="BackgroundImageFix" result="effect1_dropShadow_150_2087"/>
<feBlend mode="normal" in="SourceGraphic" in2="effect1_dropShadow_150_2087" result="shape"/>
</filter>
<linearGradient id="paint0_linear_150_2087" x1="285" y1="204" x2="285" y2="58" gradientUnits="userSpaceOnUse">
<stop stop-color="#F7F8FF"/>
<stop offset="1" stop-color="#F7F8FF" stop-opacity="0"/>
</linearGradient>
</defs>
</svg>
