<svg width="434" height="241" viewBox="0 0 434 241" fill="none" xmlns="http://www.w3.org/2000/svg">
<g filter="url(#filter0_d_150_1759)">
<rect x="6" y="2" width="422" height="229" rx="15" fill="white"/>
</g>
<path d="M31.4141 214.312V220H30.6602V214.312H31.4141ZM33.7969 216.871V217.488H31.25V216.871H33.7969ZM34.1836 214.312V214.93H31.25V214.312H34.1836ZM37.1406 220.078C36.8464 220.078 36.5794 220.029 36.3398 219.93C36.1029 219.828 35.8984 219.686 35.7266 219.504C35.5573 219.322 35.4271 219.105 35.3359 218.855C35.2448 218.605 35.1992 218.332 35.1992 218.035V217.871C35.1992 217.527 35.25 217.221 35.3516 216.953C35.4531 216.682 35.5911 216.453 35.7656 216.266C35.9401 216.078 36.138 215.936 36.3594 215.84C36.5807 215.743 36.8099 215.695 37.0469 215.695C37.349 215.695 37.6094 215.747 37.8281 215.852C38.0495 215.956 38.2305 216.102 38.3711 216.289C38.5117 216.474 38.6159 216.693 38.6836 216.945C38.7513 217.195 38.7852 217.469 38.7852 217.766V218.09H35.6289V217.5H38.0625V217.445C38.0521 217.258 38.013 217.076 37.9453 216.898C37.8802 216.721 37.776 216.576 37.6328 216.461C37.4896 216.346 37.2943 216.289 37.0469 216.289C36.8828 216.289 36.7318 216.324 36.5938 216.395C36.4557 216.462 36.3372 216.564 36.2383 216.699C36.1393 216.835 36.0625 217 36.0078 217.195C35.9531 217.391 35.9258 217.616 35.9258 217.871V218.035C35.9258 218.236 35.9531 218.424 36.0078 218.602C36.0651 218.776 36.1471 218.93 36.2539 219.062C36.3633 219.195 36.4948 219.299 36.6484 219.375C36.8047 219.451 36.9818 219.488 37.1797 219.488C37.4349 219.488 37.651 219.436 37.8281 219.332C38.0052 219.228 38.1602 219.089 38.293 218.914L38.7305 219.262C38.6393 219.4 38.5234 219.531 38.3828 219.656C38.2422 219.781 38.069 219.883 37.8633 219.961C37.6602 220.039 37.4193 220.078 37.1406 220.078ZM40.125 214H40.8516V219.18L40.7891 220H40.125V214ZM43.707 217.852V217.934C43.707 218.241 43.6706 218.526 43.5977 218.789C43.5247 219.049 43.418 219.276 43.2773 219.469C43.1367 219.661 42.9648 219.811 42.7617 219.918C42.5586 220.025 42.3255 220.078 42.0625 220.078C41.7943 220.078 41.5586 220.033 41.3555 219.941C41.1549 219.848 40.9857 219.714 40.8477 219.539C40.7096 219.365 40.599 219.154 40.5156 218.906C40.4349 218.659 40.3789 218.38 40.3477 218.07V217.711C40.3789 217.398 40.4349 217.118 40.5156 216.871C40.599 216.624 40.7096 216.413 40.8477 216.238C40.9857 216.061 41.1549 215.927 41.3555 215.836C41.556 215.742 41.7891 215.695 42.0547 215.695C42.3203 215.695 42.556 215.747 42.7617 215.852C42.9674 215.953 43.1393 216.099 43.2773 216.289C43.418 216.479 43.5247 216.707 43.5977 216.973C43.6706 217.236 43.707 217.529 43.707 217.852ZM42.9805 217.934V217.852C42.9805 217.641 42.9609 217.443 42.9219 217.258C42.8828 217.07 42.8203 216.906 42.7344 216.766C42.6484 216.622 42.5352 216.51 42.3945 216.43C42.2539 216.346 42.0807 216.305 41.875 216.305C41.6927 216.305 41.5339 216.336 41.3984 216.398C41.2656 216.461 41.1523 216.546 41.0586 216.652C40.9648 216.757 40.888 216.876 40.8281 217.012C40.7708 217.145 40.7279 217.283 40.6992 217.426V218.367C40.7409 218.549 40.8086 218.725 40.9023 218.895C40.9987 219.061 41.1263 219.198 41.2852 219.305C41.4466 219.411 41.6458 219.465 41.8828 219.465C42.0781 219.465 42.2448 219.426 42.3828 219.348C42.5234 219.267 42.6367 219.156 42.7227 219.016C42.8112 218.875 42.8763 218.712 42.918 218.527C42.9596 218.342 42.9805 218.145 42.9805 217.934ZM62.8594 214.312H63.5898L65.4531 218.949L67.3125 214.312H68.0469L65.7344 220H65.1641L62.8594 214.312ZM62.6211 214.312H63.2656L63.3711 217.781V220H62.6211V214.312ZM67.6367 214.312H68.2812V220H67.5312V217.781L67.6367 214.312ZM72.4883 219.277V217.102C72.4883 216.935 72.4544 216.79 72.3867 216.668C72.3216 216.543 72.2227 216.447 72.0898 216.379C71.957 216.311 71.793 216.277 71.5977 216.277C71.4154 216.277 71.2552 216.309 71.1172 216.371C70.9818 216.434 70.875 216.516 70.7969 216.617C70.7214 216.719 70.6836 216.828 70.6836 216.945H69.9609C69.9609 216.794 70 216.645 70.0781 216.496C70.1562 216.348 70.2682 216.214 70.4141 216.094C70.5625 215.971 70.7396 215.875 70.9453 215.805C71.1536 215.732 71.3854 215.695 71.6406 215.695C71.9479 215.695 72.2188 215.747 72.4531 215.852C72.6901 215.956 72.875 216.113 73.0078 216.324C73.1432 216.533 73.2109 216.794 73.2109 217.109V219.078C73.2109 219.219 73.2227 219.368 73.2461 219.527C73.2721 219.686 73.3099 219.823 73.3594 219.938V220H72.6055C72.569 219.917 72.5404 219.806 72.5195 219.668C72.4987 219.527 72.4883 219.397 72.4883 219.277ZM72.6133 217.438L72.6211 217.945H71.8906C71.6849 217.945 71.5013 217.962 71.3398 217.996C71.1784 218.027 71.043 218.076 70.9336 218.141C70.8242 218.206 70.7409 218.288 70.6836 218.387C70.6263 218.483 70.5977 218.596 70.5977 218.727C70.5977 218.859 70.6276 218.98 70.6875 219.09C70.7474 219.199 70.8372 219.286 70.957 219.352C71.0794 219.414 71.2292 219.445 71.4062 219.445C71.6276 219.445 71.8229 219.398 71.9922 219.305C72.1615 219.211 72.2956 219.096 72.3945 218.961C72.4961 218.826 72.5508 218.694 72.5586 218.566L72.8672 218.914C72.849 219.023 72.7995 219.145 72.7188 219.277C72.638 219.41 72.5299 219.538 72.3945 219.66C72.2617 219.78 72.1029 219.88 71.918 219.961C71.7357 220.039 71.5299 220.078 71.3008 220.078C71.0143 220.078 70.763 220.022 70.5469 219.91C70.3333 219.798 70.1667 219.648 70.0469 219.461C69.9297 219.271 69.8711 219.059 69.8711 218.824C69.8711 218.598 69.9154 218.398 70.0039 218.227C70.0924 218.052 70.2201 217.908 70.3867 217.793C70.5534 217.676 70.7539 217.587 70.9883 217.527C71.2227 217.467 71.4844 217.438 71.7734 217.438H72.6133ZM75.5703 216.438V220H74.8477V215.773H75.5508L75.5703 216.438ZM76.8906 215.75L76.8867 216.422C76.8268 216.409 76.7695 216.401 76.7148 216.398C76.6628 216.393 76.6029 216.391 76.5352 216.391C76.3685 216.391 76.2214 216.417 76.0938 216.469C75.9661 216.521 75.8581 216.594 75.7695 216.688C75.681 216.781 75.6107 216.893 75.5586 217.023C75.5091 217.151 75.4766 217.292 75.4609 217.445L75.2578 217.562C75.2578 217.307 75.2826 217.068 75.332 216.844C75.3841 216.62 75.4635 216.422 75.5703 216.25C75.6771 216.076 75.8125 215.94 75.9766 215.844C76.1432 215.745 76.3411 215.695 76.5703 215.695C76.6224 215.695 76.6823 215.702 76.75 215.715C76.8177 215.725 76.8646 215.737 76.8906 215.75ZM97.6641 214.816L95.7812 220H95.0117L97.1797 214.312H97.6758L97.6641 214.816ZM99.2422 220L97.3555 214.816L97.3438 214.312H97.8398L100.016 220H99.2422ZM99.1445 217.895V218.512H95.9492V217.895H99.1445ZM101.891 216.586V221.625H101.164V215.773H101.828L101.891 216.586ZM104.738 217.852V217.934C104.738 218.241 104.702 218.526 104.629 218.789C104.556 219.049 104.449 219.276 104.309 219.469C104.171 219.661 104 219.811 103.797 219.918C103.594 220.025 103.361 220.078 103.098 220.078C102.829 220.078 102.592 220.034 102.387 219.945C102.181 219.857 102.007 219.728 101.863 219.559C101.72 219.389 101.605 219.186 101.52 218.949C101.436 218.712 101.379 218.445 101.348 218.148V217.711C101.379 217.398 101.438 217.118 101.523 216.871C101.609 216.624 101.723 216.413 101.863 216.238C102.007 216.061 102.18 215.927 102.383 215.836C102.586 215.742 102.82 215.695 103.086 215.695C103.352 215.695 103.587 215.747 103.793 215.852C103.999 215.953 104.172 216.099 104.312 216.289C104.453 216.479 104.559 216.707 104.629 216.973C104.702 217.236 104.738 217.529 104.738 217.852ZM104.012 217.934V217.852C104.012 217.641 103.99 217.443 103.945 217.258C103.901 217.07 103.832 216.906 103.738 216.766C103.647 216.622 103.53 216.51 103.387 216.43C103.243 216.346 103.073 216.305 102.875 216.305C102.693 216.305 102.534 216.336 102.398 216.398C102.266 216.461 102.152 216.546 102.059 216.652C101.965 216.757 101.888 216.876 101.828 217.012C101.771 217.145 101.728 217.283 101.699 217.426V218.438C101.751 218.62 101.824 218.792 101.918 218.953C102.012 219.112 102.137 219.241 102.293 219.34C102.449 219.436 102.646 219.484 102.883 219.484C103.078 219.484 103.246 219.444 103.387 219.363C103.53 219.28 103.647 219.167 103.738 219.023C103.832 218.88 103.901 218.716 103.945 218.531C103.99 218.344 104.012 218.145 104.012 217.934ZM106.883 216.438V220H106.16V215.773H106.863L106.883 216.438ZM108.203 215.75L108.199 216.422C108.139 216.409 108.082 216.401 108.027 216.398C107.975 216.393 107.915 216.391 107.848 216.391C107.681 216.391 107.534 216.417 107.406 216.469C107.279 216.521 107.171 216.594 107.082 216.688C106.993 216.781 106.923 216.893 106.871 217.023C106.822 217.151 106.789 217.292 106.773 217.445L106.57 217.562C106.57 217.307 106.595 217.068 106.645 216.844C106.697 216.62 106.776 216.422 106.883 216.25C106.99 216.076 107.125 215.94 107.289 215.844C107.456 215.745 107.654 215.695 107.883 215.695C107.935 215.695 107.995 215.702 108.062 215.715C108.13 215.725 108.177 215.737 108.203 215.75ZM127.109 214.312H127.84L129.703 218.949L131.562 214.312H132.297L129.984 220H129.414L127.109 214.312ZM126.871 214.312H127.516L127.621 217.781V220H126.871V214.312ZM131.887 214.312H132.531V220H131.781V217.781L131.887 214.312ZM136.738 219.277V217.102C136.738 216.935 136.704 216.79 136.637 216.668C136.572 216.543 136.473 216.447 136.34 216.379C136.207 216.311 136.043 216.277 135.848 216.277C135.665 216.277 135.505 216.309 135.367 216.371C135.232 216.434 135.125 216.516 135.047 216.617C134.971 216.719 134.934 216.828 134.934 216.945H134.211C134.211 216.794 134.25 216.645 134.328 216.496C134.406 216.348 134.518 216.214 134.664 216.094C134.812 215.971 134.99 215.875 135.195 215.805C135.404 215.732 135.635 215.695 135.891 215.695C136.198 215.695 136.469 215.747 136.703 215.852C136.94 215.956 137.125 216.113 137.258 216.324C137.393 216.533 137.461 216.794 137.461 217.109V219.078C137.461 219.219 137.473 219.368 137.496 219.527C137.522 219.686 137.56 219.823 137.609 219.938V220H136.855C136.819 219.917 136.79 219.806 136.77 219.668C136.749 219.527 136.738 219.397 136.738 219.277ZM136.863 217.438L136.871 217.945H136.141C135.935 217.945 135.751 217.962 135.59 217.996C135.428 218.027 135.293 218.076 135.184 218.141C135.074 218.206 134.991 218.288 134.934 218.387C134.876 218.483 134.848 218.596 134.848 218.727C134.848 218.859 134.878 218.98 134.938 219.09C134.997 219.199 135.087 219.286 135.207 219.352C135.329 219.414 135.479 219.445 135.656 219.445C135.878 219.445 136.073 219.398 136.242 219.305C136.411 219.211 136.546 219.096 136.645 218.961C136.746 218.826 136.801 218.694 136.809 218.566L137.117 218.914C137.099 219.023 137.049 219.145 136.969 219.277C136.888 219.41 136.78 219.538 136.645 219.66C136.512 219.78 136.353 219.88 136.168 219.961C135.986 220.039 135.78 220.078 135.551 220.078C135.264 220.078 135.013 220.022 134.797 219.91C134.583 219.798 134.417 219.648 134.297 219.461C134.18 219.271 134.121 219.059 134.121 218.824C134.121 218.598 134.165 218.398 134.254 218.227C134.342 218.052 134.47 217.908 134.637 217.793C134.803 217.676 135.004 217.587 135.238 217.527C135.473 217.467 135.734 217.438 136.023 217.438H136.863ZM140.223 219.562L141.398 215.773H142.172L140.477 220.652C140.438 220.757 140.385 220.868 140.32 220.988C140.258 221.111 140.177 221.227 140.078 221.336C139.979 221.445 139.859 221.534 139.719 221.602C139.581 221.672 139.415 221.707 139.223 221.707C139.165 221.707 139.092 221.699 139.004 221.684C138.915 221.668 138.853 221.655 138.816 221.645L138.812 221.059C138.833 221.061 138.866 221.064 138.91 221.066C138.957 221.072 138.99 221.074 139.008 221.074C139.172 221.074 139.311 221.052 139.426 221.008C139.54 220.966 139.637 220.895 139.715 220.793C139.796 220.694 139.865 220.557 139.922 220.383L140.223 219.562ZM139.359 215.773L140.457 219.055L140.645 219.816L140.125 220.082L138.57 215.773H139.359ZM163.211 218.34V214.312H163.961V218.34C163.961 218.715 163.884 219.031 163.73 219.289C163.577 219.547 163.365 219.743 163.094 219.879C162.826 220.012 162.517 220.078 162.168 220.078C161.819 220.078 161.509 220.018 161.238 219.898C160.967 219.779 160.755 219.596 160.602 219.352C160.448 219.107 160.371 218.798 160.371 218.426H161.125C161.125 218.665 161.169 218.862 161.258 219.016C161.346 219.169 161.469 219.283 161.625 219.355C161.784 219.428 161.965 219.465 162.168 219.465C162.366 219.465 162.543 219.423 162.699 219.34C162.858 219.254 162.983 219.128 163.074 218.961C163.165 218.792 163.211 218.585 163.211 218.34ZM168.215 219.023V215.773H168.941V220H168.25L168.215 219.023ZM168.352 218.133L168.652 218.125C168.652 218.406 168.622 218.667 168.562 218.906C168.505 219.143 168.411 219.349 168.281 219.523C168.151 219.698 167.98 219.835 167.77 219.934C167.559 220.03 167.302 220.078 167 220.078C166.794 220.078 166.605 220.048 166.434 219.988C166.264 219.928 166.118 219.836 165.996 219.711C165.874 219.586 165.779 219.423 165.711 219.223C165.646 219.022 165.613 218.781 165.613 218.5V215.773H166.336V218.508C166.336 218.698 166.357 218.855 166.398 218.98C166.443 219.103 166.501 219.201 166.574 219.273C166.65 219.344 166.733 219.393 166.824 219.422C166.918 219.451 167.014 219.465 167.113 219.465C167.421 219.465 167.664 219.406 167.844 219.289C168.023 219.169 168.152 219.009 168.23 218.809C168.311 218.605 168.352 218.38 168.352 218.133ZM171.266 216.676V220H170.543V215.773H171.227L171.266 216.676ZM171.094 217.727L170.793 217.715C170.796 217.426 170.839 217.159 170.922 216.914C171.005 216.667 171.122 216.452 171.273 216.27C171.424 216.087 171.604 215.947 171.812 215.848C172.023 215.746 172.257 215.695 172.512 215.695C172.72 215.695 172.908 215.724 173.074 215.781C173.241 215.836 173.383 215.924 173.5 216.047C173.62 216.169 173.711 216.328 173.773 216.523C173.836 216.716 173.867 216.952 173.867 217.23V220H173.141V217.223C173.141 217.001 173.108 216.824 173.043 216.691C172.978 216.556 172.883 216.458 172.758 216.398C172.633 216.336 172.479 216.305 172.297 216.305C172.117 216.305 171.953 216.342 171.805 216.418C171.659 216.493 171.533 216.598 171.426 216.73C171.322 216.863 171.24 217.016 171.18 217.188C171.122 217.357 171.094 217.536 171.094 217.727ZM195.352 218.34V214.312H196.102V218.34C196.102 218.715 196.025 219.031 195.871 219.289C195.717 219.547 195.505 219.743 195.234 219.879C194.966 220.012 194.658 220.078 194.309 220.078C193.96 220.078 193.65 220.018 193.379 219.898C193.108 219.779 192.896 219.596 192.742 219.352C192.589 219.107 192.512 218.798 192.512 218.426H193.266C193.266 218.665 193.31 218.862 193.398 219.016C193.487 219.169 193.609 219.283 193.766 219.355C193.924 219.428 194.105 219.465 194.309 219.465C194.507 219.465 194.684 219.423 194.84 219.34C194.999 219.254 195.124 219.128 195.215 218.961C195.306 218.792 195.352 218.585 195.352 218.34ZM200.355 219.023V215.773H201.082V220H200.391L200.355 219.023ZM200.492 218.133L200.793 218.125C200.793 218.406 200.763 218.667 200.703 218.906C200.646 219.143 200.552 219.349 200.422 219.523C200.292 219.698 200.121 219.835 199.91 219.934C199.699 220.03 199.443 220.078 199.141 220.078C198.935 220.078 198.746 220.048 198.574 219.988C198.405 219.928 198.259 219.836 198.137 219.711C198.014 219.586 197.919 219.423 197.852 219.223C197.786 219.022 197.754 218.781 197.754 218.5V215.773H198.477V218.508C198.477 218.698 198.497 218.855 198.539 218.98C198.583 219.103 198.642 219.201 198.715 219.273C198.79 219.344 198.874 219.393 198.965 219.422C199.059 219.451 199.155 219.465 199.254 219.465C199.561 219.465 199.805 219.406 199.984 219.289C200.164 219.169 200.293 219.009 200.371 218.809C200.452 218.605 200.492 218.38 200.492 218.133ZM203.469 214V220H202.742V214H203.469ZM224.734 214.816L222.852 220H222.082L224.25 214.312H224.746L224.734 214.816ZM226.312 220L224.426 214.816L224.414 214.312H224.91L227.086 220H226.312ZM226.215 217.895V218.512H223.02V217.895H226.215ZM230.777 219.023V215.773H231.504V220H230.812L230.777 219.023ZM230.914 218.133L231.215 218.125C231.215 218.406 231.185 218.667 231.125 218.906C231.068 219.143 230.974 219.349 230.844 219.523C230.714 219.698 230.543 219.835 230.332 219.934C230.121 220.03 229.865 220.078 229.562 220.078C229.357 220.078 229.168 220.048 228.996 219.988C228.827 219.928 228.681 219.836 228.559 219.711C228.436 219.586 228.341 219.423 228.273 219.223C228.208 219.022 228.176 218.781 228.176 218.5V215.773H228.898V218.508C228.898 218.698 228.919 218.855 228.961 218.98C229.005 219.103 229.064 219.201 229.137 219.273C229.212 219.344 229.296 219.393 229.387 219.422C229.48 219.451 229.577 219.465 229.676 219.465C229.983 219.465 230.227 219.406 230.406 219.289C230.586 219.169 230.715 219.009 230.793 218.809C230.874 218.605 230.914 218.38 230.914 218.133ZM235.844 215.773H236.5V219.91C236.5 220.283 236.424 220.6 236.273 220.863C236.122 221.126 235.911 221.326 235.641 221.461C235.372 221.599 235.062 221.668 234.711 221.668C234.565 221.668 234.393 221.645 234.195 221.598C234 221.553 233.807 221.477 233.617 221.367C233.43 221.26 233.272 221.116 233.145 220.934L233.523 220.504C233.701 220.717 233.885 220.866 234.078 220.949C234.273 221.033 234.466 221.074 234.656 221.074C234.885 221.074 235.083 221.031 235.25 220.945C235.417 220.859 235.546 220.732 235.637 220.562C235.73 220.396 235.777 220.19 235.777 219.945V216.703L235.844 215.773ZM232.934 217.934V217.852C232.934 217.529 232.971 217.236 233.047 216.973C233.125 216.707 233.236 216.479 233.379 216.289C233.525 216.099 233.701 215.953 233.906 215.852C234.112 215.747 234.344 215.695 234.602 215.695C234.867 215.695 235.099 215.742 235.297 215.836C235.497 215.927 235.667 216.061 235.805 216.238C235.945 216.413 236.056 216.624 236.137 216.871C236.217 217.118 236.273 217.398 236.305 217.711V218.07C236.276 218.38 236.22 218.659 236.137 218.906C236.056 219.154 235.945 219.365 235.805 219.539C235.667 219.714 235.497 219.848 235.297 219.941C235.096 220.033 234.862 220.078 234.594 220.078C234.341 220.078 234.112 220.025 233.906 219.918C233.703 219.811 233.529 219.661 233.383 219.469C233.237 219.276 233.125 219.049 233.047 218.789C232.971 218.526 232.934 218.241 232.934 217.934ZM233.656 217.852V217.934C233.656 218.145 233.677 218.342 233.719 218.527C233.763 218.712 233.829 218.875 233.918 219.016C234.009 219.156 234.125 219.267 234.266 219.348C234.406 219.426 234.574 219.465 234.77 219.465C235.009 219.465 235.207 219.414 235.363 219.312C235.52 219.211 235.643 219.077 235.734 218.91C235.828 218.743 235.901 218.562 235.953 218.367V217.426C235.924 217.283 235.88 217.145 235.82 217.012C235.763 216.876 235.688 216.757 235.594 216.652C235.503 216.546 235.389 216.461 235.254 216.398C235.118 216.336 234.96 216.305 234.777 216.305C234.579 216.305 234.409 216.346 234.266 216.43C234.125 216.51 234.009 216.622 233.918 216.766C233.829 216.906 233.763 217.07 233.719 217.258C233.677 217.443 233.656 217.641 233.656 217.852ZM258.629 218.562C258.629 218.43 258.608 218.312 258.566 218.211C258.527 218.107 258.457 218.013 258.355 217.93C258.257 217.846 258.118 217.767 257.941 217.691C257.767 217.616 257.546 217.539 257.277 217.461C256.996 217.378 256.742 217.285 256.516 217.184C256.289 217.079 256.095 216.961 255.934 216.828C255.772 216.695 255.648 216.543 255.562 216.371C255.477 216.199 255.434 216.003 255.434 215.781C255.434 215.56 255.479 215.355 255.57 215.168C255.661 214.98 255.792 214.818 255.961 214.68C256.133 214.539 256.337 214.43 256.574 214.352C256.811 214.273 257.076 214.234 257.367 214.234C257.794 214.234 258.156 214.316 258.453 214.48C258.753 214.642 258.98 214.854 259.137 215.117C259.293 215.378 259.371 215.656 259.371 215.953H258.621C258.621 215.74 258.576 215.551 258.484 215.387C258.393 215.22 258.255 215.09 258.07 214.996C257.885 214.9 257.651 214.852 257.367 214.852C257.099 214.852 256.878 214.892 256.703 214.973C256.529 215.053 256.398 215.163 256.312 215.301C256.229 215.439 256.188 215.596 256.188 215.773C256.188 215.893 256.212 216.003 256.262 216.102C256.314 216.198 256.393 216.288 256.5 216.371C256.609 216.454 256.747 216.531 256.914 216.602C257.083 216.672 257.285 216.74 257.52 216.805C257.842 216.896 258.121 216.997 258.355 217.109C258.59 217.221 258.783 217.348 258.934 217.488C259.087 217.626 259.201 217.784 259.273 217.961C259.349 218.135 259.387 218.333 259.387 218.555C259.387 218.786 259.34 218.996 259.246 219.184C259.152 219.371 259.018 219.531 258.844 219.664C258.669 219.797 258.46 219.9 258.215 219.973C257.973 220.043 257.702 220.078 257.402 220.078C257.139 220.078 256.88 220.042 256.625 219.969C256.372 219.896 256.142 219.786 255.934 219.641C255.728 219.495 255.562 219.315 255.438 219.102C255.315 218.885 255.254 218.635 255.254 218.352H256.004C256.004 218.547 256.042 218.715 256.117 218.855C256.193 218.993 256.296 219.108 256.426 219.199C256.559 219.29 256.708 219.358 256.875 219.402C257.044 219.444 257.22 219.465 257.402 219.465C257.665 219.465 257.888 219.428 258.07 219.355C258.253 219.283 258.391 219.178 258.484 219.043C258.581 218.908 258.629 218.747 258.629 218.562ZM262.492 220.078C262.198 220.078 261.931 220.029 261.691 219.93C261.454 219.828 261.25 219.686 261.078 219.504C260.909 219.322 260.779 219.105 260.688 218.855C260.596 218.605 260.551 218.332 260.551 218.035V217.871C260.551 217.527 260.602 217.221 260.703 216.953C260.805 216.682 260.943 216.453 261.117 216.266C261.292 216.078 261.49 215.936 261.711 215.84C261.932 215.743 262.161 215.695 262.398 215.695C262.701 215.695 262.961 215.747 263.18 215.852C263.401 215.956 263.582 216.102 263.723 216.289C263.863 216.474 263.967 216.693 264.035 216.945C264.103 217.195 264.137 217.469 264.137 217.766V218.09H260.98V217.5H263.414V217.445C263.404 217.258 263.365 217.076 263.297 216.898C263.232 216.721 263.128 216.576 262.984 216.461C262.841 216.346 262.646 216.289 262.398 216.289C262.234 216.289 262.083 216.324 261.945 216.395C261.807 216.462 261.689 216.564 261.59 216.699C261.491 216.835 261.414 217 261.359 217.195C261.305 217.391 261.277 217.616 261.277 217.871V218.035C261.277 218.236 261.305 218.424 261.359 218.602C261.417 218.776 261.499 218.93 261.605 219.062C261.715 219.195 261.846 219.299 262 219.375C262.156 219.451 262.333 219.488 262.531 219.488C262.786 219.488 263.003 219.436 263.18 219.332C263.357 219.228 263.512 219.089 263.645 218.914L264.082 219.262C263.991 219.4 263.875 219.531 263.734 219.656C263.594 219.781 263.421 219.883 263.215 219.961C263.012 220.039 262.771 220.078 262.492 220.078ZM266.203 216.586V221.625H265.477V215.773H266.141L266.203 216.586ZM269.051 217.852V217.934C269.051 218.241 269.014 218.526 268.941 218.789C268.868 219.049 268.762 219.276 268.621 219.469C268.483 219.661 268.312 219.811 268.109 219.918C267.906 220.025 267.673 220.078 267.41 220.078C267.142 220.078 266.905 220.034 266.699 219.945C266.493 219.857 266.319 219.728 266.176 219.559C266.033 219.389 265.918 219.186 265.832 218.949C265.749 218.712 265.691 218.445 265.66 218.148V217.711C265.691 217.398 265.75 217.118 265.836 216.871C265.922 216.624 266.035 216.413 266.176 216.238C266.319 216.061 266.492 215.927 266.695 215.836C266.898 215.742 267.133 215.695 267.398 215.695C267.664 215.695 267.9 215.747 268.105 215.852C268.311 215.953 268.484 216.099 268.625 216.289C268.766 216.479 268.871 216.707 268.941 216.973C269.014 217.236 269.051 217.529 269.051 217.852ZM268.324 217.934V217.852C268.324 217.641 268.302 217.443 268.258 217.258C268.214 217.07 268.145 216.906 268.051 216.766C267.96 216.622 267.842 216.51 267.699 216.43C267.556 216.346 267.385 216.305 267.188 216.305C267.005 216.305 266.846 216.336 266.711 216.398C266.578 216.461 266.465 216.546 266.371 216.652C266.277 216.757 266.201 216.876 266.141 217.012C266.083 217.145 266.04 217.283 266.012 217.426V218.438C266.064 218.62 266.137 218.792 266.23 218.953C266.324 219.112 266.449 219.241 266.605 219.34C266.762 219.436 266.958 219.484 267.195 219.484C267.391 219.484 267.559 219.444 267.699 219.363C267.842 219.28 267.96 219.167 268.051 219.023C268.145 218.88 268.214 218.716 268.258 218.531C268.302 218.344 268.324 218.145 268.324 217.934ZM292.352 216.977V217.336C292.352 217.763 292.298 218.146 292.191 218.484C292.085 218.823 291.931 219.111 291.73 219.348C291.53 219.585 291.289 219.766 291.008 219.891C290.729 220.016 290.417 220.078 290.07 220.078C289.734 220.078 289.426 220.016 289.145 219.891C288.866 219.766 288.624 219.585 288.418 219.348C288.215 219.111 288.057 218.823 287.945 218.484C287.833 218.146 287.777 217.763 287.777 217.336V216.977C287.777 216.549 287.832 216.168 287.941 215.832C288.053 215.493 288.211 215.206 288.414 214.969C288.617 214.729 288.858 214.547 289.137 214.422C289.418 214.297 289.727 214.234 290.062 214.234C290.409 214.234 290.721 214.297 291 214.422C291.281 214.547 291.522 214.729 291.723 214.969C291.926 215.206 292.081 215.493 292.188 215.832C292.297 216.168 292.352 216.549 292.352 216.977ZM291.605 217.336V216.969C291.605 216.63 291.57 216.331 291.5 216.07C291.432 215.81 291.332 215.591 291.199 215.414C291.066 215.237 290.904 215.103 290.711 215.012C290.521 214.921 290.305 214.875 290.062 214.875C289.828 214.875 289.616 214.921 289.426 215.012C289.238 215.103 289.077 215.237 288.941 215.414C288.809 215.591 288.706 215.81 288.633 216.07C288.56 216.331 288.523 216.63 288.523 216.969V217.336C288.523 217.677 288.56 217.979 288.633 218.242C288.706 218.503 288.81 218.723 288.945 218.902C289.083 219.079 289.246 219.214 289.434 219.305C289.624 219.396 289.836 219.441 290.07 219.441C290.315 219.441 290.533 219.396 290.723 219.305C290.913 219.214 291.073 219.079 291.203 218.902C291.336 218.723 291.436 218.503 291.504 218.242C291.572 217.979 291.605 217.677 291.605 217.336ZM295.562 219.484C295.734 219.484 295.893 219.449 296.039 219.379C296.185 219.309 296.305 219.212 296.398 219.09C296.492 218.965 296.546 218.823 296.559 218.664H297.246C297.233 218.914 297.148 219.147 296.992 219.363C296.839 219.577 296.637 219.75 296.387 219.883C296.137 220.013 295.862 220.078 295.562 220.078C295.245 220.078 294.967 220.022 294.73 219.91C294.496 219.798 294.301 219.645 294.145 219.449C293.991 219.254 293.875 219.03 293.797 218.777C293.721 218.522 293.684 218.253 293.684 217.969V217.805C293.684 217.521 293.721 217.253 293.797 217C293.875 216.745 293.991 216.52 294.145 216.324C294.301 216.129 294.496 215.975 294.73 215.863C294.967 215.751 295.245 215.695 295.562 215.695C295.893 215.695 296.182 215.763 296.43 215.898C296.677 216.031 296.871 216.214 297.012 216.445C297.155 216.674 297.233 216.935 297.246 217.227H296.559C296.546 217.052 296.496 216.895 296.41 216.754C296.327 216.613 296.212 216.501 296.066 216.418C295.923 216.332 295.755 216.289 295.562 216.289C295.341 216.289 295.155 216.333 295.004 216.422C294.855 216.508 294.737 216.625 294.648 216.773C294.562 216.919 294.5 217.082 294.461 217.262C294.424 217.439 294.406 217.62 294.406 217.805V217.969C294.406 218.154 294.424 218.336 294.461 218.516C294.497 218.695 294.559 218.858 294.645 219.004C294.733 219.15 294.852 219.267 295 219.355C295.151 219.441 295.339 219.484 295.562 219.484ZM300.328 215.773V216.328H298.043V215.773H300.328ZM298.816 214.746H299.539V218.953C299.539 219.096 299.561 219.204 299.605 219.277C299.65 219.35 299.707 219.398 299.777 219.422C299.848 219.445 299.923 219.457 300.004 219.457C300.064 219.457 300.126 219.452 300.191 219.441C300.259 219.428 300.31 219.418 300.344 219.41L300.348 220C300.29 220.018 300.215 220.035 300.121 220.051C300.03 220.069 299.919 220.078 299.789 220.078C299.612 220.078 299.449 220.043 299.301 219.973C299.152 219.902 299.034 219.785 298.945 219.621C298.859 219.454 298.816 219.23 298.816 218.949V214.746ZM323.551 214.312V220H322.793L319.93 215.613V220H319.176V214.312H319.93L322.805 218.711V214.312H323.551ZM325.086 217.934V217.844C325.086 217.539 325.13 217.257 325.219 216.996C325.307 216.733 325.435 216.505 325.602 216.312C325.768 216.117 325.97 215.966 326.207 215.859C326.444 215.75 326.71 215.695 327.004 215.695C327.301 215.695 327.568 215.75 327.805 215.859C328.044 215.966 328.247 216.117 328.414 216.312C328.583 216.505 328.712 216.733 328.801 216.996C328.889 217.257 328.934 217.539 328.934 217.844V217.934C328.934 218.238 328.889 218.521 328.801 218.781C328.712 219.042 328.583 219.27 328.414 219.465C328.247 219.658 328.046 219.809 327.809 219.918C327.574 220.025 327.309 220.078 327.012 220.078C326.715 220.078 326.448 220.025 326.211 219.918C325.974 219.809 325.771 219.658 325.602 219.465C325.435 219.27 325.307 219.042 325.219 218.781C325.13 218.521 325.086 218.238 325.086 217.934ZM325.809 217.844V217.934C325.809 218.145 325.833 218.344 325.883 218.531C325.932 218.716 326.007 218.88 326.105 219.023C326.207 219.167 326.333 219.28 326.484 219.363C326.635 219.444 326.811 219.484 327.012 219.484C327.21 219.484 327.383 219.444 327.531 219.363C327.682 219.28 327.807 219.167 327.906 219.023C328.005 218.88 328.079 218.716 328.129 218.531C328.181 218.344 328.207 218.145 328.207 217.934V217.844C328.207 217.635 328.181 217.439 328.129 217.254C328.079 217.066 328.004 216.901 327.902 216.758C327.803 216.612 327.678 216.497 327.527 216.414C327.379 216.331 327.204 216.289 327.004 216.289C326.806 216.289 326.632 216.331 326.48 216.414C326.332 216.497 326.207 216.612 326.105 216.758C326.007 216.901 325.932 217.066 325.883 217.254C325.833 217.439 325.809 217.635 325.809 217.844ZM331.562 219.348L332.719 215.773H333.457L331.938 220H331.453L331.562 219.348ZM330.598 215.773L331.789 219.367L331.871 220H331.387L329.855 215.773H330.598ZM353.691 220H352.504L352.512 219.387H353.691C354.098 219.387 354.436 219.302 354.707 219.133C354.978 218.961 355.181 218.721 355.316 218.414C355.454 218.104 355.523 217.742 355.523 217.328V216.98C355.523 216.655 355.484 216.366 355.406 216.113C355.328 215.858 355.214 215.643 355.062 215.469C354.911 215.292 354.727 215.158 354.508 215.066C354.292 214.975 354.043 214.93 353.762 214.93H352.48V214.312H353.762C354.134 214.312 354.474 214.375 354.781 214.5C355.089 214.622 355.353 214.801 355.574 215.035C355.798 215.267 355.97 215.548 356.09 215.879C356.21 216.207 356.27 216.577 356.27 216.988V217.328C356.27 217.74 356.21 218.111 356.09 218.441C355.97 218.77 355.797 219.049 355.57 219.281C355.346 219.513 355.076 219.691 354.758 219.816C354.443 219.939 354.087 220 353.691 220ZM352.906 214.312V220H352.152V214.312H352.906ZM359.547 220.078C359.253 220.078 358.986 220.029 358.746 219.93C358.509 219.828 358.305 219.686 358.133 219.504C357.964 219.322 357.833 219.105 357.742 218.855C357.651 218.605 357.605 218.332 357.605 218.035V217.871C357.605 217.527 357.656 217.221 357.758 216.953C357.859 216.682 357.997 216.453 358.172 216.266C358.346 216.078 358.544 215.936 358.766 215.84C358.987 215.743 359.216 215.695 359.453 215.695C359.755 215.695 360.016 215.747 360.234 215.852C360.456 215.956 360.637 216.102 360.777 216.289C360.918 216.474 361.022 216.693 361.09 216.945C361.158 217.195 361.191 217.469 361.191 217.766V218.09H358.035V217.5H360.469V217.445C360.458 217.258 360.419 217.076 360.352 216.898C360.286 216.721 360.182 216.576 360.039 216.461C359.896 216.346 359.701 216.289 359.453 216.289C359.289 216.289 359.138 216.324 359 216.395C358.862 216.462 358.743 216.564 358.645 216.699C358.546 216.835 358.469 217 358.414 217.195C358.359 217.391 358.332 217.616 358.332 217.871V218.035C358.332 218.236 358.359 218.424 358.414 218.602C358.471 218.776 358.553 218.93 358.66 219.062C358.77 219.195 358.901 219.299 359.055 219.375C359.211 219.451 359.388 219.488 359.586 219.488C359.841 219.488 360.057 219.436 360.234 219.332C360.411 219.228 360.566 219.089 360.699 218.914L361.137 219.262C361.046 219.4 360.93 219.531 360.789 219.656C360.648 219.781 360.475 219.883 360.27 219.961C360.066 220.039 359.826 220.078 359.547 220.078ZM364.227 219.484C364.398 219.484 364.557 219.449 364.703 219.379C364.849 219.309 364.969 219.212 365.062 219.09C365.156 218.965 365.21 218.823 365.223 218.664H365.91C365.897 218.914 365.812 219.147 365.656 219.363C365.503 219.577 365.301 219.75 365.051 219.883C364.801 220.013 364.526 220.078 364.227 220.078C363.909 220.078 363.632 220.022 363.395 219.91C363.16 219.798 362.965 219.645 362.809 219.449C362.655 219.254 362.539 219.03 362.461 218.777C362.385 218.522 362.348 218.253 362.348 217.969V217.805C362.348 217.521 362.385 217.253 362.461 217C362.539 216.745 362.655 216.52 362.809 216.324C362.965 216.129 363.16 215.975 363.395 215.863C363.632 215.751 363.909 215.695 364.227 215.695C364.557 215.695 364.846 215.763 365.094 215.898C365.341 216.031 365.535 216.214 365.676 216.445C365.819 216.674 365.897 216.935 365.91 217.227H365.223C365.21 217.052 365.16 216.895 365.074 216.754C364.991 216.613 364.876 216.501 364.73 216.418C364.587 216.332 364.419 216.289 364.227 216.289C364.005 216.289 363.819 216.333 363.668 216.422C363.52 216.508 363.401 216.625 363.312 216.773C363.227 216.919 363.164 217.082 363.125 217.262C363.089 217.439 363.07 217.62 363.07 217.805V217.969C363.07 218.154 363.089 218.336 363.125 218.516C363.161 218.695 363.223 218.858 363.309 219.004C363.397 219.15 363.516 219.267 363.664 219.355C363.815 219.441 364.003 219.484 364.227 219.484ZM387.109 218.34V214.312H387.859V218.34C387.859 218.715 387.783 219.031 387.629 219.289C387.475 219.547 387.263 219.743 386.992 219.879C386.724 220.012 386.415 220.078 386.066 220.078C385.717 220.078 385.408 220.018 385.137 219.898C384.866 219.779 384.654 219.596 384.5 219.352C384.346 219.107 384.27 218.798 384.27 218.426H385.023C385.023 218.665 385.068 218.862 385.156 219.016C385.245 219.169 385.367 219.283 385.523 219.355C385.682 219.428 385.863 219.465 386.066 219.465C386.264 219.465 386.441 219.423 386.598 219.34C386.757 219.254 386.882 219.128 386.973 218.961C387.064 218.792 387.109 218.585 387.109 218.34ZM392.02 219.277V217.102C392.02 216.935 391.986 216.79 391.918 216.668C391.853 216.543 391.754 216.447 391.621 216.379C391.488 216.311 391.324 216.277 391.129 216.277C390.947 216.277 390.786 216.309 390.648 216.371C390.513 216.434 390.406 216.516 390.328 216.617C390.253 216.719 390.215 216.828 390.215 216.945H389.492C389.492 216.794 389.531 216.645 389.609 216.496C389.688 216.348 389.799 216.214 389.945 216.094C390.094 215.971 390.271 215.875 390.477 215.805C390.685 215.732 390.917 215.695 391.172 215.695C391.479 215.695 391.75 215.747 391.984 215.852C392.221 215.956 392.406 216.113 392.539 216.324C392.674 216.533 392.742 216.794 392.742 217.109V219.078C392.742 219.219 392.754 219.368 392.777 219.527C392.803 219.686 392.841 219.823 392.891 219.938V220H392.137C392.1 219.917 392.072 219.806 392.051 219.668C392.03 219.527 392.02 219.397 392.02 219.277ZM392.145 217.438L392.152 217.945H391.422C391.216 217.945 391.033 217.962 390.871 217.996C390.71 218.027 390.574 218.076 390.465 218.141C390.355 218.206 390.272 218.288 390.215 218.387C390.158 218.483 390.129 218.596 390.129 218.727C390.129 218.859 390.159 218.98 390.219 219.09C390.279 219.199 390.368 219.286 390.488 219.352C390.611 219.414 390.76 219.445 390.938 219.445C391.159 219.445 391.354 219.398 391.523 219.305C391.693 219.211 391.827 219.096 391.926 218.961C392.027 218.826 392.082 218.694 392.09 218.566L392.398 218.914C392.38 219.023 392.331 219.145 392.25 219.277C392.169 219.41 392.061 219.538 391.926 219.66C391.793 219.78 391.634 219.88 391.449 219.961C391.267 220.039 391.061 220.078 390.832 220.078C390.546 220.078 390.294 220.022 390.078 219.91C389.865 219.798 389.698 219.648 389.578 219.461C389.461 219.271 389.402 219.059 389.402 218.824C389.402 218.598 389.447 218.398 389.535 218.227C389.624 218.052 389.751 217.908 389.918 217.793C390.085 217.676 390.285 217.587 390.52 217.527C390.754 217.467 391.016 217.438 391.305 217.438H392.145ZM395.102 216.676V220H394.379V215.773H395.062L395.102 216.676ZM394.93 217.727L394.629 217.715C394.632 217.426 394.674 217.159 394.758 216.914C394.841 216.667 394.958 216.452 395.109 216.27C395.26 216.087 395.44 215.947 395.648 215.848C395.859 215.746 396.092 215.695 396.348 215.695C396.556 215.695 396.743 215.724 396.91 215.781C397.077 215.836 397.219 215.924 397.336 216.047C397.456 216.169 397.547 216.328 397.609 216.523C397.672 216.716 397.703 216.952 397.703 217.23V220H396.977V217.223C396.977 217.001 396.944 216.824 396.879 216.691C396.814 216.556 396.719 216.458 396.594 216.398C396.469 216.336 396.315 216.305 396.133 216.305C395.953 216.305 395.789 216.342 395.641 216.418C395.495 216.493 395.368 216.598 395.262 216.73C395.158 216.863 395.076 217.016 395.016 217.188C394.958 217.357 394.93 217.536 394.93 217.727Z" fill="black"/>
<path d="M36.2051 31.9814H32.7861V30.6016H36.2051C36.8672 30.6016 37.4033 30.4961 37.8135 30.2852C38.2236 30.0742 38.5225 29.7812 38.71 29.4062C38.9033 29.0312 39 28.6035 39 28.123C39 27.6836 38.9033 27.2705 38.71 26.8838C38.5225 26.4971 38.2236 26.1865 37.8135 25.9521C37.4033 25.7119 36.8672 25.5918 36.2051 25.5918H33.1816V37H31.4854V24.2031H36.2051C37.1719 24.2031 37.9893 24.3701 38.6572 24.7041C39.3252 25.0381 39.832 25.501 40.1777 26.0928C40.5234 26.6787 40.6963 27.3496 40.6963 28.1055C40.6963 28.9258 40.5234 29.626 40.1777 30.2061C39.832 30.7861 39.3252 31.2285 38.6572 31.5332C37.9893 31.832 37.1719 31.9814 36.2051 31.9814ZM44.2207 28.9844V37H42.5947V27.4902H44.1768L44.2207 28.9844ZM47.1914 27.4375L47.1826 28.9492C47.0479 28.9199 46.9189 28.9023 46.7959 28.8965C46.6787 28.8848 46.5439 28.8789 46.3916 28.8789C46.0166 28.8789 45.6855 28.9375 45.3984 29.0547C45.1113 29.1719 44.8682 29.3359 44.6689 29.5469C44.4697 29.7578 44.3115 30.0098 44.1943 30.3027C44.083 30.5898 44.0098 30.9062 43.9746 31.252L43.5176 31.5156C43.5176 30.9414 43.5732 30.4023 43.6846 29.8984C43.8018 29.3945 43.9805 28.9492 44.2207 28.5625C44.4609 28.1699 44.7656 27.8652 45.1348 27.6484C45.5098 27.4258 45.9551 27.3145 46.4707 27.3145C46.5879 27.3145 46.7227 27.3291 46.875 27.3584C47.0273 27.3818 47.1328 27.4082 47.1914 27.4375ZM48.0879 32.3506V32.1484C48.0879 31.4629 48.1875 30.8271 48.3867 30.2412C48.5859 29.6494 48.873 29.1367 49.248 28.7031C49.623 28.2637 50.0771 27.9238 50.6104 27.6836C51.1436 27.4375 51.7412 27.3145 52.4033 27.3145C53.0713 27.3145 53.6719 27.4375 54.2051 27.6836C54.7441 27.9238 55.2012 28.2637 55.5762 28.7031C55.957 29.1367 56.2471 29.6494 56.4463 30.2412C56.6455 30.8271 56.7451 31.4629 56.7451 32.1484V32.3506C56.7451 33.0361 56.6455 33.6719 56.4463 34.2578C56.2471 34.8438 55.957 35.3564 55.5762 35.7959C55.2012 36.2295 54.7471 36.5693 54.2139 36.8154C53.6865 37.0557 53.0889 37.1758 52.4209 37.1758C51.7529 37.1758 51.1523 37.0557 50.6191 36.8154C50.0859 36.5693 49.6289 36.2295 49.248 35.7959C48.873 35.3564 48.5859 34.8438 48.3867 34.2578C48.1875 33.6719 48.0879 33.0361 48.0879 32.3506ZM49.7139 32.1484V32.3506C49.7139 32.8252 49.7695 33.2734 49.8809 33.6953C49.9922 34.1113 50.1592 34.4805 50.3818 34.8027C50.6104 35.125 50.8945 35.3799 51.2344 35.5674C51.5742 35.749 51.9697 35.8398 52.4209 35.8398C52.8662 35.8398 53.2559 35.749 53.5898 35.5674C53.9297 35.3799 54.2109 35.125 54.4336 34.8027C54.6562 34.4805 54.8232 34.1113 54.9346 33.6953C55.0518 33.2734 55.1104 32.8252 55.1104 32.3506V32.1484C55.1104 31.6797 55.0518 31.2373 54.9346 30.8213C54.8232 30.3994 54.6533 30.0273 54.4248 29.7051C54.2021 29.377 53.9209 29.1191 53.5811 28.9316C53.2471 28.7441 52.8545 28.6504 52.4033 28.6504C51.958 28.6504 51.5654 28.7441 51.2256 28.9316C50.8916 29.1191 50.6104 29.377 50.3818 29.7051C50.1592 30.0273 49.9922 30.3994 49.8809 30.8213C49.7695 31.2373 49.7139 31.6797 49.7139 32.1484ZM58.8281 27.4902H60.4629V38.1338C60.4629 38.7139 60.3691 39.2061 60.1816 39.6104C60 40.0146 59.7246 40.3193 59.3555 40.5244C58.9922 40.7354 58.5322 40.8408 57.9756 40.8408C57.8291 40.8408 57.6592 40.8262 57.4658 40.7969C57.2666 40.7676 57.0996 40.7324 56.9648 40.6914L56.9736 39.3818C57.085 39.4053 57.2109 39.4229 57.3516 39.4346C57.4922 39.4521 57.6152 39.4609 57.7207 39.4609C57.9609 39.4609 58.1631 39.417 58.3271 39.3291C58.4912 39.2412 58.6143 39.1006 58.6963 38.9072C58.7842 38.7139 58.8281 38.4561 58.8281 38.1338V27.4902ZM58.6611 24.9678C58.6611 24.7041 58.7432 24.4814 58.9072 24.2998C59.0713 24.1182 59.3086 24.0273 59.6191 24.0273C59.9355 24.0273 60.1758 24.1182 60.3398 24.2998C60.5039 24.4814 60.5859 24.7041 60.5859 24.9678C60.5859 25.2197 60.5039 25.4365 60.3398 25.6182C60.1758 25.7939 59.9355 25.8818 59.6191 25.8818C59.3086 25.8818 59.0713 25.7939 58.9072 25.6182C58.7432 25.4365 58.6611 25.2197 58.6611 24.9678ZM67.0371 37.1758C66.375 37.1758 65.7744 37.0645 65.2354 36.8418C64.7021 36.6133 64.2422 36.2939 63.8555 35.8838C63.4746 35.4736 63.1816 34.9873 62.9766 34.4248C62.7715 33.8623 62.6689 33.2471 62.6689 32.5791V32.21C62.6689 31.4365 62.7832 30.748 63.0117 30.1445C63.2402 29.5352 63.5508 29.0195 63.9434 28.5977C64.3359 28.1758 64.7812 27.8564 65.2793 27.6396C65.7773 27.4229 66.293 27.3145 66.8262 27.3145C67.5059 27.3145 68.0918 27.4316 68.584 27.666C69.082 27.9004 69.4893 28.2285 69.8057 28.6504C70.1221 29.0664 70.3564 29.5586 70.5088 30.127C70.6611 30.6895 70.7373 31.3047 70.7373 31.9727V32.7021H63.6357V31.375H69.1113V31.252C69.0879 30.8301 69 30.4199 68.8477 30.0215C68.7012 29.623 68.4668 29.2949 68.1445 29.0371C67.8223 28.7793 67.3828 28.6504 66.8262 28.6504C66.457 28.6504 66.1172 28.7295 65.8066 28.8877C65.4961 29.04 65.2295 29.2686 65.0068 29.5732C64.7842 29.8779 64.6113 30.25 64.4883 30.6895C64.3652 31.1289 64.3037 31.6357 64.3037 32.21V32.5791C64.3037 33.0303 64.3652 33.4551 64.4883 33.8535C64.6172 34.2461 64.8018 34.5918 65.042 34.8906C65.2881 35.1895 65.584 35.4238 65.9297 35.5938C66.2812 35.7637 66.6797 35.8486 67.125 35.8486C67.6992 35.8486 68.1855 35.7314 68.584 35.4971C68.9824 35.2627 69.3311 34.9492 69.6299 34.5566L70.6143 35.3389C70.4092 35.6494 70.1484 35.9453 69.832 36.2266C69.5156 36.5078 69.126 36.7363 68.6631 36.9121C68.2061 37.0879 67.6641 37.1758 67.0371 37.1758ZM76.4414 35.8398C76.8281 35.8398 77.1855 35.7607 77.5137 35.6025C77.8418 35.4443 78.1113 35.2275 78.3223 34.9521C78.5332 34.6709 78.6533 34.3516 78.6826 33.9941H80.2295C80.2002 34.5566 80.0098 35.0811 79.6582 35.5674C79.3125 36.0479 78.8584 36.4375 78.2959 36.7363C77.7334 37.0293 77.1152 37.1758 76.4414 37.1758C75.7266 37.1758 75.1025 37.0498 74.5693 36.7979C74.042 36.5459 73.6025 36.2002 73.251 35.7607C72.9053 35.3213 72.6445 34.8174 72.4688 34.249C72.2988 33.6748 72.2139 33.0684 72.2139 32.4297V32.0605C72.2139 31.4219 72.2988 30.8184 72.4688 30.25C72.6445 29.6758 72.9053 29.1689 73.251 28.7295C73.6025 28.29 74.042 27.9443 74.5693 27.6924C75.1025 27.4404 75.7266 27.3145 76.4414 27.3145C77.1855 27.3145 77.8359 27.4668 78.3926 27.7715C78.9492 28.0703 79.3857 28.4805 79.7021 29.002C80.0244 29.5176 80.2002 30.1035 80.2295 30.7598H78.6826C78.6533 30.3672 78.542 30.0127 78.3486 29.6963C78.1611 29.3799 77.9033 29.1279 77.5752 28.9404C77.2529 28.7471 76.875 28.6504 76.4414 28.6504C75.9434 28.6504 75.5244 28.75 75.1846 28.9492C74.8506 29.1426 74.584 29.4062 74.3848 29.7402C74.1914 30.0684 74.0508 30.4346 73.9629 30.8389C73.8809 31.2373 73.8398 31.6445 73.8398 32.0605V32.4297C73.8398 32.8457 73.8809 33.2559 73.9629 33.6602C74.0449 34.0645 74.1826 34.4307 74.376 34.7588C74.5752 35.0869 74.8418 35.3506 75.1758 35.5498C75.5156 35.7432 75.9375 35.8398 76.4414 35.8398ZM86.0391 27.4902V28.7383H80.8975V27.4902H86.0391ZM82.6377 25.1787H84.2637V34.6445C84.2637 34.9668 84.3135 35.21 84.4131 35.374C84.5127 35.5381 84.6416 35.6465 84.7998 35.6992C84.958 35.752 85.1279 35.7783 85.3096 35.7783C85.4443 35.7783 85.585 35.7666 85.7314 35.7432C85.8838 35.7139 85.998 35.6904 86.0742 35.6729L86.083 37C85.9541 37.041 85.7842 37.0791 85.5732 37.1143C85.3682 37.1553 85.1191 37.1758 84.8262 37.1758C84.4277 37.1758 84.0615 37.0967 83.7275 36.9385C83.3936 36.7803 83.127 36.5166 82.9277 36.1475C82.7344 35.7725 82.6377 35.2686 82.6377 34.6357V25.1787ZM87.876 36.1387C87.876 35.8633 87.9609 35.6318 88.1309 35.4443C88.3066 35.251 88.5586 35.1543 88.8867 35.1543C89.2148 35.1543 89.4639 35.251 89.6338 35.4443C89.8096 35.6318 89.8975 35.8633 89.8975 36.1387C89.8975 36.4082 89.8096 36.6367 89.6338 36.8242C89.4639 37.0117 89.2148 37.1055 88.8867 37.1055C88.5586 37.1055 88.3066 37.0117 88.1309 36.8242C87.9609 36.6367 87.876 36.4082 87.876 36.1387ZM87.8848 28.3779C87.8848 28.1025 87.9697 27.8711 88.1396 27.6836C88.3154 27.4902 88.5674 27.3936 88.8955 27.3936C89.2236 27.3936 89.4727 27.4902 89.6426 27.6836C89.8184 27.8711 89.9062 28.1025 89.9062 28.3779C89.9062 28.6475 89.8184 28.876 89.6426 29.0635C89.4727 29.251 89.2236 29.3447 88.8955 29.3447C88.5674 29.3447 88.3154 29.251 88.1396 29.0635C87.9697 28.876 87.8848 28.6475 87.8848 28.3779Z" fill="black"/>
<path d="M34.9482 58H32.2764L32.2939 56.6201H34.9482C35.8623 56.6201 36.624 56.4297 37.2334 56.0488C37.8428 55.6621 38.2998 55.123 38.6045 54.4316C38.915 53.7344 39.0703 52.9199 39.0703 51.9883V51.2061C39.0703 50.4736 38.9824 49.8232 38.8066 49.2549C38.6309 48.6807 38.373 48.1973 38.0332 47.8047C37.6934 47.4062 37.2773 47.1045 36.7852 46.8994C36.2988 46.6943 35.7393 46.5918 35.1064 46.5918H32.2236V45.2031H35.1064C35.9443 45.2031 36.709 45.3438 37.4004 45.625C38.0918 45.9004 38.6865 46.3018 39.1846 46.8291C39.6885 47.3506 40.0752 47.9834 40.3447 48.7275C40.6143 49.4658 40.749 50.2979 40.749 51.2236V51.9883C40.749 52.9141 40.6143 53.749 40.3447 54.4932C40.0752 55.2314 39.6855 55.8613 39.1758 56.3828C38.6719 56.9043 38.0625 57.3057 37.3477 57.5869C36.6387 57.8623 35.8389 58 34.9482 58ZM33.1816 45.2031V58H31.4854V45.2031H33.1816ZM46.998 58.1758C46.3359 58.1758 45.7354 58.0645 45.1963 57.8418C44.6631 57.6133 44.2031 57.2939 43.8164 56.8838C43.4355 56.4736 43.1426 55.9873 42.9375 55.4248C42.7324 54.8623 42.6299 54.2471 42.6299 53.5791V53.21C42.6299 52.4365 42.7441 51.748 42.9727 51.1445C43.2012 50.5352 43.5117 50.0195 43.9043 49.5977C44.2969 49.1758 44.7422 48.8564 45.2402 48.6396C45.7383 48.4229 46.2539 48.3145 46.7871 48.3145C47.4668 48.3145 48.0527 48.4316 48.5449 48.666C49.043 48.9004 49.4502 49.2285 49.7666 49.6504C50.083 50.0664 50.3174 50.5586 50.4697 51.127C50.6221 51.6895 50.6982 52.3047 50.6982 52.9727V53.7021H43.5967V52.375H49.0723V52.252C49.0488 51.8301 48.9609 51.4199 48.8086 51.0215C48.6621 50.623 48.4277 50.2949 48.1055 50.0371C47.7832 49.7793 47.3438 49.6504 46.7871 49.6504C46.418 49.6504 46.0781 49.7295 45.7676 49.8877C45.457 50.04 45.1904 50.2686 44.9678 50.5732C44.7451 50.8779 44.5723 51.25 44.4492 51.6895C44.3262 52.1289 44.2646 52.6357 44.2646 53.21V53.5791C44.2646 54.0303 44.3262 54.4551 44.4492 54.8535C44.5781 55.2461 44.7627 55.5918 45.0029 55.8906C45.249 56.1895 45.5449 56.4238 45.8906 56.5938C46.2422 56.7637 46.6406 56.8486 47.0859 56.8486C47.6602 56.8486 48.1465 56.7314 48.5449 56.4971C48.9434 56.2627 49.292 55.9492 49.5908 55.5566L50.5752 56.3389C50.3701 56.6494 50.1094 56.9453 49.793 57.2266C49.4766 57.5078 49.0869 57.7363 48.624 57.9121C48.167 58.0879 47.625 58.1758 46.998 58.1758ZM58.1338 55.4775C58.1338 55.2432 58.0811 55.0264 57.9756 54.8271C57.876 54.6221 57.668 54.4375 57.3516 54.2734C57.041 54.1035 56.5723 53.957 55.9453 53.834C55.418 53.7227 54.9404 53.5908 54.5127 53.4385C54.0908 53.2861 53.7305 53.1016 53.4316 52.8848C53.1387 52.668 52.9131 52.4131 52.7549 52.1201C52.5967 51.8271 52.5176 51.4844 52.5176 51.0918C52.5176 50.7168 52.5996 50.3623 52.7637 50.0283C52.9336 49.6943 53.1709 49.3984 53.4756 49.1406C53.7861 48.8828 54.1582 48.6807 54.5918 48.5342C55.0254 48.3877 55.5088 48.3145 56.042 48.3145C56.8037 48.3145 57.4541 48.4492 57.9932 48.7188C58.5322 48.9883 58.9453 49.3486 59.2324 49.7998C59.5195 50.2451 59.6631 50.7402 59.6631 51.2852H58.0371C58.0371 51.0215 57.958 50.7666 57.7998 50.5205C57.6475 50.2686 57.4219 50.0605 57.123 49.8965C56.8301 49.7324 56.4697 49.6504 56.042 49.6504C55.5908 49.6504 55.2246 49.7207 54.9434 49.8613C54.668 49.9961 54.4658 50.1689 54.3369 50.3799C54.2139 50.5908 54.1523 50.8135 54.1523 51.0479C54.1523 51.2236 54.1816 51.3818 54.2402 51.5225C54.3047 51.6572 54.416 51.7832 54.5742 51.9004C54.7324 52.0117 54.9551 52.1172 55.2422 52.2168C55.5293 52.3164 55.8955 52.416 56.3408 52.5156C57.1201 52.6914 57.7617 52.9023 58.2656 53.1484C58.7695 53.3945 59.1445 53.6963 59.3906 54.0537C59.6367 54.4111 59.7598 54.8447 59.7598 55.3545C59.7598 55.7705 59.6719 56.1514 59.4961 56.4971C59.3262 56.8428 59.0771 57.1416 58.749 57.3936C58.4268 57.6396 58.04 57.833 57.5889 57.9736C57.1436 58.1084 56.6426 58.1758 56.0859 58.1758C55.248 58.1758 54.5391 58.0264 53.959 57.7275C53.3789 57.4287 52.9395 57.042 52.6406 56.5674C52.3418 56.0928 52.1924 55.5918 52.1924 55.0645H53.8271C53.8506 55.5098 53.9795 55.8643 54.2139 56.1279C54.4482 56.3857 54.7354 56.5703 55.0752 56.6816C55.415 56.7871 55.752 56.8398 56.0859 56.8398C56.5312 56.8398 56.9033 56.7812 57.2021 56.6641C57.5068 56.5469 57.7383 56.3857 57.8965 56.1807C58.0547 55.9756 58.1338 55.7412 58.1338 55.4775ZM63.6621 48.4902V58H62.0273V48.4902H63.6621ZM61.9043 45.9678C61.9043 45.7041 61.9834 45.4814 62.1416 45.2998C62.3057 45.1182 62.5459 45.0273 62.8623 45.0273C63.1729 45.0273 63.4102 45.1182 63.5742 45.2998C63.7441 45.4814 63.8291 45.7041 63.8291 45.9678C63.8291 46.2197 63.7441 46.4365 63.5742 46.6182C63.4102 46.7939 63.1729 46.8818 62.8623 46.8818C62.5459 46.8818 62.3057 46.7939 62.1416 46.6182C61.9834 46.4365 61.9043 46.2197 61.9043 45.9678ZM72.4336 48.4902H73.9102V57.7979C73.9102 58.6357 73.7402 59.3506 73.4004 59.9424C73.0605 60.5342 72.5859 60.9824 71.9766 61.2871C71.373 61.5977 70.6758 61.7529 69.8848 61.7529C69.5566 61.7529 69.1699 61.7002 68.7246 61.5947C68.2852 61.4951 67.8516 61.3223 67.4238 61.0762C67.002 60.8359 66.6475 60.5107 66.3604 60.1006L67.2129 59.1338C67.6113 59.6143 68.0273 59.9482 68.4609 60.1357C68.9004 60.3232 69.334 60.417 69.7617 60.417C70.2773 60.417 70.7227 60.3203 71.0977 60.127C71.4727 59.9336 71.7627 59.6465 71.9678 59.2656C72.1787 58.8906 72.2842 58.4277 72.2842 57.877V50.582L72.4336 48.4902ZM65.8857 53.3506V53.166C65.8857 52.4395 65.9707 51.7803 66.1406 51.1885C66.3164 50.5908 66.5654 50.0781 66.8877 49.6504C67.2158 49.2227 67.6113 48.8945 68.0742 48.666C68.5371 48.4316 69.0586 48.3145 69.6387 48.3145C70.2363 48.3145 70.7578 48.4199 71.2031 48.6309C71.6543 48.8359 72.0352 49.1377 72.3457 49.5361C72.6621 49.9287 72.9111 50.4033 73.0928 50.96C73.2744 51.5166 73.4004 52.1465 73.4707 52.8496V53.6582C73.4062 54.3555 73.2803 54.9824 73.0928 55.5391C72.9111 56.0957 72.6621 56.5703 72.3457 56.9629C72.0352 57.3555 71.6543 57.6572 71.2031 57.8682C70.752 58.0732 70.2246 58.1758 69.6211 58.1758C69.0527 58.1758 68.5371 58.0557 68.0742 57.8154C67.6172 57.5752 67.2246 57.2383 66.8965 56.8047C66.5684 56.3711 66.3164 55.8613 66.1406 55.2754C65.9707 54.6836 65.8857 54.042 65.8857 53.3506ZM67.5117 53.166V53.3506C67.5117 53.8252 67.5586 54.2705 67.6523 54.6865C67.752 55.1025 67.9014 55.4688 68.1006 55.7852C68.3057 56.1016 68.5664 56.3506 68.8828 56.5322C69.1992 56.708 69.5771 56.7959 70.0166 56.7959C70.5557 56.7959 71.001 56.6816 71.3525 56.4531C71.7041 56.2246 71.9824 55.9229 72.1875 55.5479C72.3984 55.1729 72.5625 54.7656 72.6797 54.3262V52.208C72.6152 51.8857 72.5156 51.5752 72.3809 51.2764C72.252 50.9717 72.082 50.7021 71.8711 50.4678C71.666 50.2275 71.4111 50.0371 71.1064 49.8965C70.8018 49.7559 70.4443 49.6855 70.0342 49.6855C69.5889 49.6855 69.2051 49.7793 68.8828 49.9668C68.5664 50.1484 68.3057 50.4004 68.1006 50.7227C67.9014 51.0391 67.752 51.4082 67.6523 51.8301C67.5586 52.2461 67.5117 52.6914 67.5117 53.166ZM78.0059 50.5205V58H76.3799V48.4902H77.918L78.0059 50.5205ZM77.6191 52.8848L76.9424 52.8584C76.9482 52.208 77.0449 51.6074 77.2324 51.0566C77.4199 50.5 77.6836 50.0166 78.0234 49.6064C78.3633 49.1963 78.7676 48.8799 79.2363 48.6572C79.7109 48.4287 80.2354 48.3145 80.8096 48.3145C81.2783 48.3145 81.7002 48.3789 82.0752 48.5078C82.4502 48.6309 82.7695 48.8301 83.0332 49.1055C83.3027 49.3809 83.5078 49.7383 83.6484 50.1777C83.7891 50.6113 83.8594 51.1416 83.8594 51.7686V58H82.2246V51.751C82.2246 51.2529 82.1514 50.8545 82.0049 50.5557C81.8584 50.251 81.6445 50.0312 81.3633 49.8965C81.082 49.7559 80.7363 49.6855 80.3262 49.6855C79.9219 49.6855 79.5527 49.7705 79.2188 49.9404C78.8906 50.1104 78.6064 50.3447 78.3662 50.6436C78.1318 50.9424 77.9473 51.2852 77.8125 51.6719C77.6836 52.0527 77.6191 52.457 77.6191 52.8848ZM93.1582 50.8984L95.0742 49.5361C95.4434 49.2842 95.7275 49.0322 95.9268 48.7803C96.1318 48.5225 96.2344 48.1709 96.2344 47.7256C96.2344 47.3799 96.0996 47.0664 95.8301 46.7852C95.5605 46.498 95.1797 46.3545 94.6875 46.3545C94.3477 46.3545 94.0605 46.4336 93.8262 46.5918C93.5918 46.75 93.416 46.9609 93.2988 47.2246C93.1816 47.4824 93.123 47.7666 93.123 48.0771C93.123 48.3408 93.1875 48.6133 93.3164 48.8945C93.4453 49.1758 93.624 49.4688 93.8525 49.7734C94.0811 50.0781 94.3418 50.4004 94.6348 50.7402L100.69 58H98.7393L93.7734 52.0586C93.334 51.543 92.9414 51.0713 92.5957 50.6436C92.25 50.21 91.9775 49.791 91.7783 49.3867C91.585 48.9824 91.4883 48.5635 91.4883 48.1299C91.4883 47.4619 91.6201 46.8994 91.8838 46.4424C92.1533 45.9795 92.5283 45.6279 93.0088 45.3877C93.4893 45.1475 94.0518 45.0273 94.6963 45.0273C95.3232 45.0273 95.8623 45.1533 96.3135 45.4053C96.7705 45.6514 97.1221 45.9795 97.3682 46.3896C97.6143 46.7939 97.7373 47.2393 97.7373 47.7256C97.7373 48.1357 97.6641 48.5049 97.5176 48.833C97.3711 49.1553 97.166 49.4512 96.9023 49.7207C96.6445 49.9902 96.3428 50.2539 95.9971 50.5117L93.457 52.4014C93.0352 52.7119 92.7275 53.0078 92.5342 53.2891C92.3408 53.5703 92.2148 53.8193 92.1562 54.0361C92.1035 54.2529 92.0771 54.4258 92.0771 54.5547C92.0771 54.9707 92.168 55.3516 92.3496 55.6973C92.5312 56.043 92.8066 56.3213 93.1758 56.5322C93.5508 56.7373 94.0195 56.8398 94.582 56.8398C95.0742 56.8398 95.5518 56.7285 96.0146 56.5059C96.4834 56.2773 96.9023 55.9551 97.2715 55.5391C97.6406 55.1172 97.9336 54.6162 98.1504 54.0361C98.373 53.4502 98.4844 52.8027 98.4844 52.0938H99.9434C99.9434 52.6738 99.8877 53.2217 99.7764 53.7373C99.665 54.2529 99.4922 54.7334 99.2578 55.1787C99.0293 55.6182 98.7363 56.0195 98.3789 56.3828C98.3262 56.4355 98.2852 56.4971 98.2559 56.5674C98.2266 56.6377 98.1855 56.6992 98.1328 56.752C97.6934 57.2266 97.1514 57.584 96.5068 57.8242C95.8682 58.0586 95.2266 58.1758 94.582 58.1758C93.7324 58.1758 92.9971 58.0205 92.376 57.71C91.7607 57.3994 91.2861 56.9717 90.9521 56.4268C90.6182 55.8818 90.4512 55.2578 90.4512 54.5547C90.4512 54.0156 90.5654 53.541 90.7939 53.1309C91.0283 52.7207 91.3477 52.3369 91.752 51.9795C92.1621 51.6221 92.6309 51.2617 93.1582 50.8984ZM110.165 58H107.493L107.511 56.6201H110.165C111.079 56.6201 111.841 56.4297 112.45 56.0488C113.06 55.6621 113.517 55.123 113.821 54.4316C114.132 53.7344 114.287 52.9199 114.287 51.9883V51.2061C114.287 50.4736 114.199 49.8232 114.023 49.2549C113.848 48.6807 113.59 48.1973 113.25 47.8047C112.91 47.4062 112.494 47.1045 112.002 46.8994C111.516 46.6943 110.956 46.5918 110.323 46.5918H107.44V45.2031H110.323C111.161 45.2031 111.926 45.3438 112.617 45.625C113.309 45.9004 113.903 46.3018 114.401 46.8291C114.905 47.3506 115.292 47.9834 115.562 48.7275C115.831 49.4658 115.966 50.2979 115.966 51.2236V51.9883C115.966 52.9141 115.831 53.749 115.562 54.4932C115.292 55.2314 114.902 55.8613 114.393 56.3828C113.889 56.9043 113.279 57.3057 112.564 57.5869C111.855 57.8623 111.056 58 110.165 58ZM108.398 45.2031V58H106.702V45.2031H108.398ZM122.215 58.1758C121.553 58.1758 120.952 58.0645 120.413 57.8418C119.88 57.6133 119.42 57.2939 119.033 56.8838C118.652 56.4736 118.359 55.9873 118.154 55.4248C117.949 54.8623 117.847 54.2471 117.847 53.5791V53.21C117.847 52.4365 117.961 51.748 118.189 51.1445C118.418 50.5352 118.729 50.0195 119.121 49.5977C119.514 49.1758 119.959 48.8564 120.457 48.6396C120.955 48.4229 121.471 48.3145 122.004 48.3145C122.684 48.3145 123.27 48.4316 123.762 48.666C124.26 48.9004 124.667 49.2285 124.983 49.6504C125.3 50.0664 125.534 50.5586 125.687 51.127C125.839 51.6895 125.915 52.3047 125.915 52.9727V53.7021H118.813V52.375H124.289V52.252C124.266 51.8301 124.178 51.4199 124.025 51.0215C123.879 50.623 123.645 50.2949 123.322 50.0371C123 49.7793 122.561 49.6504 122.004 49.6504C121.635 49.6504 121.295 49.7295 120.984 49.8877C120.674 50.04 120.407 50.2686 120.185 50.5732C119.962 50.8779 119.789 51.25 119.666 51.6895C119.543 52.1289 119.481 52.6357 119.481 53.21V53.5791C119.481 54.0303 119.543 54.4551 119.666 54.8535C119.795 55.2461 119.979 55.5918 120.22 55.8906C120.466 56.1895 120.762 56.4238 121.107 56.5938C121.459 56.7637 121.857 56.8486 122.303 56.8486C122.877 56.8486 123.363 56.7314 123.762 56.4971C124.16 56.2627 124.509 55.9492 124.808 55.5566L125.792 56.3389C125.587 56.6494 125.326 56.9453 125.01 57.2266C124.693 57.5078 124.304 57.7363 123.841 57.9121C123.384 58.0879 122.842 58.1758 122.215 58.1758ZM130.582 56.5322L133.184 48.4902H134.845L131.426 58H130.336L130.582 56.5322ZM128.411 48.4902L131.092 56.5762L131.276 58H130.187L126.741 48.4902H128.411ZM140.232 58.1758C139.57 58.1758 138.97 58.0645 138.431 57.8418C137.897 57.6133 137.438 57.2939 137.051 56.8838C136.67 56.4736 136.377 55.9873 136.172 55.4248C135.967 54.8623 135.864 54.2471 135.864 53.5791V53.21C135.864 52.4365 135.979 51.748 136.207 51.1445C136.436 50.5352 136.746 50.0195 137.139 49.5977C137.531 49.1758 137.977 48.8564 138.475 48.6396C138.973 48.4229 139.488 48.3145 140.021 48.3145C140.701 48.3145 141.287 48.4316 141.779 48.666C142.277 48.9004 142.685 49.2285 143.001 49.6504C143.317 50.0664 143.552 50.5586 143.704 51.127C143.856 51.6895 143.933 52.3047 143.933 52.9727V53.7021H136.831V52.375H142.307V52.252C142.283 51.8301 142.195 51.4199 142.043 51.0215C141.896 50.623 141.662 50.2949 141.34 50.0371C141.018 49.7793 140.578 49.6504 140.021 49.6504C139.652 49.6504 139.312 49.7295 139.002 49.8877C138.691 50.04 138.425 50.2686 138.202 50.5732C137.979 50.8779 137.807 51.25 137.684 51.6895C137.561 52.1289 137.499 52.6357 137.499 53.21V53.5791C137.499 54.0303 137.561 54.4551 137.684 54.8535C137.812 55.2461 137.997 55.5918 138.237 55.8906C138.483 56.1895 138.779 56.4238 139.125 56.5938C139.477 56.7637 139.875 56.8486 140.32 56.8486C140.895 56.8486 141.381 56.7314 141.779 56.4971C142.178 56.2627 142.526 55.9492 142.825 55.5566L143.81 56.3389C143.604 56.6494 143.344 56.9453 143.027 57.2266C142.711 57.5078 142.321 57.7363 141.858 57.9121C141.401 58.0879 140.859 58.1758 140.232 58.1758ZM147.598 44.5V58H145.963V44.5H147.598ZM149.777 53.3506V53.1484C149.777 52.4629 149.877 51.8271 150.076 51.2412C150.275 50.6494 150.562 50.1367 150.938 49.7031C151.312 49.2637 151.767 48.9238 152.3 48.6836C152.833 48.4375 153.431 48.3145 154.093 48.3145C154.761 48.3145 155.361 48.4375 155.895 48.6836C156.434 48.9238 156.891 49.2637 157.266 49.7031C157.646 50.1367 157.937 50.6494 158.136 51.2412C158.335 51.8271 158.435 52.4629 158.435 53.1484V53.3506C158.435 54.0361 158.335 54.6719 158.136 55.2578C157.937 55.8438 157.646 56.3564 157.266 56.7959C156.891 57.2295 156.437 57.5693 155.903 57.8154C155.376 58.0557 154.778 58.1758 154.11 58.1758C153.442 58.1758 152.842 58.0557 152.309 57.8154C151.775 57.5693 151.318 57.2295 150.938 56.7959C150.562 56.3564 150.275 55.8438 150.076 55.2578C149.877 54.6719 149.777 54.0361 149.777 53.3506ZM151.403 53.1484V53.3506C151.403 53.8252 151.459 54.2734 151.57 54.6953C151.682 55.1113 151.849 55.4805 152.071 55.8027C152.3 56.125 152.584 56.3799 152.924 56.5674C153.264 56.749 153.659 56.8398 154.11 56.8398C154.556 56.8398 154.945 56.749 155.279 56.5674C155.619 56.3799 155.9 56.125 156.123 55.8027C156.346 55.4805 156.513 55.1113 156.624 54.6953C156.741 54.2734 156.8 53.8252 156.8 53.3506V53.1484C156.8 52.6797 156.741 52.2373 156.624 51.8213C156.513 51.3994 156.343 51.0273 156.114 50.7051C155.892 50.377 155.61 50.1191 155.271 49.9316C154.937 49.7441 154.544 49.6504 154.093 49.6504C153.647 49.6504 153.255 49.7441 152.915 49.9316C152.581 50.1191 152.3 50.377 152.071 50.7051C151.849 51.0273 151.682 51.3994 151.57 51.8213C151.459 52.2373 151.403 52.6797 151.403 53.1484ZM162.1 50.3184V61.6562H160.465V48.4902H161.959L162.1 50.3184ZM168.507 53.166V53.3506C168.507 54.042 168.425 54.6836 168.261 55.2754C168.097 55.8613 167.856 56.3711 167.54 56.8047C167.229 57.2383 166.846 57.5752 166.389 57.8154C165.932 58.0557 165.407 58.1758 164.815 58.1758C164.212 58.1758 163.679 58.0762 163.216 57.877C162.753 57.6777 162.36 57.3877 162.038 57.0068C161.716 56.626 161.458 56.1689 161.265 55.6357C161.077 55.1025 160.948 54.502 160.878 53.834V52.8496C160.948 52.1465 161.08 51.5166 161.273 50.96C161.467 50.4033 161.722 49.9287 162.038 49.5361C162.36 49.1377 162.75 48.8359 163.207 48.6309C163.664 48.4199 164.191 48.3145 164.789 48.3145C165.387 48.3145 165.917 48.4316 166.38 48.666C166.843 48.8945 167.232 49.2227 167.549 49.6504C167.865 50.0781 168.103 50.5908 168.261 51.1885C168.425 51.7803 168.507 52.4395 168.507 53.166ZM166.872 53.3506V53.166C166.872 52.6914 166.822 52.2461 166.723 51.8301C166.623 51.4082 166.468 51.0391 166.257 50.7227C166.052 50.4004 165.788 50.1484 165.466 49.9668C165.144 49.7793 164.76 49.6855 164.314 49.6855C163.904 49.6855 163.547 49.7559 163.242 49.8965C162.943 50.0371 162.688 50.2275 162.478 50.4678C162.267 50.7021 162.094 50.9717 161.959 51.2764C161.83 51.5752 161.733 51.8857 161.669 52.208V54.4844C161.786 54.8945 161.95 55.2812 162.161 55.6445C162.372 56.002 162.653 56.292 163.005 56.5146C163.356 56.7314 163.799 56.8398 164.332 56.8398C164.771 56.8398 165.149 56.749 165.466 56.5674C165.788 56.3799 166.052 56.125 166.257 55.8027C166.468 55.4805 166.623 55.1113 166.723 54.6953C166.822 54.2734 166.872 53.8252 166.872 53.3506ZM172.198 50.3799V58H170.563V48.4902H172.11L172.198 50.3799ZM171.864 52.8848L171.108 52.8584C171.114 52.208 171.199 51.6074 171.363 51.0566C171.527 50.5 171.771 50.0166 172.093 49.6064C172.415 49.1963 172.816 48.8799 173.297 48.6572C173.777 48.4287 174.334 48.3145 174.967 48.3145C175.412 48.3145 175.822 48.3789 176.197 48.5078C176.572 48.6309 176.897 48.8271 177.173 49.0967C177.448 49.3662 177.662 49.7119 177.814 50.1338C177.967 50.5557 178.043 51.0654 178.043 51.6631V58H176.417V51.7422C176.417 51.2441 176.332 50.8457 176.162 50.5469C175.998 50.248 175.764 50.0312 175.459 49.8965C175.154 49.7559 174.797 49.6855 174.387 49.6855C173.906 49.6855 173.505 49.7705 173.183 49.9404C172.86 50.1104 172.603 50.3447 172.409 50.6436C172.216 50.9424 172.075 51.2852 171.987 51.6719C171.905 52.0527 171.864 52.457 171.864 52.8848ZM178.025 51.9883L176.936 52.3223C176.941 51.8008 177.026 51.2998 177.19 50.8193C177.36 50.3389 177.604 49.9111 177.92 49.5361C178.242 49.1611 178.638 48.8652 179.106 48.6484C179.575 48.4258 180.111 48.3145 180.715 48.3145C181.225 48.3145 181.676 48.3818 182.068 48.5166C182.467 48.6514 182.801 48.8594 183.07 49.1406C183.346 49.416 183.554 49.7705 183.694 50.2041C183.835 50.6377 183.905 51.1533 183.905 51.751V58H182.271V51.7334C182.271 51.2002 182.186 50.7871 182.016 50.4941C181.852 50.1953 181.617 49.9873 181.312 49.8701C181.014 49.7471 180.656 49.6855 180.24 49.6855C179.883 49.6855 179.566 49.7471 179.291 49.8701C179.016 49.9932 178.784 50.1631 178.597 50.3799C178.409 50.5908 178.266 50.834 178.166 51.1094C178.072 51.3848 178.025 51.6777 178.025 51.9883ZM190.312 58.1758C189.65 58.1758 189.05 58.0645 188.511 57.8418C187.978 57.6133 187.518 57.2939 187.131 56.8838C186.75 56.4736 186.457 55.9873 186.252 55.4248C186.047 54.8623 185.944 54.2471 185.944 53.5791V53.21C185.944 52.4365 186.059 51.748 186.287 51.1445C186.516 50.5352 186.826 50.0195 187.219 49.5977C187.611 49.1758 188.057 48.8564 188.555 48.6396C189.053 48.4229 189.568 48.3145 190.102 48.3145C190.781 48.3145 191.367 48.4316 191.859 48.666C192.357 48.9004 192.765 49.2285 193.081 49.6504C193.397 50.0664 193.632 50.5586 193.784 51.127C193.937 51.6895 194.013 52.3047 194.013 52.9727V53.7021H186.911V52.375H192.387V52.252C192.363 51.8301 192.275 51.4199 192.123 51.0215C191.977 50.623 191.742 50.2949 191.42 50.0371C191.098 49.7793 190.658 49.6504 190.102 49.6504C189.732 49.6504 189.393 49.7295 189.082 49.8877C188.771 50.04 188.505 50.2686 188.282 50.5732C188.06 50.8779 187.887 51.25 187.764 51.6895C187.641 52.1289 187.579 52.6357 187.579 53.21V53.5791C187.579 54.0303 187.641 54.4551 187.764 54.8535C187.893 55.2461 188.077 55.5918 188.317 55.8906C188.563 56.1895 188.859 56.4238 189.205 56.5938C189.557 56.7637 189.955 56.8486 190.4 56.8486C190.975 56.8486 191.461 56.7314 191.859 56.4971C192.258 56.2627 192.606 55.9492 192.905 55.5566L193.89 56.3389C193.685 56.6494 193.424 56.9453 193.107 57.2266C192.791 57.5078 192.401 57.7363 191.938 57.9121C191.481 58.0879 190.939 58.1758 190.312 58.1758ZM197.537 50.5205V58H195.911V48.4902H197.449L197.537 50.5205ZM197.15 52.8848L196.474 52.8584C196.479 52.208 196.576 51.6074 196.764 51.0566C196.951 50.5 197.215 50.0166 197.555 49.6064C197.895 49.1963 198.299 48.8799 198.768 48.6572C199.242 48.4287 199.767 48.3145 200.341 48.3145C200.81 48.3145 201.231 48.3789 201.606 48.5078C201.981 48.6309 202.301 48.8301 202.564 49.1055C202.834 49.3809 203.039 49.7383 203.18 50.1777C203.32 50.6113 203.391 51.1416 203.391 51.7686V58H201.756V51.751C201.756 51.2529 201.683 50.8545 201.536 50.5557C201.39 50.251 201.176 50.0312 200.895 49.8965C200.613 49.7559 200.268 49.6855 199.857 49.6855C199.453 49.6855 199.084 49.7705 198.75 49.9404C198.422 50.1104 198.138 50.3447 197.897 50.6436C197.663 50.9424 197.479 51.2852 197.344 51.6719C197.215 52.0527 197.15 52.457 197.15 52.8848ZM209.842 48.4902V49.7383H204.7V48.4902H209.842ZM206.44 46.1787H208.066V55.6445C208.066 55.9668 208.116 56.21 208.216 56.374C208.315 56.5381 208.444 56.6465 208.603 56.6992C208.761 56.752 208.931 56.7783 209.112 56.7783C209.247 56.7783 209.388 56.7666 209.534 56.7432C209.687 56.7139 209.801 56.6904 209.877 56.6729L209.886 58C209.757 58.041 209.587 58.0791 209.376 58.1143C209.171 58.1553 208.922 58.1758 208.629 58.1758C208.23 58.1758 207.864 58.0967 207.53 57.9385C207.196 57.7803 206.93 57.5166 206.73 57.1475C206.537 56.7725 206.44 56.2686 206.44 55.6357V46.1787Z" fill="black" fill-opacity="0.3"/>
<path d="M277.299 30.1094V31H271.715V30.2207L274.51 27.1094C274.854 26.7266 275.119 26.4023 275.307 26.1367C275.498 25.8672 275.631 25.627 275.705 25.416C275.783 25.2012 275.822 24.9824 275.822 24.7598C275.822 24.4785 275.764 24.2246 275.646 23.998C275.533 23.7676 275.365 23.584 275.143 23.4473C274.92 23.3105 274.65 23.2422 274.334 23.2422C273.955 23.2422 273.639 23.3164 273.385 23.4648C273.135 23.6094 272.947 23.8125 272.822 24.0742C272.697 24.3359 272.635 24.6367 272.635 24.9766H271.551C271.551 24.4961 271.656 24.0566 271.867 23.6582C272.078 23.2598 272.391 22.9434 272.805 22.709C273.219 22.4707 273.729 22.3516 274.334 22.3516C274.873 22.3516 275.334 22.4473 275.717 22.6387C276.1 22.8262 276.393 23.0918 276.596 23.4355C276.803 23.7754 276.906 24.1738 276.906 24.6309C276.906 24.8809 276.863 25.1348 276.777 25.3926C276.695 25.6465 276.58 25.9004 276.432 26.1543C276.287 26.4082 276.117 26.6582 275.922 26.9043C275.73 27.1504 275.525 27.3926 275.307 27.6309L273.021 30.1094H277.299ZM283.814 26.0547V27.3555C283.814 28.0547 283.752 28.6445 283.627 29.125C283.502 29.6055 283.322 29.9922 283.088 30.2852C282.854 30.5781 282.57 30.791 282.238 30.9238C281.91 31.0527 281.539 31.1172 281.125 31.1172C280.797 31.1172 280.494 31.0762 280.217 30.9941C279.939 30.9121 279.689 30.7812 279.467 30.6016C279.248 30.418 279.061 30.1797 278.904 29.8867C278.748 29.5938 278.629 29.2383 278.547 28.8203C278.465 28.4023 278.424 27.9141 278.424 27.3555V26.0547C278.424 25.3555 278.486 24.7695 278.611 24.2969C278.74 23.8242 278.922 23.4453 279.156 23.1602C279.391 22.8711 279.672 22.6641 280 22.5391C280.332 22.4141 280.703 22.3516 281.113 22.3516C281.445 22.3516 281.75 22.3926 282.027 22.4746C282.309 22.5527 282.559 22.6797 282.777 22.8555C282.996 23.0273 283.182 23.2578 283.334 23.5469C283.49 23.832 283.609 24.1816 283.691 24.5957C283.773 25.0098 283.814 25.4961 283.814 26.0547ZM282.725 27.5312V25.873C282.725 25.4902 282.701 25.1543 282.654 24.8652C282.611 24.5723 282.547 24.3223 282.461 24.1152C282.375 23.9082 282.266 23.7402 282.133 23.6113C282.004 23.4824 281.854 23.3887 281.682 23.3301C281.514 23.2676 281.324 23.2363 281.113 23.2363C280.855 23.2363 280.627 23.2852 280.428 23.3828C280.229 23.4766 280.061 23.627 279.924 23.834C279.791 24.041 279.689 24.3125 279.619 24.6484C279.549 24.9844 279.514 25.3926 279.514 25.873V27.5312C279.514 27.9141 279.535 28.252 279.578 28.5449C279.625 28.8379 279.693 29.0918 279.783 29.3066C279.873 29.5176 279.982 29.6914 280.111 29.8281C280.24 29.9648 280.389 30.0664 280.557 30.1328C280.729 30.1953 280.918 30.2266 281.125 30.2266C281.391 30.2266 281.623 30.1758 281.822 30.0742C282.021 29.9727 282.188 29.8145 282.32 29.5996C282.457 29.3809 282.559 29.1016 282.625 28.7617C282.691 28.418 282.725 28.0078 282.725 27.5312ZM292.047 28.5098V22.4688H293.172V28.5098C293.172 29.0723 293.057 29.5469 292.826 29.9336C292.596 30.3203 292.277 30.6152 291.871 30.8184C291.469 31.0176 291.006 31.1172 290.482 31.1172C289.959 31.1172 289.494 31.0273 289.088 30.8477C288.682 30.668 288.363 30.3945 288.133 30.0273C287.902 29.6602 287.787 29.1973 287.787 28.6387H288.918C288.918 28.998 288.984 29.293 289.117 29.5234C289.25 29.7539 289.434 29.9238 289.668 30.0332C289.906 30.1426 290.178 30.1973 290.482 30.1973C290.779 30.1973 291.045 30.1348 291.279 30.0098C291.518 29.8809 291.705 29.6914 291.842 29.4414C291.979 29.1875 292.047 28.877 292.047 28.5098ZM298.803 29.5352V24.6602H299.893V31H298.855L298.803 29.5352ZM299.008 28.1992L299.459 28.1875C299.459 28.6094 299.414 29 299.324 29.3594C299.238 29.7148 299.098 30.0234 298.902 30.2852C298.707 30.5469 298.451 30.752 298.135 30.9004C297.818 31.0449 297.434 31.1172 296.98 31.1172C296.672 31.1172 296.389 31.0723 296.131 30.9824C295.877 30.8926 295.658 30.7539 295.475 30.5664C295.291 30.3789 295.148 30.1348 295.047 29.834C294.949 29.5332 294.9 29.1719 294.9 28.75V24.6602H295.984V28.7617C295.984 29.0469 296.016 29.2832 296.078 29.4707C296.145 29.6543 296.232 29.8008 296.342 29.9102C296.455 30.0156 296.58 30.0898 296.717 30.1328C296.857 30.1758 297.002 30.1973 297.15 30.1973C297.611 30.1973 297.977 30.1094 298.246 29.9336C298.516 29.7539 298.709 29.5137 298.826 29.2129C298.947 28.9082 299.008 28.5703 299.008 28.1992ZM302.629 26.0137V31H301.545V24.6602H302.57L302.629 26.0137ZM302.371 27.5898L301.92 27.5723C301.924 27.1387 301.988 26.7383 302.113 26.3711C302.238 26 302.414 25.6777 302.641 25.4043C302.867 25.1309 303.137 24.9199 303.449 24.7715C303.766 24.6191 304.115 24.543 304.498 24.543C304.811 24.543 305.092 24.5859 305.342 24.6719C305.592 24.7539 305.805 24.8867 305.98 25.0703C306.16 25.2539 306.297 25.4922 306.391 25.7852C306.484 26.0742 306.531 26.4277 306.531 26.8457V31H305.441V26.834C305.441 26.502 305.393 26.2363 305.295 26.0371C305.197 25.834 305.055 25.6875 304.867 25.5977C304.68 25.5039 304.449 25.457 304.176 25.457C303.906 25.457 303.66 25.5137 303.438 25.627C303.219 25.7402 303.029 25.8965 302.869 26.0957C302.713 26.2949 302.59 26.5234 302.5 26.7812C302.414 27.0352 302.371 27.3047 302.371 27.5898ZM310.809 31.1172C310.367 31.1172 309.967 31.043 309.607 30.8945C309.252 30.7422 308.945 30.5293 308.688 30.2559C308.434 29.9824 308.238 29.6582 308.102 29.2832C307.965 28.9082 307.896 28.498 307.896 28.0527V27.8066C307.896 27.291 307.973 26.832 308.125 26.4297C308.277 26.0234 308.484 25.6797 308.746 25.3984C309.008 25.1172 309.305 24.9043 309.637 24.7598C309.969 24.6152 310.312 24.543 310.668 24.543C311.121 24.543 311.512 24.6211 311.84 24.7773C312.172 24.9336 312.443 25.1523 312.654 25.4336C312.865 25.7109 313.021 26.0391 313.123 26.418C313.225 26.793 313.275 27.2031 313.275 27.6484V28.1348H308.541V27.25H312.191V27.168C312.176 26.8867 312.117 26.6133 312.016 26.3477C311.918 26.082 311.762 25.8633 311.547 25.6914C311.332 25.5195 311.039 25.4336 310.668 25.4336C310.422 25.4336 310.195 25.4863 309.988 25.5918C309.781 25.6934 309.604 25.8457 309.455 26.0488C309.307 26.252 309.191 26.5 309.109 26.793C309.027 27.0859 308.986 27.4238 308.986 27.8066V28.0527C308.986 28.3535 309.027 28.6367 309.109 28.9023C309.195 29.1641 309.318 29.3945 309.479 29.5938C309.643 29.793 309.84 29.9492 310.07 30.0625C310.305 30.1758 310.57 30.2324 310.867 30.2324C311.25 30.2324 311.574 30.1543 311.84 29.998C312.105 29.8418 312.338 29.6328 312.537 29.3711L313.193 29.8926C313.057 30.0996 312.883 30.2969 312.672 30.4844C312.461 30.6719 312.201 30.8242 311.893 30.9414C311.588 31.0586 311.227 31.1172 310.809 31.1172ZM322.99 30.1094V31H317.406V30.2207L320.201 27.1094C320.545 26.7266 320.811 26.4023 320.998 26.1367C321.189 25.8672 321.322 25.627 321.396 25.416C321.475 25.2012 321.514 24.9824 321.514 24.7598C321.514 24.4785 321.455 24.2246 321.338 23.998C321.225 23.7676 321.057 23.584 320.834 23.4473C320.611 23.3105 320.342 23.2422 320.025 23.2422C319.646 23.2422 319.33 23.3164 319.076 23.4648C318.826 23.6094 318.639 23.8125 318.514 24.0742C318.389 24.3359 318.326 24.6367 318.326 24.9766H317.242C317.242 24.4961 317.348 24.0566 317.559 23.6582C317.77 23.2598 318.082 22.9434 318.496 22.709C318.91 22.4707 319.42 22.3516 320.025 22.3516C320.564 22.3516 321.025 22.4473 321.408 22.6387C321.791 22.8262 322.084 23.0918 322.287 23.4355C322.494 23.7754 322.598 24.1738 322.598 24.6309C322.598 24.8809 322.555 25.1348 322.469 25.3926C322.387 25.6465 322.271 25.9004 322.123 26.1543C321.979 26.4082 321.809 26.6582 321.613 26.9043C321.422 27.1504 321.217 27.3926 320.998 27.6309L318.713 30.1094H322.99ZM329.506 26.0547V27.3555C329.506 28.0547 329.443 28.6445 329.318 29.125C329.193 29.6055 329.014 29.9922 328.779 30.2852C328.545 30.5781 328.262 30.791 327.93 30.9238C327.602 31.0527 327.23 31.1172 326.816 31.1172C326.488 31.1172 326.186 31.0762 325.908 30.9941C325.631 30.9121 325.381 30.7812 325.158 30.6016C324.939 30.418 324.752 30.1797 324.596 29.8867C324.439 29.5938 324.32 29.2383 324.238 28.8203C324.156 28.4023 324.115 27.9141 324.115 27.3555V26.0547C324.115 25.3555 324.178 24.7695 324.303 24.2969C324.432 23.8242 324.613 23.4453 324.848 23.1602C325.082 22.8711 325.363 22.6641 325.691 22.5391C326.023 22.4141 326.395 22.3516 326.805 22.3516C327.137 22.3516 327.441 22.3926 327.719 22.4746C328 22.5527 328.25 22.6797 328.469 22.8555C328.688 23.0273 328.873 23.2578 329.025 23.5469C329.182 23.832 329.301 24.1816 329.383 24.5957C329.465 25.0098 329.506 25.4961 329.506 26.0547ZM328.416 27.5312V25.873C328.416 25.4902 328.393 25.1543 328.346 24.8652C328.303 24.5723 328.238 24.3223 328.152 24.1152C328.066 23.9082 327.957 23.7402 327.824 23.6113C327.695 23.4824 327.545 23.3887 327.373 23.3301C327.205 23.2676 327.016 23.2363 326.805 23.2363C326.547 23.2363 326.318 23.2852 326.119 23.3828C325.92 23.4766 325.752 23.627 325.615 23.834C325.482 24.041 325.381 24.3125 325.311 24.6484C325.24 24.9844 325.205 25.3926 325.205 25.873V27.5312C325.205 27.9141 325.227 28.252 325.27 28.5449C325.316 28.8379 325.385 29.0918 325.475 29.3066C325.564 29.5176 325.674 29.6914 325.803 29.8281C325.932 29.9648 326.08 30.0664 326.248 30.1328C326.42 30.1953 326.609 30.2266 326.816 30.2266C327.082 30.2266 327.314 30.1758 327.514 30.0742C327.713 29.9727 327.879 29.8145 328.012 29.5996C328.148 29.3809 328.25 29.1016 328.316 28.7617C328.383 28.418 328.416 28.0078 328.416 27.5312ZM336.49 30.1094V31H330.906V30.2207L333.701 27.1094C334.045 26.7266 334.311 26.4023 334.498 26.1367C334.689 25.8672 334.822 25.627 334.896 25.416C334.975 25.2012 335.014 24.9824 335.014 24.7598C335.014 24.4785 334.955 24.2246 334.838 23.998C334.725 23.7676 334.557 23.584 334.334 23.4473C334.111 23.3105 333.842 23.2422 333.525 23.2422C333.146 23.2422 332.83 23.3164 332.576 23.4648C332.326 23.6094 332.139 23.8125 332.014 24.0742C331.889 24.3359 331.826 24.6367 331.826 24.9766H330.742C330.742 24.4961 330.848 24.0566 331.059 23.6582C331.27 23.2598 331.582 22.9434 331.996 22.709C332.41 22.4707 332.92 22.3516 333.525 22.3516C334.064 22.3516 334.525 22.4473 334.908 22.6387C335.291 22.8262 335.584 23.0918 335.787 23.4355C335.994 23.7754 336.098 24.1738 336.098 24.6309C336.098 24.8809 336.055 25.1348 335.969 25.3926C335.887 25.6465 335.771 25.9004 335.623 26.1543C335.479 26.4082 335.309 26.6582 335.113 26.9043C334.922 27.1504 334.717 27.3926 334.498 27.6309L332.213 30.1094H336.49ZM339.232 26.2012H340.006C340.385 26.2012 340.697 26.1387 340.943 26.0137C341.193 25.8848 341.379 25.7109 341.5 25.4922C341.625 25.2695 341.688 25.0195 341.688 24.7422C341.688 24.4141 341.633 24.1387 341.523 23.916C341.414 23.6934 341.25 23.5254 341.031 23.4121C340.812 23.2988 340.535 23.2422 340.199 23.2422C339.895 23.2422 339.625 23.3027 339.391 23.4238C339.16 23.541 338.979 23.709 338.846 23.9277C338.717 24.1465 338.652 24.4043 338.652 24.7012H337.568C337.568 24.2676 337.678 23.873 337.896 23.5176C338.115 23.1621 338.422 22.8789 338.816 22.668C339.215 22.457 339.676 22.3516 340.199 22.3516C340.715 22.3516 341.166 22.4434 341.553 22.627C341.939 22.8066 342.24 23.0762 342.455 23.4355C342.67 23.791 342.777 24.2344 342.777 24.7656C342.777 24.9805 342.727 25.2109 342.625 25.457C342.527 25.6992 342.373 25.9258 342.162 26.1367C341.955 26.3477 341.686 26.5215 341.354 26.6582C341.021 26.791 340.623 26.8574 340.158 26.8574H339.232V26.2012ZM339.232 27.0918V26.4414H340.158C340.701 26.4414 341.15 26.5059 341.506 26.6348C341.861 26.7637 342.141 26.9355 342.344 27.1504C342.551 27.3652 342.695 27.6016 342.777 27.8594C342.863 28.1133 342.906 28.3672 342.906 28.6211C342.906 29.0195 342.838 29.373 342.701 29.6816C342.568 29.9902 342.379 30.252 342.133 30.4668C341.891 30.6816 341.605 30.8438 341.277 30.9531C340.949 31.0625 340.592 31.1172 340.205 31.1172C339.834 31.1172 339.484 31.0645 339.156 30.959C338.832 30.8535 338.545 30.7012 338.295 30.502C338.045 30.2988 337.85 30.0508 337.709 29.7578C337.568 29.4609 337.498 29.123 337.498 28.7441H338.582C338.582 29.041 338.646 29.3008 338.775 29.5234C338.908 29.7461 339.096 29.9199 339.338 30.0449C339.584 30.166 339.873 30.2266 340.205 30.2266C340.537 30.2266 340.822 30.1699 341.061 30.0566C341.303 29.9395 341.488 29.7637 341.617 29.5293C341.75 29.2949 341.816 29 341.816 28.6445C341.816 28.2891 341.742 27.998 341.594 27.7715C341.445 27.541 341.234 27.3711 340.961 27.2617C340.691 27.1484 340.373 27.0918 340.006 27.0918H339.232ZM355.943 30.1094V31H350.359V30.2207L353.154 27.1094C353.498 26.7266 353.764 26.4023 353.951 26.1367C354.143 25.8672 354.275 25.627 354.35 25.416C354.428 25.2012 354.467 24.9824 354.467 24.7598C354.467 24.4785 354.408 24.2246 354.291 23.998C354.178 23.7676 354.01 23.584 353.787 23.4473C353.564 23.3105 353.295 23.2422 352.979 23.2422C352.6 23.2422 352.283 23.3164 352.029 23.4648C351.779 23.6094 351.592 23.8125 351.467 24.0742C351.342 24.3359 351.279 24.6367 351.279 24.9766H350.195C350.195 24.4961 350.301 24.0566 350.512 23.6582C350.723 23.2598 351.035 22.9434 351.449 22.709C351.863 22.4707 352.373 22.3516 352.979 22.3516C353.518 22.3516 353.979 22.4473 354.361 22.6387C354.744 22.8262 355.037 23.0918 355.24 23.4355C355.447 23.7754 355.551 24.1738 355.551 24.6309C355.551 24.8809 355.508 25.1348 355.422 25.3926C355.34 25.6465 355.225 25.9004 355.076 26.1543C354.932 26.4082 354.762 26.6582 354.566 26.9043C354.375 27.1504 354.17 27.3926 353.951 27.6309L351.666 30.1094H355.943ZM362.459 26.0547V27.3555C362.459 28.0547 362.396 28.6445 362.271 29.125C362.146 29.6055 361.967 29.9922 361.732 30.2852C361.498 30.5781 361.215 30.791 360.883 30.9238C360.555 31.0527 360.184 31.1172 359.77 31.1172C359.441 31.1172 359.139 31.0762 358.861 30.9941C358.584 30.9121 358.334 30.7812 358.111 30.6016C357.893 30.418 357.705 30.1797 357.549 29.8867C357.393 29.5938 357.273 29.2383 357.191 28.8203C357.109 28.4023 357.068 27.9141 357.068 27.3555V26.0547C357.068 25.3555 357.131 24.7695 357.256 24.2969C357.385 23.8242 357.566 23.4453 357.801 23.1602C358.035 22.8711 358.316 22.6641 358.645 22.5391C358.977 22.4141 359.348 22.3516 359.758 22.3516C360.09 22.3516 360.395 22.3926 360.672 22.4746C360.953 22.5527 361.203 22.6797 361.422 22.8555C361.641 23.0273 361.826 23.2578 361.979 23.5469C362.135 23.832 362.254 24.1816 362.336 24.5957C362.418 25.0098 362.459 25.4961 362.459 26.0547ZM361.369 27.5312V25.873C361.369 25.4902 361.346 25.1543 361.299 24.8652C361.256 24.5723 361.191 24.3223 361.105 24.1152C361.02 23.9082 360.91 23.7402 360.777 23.6113C360.648 23.4824 360.498 23.3887 360.326 23.3301C360.158 23.2676 359.969 23.2363 359.758 23.2363C359.5 23.2363 359.271 23.2852 359.072 23.3828C358.873 23.4766 358.705 23.627 358.568 23.834C358.436 24.041 358.334 24.3125 358.264 24.6484C358.193 24.9844 358.158 25.3926 358.158 25.873V27.5312C358.158 27.9141 358.18 28.252 358.223 28.5449C358.27 28.8379 358.338 29.0918 358.428 29.3066C358.518 29.5176 358.627 29.6914 358.756 29.8281C358.885 29.9648 359.033 30.0664 359.201 30.1328C359.373 30.1953 359.562 30.2266 359.77 30.2266C360.035 30.2266 360.268 30.1758 360.467 30.0742C360.666 29.9727 360.832 29.8145 360.965 29.5996C361.102 29.3809 361.203 29.1016 361.27 28.7617C361.336 28.418 361.369 28.0078 361.369 27.5312ZM370.691 28.5098V22.4688H371.816V28.5098C371.816 29.0723 371.701 29.5469 371.471 29.9336C371.24 30.3203 370.922 30.6152 370.516 30.8184C370.113 31.0176 369.65 31.1172 369.127 31.1172C368.604 31.1172 368.139 31.0273 367.732 30.8477C367.326 30.668 367.008 30.3945 366.777 30.0273C366.547 29.6602 366.432 29.1973 366.432 28.6387H367.562C367.562 28.998 367.629 29.293 367.762 29.5234C367.895 29.7539 368.078 29.9238 368.312 30.0332C368.551 30.1426 368.822 30.1973 369.127 30.1973C369.424 30.1973 369.689 30.1348 369.924 30.0098C370.162 29.8809 370.35 29.6914 370.486 29.4414C370.623 29.1875 370.691 28.877 370.691 28.5098ZM377.447 29.5352V24.6602H378.537V31H377.5L377.447 29.5352ZM377.652 28.1992L378.104 28.1875C378.104 28.6094 378.059 29 377.969 29.3594C377.883 29.7148 377.742 30.0234 377.547 30.2852C377.352 30.5469 377.096 30.752 376.779 30.9004C376.463 31.0449 376.078 31.1172 375.625 31.1172C375.316 31.1172 375.033 31.0723 374.775 30.9824C374.521 30.8926 374.303 30.7539 374.119 30.5664C373.936 30.3789 373.793 30.1348 373.691 29.834C373.594 29.5332 373.545 29.1719 373.545 28.75V24.6602H374.629V28.7617C374.629 29.0469 374.66 29.2832 374.723 29.4707C374.789 29.6543 374.877 29.8008 374.986 29.9102C375.1 30.0156 375.225 30.0898 375.361 30.1328C375.502 30.1758 375.646 30.1973 375.795 30.1973C376.256 30.1973 376.621 30.1094 376.891 29.9336C377.16 29.7539 377.354 29.5137 377.471 29.2129C377.592 28.9082 377.652 28.5703 377.652 28.1992ZM381.367 22V31H380.277V22H381.367ZM391.557 30.1094V31H385.973V30.2207L388.768 27.1094C389.111 26.7266 389.377 26.4023 389.564 26.1367C389.756 25.8672 389.889 25.627 389.963 25.416C390.041 25.2012 390.08 24.9824 390.08 24.7598C390.08 24.4785 390.021 24.2246 389.904 23.998C389.791 23.7676 389.623 23.584 389.4 23.4473C389.178 23.3105 388.908 23.2422 388.592 23.2422C388.213 23.2422 387.896 23.3164 387.643 23.4648C387.393 23.6094 387.205 23.8125 387.08 24.0742C386.955 24.3359 386.893 24.6367 386.893 24.9766H385.809C385.809 24.4961 385.914 24.0566 386.125 23.6582C386.336 23.2598 386.648 22.9434 387.062 22.709C387.477 22.4707 387.986 22.3516 388.592 22.3516C389.131 22.3516 389.592 22.4473 389.975 22.6387C390.357 22.8262 390.65 23.0918 390.854 23.4355C391.061 23.7754 391.164 24.1738 391.164 24.6309C391.164 24.8809 391.121 25.1348 391.035 25.3926C390.953 25.6465 390.838 25.9004 390.689 26.1543C390.545 26.4082 390.375 26.6582 390.18 26.9043C389.988 27.1504 389.783 27.3926 389.564 27.6309L387.279 30.1094H391.557ZM398.072 26.0547V27.3555C398.072 28.0547 398.01 28.6445 397.885 29.125C397.76 29.6055 397.58 29.9922 397.346 30.2852C397.111 30.5781 396.828 30.791 396.496 30.9238C396.168 31.0527 395.797 31.1172 395.383 31.1172C395.055 31.1172 394.752 31.0762 394.475 30.9941C394.197 30.9121 393.947 30.7812 393.725 30.6016C393.506 30.418 393.318 30.1797 393.162 29.8867C393.006 29.5938 392.887 29.2383 392.805 28.8203C392.723 28.4023 392.682 27.9141 392.682 27.3555V26.0547C392.682 25.3555 392.744 24.7695 392.869 24.2969C392.998 23.8242 393.18 23.4453 393.414 23.1602C393.648 22.8711 393.93 22.6641 394.258 22.5391C394.59 22.4141 394.961 22.3516 395.371 22.3516C395.703 22.3516 396.008 22.3926 396.285 22.4746C396.566 22.5527 396.816 22.6797 397.035 22.8555C397.254 23.0273 397.439 23.2578 397.592 23.5469C397.748 23.832 397.867 24.1816 397.949 24.5957C398.031 25.0098 398.072 25.4961 398.072 26.0547ZM396.982 27.5312V25.873C396.982 25.4902 396.959 25.1543 396.912 24.8652C396.869 24.5723 396.805 24.3223 396.719 24.1152C396.633 23.9082 396.523 23.7402 396.391 23.6113C396.262 23.4824 396.111 23.3887 395.939 23.3301C395.771 23.2676 395.582 23.2363 395.371 23.2363C395.113 23.2363 394.885 23.2852 394.686 23.3828C394.486 23.4766 394.318 23.627 394.182 23.834C394.049 24.041 393.947 24.3125 393.877 24.6484C393.807 24.9844 393.771 25.3926 393.771 25.873V27.5312C393.771 27.9141 393.793 28.252 393.836 28.5449C393.883 28.8379 393.951 29.0918 394.041 29.3066C394.131 29.5176 394.24 29.6914 394.369 29.8281C394.498 29.9648 394.646 30.0664 394.814 30.1328C394.986 30.1953 395.176 30.2266 395.383 30.2266C395.648 30.2266 395.881 30.1758 396.08 30.0742C396.279 29.9727 396.445 29.8145 396.578 29.5996C396.715 29.3809 396.816 29.1016 396.883 28.7617C396.949 28.418 396.982 28.0078 396.982 27.5312ZM405.057 30.1094V31H399.473V30.2207L402.268 27.1094C402.611 26.7266 402.877 26.4023 403.064 26.1367C403.256 25.8672 403.389 25.627 403.463 25.416C403.541 25.2012 403.58 24.9824 403.58 24.7598C403.58 24.4785 403.521 24.2246 403.404 23.998C403.291 23.7676 403.123 23.584 402.9 23.4473C402.678 23.3105 402.408 23.2422 402.092 23.2422C401.713 23.2422 401.396 23.3164 401.143 23.4648C400.893 23.6094 400.705 23.8125 400.58 24.0742C400.455 24.3359 400.393 24.6367 400.393 24.9766H399.309C399.309 24.4961 399.414 24.0566 399.625 23.6582C399.836 23.2598 400.148 22.9434 400.562 22.709C400.977 22.4707 401.486 22.3516 402.092 22.3516C402.631 22.3516 403.092 22.4473 403.475 22.6387C403.857 22.8262 404.15 23.0918 404.354 23.4355C404.561 23.7754 404.664 24.1738 404.664 24.6309C404.664 24.8809 404.621 25.1348 404.535 25.3926C404.453 25.6465 404.338 25.9004 404.189 26.1543C404.045 26.4082 403.875 26.6582 403.68 26.9043C403.488 27.1504 403.283 27.3926 403.064 27.6309L400.779 30.1094H405.057ZM407.799 26.2012H408.572C408.951 26.2012 409.264 26.1387 409.51 26.0137C409.76 25.8848 409.945 25.7109 410.066 25.4922C410.191 25.2695 410.254 25.0195 410.254 24.7422C410.254 24.4141 410.199 24.1387 410.09 23.916C409.98 23.6934 409.816 23.5254 409.598 23.4121C409.379 23.2988 409.102 23.2422 408.766 23.2422C408.461 23.2422 408.191 23.3027 407.957 23.4238C407.727 23.541 407.545 23.709 407.412 23.9277C407.283 24.1465 407.219 24.4043 407.219 24.7012H406.135C406.135 24.2676 406.244 23.873 406.463 23.5176C406.682 23.1621 406.988 22.8789 407.383 22.668C407.781 22.457 408.242 22.3516 408.766 22.3516C409.281 22.3516 409.732 22.4434 410.119 22.627C410.506 22.8066 410.807 23.0762 411.021 23.4355C411.236 23.791 411.344 24.2344 411.344 24.7656C411.344 24.9805 411.293 25.2109 411.191 25.457C411.094 25.6992 410.939 25.9258 410.729 26.1367C410.521 26.3477 410.252 26.5215 409.92 26.6582C409.588 26.791 409.189 26.8574 408.725 26.8574H407.799V26.2012ZM407.799 27.0918V26.4414H408.725C409.268 26.4414 409.717 26.5059 410.072 26.6348C410.428 26.7637 410.707 26.9355 410.91 27.1504C411.117 27.3652 411.262 27.6016 411.344 27.8594C411.43 28.1133 411.473 28.3672 411.473 28.6211C411.473 29.0195 411.404 29.373 411.268 29.6816C411.135 29.9902 410.945 30.252 410.699 30.4668C410.457 30.6816 410.172 30.8438 409.844 30.9531C409.516 31.0625 409.158 31.1172 408.771 31.1172C408.4 31.1172 408.051 31.0645 407.723 30.959C407.398 30.8535 407.111 30.7012 406.861 30.502C406.611 30.2988 406.416 30.0508 406.275 29.7578C406.135 29.4609 406.064 29.123 406.064 28.7441H407.148C407.148 29.041 407.213 29.3008 407.342 29.5234C407.475 29.7461 407.662 29.9199 407.904 30.0449C408.15 30.166 408.439 30.2266 408.771 30.2266C409.104 30.2266 409.389 30.1699 409.627 30.0566C409.869 29.9395 410.055 29.7637 410.184 29.5293C410.316 29.2949 410.383 29 410.383 28.6445C410.383 28.2891 410.309 27.998 410.16 27.7715C410.012 27.541 409.801 27.3711 409.527 27.2617C409.258 27.1484 408.939 27.0918 408.572 27.0918H407.799Z" fill="#3C4AD9"/>
<rect x="22" y="58" width="390" height="146" fill="url(#paint0_linear_150_1759)"/>
<path d="M22 126.965C22 126.965 33.5967 128.594 40.7546 126.965C46.9243 125.56 49.4695 121.688 55.6621 120.4C68.7535 117.677 75.5062 129.482 88.8434 128.985C105.433 128.366 111.864 114.93 128.276 112.32C142.593 110.043 151.058 117.058 165.305 114.34C176.355 112.231 181.038 104.679 192.234 103.735C202.699 102.852 208.205 108.104 218.683 108.785C238.436 110.069 248.963 98.6175 268.695 100.2C282.184 101.282 289.89 114.297 302.358 108.785C310.559 105.159 310.636 96.4913 318.227 91.6149C331.585 83.0332 342.498 88.3281 358.141 87.575C372.398 86.8885 380.901 91.4521 394.688 87.575C401.763 85.5854 412 80 412 80" stroke="#6A51FF"/>
<path d="M22 152.965C22 152.965 33.5967 154.594 40.7546 152.965C46.9243 151.56 48.8073 158.288 55 157C68.0914 154.278 74.6628 160.997 88 160.5C104.589 159.882 111.587 155.95 128 153.34C142.317 151.063 147.253 128.918 161.5 126.2C172.551 124.091 181.804 154.284 193 153.34C203.465 152.457 212.022 125.519 222.5 126.2C242.252 127.484 249.267 151.382 269 152.965C282.489 154.046 289.89 148.013 302.358 142.5C310.558 138.874 310.636 127.876 318.227 123C331.585 114.418 342.497 140.753 358.141 140C372.398 139.314 380.901 117.452 394.688 113.575C401.763 111.585 412 101 412 101" stroke="#2BBAF8"/>
<defs>
<filter id="filter0_d_150_1759" x="0" y="0" width="434" height="241" filterUnits="userSpaceOnUse" color-interpolation-filters="sRGB">
<feFlood flood-opacity="0" result="BackgroundImageFix"/>
<feColorMatrix in="SourceAlpha" type="matrix" values="0 0 0 0 0 0 0 0 0 0 0 0 0 0 0 0 0 0 127 0" result="hardAlpha"/>
<feOffset dy="4"/>
<feGaussianBlur stdDeviation="3"/>
<feComposite in2="hardAlpha" operator="out"/>
<feColorMatrix type="matrix" values="0 0 0 0 0 0 0 0 0 0 0 0 0 0 0 0 0 0 0.25 0"/>
<feBlend mode="normal" in2="BackgroundImageFix" result="effect1_dropShadow_150_1759"/>
<feBlend mode="normal" in="SourceGraphic" in2="effect1_dropShadow_150_1759" result="shape"/>
</filter>
<linearGradient id="paint0_linear_150_1759" x1="285" y1="204" x2="285" y2="58" gradientUnits="userSpaceOnUse">
<stop stop-color="#F7F8FF"/>
<stop offset="1" stop-color="#F7F8FF" stop-opacity="0"/>
</linearGradient>
</defs>
</svg>
