<svg width="42" height="42" viewBox="0 0 42 42" fill="none" xmlns="http://www.w3.org/2000/svg">
<g clip-path="url(#clip0_5215_7986)">
<path d="M16.1031 14H14.7031V15.4H16.1031V14Z" fill="#1A82E0"/>
<path d="M16.1031 16.7998H14.7031V18.1998H16.1031V16.7998Z" fill="#1A82E0"/>
<path d="M16.1031 19.5996H14.7031V20.9996H16.1031V19.5996Z" fill="#1A82E0"/>
<path d="M16.1031 22.4004H14.7031V23.8004H16.1031V22.4004Z" fill="#1A82E0"/>
<path d="M18.9 14H17.5V15.4H18.9V14Z" fill="#1A82E0"/>
<path d="M18.9 16.7998H17.5V18.1998H18.9V16.7998Z" fill="#1A82E0"/>
<path d="M18.9 19.5996H17.5V20.9996H18.9V19.5996Z" fill="#1A82E0"/>
<path d="M18.9 22.4004H17.5V23.8004H18.9V22.4004Z" fill="#1A82E0"/>
<path d="M21.6969 14H20.2969V15.4H21.6969V14Z" fill="#1A82E0"/>
<path d="M21.6969 16.7998H20.2969V18.1998H21.6969V16.7998Z" fill="#1A82E0"/>
<path d="M21.6969 19.5996H20.2969V20.9996H21.6969V19.5996Z" fill="#1A82E0"/>
<path d="M21.6969 22.4004H20.2969V23.8004H21.6969V22.4004Z" fill="#1A82E0"/>
<path d="M24.5016 14H23.1016V15.4H24.5016V14Z" fill="#1A82E0"/>
<path d="M18.9 11.2002H17.5V12.6002H18.9V11.2002Z" fill="#1A82E0"/>
<path d="M21.6969 11.2002H20.2969V12.6002H21.6969V11.2002Z" fill="#1A82E0"/>
<path d="M24.5016 11.2002H23.1016V12.6002H24.5016V11.2002Z" fill="#1A82E0"/>
<path d="M24.5016 16.7998H23.1016V18.1998H24.5016V16.7998Z" fill="#1A82E0"/>
<path d="M24.5016 19.5996H23.1016V20.9996H24.5016V19.5996Z" fill="#1A82E0"/>
<path d="M24.5016 22.4004H23.1016V23.8004H24.5016V22.4004Z" fill="#1A82E0"/>
<path d="M27.2984 14H25.8984V15.4H27.2984V14Z" fill="#1A82E0"/>
<path d="M27.2984 16.7998H25.8984V18.1998H27.2984V16.7998Z" fill="#1A82E0"/>
<path d="M27.2984 19.5996H25.8984V20.9996H27.2984V19.5996Z" fill="#1A82E0"/>
<path d="M27.2984 22.4004H25.8984V23.8004H27.2984V22.4004Z" fill="#1A82E0"/>
<path d="M41.3008 10.5C41.3005 10.5 41.3003 10.5 41.3 10.5H30.8V0.7C30.8003 0.3136 30.4872 0.000262665 30.1008 1.64951e-07C30.1005 1.64951e-07 30.1003 1.64951e-07 30.1 1.64951e-07H11.9C11.5136 -0.000262335 11.2003 0.312813 11.2 0.699213C11.2 0.699475 11.2 0.699738 11.2 0.7V10.5H0.7C0.3136 10.4997 0.000262665 10.8128 1.64951e-07 11.1992C1.64951e-07 11.1995 1.64951e-07 11.1997 1.64951e-07 11.2V36.4C-0.000262335 36.7864 0.312813 37.0997 0.699213 37.1C0.699475 37.1 0.699738 37.1 0.7 37.1H2.16326C2.12266 37.3312 2.10149 37.5653 2.1 37.8V41.3C2.09974 41.6864 2.41281 41.9997 2.79921 42C2.79948 42 2.79974 42 2.8 42H39.2C39.5864 42.0003 39.8997 41.6872 39.9 41.3008C39.9 41.3005 39.9 41.3003 39.9 41.3V37.8C39.8986 37.5653 39.8774 37.3312 39.8367 37.1H41.3C41.6864 37.1003 41.9997 36.7872 42 36.4008C42 36.4005 42 36.4003 42 36.4V11.2C42.0003 10.8136 41.6872 10.5003 41.3008 10.5ZM30.1 30.1C30.1 30.8732 29.4732 31.5 28.7 31.5C27.9268 31.5 27.3 30.8732 27.3 30.1C27.3 29.3268 27.9268 28.7 28.7 28.7C29.4728 28.701 30.099 29.3272 30.1 30.1ZM13.3 28.7C14.0732 28.7 14.7 29.3268 14.7 30.1C14.7 30.8732 14.0732 31.5 13.3 31.5C12.5268 31.5 11.9 30.8732 11.9 30.1C11.901 29.3272 12.5272 28.701 13.3 28.7ZM9.1 40.6H3.5V37.8C3.5 36.2536 4.75361 35 6.3 35C7.84639 35 9.1 36.2536 9.1 37.8V40.6ZM4.9 32.2C4.9 31.4268 5.52676 30.8 6.3 30.8C7.07324 30.8 7.7 31.4268 7.7 32.2C7.7 32.9732 7.07324 33.6 6.3 33.6C5.5272 33.599 4.90096 32.9728 4.9 32.2ZM9.20605 34.7747C8.94206 34.5201 8.64605 34.301 8.32545 34.1229C9.39313 33.0043 9.35191 31.2319 8.23331 30.1641C7.11471 29.0964 5.34231 29.1377 4.27455 30.2563C3.24179 31.3382 3.24179 33.0409 4.27455 34.1228C3.6064 34.4936 3.0513 35.0387 2.66823 35.6999H1.4V11.9H11.2V28.2674C10.2387 29.346 10.2712 30.9833 11.2746 32.0229C10.2246 32.6036 9.47214 33.6046 9.20605 34.7747ZM16.1 40.6H10.5V35.7C10.5 34.1536 11.7536 32.9 13.3 32.9C14.8464 32.9 16.1 34.1536 16.1 35.7V40.6ZM24.5 40.6H17.5V35.7C17.5 33.767 19.067 32.2 21 32.2C22.933 32.2 24.5 33.767 24.5 35.7V40.6ZM18.9 28.7C18.9 27.5402 19.8402 26.6 21 26.6C22.1598 26.6 23.1 27.5402 23.1 28.7C23.1 29.8598 22.1598 30.8 21 30.8C19.8407 30.7988 18.9012 29.8593 18.9 28.7ZM25.2632 33.2933C24.7944 32.467 24.0971 31.7936 23.2548 31.3543C24.7333 30.109 24.9223 27.901 23.6771 26.4225C22.4318 24.944 20.2237 24.755 18.7452 26.0002C17.2667 27.2455 17.0777 29.4535 18.3229 30.932C18.4514 31.0845 18.5926 31.2258 18.7452 31.3543C17.9029 31.7936 17.2056 32.467 16.7368 33.2933C16.3688 32.7683 15.8861 32.3339 15.3254 32.0229C16.3986 30.925 16.3787 29.165 15.2807 28.0918C14.5738 27.4007 13.5531 27.1372 12.6 27.3994V1.4H29.4V27.3994C29.1719 27.3365 28.9366 27.3031 28.7 27.3C27.1577 27.2959 25.9041 28.5428 25.9 30.0852C25.8981 30.8069 26.1757 31.5014 26.6745 32.0229C26.1138 32.3339 25.6312 32.7683 25.2632 33.2933ZM31.5 37.8V40.6H25.9V35.7C25.9 34.1536 27.1536 32.9 28.7 32.9C30.2464 32.9 31.5 34.1536 31.5 35.7V37.8ZM38.5 40.6H32.9V37.8C32.9 36.2536 34.1536 35 35.7 35C37.2464 35 38.5 36.2536 38.5 37.8V40.6ZM34.3 32.2C34.3 31.4268 34.9268 30.8 35.7 30.8C36.4732 30.8 37.1 31.4268 37.1 32.2C37.1 32.9732 36.4732 33.6 35.7 33.6C34.9272 33.599 34.301 32.9728 34.3 32.2ZM40.6 35.7H39.3318C38.9487 35.0388 38.3936 34.4937 37.7255 34.1229C38.7931 33.0043 38.7519 31.2319 37.6333 30.1641C36.5147 29.0965 34.7423 29.1377 33.6745 30.2563C32.6418 31.3382 32.6418 33.0409 33.6745 34.1228C33.3539 34.3009 33.0578 34.52 32.7939 34.7746C32.5279 33.6046 31.7755 32.6035 30.7255 32.0228C31.7288 30.9832 31.7614 29.3459 30.8001 28.2673V11.9H40.6001V35.7H40.6Z" fill="#1A82E0"/>
<path d="M34.2984 16.0996H32.8984V27.2996H34.2984V16.0996Z" fill="#1A82E0"/>
<path d="M38.5016 16.0996H37.1016V27.2996H38.5016V16.0996Z" fill="#1A82E0"/>
<path d="M4.9 16.0996H3.5V27.2996H4.9V16.0996Z" fill="#1A82E0"/>
<path d="M9.10313 16.0996H7.70312V27.2996H9.10313V16.0996Z" fill="#1A82E0"/>
<path d="M25.2023 2.7998C25.2021 2.7998 25.2018 2.7998 25.2016 2.7998H16.8016C16.4152 2.79954 16.1018 3.11262 16.1016 3.49902C16.1016 3.49928 16.1016 3.49954 16.1016 3.4998V9.0998C16.1013 9.4862 16.4144 9.79954 16.8008 9.7998C16.801 9.7998 16.8013 9.7998 16.8016 9.7998H25.2016C25.588 9.80007 25.9013 9.48699 25.9016 9.10059C25.9016 9.10033 25.9016 9.10007 25.9016 9.0998V3.4998C25.9018 3.1134 25.5887 2.80007 25.2023 2.7998ZM24.5016 8.3998H17.5016V4.1998H24.5016V8.3998Z" fill="#1A82E0"/>
</g>
<defs>
<clipPath id="clip0_5215_7986">
<rect width="42" height="42" fill="white"/>
</clipPath>
</defs>
</svg>
