<svg width="43" height="42" viewBox="0 0 43 42" fill="none" xmlns="http://www.w3.org/2000/svg">
<path d="M2.93509 14.5686C3.03344 14.7122 3.18479 14.8109 3.35585 14.8429C3.52691 14.8749 3.70368 14.8376 3.84728 14.7393L4.10978 14.5588V22.9686C4.10978 23.1427 4.17892 23.3096 4.30199 23.4327C4.42506 23.5558 4.59198 23.6249 4.76603 23.6249H18.5473C18.7213 23.6249 18.8882 23.5558 19.0113 23.4327C19.1344 23.3096 19.2035 23.1427 19.2035 22.9686V14.5391L19.4824 14.736C19.6252 14.8361 19.8018 14.8754 19.9735 14.8452C20.1452 14.815 20.2978 14.7179 20.3979 14.5752C20.498 14.4325 20.5373 14.2559 20.5071 14.0842C20.477 13.9125 20.3798 13.7598 20.2371 13.6597L12.139 7.99302C12.0291 7.91681 11.8986 7.87598 11.7649 7.87598C11.6312 7.87598 11.5007 7.91681 11.3909 7.99302L3.10572 13.6565C2.96214 13.7548 2.8635 13.9062 2.8315 14.0772C2.79951 14.2483 2.83677 14.4251 2.93509 14.5686ZM9.76993 15.7499C9.77253 15.3773 9.88538 15.0138 10.0943 14.7053C10.3031 14.3968 10.5987 14.157 10.9437 14.0162C11.2887 13.8754 11.6676 13.8399 12.0327 13.9142C12.3978 13.9884 12.7328 14.1692 12.9953 14.4335C13.2579 14.6979 13.4363 15.0341 13.508 15.3997C13.5798 15.7654 13.5416 16.144 13.3985 16.488C13.2553 16.832 13.0135 17.1259 12.7035 17.3327C12.3935 17.5394 12.0293 17.6497 11.6567 17.6497C11.4079 17.6493 11.1617 17.5998 10.9321 17.504C10.7025 17.4082 10.4941 17.268 10.3189 17.0915C10.1436 16.915 10.0049 16.7057 9.91066 16.4754C9.81646 16.2452 9.76864 15.9986 9.76993 15.7499ZM7.76837 22.3124C7.91602 21.3874 8.3886 20.5453 9.10125 19.9374C9.8139 19.3295 10.7199 18.9955 11.6567 18.9955C12.5934 18.9955 13.4994 19.3295 14.2121 19.9374C14.9247 20.5453 15.3973 21.3874 15.5449 22.3124H7.76837ZM11.7584 9.32849L17.891 13.6204V22.3124H16.8706C16.7679 21.4083 16.432 20.5465 15.8959 19.8114C15.3598 19.0762 14.6419 18.493 13.8124 18.119C14.2892 17.6841 14.6234 17.1153 14.771 16.4871C14.9186 15.859 14.8729 15.2008 14.6397 14.5992C14.4066 13.9975 13.9969 13.4804 13.4645 13.1157C12.9321 12.7511 12.3019 12.5559 11.6567 12.5559C11.0114 12.5559 10.3812 12.7511 9.84879 13.1157C9.31642 13.4804 8.90675 13.9975 8.67359 14.5992C8.44042 15.2008 8.39466 15.859 8.5423 16.4871C8.68994 17.1153 9.02409 17.6841 9.50087 18.119C8.67146 18.493 7.95349 19.0762 7.41738 19.8114C6.88126 20.5465 6.54541 21.4083 6.44275 22.3124H5.42228V13.663L11.7584 9.32849Z" fill="#1A82E0"/>
<path d="M13.4372 25.5938C13.4372 26.0672 13.2491 26.5212 12.9144 26.8559C12.5796 27.1907 12.1256 27.3788 11.6522 27.3788C11.1788 27.3788 10.7248 27.1907 10.39 26.8559C10.0552 26.5212 9.86719 26.0672 9.86719 25.5938C9.86719 25.4197 9.79805 25.2528 9.67498 25.1297C9.55191 25.0066 9.38499 24.9375 9.21094 24.9375C9.03689 24.9375 8.86997 25.0066 8.7469 25.1297C8.62383 25.2528 8.55469 25.4197 8.55469 25.5938C8.55469 26.4153 8.88103 27.2031 9.46192 27.784C10.0428 28.3649 10.8307 28.6913 11.6522 28.6913C12.4737 28.6913 13.2616 28.3649 13.8425 27.784C14.4233 27.2031 14.7497 26.4153 14.7497 25.5938C14.7497 25.4197 14.6805 25.2528 14.5575 25.1297C14.4344 25.0066 14.2675 24.9375 14.0934 24.9375C13.9194 24.9375 13.7525 25.0066 13.6294 25.1297C13.5063 25.2528 13.4372 25.4197 13.4372 25.5938Z" fill="#1A82E0"/>
<path d="M4.65078 27.2344L6.01906 27.6544C6.22014 28.2856 6.55602 28.8655 7.00344 29.3541L6.70484 30.6666C6.67856 30.7871 6.68678 30.9126 6.72857 31.0287C6.77035 31.1447 6.84401 31.2467 6.94109 31.3228C7.53872 31.7872 8.20227 32.1599 8.90984 32.4286C9.02037 32.4685 9.13958 32.4779 9.25502 32.456C9.37046 32.4341 9.47789 32.3815 9.56609 32.3039L10.6719 31.3687C11.3344 31.4803 12.0109 31.4803 12.6734 31.3687L13.7398 32.317C13.828 32.3947 13.9355 32.4472 14.0509 32.4691C14.1664 32.4911 14.2856 32.4816 14.3961 32.4417C15.1037 32.173 15.7672 31.8004 16.3648 31.3359C16.4619 31.2598 16.5356 31.1579 16.5774 31.0418C16.6192 30.9257 16.6274 30.8002 16.6011 30.6797L16.2959 29.3311C16.7131 28.8331 17.0457 28.27 17.2803 27.6642L18.6617 27.2344C18.7793 27.1984 18.8844 27.1301 18.965 27.0373C19.0457 26.9444 19.0986 26.8308 19.1178 26.7094C19.1742 26.3402 19.2027 25.9672 19.2031 25.5938C19.2031 25.4197 19.134 25.2528 19.0109 25.1297C18.8878 25.0066 18.7209 24.9375 18.5469 24.9375C18.3728 24.9375 18.2059 25.0066 18.0828 25.1297C17.9598 25.2528 17.8906 25.4197 17.8906 25.5938C17.8906 25.7611 17.8906 25.9219 17.8677 26.1023L16.5781 26.4961C16.4765 26.5273 16.384 26.5827 16.3086 26.6576C16.2331 26.7325 16.177 26.8246 16.145 26.9259C15.934 27.583 15.576 28.1834 15.0983 28.6814C15.0239 28.7598 14.97 28.8553 14.9414 28.9594C14.9128 29.0636 14.9103 29.1732 14.9342 29.2786L15.2197 30.5419C14.9222 30.7419 14.6082 30.9165 14.2812 31.0636L13.2969 30.1875C13.2194 30.1185 13.1267 30.0688 13.0263 30.0426C12.9259 30.0163 12.8207 30.0143 12.7194 30.0366C12.0257 30.1908 11.3065 30.1908 10.6128 30.0366C10.5085 30.0109 10.3995 30.0113 10.2954 30.0376C10.1913 30.0639 10.0952 30.1154 10.0156 30.1875L9.03125 31.0636C8.70541 30.9163 8.39258 30.7418 8.09609 30.5419L8.375 29.2786C8.40083 29.1637 8.39526 29.044 8.35889 28.932C8.32252 28.82 8.25668 28.7198 8.16828 28.642C7.67114 28.182 7.32171 27.5847 7.16422 26.9259C7.13255 26.8249 7.07692 26.7331 7.00207 26.6582C6.92722 26.5834 6.83538 26.5278 6.73438 26.4961L5.45141 26.1023C5.42188 25.9219 5.42188 25.7611 5.42188 25.5938C5.42188 25.4197 5.35273 25.2528 5.22966 25.1297C5.10659 25.0066 4.93967 24.9375 4.76562 24.9375C4.59158 24.9375 4.42466 25.0066 4.30159 25.1297C4.17852 25.2528 4.10938 25.4197 4.10938 25.5938C4.10992 25.9661 4.13843 26.338 4.19469 26.7061C4.21332 26.8281 4.26601 26.9424 4.34668 27.0359C4.42736 27.1293 4.53276 27.1981 4.65078 27.2344Z" fill="#1A82E0"/>
<path d="M37.9062 15.75C38.0803 15.75 38.2472 15.6809 38.3703 15.5578C38.4934 15.4347 38.5625 15.2678 38.5625 15.0938V4.59375C38.5625 4.4197 38.4934 4.25278 38.3703 4.12971C38.2472 4.00664 38.0803 3.9375 37.9062 3.9375H23.4688C23.2947 3.9375 23.1278 4.00664 23.0047 4.12971C22.8816 4.25278 22.8125 4.4197 22.8125 4.59375V15.0938C22.8125 15.2678 22.8816 15.4347 23.0047 15.5578C23.1278 15.6809 23.2947 15.75 23.4688 15.75H30.0312V18.375H25.8739C25.6999 18.375 25.5329 18.4441 25.4099 18.5672C25.2868 18.6903 25.2177 18.8572 25.2177 19.0312C25.2177 19.2053 25.2868 19.3722 25.4099 19.4953C25.5329 19.6184 25.6999 19.6875 25.8739 19.6875H35.5011C35.6751 19.6875 35.8421 19.6184 35.9651 19.4953C36.0882 19.3722 36.1573 19.2053 36.1573 19.0312C36.1573 18.8572 36.0882 18.6903 35.9651 18.5672C35.8421 18.4441 35.6751 18.375 35.5011 18.375H31.3438V15.75H37.9062ZM27.6983 14.4375C27.833 13.7435 28.2049 13.1181 28.7503 12.6683C29.2957 12.2186 29.9806 11.9727 30.6875 11.9727C31.3944 11.9727 32.0793 12.2186 32.6247 12.6683C33.1701 13.1181 33.542 13.7435 33.6767 14.4375H27.6983ZM29.293 9.26953C29.293 8.99372 29.3748 8.7241 29.528 8.49477C29.6812 8.26544 29.899 8.0867 30.1538 7.98115C30.4087 7.8756 30.689 7.84799 30.9596 7.9018C31.2301 7.9556 31.4786 8.08842 31.6736 8.28345C31.8686 8.47848 32.0014 8.72696 32.0552 8.99747C32.109 9.26798 32.0814 9.54838 31.9759 9.80319C31.8703 10.058 31.6916 10.2758 31.4623 10.429C31.2329 10.5823 30.9633 10.6641 30.6875 10.6641C30.3179 10.6632 29.9637 10.516 29.7024 10.2547C29.441 9.99332 29.2938 9.63912 29.293 9.26953ZM24.125 5.25H37.25V14.4375H35.0023C34.9079 13.738 34.6451 13.0719 34.2364 12.4963C33.8278 11.9208 33.2855 11.453 32.6562 11.1333C33.022 10.7498 33.2672 10.2674 33.3613 9.74586C33.4555 9.22435 33.3945 8.68667 33.1859 8.19949C32.9773 7.71232 32.6303 7.29708 32.1879 7.00527C31.7456 6.71346 31.2273 6.55791 30.6973 6.55791C30.1674 6.55791 29.6491 6.71346 29.2067 7.00527C28.7644 7.29708 28.4174 7.71232 28.2088 8.19949C28.0002 8.68667 27.9392 9.22435 28.0334 9.74586C28.1275 10.2674 28.3727 10.7498 28.7384 11.1333C28.1055 11.4506 27.5593 11.9173 27.1471 12.493C26.7349 13.0687 26.4691 13.7361 26.3727 14.4375H24.125V5.25Z" fill="#1A82E0"/>
<path d="M22.8125 33.4688C22.8125 33.6428 22.8816 33.8097 23.0047 33.9328C23.1278 34.0559 23.2947 34.125 23.4688 34.125H30.0312V36.75H25.8739C25.6999 36.75 25.5329 36.8191 25.4099 36.9422C25.2868 37.0653 25.2177 37.2322 25.2177 37.4062C25.2177 37.5803 25.2868 37.7472 25.4099 37.8703C25.5329 37.9934 25.6999 38.0625 25.8739 38.0625H35.5011C35.6751 38.0625 35.8421 37.9934 35.9651 37.8703C36.0882 37.7472 36.1573 37.5803 36.1573 37.4062C36.1573 37.2322 36.0882 37.0653 35.9651 36.9422C35.8421 36.8191 35.6751 36.75 35.5011 36.75H31.3438V34.125H37.9062C38.0803 34.125 38.2472 34.0559 38.3703 33.9328C38.4934 33.8097 38.5625 33.6428 38.5625 33.4688V22.9688C38.5625 22.7947 38.4934 22.6278 38.3703 22.5047C38.2472 22.3816 38.0803 22.3125 37.9062 22.3125H23.4688C23.2947 22.3125 23.1278 22.3816 23.0047 22.5047C22.8816 22.6278 22.8125 22.7947 22.8125 22.9688V33.4688ZM29.293 27.6445C29.293 27.3687 29.3748 27.0991 29.528 26.8698C29.6812 26.6404 29.899 26.4617 30.1538 26.3562C30.4087 26.2506 30.689 26.223 30.9596 26.2768C31.2301 26.3306 31.4786 26.4634 31.6736 26.6584C31.8686 26.8535 32.0014 27.102 32.0552 27.3725C32.109 27.643 32.0814 27.9234 31.9759 28.1782C31.8703 28.433 31.6916 28.6508 31.4623 28.804C31.2329 28.9573 30.9633 29.0391 30.6875 29.0391C30.3179 29.0382 29.9637 28.891 29.7024 28.6297C29.441 28.3683 29.2938 28.0141 29.293 27.6445ZM30.6875 30.3516C31.3937 30.352 32.0778 30.5976 32.623 31.0465C33.1682 31.4953 33.5407 32.1195 33.6767 32.8125H27.6983C27.8343 32.1195 28.2068 31.4953 28.752 31.0465C29.2972 30.5976 29.9813 30.352 30.6875 30.3516ZM24.125 23.625H37.25V32.8125H35.0023C34.9079 32.113 34.6451 31.4469 34.2364 30.8713C33.8278 30.2958 33.2855 29.828 32.6562 29.5083C33.022 29.1248 33.2672 28.6424 33.3613 28.1209C33.4555 27.5993 33.3945 27.0617 33.1859 26.5745C32.9773 26.0873 32.6303 25.6721 32.1879 25.3803C31.7456 25.0885 31.2273 24.9329 30.6973 24.9329C30.1674 24.9329 29.6491 25.0885 29.2067 25.3803C28.7644 25.6721 28.4174 26.0873 28.2088 26.5745C28.0002 27.0617 27.9392 27.5993 28.0334 28.1209C28.1275 28.6424 28.3727 29.1248 28.7384 29.5083C28.1055 29.8256 27.5593 30.2923 27.1471 30.868C26.7349 31.4437 26.4691 32.1111 26.3727 32.8125H24.125V23.625Z" fill="#1A82E0"/>
<path d="M21.2768 5.73853L19.9019 4.49494C19.8373 4.4372 19.7619 4.39276 19.6801 4.36415C19.5983 4.33553 19.5117 4.32332 19.4251 4.32819C19.3386 4.33307 19.2539 4.35494 19.1758 4.39256C19.0977 4.43018 19.0278 4.48281 18.9701 4.54744C18.9123 4.61208 18.8679 4.68745 18.8393 4.76926C18.8107 4.85107 18.7984 4.93772 18.8033 5.02425C18.8082 5.11078 18.8301 5.19551 18.8677 5.27359C18.9053 5.35167 18.9579 5.42158 19.0226 5.47932L19.2391 5.67619C17.6294 5.85324 16.0621 6.3061 14.606 7.01494C14.528 7.05286 14.4583 7.10577 14.4007 7.17065C14.3432 7.23553 14.299 7.31111 14.2706 7.39307C14.2423 7.47503 14.2304 7.56177 14.2356 7.64834C14.2407 7.73491 14.2629 7.8196 14.3008 7.8976C14.3388 7.97559 14.3917 8.04535 14.4566 8.1029C14.5214 8.16044 14.597 8.20464 14.679 8.23298C14.7609 8.26132 14.8477 8.27323 14.9342 8.26805C15.0208 8.26286 15.1055 8.24067 15.1835 8.20275C16.4672 7.571 17.8483 7.16054 19.2687 6.98869L19.1079 7.16588C18.9913 7.29641 18.9313 7.46793 18.9411 7.64269C18.946 7.72922 18.9679 7.81395 19.0055 7.89203C19.0431 7.97011 19.0957 8.04001 19.1604 8.09775C19.225 8.15549 19.3004 8.19994 19.3822 8.22855C19.464 8.25716 19.5507 8.26938 19.6372 8.2645C19.812 8.25466 19.9756 8.17579 20.0923 8.04525L21.2866 6.73275C21.3547 6.66877 21.4088 6.59138 21.4455 6.50544C21.4821 6.41951 21.5006 6.32691 21.4997 6.23349C21.4987 6.14006 21.4784 6.04785 21.4401 5.96266C21.4017 5.87747 21.3461 5.80115 21.2768 5.73853Z" fill="#1A82E0"/>
<path d="M18.8756 37.3639C18.9854 37.4986 19.1441 37.5842 19.3169 37.6021C19.4898 37.6199 19.6627 37.5685 19.7976 37.459L21.2381 36.2876C21.3742 36.1546 21.4526 35.9734 21.4562 35.7831C21.4599 35.5928 21.3886 35.4086 21.2578 35.2704L20.1881 33.9251C20.0755 33.7999 19.9191 33.7228 19.7512 33.7096C19.5833 33.6965 19.4168 33.7484 19.2861 33.8547C19.1555 33.9609 19.0706 34.1133 19.0492 34.2803C19.0277 34.4473 19.0713 34.6162 19.1709 34.752L19.3875 35.0211C17.6923 34.8254 16.0522 34.2981 14.5607 33.469C14.4085 33.3846 14.2289 33.3642 14.0615 33.4122C13.8941 33.4602 13.7527 33.5727 13.6682 33.725C13.5838 33.8773 13.5634 34.0568 13.6114 34.2242C13.6594 34.3916 13.7719 34.5331 13.9242 34.6175C15.5364 35.5102 17.3055 36.0839 19.1348 36.3073L18.9839 36.4287C18.9143 36.4822 18.8562 36.5492 18.8129 36.6255C18.7697 36.7019 18.7422 36.7862 18.7321 36.8734C18.722 36.9606 18.7295 37.0489 18.7541 37.1332C18.7788 37.2174 18.8201 37.2959 18.8756 37.3639Z" fill="#1A82E0"/>
</svg>
