<svg width="34" height="34" viewBox="0 0 34 34" fill="none" xmlns="http://www.w3.org/2000/svg">
<g clip-path="url(#clip0_5224_8265)">
<path d="M10.0937 21.25C10.0937 19.8841 10.4988 18.5488 11.2577 17.4131C12.0165 16.2774 13.0951 15.3922 14.3571 14.8695C15.619 14.3467 17.0077 14.21 18.3473 14.4765C19.687 14.7429 20.9176 15.4007 21.8835 16.3665C22.8493 17.3324 23.5071 18.563 23.7735 19.9027C24.04 21.2423 23.9033 22.631 23.3805 23.8929C22.8578 25.1549 21.9726 26.2335 20.8369 26.9923C19.7012 27.7512 18.3659 28.1563 17 28.1563C16.0931 28.1563 15.195 27.9776 14.3571 27.6305C13.5192 27.2835 12.7578 26.7748 12.1165 26.1335C11.4752 25.4922 10.9665 24.7308 10.6195 23.8929C10.2724 23.055 10.0937 22.1569 10.0937 21.25ZM19.3906 15.9375C19.6342 16.3217 19.8389 16.7292 20.0016 17.1541C20.2835 17.0736 20.5602 16.976 20.8303 16.8619C20.397 16.4866 19.9122 16.1753 19.3906 15.9375ZM21.6059 17.6853C21.1952 17.8805 20.7687 18.0405 20.3309 18.1634C20.5548 18.9981 20.6849 19.8552 20.7187 20.7188H22.8437C22.7318 19.6047 22.3021 18.5463 21.6059 17.6694V17.6853ZM22.8172 21.7813H20.6922C20.6647 22.6495 20.54 23.512 20.3203 24.3525C20.7581 24.4755 21.1846 24.6354 21.5953 24.8306C22.2858 23.9519 22.7099 22.8936 22.8172 21.7813ZM20.8303 25.6541C20.5602 25.5399 20.2835 25.4424 20.0016 25.3619C19.8379 25.7812 19.6333 26.1834 19.3906 26.5625C19.9112 26.3296 20.396 26.0237 20.8303 25.6541ZM17.5312 26.9503C18.1945 26.5186 18.694 25.8771 18.9497 25.1281C18.4804 25.0471 18.0068 24.9939 17.5312 24.9688V26.9503ZM17.5312 23.9063C18.1249 23.9253 18.7163 23.9893 19.3003 24.0975C19.5027 23.3406 19.622 22.564 19.6562 21.7813H17.5312V23.9063ZM17.5312 20.7188H19.6562C19.6284 19.9313 19.5144 19.1492 19.3162 18.3866C18.7274 18.5009 18.1307 18.5702 17.5312 18.5938V20.7188ZM17.5312 17.5313C18.0065 17.5114 18.4801 17.4635 18.9497 17.3878C18.6971 16.633 18.1974 15.9854 17.5312 15.5497V17.5313ZM11.1562 20.7188H13.2812C13.3087 19.8505 13.4334 18.988 13.6531 18.1475C13.2153 18.0245 12.7888 17.8646 12.3781 17.6694C11.6876 18.5481 11.2636 19.6064 11.1562 20.7188ZM13.1431 16.8459C13.4132 16.9601 13.6899 17.0576 13.9719 17.1381C14.144 16.7178 14.3575 16.3156 14.6094 15.9375C14.0888 16.1704 13.604 16.4763 13.1697 16.8459H13.1431ZM16.4687 15.5497C15.8055 15.9814 15.306 16.6229 15.0503 17.3719C15.5196 17.4529 15.9932 17.5061 16.4687 17.5313V15.5497ZM16.4687 18.5938C15.8751 18.5747 15.2837 18.5107 14.6997 18.4025C14.4973 19.1594 14.3779 19.936 14.3437 20.7188H16.4687V18.5938ZM16.4687 26.9663V24.9688C15.9935 24.9886 15.5199 25.0365 15.0503 25.1122C15.3029 25.867 15.8026 26.5146 16.4687 26.9503V26.9663ZM16.4687 23.9063V21.7813H14.3437C14.3716 22.5687 14.4856 23.3508 14.6837 24.1134C15.2726 23.9991 15.8693 23.9298 16.4687 23.9063ZM14.6094 26.5625C14.3658 26.1783 14.1611 25.7708 13.9984 25.3459C13.7165 25.4264 13.4398 25.524 13.1697 25.6381C13.603 26.0134 14.0878 26.3247 14.6094 26.5625ZM13.6691 24.3366C13.4452 23.5019 13.3151 22.6448 13.2812 21.7813H11.1562C11.2605 22.8925 11.6808 23.9507 12.3675 24.8306C12.7867 24.634 13.2222 24.474 13.6691 24.3525V24.3366Z" fill="#1A82E0"/>
<path d="M3.18987 5.3125C2.74387 4.978 2.41442 4.51165 2.24819 3.97951C2.08196 3.44737 2.08738 2.87641 2.26368 2.34752C2.43998 1.81863 2.77821 1.35861 3.23048 1.03264C3.68275 0.706662 4.22612 0.53125 4.78362 0.53125C5.34112 0.53125 5.88449 0.706662 6.33675 1.03264C6.78902 1.35861 7.12726 1.81863 7.30356 2.34752C7.47986 2.87641 7.48527 3.44737 7.31905 3.97951C7.15282 4.51165 6.82337 4.978 6.37737 5.3125C7.07886 5.32212 7.74891 5.60506 8.24498 6.10114C8.74105 6.59721 9.024 7.26726 9.03362 7.96875V12.2188H12.7524C12.8505 12.219 12.9466 12.2465 13.03 12.2981C13.1135 12.3497 13.181 12.4233 13.2252 12.5109L13.7883 13.6319C13.8509 13.758 13.8609 13.9038 13.8161 14.0373C13.7713 14.1708 13.6753 14.281 13.5492 14.3438C13.4231 14.4064 13.2773 14.4164 13.1438 14.3716C13.0103 14.3267 12.9001 14.2307 12.8374 14.1047L12.423 13.2813H4.50737C4.37383 13.4472 4.20475 13.5811 4.01259 13.6731C3.82043 13.765 3.61008 13.8127 3.39706 13.8125H2.12737C1.70468 13.8125 1.2993 13.6446 1.00042 13.3457C0.701532 13.0468 0.533619 12.6414 0.533619 12.2188V7.96875C0.543239 7.26726 0.826182 6.59721 1.32226 6.10114C1.81833 5.60506 2.48838 5.32212 3.18987 5.3125ZM6.37737 3.1875C6.37737 2.87229 6.2839 2.56415 6.10877 2.30206C5.93365 2.03997 5.68474 1.83569 5.39352 1.71507C5.1023 1.59444 4.78185 1.56288 4.47269 1.62437C4.16354 1.68587 3.87956 1.83766 3.65667 2.06055C3.43378 2.28344 3.28199 2.56742 3.22049 2.87658C3.159 3.18573 3.19056 3.50618 3.31119 3.7974C3.43181 4.08862 3.63609 4.33753 3.89818 4.51266C4.16027 4.68778 4.4684 4.78125 4.78362 4.78125C5.20631 4.78125 5.61168 4.61334 5.91057 4.31445C6.20946 4.01557 6.37737 3.61019 6.37737 3.1875ZM1.59612 12.2188C1.59612 12.3596 1.65209 12.4948 1.75172 12.5944C1.85135 12.694 1.98647 12.75 2.12737 12.75H3.45549C3.52594 12.75 3.5935 12.722 3.64332 12.6722C3.69313 12.6224 3.72112 12.5548 3.72112 12.4844C3.72112 12.4139 3.69313 12.3464 3.64332 12.2966C3.5935 12.2467 3.52594 12.2188 3.45549 12.2188H3.18987C3.04897 12.2188 2.91385 12.1628 2.81422 12.0632C2.71459 11.9635 2.65862 11.8284 2.65862 11.6875V9.5625C2.65862 9.4216 2.71459 9.28648 2.81422 9.18685C2.91385 9.08722 3.04897 9.03125 3.18987 9.03125C3.33076 9.03125 3.46589 9.08722 3.56552 9.18685C3.66515 9.28648 3.72112 9.4216 3.72112 9.5625V11.1828C3.97567 11.2352 4.20917 11.3613 4.39246 11.5456C4.57575 11.7298 4.70071 11.9639 4.75174 12.2188H5.84612V9.5625C5.84612 9.4216 5.90209 9.28648 6.00172 9.18685C6.10135 9.08722 6.23647 9.03125 6.37737 9.03125C6.51826 9.03125 6.65339 9.08722 6.75302 9.18685C6.85265 9.28648 6.90862 9.4216 6.90862 9.5625V12.2188H7.97112V7.96875C7.96036 7.54945 7.789 7.1503 7.49241 6.85371C7.19582 6.55712 6.79667 6.38576 6.37737 6.375H3.18987C2.77057 6.38576 2.37141 6.55712 2.07483 6.85371C1.77824 7.1503 1.60688 7.54945 1.59612 7.96875V12.2188Z" fill="#1A82E0"/>
<path d="M3.1854 24.9688C2.7394 24.6342 2.40995 24.1679 2.24373 23.6358C2.0775 23.1036 2.08292 22.5327 2.25921 22.0038C2.43551 21.4749 2.77375 21.0149 3.22602 20.6889C3.67828 20.3629 4.22165 20.1875 4.77915 20.1875C5.33665 20.1875 5.88002 20.3629 6.33229 20.6889C6.78456 21.0149 7.1228 21.4749 7.29909 22.0038C7.47539 22.5327 7.48081 23.1036 7.31458 23.6358C7.14835 24.1679 6.8189 24.6342 6.3729 24.9688C7.07439 24.9784 7.74444 25.2613 8.24052 25.7574C8.73659 26.2535 9.01953 26.9235 9.02915 27.625V31.875H12.3813L13.6829 28.4644C13.7329 28.3326 13.8332 28.2262 13.9617 28.1684C14.0903 28.1106 14.2365 28.1062 14.3682 28.1562C14.5 28.2063 14.6064 28.3066 14.6642 28.4351C14.722 28.5636 14.7264 28.7098 14.6763 28.8416L13.242 32.5975C13.2034 32.6973 13.1357 32.7832 13.0475 32.8439C12.9593 32.9046 12.8549 32.9372 12.7479 32.9375H4.5029C4.36936 33.1035 4.20028 33.2374 4.00812 33.3293C3.81596 33.4213 3.60561 33.4689 3.39259 33.4688H2.1229C1.70021 33.4688 1.29484 33.3008 0.995951 33.002C0.697065 32.7031 0.529152 32.2977 0.529152 31.875V27.625C0.538772 26.9235 0.821716 26.2535 1.31779 25.7574C1.81386 25.2613 2.48391 24.9784 3.1854 24.9688ZM6.3729 22.8438C6.3729 22.5285 6.27943 22.2204 6.10431 21.9583C5.92918 21.6962 5.68027 21.4919 5.38905 21.3713C5.09783 21.2507 4.77738 21.2191 4.46823 21.2806C4.15907 21.3421 3.87509 21.4939 3.6522 21.7168C3.42931 21.9397 3.27752 22.2237 3.21603 22.5328C3.15453 22.842 3.18609 23.1624 3.30672 23.4537C3.42735 23.7449 3.63162 23.9938 3.89371 24.1689C4.1558 24.344 4.46394 24.4375 4.77915 24.4375C5.20184 24.4375 5.60722 24.2696 5.9061 23.9707C6.20499 23.6718 6.3729 23.2664 6.3729 22.8438ZM1.59165 31.875C1.59165 32.0159 1.64762 32.151 1.74725 32.2507C1.84688 32.3503 1.98201 32.4062 2.1229 32.4062H3.45103C3.52148 32.4062 3.58904 32.3783 3.63885 32.3285C3.68867 32.2786 3.71665 32.2111 3.71665 32.1406C3.71665 32.0702 3.68867 32.0026 3.63885 31.9528C3.58904 31.903 3.52148 31.875 3.45103 31.875H3.1854C3.04451 31.875 2.90938 31.819 2.80975 31.7194C2.71012 31.6198 2.65415 31.4846 2.65415 31.3438V29.2188C2.65415 29.0779 2.71012 28.9427 2.80975 28.8431C2.90938 28.7435 3.04451 28.6875 3.1854 28.6875C3.3263 28.6875 3.46142 28.7435 3.56105 28.8431C3.66068 28.9427 3.71665 29.0779 3.71665 29.2188V30.8125C3.97479 30.8667 4.21085 30.9968 4.39449 31.1861C4.57814 31.3754 4.70099 31.6153 4.74728 31.875H5.84165V29.2188C5.84165 29.0779 5.89762 28.9427 5.99725 28.8431C6.09688 28.7435 6.23201 28.6875 6.3729 28.6875C6.5138 28.6875 6.64892 28.7435 6.74855 28.8431C6.84818 28.9427 6.90415 29.0779 6.90415 29.2188V31.875H7.96665V27.625C7.9559 27.2057 7.78453 26.8065 7.48795 26.51C7.19136 26.2134 6.7922 26.042 6.3729 26.0312H3.1854C2.7661 26.042 2.36695 26.2134 2.07036 26.51C1.77377 26.8065 1.60241 27.2057 1.59165 27.625V31.875Z" fill="#1A82E0"/>
<path d="M31.7422 13.8125H30.6C30.3877 13.8126 30.1782 13.7649 29.9869 13.673C29.7956 13.581 29.6275 13.4471 29.495 13.2813H21.5794L21.165 14.1047C21.1023 14.2307 20.992 14.3267 20.8585 14.3716C20.7251 14.4164 20.5792 14.4064 20.4531 14.3438C20.3884 14.3151 20.3301 14.2738 20.2815 14.2223C20.233 14.1707 20.1952 14.11 20.1705 14.0437C20.1457 13.9774 20.1345 13.9068 20.1374 13.8361C20.1403 13.7654 20.1574 13.6959 20.1875 13.6319L20.7506 12.5109C20.7967 12.4192 20.8684 12.3428 20.957 12.2909C21.0457 12.239 21.1474 12.214 21.25 12.2188H24.9688V7.96875C24.9784 7.26726 25.2613 6.59721 25.7574 6.10114C26.2535 5.60506 26.9235 5.32212 27.625 5.3125C27.179 4.978 26.8496 4.51165 26.6833 3.97951C26.5171 3.44737 26.5225 2.87641 26.6988 2.34752C26.8751 1.81863 27.2133 1.35861 27.6656 1.03264C28.1179 0.706662 28.6612 0.53125 29.2188 0.53125C29.7763 0.53125 30.3196 0.706662 30.7719 1.03264C31.2242 1.35861 31.5624 1.81863 31.7387 2.34752C31.915 2.87641 31.9204 3.44737 31.7542 3.97951C31.5879 4.51165 31.2585 4.978 30.8125 5.3125C31.514 5.32212 32.184 5.60506 32.6801 6.10114C33.1762 6.59721 33.4591 7.26726 33.4688 7.96875V12.2188C33.4649 12.4383 33.4166 12.6548 33.3267 12.8552C33.2369 13.0555 33.1074 13.2356 32.946 13.3845C32.7847 13.5335 32.5948 13.6482 32.3879 13.7217C32.181 13.7953 31.9613 13.8262 31.7422 13.8125ZM30.8125 3.1875C30.8125 2.87229 30.719 2.56415 30.5439 2.30206C30.3688 2.03997 30.1199 1.83569 29.8287 1.71507C29.5374 1.59444 29.217 1.56288 28.9078 1.62437C28.5987 1.68587 28.3147 1.83766 28.0918 2.06055C27.8689 2.28344 27.7171 2.56742 27.6556 2.87658C27.5941 3.18573 27.6257 3.50618 27.7463 3.7974C27.8669 4.08862 28.0712 4.33753 28.3333 4.51266C28.5954 4.68778 28.9035 4.78125 29.2188 4.78125C29.6414 4.78125 30.0468 4.61334 30.3457 4.31445C30.6446 4.01557 30.8125 3.61019 30.8125 3.1875ZM32.4062 7.96875C32.3955 7.54945 32.2241 7.1503 31.9275 6.85371C31.631 6.55712 31.2318 6.38576 30.8125 6.375H27.625C27.2057 6.38576 26.8065 6.55712 26.51 6.85371C26.2134 7.1503 26.042 7.54945 26.0312 7.96875V12.2188H27.0938V9.5625C27.0938 9.4216 27.1497 9.28648 27.2493 9.18685C27.349 9.08722 27.4841 9.03125 27.625 9.03125C27.7659 9.03125 27.901 9.08722 28.0007 9.18685C28.1003 9.28648 28.1562 9.4216 28.1562 9.5625V12.2188H29.2506C29.3017 11.9639 29.4266 11.7298 29.6099 11.5456C29.7932 11.3613 30.0267 11.2352 30.2812 11.1828V9.5625C30.2812 9.4216 30.3372 9.28648 30.4368 9.18685C30.5365 9.08722 30.6716 9.03125 30.8125 9.03125C30.9534 9.03125 31.0885 9.08722 31.1882 9.18685C31.2878 9.28648 31.3438 9.4216 31.3438 9.5625V11.6875C31.3438 11.8284 31.2878 11.9635 31.1882 12.0632C31.0885 12.1628 30.9534 12.2188 30.8125 12.2188H30.5469C30.4764 12.2188 30.4089 12.2467 30.359 12.2966C30.3092 12.3464 30.2812 12.4139 30.2812 12.4844C30.2812 12.5548 30.3092 12.6224 30.359 12.6722C30.4089 12.722 30.4764 12.75 30.5469 12.75H31.875C32.0159 12.75 32.151 12.694 32.2507 12.5944C32.3503 12.4948 32.4062 12.3596 32.4062 12.2188V7.96875Z" fill="#1A82E0"/>
<path d="M19.6297 28.1562C19.6949 28.1315 19.7644 28.1198 19.8341 28.1219C19.9039 28.1239 19.9725 28.1397 20.0362 28.1684C20.0998 28.197 20.1572 28.2378 20.205 28.2886C20.2529 28.3394 20.2902 28.3991 20.315 28.4644L21.6166 31.875H24.9687V27.625C24.9784 26.9235 25.2613 26.2535 25.7574 25.7574C26.2535 25.2613 26.9235 24.9784 27.625 24.9687C27.179 24.6342 26.8496 24.1679 26.6833 23.6358C26.5171 23.1036 26.5225 22.5327 26.6988 22.0038C26.8751 21.4749 27.2133 21.0149 27.6656 20.6889C28.1179 20.3629 28.6612 20.1875 29.2187 20.1875C29.7762 20.1875 30.3196 20.3629 30.7719 20.6889C31.2242 21.0149 31.5624 21.4749 31.7387 22.0038C31.915 22.5327 31.9204 23.1036 31.7542 23.6358C31.5879 24.1679 31.2585 24.6342 30.8125 24.9687C31.514 24.9784 32.184 25.2613 32.6801 25.7574C33.1762 26.2535 33.4591 26.9235 33.4688 27.625V31.875C33.4649 32.0945 33.4166 32.311 33.3267 32.5114C33.2369 32.7118 33.1074 32.8919 32.946 33.0408C32.7847 33.1897 32.5948 33.3044 32.3879 33.378C32.181 33.4515 31.9613 33.4824 31.7422 33.4687H30.6C30.3877 33.4689 30.1782 33.4212 29.9869 33.3292C29.7956 33.2372 29.6275 33.1034 29.495 32.9375H21.25C21.143 32.9372 21.0386 32.9046 20.9504 32.8439C20.8622 32.7832 20.7945 32.6973 20.7559 32.5975L19.3216 28.8416C19.2968 28.7763 19.2851 28.7069 19.2872 28.6371C19.2893 28.5674 19.3051 28.4987 19.3337 28.4351C19.3623 28.3714 19.4031 28.3141 19.4539 28.2662C19.5047 28.2184 19.5645 28.181 19.6297 28.1562ZM30.8125 22.8437C30.8125 22.5285 30.719 22.2204 30.5439 21.9583C30.3688 21.6962 30.1199 21.4919 29.8287 21.3713C29.5374 21.2507 29.217 21.2191 28.9078 21.2806C28.5987 21.3421 28.3147 21.4939 28.0918 21.7168C27.8689 21.9397 27.7171 22.2237 27.6556 22.5328C27.5941 22.842 27.6257 23.1624 27.7463 23.4537C27.8669 23.7449 28.0712 23.9938 28.3333 24.1689C28.5954 24.344 28.9035 24.4375 29.2187 24.4375C29.6414 24.4375 30.0468 24.2696 30.3457 23.9707C30.6446 23.6718 30.8125 23.2664 30.8125 22.8437ZM26.0312 31.875H27.0937V29.2187C27.0937 29.0779 27.1497 28.9427 27.2493 28.8431C27.349 28.7435 27.4841 28.6875 27.625 28.6875C27.7659 28.6875 27.901 28.7435 28.0006 28.8431C28.1003 28.9427 28.1562 29.0779 28.1562 29.2187V31.875H29.2506C29.2969 31.6153 29.4198 31.3754 29.6034 31.1861C29.7871 30.9968 30.0231 30.8667 30.2812 30.8125V29.2187C30.2812 29.0779 30.3372 28.9427 30.4368 28.8431C30.5365 28.7435 30.6716 28.6875 30.8125 28.6875C30.9534 28.6875 31.0885 28.7435 31.1882 28.8431C31.2878 28.9427 31.3437 29.0779 31.3437 29.2187V31.3437C31.3437 31.4846 31.2878 31.6198 31.1882 31.7194C31.0885 31.819 30.9534 31.875 30.8125 31.875H30.5469C30.4764 31.875 30.4089 31.903 30.359 31.9528C30.3092 32.0026 30.2812 32.0702 30.2812 32.1406C30.2812 32.2111 30.3092 32.2786 30.359 32.3284C30.4089 32.3783 30.4764 32.4062 30.5469 32.4062H31.875C32.0159 32.4062 32.151 32.3503 32.2507 32.2506C32.3503 32.151 32.4062 32.0159 32.4062 31.875V27.625C32.3955 27.2057 32.2241 26.8065 31.9275 26.51C31.631 26.2134 31.2318 26.042 30.8125 26.0312H27.625C27.2057 26.042 26.8065 26.2134 26.51 26.51C26.2134 26.8065 26.042 27.2057 26.0312 27.625V31.875Z" fill="#1A82E0"/>
</g>
<defs>
<clipPath id="clip0_5224_8265">
<rect width="34" height="34" fill="white" transform="matrix(-1 0 0 1 34 0)"/>
</clipPath>
</defs>
</svg>
