<svg width="39" height="39" viewBox="0 0 39 39" fill="none" xmlns="http://www.w3.org/2000/svg">
<path fill-rule="evenodd" clip-rule="evenodd" d="M10.4531 17.5571H6.69174C5.8927 17.5571 5.24219 16.9066 5.24219 16.1075C5.24219 15.3077 5.8927 14.6572 6.69174 14.6572H10.4531C11.2529 14.6572 11.9034 15.3077 11.9034 16.1075C11.9034 16.9066 11.2529 17.5571 10.4531 17.5571ZM6.69174 15.5713C6.39619 15.5713 6.15549 15.812 6.15549 16.1075C6.15549 16.4031 6.39619 16.6438 6.69174 16.6438H10.4531C10.7494 16.6438 10.9894 16.4031 10.9894 16.1075C10.9894 15.812 10.7494 15.5713 10.4531 15.5713H6.69174Z" fill="#1A82E0"/>
<path fill-rule="evenodd" clip-rule="evenodd" d="M7.18359 15.5716C6.93146 15.5716 6.72656 15.3667 6.72656 15.1146V13.6574C6.72656 13.4053 6.93146 13.2012 7.18359 13.2012C7.43572 13.2012 7.64062 13.4053 7.64062 13.6574V15.1146C7.64062 15.3667 7.43572 15.5716 7.18359 15.5716Z" fill="#1A82E0"/>
<path fill-rule="evenodd" clip-rule="evenodd" d="M9.96484 15.5716C9.71195 15.5716 9.50781 15.3667 9.50781 15.1146V13.6574C9.50781 13.4053 9.71195 13.2012 9.96484 13.2012C10.217 13.2012 10.4211 13.4053 10.4211 13.6574V15.1146C10.4211 15.3667 10.217 15.5716 9.96484 15.5716Z" fill="#1A82E0"/>
<path fill-rule="evenodd" clip-rule="evenodd" d="M13.4246 14.114H2.545C1.73225 14.114 1.07031 13.4529 1.07031 12.6401V3.71123C1.07031 2.89848 1.73225 2.2373 2.545 2.2373H14.5984C15.412 2.2373 16.0731 2.89848 16.0731 3.71123V7.3134C16.0731 7.56553 15.8682 7.77043 15.6161 7.77043C15.364 7.77043 15.1598 7.56553 15.1598 7.3134V3.71123C15.1598 3.40197 14.9077 3.15061 14.5984 3.15061H2.545C2.23574 3.15061 1.98438 3.40197 1.98438 3.71123V12.6401C1.98438 12.9494 2.23574 13.2007 2.545 13.2007H13.4246C13.6768 13.2007 13.8817 13.4049 13.8817 13.657C13.8817 13.9099 13.6768 14.114 13.4246 14.114Z" fill="#1A82E0"/>
<path fill-rule="evenodd" clip-rule="evenodd" d="M37.4715 17.5573H25.5742C25.3221 17.5573 25.1172 17.3532 25.1172 17.1011C25.1172 16.8489 25.3221 16.644 25.5742 16.644H37.0145V9.61643H25.5742C25.3221 9.61643 25.1172 9.41229 25.1172 9.16016C25.1172 8.90803 25.3221 8.70312 25.5742 8.70312H37.4715C37.7236 8.70312 37.9278 8.90803 37.9278 9.16016V17.1011C37.9278 17.3532 37.7236 17.5573 37.4715 17.5573Z" fill="#1A82E0"/>
<path fill-rule="evenodd" clip-rule="evenodd" d="M37.3374 14.9563H25.5742C25.3221 14.9563 25.1172 14.7514 25.1172 14.4992C25.1172 14.2471 25.3221 14.043 25.5742 14.043H37.3374C37.5896 14.043 37.7937 14.2471 37.7937 14.4992C37.7937 14.7514 37.5896 14.9563 37.3374 14.9563Z" fill="#1A82E0"/>
<path fill-rule="evenodd" clip-rule="evenodd" d="M37.3374 12.2178H25.5742C25.3221 12.2178 25.1172 12.0129 25.1172 11.7607C25.1172 11.5086 25.3221 11.3037 25.5742 11.3037H37.3374C37.5896 11.3037 37.7937 11.5086 37.7937 11.7607C37.7937 12.0129 37.5896 12.2178 37.3374 12.2178Z" fill="#1A82E0"/>
<path fill-rule="evenodd" clip-rule="evenodd" d="M20.9432 29.0332H18.0578C17.8057 29.0332 17.6016 28.8283 17.6016 28.5762V25.2559C17.6016 25.003 17.8057 24.7988 18.0578 24.7988H20.9432C21.1954 24.7988 21.3995 25.003 21.3995 25.2559V28.5762C21.3995 28.8283 21.1954 29.0332 20.9432 29.0332ZM18.5149 28.1192H20.4862V25.7121H18.5149V28.1192Z" fill="#1A82E0"/>
<path fill-rule="evenodd" clip-rule="evenodd" d="M19.5039 31.9635C19.2518 31.9635 19.0469 31.7594 19.0469 31.5065V28.5762C19.0469 28.324 19.2518 28.1191 19.5039 28.1191C19.756 28.1191 19.9609 28.324 19.9609 28.5762V31.5065C19.9609 31.7594 19.756 31.9635 19.5039 31.9635Z" fill="#1A82E0"/>
<path fill-rule="evenodd" clip-rule="evenodd" d="M25.2618 34.0822C25.0096 34.0822 24.8047 33.8781 24.8047 33.6259C24.8047 32.948 22.7397 31.9631 19.5039 31.9631C16.2681 31.9631 14.2024 32.948 14.2024 33.6259C14.2024 33.8781 13.9982 34.0822 13.7461 34.0822C13.494 34.0822 13.2891 33.8781 13.2891 33.6259C13.2891 33.0798 13.6334 32.3021 15.2749 31.698C16.4113 31.2798 17.9135 31.0498 19.5039 31.0498C21.0944 31.0498 22.5965 31.2798 23.733 31.698C25.3745 32.3028 25.7188 33.0798 25.7188 33.6259C25.7188 33.8781 25.5139 34.0822 25.2618 34.0822Z" fill="#1A82E0"/>
<path fill-rule="evenodd" clip-rule="evenodd" d="M13.743 36.7627C12.752 36.7627 11.9453 35.9568 11.9453 34.9658C11.9453 33.9748 12.752 33.1689 13.743 33.1689C14.734 33.1689 15.5399 33.9748 15.5399 34.9658C15.5399 35.9568 14.734 36.7627 13.743 36.7627ZM13.743 34.0822C13.2555 34.0822 12.8594 34.4783 12.8594 34.9658C12.8594 35.4526 13.2555 35.8494 13.743 35.8494C14.2297 35.8494 14.6258 35.4526 14.6258 34.9658C14.6258 34.4783 14.2297 34.0822 13.743 34.0822Z" fill="#1A82E0"/>
<path fill-rule="evenodd" clip-rule="evenodd" d="M25.2578 36.7627C24.2668 36.7627 23.4609 35.9568 23.4609 34.9658C23.4609 33.9748 24.2668 33.1689 25.2578 33.1689C26.2488 33.1689 27.0547 33.9748 27.0547 34.9658C27.0547 35.9568 26.2488 36.7627 25.2578 36.7627ZM25.2578 34.0822C24.7711 34.0822 24.3742 34.4783 24.3742 34.9658C24.3742 35.4526 24.7711 35.8494 25.2578 35.8494C25.7453 35.8494 26.1414 35.4526 26.1414 34.9658C26.1414 34.4783 25.7453 34.0822 25.2578 34.0822Z" fill="#1A82E0"/>
<path fill-rule="evenodd" clip-rule="evenodd" d="M19.5 36.7627C18.509 36.7627 17.7031 35.9568 17.7031 34.9658C17.7031 33.9748 18.509 33.1689 19.5 33.1689C20.491 33.1689 21.2969 33.9748 21.2969 34.9658C21.2969 35.9568 20.491 36.7627 19.5 36.7627ZM19.5 34.0822C19.0125 34.0822 18.6164 34.4783 18.6164 34.9658C18.6164 35.4526 19.0125 35.8494 19.5 35.8494C19.9868 35.8494 20.3836 35.4526 20.3836 34.9658C20.3836 34.4783 19.9868 34.0822 19.5 34.0822Z" fill="#1A82E0"/>
<path fill-rule="evenodd" clip-rule="evenodd" d="M19.5039 33.8133C19.2518 33.8133 19.0469 33.6092 19.0469 33.3571V31.5061C19.0469 31.2539 19.2518 31.0498 19.5039 31.0498C19.756 31.0498 19.9609 31.2539 19.9609 31.5061V33.3571C19.9609 33.6092 19.756 33.8133 19.5039 33.8133Z" fill="#1A82E0"/>
<path fill-rule="evenodd" clip-rule="evenodd" d="M24.0352 22.6453H14.9746C13.8723 22.6453 12.9766 21.7488 12.9766 20.6474V8.85519C12.9766 7.75299 13.8723 6.85645 14.9746 6.85645H24.0352C25.1366 6.85645 26.0332 7.75299 26.0332 8.85519V20.6474C26.0332 21.7488 25.1366 22.6453 24.0352 22.6453ZM14.9746 7.77051C14.3766 7.77051 13.8899 8.25725 13.8899 8.85519V20.6474C13.8899 21.2453 14.3766 21.7313 14.9746 21.7313H24.0352C24.6331 21.7313 25.1191 21.2453 25.1191 20.6474V8.85519C25.1191 8.25725 24.6331 7.77051 24.0352 7.77051H14.9746Z" fill="#1A82E0"/>
<path fill-rule="evenodd" clip-rule="evenodd" d="M26.7107 25.7123H12.2944C11.602 25.7123 11.0391 25.1494 11.0391 24.457V20.9135C11.0391 20.2211 11.602 19.6582 12.2944 19.6582H13.4309C13.683 19.6582 13.8879 19.8631 13.8879 20.1152V20.6469C13.8879 21.2449 14.3746 21.7316 14.9726 21.7316H24.0325C24.6304 21.7316 25.1171 21.2449 25.1171 20.6469V20.1152C25.1171 19.8631 25.3221 19.6582 25.5742 19.6582H26.7107C27.4031 19.6582 27.966 20.2211 27.966 20.9135V24.457C27.966 25.1494 27.4031 25.7123 26.7107 25.7123ZM12.2944 20.5715C12.1055 20.5715 11.9524 20.7254 11.9524 20.9135V24.457C11.9524 24.6459 12.1055 24.799 12.2944 24.799H26.7107C26.8996 24.799 27.0527 24.6459 27.0527 24.457V20.9135C27.0527 20.7246 26.8996 20.5715 26.7107 20.5715H26.0305V20.6469C26.0305 21.7491 25.1347 22.6457 24.0325 22.6457H14.9726C13.8704 22.6457 12.9746 21.7491 12.9746 20.6469V20.5715H12.2944Z" fill="#1A82E0"/>
<path fill-rule="evenodd" clip-rule="evenodd" d="M37.8073 21.5346H27.5059C27.2537 21.5346 27.0488 21.3296 27.0488 21.0775V20.913C27.0488 20.7248 26.8957 20.571 26.7068 20.571H25.5703C25.3182 20.571 25.1133 20.3668 25.1133 20.1147V17.1006C25.1133 16.8485 25.3182 16.6436 25.5703 16.6436H37.8073C38.4594 16.6436 38.9895 17.1737 38.9895 17.8257V20.3524C38.9895 21.0044 38.4594 21.5346 37.8073 21.5346ZM27.9279 20.6213H37.8073C37.9528 20.6213 38.0755 20.4979 38.0755 20.3524V17.8257C38.0755 17.6803 37.9528 17.5576 37.8073 17.5576H26.0274V19.6577H26.7068C27.2987 19.6577 27.7961 20.069 27.9279 20.6213ZM11.4915 21.5346H1.19C0.537969 21.5346 0.0078125 21.0044 0.0078125 20.3524V17.825C0.0078125 17.1737 0.537969 16.6436 1.19 16.6436H13.427C13.6791 16.6436 13.884 16.8477 13.884 17.1006V20.1147C13.884 20.3668 13.6791 20.571 13.427 20.571H12.2905C12.1016 20.571 11.9485 20.7248 11.9485 20.913V21.0775C11.9485 21.3296 11.7444 21.5346 11.4915 21.5346ZM1.19 17.5569C1.04451 17.5569 0.921875 17.6803 0.921875 17.825V20.3524C0.921875 20.4979 1.04451 20.6205 1.19 20.6205H11.0695C11.2013 20.069 11.6987 19.6577 12.2905 19.6577H12.9707V17.5569H1.19Z" fill="#1A82E0"/>
<path fill-rule="evenodd" clip-rule="evenodd" d="M37.8088 36.7634H35.1747C34.9226 36.7634 34.7185 36.5593 34.7185 36.3072V24.1692H27.5073C27.2551 24.1692 27.0502 23.9643 27.0502 23.7121V21.0781C27.0502 20.826 27.2551 20.6211 27.5073 20.6211H37.8088C38.0609 20.6211 38.2658 20.826 38.2658 21.0781V36.3072C38.2658 36.5593 38.0609 36.7634 37.8088 36.7634ZM35.6318 35.8501H37.3517V21.5352H27.9635V23.2551H35.1747C35.4269 23.2551 35.6318 23.46 35.6318 23.7121V35.8501ZM3.82543 36.7634H1.19141C0.939277 36.7634 0.734375 36.5593 0.734375 36.3072V21.0781C0.734375 20.826 0.939277 20.6211 1.19141 20.6211H11.4929C11.7458 20.6211 11.9499 20.826 11.9499 21.0781V23.7121C11.9499 23.9643 11.7458 24.1692 11.4929 24.1692H4.28246V36.3072C4.28246 36.5593 4.07756 36.7634 3.82543 36.7634ZM1.64844 35.8501H3.3684V23.7121C3.3684 23.46 3.5733 23.2551 3.82543 23.2551H11.0366V21.5352H1.64844V35.8501Z" fill="#1A82E0"/>
</svg>
