<svg width="43" height="43" viewBox="0 0 43 43" fill="none" xmlns="http://www.w3.org/2000/svg">
<g clip-path="url(#clip0_5215_8125)">
<path d="M3.77158 38.2141C3.58989 38.7609 3.54065 39.343 3.62791 39.9125C3.71517 40.4821 3.93645 41.0228 4.27353 41.4901C4.6106 41.9574 5.05384 42.3379 5.56675 42.6004C6.07966 42.8629 6.64758 42.9999 7.22377 43H35.7743C36.3504 42.9999 36.9183 42.8629 37.4311 42.6004C37.9439 42.338 38.3871 41.9575 38.7242 41.4903C39.0612 41.0231 39.2825 40.4825 39.3699 39.913C39.4572 39.3436 39.4081 38.7616 39.2265 38.2148L36.539 30.1502C36.3501 29.5991 36.1202 29.0629 35.851 28.5463L36.0467 27.8024C36.131 27.4816 36.1406 27.1458 36.0747 26.8208C36.0089 26.4958 35.8694 26.1902 35.6669 25.9276C35.4644 25.665 35.2044 25.4523 34.9068 25.3059C34.6092 25.1595 34.282 25.0834 33.9504 25.0833H33.1528C31.0413 23.2365 28.3319 22.218 25.5267 22.2167H25.0824V21.6978C26.3748 21.0208 27.4713 20.0228 28.2665 18.7996C28.6772 17.9023 28.9384 16.9439 29.0398 15.9623C29.5507 15.8177 30.0004 15.5104 30.3209 15.0871C30.6413 14.6638 30.8151 14.1476 30.8157 13.6167V9.31667C30.8157 6.84573 29.8341 4.476 28.0869 2.72879C26.3397 0.981575 23.97 0 21.4991 0C19.0281 0 16.6584 0.981575 14.9112 2.72879C13.164 4.476 12.1824 6.84573 12.1824 9.31667V13.6167C12.183 14.1476 12.3568 14.6638 12.6772 15.0871C12.9977 15.5104 13.4475 15.8177 13.9583 15.9623C14.0596 16.944 14.3211 17.9024 14.7323 18.7996C15.5273 20.0227 16.6235 21.0208 17.9157 21.6978V22.2167H17.4714C14.6662 22.218 11.9568 23.2365 9.84533 25.0833H9.04768C8.716 25.0833 8.38873 25.1594 8.09107 25.3057C7.7934 25.452 7.53328 25.6647 7.33072 25.9273C7.12816 26.19 6.98857 26.4956 6.92269 26.8206C6.85681 27.1457 6.8664 27.4816 6.95072 27.8024L7.14708 28.547C6.87739 29.0641 6.64693 29.6007 6.45765 30.1523L3.77158 38.2141ZM10.0324 41.5667V40.1333H32.9657V41.5667H10.0324ZM37.8677 38.6692C37.9771 39.0005 38.0063 39.353 37.953 39.6978C37.8997 40.0426 37.7654 40.3698 37.5611 40.6526C37.3568 40.9354 37.0883 41.1657 36.7777 41.3246C36.4671 41.4835 36.1232 41.5665 35.7743 41.5667H34.3991V40.1333C34.3977 39.7901 34.2732 39.4587 34.0481 39.1995C33.8231 38.9402 33.5125 38.7704 33.1728 38.7208L35.2512 30.8202L37.8677 38.6692ZM30.7233 25.0833H24.3449C24.6707 24.6614 24.8973 24.1715 25.0079 23.65H25.5246C27.3549 23.6507 29.1511 24.146 30.7233 25.0833ZM21.4991 1.43333C23.5891 1.4358 25.5928 2.26715 27.0707 3.74503C28.5486 5.22291 29.3799 7.22663 29.3824 9.31667V11.395C29.2699 11.3429 29.1534 11.2998 29.0341 11.266C28.9055 10.595 28.5642 9.98336 28.0608 9.52151C27.5574 9.05967 26.9186 8.77223 26.2391 8.70177C24.8129 8.51183 23.4563 7.97 22.2917 7.1251C22.0592 6.96526 21.7837 6.87969 21.5016 6.87969C21.2194 6.87969 20.9439 6.96526 20.7114 7.1251C19.5582 7.97654 18.2066 8.51926 16.7848 8.70177C16.0995 8.76459 15.4534 9.04912 14.9443 9.51224C14.4353 9.97536 14.0911 10.5918 13.964 11.2681C13.8454 11.3017 13.7297 11.3446 13.6179 11.3964V9.31667C13.6203 7.22701 14.4514 5.22361 15.9288 3.74579C17.4062 2.26797 19.4094 1.43637 21.4991 1.43333ZM16.0108 18.1517C15.6231 17.2472 15.3945 16.2825 15.335 15.3001C15.3256 15.1165 15.246 14.9434 15.1126 14.8168C14.9792 14.6902 14.8022 14.6198 14.6183 14.62C14.3522 14.62 14.097 14.5143 13.9089 14.3261C13.7207 14.138 13.615 13.8828 13.615 13.6167C13.615 13.3506 13.7207 13.0954 13.9089 12.9072C14.097 12.719 14.3522 12.6133 14.6183 12.6133C14.8084 12.6133 14.9907 12.5378 15.1251 12.4034C15.2595 12.269 15.335 12.0867 15.335 11.8967C15.3335 11.4597 15.4937 11.0376 15.7848 10.7117C16.0759 10.3858 16.4773 10.1791 16.9117 10.1315C18.5631 9.92557 20.1335 9.29711 21.4711 8.30688C22.8375 9.29779 24.4328 9.92628 26.1079 10.1337C26.5396 10.1823 26.9377 10.3897 27.225 10.7156C27.5122 11.0414 27.6681 11.4623 27.6624 11.8967C27.6624 12.0867 27.7379 12.269 27.8723 12.4034C28.0067 12.5378 28.189 12.6133 28.3791 12.6133C28.6452 12.6133 28.9004 12.719 29.0885 12.9072C29.2767 13.0954 29.3824 13.3506 29.3824 13.6167C29.3824 13.8828 29.2767 14.138 29.0885 14.3261C28.9004 14.5143 28.6452 14.62 28.3791 14.62C28.1951 14.6198 28.0182 14.6902 27.8848 14.8168C27.7514 14.9434 27.6718 15.1165 27.6624 15.3001C27.6029 16.2824 27.3745 17.2471 26.9873 18.1517C26.29 19.5284 23.0578 21.5 21.4991 21.5C19.9403 21.5 16.7081 19.5284 16.0108 18.1517ZM21.4991 22.9333C22.2419 22.8947 22.9711 22.7178 23.6491 22.4116V22.9333C23.6491 23.5035 23.4225 24.0504 23.0193 24.4536C22.6161 24.8568 22.0693 25.0833 21.4991 25.0833C20.9288 25.0833 20.382 24.8568 19.9788 24.4536C19.5756 24.0504 19.3491 23.5035 19.3491 22.9333V22.4116C20.027 22.7178 20.7562 22.8947 21.4991 22.9333ZM17.4714 23.65H17.9874C18.0979 24.1715 18.3245 24.6614 18.6503 25.0833H12.272C13.8443 24.1458 15.6408 23.6506 17.4714 23.65ZM8.46575 26.8033C8.53418 26.714 8.62229 26.6417 8.72321 26.592C8.82414 26.5423 8.93518 26.5165 9.04768 26.5167H33.9504C34.0627 26.5166 34.1735 26.5423 34.2743 26.5918C34.3751 26.6413 34.4632 26.7133 34.5318 26.8021C34.6004 26.891 34.6477 26.9945 34.67 27.1045C34.6924 27.2146 34.6891 27.3283 34.6606 27.4369L31.6965 38.7H11.3016L8.33747 27.4369C8.30874 27.3285 8.30537 27.215 8.32762 27.1051C8.34987 26.9952 8.39713 26.892 8.46575 26.8033ZM9.82742 38.7215C9.48748 38.7706 9.17648 38.9402 8.95103 39.1993C8.72558 39.4584 8.60067 39.7899 8.59905 40.1333V41.5667H7.22377C6.8748 41.5665 6.53085 41.4835 6.22017 41.3246C5.90949 41.1657 5.64096 40.9353 5.43663 40.6524C5.23229 40.3695 5.09799 40.0422 5.04475 39.6973C4.99152 39.3524 5.02086 38.9998 5.13038 38.6685L7.7455 30.8202L9.82742 38.7215Z" fill="#1A82E0"/>
<path d="M21.4974 36.5497C23.4732 36.5497 25.0807 35.264 25.0807 33.6831C25.0807 32.1021 23.4732 30.8164 21.4974 30.8164C19.5215 30.8164 17.9141 32.1021 17.9141 33.6831C17.9141 35.264 19.5215 36.5497 21.4974 36.5497ZM21.4974 32.2497C22.6627 32.2497 23.6474 32.9062 23.6474 33.6831C23.6474 34.4599 22.6627 35.1164 21.4974 35.1164C20.3321 35.1164 19.3474 34.4599 19.3474 33.6831C19.3474 32.9062 20.3321 32.2497 21.4974 32.2497Z" fill="#1A82E0"/>
</g>
<defs>
<clipPath id="clip0_5215_8125">
<rect width="43" height="43" fill="white"/>
</clipPath>
</defs>
</svg>
