<svg width="42" height="42" viewBox="0 0 42 42" fill="none" xmlns="http://www.w3.org/2000/svg">
<mask id="mask0_5215_8074" style="mask-type:luminance" maskUnits="userSpaceOnUse" x="0" y="0" width="42" height="42">
<path d="M0 3.8147e-06H42V42H0V3.8147e-06Z" fill="white"/>
</mask>
<g mask="url(#mask0_5215_8074)">
<path d="M22.3166 27.6164H33.4475C33.9776 27.6164 34.4125 28.0512 34.4125 28.5814V37.1385C34.4125 37.6687 33.9776 38.1035 33.4475 38.1035H22.3166C21.7864 38.1035 21.3516 37.6687 21.3516 37.1385V28.5814C21.3516 28.0512 21.7864 27.6164 22.3166 27.6164Z" stroke="#1A82E0" stroke-width="1.23047" stroke-miterlimit="10" stroke-linecap="round" stroke-linejoin="round"/>
<path d="M2.33594 19.1272H39.677V21.1641C39.677 22.8755 38.2772 24.2754 36.5658 24.2754C34.8521 24.2754 33.4523 22.8755 33.4523 21.1641C33.4523 22.8755 32.0525 24.2754 30.3411 24.2754C28.6297 24.2754 27.23 22.8755 27.23 21.1641C27.23 22.8755 25.8302 24.2754 24.1165 24.2754C22.405 24.2754 21.0053 22.8755 21.0053 21.1641C21.0053 22.8755 19.6055 24.2754 17.8941 24.2754C16.1827 24.2754 14.7829 22.8755 14.7829 21.1641C14.7829 22.8755 13.3832 24.2754 11.6695 24.2754C9.95812 24.2754 8.55834 22.8755 8.55834 21.1641C8.55834 22.8755 7.15847 24.2754 5.44714 24.2754C3.73572 24.2754 2.33594 22.8755 2.33594 21.1641V19.1272Z" stroke="#1A82E0" stroke-width="1.23047" stroke-miterlimit="10" stroke-linecap="round" stroke-linejoin="round"/>
<path d="M37.6952 33.867V40.3732C37.6952 40.929 37.2418 41.3848 36.6836 41.3848H5.31621C4.76045 41.3848 4.30469 40.929 4.30469 40.3732V24.0589M37.6952 24.0589V31.0278" stroke="#1A82E0" stroke-width="1.23047" stroke-miterlimit="10" stroke-linecap="round" stroke-linejoin="round"/>
<path d="M39.677 19.127H2.33594L6.87013 12.3464H35.1404L39.677 19.127Z" stroke="#1A82E0" stroke-width="1.23047" stroke-miterlimit="10" stroke-linecap="round" stroke-linejoin="round"/>
<path d="M8.55469 21.1641V19.1271" stroke="#1A82E0" stroke-width="1.23047" stroke-miterlimit="10" stroke-linecap="round" stroke-linejoin="round"/>
<path d="M14.7891 21.1641V19.1271" stroke="#1A82E0" stroke-width="1.23047" stroke-miterlimit="10" stroke-linecap="round" stroke-linejoin="round"/>
<path d="M21 21.1641V19.1271" stroke="#1A82E0" stroke-width="1.23047" stroke-miterlimit="10" stroke-linecap="round" stroke-linejoin="round"/>
<path d="M27.2266 21.1641V19.1271" stroke="#1A82E0" stroke-width="1.23047" stroke-miterlimit="10" stroke-linecap="round" stroke-linejoin="round"/>
<path d="M33.4531 21.1641V19.1271" stroke="#1A82E0" stroke-width="1.23047" stroke-miterlimit="10" stroke-linecap="round" stroke-linejoin="round"/>
<path d="M21 19.127V12.3464" stroke="#1A82E0" stroke-width="1.23047" stroke-miterlimit="10" stroke-linecap="round" stroke-linejoin="round"/>
<path d="M12.2705 12.3464L8.55469 19.127" stroke="#1A82E0" stroke-width="1.23047" stroke-miterlimit="10" stroke-linecap="round" stroke-linejoin="round"/>
<path d="M16.8631 12.3464L14.7891 19.127" stroke="#1A82E0" stroke-width="1.23047" stroke-miterlimit="10" stroke-linecap="round" stroke-linejoin="round"/>
<path d="M29.7422 12.3464L33.4557 19.127" stroke="#1A82E0" stroke-width="1.23047" stroke-miterlimit="10" stroke-linecap="round" stroke-linejoin="round"/>
<path d="M25.1562 12.3464L27.2303 19.127" stroke="#1A82E0" stroke-width="1.23047" stroke-miterlimit="10" stroke-linecap="round" stroke-linejoin="round"/>
<path d="M18.4141 9.11418L19.4001 3.65205C19.4256 3.52416 19.6047 3.51022 19.6464 3.63581L21.2486 9.07005C21.2881 9.18629 21.4532 9.18629 21.4904 9.07005L23.039 3.63581C23.0785 3.51251 23.2576 3.52186 23.2831 3.64975L24.3272 9.11418" stroke="#1A82E0" stroke-width="1.23047" stroke-miterlimit="10" stroke-linecap="round" stroke-linejoin="round"/>
<path d="M29.375 3.57341H27.0312V9.13086H29.375" stroke="#1A82E0" stroke-width="1.23047" stroke-miterlimit="10" stroke-linecap="round" stroke-linejoin="round"/>
<path d="M29.2006 6.35156H27.0312" stroke="#1A82E0" stroke-width="1.23047" stroke-miterlimit="10" stroke-linecap="round" stroke-linejoin="round"/>
<path d="M16.0825 4.12429C16.0825 4.12429 15.0758 3.27789 13.8875 3.63596C12.7994 3.96384 12.6458 5.22179 13.4342 5.73571C13.4342 5.73571 14.2084 6.07983 15.0664 6.39606C17.1312 7.15879 16.243 9.15625 14.5781 9.15625C13.7457 9.15625 13.0481 8.79343 12.625 8.32609" stroke="#1A82E0" stroke-width="1.23047" stroke-miterlimit="10" stroke-linecap="round" stroke-linejoin="round"/>
<path d="M19.6341 0.615474H12.1562C10.5332 0.615474 9.20312 1.94323 9.20312 3.5686V12.3467H32.8089V3.5686C32.8089 1.94323 31.4813 0.615474 29.8559 0.615474H22.4756" stroke="#1A82E0" stroke-width="1.23047" stroke-miterlimit="10" stroke-linecap="round" stroke-linejoin="round"/>
<path d="M7.58594 41.3848H16.852V28.0375C16.852 27.805 16.6614 27.6166 16.4311 27.6166H8.00684C7.77658 27.6166 7.58594 27.805 7.58594 28.0375V41.3848Z" stroke="#1A82E0" stroke-width="1.23047" stroke-miterlimit="10" stroke-linecap="round" stroke-linejoin="round"/>
<path d="M10.5781 35.5996V33.3999" stroke="#1A82E0" stroke-width="1.23047" stroke-miterlimit="10" stroke-linecap="round" stroke-linejoin="round"/>
<path d="M21.3516 35.1162H34.4125" stroke="#1A82E0" stroke-width="1.23047" stroke-miterlimit="10" stroke-linecap="round" stroke-linejoin="round"/>
</g>
</svg>
